<?xml version="1.0" encoding="UTF-8"?>
<svg width="374px" height="232px" viewBox="0 0 374 232" version="1.1" xmlns="http://www.w3.org/2000/svg" xmlns:xlink="http://www.w3.org/1999/xlink">
    <!-- Generator: Sketch 39.1 (31720) - http://www.bohemiancoding.com/sketch -->
    <title>Cloud</title>
    <desc>Created with Sketch.</desc>
    <defs>
        <filter x="-50%" y="-50%" width="200%" height="200%" filterUnits="objectBoundingBox" id="filter-1">
            <feOffset dx="0" dy="5" in="SourceAlpha" result="shadowOffsetOuter1"></feOffset>
            <feColorMatrix values="0 0 0 0 0   0 0 0 0 0   0 0 0 0 0  0 0 0 0.1 0" type="matrix" in="shadowOffsetOuter1" result="shadowMatrixOuter1"></feColorMatrix>
            <feMerge>
                <feMergeNode in="shadowMatrixOuter1"></feMergeNode>
                <feMergeNode in="SourceGraphic"></feMergeNode>
            </feMerge>
        </filter>
    </defs>
    <g id="Page-1" stroke="none" stroke-width="1" fill="none" fill-rule="evenodd">
        <g id="Cloud" filter="url(#filter-1)">
            <rect id="Rectangle-1" fill="#FFFFFF" x="56.3253012" y="94.2070207" width="239.945783" height="132.338434"></rect>
            <ellipse id="Small" fill="#FFFFFF" cx="56.3253012" cy="170.469847" rx="56.3253012" ry="56.0756076"></ellipse>
            <ellipse id="Smaller---Shadow" fill-opacity="0.1" fill="#4CA0E0" cx="85.6144578" cy="112.151215" rx="50.6927711" ry="50.4680468"></ellipse>
            <ellipse id="Smaller" fill="#FFFFFF" cx="88.9939759" cy="108.786679" rx="50.6927711" ry="50.4680468"></ellipse>
            <ellipse id="Medium---Shadow" fill-opacity="0.1" fill="#4CA0E0" cx="176.298193" cy="70.0945095" rx="70.4066265" ry="70.0945095"></ellipse>
            <ellipse id="Medium" fill="#FFFFFF" cx="183.057229" cy="72.3375338" rx="70.4066265" ry="70.0945095"></ellipse>
            <path d="M289.512048,215.330333 C336.173456,215.330333 374,177.671476 374,131.216922 C374,84.7623674 336.173456,47.1035104 289.512048,47.1035104 C242.850641,47.1035104 205.024096,84.7623674 205.024096,131.216922 C205.024096,177.671476 242.850641,215.330333 289.512048,215.330333 Z" id="Big--Shadow" fill-opacity="0.1" fill="#4CA0E0"></path>
            <ellipse id="Big" fill="#FFFFFF" cx="289.512048" cy="142.432043" rx="84.4879518" ry="84.1134113"></ellipse>
        </g>
    </g>
</svg>