<svg xmlns="http://www.w3.org/2000/svg" width="533" height="298" viewBox="0 0 533 298" xmlns:xlink="http://www.w3.org/1999/xlink">
  <defs>
    <rect id="a" width="532.903" height="298"/>
    <mask id="b" width="532.903" height="298" x="0" y="0" fill="white">
      <use xlink:href="#a"/>
    </mask>
  </defs>
  <g fill="none" fill-rule="evenodd">
    <use stroke="#FFFFFF" stroke-width="4" mask="url(#b)" xlink:href="#a"/>
    <path fill="#FFFFFF" d="M224.071,194.592 C223.954999,193.934663 223.877667,193.393335 223.839,192.968 C223.800333,192.542665 223.781,192.102836 223.781,191.6485 C223.781,191.194164 223.858333,190.938 224.013,190.88 L224.1,190.88 C224.680003,190.88 225.752992,190.483671 227.319,189.691 C228.885008,188.898329 230.66849,187.830173 232.6695,186.4865 C234.67051,185.142827 236.758489,183.422177 238.9335,181.3245 C241.108511,179.226823 242.90166,177.105011 244.313,174.959 C244.564335,174.591665 244.776999,174.408 244.951,174.408 C245.009,174.408 245.071833,174.437 245.1395,174.495 C245.207167,174.553 245.241,174.649666 245.241,174.785 C245.241,174.920334 245.173334,175.103999 245.038,175.336 C242.833989,178.990018 239.73102,182.426484 235.729,185.6455 C231.72698,188.864516 228.382347,190.81233 225.695,191.489 C225.656333,191.547 225.637,191.667832 225.637,191.8515 C225.637,192.035168 225.656333,192.339665 225.695,192.765 C225.733667,193.190335 225.922165,194.007161 226.2605,195.2155 C226.598835,196.423839 226.990331,197.540328 227.435,198.565 C228.749673,201.581015 230.479989,203.089 232.626,203.089 C233.86334,203.089 235.047494,202.828003 236.1785,202.306 C237.309506,201.783997 238.126331,201.030005 238.629,200.044 C238.745001,199.773332 238.889999,199.638 239.064,199.638 C239.238001,199.638 239.218668,199.850665 239.006,200.276 C238.483997,201.339339 237.570507,202.281829 236.2655,203.1035 C234.960493,203.925171 233.621674,204.336 232.249,204.336 C230.876326,204.336 229.581006,203.833338 228.363,202.828 C226.236323,201.087991 224.80567,198.342685 224.071,194.592 L224.071,194.592 Z M228.9285,176.7715 C229.363502,176.239831 229.740498,175.9305 230.0595,175.8435 C230.378502,175.7565 230.687832,175.713 230.9875,175.713 C231.287168,175.713 231.514333,175.838665 231.669,176.09 C231.823667,176.341335 231.901,176.592665 231.901,176.844 C231.901,177.095335 231.717335,177.385332 231.35,177.714 C230.73133,178.274669 229.755007,178.622666 228.421,178.758 C227.318994,180.749343 226.052674,183.948978 224.622,188.357 C224.099997,189.961675 223.399171,191.667824 222.5195,193.4755 C221.639829,195.283176 220.697338,196.86366 219.692,198.217 C218.686662,199.57034 217.357508,200.764161 215.7045,201.7985 C214.051492,202.832839 212.18101,203.504665 210.093,203.814 C209.41633,203.910667 208.667171,203.959 207.8455,203.959 C207.023829,203.959 206.129672,203.852668 205.163,203.64 C201.624982,202.827996 199.343672,201.088013 198.319,198.42 C198.009665,197.607996 197.855,196.800837 197.855,195.9985 C197.855,195.196163 197.966166,194.369671 198.1885,193.519 C198.410834,192.668329 198.894163,191.909503 199.6385,191.2425 C200.382837,190.575497 200.996664,190.213 201.48,190.155 C201.731335,190.116333 201.857,190.174333 201.857,190.329 C201.857,190.425667 201.799001,190.503 201.683,190.561 C201.218998,190.773668 200.658337,191.276329 200.001,192.069 C199.150329,193.113005 198.725,194.408326 198.725,195.955 C198.725,197.540341 199.208329,198.825995 200.175,199.812 C201.354339,201.04934 202.746325,201.822665 204.351,202.132 C205.453006,202.344668 206.361663,202.451 207.077,202.451 C207.792337,202.451 208.420664,202.373667 208.962,202.219 C210.547341,201.851665 212.03116,201.276504 213.4135,200.4935 C214.79584,199.710496 215.955829,198.879171 216.8935,197.9995 C217.831171,197.119829 218.730162,196.066173 219.5905,194.8385 C220.450838,193.610827 221.127498,192.533005 221.6205,191.605 C222.113502,190.676995 222.988327,188.792014 224.245,185.95 C225.501673,183.107986 226.603662,180.73001 227.551,178.816 C227.260999,178.854667 226.429674,178.931999 225.057,179.048 C222.524321,179.260668 220.55234,179.569998 219.141,179.976 C216.49232,180.71067 214.607339,182.12199 213.486,184.21 C212.944664,185.215338 212.674,186.191662 212.674,187.139 C212.674,187.641669 212.751333,188.134664 212.906,188.618 C213.331335,189.91334 214.172327,190.561 215.429,190.561 C217.014341,190.561 218.125997,189.739342 218.764,188.096 C219.073335,187.303329 219.228,186.646003 219.228,186.124 C219.228,185.601997 219.208667,185.234668 219.17,185.022 C219.131333,184.809332 219.160333,184.703 219.257,184.703 C219.411667,184.741667 219.546999,184.867332 219.663,185.08 C219.837001,185.486002 219.924,185.964497 219.924,186.5155 C219.924,187.066503 219.740335,187.699663 219.373,188.415 C218.792997,189.633006 217.981005,190.435331 216.937,190.822 C216.298997,191.054001 215.699669,191.17 215.139,191.17 C214.172329,191.17 213.302337,190.822003 212.529,190.126 C211.484995,189.197995 210.963,187.989674 210.963,186.501 C210.963,184.393656 211.94899,182.624674 213.921,181.194 C215.738342,179.84066 218.367649,178.980335 221.809,178.613 C222.853005,178.496999 224.046827,178.3955 225.3905,178.3085 C226.734173,178.2215 227.589665,178.158667 227.957,178.12 C228.169668,177.752665 228.493498,177.303169 228.9285,176.7715 L228.9285,176.7715 Z M231.002,176.844 C231.002,176.631332 230.915001,176.525 230.741,176.525 C230.528332,176.525 230.310834,176.616832 230.0885,176.8005 C229.866166,176.984168 229.484336,177.394997 228.943,178.033 C229.503669,177.955666 229.928999,177.839667 230.219,177.685 C230.741003,177.433665 231.002,177.153335 231.002,176.844 L231.002,176.844 Z M239.576079,188.85 C240.987419,188.85 241.693079,189.739324 241.693079,191.518 C241.693079,192.330004 241.480414,193.199995 241.055079,194.128 C240.513743,195.384673 239.701751,196.525328 238.619079,197.55 C238.870413,198.033336 239.324742,198.275 239.982079,198.275 C240.504082,198.275 240.997077,198.014003 241.461079,197.492 C242.041082,196.892664 242.456744,196.365836 242.708079,195.9115 C242.959413,195.457164 243.143078,195.123668 243.259079,194.911 C243.375079,194.698332 243.524911,194.393835 243.708579,193.9975 C243.892246,193.601165 244.003412,193.3595 244.042079,193.2725 C244.080746,193.1855 244.148412,193.142 244.245079,193.142 C244.438413,193.122667 244.535079,193.190333 244.535079,193.345 C244.535079,193.403 244.515746,193.470666 244.477079,193.548 L244.303079,193.954 C244.187078,194.224668 244.100079,194.417999 244.042079,194.534 C243.984079,194.650001 243.88258,194.857832 243.737579,195.1575 C243.592578,195.457168 243.466913,195.693999 243.360579,195.868 C243.254245,196.042001 243.109246,196.273999 242.925579,196.564 C242.741911,196.854001 242.57758,197.085999 242.432579,197.26 C242.287578,197.434001 242.108747,197.627332 241.896079,197.84 C241.683411,198.052668 241.480413,198.216999 241.287079,198.333 C240.803743,198.623001 240.349414,198.768 239.924079,198.768 C239.131408,198.768 238.512748,198.516669 238.068079,198.014 C237.178741,198.671337 236.357083,199 235.603079,199 C234.191739,199 233.486079,198.110676 233.486079,196.332 C233.486079,195.519996 233.698743,194.650005 234.124079,193.722 C234.704082,192.36866 235.520907,191.218338 236.574579,190.271 C237.628251,189.323662 238.628741,188.85 239.576079,188.85 L239.576079,188.85 Z M239.895079,189.749 C239.373076,189.749 238.754416,190.096997 238.039079,190.793 C237.323742,191.489003 236.685748,192.436327 236.125079,193.635 C235.448409,195.027007 235.110079,196.167662 235.110079,197.057 C235.110079,197.946338 235.448409,198.391 236.125079,198.391 C236.608415,198.391 237.149743,198.130003 237.749079,197.608 C237.439744,197.163331 237.285079,196.689669 237.285079,196.187 C237.323746,195.355663 237.662076,194.94 238.300079,194.94 C238.551413,194.94 238.759245,195.026999 238.923579,195.201 C239.087913,195.375001 239.170079,195.534499 239.170079,195.6795 C239.170079,195.824501 239.150746,195.974333 239.112079,196.129 C239.440747,195.645664 239.817743,194.959338 240.243079,194.07 C240.726415,193.083995 240.968079,192.117338 240.968079,191.17 C240.968079,190.222662 240.610416,189.749 239.895079,189.749 L239.895079,189.749 Z M251.601158,197.318 C251.601158,197.93667 251.852489,198.246 252.355158,198.246 C253.263829,198.246 254.47215,196.728349 255.980158,193.693 C256.038158,193.576999 256.091324,193.461001 256.139658,193.345 C256.187991,193.228999 256.265324,193.151667 256.371658,193.113 C256.477992,193.074333 256.550491,193.0985 256.589158,193.1855 C256.627825,193.2725 256.608492,193.412666 256.531158,193.606 C254.984483,197.202018 253.418499,199 251.833158,199 C251.311155,199 250.895493,198.768002 250.586158,198.304 C250.276823,197.839998 250.122158,197.380836 250.122158,196.9265 C250.122158,196.472164 250.170491,196.051669 250.267158,195.665 C249.145819,197.521009 248.179162,198.574665 247.367158,198.826 C247.135157,198.922667 246.907992,198.971 246.685658,198.971 C246.463323,198.971 246.245826,198.942 246.033158,198.884 C245.08582,198.632665 244.612158,197.878673 244.612158,196.622 C244.612158,195.771329 244.829656,194.828839 245.264658,193.7945 C245.69966,192.760161 246.313487,191.769338 247.106158,190.822 C247.898828,189.874662 248.855819,189.236668 249.977158,188.908 C250.38316,188.772666 250.861655,188.705 251.412658,188.705 C251.963661,188.705 252.577488,188.878998 253.254158,189.227 C254.568831,186.752321 255.690153,184.461344 256.618158,182.354 C256.888826,181.715997 257.154656,181.305168 257.415658,181.1215 C257.676659,180.937832 257.918323,180.846 258.140658,180.846 L258.546658,180.846 C258.594991,180.846 258.778656,180.870166 259.097658,180.9185 C259.416659,180.966834 259.663157,180.981333 259.837158,180.962 C259.392489,181.368002 258.213167,183.339982 256.299158,186.878 C253.863146,191.402023 252.393827,194.417992 251.891158,195.926 C251.697823,196.486669 251.601158,196.950665 251.601158,197.318 L251.601158,197.318 Z M253.022158,189.691 C252.770823,189.439665 252.417993,189.314 251.963658,189.314 C251.509322,189.314 250.876162,189.65233 250.064158,190.329 C248.768818,191.411672 247.695829,192.745659 246.845158,194.331 C246.284488,195.375005 246.004158,196.23533 246.004158,196.912 C246.004158,197.221335 246.066991,197.501665 246.192658,197.753 C246.318325,198.004335 246.51649,198.13 246.787158,198.13 C247.444494,198.13 248.256486,197.45334 249.223158,196.1 C250.189829,194.74666 251.45615,192.610348 253.022158,189.691 L253.022158,189.691 Z M258.870237,194.534 C258.599569,195.191337 258.464237,195.925996 258.464237,196.738 C258.464237,197.279336 258.585069,197.709498 258.826737,198.0285 C259.068405,198.347502 259.411568,198.507 259.856237,198.507 C261.615579,198.507 263.210563,196.854017 264.641237,193.548 C264.776571,193.238665 264.940902,193.103333 265.134237,193.142 C265.21157,193.161333 265.250237,193.209666 265.250237,193.287 C265.250237,193.364334 265.032739,193.871829 264.597737,194.8095 C264.162735,195.747171 263.722906,196.505997 263.278237,197.086 C262.292232,198.43934 261.074244,199.116 259.624237,199.116 C258.850899,199.116 258.193573,198.864669 257.652237,198.362 C257.110901,197.859331 256.840237,197.173004 256.840237,196.303 C256.840237,195.432996 257.048068,194.509838 257.463737,193.5335 C257.879405,192.557162 258.4449,191.648504 259.160237,190.8075 C259.875574,189.966496 260.697232,189.352669 261.625237,188.966 C262.069906,188.772666 262.495235,188.676 262.901237,188.676 C263.307239,188.676 263.684235,188.791999 264.032237,189.024 C264.360905,189.294668 264.525237,189.594332 264.525237,189.923 C264.525237,191.083006 263.829244,192.194661 262.437237,193.258 C262.011901,193.586668 261.412574,193.881499 260.639237,194.1425 C259.865899,194.403501 259.276239,194.534 258.870237,194.534 L258.870237,194.534 Z M263.742237,189.894 C263.742237,189.507331 263.587572,189.314 263.278237,189.314 C262.736901,189.314 261.915242,189.980993 260.813237,191.315 C260.1559,192.127004 259.575906,193.035662 259.073237,194.041 C259.401905,194.041 259.8804,193.925001 260.508737,193.693 C261.137073,193.460999 261.683234,193.151669 262.147237,192.765 C263.210575,191.856329 263.742237,190.899338 263.742237,189.894 L263.742237,189.894 Z M283.239394,187.458 L285.182394,187.4 C285.994399,187.4 286.535726,187.573998 286.806394,187.922 C286.941729,188.076667 287.009394,188.231333 287.009394,188.386 C287.009394,188.540667 286.961062,188.675999 286.864394,188.792 C286.632393,189.082001 286.197398,189.227 285.559394,189.227 C284.457389,189.227 283.481065,188.801671 282.630394,187.951 C280.46505,188.279668 278.821733,189.42999 277.700394,191.402 C276.985058,192.678006 276.627394,193.924994 276.627394,195.143 C276.627394,195.81967 276.733727,196.486663 276.946394,197.144 C277.584398,199.000009 278.966717,199.928 281.093394,199.928 C282.988071,199.928 284.631388,199.290006 286.023394,198.014 C287.415401,196.737994 288.111394,195.471673 288.111394,194.215 C288.111394,193.615664 287.85523,193.117835 287.342894,192.7215 C286.830559,192.325165 286.289231,192.093167 285.718894,192.0255 C285.148558,191.957833 284.66523,191.924 284.268894,191.924 C283.872559,191.924 283.360231,191.9675 282.731894,192.0545 C282.103558,192.1415 281.480064,192.397665 280.861394,192.823 C280.126724,193.325669 279.759394,193.992663 279.759394,194.824 C279.759394,195.655337 280.407055,196.40933 281.702394,197.086 C281.895729,197.202001 281.977895,197.351832 281.948894,197.5355 C281.919894,197.719168 281.837729,197.772334 281.702394,197.695 C280.484388,197.037663 279.624064,196.293337 279.121394,195.462 C278.773393,194.920664 278.599394,194.466335 278.599394,194.099 C278.599394,193.731665 278.647727,193.432001 278.744394,193.2 C278.976396,192.52333 279.55639,191.953002 280.484394,191.489 C281.412399,191.024998 282.591721,190.793 284.022394,190.793 L289.155394,190.793 C290.160733,190.793 291.398054,190.45467 292.867394,189.778 C293.582731,189.449332 294.104726,189.062669 294.433394,188.618 C294.588062,188.385999 294.665394,188.139501 294.665394,187.8785 C294.665394,187.617499 294.607395,187.390334 294.491394,187.197 C294.375394,187.003666 294.327061,186.868334 294.346394,186.791 C294.365728,186.713666 294.418894,186.675 294.505894,186.675 C294.592895,186.675 294.665394,186.723333 294.723394,186.82 C294.994063,187.284002 295.129394,187.723831 295.129394,188.1395 C295.129394,188.555169 295.003729,188.936998 294.752394,189.285 C294.269059,190.01967 293.4474,190.609331 292.287394,191.054 C291.127389,191.498669 289.928734,191.721 288.691394,191.721 L288.546394,191.721 C289.281065,192.320336 289.648394,193.083995 289.648394,194.012 C289.648394,195.30734 288.894402,196.641326 287.386394,198.014 C286.671058,198.69067 285.752733,199.241665 284.631394,199.667 C283.510056,200.092335 282.330734,200.305 281.093394,200.305 C278.096713,200.305 275.979734,199.435009 274.742394,197.695 C274.123725,196.824996 273.814394,195.984004 273.814394,195.172 C273.814394,194.359996 273.94006,193.606003 274.191394,192.91 C274.868065,191.073324 276.231051,189.652338 278.280394,188.647 C279.459734,188.066997 280.784054,187.699667 282.253394,187.545 C281.712058,186.790996 281.446228,185.843672 281.455894,184.703 C281.465561,183.562328 281.96339,182.489338 282.949394,181.484 C283.935399,180.478662 285.071221,179.748836 286.356894,179.2945 C287.642568,178.840164 288.894388,178.613 290.112394,178.613 C291.117733,178.613 291.973224,178.815998 292.678894,179.222 C293.384565,179.628002 293.737394,180.275662 293.737394,181.165 C293.737394,181.725669 293.563396,182.223498 293.215394,182.6585 C292.867393,183.093502 292.475897,183.311 292.040894,183.311 C291.605892,183.311 291.257896,183.180501 290.996894,182.9195 C290.735893,182.658499 290.605394,182.334669 290.605394,181.948 C290.605394,181.561331 290.735893,181.242335 290.996894,180.991 C291.257896,180.739665 291.562393,180.614 291.910394,180.614 C292.142396,180.614 292.364727,180.667166 292.577394,180.7735 C292.790062,180.879834 292.915728,181.000666 292.954394,181.136 C292.973728,181.019999 292.983394,180.904001 292.983394,180.788 C292.983394,180.362665 292.809396,180.034001 292.461394,179.802 C292.094059,179.531332 291.543065,179.396 290.808394,179.396 C290.073724,179.396 289.213399,179.594165 288.227394,179.9905 C287.24139,180.386835 286.313399,180.961996 285.443394,181.716 C284.57339,182.470004 283.887064,183.397994 283.384394,184.5 C283.113726,185.11867 282.978394,185.669664 282.978394,186.153 C282.978394,186.636336 283.065394,187.071331 283.239394,187.458 L283.239394,187.458 Z M286.516394,188.357 C286.516394,188.008998 285.801068,187.835 284.370394,187.835 C284.080393,187.835 283.780729,187.844667 283.471394,187.864 C283.935397,188.444003 284.558891,188.734 285.341894,188.734 C286.124898,188.734 286.516394,188.608335 286.516394,188.357 L286.516394,188.357 Z M312.422552,197.956 C310.624543,199.406007 308.63323,200.131 306.448552,200.131 C303.95454,200.131 302.417555,199.435007 301.837552,198.043 C301.702218,197.714332 301.634552,197.332502 301.634552,196.8975 C301.634552,196.462498 301.856883,195.993669 302.301552,195.491 C302.997556,194.698329 303.964213,194.302 305.201552,194.302 C306.03289,194.302 306.869048,194.451832 307.710052,194.7515 C308.551056,195.051168 310.044542,195.771328 312.190552,196.912 C313.157224,195.983995 314.123881,194.746674 315.090552,193.2 C316.057224,191.653326 316.893382,190.159841 317.599052,188.7195 C318.304722,187.279159 319.165047,185.708342 320.180052,184.007 C321.195057,182.305658 322.205214,180.894339 323.210552,179.773 C321.045208,178.47766 318.744564,177.83 316.308552,177.83 C315.303214,177.83 314.278558,177.936332 313.234552,178.149 C310.237871,178.787003 307.95656,180.09199 306.390552,182.064 C305.423881,183.262673 304.940552,184.403328 304.940552,185.486 C304.940552,186.955341 305.646212,187.912331 307.057552,188.357 C307.560221,188.492334 307.995217,188.56 308.362552,188.56 C308.729887,188.56 309.140717,188.502001 309.595052,188.386 C310.049388,188.269999 310.498883,187.999335 310.943552,187.574 C311.794223,186.723329 312.248552,185.93067 312.306552,185.196 C312.325886,185.021999 312.437051,184.959166 312.640052,185.0075 C312.843053,185.055834 312.925219,185.205665 312.886552,185.457 C312.693218,186.86834 311.948892,187.94133 310.653552,188.676 C309.860882,189.101335 309.068223,189.314 308.275552,189.314 L306.767552,189.053 C305.298212,188.550331 304.331555,187.612674 303.867552,186.24 C303.674218,185.717997 303.577552,185.196003 303.577552,184.674 C303.577552,183.610661 303.973882,182.557005 304.766552,181.513 C306.467894,179.231655 309.483864,177.772003 313.814552,177.134 C314.665223,177.017999 315.506215,176.96 316.337552,176.96 C319.024899,176.96 321.58654,177.597994 324.022552,178.874 C324.776556,178.003996 325.472549,177.341836 326.110552,176.8875 C326.748555,176.433164 327.260884,176.206 327.647552,176.206 C327.86022,176.206 327.985885,176.2495 328.024552,176.3365 C328.063219,176.4235 328.058386,176.491166 328.010052,176.5395 C327.961719,176.587834 327.898886,176.612 327.821552,176.612 C327.492884,176.612 327.067555,176.959997 326.545552,177.656 C326.02355,178.352003 325.598221,178.999664 325.269552,179.599 C327.338229,180.971674 328.91388,182.730989 329.996552,184.877 C330.866557,186.597675 331.301552,188.47299 331.301552,190.503 C331.301552,193.016346 330.702225,195.017326 329.503552,196.506 C328.517547,197.724006 327.318893,198.584331 325.907552,199.087 C324.225544,199.686336 322.562894,199.986 320.919552,199.986 C317.594202,199.986 314.761897,199.30934 312.422552,197.956 L312.422552,197.956 Z M313.118552,197.434 C315.071229,198.594006 317.362206,199.174 319.991552,199.174 C323.046234,199.174 325.48221,198.304009 327.299552,196.564 C328.74956,195.15266 329.474552,193.200012 329.474552,190.706 C329.474552,188.927324 329.126556,187.255008 328.430552,185.689 C327.560548,183.697657 326.274894,182.035007 324.573552,180.701 C324.012883,181.571004 322.93506,183.325487 321.340052,185.9645 C319.745044,188.603513 318.396558,190.744658 317.294552,192.388 C316.192547,194.031342 315.322555,195.196163 314.684552,195.8825 C314.046549,196.568837 313.524554,197.085998 313.118552,197.434 L313.118552,197.434 Z M311.436552,197.492 C309.174541,196.409328 307.743889,195.761668 307.144552,195.549 C306.545216,195.336332 305.960388,195.23 305.390052,195.23 C304.819716,195.23 304.365387,195.442665 304.027052,195.868 C303.688717,196.293335 303.519552,196.675165 303.519552,197.0135 C303.519552,197.351835 303.596885,197.675665 303.751552,197.985 C304.157554,198.816337 304.988879,199.232 306.245552,199.232 C308.101562,199.232 309.831878,198.652006 311.436552,197.492 L311.436552,197.492 Z M335.351631,194.534 C335.080963,195.191337 334.945631,195.925996 334.945631,196.738 C334.945631,197.279336 335.066463,197.709498 335.308131,198.0285 C335.549799,198.347502 335.892962,198.507 336.337631,198.507 C338.096973,198.507 339.691957,196.854017 341.122631,193.548 C341.257965,193.238665 341.422297,193.103333 341.615631,193.142 C341.692965,193.161333 341.731631,193.209666 341.731631,193.287 C341.731631,193.364334 341.514133,193.871829 341.079131,194.8095 C340.644129,195.747171 340.2043,196.505997 339.759631,197.086 C338.773626,198.43934 337.555638,199.116 336.105631,199.116 C335.332294,199.116 334.674967,198.864669 334.133631,198.362 C333.592295,197.859331 333.321631,197.173004 333.321631,196.303 C333.321631,195.432996 333.529462,194.509838 333.945131,193.5335 C334.3608,192.557162 334.926294,191.648504 335.641631,190.8075 C336.356968,189.966496 337.178627,189.352669 338.106631,188.966 C338.5513,188.772666 338.976629,188.676 339.382631,188.676 C339.788633,188.676 340.165629,188.791999 340.513631,189.024 C340.842299,189.294668 341.006631,189.594332 341.006631,189.923 C341.006631,191.083006 340.310638,192.194661 338.918631,193.258 C338.493296,193.586668 337.893968,193.881499 337.120631,194.1425 C336.347294,194.403501 335.757633,194.534 335.351631,194.534 L335.351631,194.534 Z M340.223631,189.894 C340.223631,189.507331 340.068966,189.314 339.759631,189.314 C339.218295,189.314 338.396637,189.980993 337.294631,191.315 C336.637295,192.127004 336.0573,193.035662 335.554631,194.041 C335.883299,194.041 336.361795,193.925001 336.990131,193.693 C337.618468,193.460999 338.164629,193.151669 338.628631,192.765 C339.69197,191.856329 340.223631,190.899338 340.223631,189.894 L340.223631,189.894 Z M345.17271,198.449 C345.424045,198.487667 345.598043,198.507 345.69471,198.507 C346.468047,198.507 347.231706,198.052671 347.98571,197.144 C348.391712,196.641331 349.116705,195.37501 350.16071,193.345 C350.199377,193.248333 350.267043,193.2 350.36371,193.2 C350.537711,193.180667 350.62471,193.248333 350.62471,193.403 C350.62471,193.441667 350.581211,193.552832 350.49421,193.7365 C350.40721,193.920168 350.325044,194.103832 350.24771,194.2875 C350.170376,194.471168 350.044711,194.736998 349.87071,195.085 C349.696709,195.433002 349.546877,195.713332 349.42121,195.926 C349.295543,196.138668 349.136044,196.399665 348.94271,196.709 C348.749376,197.018335 348.556044,197.259999 348.36271,197.434 L347.75371,198.072 C347.425042,198.400668 347.038379,198.632666 346.59371,198.768 C345.878373,199.000001 345.18238,199.019334 344.50571,198.826 C344.061041,199.019334 343.664712,199.116 343.31671,199.116 C341.944037,199.116 341.112712,198.574672 340.82271,197.492 C340.76471,197.240665 340.73571,196.936168 340.73571,196.5785 C340.73571,196.220832 340.856542,195.877668 341.09821,195.549 C341.339878,195.220332 341.596042,195.046333 341.86671,195.027 C342.852715,193.151657 343.693707,191.460008 344.38971,189.952 C345.163047,188.308658 346.062038,187.487 347.08671,187.487 C347.357378,187.487 347.623209,187.549833 347.88421,187.6755 C348.145211,187.801167 348.241877,187.941333 348.17421,188.096 C348.106543,188.250667 347.966378,188.279667 347.75371,188.183 C347.541042,188.086333 347.357378,188.038 347.20271,188.038 C347.048043,188.038 346.912711,188.067 346.79671,188.125 C346.139373,188.434335 345.81071,189.101328 345.81071,190.126 C345.81071,190.667336 345.888043,191.111998 346.04271,191.46 C346.197378,191.808002 346.371376,192.184998 346.56471,192.591 C347.009379,193.596338 347.23171,194.417997 347.23171,195.056 C347.23171,195.694003 347.028712,196.32233 346.62271,196.941 C346.216708,197.55967 345.73338,198.062331 345.17271,198.449 L345.17271,198.449 Z M344.18671,198.246 C345.037381,197.588663 345.46271,196.525341 345.46271,195.056 C345.46271,194.456664 345.395044,193.635005 345.25971,192.591 C345.124376,191.546995 345.05671,190.841335 345.05671,190.474 C345.05671,190.106665 345.066377,189.855334 345.08571,189.72 C343.616369,192.658681 342.707712,194.446997 342.35971,195.085 C342.765712,195.085 342.96871,195.374997 342.96871,195.955 C342.96871,197.095672 343.374706,197.859331 344.18671,198.246 L344.18671,198.246 Z M342.01171,197.463 C342.01171,197.579001 342.021377,197.704666 342.04071,197.84 C342.195378,198.362003 342.553041,198.623 343.11371,198.623 C343.345711,198.623 343.539043,198.584334 343.69371,198.507 C342.978373,198.062331 342.59171,197.337338 342.53371,196.332 C342.185708,196.680002 342.01171,197.056998 342.01171,197.463 L342.01171,197.463 Z M354.645789,188.067 C354.317121,188.067 354.056123,187.951001 353.862789,187.719 C353.669455,187.486999 353.592122,187.206668 353.630789,186.878 C353.688789,186.549332 353.853121,186.269001 354.123789,186.037 C354.394457,185.804999 354.694121,185.689 355.022789,185.689 C355.351457,185.689 355.617288,185.804999 355.820289,186.037 C356.02329,186.269001 356.095789,186.549332 356.037789,186.878 C355.979789,187.206668 355.815457,187.486999 355.544789,187.719 C355.274121,187.951001 354.974457,188.067 354.645789,188.067 L354.645789,188.067 Z M352.702789,198.362 C353.070124,198.362 353.456787,198.178335 353.862789,197.811 C354.578126,197.095663 355.486783,195.636011 356.588789,193.432 C356.724123,193.141999 356.859455,193.054999 356.994789,193.171 C357.033456,193.209667 357.052789,193.2725 357.052789,193.3595 C357.052789,193.4465 356.975456,193.659165 356.820789,193.9975 C356.666122,194.335835 356.525956,194.640332 356.400289,194.911 C356.274622,195.181668 356.032957,195.621497 355.675289,196.2305 C355.317621,196.839503 354.99379,197.308332 354.703789,197.637 C353.911118,198.545671 353.161959,199 352.456289,199 C351.750619,199 351.243124,198.787335 350.933789,198.362 C350.624454,197.936665 350.469789,197.463003 350.469789,196.941 C350.469789,196.418997 350.595454,195.84867 350.846789,195.23 L352.702789,190.503 C352.741456,190.386999 352.760789,190.232334 352.760789,190.039 C352.760789,189.845666 352.64479,189.594335 352.412789,189.285 L354.007789,189.256 C354.452458,189.256 354.713455,189.338166 354.790789,189.5025 C354.868123,189.666834 354.810123,189.922998 354.616789,190.271 L352.296789,195.694 C351.968121,196.409337 351.803789,197.018331 351.803789,197.521 C351.803789,198.081669 352.103453,198.362 352.702789,198.362 L352.702789,198.362 Z M356.085868,208.164 C354.268525,208.164 353.359868,207.419674 353.359868,205.931 C353.359868,204.69366 354.200859,203.582005 355.882868,202.596 C357.313542,201.764663 359.140523,200.98167 361.363868,200.247 C362.38854,199.918332 363.132866,199.657334 363.596868,199.464 C364.099537,197.994659 364.350868,196.390009 364.350868,194.65 C364.350868,194.301998 364.331535,194.041001 364.292868,193.867 C363.751532,194.969006 363.007206,196.099994 362.059868,197.26 C360.938529,198.652007 359.826873,199.193335 358.724868,198.884 C357.71953,198.458665 357.216868,197.62734 357.216868,196.39 C357.216868,194.727325 358.048193,192.900343 359.710868,190.909 C360.619539,189.826328 361.682862,189.140001 362.900868,188.85 C363.229536,188.753333 363.5582,188.705 363.886868,188.705 C364.756872,188.705 365.60753,188.994997 366.438868,189.575 C366.748203,189.826335 366.902868,190.038999 366.902868,190.213 C366.902868,190.387001 366.844868,190.556166 366.728868,190.7205 C366.612867,190.884834 366.492035,190.904167 366.366368,190.7785 C366.240701,190.652833 366.158535,190.532001 366.119868,190.416 C365.868533,189.700663 365.462537,189.343 364.901868,189.343 C363.877196,189.343 362.726874,190.058326 361.450868,191.489 C360.735531,192.301004 360.11687,193.170995 359.594868,194.099 C358.956865,195.259006 358.637868,196.153164 358.637868,196.7815 C358.637868,197.409836 358.831199,197.830332 359.217868,198.043 C359.353202,198.101 359.488534,198.13 359.623868,198.13 C360.068537,198.13 360.624365,197.825503 361.291368,197.2165 C361.958371,196.607497 362.577032,195.834171 363.147368,194.8965 C363.717704,193.958829 364.0802,193.229003 364.234868,192.707 C364.389535,192.184997 364.578033,191.856334 364.800368,191.721 C365.022702,191.585666 365.2692,191.508333 365.539868,191.489 C365.810536,191.469667 365.994201,191.421334 366.090868,191.344 C366.245535,192.214004 366.322868,193.233827 366.322868,194.4035 C366.322868,195.573173 366.11987,196.902326 365.713868,198.391 C366.603206,197.752997 367.236366,197.182669 367.613368,196.68 C367.99037,196.177331 368.290033,195.723002 368.512368,195.317 C368.734702,194.910998 368.932867,194.509835 369.106868,194.1135 C369.280869,193.717165 369.396868,193.461001 369.454868,193.345 C369.512868,193.228999 369.609534,193.1565 369.744868,193.1275 C369.880202,193.0985 369.947868,193.161333 369.947868,193.316 C369.947868,193.412667 369.918868,193.528666 369.860868,193.664 C369.010197,195.423342 368.299704,196.694496 367.729368,197.4775 C367.159032,198.260504 366.380873,198.883998 365.394868,199.348 C364.930866,200.662673 364.259039,201.96766 363.379368,203.263 C362.499697,204.55834 361.392875,205.698995 360.058868,206.685 C358.724861,207.671005 357.400541,208.164 356.085868,208.164 L356.085868,208.164 Z M353.968868,206.482 C353.968868,207.21667 354.44253,207.584 355.389868,207.584 C355.950537,207.584 356.583698,207.419668 357.289368,207.091 C357.995038,206.762332 358.579866,206.424002 359.043868,206.076 C359.836539,205.437997 360.70653,204.490673 361.653868,203.234 C362.369205,202.228662 362.920199,201.252338 363.306868,200.305 L362.291868,200.653 C359.275853,201.697005 357.149207,202.624996 355.911868,203.437 C355.003197,204.036336 354.403869,204.799995 354.113868,205.728 C354.017201,206.018001 353.968868,206.269332 353.968868,206.482 L353.968868,206.482 Z M379.681947,189.488 C377.303935,193.664021 376.114947,196.389994 376.114947,197.666 C376.114947,198.168669 376.298612,198.42 376.665947,198.42 C377.651952,198.42 378.976272,196.747683 380.638947,193.403 C380.754947,193.132332 380.870946,193.026 380.986947,193.084 C381.102947,193.142 381.160947,193.219333 381.160947,193.316 C381.160947,193.412667 381.122281,193.528666 381.044947,193.664 C380.020275,195.732677 379.155117,197.158496 378.449447,197.9415 C377.743777,198.724504 377.038117,199.116 376.332447,199.116 C375.626777,199.116 375.090282,198.845336 374.722947,198.304 C374.529612,198.052665 374.432947,197.709502 374.432947,197.2745 C374.432947,196.839498 374.529612,196.31267 374.722947,195.694 C374.916281,195.07533 375.447942,194.070007 376.317947,192.678 C376.530615,192.329998 376.636947,192.054501 376.636947,191.8515 C376.636947,191.648499 376.472615,191.547 376.143947,191.547 C375.815278,191.547 375.186951,191.981996 374.258947,192.852 C372.86694,194.128006 371.523287,196.041987 370.227947,198.594 C370.111946,198.787334 369.981448,198.908166 369.836447,198.9565 C369.691446,199.004834 369.406282,199.038667 368.980947,199.058 C368.555611,199.077333 368.275281,199.125666 368.139947,199.203 C368.449282,198.58433 369.058276,197.31801 369.966947,195.404 C371.590955,192.02065 372.654278,190.087336 373.156947,189.604 C373.388948,189.371999 373.707945,189.256 374.113947,189.256 C374.191281,189.256 374.389445,189.285 374.708447,189.343 C375.027448,189.401 375.264279,189.410667 375.418947,189.372 C374.70361,189.758669 373.533955,191.575984 371.909947,194.824 C372.818618,193.702661 373.64511,192.808503 374.389447,192.1415 C375.133784,191.474497 376.027942,190.855836 377.071947,190.2855 C378.115952,189.715164 378.879611,189.43 379.362947,189.43 C379.478947,189.43 379.58528,189.449333 379.681947,189.488 L379.681947,189.488 Z"/>
  <style type="text/css">@import url(webfonts.css)</style>
	 
    <text fill="#FFFFFF" font-family="GreatVibes-Regular, Great Vibes" font-size="130">
      <tspan x="100.265" y="174">Goodies</tspan>
    </text>
  </g>
</svg>
