<svg xmlns="http://www.w3.org/2000/svg" width="412" height="412" viewBox="0 0 412 412">
  <g fill="none" fill-rule="evenodd" transform="translate(6 6)">
    <rect width="400" height="400" fill="#5AC8FA" fill-opacity=".2" stroke="#5AC8FA" stroke-width="12" rx="25"/>
    <path fill="#A5C845" d="M241.448,104.552 L241.448,90.448 L228,90.448 L228,104.552 L241.448,104.552 Z M172.896,104.552 L172.896,90.448 L159.448,90.448 L159.448,104.552 L172.896,104.552 Z M248.664,65.52 C258.941385,72.9547038 267.141303,82.5212748 273.264,94.22 C279.386697,105.918725 282.448,118.327934 282.448,131.448 L118.448,131.448 C118.448,118.109267 121.39997,105.645391 127.304,94.056 C133.20803,82.4666087 141.407948,72.9547038 151.904,65.52 L133.864,47.48 C132.551993,46.1679934 131.896,44.582676 131.896,42.724 C131.896,40.865324 132.551993,39.2800066 133.864,37.968 C135.176007,36.6559934 136.761324,36 138.62,36 C140.478676,36 142.063993,36.6559934 143.376,37.968 L164.04,58.304 C175.410724,52.3999705 187.43727,49.448 200.12,49.448 C212.80273,49.448 224.829276,52.3999705 236.2,58.304 L256.864,37.968 C258.176007,36.6559934 259.761324,36 261.62,36 C263.478676,36 265.063993,36.6559934 266.376,37.968 C267.688007,39.2800066 268.344,40.865324 268.344,42.724 C268.344,44.582676 267.688007,46.1679934 266.376,47.48 L248.664,65.52 Z M316.56,145.552 C322.245362,145.552 327.05598,147.51998 330.992,151.456 C334.92802,155.39202 336.896,160.202638 336.896,165.888 L336.896,261.336 C336.896,267.24003 334.92802,272.15998 330.992,276.096 C327.05598,280.03202 322.245362,282 316.56,282 C310.874638,282 306.009354,280.03202 301.964,276.096 C297.918646,272.15998 295.896,267.24003 295.896,261.336 L295.896,165.888 C295.896,160.202638 297.86398,155.39202 301.8,151.456 C305.73602,147.51998 310.65597,145.552 316.56,145.552 L316.56,145.552 Z M84.664,145.552 C90.3493618,145.552 95.1599803,147.51998 99.096,151.456 C103.03202,155.39202 105,160.202638 105,165.888 L105,261.336 C105,267.24003 103.03202,272.15998 99.096,276.096 C95.1599803,280.03202 90.3493618,282 84.664,282 C78.9786382,282 74.1133536,280.03202 70.068,276.096 C66.0226464,272.15998 64,267.24003 64,261.336 L64,165.888 C64,160.202638 65.9679803,155.39202 69.904,151.456 C73.8400197,147.51998 78.7599705,145.552 84.664,145.552 L84.664,145.552 Z M118.448,282 L118.448,145.552 L282.448,145.552 L282.448,282 C282.448,285.717352 281.136013,288.887987 278.512,291.512 C275.887987,294.136013 272.717352,295.448 269,295.448 L254.896,295.448 L254.896,343.664 C254.896,349.349362 252.92802,354.15998 248.992,358.096 C245.05598,362.03202 240.245362,364 234.56,364 C228.874638,364 224.009354,362.03202 219.964,358.096 C215.918646,354.15998 213.896,349.349362 213.896,343.664 L213.896,295.448 L187,295.448 L187,343.664 C187,349.349362 185.03202,354.15998 181.096,358.096 C177.15998,362.03202 172.349362,364 166.664,364 C160.978638,364 156.113354,362.03202 152.068,358.096 C148.022646,354.15998 146,349.349362 146,343.664 L146,295.448 L131.896,295.448 C128.178648,295.448 125.008013,294.136013 122.384,291.512 C119.759987,288.887987 118.448,285.717352 118.448,282 L118.448,282 Z"/>
  </g>
</svg>
