<svg xmlns="http://www.w3.org/2000/svg" width="412" height="412" viewBox="0 0 412 412">
  <g fill="none" fill-rule="evenodd" transform="translate(6 6)">
    <rect width="400" height="400" fill="#5AC8FA" fill-opacity=".2" stroke="#5AC8FA" stroke-width="12" rx="25"/>
    <path fill="#3197C6" d="M329.034856,270.934924 C324.20001,286.431224 316.575945,301.927292 306.162431,317.423592 C290.17025,341.72179 274.240292,353.870707 258.372081,353.870707 C252.297531,353.870707 243.619734,351.887211 232.338427,347.920158 C221.676973,343.953105 212.317348,341.969609 204.259272,341.969609 C196.697078,341.969609 187.895311,344.015089 177.853709,348.106113 C167.812106,352.321106 159.630183,354.428571 153.307692,354.428571 C134.464191,354.428571 115.806926,338.374645 97.3353365,306.266312 C79.1116877,273.910037 70,242.731949 70,212.731113 C70,184.465861 77.0042225,161.283744 91.0128777,143.184066 C104.897563,125.332328 122.501095,116.406593 143.824004,116.406593 C152.749873,116.406593 163.721089,118.266122 176.737981,121.985234 C189.630902,125.704346 198.184732,127.563874 202.399725,127.563874 C207.978393,127.563874 216.842144,125.456408 228.991243,121.241415 C241.636224,117.026421 252.359503,114.918956 261.161401,114.918956 C275.913879,114.918956 289.116528,118.947934 300.769746,127.00601 C307.216207,131.468944 313.662571,137.667371 320.109032,145.601477 C310.31537,153.907493 303.249163,161.221637 298.910199,167.544128 C290.852123,179.197345 286.823146,192.028089 286.823146,206.036745 C286.823146,221.409074 291.10006,235.231566 299.654018,247.504636 C308.207975,259.777706 318.00149,267.587724 329.034856,270.934924 L329.034856,270.934924 Z M259.1159,52.8100962 C259.1159,60.3722906 257.318356,68.8021513 253.723214,78.0999313 C250.004102,87.3977113 244.239565,95.9515406 236.42943,103.761676 C229.735028,110.456077 223.040727,114.918945 216.346326,117.150412 C211.759421,118.514086 205.313057,119.567819 197.00704,120.311641 C197.378951,101.840052 202.213724,85.9100944 211.511504,72.5212912 C220.685314,59.2564584 236.181381,50.0827864 258.000172,45 C258.124142,45.3719112 258.279103,46.0537382 258.465058,47.0455014 C258.651014,48.0372646 258.805975,48.7190915 258.929945,49.0910027 C258.929945,49.5868843 258.960937,50.2067271 259.022922,50.9505495 C259.084908,51.6943719 259.1159,52.3142146 259.1159,52.8100962 L259.1159,52.8100962 Z"/>
  </g>
</svg>
