<svg xmlns="http://www.w3.org/2000/svg" width="2560" height="1440" viewBox="0 0 2560 1440" xmlns:xlink="http://www.w3.org/1999/xlink">
  <defs>
    <rect id="a" width="2560" height="1440"/>
  </defs>
  <g fill="none" fill-rule="evenodd">
    <mask id="b" fill="white">
      <use xlink:href="#a"/>
    </mask>
    <use fill="#EFEFF4" xlink:href="#a"/>
    <g transform="translate(512 1021)" mask="url(#b)">
      <rect width="453" height="412" fill="#999999" fill-opacity=".2"/>
      <path stroke="#979797" stroke-width="8" d="M31.5 49.5L422 49.5M31.5 73.5L422 73.5M31.5 96.5L422 96.5M31.5 120.5L422 120.5M31.5 144.5L422 144.5M31.5 167.5L422 167.5M31.5 191.5L422 191.5M31.5 215.5L422 215.5M31.5 239.5L422 239.5M31.5 262.5L422 262.5M31.5 286.5L422 286.5M31.5 310.5L422 310.5M31.5 334.5L422 334.5M31.5 357.5L422 357.5M31.5 381.5L422 381.5" stroke-linecap="square"/>
      <g transform="translate(503)">
        <rect width="453" height="412" fill="#999999" fill-opacity=".2"/>
        <path stroke="#979797" stroke-width="8" d="M31.5 49.5L422 49.5M31.5 73.5L422 73.5M31.5 96.5L422 96.5M31.5 120.5L422 120.5M31.5 144.5L422 144.5M31.5 167.5L422 167.5M31.5 191.5L422 191.5M31.5 215.5L422 215.5M31.5 239.5L422 239.5M31.5 262.5L422 262.5M31.5 286.5L422 286.5M31.5 310.5L422 310.5M31.5 334.5L422 334.5M31.5 357.5L422 357.5M31.5 381.5L422 381.5" stroke-linecap="square"/>
      </g>
      <g transform="translate(1006)">
        <rect width="453" height="412" fill="#999999" fill-opacity=".2"/>
        <path stroke="#979797" stroke-width="8" d="M31.5 49.5L422 49.5M31.5 73.5L422 73.5M31.5 96.5L422 96.5M31.5 120.5L422 120.5M31.5 144.5L422 144.5M31.5 167.5L422 167.5M31.5 191.5L422 191.5M31.5 215.5L422 215.5M31.5 239.5L422 239.5M31.5 262.5L422 262.5M31.5 286.5L422 286.5M31.5 310.5L422 310.5M31.5 334.5L422 334.5M31.5 357.5L422 357.5M31.5 381.5L422 381.5" stroke-linecap="square"/>
      </g>
    </g>
    <g transform="translate(652 909)" mask="url(#b)">
      <rect width="971" height="74.301" y="3" fill="#FFFFFF" stroke="#ABB4BD" stroke-width="4.5" rx="4.5"/>
      <text font-family="AndaleMono, Andale Mono" font-size="59.4">
        <tspan x="235.979" y="54" fill="#808080">search archive</tspan>
      </text>
    </g>
    <g transform="translate(1695 912)" mask="url(#b)">
      <rect width="214" height="74" fill="#F19B2C" rx="5"/>
      <text font-family="AndaleMono, Andale Mono" font-size="59.4">
        <tspan x="70.854" y="57" fill="#FFFFFF">go</tspan>
      </text>
    </g>
    <g transform="translate(-33)" mask="url(#b)">
      <rect width="2579.5" height="783.5" x="20" y=".5" fill="#159588"/>
      <polygon fill="#159588" points="24 783 485 783 485 1444.5 0 1460"/>
      <polygon fill="#159588" points="2141 783 2623 783 2623 1465 2141 1453.5"/>
      <text font-family="LucidaGrande, Lucida Grande" font-size="72">
        <tspan x="625.18" y="307" fill="#FFFFFF">WEB</tspan> <tspan x="767.212" y="307" fill="#FFFFFF" font-family="simple-line-icons"> </tspan> <tspan x="803.212" y="307" fill="#FFFFFF">DESIGN</tspan> <tspan x="1060.907" y="307" fill="#FFFFFF" font-family="simple-line-icons"> </tspan> <tspan x="1096.907" y="307" fill="#FFFFFF">AND</tspan> <tspan x="1253.704" y="307" fill="#FFFFFF" font-family="simple-line-icons"> </tspan> <tspan x="1289.704" y="307" fill="#FFFFFF">DEVELOPMENT</tspan> <tspan x="1802.633" y="307" fill="#FFFFFF" font-family="simple-line-icons"> </tspan> <tspan x="1838.633" y="307" fill="#FFFFFF">BLOG</tspan>
      </text>
      <g transform="translate(582 442)">
        <path fill="#F19B2C" d="M138.9375 1C147.769575 1 155.321258 4.13571083 161.592773 10.4072266 167.864289 16.6787423 171 24.2304246 171 33.0625L171 139.9375C171 148.769575 167.864289 156.321258 161.592773 162.592773 155.321258 168.864289 147.769575 172 138.9375 172L32.0625 172C23.2304246 172 15.6787423 168.864289 9.40722656 162.592773 3.13571083 156.321258 0 148.769575 0 139.9375L0 33.0625C0 24.2304246 3.13571083 16.6787423 9.40722656 10.4072266 15.6787423 4.13571083 23.2304246 1 32.0625 1L138.9375 1zM55.5527344 41.8574219L14.25 41.8574219 14.25 129.472656 56.7773438 129.472656C65.4609809 129.472656 72.7714547 127.338889 78.7089844 123.071289 84.6465141 118.80369 87.6152344 112.476604 87.6152344 104.089844 87.6152344 92.3632226 82.3086468 84.9414218 71.6953125 81.8242187 79.6367585 77.9648245 83.6074219 71.8789478 83.6074219 63.5664062 83.6074219 59.3359163 82.8837963 55.7548975 81.4365234 52.8232422 79.9892506 49.8915869 77.8925919 47.6464922 75.1464844 46.0878906 72.4003769 44.5292891 69.4687656 43.4345735 66.3515625 42.8037109 63.2343594 42.1728484 59.634786 41.8574219 55.5527344 41.8574219L55.5527344 41.8574219zM53.1035156 77.2597656L33.5097656 77.2597656 33.5097656 56.7753906 51.65625 56.7753906C60.4883254 56.7753906 64.9042969 60.115201 64.9042969 66.7949219 64.9042969 73.7715193 60.9707425 77.2597656 53.1035156 77.2597656L53.1035156 77.2597656zM54.1054687 114.554687L33.5097656 114.554687 33.5097656 90.3964844 54.5507812 90.3964844C63.7539523 90.3964844 68.3554688 94.5898018 68.3554688 102.976563 68.3554688 110.695351 63.6055162 114.554687 54.1054687 114.554687L54.1054687 114.554687zM126.46875 118.117187C121.42185 118.117187 117.562513 116.707045 114.890625 113.886719 112.218737 111.066392 110.882812 107.095729 110.882812 101.974609L156.638672 101.974609C156.712891 101.232418 156.75 100.119148 156.75 98.6347656 156.75 88.8378416 153.985379 80.6553063 148.456055 74.0869141 142.92673 67.5185218 135.375048 64.234375 125.800781 64.234375 116.300734 64.234375 108.507843 67.4257493 102.421875 73.8085937 96.3359071 80.1914382 93.2929688 88.206983 93.2929688 97.8554687 93.2929688 107.87505 96.2245801 115.927704 102.087891 122.013672 107.951201 128.09964 115.855419 131.142578 125.800781 131.142578 141.015701 131.142578 150.923805 124.054758 155.525391 109.878906L140.162109 109.878906C139.345699 112.402356 137.583021 114.406243 134.874023 115.890625 132.165026 117.375007 129.363296 118.117187 126.46875 118.117187L126.46875 118.117187zM125.355469 77.3710938C133.742229 77.3710938 138.343746 81.8983922 139.160156 90.953125L110.882812 90.953125C111.179689 86.7968542 112.62694 83.4941529 115.224609 81.0449219 117.822279 78.5956909 121.199198 77.3710938 125.355469 77.3710938L125.355469 77.3710938zM107.320312 56.3300781L142.833984 56.3300781 142.833984 47.7578125 107.320312 47.7578125 107.320312 56.3300781zM353.5.5C377.165297.5 397.33139 9.08808376 413.998884 26.2645089 430.666378 43.4409341 439 64.1159506 439 88.2901786 439 107.375095 433.529073 124.551263 422.587054 139.819196 411.645035 155.08713 397.649639 165.647292 380.600446 171.5L379.073661 171.5C376.020074 171.5 374.493304 169.97323 374.493304 166.919643 374.493304 166.665177 374.556919 163.802483 374.684152 158.331473 374.811385 152.860464 374.875 147.834844 374.875 143.254464 374.875 135.874963 372.839306 130.404036 368.767857 126.841518 380.473273 125.314725 389.951973 121.561414 397.204241 115.581473 404.456509 109.601533 408.082589 98.9777549 408.082589 83.7098214 408.082589 74.5490613 405.156279 66.6607474 399.303571 60.0446429 401.848227 52.6651417 401.593765 44.9040586 398.540179 36.7611607L396.631696 36.7611607C390.778989 36.7611607 383.526829 39.8147016 374.875 45.921875 367.495499 43.8861505 360.37057 42.8683036 353.5 42.8683036 346.62943 42.8683036 339.504501 43.8861505 332.125 45.921875 323.473171 39.8147016 316.221011 36.7611607 310.368304 36.7611607L308.459821 36.7611607C305.406235 44.9040586 305.151773 52.6651417 307.696429 60.0446429 301.843721 66.6607474 298.917411 74.5490613 298.917411 83.7098214 298.917411 98.9777549 302.479875 109.601533 309.604911 115.581473 316.729946 121.561414 326.145031 125.314725 337.850446 126.841518 335.051325 129.640639 333.270093 133.584796 332.506696 138.674107 329.45311 140.2009 326.145107 140.964286 322.582589 140.964286 316.22095 140.964286 311.258946 137.783514 307.696429 131.421875 304.388376 125.823633 299.935296 122.770092 294.337054 122.261161 288.993277 122.261161 288.866046 124.042393 293.955357 127.604911 297.772341 129.640635 300.953112 133.966485 303.497768 140.582589 303.752233 141.600452 304.261157 142.809145 305.024554 144.208705 305.78795 145.608266 307.88726 147.453114 311.322545 149.743304 314.75783 152.033494 318.892833 153.178571 323.727679 153.178571 327.290196 153.178571 330.089276 152.92411 332.125 152.415179L332.125 167.301339C332.125 170.10046 330.72546 171.5 327.926339 171.5L326.399554 171.5C309.095896 165.647292 295.036884 155.150745 284.222098 140.010045 273.407312 124.869344 268 107.629561 268 88.2901786 268 64.1159506 276.333622 43.4409341 293.001116 26.2645089 309.66861 9.08808376 329.834703.5 353.5.5L353.5.5zM557.792909 71.6263736L621.815144 139.964715 590.985817 71.6263736 557.792909 71.6263736zM641.23762 150.960508L677.102404 71.6263736 605.372837 71.6263736 641.23762 150.960508zM591.294111 58.4725275L612.258053 19.010989 585.333774 19.010989 555.73762 58.4725275 591.294111 58.4725275zM660.660096 139.964715L724.682332 71.6263736 691.489423 71.6263736 660.660096 139.964715zM606.194952 58.4725275L676.280289 58.4725275 655.316346 19.010989 627.158894 19.010989 606.194952 58.4725275zM691.18113 58.4725275L726.73762 58.4725275 697.141466 19.010989 670.217188 19.010989 691.18113 58.4725275zM705.670914 8.52901786L745.132452 61.1444025C746.091591 62.3775817 746.5369 63.799142 746.46839 65.409126 746.39988 67.01911 745.817554 68.4064159 744.721394 69.5710852L646.067548 174.801854C644.834369 176.172054 643.224409 176.857143 641.23762 176.857143 639.250832 176.857143 637.640872 176.172054 636.407692 174.801854L537.753846 69.5710852C536.657687 68.4064159 536.075361 67.01911 536.006851 65.409126 535.938341 63.799142 536.383649 62.3775817 537.342789 61.1444025L576.804327 8.52901786C578.037506 6.74775895 579.784484 5.85714286 582.045313 5.85714286L700.429928 5.85714286C702.690757 5.85714286 704.437734 6.74775895 705.670914 8.52901786L705.670914 8.52901786zM843 61.9217891C843 54.5227137 844.279284 47.55193 846.837891 41.0092291 849.396497 34.4665281 852.927321 28.7631596 857.430469 23.8989526 861.933616 19.0347456 867.118981 14.8214464 872.986719 11.2589286 878.854456 7.69641076 885.165591 5.02456248 891.920313 3.24330357 898.675034 1.46204467 905.566111.571428571 912.59375.571428571 923.374012.571428571 933.403599 2.8493505 942.682812 7.40526271 951.962026 11.9611749 959.501273 18.5894139 965.300781 27.2901786 971.100289 35.9909432 974 45.8219747 974 56.783568 974 63.360524 973.351829 69.8003634 972.055469 76.1032795 970.759108 82.4061957 968.712254 88.469236 965.914844 94.2925824 963.117434 100.115929 959.70601 105.236971 955.680469 109.655864 951.654928 114.074756 946.708363 117.602966 940.840625 120.240599 934.972887 122.878233 928.525296 124.19703 921.497656 124.19703 916.85805 124.19703 912.252627 123.100887 907.68125 120.908568 903.109873 118.716249 899.834906 115.701856 897.85625 111.865299 897.173955 114.537187 896.218756 118.390814 894.990625 123.426296 893.762494 128.461778 892.960809 131.715952 892.585547 133.188917 892.210285 134.661881 891.510943 137.093948 890.4875 140.485191 889.464057 143.876434 888.577087 146.308501 887.826563 147.781465 887.076038 149.254429 885.984382 151.395333 884.551563 154.204241 883.118743 157.013149 881.549488 159.66787 879.84375 162.168484 878.138012 164.669097 876.022929 167.632109 873.498438 171.057606L872.065625 171.571429 871.144531 170.543784C870.121089 159.787721 869.609375 153.347881 869.609375 151.224073 869.609375 144.921157 870.342831 137.84761 871.809766 130.003219 873.2767 122.158829 875.545297 112.310671 878.615625 100.458448 881.685953 88.6062251 883.459893 81.6525687 883.9375 79.5972699 881.754156 75.1441227 880.6625 69.355118 880.6625 62.2300824 880.6625 56.5437559 882.436441 51.2000593 885.984375 46.1988324 889.532309 41.1976055 894.035389 38.6970295 899.49375 38.6970295 903.65575 38.6970295 906.896603 40.0843354 909.216406 42.8589887 911.53621 45.633642 912.696094 49.1447246 912.696094 53.392342 912.696094 57.9139993 911.195067 64.4566021 908.192969 73.0203468 905.19087 81.5840916 903.689844 87.9896766 903.689844 92.237294 903.689844 96.5534213 905.224985 100.133013 908.295312 102.976176 911.36564 105.819339 915.084093 107.2409 919.450781 107.2409 923.203404 107.2409 926.683057 106.384538 929.889844 104.671789 933.096631 102.95904 935.774599 100.629737 937.923828 97.6838084 940.073058 94.7378802 941.983455 91.483706 943.655078 87.9211882 945.326701 84.3586704 946.623042 80.573552 947.544141 76.5657194 948.465239 72.5578869 949.147524 68.7556413 949.591016 65.1588685 950.034507 61.5620957 950.25625 58.1537764 950.25625 54.9338084 950.25625 43.0815857 946.52074 33.8500073 939.049609 27.2387964 931.578478 20.6275854 921.838862 17.3220295 909.830469 17.3220295 896.184567 17.3220295 884.79041 21.7579828 875.647656 30.6300223 866.504902 39.5020619 861.933594 50.7546537 861.933594 64.3881353 861.933594 67.4025735 862.360022 70.314203 863.212891 73.1231113 864.065759 75.9320195 864.986844 78.1585598 865.976172 79.8027988 866.9655 81.4470378 867.886584 83.0056159 868.739453 84.47858 869.592322 85.9515441 870.01875 86.9963053 870.01875 87.6128949 870.01875 89.5311737 869.507036 92.0317497 868.483594 95.1146978 867.460151 98.1976459 866.197924 99.7390968 864.696875 99.7390968 864.560416 99.7390968 863.980474 99.6363334 862.957031 99.4308036 859.477326 98.4031542 856.389987 96.4849042 853.694922 93.6759959 850.999856 90.8670876 848.918888 87.6300406 847.451953 83.9647579 845.985019 80.2994751 844.876306 76.5999929 844.125781 72.8662002 843.375257 69.1324075 843 65.484307 843 61.9217891L843 61.9217891zM1071 6L1217.57143 6 1204.21205 159.823661 1144.28571 177 1084.35938 159.823661 1071 6zM1188.5625 56.3839286L1190.08929 37.2991071 1098.10045 37.2991071 1103.0625 94.5535714 1166.8058 94.5535714 1164.51562 118.982143 1144.28571 124.707589 1123.67411 118.982143 1122.52902 104.095982 1104.20759 104.095982 1106.49777 133.868304 1144.28571 144.174107 1181.69196 133.486607 1187.03571 75.8504464 1119.85714 75.8504464 1118.33036 56.3839286 1188.5625 56.3839286zM1315 13.8571429L1486.42857 13.8571429 1486.42857 185.285714 1315 185.285714 1315 13.8571429zM1416.33929 49.5714286L1415 53.2544643 1423.37054 62.5178571 1419.91071 75.2410714 1422.70089 78.03125 1434.64286 71.6696429 1446.58482 78.03125 1449.375 75.2410714 1445.91518 62.5178571 1454.28571 53.2544643 1452.94643 49.5714286 1442.34375 49.5714286 1436.42857 38.8571429 1432.85714 38.8571429 1426.94196 49.5714286 1416.33929 49.5714286zM1386.54018 67.7633929C1388.92114 67.7633929 1390.57663 68.358625 1391.5067 69.5491071 1392.43676 70.7395893 1392.86458 73.0833158 1392.79018 76.5803571L1412.20982 74.2366071C1412.20982 70.1443248 1411.55879 66.703139 1410.2567 63.9129464 1408.95461 61.1227539 1407.07591 59.0394414 1404.62054 57.6629464 1402.16517 56.2864515 1399.59823 55.3378002 1396.91964 54.8169643 1394.24106 54.2961283 1391.07889 54.0357143 1387.43304 54.0357143 1377.53715 54.0357143 1370.13395 56.1748298 1365.22321 60.453125 1360.31248 64.7314202 1357.85714 71.5207868 1357.85714 80.8214286L1357.85714 88.8571429 1347.14286 88.8571429 1347.14286 103.142857 1355.625 103.142857C1357.1131 103.142857 1357.85714 103.440473 1357.85714 104.035714L1357.85714 146.669643C1357.85714 147.711315 1357.67113 148.455355 1357.29911 148.901786 1356.92708 149.348217 1356.25745 149.608631 1355.29018 149.683036L1347.14286 150.464286 1347.14286 160.285714 1397.14286 160.285714 1397.14286 150.6875 1380.51339 149.125C1380.06696 149.050595 1379.75074 148.994792 1379.56473 148.957589 1379.37872 148.920387 1379.24851 148.827382 1379.17411 148.678571 1379.0997 148.529761 1379.0811 148.380953 1379.1183 148.232143 1379.15551 148.083333 1379.19271 147.822919 1379.22991 147.450893 1379.26711 147.078867 1379.28571 146.706847 1379.28571 146.334821L1379.28571 103.142857 1400.60268 103.142857 1404.84375 88.8571429 1379.0625 88.8571429C1378.61607 88.8571429 1378.54167 88.6339308 1378.83929 88.1875 1379.13691 87.7410692 1379.28571 87.4062511 1379.28571 87.1830357L1379.28571 78.2544643C1379.28571 76.2455257 1379.34152 74.7388443 1379.45312 73.734375 1379.56473 72.7299057 1379.84375 71.6882494 1380.29018 70.609375 1380.73661 69.5305006 1381.46205 68.7864604 1382.46652 68.3772321 1383.47099 67.9680039 1384.82886 67.7633929 1386.54018 67.7633929L1386.54018 67.7633929zM1454.28571 160.285714L1454.28571 150.6875 1448.25893 149.683036C1447.73809 149.608631 1447.38467 149.515626 1447.19866 149.404018 1447.01265 149.29241 1446.91964 149.180804 1446.91964 149.069196 1446.91964 148.957589 1446.95684 148.678574 1447.03125 148.232143 1447.10566 147.785712 1447.14286 147.339288 1447.14286 146.892857L1447.14286 88.8571429 1416.45089 88.8571429 1413.88393 100.129464 1423.14732 102.584821C1424.85864 103.105657 1425.71429 104.110112 1425.71429 105.598214L1425.71429 146.892857C1425.71429 147.934529 1425.49107 148.622766 1425.04464 148.957589 1424.59821 149.292412 1423.85417 149.534225 1422.8125 149.683036L1415 150.6875 1415 160.285714 1454.28571 160.285714z"/>
      </g>
    </g>
  </g>
</svg>
