<svg xmlns="http://www.w3.org/2000/svg" width="2161" height="2869" viewBox="0 0 2161 2869">
  <g fill="none" fill-rule="evenodd">
    <path fill="#999999" fill-opacity=".9"  d="M0,0 L2161,1.20135373e-11 L2161,2869 L2.00491155e-12,2869 L0,0 Z M980.302624,1136.85666 C911.481929,1136.85666 852.985215,1160.93537 804.810728,1209.09351 C756.636241,1257.25165 732.549359,1315.72852 732.549359,1384.52586 C732.549359,1453.3232 756.636241,1511.80007 804.810728,1559.95821 C852.985215,1608.11635 911.481929,1632.19506 980.302624,1632.19506 C1049.12332,1632.19506 1107.62003,1608.11635 1155.79452,1559.95821 C1205.34542,1510.42412 1230.1205,1451.94726 1230.1205,1384.52586 C1230.1205,1317.10446 1205.34542,1258.6276 1155.79452,1209.09351 C1107.62003,1160.93537 1049.12332,1136.85666 980.302624,1136.85666 Z"/>
    
    <path fill="#000000" d="M1245.22917,1549.23438 L1236.96875,1563.6901 L1460,1788.78646 L1389.78646,1859 L1166.75521,1633.90365 L1152.29948,1644.22917 C1097.22976,1678.64774 1040.09578,1695.85677 980.895833,1695.85677 C894.161025,1695.85677 820.162199,1664.88052 758.897135,1602.92708 C697.632072,1540.97365 667,1466.63064 667,1379.89583 C667,1293.16102 697.632072,1219.1622 758.897135,1157.89714 C820.162199,1096.63207 894.161025,1066 980.895833,1066 C1067.63064,1066 1141.62947,1096.63207 1202.89453,1157.89714 C1264.15959,1219.1622 1294.79167,1293.16102 1294.79167,1379.89583 C1294.79167,1440.47253 1278.271,1496.91814 1245.22917,1549.23438 L1245.22917,1549.23438 Z M1156.42969,1204.36198 C1108.24368,1156.17597 1049.73298,1132.08333 980.895833,1132.08333 C912.058684,1132.08333 853.547984,1156.17597 805.361979,1204.36198 C757.175974,1252.54798 733.083333,1311.05868 733.083333,1379.89583 C733.083333,1448.73298 757.175974,1507.24368 805.361979,1555.42969 C853.547984,1603.61569 912.058684,1627.70833 980.895833,1627.70833 C1049.73298,1627.70833 1108.24368,1603.61569 1156.42969,1555.42969 C1205.99244,1505.86694 1230.77344,1447.35624 1230.77344,1379.89583 C1230.77344,1312.43543 1205.99244,1253.92473 1156.42969,1204.36198 L1156.42969,1204.36198 Z"/>
  </g>
</svg>
