<svg xmlns="http://www.w3.org/2000/svg" width="341" height="161" viewBox="0 0 341 161">
  <g fill="#FFFFFF" fill-rule="evenodd" transform="translate(-90 -64)">
    <path d="M118.306,112.092 C114.017979,121.382713 111.874,129.69063 111.874,137.016 C111.874,152.113409 117.055282,161.359316 127.418,164.754 C130.455349,165.558004 133.559651,165.96 136.731,165.96 C139.902349,165.96 143.095984,165.558004 146.312,164.754 C152.744032,163.056658 158.505975,160.510684 163.598,157.116 C168.690025,153.721316 171.905993,150.460682 173.246,147.334 C176.819351,139.025958 180.660646,134.872 184.77,134.872 C186.824677,134.872 188.20933,136.033322 188.924,138.356 C189.281335,139.249338 189.370668,140.231995 189.192,141.304 C188.298662,148.272035 186.378015,155.172966 183.43,162.007 C180.481985,168.841034 176.328027,176.679956 170.968,185.524 C181.688054,185.613334 191.469956,186.774655 200.314,189.008 C202.190009,189.454669 203.128,190.079996 203.128,190.884 C203.128,191.866672 201.83268,192.045336 199.242,191.42 C193.077969,189.811992 184.189391,189.008 172.576,189.008 L169.092,189.008 C163.642639,196.869373 156.384379,203.81497 147.317,209.845 C138.249621,215.87503 129.428043,220.006655 120.852,222.24 C116.11731,223.490673 112.09735,224.116 108.792,224.116 C105.48665,224.116 102.717344,223.714004 100.484,222.91 C93.9626341,220.497988 90.702,217.326686 90.702,213.396 C90.702,212.234661 91.0146635,210.984007 91.64,209.644 C94.0520121,204.283973 100.394615,199.326023 110.668,194.77 C118.440039,191.285983 126.63629,188.918673 135.257,187.668 C143.87771,186.417327 153.547946,185.702668 164.268,185.524 C170.8787,174.357277 175.389988,163.369387 177.802,152.56 L178.338,150.282 C174.049979,154.391354 169.203694,158.031651 163.799,161.203 C158.394306,164.374349 153.68202,166.585327 149.662,167.836 C143.229968,169.890677 137.937021,170.918 133.783,170.918 C129.628979,170.918 125.988682,170.337339 122.862,169.176 C117.144638,167.210657 112.499351,163.280029 108.926,157.384 C105.084647,151.130635 103.164,143.671377 103.164,135.006 C103.164,126.340623 105.441977,117.05005 109.998,107.134 C104.101971,101.059303 101.154,94.6050342 101.154,87.771 C101.154,80.9369658 103.923306,74.4380308 109.462,68.274 C110.534005,67.1126609 111.315664,66.6883318 111.807,67.001 C112.298336,67.3136682 112.097338,68.0953271 111.204,69.346 C107.18398,74.7060268 105.174,80.1106394 105.174,85.56 C105.174,91.8133646 107.496643,97.6646394 112.142,103.114 C112.678003,101.952661 113.66066,100.210678 115.09,97.888 C122.058035,86.4532762 131.527273,77.698697 143.498,71.624 C152.878047,66.7999759 161.94529,64.388 170.7,64.388 C173.112012,64.388 175.523988,64.5666649 177.936,64.924 C189.460058,66.7106756 197.23198,71.4452949 201.252,79.128 C202.860008,82.1653485 203.664,85.4483157 203.664,88.977 C203.664,92.5056843 202.547345,96.2799799 200.314,100.3 C195.311308,108.965377 186.556729,115.039983 174.05,118.524 C167.4393,120.400009 160.694701,121.338 153.816,121.338 C139.343928,121.338 127.507379,118.256031 118.306,112.092 Z M173.782,68.542 C166.099295,68.542 157.970043,71.1326408 149.394,76.314 C136.797937,83.8180375 127.016035,94.5825965 120.048,108.608 C124.246688,111.824016 129.092973,114.101993 134.587,115.442 C140.081027,116.782007 144.48065,117.452 147.786,117.452 C166.635428,117.452 180.883952,112.404717 190.532,102.31 C195.356024,97.1286408 197.768,91.9473592 197.768,86.766 C197.768,78.5472922 193.167379,73.008681 183.966,70.15 C180.571316,69.0779946 177.176684,68.542 173.782,68.542 Z M97.536,214.334 C97.536,216.835346 99.6799786,218.532662 103.968,219.426 C105.39734,219.783335 106.960658,219.962 108.658,219.962 C115.000698,219.962 123.040618,217.684023 132.778,213.128 C145.106062,207.499972 154.887964,199.504718 162.124,189.142 C152.743953,189.410001 144.525369,190.124661 137.468,191.286 C127.283949,192.804674 117.591379,196.511971 108.39,202.408 C101.153964,207.053357 97.536,211.02865 97.536,214.334 Z M224.225027,131.254 C221.813015,131.254 218.954377,132.861984 215.649027,136.078 C212.343678,139.294016 209.395707,143.671306 206.805027,149.21 C203.678345,155.642032 202.115027,160.912646 202.115027,165.022 C202.115027,169.131354 203.678345,171.186 206.805027,171.186 C209.038372,171.186 211.53968,169.980012 214.309027,167.568 C212.879687,165.513323 212.165027,163.324678 212.165027,161.002 C212.343695,157.160647 213.907013,155.24 216.855027,155.24 C218.016367,155.24 218.97669,155.641996 219.736027,156.446 C220.495365,157.250004 220.875027,157.986997 220.875027,158.657 C220.875027,159.327003 220.785695,160.01933 220.607027,160.734 C222.125702,158.500656 223.867684,155.329354 225.833027,151.22 C228.066372,146.663977 229.183027,142.197355 229.183027,137.82 C229.183027,133.442645 227.530377,131.254 224.225027,131.254 Z M269.174055,131.254 C266.762043,131.254 263.903405,132.861984 260.598055,136.078 C257.292705,139.294016 254.344735,143.671306 251.754055,149.21 C248.627373,155.642032 247.064055,160.912646 247.064055,165.022 C247.064055,169.131354 248.627373,171.186 251.754055,171.186 C253.987399,171.186 256.488708,169.980012 259.258055,167.568 C257.828714,165.513323 257.114055,163.324678 257.114055,161.002 C257.292722,157.160647 258.85604,155.24 261.804055,155.24 C262.965394,155.24 263.925718,155.641996 264.685055,156.446 C265.444392,157.250004 265.824055,157.986997 265.824055,158.657 C265.824055,159.327003 265.734722,160.01933 265.556055,160.734 C267.074729,158.500656 268.816712,155.329354 270.782055,151.22 C273.015399,146.663977 274.132055,142.197355 274.132055,137.82 C274.132055,133.442645 272.479405,131.254 269.174055,131.254 Z M323.101082,130.986 C321.939743,129.824661 320.309426,129.244 318.210082,129.244 C316.110739,129.244 313.185101,130.807318 309.433082,133.934 C303.447719,138.936692 298.489769,145.10063 294.559082,152.426 C291.968403,157.250024 290.673082,161.225318 290.673082,164.352 C290.673082,165.78134 290.963413,167.076661 291.544082,168.238 C292.124752,169.399339 293.040409,169.98 294.291082,169.98 C297.328431,169.98 301.080393,166.853365 305.547082,160.6 C310.013771,154.346635 315.865046,144.475401 323.101082,130.986 Z M351.70211,123.482 C350.183436,123.482 348.977448,122.946005 348.08411,121.874 C347.190772,120.801995 346.833442,119.506674 347.01211,117.988 C347.280111,116.469326 348.039437,115.174005 349.29011,114.102 C350.540783,113.029995 351.925436,112.494 353.44411,112.494 C354.962784,112.494 356.191105,113.029995 357.12911,114.102 C358.067115,115.174005 358.402111,116.469326 358.13411,117.988 C357.866109,119.506674 357.106783,120.801995 355.85611,121.874 C354.605437,122.946005 353.220784,123.482 351.70211,123.482 Z M389.281137,131.924 C389.281137,130.137324 388.566478,129.244 387.137137,129.244 C384.635791,129.244 380.839163,132.325969 375.747137,138.49 C372.709789,142.242019 370.029816,146.440643 367.707137,151.086 C369.225812,151.086 371.436789,150.550005 374.340137,149.478 C377.243485,148.405995 379.767127,146.976676 381.911137,145.19 C386.824495,140.991312 389.281137,136.569357 389.281137,131.924 Z M400.864165,170.516 C404.794851,167.478651 406.760165,162.565367 406.760165,155.776 C406.760165,153.006653 406.447501,149.210024 405.822165,144.386 C405.196828,139.561976 404.884165,136.301342 404.884165,134.604 C404.884165,132.906658 404.928831,131.745336 405.018165,131.12 C398.228797,144.698735 394.030173,152.961985 392.422165,155.91 C394.298174,155.91 395.236165,157.249987 395.236165,159.93 C395.236165,165.200693 397.112146,168.729324 400.864165,170.516 Z M390.814165,166.898 C390.814165,167.434003 390.858831,168.014664 390.948165,168.64 C391.662835,171.052012 393.315485,172.258 395.906165,172.258 C396.97817,172.258 397.871495,172.079335 398.586165,171.722 C395.280815,169.667323 393.494166,166.317357 393.226165,161.672 C391.618157,163.280008 390.814165,165.021991 390.814165,166.898 Z M384.932828,163.731028 C380.66175,169.058358 376.125868,171.722 371.325137,171.722 C369.27046,171.722 367.68481,170.985007 366.568137,169.511 C365.451465,168.036993 364.893137,166.049346 364.893137,163.548 C364.893137,159.795981 365.518464,156.401349 366.769137,153.364 C368.645147,153.364 371.369786,152.761006 374.943137,151.555 C378.516489,150.348994 381.285794,148.986674 383.251137,147.468 C389.683169,142.554642 392.899137,137.418027 392.899137,132.058 C392.899137,130.539326 392.139812,129.154673 390.621137,127.904 C389.013129,126.831995 387.271147,126.296 385.395137,126.296 C383.519128,126.296 381.553814,126.742662 379.499137,127.636 C375.211116,129.422676 371.414487,132.258981 368.109137,136.145 C364.803787,140.031019 362.190814,144.229644 360.270137,148.741 C360.032514,149.299139 359.80959,149.853517 359.601365,150.404133 C354.992133,159.403127 351.153081,165.437029 348.08411,168.506 C346.2081,170.203342 344.421452,171.052 342.72411,171.052 C339.954763,171.052 338.57011,169.75668 338.57011,167.166 C338.57011,164.843322 339.329436,162.02935 340.84811,158.724 L351.56811,133.666 C352.461448,132.057992 352.729445,130.874337 352.37211,130.115 C352.014775,129.355663 350.808787,128.976 348.75411,128.976 L341.38411,129.11 C342.456115,130.53934 342.99211,131.700662 342.99211,132.594 C342.99211,133.487338 342.902777,134.201997 342.72411,134.738 L337.732335,147.451426 C337.645808,147.576137 337.57039,147.715661 337.506082,147.87 C337.282748,148.406003 337.037084,148.941997 336.769082,149.478 C329.801048,163.503403 324.21777,170.516 320.019082,170.516 C317.696404,170.516 316.535082,169.086681 316.535082,166.228 C316.535082,164.530658 316.981745,162.38668 317.875082,159.796 C320.197761,152.827965 326.987026,138.892105 338.243082,117.988 C347.087127,101.639918 352.536405,92.5280094 354.591082,90.652 C353.787078,90.7413338 352.64809,90.6743345 351.174082,90.451 C349.700075,90.2276656 348.851417,90.116 348.628082,90.116 L346.752082,90.116 C345.724744,90.116 344.608088,90.5403291 343.402082,91.389 C342.196076,92.2376709 340.967755,94.1359853 339.717082,97.084 C335.429061,106.821382 330.247779,117.407276 324.173082,128.842 C321.0464,127.233992 318.210095,126.43 315.664082,126.43 C313.11807,126.43 310.907092,126.742664 309.031082,127.368 C303.849723,128.886674 299.427767,131.834645 295.765082,136.212 C292.774091,139.7866 290.334174,143.495193 288.445287,147.337853 C288.404554,147.397085 288.368143,147.462801 288.336055,147.535 C288.288667,147.641622 288.217714,147.798517 288.123196,148.005685 C287.963325,148.34363 287.807682,148.682602 287.656267,149.022604 C287.423355,149.527865 287.136284,150.148663 286.795055,150.885 C285.946384,152.716342 285.254058,154.123328 284.718055,155.106 C284.182052,156.088672 283.333394,157.629656 282.172055,159.729 C281.010716,161.828344 279.090068,164.262653 276.410055,167.032 C274.266044,169.444012 271.988067,170.65 269.576055,170.65 C266.538706,170.65 264.439394,169.533345 263.278055,167.3 C268.280747,162.56531 272.032709,157.294696 274.534055,151.488 C276.499398,147.199979 277.482055,143.180019 277.482055,139.428 C277.482055,131.209292 274.221421,127.1 267.700055,127.1 C263.3227,127.1 258.699746,129.288645 253.831055,133.666 C249.605278,137.465322 246.203949,141.971217 243.626993,147.183788 C243.53023,147.275697 243.450242,147.392767 243.387027,147.535 C243.20836,147.937002 242.694698,149.053658 241.846027,150.885 C240.997357,152.716342 240.30503,154.123328 239.769027,155.106 C239.233025,156.088672 238.384367,157.629656 237.223027,159.729 C236.061688,161.828344 234.141041,164.262653 231.461027,167.032 C229.317017,169.444012 227.03904,170.65 224.627027,170.65 C221.589679,170.65 219.490367,169.533345 218.329027,167.3 C223.331719,162.56531 227.083682,157.294696 229.585027,151.488 C231.550371,147.199979 232.533027,143.180019 232.533027,139.428 C232.533027,131.209292 229.272393,127.1 222.751027,127.1 C218.373672,127.1 213.750718,129.288645 208.882027,133.666 C204.013336,138.043355 200.239041,143.358635 197.559027,149.612 C195.593684,153.900021 194.611027,157.919981 194.611027,161.672 C194.611027,169.890708 197.871662,174 204.393027,174 C207.877045,174 211.673674,172.481349 215.783027,169.444 C217.837704,171.766678 220.696342,172.928 224.359027,172.928 C226.324371,172.928 228.423683,172.258007 230.657027,170.918 C231.550365,170.381997 232.488356,169.622672 233.471027,168.64 C234.453699,167.657328 235.280024,166.764004 235.950027,165.96 C236.620031,165.155996 237.379357,164.084007 238.228027,162.744 C238.748271,161.922563 239.201371,161.201842 239.587332,160.581829 C239.569147,160.947698 239.560055,161.311089 239.560055,161.672 C239.560055,169.890708 242.820689,174 249.342055,174 C252.826072,174 256.622701,172.481349 260.732055,169.444 C262.786732,171.766678 265.64537,172.928 269.308055,172.928 C271.273398,172.928 273.37271,172.258007 275.606055,170.918 C276.499393,170.381997 277.437383,169.622672 278.420055,168.64 C279.402727,167.657328 280.229052,166.764004 280.899055,165.96 C281.569058,165.155996 282.328384,164.084007 283.177055,162.744 C283.60883,162.062249 283.994356,161.449873 284.333635,160.906867 C284.271933,161.621603 284.241082,162.323313 284.241082,163.012 C284.241082,168.818696 286.429727,172.302661 290.807082,173.464 C291.789754,173.732001 292.794744,173.866 293.822082,173.866 C294.849421,173.866 295.899077,173.642669 296.971082,173.196 C300.723101,172.034661 305.189723,167.166043 310.371082,158.59 C309.924413,160.376676 309.701082,162.319656 309.701082,164.419 C309.701082,166.518344 310.415742,168.639989 311.845082,170.784 C313.274423,172.928011 315.19507,174 317.607082,174 C322.634108,174 327.619012,170.087492 332.561864,162.262396 C332.458028,163.023564 332.40611,163.764765 332.40611,164.486 C332.40611,166.898012 333.120769,169.086657 334.55011,171.052 C335.97945,173.017343 338.324427,174 341.58511,174 C344.845793,174 348.307425,171.900688 351.97011,167.702 C353.310117,166.183326 354.806435,164.017014 356.45911,161.203 C356.823118,160.583202 357.161123,160.001326 357.473125,159.457371 C357.417133,160.158075 357.389137,160.851617 357.389137,161.538 C357.389137,165.55802 358.639791,168.729322 361.141137,171.052 C363.642483,173.374678 366.679786,174.536 370.253137,174.536 C376.126992,174.536 381.176854,172.132912 385.402836,167.326672 C386.813508,172.132914 390.627248,174.536 396.844165,174.536 C398.452173,174.536 400.283488,174.089338 402.338165,173.196 C405.464847,174.089338 408.680815,174.000005 411.986165,172.928 C414.040842,172.302664 415.827491,171.230674 417.346165,169.712 L420.160165,166.764 C421.053503,165.959996 421.946827,164.84334 422.840165,163.414 C423.733503,161.98466 424.470495,160.778672 425.051165,159.796 C425.631834,158.813328 426.324161,157.518008 427.128165,155.91 C427.932169,154.301992 428.51283,153.073671 428.870165,152.225 C429.2275,151.376329 429.607163,150.527671 430.009165,149.679 C430.411167,148.830329 430.612165,148.316668 430.612165,148.138 C430.612165,147.42333 430.210169,147.110666 429.406165,147.2 C428.959496,147.2 428.646832,147.423331 428.468165,147.87 C423.644141,157.250047 420.294174,163.101322 418.418165,165.424 C414.934147,169.622688 411.405516,171.722 407.832165,171.722 C407.385496,171.722 406.581504,171.632668 405.420165,171.454 C408.010844,169.667324 410.244155,167.344681 412.120165,164.486 C413.996174,161.627319 414.934165,158.724015 414.934165,155.776 C414.934165,152.827985 413.906842,149.031357 411.852165,144.386 C410.958827,142.509991 410.154835,140.768008 409.440165,139.16 C408.725495,137.551992 408.368165,135.497346 408.368165,132.996 C408.368165,128.26131 409.886816,125.17934 412.924165,123.75 C413.460167,123.481999 414.085495,123.348 414.800165,123.348 C415.514835,123.348 416.363493,123.571331 417.346165,124.018 C418.328836,124.464669 418.976497,124.33067 419.289165,123.616 C419.601833,122.90133 419.155171,122.25367 417.949165,121.673 C416.743159,121.09233 415.514838,120.802 414.264165,120.802 C409.529474,120.802 405.375516,124.598629 401.802165,132.192 C399.657059,136.839729 397.213895,141.864979 394.47264,147.267819 C394.093365,147.580562 393.747532,148.093955 393.435137,148.808 C392.691762,150.525801 391.938785,152.147016 391.176208,153.671647 C390.836101,154.323482 390.492087,154.980266 390.144165,155.642 C388.893492,155.731334 387.709837,156.535326 386.593165,158.054 C385.476493,159.572674 384.918165,161.158325 384.918165,162.811 C384.918165,163.126638 384.923052,163.433313 384.932828,163.731028 Z"/>
    <path d="M226.071,194.592 C225.954999,193.934663 225.877667,193.393335 225.839,192.968 C225.800333,192.542665 225.781,192.102836 225.781,191.6485 C225.781,191.194164 225.858333,190.938 226.013,190.88 L226.1,190.88 C226.680003,190.88 227.752992,190.483671 229.319,189.691 C230.885008,188.898329 232.66849,187.830173 234.6695,186.4865 C236.67051,185.142827 238.758489,183.422177 240.9335,181.3245 C243.108511,179.226823 244.90166,177.105011 246.313,174.959 C246.564335,174.591665 246.776999,174.408 246.951,174.408 C247.009,174.408 247.071833,174.437 247.1395,174.495 C247.207167,174.553 247.241,174.649666 247.241,174.785 C247.241,174.920334 247.173334,175.103999 247.038,175.336 C244.833989,178.990018 241.73102,182.426484 237.729,185.6455 C233.72698,188.864516 230.382347,190.81233 227.695,191.489 C227.656333,191.547 227.637,191.667832 227.637,191.8515 C227.637,192.035168 227.656333,192.339665 227.695,192.765 C227.733667,193.190335 227.922165,194.007161 228.2605,195.2155 C228.598835,196.423839 228.990331,197.540328 229.435,198.565 C230.749673,201.581015 232.479989,203.089 234.626,203.089 C235.86334,203.089 237.047494,202.828003 238.1785,202.306 C239.309506,201.783997 240.126331,201.030005 240.629,200.044 C240.745001,199.773332 240.889999,199.638 241.064,199.638 C241.238001,199.638 241.218668,199.850665 241.006,200.276 C240.483997,201.339339 239.570507,202.281829 238.2655,203.1035 C236.960493,203.925171 235.621674,204.336 234.249,204.336 C232.876326,204.336 231.581006,203.833338 230.363,202.828 C228.236323,201.087991 226.80567,198.342685 226.071,194.592 L226.071,194.592 Z M230.9285,176.7715 C231.363502,176.239831 231.740498,175.9305 232.0595,175.8435 C232.378502,175.7565 232.687832,175.713 232.9875,175.713 C233.287168,175.713 233.514333,175.838665 233.669,176.09 C233.823667,176.341335 233.901,176.592665 233.901,176.844 C233.901,177.095335 233.717335,177.385332 233.35,177.714 C232.73133,178.274669 231.755007,178.622666 230.421,178.758 C229.318994,180.749343 228.052674,183.948978 226.622,188.357 C226.099997,189.961675 225.399171,191.667824 224.5195,193.4755 C223.639829,195.283176 222.697338,196.86366 221.692,198.217 C220.686662,199.57034 219.357508,200.764161 217.7045,201.7985 C216.051492,202.832839 214.18101,203.504665 212.093,203.814 C211.41633,203.910667 210.667171,203.959 209.8455,203.959 C209.023829,203.959 208.129672,203.852668 207.163,203.64 C203.624982,202.827996 201.343672,201.088013 200.319,198.42 C200.009665,197.607996 199.855,196.800837 199.855,195.9985 C199.855,195.196163 199.966166,194.369671 200.1885,193.519 C200.410834,192.668329 200.894163,191.909503 201.6385,191.2425 C202.382837,190.575497 202.996664,190.213 203.48,190.155 C203.731335,190.116333 203.857,190.174333 203.857,190.329 C203.857,190.425667 203.799001,190.503 203.683,190.561 C203.218998,190.773668 202.658337,191.276329 202.001,192.069 C201.150329,193.113005 200.725,194.408326 200.725,195.955 C200.725,197.540341 201.208329,198.825995 202.175,199.812 C203.354339,201.04934 204.746325,201.822665 206.351,202.132 C207.453006,202.344668 208.361663,202.451 209.077,202.451 C209.792337,202.451 210.420664,202.373667 210.962,202.219 C212.547341,201.851665 214.03116,201.276504 215.4135,200.4935 C216.79584,199.710496 217.955829,198.879171 218.8935,197.9995 C219.831171,197.119829 220.730162,196.066173 221.5905,194.8385 C222.450838,193.610827 223.127498,192.533005 223.6205,191.605 C224.113502,190.676995 224.988327,188.792014 226.245,185.95 C227.501673,183.107986 228.603662,180.73001 229.551,178.816 C229.260999,178.854667 228.429674,178.931999 227.057,179.048 C224.524321,179.260668 222.55234,179.569998 221.141,179.976 C218.49232,180.71067 216.607339,182.12199 215.486,184.21 C214.944664,185.215338 214.674,186.191662 214.674,187.139 C214.674,187.641669 214.751333,188.134664 214.906,188.618 C215.331335,189.91334 216.172327,190.561 217.429,190.561 C219.014341,190.561 220.125997,189.739342 220.764,188.096 C221.073335,187.303329 221.228,186.646003 221.228,186.124 C221.228,185.601997 221.208667,185.234668 221.17,185.022 C221.131333,184.809332 221.160333,184.703 221.257,184.703 C221.411667,184.741667 221.546999,184.867332 221.663,185.08 C221.837001,185.486002 221.924,185.964497 221.924,186.5155 C221.924,187.066503 221.740335,187.699663 221.373,188.415 C220.792997,189.633006 219.981005,190.435331 218.937,190.822 C218.298997,191.054001 217.699669,191.17 217.139,191.17 C216.172329,191.17 215.302337,190.822003 214.529,190.126 C213.484995,189.197995 212.963,187.989674 212.963,186.501 C212.963,184.393656 213.94899,182.624674 215.921,181.194 C217.738342,179.84066 220.367649,178.980335 223.809,178.613 C224.853005,178.496999 226.046827,178.3955 227.3905,178.3085 C228.734173,178.2215 229.589665,178.158667 229.957,178.12 C230.169668,177.752665 230.493498,177.303169 230.9285,176.7715 L230.9285,176.7715 Z M233.002,176.844 C233.002,176.631332 232.915001,176.525 232.741,176.525 C232.528332,176.525 232.310834,176.616832 232.0885,176.8005 C231.866166,176.984168 231.484336,177.394997 230.943,178.033 C231.503669,177.955666 231.928999,177.839667 232.219,177.685 C232.741003,177.433665 233.002,177.153335 233.002,176.844 L233.002,176.844 Z M241.576079,188.85 C242.987419,188.85 243.693079,189.739324 243.693079,191.518 C243.693079,192.330004 243.480414,193.199995 243.055079,194.128 C242.513743,195.384673 241.701751,196.525328 240.619079,197.55 C240.870413,198.033336 241.324742,198.275 241.982079,198.275 C242.504082,198.275 242.997077,198.014003 243.461079,197.492 C244.041082,196.892664 244.456744,196.365836 244.708079,195.9115 C244.959413,195.457164 245.143078,195.123668 245.259079,194.911 C245.375079,194.698332 245.524911,194.393835 245.708579,193.9975 C245.892246,193.601165 246.003412,193.3595 246.042079,193.2725 C246.080746,193.1855 246.148412,193.142 246.245079,193.142 C246.438413,193.122667 246.535079,193.190333 246.535079,193.345 C246.535079,193.403 246.515746,193.470666 246.477079,193.548 L246.303079,193.954 C246.187078,194.224668 246.100079,194.417999 246.042079,194.534 C245.984079,194.650001 245.88258,194.857832 245.737579,195.1575 C245.592578,195.457168 245.466913,195.693999 245.360579,195.868 C245.254245,196.042001 245.109246,196.273999 244.925579,196.564 C244.741911,196.854001 244.57758,197.085999 244.432579,197.26 C244.287578,197.434001 244.108747,197.627332 243.896079,197.84 C243.683411,198.052668 243.480413,198.216999 243.287079,198.333 C242.803743,198.623001 242.349414,198.768 241.924079,198.768 C241.131408,198.768 240.512748,198.516669 240.068079,198.014 C239.178741,198.671337 238.357083,199 237.603079,199 C236.191739,199 235.486079,198.110676 235.486079,196.332 C235.486079,195.519996 235.698743,194.650005 236.124079,193.722 C236.704082,192.36866 237.520907,191.218338 238.574579,190.271 C239.628251,189.323662 240.628741,188.85 241.576079,188.85 L241.576079,188.85 Z M241.895079,189.749 C241.373076,189.749 240.754416,190.096997 240.039079,190.793 C239.323742,191.489003 238.685748,192.436327 238.125079,193.635 C237.448409,195.027007 237.110079,196.167662 237.110079,197.057 C237.110079,197.946338 237.448409,198.391 238.125079,198.391 C238.608415,198.391 239.149743,198.130003 239.749079,197.608 C239.439744,197.163331 239.285079,196.689669 239.285079,196.187 C239.323746,195.355663 239.662076,194.94 240.300079,194.94 C240.551413,194.94 240.759245,195.026999 240.923579,195.201 C241.087913,195.375001 241.170079,195.534499 241.170079,195.6795 C241.170079,195.824501 241.150746,195.974333 241.112079,196.129 C241.440747,195.645664 241.817743,194.959338 242.243079,194.07 C242.726415,193.083995 242.968079,192.117338 242.968079,191.17 C242.968079,190.222662 242.610416,189.749 241.895079,189.749 L241.895079,189.749 Z M253.601158,197.318 C253.601158,197.93667 253.852489,198.246 254.355158,198.246 C255.263829,198.246 256.47215,196.728349 257.980158,193.693 C258.038158,193.576999 258.091324,193.461001 258.139658,193.345 C258.187991,193.228999 258.265324,193.151667 258.371658,193.113 C258.477992,193.074333 258.550491,193.0985 258.589158,193.1855 C258.627825,193.2725 258.608492,193.412666 258.531158,193.606 C256.984483,197.202018 255.418499,199 253.833158,199 C253.311155,199 252.895493,198.768002 252.586158,198.304 C252.276823,197.839998 252.122158,197.380836 252.122158,196.9265 C252.122158,196.472164 252.170491,196.051669 252.267158,195.665 C251.145819,197.521009 250.179162,198.574665 249.367158,198.826 C249.135157,198.922667 248.907992,198.971 248.685658,198.971 C248.463323,198.971 248.245826,198.942 248.033158,198.884 C247.08582,198.632665 246.612158,197.878673 246.612158,196.622 C246.612158,195.771329 246.829656,194.828839 247.264658,193.7945 C247.69966,192.760161 248.313487,191.769338 249.106158,190.822 C249.898828,189.874662 250.855819,189.236668 251.977158,188.908 C252.38316,188.772666 252.861655,188.705 253.412658,188.705 C253.963661,188.705 254.577488,188.878998 255.254158,189.227 C256.568831,186.752321 257.690153,184.461344 258.618158,182.354 C258.888826,181.715997 259.154656,181.305168 259.415658,181.1215 C259.676659,180.937832 259.918323,180.846 260.140658,180.846 L260.546658,180.846 C260.594991,180.846 260.778656,180.870166 261.097658,180.9185 C261.416659,180.966834 261.663157,180.981333 261.837158,180.962 C261.392489,181.368002 260.213167,183.339982 258.299158,186.878 C255.863146,191.402023 254.393827,194.417992 253.891158,195.926 C253.697823,196.486669 253.601158,196.950665 253.601158,197.318 L253.601158,197.318 Z M255.022158,189.691 C254.770823,189.439665 254.417993,189.314 253.963658,189.314 C253.509322,189.314 252.876162,189.65233 252.064158,190.329 C250.768818,191.411672 249.695829,192.745659 248.845158,194.331 C248.284488,195.375005 248.004158,196.23533 248.004158,196.912 C248.004158,197.221335 248.066991,197.501665 248.192658,197.753 C248.318325,198.004335 248.51649,198.13 248.787158,198.13 C249.444494,198.13 250.256486,197.45334 251.223158,196.1 C252.189829,194.74666 253.45615,192.610348 255.022158,189.691 L255.022158,189.691 Z M260.870237,194.534 C260.599569,195.191337 260.464237,195.925996 260.464237,196.738 C260.464237,197.279336 260.585069,197.709498 260.826737,198.0285 C261.068405,198.347502 261.411568,198.507 261.856237,198.507 C263.615579,198.507 265.210563,196.854017 266.641237,193.548 C266.776571,193.238665 266.940902,193.103333 267.134237,193.142 C267.21157,193.161333 267.250237,193.209666 267.250237,193.287 C267.250237,193.364334 267.032739,193.871829 266.597737,194.8095 C266.162735,195.747171 265.722906,196.505997 265.278237,197.086 C264.292232,198.43934 263.074244,199.116 261.624237,199.116 C260.850899,199.116 260.193573,198.864669 259.652237,198.362 C259.110901,197.859331 258.840237,197.173004 258.840237,196.303 C258.840237,195.432996 259.048068,194.509838 259.463737,193.5335 C259.879405,192.557162 260.4449,191.648504 261.160237,190.8075 C261.875574,189.966496 262.697232,189.352669 263.625237,188.966 C264.069906,188.772666 264.495235,188.676 264.901237,188.676 C265.307239,188.676 265.684235,188.791999 266.032237,189.024 C266.360905,189.294668 266.525237,189.594332 266.525237,189.923 C266.525237,191.083006 265.829244,192.194661 264.437237,193.258 C264.011901,193.586668 263.412574,193.881499 262.639237,194.1425 C261.865899,194.403501 261.276239,194.534 260.870237,194.534 L260.870237,194.534 Z M265.742237,189.894 C265.742237,189.507331 265.587572,189.314 265.278237,189.314 C264.736901,189.314 263.915242,189.980993 262.813237,191.315 C262.1559,192.127004 261.575906,193.035662 261.073237,194.041 C261.401905,194.041 261.8804,193.925001 262.508737,193.693 C263.137073,193.460999 263.683234,193.151669 264.147237,192.765 C265.210575,191.856329 265.742237,190.899338 265.742237,189.894 L265.742237,189.894 Z M285.239394,187.458 L287.182394,187.4 C287.994399,187.4 288.535726,187.573998 288.806394,187.922 C288.941729,188.076667 289.009394,188.231333 289.009394,188.386 C289.009394,188.540667 288.961062,188.675999 288.864394,188.792 C288.632393,189.082001 288.197398,189.227 287.559394,189.227 C286.457389,189.227 285.481065,188.801671 284.630394,187.951 C282.46505,188.279668 280.821733,189.42999 279.700394,191.402 C278.985058,192.678006 278.627394,193.924994 278.627394,195.143 C278.627394,195.81967 278.733727,196.486663 278.946394,197.144 C279.584398,199.000009 280.966717,199.928 283.093394,199.928 C284.988071,199.928 286.631388,199.290006 288.023394,198.014 C289.415401,196.737994 290.111394,195.471673 290.111394,194.215 C290.111394,193.615664 289.85523,193.117835 289.342894,192.7215 C288.830559,192.325165 288.289231,192.093167 287.718894,192.0255 C287.148558,191.957833 286.66523,191.924 286.268894,191.924 C285.872559,191.924 285.360231,191.9675 284.731894,192.0545 C284.103558,192.1415 283.480064,192.397665 282.861394,192.823 C282.126724,193.325669 281.759394,193.992663 281.759394,194.824 C281.759394,195.655337 282.407055,196.40933 283.702394,197.086 C283.895729,197.202001 283.977895,197.351832 283.948894,197.5355 C283.919894,197.719168 283.837729,197.772334 283.702394,197.695 C282.484388,197.037663 281.624064,196.293337 281.121394,195.462 C280.773393,194.920664 280.599394,194.466335 280.599394,194.099 C280.599394,193.731665 280.647727,193.432001 280.744394,193.2 C280.976396,192.52333 281.55639,191.953002 282.484394,191.489 C283.412399,191.024998 284.591721,190.793 286.022394,190.793 L291.155394,190.793 C292.160733,190.793 293.398054,190.45467 294.867394,189.778 C295.582731,189.449332 296.104726,189.062669 296.433394,188.618 C296.588062,188.385999 296.665394,188.139501 296.665394,187.8785 C296.665394,187.617499 296.607395,187.390334 296.491394,187.197 C296.375394,187.003666 296.327061,186.868334 296.346394,186.791 C296.365728,186.713666 296.418894,186.675 296.505894,186.675 C296.592895,186.675 296.665394,186.723333 296.723394,186.82 C296.994063,187.284002 297.129394,187.723831 297.129394,188.1395 C297.129394,188.555169 297.003729,188.936998 296.752394,189.285 C296.269059,190.01967 295.4474,190.609331 294.287394,191.054 C293.127389,191.498669 291.928734,191.721 290.691394,191.721 L290.546394,191.721 C291.281065,192.320336 291.648394,193.083995 291.648394,194.012 C291.648394,195.30734 290.894402,196.641326 289.386394,198.014 C288.671058,198.69067 287.752733,199.241665 286.631394,199.667 C285.510056,200.092335 284.330734,200.305 283.093394,200.305 C280.096713,200.305 277.979734,199.435009 276.742394,197.695 C276.123725,196.824996 275.814394,195.984004 275.814394,195.172 C275.814394,194.359996 275.94006,193.606003 276.191394,192.91 C276.868065,191.073324 278.231051,189.652338 280.280394,188.647 C281.459734,188.066997 282.784054,187.699667 284.253394,187.545 C283.712058,186.790996 283.446228,185.843672 283.455894,184.703 C283.465561,183.562328 283.96339,182.489338 284.949394,181.484 C285.935399,180.478662 287.071221,179.748836 288.356894,179.2945 C289.642568,178.840164 290.894388,178.613 292.112394,178.613 C293.117733,178.613 293.973224,178.815998 294.678894,179.222 C295.384565,179.628002 295.737394,180.275662 295.737394,181.165 C295.737394,181.725669 295.563396,182.223498 295.215394,182.6585 C294.867393,183.093502 294.475897,183.311 294.040894,183.311 C293.605892,183.311 293.257896,183.180501 292.996894,182.9195 C292.735893,182.658499 292.605394,182.334669 292.605394,181.948 C292.605394,181.561331 292.735893,181.242335 292.996894,180.991 C293.257896,180.739665 293.562393,180.614 293.910394,180.614 C294.142396,180.614 294.364727,180.667166 294.577394,180.7735 C294.790062,180.879834 294.915728,181.000666 294.954394,181.136 C294.973728,181.019999 294.983394,180.904001 294.983394,180.788 C294.983394,180.362665 294.809396,180.034001 294.461394,179.802 C294.094059,179.531332 293.543065,179.396 292.808394,179.396 C292.073724,179.396 291.213399,179.594165 290.227394,179.9905 C289.24139,180.386835 288.313399,180.961996 287.443394,181.716 C286.57339,182.470004 285.887064,183.397994 285.384394,184.5 C285.113726,185.11867 284.978394,185.669664 284.978394,186.153 C284.978394,186.636336 285.065394,187.071331 285.239394,187.458 L285.239394,187.458 Z M288.516394,188.357 C288.516394,188.008998 287.801068,187.835 286.370394,187.835 C286.080393,187.835 285.780729,187.844667 285.471394,187.864 C285.935397,188.444003 286.558891,188.734 287.341894,188.734 C288.124898,188.734 288.516394,188.608335 288.516394,188.357 L288.516394,188.357 Z M314.422552,197.956 C312.624543,199.406007 310.63323,200.131 308.448552,200.131 C305.95454,200.131 304.417555,199.435007 303.837552,198.043 C303.702218,197.714332 303.634552,197.332502 303.634552,196.8975 C303.634552,196.462498 303.856883,195.993669 304.301552,195.491 C304.997556,194.698329 305.964213,194.302 307.201552,194.302 C308.03289,194.302 308.869048,194.451832 309.710052,194.7515 C310.551056,195.051168 312.044542,195.771328 314.190552,196.912 C315.157224,195.983995 316.123881,194.746674 317.090552,193.2 C318.057224,191.653326 318.893382,190.159841 319.599052,188.7195 C320.304722,187.279159 321.165047,185.708342 322.180052,184.007 C323.195057,182.305658 324.205214,180.894339 325.210552,179.773 C323.045208,178.47766 320.744564,177.83 318.308552,177.83 C317.303214,177.83 316.278558,177.936332 315.234552,178.149 C312.237871,178.787003 309.95656,180.09199 308.390552,182.064 C307.423881,183.262673 306.940552,184.403328 306.940552,185.486 C306.940552,186.955341 307.646212,187.912331 309.057552,188.357 C309.560221,188.492334 309.995217,188.56 310.362552,188.56 C310.729887,188.56 311.140717,188.502001 311.595052,188.386 C312.049388,188.269999 312.498883,187.999335 312.943552,187.574 C313.794223,186.723329 314.248552,185.93067 314.306552,185.196 C314.325886,185.021999 314.437051,184.959166 314.640052,185.0075 C314.843053,185.055834 314.925219,185.205665 314.886552,185.457 C314.693218,186.86834 313.948892,187.94133 312.653552,188.676 C311.860882,189.101335 311.068223,189.314 310.275552,189.314 L308.767552,189.053 C307.298212,188.550331 306.331555,187.612674 305.867552,186.24 C305.674218,185.717997 305.577552,185.196003 305.577552,184.674 C305.577552,183.610661 305.973882,182.557005 306.766552,181.513 C308.467894,179.231655 311.483864,177.772003 315.814552,177.134 C316.665223,177.017999 317.506215,176.96 318.337552,176.96 C321.024899,176.96 323.58654,177.597994 326.022552,178.874 C326.776556,178.003996 327.472549,177.341836 328.110552,176.8875 C328.748555,176.433164 329.260884,176.206 329.647552,176.206 C329.86022,176.206 329.985885,176.2495 330.024552,176.3365 C330.063219,176.4235 330.058386,176.491166 330.010052,176.5395 C329.961719,176.587834 329.898886,176.612 329.821552,176.612 C329.492884,176.612 329.067555,176.959997 328.545552,177.656 C328.02355,178.352003 327.598221,178.999664 327.269552,179.599 C329.338229,180.971674 330.91388,182.730989 331.996552,184.877 C332.866557,186.597675 333.301552,188.47299 333.301552,190.503 C333.301552,193.016346 332.702225,195.017326 331.503552,196.506 C330.517547,197.724006 329.318893,198.584331 327.907552,199.087 C326.225544,199.686336 324.562894,199.986 322.919552,199.986 C319.594202,199.986 316.761897,199.30934 314.422552,197.956 L314.422552,197.956 Z M315.118552,197.434 C317.071229,198.594006 319.362206,199.174 321.991552,199.174 C325.046234,199.174 327.48221,198.304009 329.299552,196.564 C330.74956,195.15266 331.474552,193.200012 331.474552,190.706 C331.474552,188.927324 331.126556,187.255008 330.430552,185.689 C329.560548,183.697657 328.274894,182.035007 326.573552,180.701 C326.012883,181.571004 324.93506,183.325487 323.340052,185.9645 C321.745044,188.603513 320.396558,190.744658 319.294552,192.388 C318.192547,194.031342 317.322555,195.196163 316.684552,195.8825 C316.046549,196.568837 315.524554,197.085998 315.118552,197.434 L315.118552,197.434 Z M313.436552,197.492 C311.174541,196.409328 309.743889,195.761668 309.144552,195.549 C308.545216,195.336332 307.960388,195.23 307.390052,195.23 C306.819716,195.23 306.365387,195.442665 306.027052,195.868 C305.688717,196.293335 305.519552,196.675165 305.519552,197.0135 C305.519552,197.351835 305.596885,197.675665 305.751552,197.985 C306.157554,198.816337 306.988879,199.232 308.245552,199.232 C310.101562,199.232 311.831878,198.652006 313.436552,197.492 L313.436552,197.492 Z M337.351631,194.534 C337.080963,195.191337 336.945631,195.925996 336.945631,196.738 C336.945631,197.279336 337.066463,197.709498 337.308131,198.0285 C337.549799,198.347502 337.892962,198.507 338.337631,198.507 C340.096973,198.507 341.691957,196.854017 343.122631,193.548 C343.257965,193.238665 343.422297,193.103333 343.615631,193.142 C343.692965,193.161333 343.731631,193.209666 343.731631,193.287 C343.731631,193.364334 343.514133,193.871829 343.079131,194.8095 C342.644129,195.747171 342.2043,196.505997 341.759631,197.086 C340.773626,198.43934 339.555638,199.116 338.105631,199.116 C337.332294,199.116 336.674967,198.864669 336.133631,198.362 C335.592295,197.859331 335.321631,197.173004 335.321631,196.303 C335.321631,195.432996 335.529462,194.509838 335.945131,193.5335 C336.3608,192.557162 336.926294,191.648504 337.641631,190.8075 C338.356968,189.966496 339.178627,189.352669 340.106631,188.966 C340.5513,188.772666 340.976629,188.676 341.382631,188.676 C341.788633,188.676 342.165629,188.791999 342.513631,189.024 C342.842299,189.294668 343.006631,189.594332 343.006631,189.923 C343.006631,191.083006 342.310638,192.194661 340.918631,193.258 C340.493296,193.586668 339.893968,193.881499 339.120631,194.1425 C338.347294,194.403501 337.757633,194.534 337.351631,194.534 L337.351631,194.534 Z M342.223631,189.894 C342.223631,189.507331 342.068966,189.314 341.759631,189.314 C341.218295,189.314 340.396637,189.980993 339.294631,191.315 C338.637295,192.127004 338.0573,193.035662 337.554631,194.041 C337.883299,194.041 338.361795,193.925001 338.990131,193.693 C339.618468,193.460999 340.164629,193.151669 340.628631,192.765 C341.69197,191.856329 342.223631,190.899338 342.223631,189.894 L342.223631,189.894 Z M347.17271,198.449 C347.424045,198.487667 347.598043,198.507 347.69471,198.507 C348.468047,198.507 349.231706,198.052671 349.98571,197.144 C350.391712,196.641331 351.116705,195.37501 352.16071,193.345 C352.199377,193.248333 352.267043,193.2 352.36371,193.2 C352.537711,193.180667 352.62471,193.248333 352.62471,193.403 C352.62471,193.441667 352.581211,193.552832 352.49421,193.7365 C352.40721,193.920168 352.325044,194.103832 352.24771,194.2875 C352.170376,194.471168 352.044711,194.736998 351.87071,195.085 C351.696709,195.433002 351.546877,195.713332 351.42121,195.926 C351.295543,196.138668 351.136044,196.399665 350.94271,196.709 C350.749376,197.018335 350.556044,197.259999 350.36271,197.434 L349.75371,198.072 C349.425042,198.400668 349.038379,198.632666 348.59371,198.768 C347.878373,199.000001 347.18238,199.019334 346.50571,198.826 C346.061041,199.019334 345.664712,199.116 345.31671,199.116 C343.944037,199.116 343.112712,198.574672 342.82271,197.492 C342.76471,197.240665 342.73571,196.936168 342.73571,196.5785 C342.73571,196.220832 342.856542,195.877668 343.09821,195.549 C343.339878,195.220332 343.596042,195.046333 343.86671,195.027 C344.852715,193.151657 345.693707,191.460008 346.38971,189.952 C347.163047,188.308658 348.062038,187.487 349.08671,187.487 C349.357378,187.487 349.623209,187.549833 349.88421,187.6755 C350.145211,187.801167 350.241877,187.941333 350.17421,188.096 C350.106543,188.250667 349.966378,188.279667 349.75371,188.183 C349.541042,188.086333 349.357378,188.038 349.20271,188.038 C349.048043,188.038 348.912711,188.067 348.79671,188.125 C348.139373,188.434335 347.81071,189.101328 347.81071,190.126 C347.81071,190.667336 347.888043,191.111998 348.04271,191.46 C348.197378,191.808002 348.371376,192.184998 348.56471,192.591 C349.009379,193.596338 349.23171,194.417997 349.23171,195.056 C349.23171,195.694003 349.028712,196.32233 348.62271,196.941 C348.216708,197.55967 347.73338,198.062331 347.17271,198.449 L347.17271,198.449 Z M346.18671,198.246 C347.037381,197.588663 347.46271,196.525341 347.46271,195.056 C347.46271,194.456664 347.395044,193.635005 347.25971,192.591 C347.124376,191.546995 347.05671,190.841335 347.05671,190.474 C347.05671,190.106665 347.066377,189.855334 347.08571,189.72 C345.616369,192.658681 344.707712,194.446997 344.35971,195.085 C344.765712,195.085 344.96871,195.374997 344.96871,195.955 C344.96871,197.095672 345.374706,197.859331 346.18671,198.246 L346.18671,198.246 Z M344.01171,197.463 C344.01171,197.579001 344.021377,197.704666 344.04071,197.84 C344.195378,198.362003 344.553041,198.623 345.11371,198.623 C345.345711,198.623 345.539043,198.584334 345.69371,198.507 C344.978373,198.062331 344.59171,197.337338 344.53371,196.332 C344.185708,196.680002 344.01171,197.056998 344.01171,197.463 L344.01171,197.463 Z M356.645789,188.067 C356.317121,188.067 356.056123,187.951001 355.862789,187.719 C355.669455,187.486999 355.592122,187.206668 355.630789,186.878 C355.688789,186.549332 355.853121,186.269001 356.123789,186.037 C356.394457,185.804999 356.694121,185.689 357.022789,185.689 C357.351457,185.689 357.617288,185.804999 357.820289,186.037 C358.02329,186.269001 358.095789,186.549332 358.037789,186.878 C357.979789,187.206668 357.815457,187.486999 357.544789,187.719 C357.274121,187.951001 356.974457,188.067 356.645789,188.067 L356.645789,188.067 Z M354.702789,198.362 C355.070124,198.362 355.456787,198.178335 355.862789,197.811 C356.578126,197.095663 357.486783,195.636011 358.588789,193.432 C358.724123,193.141999 358.859455,193.054999 358.994789,193.171 C359.033456,193.209667 359.052789,193.2725 359.052789,193.3595 C359.052789,193.4465 358.975456,193.659165 358.820789,193.9975 C358.666122,194.335835 358.525956,194.640332 358.400289,194.911 C358.274622,195.181668 358.032957,195.621497 357.675289,196.2305 C357.317621,196.839503 356.99379,197.308332 356.703789,197.637 C355.911118,198.545671 355.161959,199 354.456289,199 C353.750619,199 353.243124,198.787335 352.933789,198.362 C352.624454,197.936665 352.469789,197.463003 352.469789,196.941 C352.469789,196.418997 352.595454,195.84867 352.846789,195.23 L354.702789,190.503 C354.741456,190.386999 354.760789,190.232334 354.760789,190.039 C354.760789,189.845666 354.64479,189.594335 354.412789,189.285 L356.007789,189.256 C356.452458,189.256 356.713455,189.338166 356.790789,189.5025 C356.868123,189.666834 356.810123,189.922998 356.616789,190.271 L354.296789,195.694 C353.968121,196.409337 353.803789,197.018331 353.803789,197.521 C353.803789,198.081669 354.103453,198.362 354.702789,198.362 L354.702789,198.362 Z M358.085868,208.164 C356.268525,208.164 355.359868,207.419674 355.359868,205.931 C355.359868,204.69366 356.200859,203.582005 357.882868,202.596 C359.313542,201.764663 361.140523,200.98167 363.363868,200.247 C364.38854,199.918332 365.132866,199.657334 365.596868,199.464 C366.099537,197.994659 366.350868,196.390009 366.350868,194.65 C366.350868,194.301998 366.331535,194.041001 366.292868,193.867 C365.751532,194.969006 365.007206,196.099994 364.059868,197.26 C362.938529,198.652007 361.826873,199.193335 360.724868,198.884 C359.71953,198.458665 359.216868,197.62734 359.216868,196.39 C359.216868,194.727325 360.048193,192.900343 361.710868,190.909 C362.619539,189.826328 363.682862,189.140001 364.900868,188.85 C365.229536,188.753333 365.5582,188.705 365.886868,188.705 C366.756872,188.705 367.60753,188.994997 368.438868,189.575 C368.748203,189.826335 368.902868,190.038999 368.902868,190.213 C368.902868,190.387001 368.844868,190.556166 368.728868,190.7205 C368.612867,190.884834 368.492035,190.904167 368.366368,190.7785 C368.240701,190.652833 368.158535,190.532001 368.119868,190.416 C367.868533,189.700663 367.462537,189.343 366.901868,189.343 C365.877196,189.343 364.726874,190.058326 363.450868,191.489 C362.735531,192.301004 362.11687,193.170995 361.594868,194.099 C360.956865,195.259006 360.637868,196.153164 360.637868,196.7815 C360.637868,197.409836 360.831199,197.830332 361.217868,198.043 C361.353202,198.101 361.488534,198.13 361.623868,198.13 C362.068537,198.13 362.624365,197.825503 363.291368,197.2165 C363.958371,196.607497 364.577032,195.834171 365.147368,194.8965 C365.717704,193.958829 366.0802,193.229003 366.234868,192.707 C366.389535,192.184997 366.578033,191.856334 366.800368,191.721 C367.022702,191.585666 367.2692,191.508333 367.539868,191.489 C367.810536,191.469667 367.994201,191.421334 368.090868,191.344 C368.245535,192.214004 368.322868,193.233827 368.322868,194.4035 C368.322868,195.573173 368.11987,196.902326 367.713868,198.391 C368.603206,197.752997 369.236366,197.182669 369.613368,196.68 C369.99037,196.177331 370.290033,195.723002 370.512368,195.317 C370.734702,194.910998 370.932867,194.509835 371.106868,194.1135 C371.280869,193.717165 371.396868,193.461001 371.454868,193.345 C371.512868,193.228999 371.609534,193.1565 371.744868,193.1275 C371.880202,193.0985 371.947868,193.161333 371.947868,193.316 C371.947868,193.412667 371.918868,193.528666 371.860868,193.664 C371.010197,195.423342 370.299704,196.694496 369.729368,197.4775 C369.159032,198.260504 368.380873,198.883998 367.394868,199.348 C366.930866,200.662673 366.259039,201.96766 365.379368,203.263 C364.499697,204.55834 363.392875,205.698995 362.058868,206.685 C360.724861,207.671005 359.400541,208.164 358.085868,208.164 L358.085868,208.164 Z M355.968868,206.482 C355.968868,207.21667 356.44253,207.584 357.389868,207.584 C357.950537,207.584 358.583698,207.419668 359.289368,207.091 C359.995038,206.762332 360.579866,206.424002 361.043868,206.076 C361.836539,205.437997 362.70653,204.490673 363.653868,203.234 C364.369205,202.228662 364.920199,201.252338 365.306868,200.305 L364.291868,200.653 C361.275853,201.697005 359.149207,202.624996 357.911868,203.437 C357.003197,204.036336 356.403869,204.799995 356.113868,205.728 C356.017201,206.018001 355.968868,206.269332 355.968868,206.482 L355.968868,206.482 Z M381.681947,189.488 C379.303935,193.664021 378.114947,196.389994 378.114947,197.666 C378.114947,198.168669 378.298612,198.42 378.665947,198.42 C379.651952,198.42 380.976272,196.747683 382.638947,193.403 C382.754947,193.132332 382.870946,193.026 382.986947,193.084 C383.102947,193.142 383.160947,193.219333 383.160947,193.316 C383.160947,193.412667 383.122281,193.528666 383.044947,193.664 C382.020275,195.732677 381.155117,197.158496 380.449447,197.9415 C379.743777,198.724504 379.038117,199.116 378.332447,199.116 C377.626777,199.116 377.090282,198.845336 376.722947,198.304 C376.529612,198.052665 376.432947,197.709502 376.432947,197.2745 C376.432947,196.839498 376.529612,196.31267 376.722947,195.694 C376.916281,195.07533 377.447942,194.070007 378.317947,192.678 C378.530615,192.329998 378.636947,192.054501 378.636947,191.8515 C378.636947,191.648499 378.472615,191.547 378.143947,191.547 C377.815278,191.547 377.186951,191.981996 376.258947,192.852 C374.86694,194.128006 373.523287,196.041987 372.227947,198.594 C372.111946,198.787334 371.981448,198.908166 371.836447,198.9565 C371.691446,199.004834 371.406282,199.038667 370.980947,199.058 C370.555611,199.077333 370.275281,199.125666 370.139947,199.203 C370.449282,198.58433 371.058276,197.31801 371.966947,195.404 C373.590955,192.02065 374.654278,190.087336 375.156947,189.604 C375.388948,189.371999 375.707945,189.256 376.113947,189.256 C376.191281,189.256 376.389445,189.285 376.708447,189.343 C377.027448,189.401 377.264279,189.410667 377.418947,189.372 C376.70361,189.758669 375.533955,191.575984 373.909947,194.824 C374.818618,193.702661 375.64511,192.808503 376.389447,192.1415 C377.133784,191.474497 378.027942,190.855836 379.071947,190.2855 C380.115952,189.715164 380.879611,189.43 381.362947,189.43 C381.478947,189.43 381.58528,189.449333 381.681947,189.488 L381.681947,189.488 Z"/>
  </g>
</svg>
