<svg xmlns="http://www.w3.org/2000/svg" width="200" height="458" viewBox="0 0 200 458" xmlns:xlink="http://www.w3.org/1999/xlink">
  <defs>
    <radialGradient id="a" cx="93.437%" cy="0%" r="104.053%" fx="93.437%" fy="0%">
      <stop stop-color="#9B9AA0" offset="0%"/>
      <stop stop-color="#6F6876" offset="27.906%"/>
      <stop stop-color="#2D1D37" offset="69.872%"/>
      <stop stop-color="#F57E76" offset="89.122%"/>
      <stop stop-color="#F79088" offset="95.093%"/>
      <stop stop-color="#FFFFFF" offset="100%"/>
    </radialGradient>
    <linearGradient id="c" x1="50%" x2="50%" y1="-2.487%" y2="94.436%">
      <stop stop-color="#8F0000" offset="0%"/>
      <stop stop-color="#690041" offset="30.226%"/>
      <stop stop-color="#513F5C" offset="85.947%"/>
      <stop stop-color="#F57E76" offset="94.173%"/>
      <stop stop-color="#F99F96" offset="100%"/>
    </linearGradient>
    <path id="b" d="M0.772727273,111.927209 C0.772727273,96.4578258 5.8079147,72.4410078 12.2274023,58.3608768 C12.2274023,58.3608768 25.0022159,27.1477114 37.4241886,12.0679846 C41.3754227,7.27136082 48.7727273,0.110183639 48.7727273,0.110183639 C48.7727273,0.110183639 56.4623149,7.5128789 60.5637212,12.6152502 C72.8518373,27.902331 85.3249795,58.369362 85.3249795,58.369362 C91.647396,72.4791607 96.7727273,96.4510703 96.7727273,111.927209 L96.7727273,341.074039 C96.7727273,341.074039 67.48352,344.110184 48.7727273,344.110184 C22.66883,344.110184 0.772727273,341.074039 0.772727273,341.074039 L0.772727273,111.927209 Z"/>
    <radialGradient id="h" cx="100%" cy="100%" r="93.796%" fx="100%" fy="100%">
      <stop stop-color="#14183A" offset="0%"/>
      <stop stop-color="#000107" offset="100%"/>
    </radialGradient>
    <path id="g" d="M24.7727273,372.110184 C21.4095681,372.110184 -19.3442117,365.397743 -19.3442117,365.397743 C-23.6979061,364.686643 -27.8378756,360.58441 -27.7876684,356.177033 C-27.7876684,356.177033 -30.3280615,355.743153 -23.2272727,340.110184 C-14.6675184,326.216562 0.155836201,321.991978 12.7727273,300.110184 C25.3210269,277.749086 36.7727256,268.110184 36.7727273,240.110184 C36.772729,212.110184 48.7727273,196.110184 48.7727273,196.110184 C48.7727273,196.110184 60.7727273,212.110184 60.7727256,240.110184 C60.7727239,268.110184 73.8919067,276.547188 88.7727273,300.110184 C100.360117,323.193876 116.098508,330.269482 120.772727,340.110184 C128.62596,351.690233 127.663073,356.211296 127.663073,356.211296 C128.275918,360.573731 125.223882,364.632 120.852203,365.273452 C120.852203,365.273452 74.4630832,372.110184 72.7727273,372.110184 L24.7727273,372.110184 Z"/>
    <filter id="d" width="200%" height="200%" x="-50%" y="-50%" filterUnits="objectBoundingBox">
      <feGaussianBlur stdDeviation="9.79717439e-16 16" in="SourceGraphic"/>
    </filter>
    <filter id="f" width="200%" height="200%" x="-50%" y="-50%" filterUnits="objectBoundingBox">
      <feOffset dy="8" in="SourceAlpha" result="shadowOffsetOuter1"/>
      <feColorMatrix values="0 0 0 0 0 0 0 0 0 0 0 0 0 0 0 0 0 0 0.5 0" in="shadowOffsetOuter1"/>
    </filter>
    <linearGradient id="i" x1="23.938%" x2="23.938%" y1="44.038%" y2="132.749%">
      <stop stop-color="#0E0807" offset="0%"/>
      <stop stop-color="#967271" stop-opacity=".911" offset="100%"/>
    </linearGradient>
    <path id="j" d="M67.7727273,202.110184 C60.8388598,199.184636 55.7727273,198.110184 55.7727273,198.110184 L59.7727273,162.110184 C59.7727273,162.110184 65.6867898,162.110184 71.7727273,162.110184 L67.7727273,202.110184 Z"/>
    <filter id="k" width="200%" height="200%" x="-50%" y="-50%" filterUnits="objectBoundingBox">
      <feGaussianBlur stdDeviation="2" in="SourceAlpha" result="shadowBlurInner1"/>
      <feOffset dy="-4" in="shadowBlurInner1" result="shadowOffsetInner1"/>
      <feComposite in="shadowOffsetInner1" in2="SourceAlpha" operator="arithmetic" k2="-1" k3="1" result="shadowInnerInner1"/>
      <feColorMatrix values="0 0 0 0 1 0 0 0 0 1 0 0 0 0 1 0 0 0 1 0" in="shadowInnerInner1" result="shadowMatrixInner1"/>
      <feGaussianBlur stdDeviation="6" in="SourceAlpha" result="shadowBlurInner2"/>
      <feOffset dy="-2" in="shadowBlurInner2" result="shadowOffsetInner2"/>
      <feComposite in="shadowOffsetInner2" in2="SourceAlpha" operator="arithmetic" k2="-1" k3="1" result="shadowInnerInner2"/>
      <feColorMatrix values="0 0 0 0 0.346965349 0 0 0 0 0 0 0 0 0 0 0 0 0 1 0" in="shadowInnerInner2" result="shadowMatrixInner2"/>
      <feMerge>
        <feMergeNode in="shadowMatrixInner1"/>
        <feMergeNode in="shadowMatrixInner2"/>
      </feMerge>
    </filter>
    <path id="l" d="M99.7727273,202.110184 C106.706595,199.184636 111.772727,198.110184 111.772727,198.110184 L107.772727,162.110184 C107.772727,162.110184 101.858665,162.110184 95.7727273,162.110184 L99.7727273,202.110184 Z"/>
    <filter id="m" width="200%" height="200%" x="-50%" y="-50%" filterUnits="objectBoundingBox">
      <feGaussianBlur stdDeviation="2" in="SourceAlpha" result="shadowBlurInner1"/>
      <feOffset dy="-4" in="shadowBlurInner1" result="shadowOffsetInner1"/>
      <feComposite in="shadowOffsetInner1" in2="SourceAlpha" operator="arithmetic" k2="-1" k3="1" result="shadowInnerInner1"/>
      <feColorMatrix values="0 0 0 0 1 0 0 0 0 1 0 0 0 0 1 0 0 0 1 0" in="shadowInnerInner1" result="shadowMatrixInner1"/>
      <feGaussianBlur stdDeviation="6" in="SourceAlpha" result="shadowBlurInner2"/>
      <feOffset dy="-2" in="shadowBlurInner2" result="shadowOffsetInner2"/>
      <feComposite in="shadowOffsetInner2" in2="SourceAlpha" operator="arithmetic" k2="-1" k3="1" result="shadowInnerInner2"/>
      <feColorMatrix values="0 0 0 0 0.346965349 0 0 0 0 0 0 0 0 0 0 0 0 0 1 0" in="shadowInnerInner2" result="shadowMatrixInner2"/>
      <feMerge>
        <feMergeNode in="shadowMatrixInner1"/>
        <feMergeNode in="shadowMatrixInner2"/>
      </feMerge>
    </filter>
    <path id="n" d="M99.7727273,214.110184 C99.7727273,214.110184 91.7727273,218.110184 83.7727273,218.110184 C75.7727273,218.110184 67.7727273,214.110184 67.7727273,214.110184 L71.7727273,178.110184 L95.7727273,178.110184 L99.7727273,214.110184 Z"/>
    <filter id="o" width="200%" height="200%" x="-50%" y="-50%" filterUnits="objectBoundingBox">
      <feGaussianBlur stdDeviation="2" in="SourceAlpha" result="shadowBlurInner1"/>
      <feOffset dy="-4" in="shadowBlurInner1" result="shadowOffsetInner1"/>
      <feComposite in="shadowOffsetInner1" in2="SourceAlpha" operator="arithmetic" k2="-1" k3="1" result="shadowInnerInner1"/>
      <feColorMatrix values="0 0 0 0 1 0 0 0 0 1 0 0 0 0 1 0 0 0 1 0" in="shadowInnerInner1" result="shadowMatrixInner1"/>
      <feGaussianBlur stdDeviation="6" in="SourceAlpha" result="shadowBlurInner2"/>
      <feOffset dy="-2" in="shadowBlurInner2" result="shadowOffsetInner2"/>
      <feComposite in="shadowOffsetInner2" in2="SourceAlpha" operator="arithmetic" k2="-1" k3="1" result="shadowInnerInner2"/>
      <feColorMatrix values="0 0 0 0 0.346965349 0 0 0 0 0 0 0 0 0 0 0 0 0 1 0" in="shadowInnerInner2" result="shadowMatrixInner2"/>
      <feMerge>
        <feMergeNode in="shadowMatrixInner1"/>
        <feMergeNode in="shadowMatrixInner2"/>
      </feMerge>
    </filter>
    <linearGradient id="r" x1="25.42%" x2="26.53%" y1="96.917%" y2="58.448%">
      <stop stop-color="#FFF9B2" offset="0%"/>
      <stop stop-color="#EFB3AB" offset="19.615%"/>
      <stop stop-color="#797E98" offset="100%"/>
    </linearGradient>
    <path id="q" d="M83.772727,2.11018364 C99.772727,2.11018364 103.772729,34.4873697 103.772729,54.1101841 C103.772729,90.1101841 115.772727,106.110184 135.772727,118.110184 C155.772727,130.110184 167.772727,146.110186 167.772727,158.110184 C167.772727,170.110182 167.772728,166.355972 167.772728,166.355972 C167.772732,170.772135 164.231167,174.942579 159.880664,175.667548 C159.880664,175.667548 110.835317,183.848257 110.438485,183.848257 C110.438485,183.848257 67.772727,2.11018364 83.772727,2.11018364 Z"/>
    <filter id="p" width="200%" height="200%" x="-50%" y="-50%" filterUnits="objectBoundingBox">
      <feOffset dy="8" in="SourceAlpha" result="shadowOffsetOuter1"/>
      <feGaussianBlur stdDeviation="8" in="shadowOffsetOuter1" result="shadowBlurOuter1"/>
      <feColorMatrix values="0 0 0 0 0 0 0 0 0 0.0392156863 0 0 0 0 0.219607843 0 0 0 1 0" in="shadowBlurOuter1"/>
    </filter>
    <filter id="s" width="200%" height="200%" x="-50%" y="-50%" filterUnits="objectBoundingBox">
      <feOffset dy="4" in="SourceAlpha" result="shadowOffsetInner1"/>
      <feComposite in="shadowOffsetInner1" in2="SourceAlpha" operator="arithmetic" k2="-1" k3="1" result="shadowInnerInner1"/>
      <feColorMatrix values="0 0 0 0 0 0 0 0 0 0.0352941176 0 0 0 0 0.215686275 0 0 0 1 0" in="shadowInnerInner1"/>
    </filter>
    <radialGradient id="t" cx="44.74%" cy="-75.74%" r="183.341%" fx="44.74%" fy="-75.74%">
      <stop stop-color="#9B9AA0" offset="0%"/>
      <stop stop-color="#6F6876" offset="27.906%"/>
      <stop stop-color="#2D1D37" offset="69.872%"/>
      <stop stop-color="#F57E76" offset="94.173%"/>
      <stop stop-color="#F99F96" offset="100%"/>
    </radialGradient>
    <path id="v" d="M3.77272705,2.11018364 C19.772727,2.11018364 23.7727294,34.4873697 23.7727294,54.1101841 C23.7727294,90.1101841 35.772727,106.110184 55.772727,118.110184 C75.772727,130.110184 87.7727267,146.110186 87.772727,158.110184 C87.7727274,170.110182 87.7727285,166.355972 87.7727285,166.355972 C87.7727315,170.772135 84.2311665,174.942579 79.8806641,175.667548 C79.8806641,175.667548 30.8353175,183.848257 30.4384848,183.848257 C30.4384848,183.848257 -12.227273,2.11018364 3.77272705,2.11018364 Z"/>
    <filter id="u" width="200%" height="200%" x="-50%" y="-50%" filterUnits="objectBoundingBox">
      <feOffset dy="8" in="SourceAlpha" result="shadowOffsetOuter1"/>
      <feGaussianBlur stdDeviation="8" in="shadowOffsetOuter1" result="shadowBlurOuter1"/>
      <feColorMatrix values="0 0 0 0 0 0 0 0 0 0.0392156863 0 0 0 0 0.219607843 0 0 0 1 0" in="shadowBlurOuter1"/>
    </filter>
    <filter id="w" width="200%" height="200%" x="-50%" y="-50%" filterUnits="objectBoundingBox">
      <feOffset dy="4" in="SourceAlpha" result="shadowOffsetInner1"/>
      <feComposite in="shadowOffsetInner1" in2="SourceAlpha" operator="arithmetic" k2="-1" k3="1" result="shadowInnerInner1"/>
      <feColorMatrix values="0 0 0 0 0 0 0 0 0 0.0352941176 0 0 0 0 0.215686275 0 0 0 1 0" in="shadowInnerInner1"/>
    </filter>
    <radialGradient id="x" cy="19.32%" fx="50%" fy="19.32%">
      <stop stop-color="#07091B" offset="0%"/>
      <stop stop-color="#F8938B" offset="72.778%"/>
      <stop stop-color="#FAE2AF" offset="100%"/>
    </radialGradient>
    <filter id="y" width="200%" height="200%" x="-50%" y="-50%" filterUnits="objectBoundingBox">
      <feGaussianBlur stdDeviation="7.34788079e-16 12" in="SourceGraphic"/>
    </filter>
    <filter id="z" width="200%" height="200%" x="-50%" y="-50%" filterUnits="objectBoundingBox">
      <feGaussianBlur stdDeviation="7.34788079e-16 12" in="SourceGraphic"/>
    </filter>
    <filter id="A" width="200%" height="200%" x="-50%" y="-50%" filterUnits="objectBoundingBox">
      <feGaussianBlur stdDeviation="2.4492936e-16 4" in="SourceGraphic"/>
    </filter>
    <filter id="B" width="200%" height="200%" x="-50%" y="-50%" filterUnits="objectBoundingBox">
      <feGaussianBlur stdDeviation="2.4492936e-16 4" in="SourceGraphic"/>
    </filter>
    <filter id="C" width="200%" height="200%" x="-50%" y="-50%" filterUnits="objectBoundingBox">
      <feGaussianBlur stdDeviation="2.4492936e-16 4" in="SourceGraphic"/>
    </filter>
  </defs>
  <g fill="none" fill-rule="evenodd" transform="translate(14.227 -.11)">
    <g transform="translate(124 142)">
      <path fill="url(#a)" d="M27.7727273,2.11018364 L43.7727273,42.1101836 L43.7727273,226.110184 L47.7727273,246.110184 C47.7727273,246.110184 36.7727273,250.110184 27.7727273,250.110184 C14.7727273,250.110184 3.77272727,246.110184 3.77272727,246.110184 L11.7727273,226.110184 L11.7727273,42.1101836 L27.7727273,2.11018364 Z"/>
      <path stroke="#242424" stroke-width="4" d="M13.7727273,72.1101836 L41.7727273,72.1101836" stroke-linecap="square" opacity=".6" style="mix-blend-mode:overlay"/>
      <path stroke="#242424" stroke-width="2.4" d="M13.7727273 129.2L41.7727273 129.2M13.7727273 213.2L41.7727273 213.2" stroke-linecap="square" opacity=".6" style="mix-blend-mode:overlay"/>
      <path stroke="#242424" stroke-width="1.6" d="M13.7727273,48.8 L41.7727273,48.8" stroke-linecap="square" opacity=".6" style="mix-blend-mode:overlay"/>
    </g>
    <g transform="matrix(-1 0 0 1 45 144)">
      <path fill="url(#a)" d="M24.7727273,0.110183639 L40.7727273,40.1101836 L40.7727273,224.110184 L44.7727273,244.110184 C44.7727273,244.110184 33.7727273,248.110184 24.7727273,248.110184 C11.7727273,248.110184 0.772727273,244.110184 0.772727273,244.110184 L8.77272727,224.110184 L8.77272727,40.1101836 L24.7727273,0.110183639 Z"/>
      <path stroke="#242424" stroke-width="4" d="M10.7727273,70.1101836 L38.7727273,70.1101836" stroke-linecap="square" opacity=".6" style="mix-blend-mode:overlay"/>
      <path stroke="#242424" stroke-width="2.4" d="M10.7727273 127.2L38.7727273 127.2M10.7727273 211.2L38.7727273 211.2" stroke-linecap="square" opacity=".6" style="mix-blend-mode:overlay"/>
      <path stroke="#242424" stroke-width="1.6" d="M10.7727273,46.8 L38.7727273,46.8" stroke-linecap="square" opacity=".6" style="mix-blend-mode:overlay"/>
    </g>
    <g transform="translate(37)">
      <mask id="e" fill="white">
        <use xlink:href="#b"/>
      </mask>
      <use fill="url(#c)" xlink:href="#b"/>
      <use fill="#012553" fill-opacity=".6" style="mix-blend-mode:darken" xlink:href="#b"/>
      <g opacity=".7" style="mix-blend-mode:overlay" filter="url(#d)" mask="url(#e)">
        <use fill="black" filter="url(#f)" xlink:href="#g"/>
        <use fill="url(#h)" xlink:href="#g"/>
      </g>
    </g>
    <g transform="translate(2 158)">
      <use fill="url(#i)" xlink:href="#j"/>
      <use fill="black" filter="url(#k)" xlink:href="#j"/>
      <use fill="url(#i)" xlink:href="#l"/>
      <use fill="black" filter="url(#m)" xlink:href="#l"/>
      <use fill="url(#i)" xlink:href="#n"/>
      <use fill="black" filter="url(#o)" xlink:href="#n"/>
      <use fill="black" filter="url(#p)" xlink:href="#q"/>
      <use fill="url(#r)" xlink:href="#q"/>
      <use fill="black" filter="url(#s)" xlink:href="#q"/>
      <path fill="url(#t)" d="M143.800222,169.292911 C150.412454,169.744279 155.772728,175.478673 155.772728,182.107286 L155.772728,187.19718 C155.772727,191.620858 152.189296,195.206958 147.771986,195.206958 L127.773469,195.206958 C123.354781,195.206958 120.291557,191.668389 120.932379,187.297795 L123.191093,171.892703 C123.512321,169.701835 125.561755,168.04791 127.760848,168.198025 L143.800222,169.292911 Z"/>
      <g transform="matrix(-1 0 0 1 87.955 0)">
        <use fill="black" filter="url(#u)" xlink:href="#v"/>
        <use fill="url(#r)" xlink:href="#v"/>
        <use fill="black" filter="url(#w)" xlink:href="#v"/>
      </g>
      <path fill="url(#x)" d="M111.229891,168.339134 L103.772726,34.1101836 C103.772726,34.1101836 95.534884,6.11018364 83.7727274,6.11018364 C73.0996233,6.11018364 63.7727274,34.1101836 63.7727274,34.1101836 L51.7727274,178.110184 L60.8377855,178.110184 C61.9609388,182.679599 63.7727273,186.110184 63.7727273,186.110184 L107.772727,186.110184 C107.772727,186.110184 109.54648,182.679599 110.640289,178.110184 L111.772727,178.110184 L111.460153,172.483845 C111.517425,171.106237 111.456737,169.709661 111.229891,168.339136 Z"/>
      <path fill="#030303" d="M77.1034419,177.686891 C75.698825,177.686891 84.6506313,78.9435174 84.6506313,78.9435174 C84.6506313,78.9435174 92.5678605,177.686891 92.4577684,177.686891 L77.1034419,177.686891 Z" filter="url(#y)"/>
      <path fill="#191632" d="M71.7727275,42.1101836 C71.7727275,42.1101836 71.8727679,30.1101836 83.8227477,30.1101836 C95.7727275,30.1101836 95.7727275,42.1101836 95.7727275,42.1101836 L83.8227477,166.110184 L71.7727275,42.1101836 Z" opacity=".4" filter="url(#z)"/>
      <path fill="url(#t)" d="M39.8002216,169.292911 C46.4124543,169.744279 51.7727279,175.478673 51.7727277,182.107286 L51.7727275,187.19718 C51.7727274,191.620858 48.189296,195.206958 43.771986,195.206958 L23.7734685,195.206958 C19.3547811,195.206958 16.2915567,191.668389 16.9323787,187.297795 L19.191093,171.892703 C19.5123208,169.701835 21.5617549,168.04791 23.760848,168.198025 L39.8002216,169.292911 Z" transform="matrix(-1 0 0 1 68.62 0)"/>
      <path fill="#000000" d="M83.7727273,194.110184 C71.8736026,194.110184 59.7727273,190.110184 59.7727273,190.110184 C59.7727273,190.110184 48.357632,163.970112 63.7727273,154.110184 C63.8984723,154.193952 103.772727,154.110184 103.772727,154.110184 C118.91616,163.936683 107.772727,190.110184 107.772727,190.110184 C107.772727,190.110184 96.1099231,194.110184 83.7727273,194.110184 Z M103.772727,182.110184 C109.643314,178.096377 108.341127,158.344425 103.772727,154.110184 L63.7727273,154.110184 C57.4128954,158.323996 59.4615089,178.110183 63.7727273,182.110184 C68.3792987,186.110183 75.7727273,186.110184 75.7727273,186.110184 L83.7727273,158.110184 L91.7727273,186.110184 C91.7727273,186.110184 98.4576017,186.123989 103.772727,182.110184 Z"/>
      <path fill="#E3F0D7" d="M71.7727273,26.1101836 L83.7727273,22.1101836 L83.7727273,26.1101836 L71.7727273,30.1101836 L71.7727273,26.1101836 Z M83.7727273,22.1101836 L95.7727273,26.1101836 L95.7727273,30.1101836 L83.7727273,26.1101836 L83.7727273,22.1101836 Z M71.7727273,30.1101836 L67.7727273,38.1101836 L67.7727273,34.1101836 L71.7727273,26.1101836 L71.7727273,30.1101836 Z M95.7727273,30.1101836 L99.7727273,38.1101836 L99.7727273,34.1101836 L95.7727273,26.1101836 L95.7727273,30.1101836 Z"/>
      <path fill="#000000" d="M70.9727273,8.88805831 C74.1727272,1.99920737 76.4985917,2.67128295 77.3727273,1.99920829 C78.7148758,0.967304247 89.3106061,1.20399706 90.1727273,1.99920831 C92.3010002,3.9623043 93.5703849,2.42471571 96.5727286,8.88805831 C99.5750724,15.3514009 99.7727272,26.1101844 99.7727272,26.1101844 C99.7727272,26.1101844 96.2261277,12.4120576 93.3727273,12.3324835 C90.1577533,12.3324835 86.9427793,12.3324841 83.7727272,12.3324841 C80.5427793,12.3324841 74.1727273,12.3324835 74.1727273,12.3324835 L67.7727272,26.1101844 C67.7727272,26.1101844 68.9988031,15.0569809 70.9727273,8.88805831 Z"/>
      <path fill="#FFFFFF" d="M79.9934823,196.123388 C79.8715627,197.220665 80.2085233,198.89092 80.8103862,199.818146 C80.8103862,199.818146 81.7727274,202.110184 83.7727274,202.110184 C85.7727273,202.110184 86.7350685,199.818146 86.7350685,199.818146 C87.3081516,198.874865 87.6738503,197.220291 87.5519722,196.123388 L83.7727273,162.110184 L79.9934823,196.123388 Z"/>
    </g>
    <g transform="translate(2 306)" opacity=".1">
      <path fill="#000000" d="M168.970906,38.1101833 L112.834591,27.5846246 C108.491598,26.7703134 106.576829,22.8983402 108.546928,18.9581416 L116.970907,2.11018379 L111.938443,14.6913435 C110.299518,18.7886559 112.479963,22.8058734 116.815692,23.6654556 L166.80424,33.57596 L168.970906,38.1101833 Z" transform="matrix(-1 0 0 1 276.744 0)"/>
      <path stroke="#000000" stroke-width="2" d="M111.772727 18.1101836L161.772727 8.11018364M155.772727 26.1101836L151.772727 10.1101836M135.772727 30.1101836L131.772727 14.1101836" stroke-linecap="square"/>
      <path fill="#000000" d="M62.5745487,38.1101836 L7.67930286,27.6117806 C3.34291802,26.7824717 1.40206355,22.8983403 3.34951791,18.9256516 L11.5926397,2.11018364 L6.6698508,14.662922 C5.05685806,18.7759312 7.2533827,22.8187668 11.5886407,23.6954192 L60.450303,33.5759602 L62.5745487,38.1101836 Z"/>
      <path stroke="#000000" stroke-width="2" d="M10.2272727,18.1101836 L60.2272727,8.11018364" stroke-linecap="square" transform="matrix(-1 0 0 1 70.455 0)"/>
      <path stroke="#000000" stroke-width="2" d="M20.2272727,26.1101836 L16.2272727,10.1101836" stroke-linecap="square" transform="matrix(-1 0 0 1 36.455 0)"/>
      <path stroke="#000000" stroke-width="2" d="M40.2272727,30.1101836 L36.2272727,14.1101836" stroke-linecap="square" transform="matrix(-1 0 0 1 76.455 0)"/>
    </g>
    <g fill="#FFFFFF" transform="translate(61 392)">
      <path d="M9.05000214,16.6664641 C3.77272727,26.4740273 3.77272727,36.2815906 3.77272727,36.2815906 C3.77272727,36.2815906 7.00177857,45.4547329 9.05000214,46.0891538 C12.2790534,47.0893268 19.6045519,41.1853722 19.6045519,41.1853722 C19.6045519,41.1853722 21.1679526,31.6783727 19.6045519,21.5702455 C18.8060482,16.4075404 14.327277,10.1746047 14.327277,6.8589009 C14.327277,-2.94866235 14.327277,6.85890084 9.05000214,16.6664641 Z" filter="url(#A)"/>
      <path d="M37.2648278,20.8703261 C31.987553,30.6778893 31.987553,40.4854525 31.987553,40.4854525 C31.987553,40.4854525 35.2166043,49.6585948 37.2648278,50.2930158 C40.4938791,51.2931887 47.8193776,45.3892342 47.8193776,45.3892342 C47.8193776,45.3892342 49.3827783,35.8822347 47.8193776,25.7741075 C47.0208739,20.6114023 42.5421027,14.3784667 42.5421027,11.0627629 C42.5421027,1.25519962 42.5421027,11.0627628 37.2648278,20.8703261 Z" filter="url(#B)" transform="scale(-1 1) rotate(3 0 -1508.416)"/>
      <path d="M22.327277,24.6664641 C15.7727273,34.4740273 15.7727273,44.2815906 15.7727273,44.2815906 C15.7727273,44.2815906 19.7833157,53.4547329 22.327277,54.0891538 C26.3378654,55.0893268 35.4363765,49.1853722 35.4363765,49.1853722 C35.4363765,49.1853722 37.3781718,39.6783727 35.4363765,29.5702455 C34.4446085,24.4075404 28.8818268,18.1746047 28.8818268,14.8589009 C28.8818268,5.05133765 28.8818268,14.8589008 22.327277,24.6664641 Z" filter="url(#C)"/>
    </g>
  </g>
</svg>
