<svg xmlns="http://www.w3.org/2000/svg" width="912" height="124" viewBox="0 0 912 124" xmlns:xlink="http://www.w3.org/1999/xlink">
  <defs>
    <radialGradient id="a" cx="74.269%" cy="64.499%" r="161.336%" fx="74.269%" fy="64.499%">
      <stop stop-color="#FFFFFF" offset="0%"/>
      <stop stop-color="#F57E76" offset="83.343%"/>
      <stop stop-color="#F99F96" offset="100%"/>
    </radialGradient>
    <linearGradient id="b" x1="50%" x2="50%" y1="175.199%" y2="0%">
      <stop stop-color="#002250" offset="0%"/>
      <stop stop-color="#DC8380" offset="57.386%"/>
      <stop stop-color="#F6EF86" offset="100%"/>
    </linearGradient>
    <path id="c" d="M497.275955,88.9381977 C497.275955,71.8202886 511.363332,57.8371317 528.74318,57.8371317 C539.810266,57.8371317 549.542805,63.410505 555.148782,71.9327073 C550.192518,76.0273423 546.276675,81.3629068 543.963167,87.6151161 C559.279733,63.7737038 592.068336,64.1887883 606.871277,88.3069235 C609.328989,88.2250926 603.811966,96.3970354 611.610761,100.73159 C621.531165,106.245331 644.857591,108.222329 644.857591,108.222329 C644.857591,108.222329 624.053576,109.822133 505.296409,109.822133 C500.309416,105.498337 497.275955,96.8766875 497.275955,88.9381977 Z"/>
    <filter id="d" width="200%" height="200%" x="-50%" y="-50%" filterUnits="objectBoundingBox">
      <feOffset dy="4" in="SourceAlpha" result="shadowOffsetInner1"/>
      <feComposite in="shadowOffsetInner1" in2="SourceAlpha" operator="arithmetic" k2="-1" k3="1" result="shadowInnerInner1"/>
      <feColorMatrix values="0 0 0 0 0.966728011 0 0 0 0 1 0 0 0 0 0.779573074 0 0 0 1 0" in="shadowInnerInner1"/>
    </filter>
    <radialGradient id="e" cx="28.064%" cy="7.409%" r="114.808%" fx="28.064%" fy="7.409%">
      <stop stop-color="#002250" offset="0%"/>
      <stop stop-color="#DC8380" offset="76.808%"/>
      <stop stop-color="#F6EF86" offset="100%"/>
    </radialGradient>
    <path id="f" d="M0.275954545,80.8981309 C0.275954545,63.7802218 15.1558967,49.7970649 33.5135442,49.7970649 C45.2032713,49.7970649 55.4833685,55.3704382 61.4047415,63.8926405 C56.1696357,67.9872755 52.0334847,73.32284 49.5898171,79.5750493 C65.7681026,55.7336371 100.401411,56.1487215 116.037175,80.2668567 C118.633159,80.1850258 112.805745,88.3569686 121.043305,92.6915232 C131.521836,98.2052638 156.160621,100.182262 156.160621,100.182262 C156.160621,100.182262 134.18616,101.782067 8.74764489,101.782067 C3.48008045,97.4582704 0.275954545,88.8366207 0.275954545,80.8981309 Z"/>
    <filter id="g" width="200%" height="200%" x="-50%" y="-50%" filterUnits="objectBoundingBox">
      <feOffset dy="4" in="SourceAlpha" result="shadowOffsetInner1"/>
      <feComposite in="shadowOffsetInner1" in2="SourceAlpha" operator="arithmetic" k2="-1" k3="1" result="shadowInnerInner1"/>
      <feColorMatrix values="0 0 0 0 0.966728011 0 0 0 0 1 0 0 0 0 0.779573074 0 0 0 1 0" in="shadowInnerInner1"/>
    </filter>
    <linearGradient id="h" x1="50%" x2="50%" y1="100%" y2="0%">
      <stop stop-color="#002250" offset="0%"/>
      <stop stop-color="#DC8380" offset="73.336%"/>
      <stop stop-color="#F6EF86" offset="100%"/>
    </linearGradient>
    <path id="i" d="M633.275955,74.7589579 C633.275955,61.5924752 643.54514,50.8371317 656.214415,50.8371317 C664.281918,50.8371317 671.376584,55.1239708 675.463137,61.6789436 C671.850202,64.8283903 668.995695,68.9323154 667.309231,73.7412909 C678.47445,55.4033304 702.376147,55.7225985 713.166952,74.2734044 C714.958534,74.210463 710.936826,80.4960288 716.621863,83.8300129 C723.853476,88.0709847 740.857591,89.5916209 740.857591,89.5916209 C740.857591,89.5916209 725.692222,90.8221333 639.122574,90.8221333 C635.487238,87.4964241 633.275955,80.86496 633.275955,74.7589579 Z"/>
    <filter id="j" width="200%" height="200%" x="-50%" y="-50%" filterUnits="objectBoundingBox">
      <feOffset dy="4" in="SourceAlpha" result="shadowOffsetInner1"/>
      <feComposite in="shadowOffsetInner1" in2="SourceAlpha" operator="arithmetic" k2="-1" k3="1" result="shadowInnerInner1"/>
      <feColorMatrix values="0 0 0 0 0.966728011 0 0 0 0 1 0 0 0 0 0.779573074 0 0 0 1 0" in="shadowInnerInner1"/>
    </filter>
    <radialGradient id="k" cx="51.076%" cy="83.25%" r="100%" fx="51.076%" fy="83.25%">
      <stop stop-color="#021E49" offset="0%"/>
      <stop stop-color="#01204E" offset="100%"/>
    </radialGradient>
    <path id="l" d="M617.362548,48.6533498 C613.406268,18.4174427 660.091747,6.77249058 673.992188,34.4975325 C677.80015,42.0984087 677.341401,50.4286463 673.533439,57.3560272 C675.965154,54.4665148 677.772556,51.3504349 678.862517,47.8929518 C679.64316,48.5439254 675.644795,57.4389961 683.782651,62.3701876 C692.662242,67.7508387 659.772722,75.8316973 659.772722,75.8316973 L664.557738,68.5704821 C664.557738,68.5704821 642.588569,72.5638043 579.387653,71.8316959 C516.186737,71.0995875 565.199675,68.5704835 565.199675,68.5704835 C566.448259,57.7676949 573.546229,41.4414968 583.103342,36.8983515 C592.766688,32.3047062 604.94415,31.5923374 616.131169,36.1393714 C615.503407,40.2734535 615.889722,44.488231 617.362548,48.6533498 Z"/>
    <filter id="m" width="200%" height="200%" x="-50%" y="-50%" filterUnits="objectBoundingBox">
      <feOffset dy="4" in="SourceAlpha" result="shadowOffsetInner1"/>
      <feComposite in="shadowOffsetInner1" in2="SourceAlpha" operator="arithmetic" k2="-1" k3="1" result="shadowInnerInner1"/>
      <feColorMatrix values="0 0 0 0 0.966728011 0 0 0 0 1 0 0 0 0 0.779573074 0 0 0 1 0" in="shadowInnerInner1"/>
    </filter>
    <linearGradient id="n" x1="46.322%" x2="46.322%" y1="-44.048%" y2="79.898%">
      <stop stop-color="#002250" offset="0%"/>
      <stop stop-color="#DC8380" offset="61.563%"/>
      <stop stop-color="#F6EF86" offset="100%"/>
    </linearGradient>
    <linearGradient id="o" x1="56.916%" x2="110.953%" y1="64.71%" y2="56.74%">
      <stop stop-color="#FFDEAE" offset="0%"/>
      <stop stop-color="#F47F76" offset="100%"/>
    </linearGradient>
    <radialGradient id="p" cx="33.756%" cy="37.931%" r="270.86%" fx="33.756%" fy="37.931%">
      <stop stop-color="#FF5757" offset="0%"/>
      <stop stop-color="#504966" offset="55.752%"/>
      <stop stop-color="#F6EF86" offset="100%"/>
    </radialGradient>
    <path id="q" d="M337.542498,68.2909227 C345.436606,64.4330744 344.63498,57.078774 344.63498,53.4679826 C344.63498,37.7993126 357.45807,25 373.278142,25 C383.352,25 392.211081,30.1015195 397.313943,37.9022137 C392.802485,41.6501881 389.238074,46.5340321 387.132194,52.2569159 C401.074158,30.4339691 430.920109,30.8139116 444.394543,52.8901534 C449.477425,52.7199708 460.466741,52.6302311 458.451589,60.3042783 C463.946057,52.6302316 474.572801,44.2449667 482.633407,46.518443 C490.694013,48.7919193 496.739468,58.3076172 492.997968,66.9237696 C493.79972,67.0713575 592.077856,72.5838391 592.077856,72.5838391 C592.077856,72.5838391 553.742436,80.5704835 535.027348,80.5704835 C452.383151,80.5704835 379.86068,80.570483 288,72.5838391 C312.711753,72.5838386 329.550409,72.1966547 337.542498,68.2909227 Z"/>
    <filter id="r" width="200%" height="200%" x="-50%" y="-50%" filterUnits="objectBoundingBox">
      <feOffset dy="4" in="SourceAlpha" result="shadowOffsetInner1"/>
      <feComposite in="shadowOffsetInner1" in2="SourceAlpha" operator="arithmetic" k2="-1" k3="1" result="shadowInnerInner1"/>
      <feColorMatrix values="0 0 0 0 0.966728011 0 0 0 0 1 0 0 0 0 0.779573074 0 0 0 1 0" in="shadowInnerInner1"/>
    </filter>
    <path id="s" d="M456.091364,69.0658325 C450.596976,55.4557545 438.228699,47.733687 425.647826,48.7273548 C425.676172,48.5265071 425.690345,48.3256593 425.718691,48.1248116 C425.619481,48.3362302 425.510821,48.5423635 425.41161,48.7484967 C421.939233,49.0550538 418.447958,50.0222943 415.088965,51.7189292 C410.586685,53.9916801 406.826124,57.3268099 403.897044,61.3173376 C406.627702,58.4631854 409.887485,56.0635833 413.605527,54.3088082 C429.469804,46.7928738 447.998598,53.526559 456.181126,69.3248204 C456.15278,69.2349675 456.11971,69.1556855 456.091364,69.0658325 L456.091364,69.0658325 Z"/>
    <filter id="t" width="200%" height="200%" x="-50%" y="-50%" filterUnits="objectBoundingBox">
      <feOffset dy="4" in="SourceAlpha" result="shadowOffsetInner1"/>
      <feComposite in="shadowOffsetInner1" in2="SourceAlpha" operator="arithmetic" k2="-1" k3="1" result="shadowInnerInner1"/>
      <feColorMatrix values="0 0 0 0 0.966728011 0 0 0 0 1 0 0 0 0 0.779573074 0 0 0 1 0" in="shadowInnerInner1"/>
    </filter>
    <path id="u" d="M643.58478,60.1661739 C647.00751,34.4802469 606.618094,24.5876583 594.592283,48.1405618 C591.297868,54.5976379 591.694749,61.6743191 594.989165,67.5592492 C592.885394,65.1045583 591.32174,62.4573944 590.378774,59.5202026 C588.966487,60.6766345 591.479706,65.3847428 584.459926,67.4050346 C574.674653,70.2212347 542.694021,76.2909227 542.694021,76.2909227 C542.694021,76.2909227 589.61599,80.8713786 644.030731,80.2910699 C644.237078,80.2888693 647.481892,67.4050329 671.663712,49.5353315 C663.303577,45.6329503 654.328417,45.6725482 644.650093,49.5353324 C645.193194,53.0473068 644.858978,56.6278333 643.58478,60.1661739 Z"/>
    <filter id="v" width="200%" height="200%" x="-50%" y="-50%" filterUnits="objectBoundingBox">
      <feOffset dy="4" in="SourceAlpha" result="shadowOffsetInner1"/>
      <feComposite in="shadowOffsetInner1" in2="SourceAlpha" operator="arithmetic" k2="-1" k3="1" result="shadowInnerInner1"/>
      <feColorMatrix values="0 0 0 0 0.966728011 0 0 0 0 1 0 0 0 0 0.779573074 0 0 0 1 0" in="shadowInnerInner1"/>
    </filter>
    <path id="w" d="M793.119272,82.9450055 C795.747548,65.9777983 764.732978,59.4431071 755.498496,75.0013151 C752.968752,79.2666292 753.273513,83.9412324 755.803257,87.8286073 C754.187795,86.2071261 752.987083,84.4585041 752.26299,82.5182999 C751.178511,83.2821975 753.108384,86.392206 747.717975,87.7267387 C740.203976,89.58702 715.646415,93.5964394 715.646415,93.5964394 C715.646415,93.5964394 751.677257,96.6221252 793.461713,96.238794 C793.620165,96.2373404 796.11182,87.7267375 814.680763,75.9226502 C808.261111,73.3448764 801.369188,73.3710333 793.937314,75.9226508 C794.354355,78.2425358 794.097715,80.6077039 793.119272,82.9450055 Z"/>
    <filter id="x" width="200%" height="200%" x="-50%" y="-50%" filterUnits="objectBoundingBox">
      <feOffset dy="4" in="SourceAlpha" result="shadowOffsetInner1"/>
      <feComposite in="shadowOffsetInner1" in2="SourceAlpha" operator="arithmetic" k2="-1" k3="1" result="shadowInnerInner1"/>
      <feColorMatrix values="0 0 0 0 0.966728011 0 0 0 0 1 0 0 0 0 0.779573074 0 0 0 1 0" in="shadowInnerInner1"/>
    </filter>
    <path id="y" d="M15.9437727,41.6333025 C15.9437727,27.9539107 25.5071011,21.2025107 37.6551534,21.2025107 C45.3907532,21.2025107 56.1935398,24.9396032 60.1119694,30.6539627 C56.6476726,33.3995225 53.9106019,36.977158 52.293521,41.1694279 C62.9993948,25.1831375 85.9177586,25.4614625 96.264622,41.6333028 C100.167709,41.5086364 108.606278,41.442898 107.058867,47.0644829 C111.278006,41.4428984 119.438161,35.3003146 125.627808,36.9657383 C131.817455,38.6311619 136.45969,45.6018388 133.586635,51.9135581 C134.202291,52.0216728 271.688165,51.9135588 271.688165,51.9135588 C271.688165,51.9135588 79.1071315,63.3126944 26.8596128,71.3140143 C-25.3879059,79.3153342 15.9437727,55.3126944 15.9437727,41.6333025 Z"/>
    <filter id="z" width="200%" height="200%" x="-50%" y="-50%" filterUnits="objectBoundingBox">
      <feOffset dy="4" in="SourceAlpha" result="shadowOffsetInner1"/>
      <feComposite in="shadowOffsetInner1" in2="SourceAlpha" operator="arithmetic" k2="-1" k3="1" result="shadowInnerInner1"/>
      <feColorMatrix values="0 0 0 0 0.966728011 0 0 0 0 1 0 0 0 0 0.779573074 0 0 0 1 0" in="shadowInnerInner1"/>
    </filter>
    <path id="A" d="M1053.63907,66.8590106 C1056.11023,71.5376143 1055.41361,76.4294732 1052.26476,80.3476534 C1054.21114,78.7499655 1055.69389,76.9938043 1056.65102,75.0059426 C1057.80509,75.8860325 1055.40747,79.0194429 1061.36915,80.7874205 C1069.73595,83.2247287 1148.44247,91.7256615 1148.44247,91.7256615 L943.649372,82.2678697 L896.916423,76.6631904 C896.916423,76.6631904 949.720755,78.0486855 977.106689,72.3227925 C1004.10399,66.7839762 987.020421,57.8621809 994.264819,58.4753089 C1001.52427,59.0811895 1016.08835,60.2712081 1011.27825,72.3895759 C1017.00643,52.9348719 1044.88963,49.6617706 1053.63907,66.8590106 Z"/>
    <filter id="B" width="200%" height="200%" x="-50%" y="-50%" filterUnits="objectBoundingBox">
      <feOffset dy="4" in="SourceAlpha" result="shadowOffsetInner1"/>
      <feComposite in="shadowOffsetInner1" in2="SourceAlpha" operator="arithmetic" k2="-1" k3="1" result="shadowInnerInner1"/>
      <feColorMatrix values="0 0 0 0 0.966728011 0 0 0 0 1 0 0 0 0 0.779573074 0 0 0 0.400000006 0" in="shadowInnerInner1"/>
    </filter>
    <path id="C" d="M231.772724,83.1101837 C169.372082,87.1101837 175.169787,85.5628204 151.772726,91.1101837 C128.375665,96.657547 132.711592,74.0091346 132.711592,71.1556692 C132.711592,58.4037168 144.556507,47.9869918 159.16979,47.9869918 C168.475191,47.9869918 176.658481,52.1388652 181.372086,58.4874629 C177.204772,61.5377531 173.912262,65.5124713 171.967023,70.1700422 C184.845463,52.4094295 212.414698,52.7186458 224.861272,70.6854027 C229.556421,70.5468996 234.126071,71.2361943 238.345061,72.6373308 C243.420399,66.3918052 251.585233,62.7391874 260.148713,62.6489993 C261.761747,65.5736703 264.334482,67.8348147 267.387067,69.2874872 C247.085716,54.7575409 280.586637,31.4761284 292.162099,52.2483793 C291.213472,49.1658791 289.3236,46.6696014 286.809924,44.7853144 C292.483229,33.878997 310.477609,33.7082838 316.224737,44.8207455 C316.257957,44.8883866 316.291178,44.9624696 316.324398,45.0333317 C313.253357,45.5422502 310.285669,46.5246563 307.44348,48.0610749 C329.21022,40.4466229 339.443486,99.1101837 407.772725,83.1101837 C476.101964,67.1101837 607.772739,83.1101837 607.772739,83.1101837 C607.772739,83.1101837 294.173366,79.1101837 231.772724,83.1101837 Z"/>
    <filter id="D" width="200%" height="200%" x="-50%" y="-50%" filterUnits="objectBoundingBox">
      <feOffset dy="4" in="SourceAlpha" result="shadowOffsetInner1"/>
      <feComposite in="shadowOffsetInner1" in2="SourceAlpha" operator="arithmetic" k2="-1" k3="1" result="shadowInnerInner1"/>
      <feColorMatrix values="0 0 0 0 0.966728011 0 0 0 0 1 0 0 0 0 0.779573074 0 0 0 1 0" in="shadowInnerInner1"/>
    </filter>
  </defs>
  <g fill="none" fill-rule="evenodd" transform="translate(.227 -2.11)">
    <g transform="translate(240)">
      <path fill="url(#a)" d="M353.122935,54.8453023 C345.931159,1.84606747 430.796626,-18.5658735 456.065029,30.0321725 C462.987191,43.3554251 462.153271,57.957144 455.231109,70.0998552 C459.651512,65.0349519 462.937031,59.572908 464.918375,53.512433 C467.885844,55.8985646 462.204547,78.6510211 476.954375,82.819604 C497.515003,88.63043 551.066773,93.757196 551.066773,93.757196 C551.066773,93.757196 398.979124,96.7569206 284.091679,95.4736389 C169.204235,94.1903572 258.300589,89.7571984 258.300589,89.7571984 C260.570282,70.82145 273.473064,42.2039521 290.846107,34.240466 C308.412262,26.1884608 330.54861,24.9397797 350.884518,32.9100821 C349.743365,40.1565388 350.445613,47.5444428 353.122935,54.8453023 Z"/>
      <path fill="url(#b)" d="M429.275955,84.1174375 C429.275955,63.0481019 444.89061,45.8371317 464.154685,45.8371317 C476.421605,45.8371317 487.209293,52.6970391 493.42304,63.1864709 C487.929445,68.2262943 483.589067,74.7934981 481.024741,82.4889412 C498.001846,53.1440773 534.345211,53.6549781 550.753007,83.3404425 C553.477171,83.2397222 547.362022,93.298042 556.00632,98.6331671 C567.00224,105.419676 592.857591,107.853037 592.857591,107.853037 C592.857591,107.853037 569.798118,109.822133 438.165944,109.822133 C432.638288,104.50025 429.275955,93.888415 429.275955,84.1174375 Z"/>
      <g transform="matrix(-1 0 0 1 1142.134 0)">
        <use fill="#083768" xlink:href="#c"/>
        <use fill="black" filter="url(#d)" xlink:href="#c"/>
      </g>
      <path fill="url(#e)" d="M93.2759545,54.5451178 C93.2759545,38.7443508 107.363332,25.8371317 124.74318,25.8371317 C135.810266,25.8371317 145.542805,30.9816602 151.148782,38.8481194 C146.192518,42.6276916 142.276675,47.5527096 139.963167,53.323841 C155.279733,31.3169127 188.068336,31.7000583 202.871277,53.9624171 C205.328989,53.8868827 199.811966,61.4300332 207.610761,65.4310643 C217.531165,70.5205486 240.857591,72.3454261 240.857591,72.3454261 C240.857591,72.3454261 220.053576,73.8221333 101.296409,73.8221333 C96.3094161,69.8310328 93.2759545,61.8727783 93.2759545,54.5451178 Z"/>
      <path fill="#F5FEFF" d="M140.275955,56.0773707 C140.275955,35.0080351 158.210451,17.7970649 180.336556,17.7970649 C194.42595,17.7970649 206.816345,24.6569723 213.953257,35.1464041 C207.643489,40.1862275 202.658269,46.7534314 199.712965,54.4488745 C219.212329,25.1040105 260.955162,25.6149113 279.800635,55.3003758 C282.929523,55.1996554 275.905858,65.2579753 285.834423,70.5931003 C298.463987,77.3796096 328.160621,79.8129698 328.160621,79.8129698 C328.160621,79.8129698 301.675243,81.7820666 150.486713,81.7820666 C144.137823,76.4601834 140.275955,65.8483483 140.275955,56.0773707 Z" opacity=".1"/>
      <use fill="#083768" xlink:href="#f"/>
      <use fill="black" filter="url(#g)" xlink:href="#f"/>
      <path fill="url(#h)" d="M361.912318,81.7295063 C361.912318,68.5498302 373.691425,57.7837093 388.223517,57.7837093 C397.477219,57.7837093 405.615044,62.0748441 410.30246,68.6363853 C406.1583,71.7889878 402.884082,75.8970252 400.949651,80.7108195 C413.756539,62.3544836 441.172604,62.6740716 453.550026,81.2434662 C455.605032,81.1804618 450.991995,87.472326 457.512927,90.8096509 C465.807835,95.0548724 507.772731,98.1101825 507.772731,98.1101825 C507.772731,98.1101825 467.916939,101.8021 368.618591,101.8021 C364.448735,98.4730582 361.912318,87.8416269 361.912318,81.7295063 Z" transform="matrix(-1 0 0 1 869.685 0)"/>
    </g>
    <g transform="translate(0 27)">
      <g transform="matrix(-1 0 0 1 1374.134 0)">
        <use fill="#00305D" xlink:href="#i"/>
        <use fill="black" filter="url(#j)" xlink:href="#i"/>
      </g>
      <use fill="url(#k)" xlink:href="#l"/>
      <use fill="black" filter="url(#m)" xlink:href="#l"/>
      <path fill="url(#n)" d="M361.542498,50.4329224 C369.436606,45.9919836 368.63498,37.526125 368.63498,33.3695841 C368.63498,15.3326891 381.45807,0.598837409 397.278142,0.598837409 C407.352,0.598837409 416.211081,6.47142083 421.313943,15.451143 C416.802485,19.7656011 413.238074,25.3876088 411.132194,31.975472 C425.074158,6.85411827 454.920109,7.29148678 468.394543,32.7044195 C473.477425,32.5085149 484.466741,32.4052115 482.451589,41.2391448 C487.946057,32.4052121 491.77272,29.9742384 502.633407,29.9742394 C513.494094,29.9742404 520.739468,38.9407004 516.997968,48.8591323 C517.185183,48.898804 520.432154,54.3819209 531.431672,55.7054047 C567.537917,60.0497799 648.077856,64.5838391 648.077856,64.5838391 C648.077856,64.5838391 577.742436,64.5684649 559.027348,64.5684649 C476.383151,64.5684649 447.772724,64.5838395 384,64.5838391 C320.227276,64.5838387 353.550409,54.9289823 361.542498,50.4329224 Z"/>
      <path fill="url(#o)" d="M399.58478,50.3841456 C403.00751,22.4525453 362.618094,11.6950659 350.592283,37.3071564 C347.297868,44.3287628 347.694749,52.0241451 350.989165,58.4235839 C348.885394,55.7542839 347.32174,52.8756834 346.378774,49.6816983 C344.966487,50.9392348 347.479706,56.0589644 340.459926,58.2558865 C330.674653,61.3183019 286.694021,72.2683642 286.694021,72.2683642 C286.694021,72.2683642 345.61599,72.8995682 400.030731,72.2685242 C400.237078,72.2661312 403.481892,58.2558847 427.663712,38.8238683 C419.303577,34.580309 410.328417,34.6233689 400.650093,38.8238692 C401.193194,42.6428891 400.858978,46.5364544 399.58478,50.3841456 Z"/>
      <path fill="url(#p)" d="M571.35239,56.6533498 C567.284098,26.4174427 615.291363,14.7724906 629.585362,42.4975325 C633.501137,50.0984087 633.0294,58.4286463 629.113624,65.3560272 C631.614187,62.4665148 633.472762,59.3504349 634.593582,55.8929518 C636.27224,57.2542328 633.285002,62.7963309 641.628783,65.1744951 C653.259657,68.4895542 623.997048,76.5704821 623.997048,76.5704821 C623.997048,76.5704821 597.292625,80.5638043 532.302328,79.8316959 C467.31203,79.0995875 517.712651,76.5704835 517.712651,76.5704835 C518.996586,65.7676949 526.295518,49.4414968 536.123217,44.8983515 C546.060158,40.3047062 558.582395,39.5923374 570.086147,44.1393714 C569.440612,48.2734535 569.837864,52.488231 571.35239,56.6533498 Z" transform="matrix(-1 0 0 1 1143.443 0)"/>
      <use fill="#00305D" xlink:href="#q"/>
      <use fill="black" filter="url(#r)" xlink:href="#q"/>
      <use fill="#012553" xlink:href="#s"/>
      <use fill="black" filter="url(#t)" xlink:href="#s"/>
      <use fill="#00305E" xlink:href="#u"/>
      <use fill="black" filter="url(#v)" xlink:href="#u"/>
      <g transform="rotate(5 765.164 81.23)">
        <use fill="#012F5D" xlink:href="#w"/>
        <use fill="black" filter="url(#x)" xlink:href="#w"/>
      </g>
      <g>
        <use fill="#00305D" xlink:href="#y"/>
        <use fill="black" filter="url(#z)" xlink:href="#y"/>
      </g>
      <path fill="#002F5C" d="M763.772726,83.0263595 C763.772726,83.0263595 808.843222,81.0857019 812.828511,79.0263596 C816.544453,77.1061988 817.376516,75.8418689 817.376516,74.0674831 C817.376516,66.1378678 824.203454,59.6603795 832.625969,59.6603795 C837.989232,59.6603795 842.705755,62.2421614 845.422489,66.1899441 C843.020615,68.0867225 841.122943,70.5583429 840.001785,73.4545854 C847.424405,62.4104078 863.314216,62.6026895 870.487926,73.7750548 C873.194023,73.6889286 875.827788,74.1175565 878.259446,74.9888327 C881.184668,71.1051439 885.890554,68.8338168 890.826203,68.7777347 C891.755892,70.5963987 893.238714,72.0024583 894.998103,72.9057815 C883.297211,63.8705466 902.60581,49.3933403 909.277445,62.3102611 C908.730695,60.3934534 907.641448,58.8411796 906.192665,57.6694632 C909.462532,50.887529 919.833777,50.7813735 923.146193,57.6914955 C923.16534,57.7335571 923.184487,57.7796246 923.203634,57.8236892 C921.433608,58.1401527 919.72315,58.7510476 918.085025,59.706447 C930.630509,54.9715113 942.59733,67.8663998 935.974625,79.012727 C940.397711,78.3744259 983.772726,83.0263595 983.772726,83.0263595 L763.772726,83.0263595 Z"/>
      <g>
        <use fill="#002D5B" xlink:href="#A"/>
        <use fill="black" filter="url(#B)" xlink:href="#A"/>
      </g>
      <g>
        <use fill="#00305D" xlink:href="#C"/>
        <use fill="black" filter="url(#D)" xlink:href="#C"/>
      </g>
    </g>
  </g>
</svg>
