<svg xmlns="http://www.w3.org/2000/svg" width="1789" height="1008" viewBox="0 0 1789 1008">
  <defs>
    <filter id="a" width="200%" height="200%" x="-50%" y="-50%" filterUnits="objectBoundingBox">
      <feGaussianBlur stdDeviation="3" in="SourceGraphic"/>
    </filter>
  </defs>
  <g fill="none" fill-rule="evenodd" transform="translate(7)">
    <path stroke="#1EAAF1" stroke-opacity=".5" stroke-width="9" d="M0.5,997 L188.5,985 L256.5,919.5 L284.5,954 L402,916.5 L567.5,959 L629,901.5 C629,901.5 714.5,795 714.5,795 L742.5,848.5 L843.5,784.5 L904.5,713.5 L1039.5,685 L1135,520.5 L1167,618 L1244,639.5 L1326,604 L1403,416 L1412.5,449.5 L1471,271 L1496.5,283 L1532.5,245 L1618,166 L1714,146 L1767.5,53" filter="url(#a)"/>
    <path fill="#8D48AB" d="M1447.41838 258.579642C1448.39426 259.512061 1449.54793 260 1450.87742 260L1479.12258 260C1480.45207 260 1481.60574 259.512061 1482.58162 258.579642 1483.51206 257.605739 1484 256.452069 1484 255.122583L1484 226.877417C1484 225.545956 1483.51206 224.394261 1482.58162 223.418382 1481.60574 222.487939 1480.45207 222 1479.12258 222L1450.87742 222C1449.54793 222 1448.39426 222.487939 1447.41838 223.418382 1446.48794 224.394261 1446 225.545956 1446 226.877417L1446 255.122583C1446 256.452069 1446.48794 257.605739 1447.41838 258.579642L1447.41838 258.579642zM1450.21169 238.094094L1453.71418 238.094094C1453.40403 239.115409 1453.22822 240.223643 1453.22822 241.331878 1453.22822 244.480765 1454.37991 247.185174 1456.68528 249.447078 1458.99262 251.663548 1461.78592 252.771782 1465.02173 252.771782 1467.19474 252.771782 1469.1465 252.240383 1470.96392 251.219068 1472.78135 250.19973 1474.19973 248.824808 1475.2645 247.096278 1476.32928 245.322312 1476.86068 243.415991 1476.86068 241.331878 1476.86068 240.223643 1476.68289 239.115409 1476.37274 238.094094L1479.69942 238.094094 1479.69942 254.101268C1479.69942 254.545748 1479.56509 254.899355 1479.25494 255.166043 1478.94479 255.47619 1478.59118 255.608546 1478.19214 255.608546L1451.71896 255.608546C1451.27646 255.608546 1450.92088 255.47619 1450.65617 255.166043 1450.34602 254.899355 1450.21169 254.545748 1450.21169 254.101268L1450.21169 238.094094 1450.21169 238.094094zM1465.02173 233.5288C1467.15128 233.5288 1468.9687 234.237991 1470.43252 235.699834 1471.9398 237.163651 1472.69245 238.892181 1472.69245 240.932834 1472.69245 242.971512 1471.9398 244.745477 1470.43252 246.165835 1468.9687 247.627677 1467.15128 248.336868 1465.02173 248.336868 1462.93762 248.336868 1461.12019 247.627677 1459.65637 246.165835 1458.1491 244.745477 1457.39447 242.971512 1457.39447 240.932834 1457.39447 238.892181 1458.1491 237.163651 1459.65637 235.699834 1461.12019 234.237991 1462.93762 233.5288 1465.02173 233.5288L1465.02173 233.5288zM1471.98326 227.940216C1471.98326 227.452277 1472.16105 227.055209 1472.4712 226.699626 1472.82678 226.389478 1473.22583 226.211686 1473.71179 226.211686L1478.01435 226.211686C1478.45685 226.211686 1478.8559 226.389478 1479.21148 226.699626 1479.52163 227.055209 1479.69942 227.452277 1479.69942 227.940216L1479.69942 232.019547C1479.69942 232.507486 1479.52163 232.906529 1479.21148 233.262113 1478.8559 233.57226 1478.45685 233.750052 1478.01435 233.750052L1473.71179 233.750052C1473.22583 233.750052 1472.82678 233.57226 1472.4712 233.262113 1472.16105 232.906529 1471.98326 232.507486 1471.98326 232.019547L1471.98326 227.940216 1471.98326 227.940216zM1128.646 509.9C1131.52 509.9 1134.212 509.452 1136.772 508.554 1139.286 507.61 1141.44 506.398 1143.236 504.872 1144.986 503.346 1146.558 501.596 1147.86 499.62 1149.116 497.6 1150.104 495.534 1150.732 493.38 1151.362 491.226 1151.676 489.07 1151.676 486.87L1151.676 485.838C1153.246 484.672 1154.594 483.28 1155.716 481.664 1154.144 482.292 1152.618 482.74 1151.046 482.876 1152.798 481.842 1154.01 480.362 1154.594 478.432 1153.022 479.374 1151.316 480.048 1149.476 480.406 1147.86 478.7 1145.884 477.848 1143.55 477.848 1141.35 477.848 1139.42 478.61 1137.848 480.182 1136.278 481.798 1135.47 483.684 1135.47 485.928 1135.47 486.512 1135.56 487.14 1135.694 487.768 1132.372 487.634 1129.274 486.78 1126.356 485.3 1123.484 483.774 1121.014 481.798 1118.994 479.33 1118.276 480.586 1117.872 481.932 1117.872 483.414 1117.872 484.76 1118.232 486.062 1118.86 487.274 1119.534 488.442 1120.386 489.384 1121.508 490.148 1120.206 490.102 1118.994 489.744 1117.828 489.116L1117.828 489.206C1117.828 491.18 1118.456 492.886 1119.668 494.368 1120.924 495.85 1122.45 496.746 1124.336 497.15 1123.618 497.33 1122.9 497.42 1122.182 497.42 1121.732 497.42 1121.238 497.376 1120.656 497.286 1121.194 498.902 1122.136 500.248 1123.528 501.282 1124.92 502.358 1126.492 502.896 1128.242 502.896 1125.28 505.232 1121.958 506.354 1118.186 506.354 1117.468 506.354 1116.84 506.354 1116.256 506.264 1119.982 508.688 1124.156 509.9 1128.646 509.9M696.337273 784.207816C697.773273 785.597816 699.435273 786.317816 701.455273 786.317816L715.057273 786.317816 715.057273 771.097816 709.445273 771.097816 709.445273 765.487816 715.057273 765.487816 715.057273 761.311816C715.057273 758.933816 715.729273 757.047816 717.121273 755.701816 718.469273 754.353816 720.309273 753.681816 722.553273 753.681816 723.989273 753.681816 725.471273 753.769816 727.087273 753.905816L727.087273 759.067816 723.765273 759.113816C722.643273 759.113816 721.835273 759.337816 721.387273 759.831816 720.893273 760.325816 720.667273 760.997816 720.667273 761.895816L720.667273 765.487816 726.503273 765.487816 725.741273 771.097816 720.667273 771.097816 720.667273 786.317816 725.471273 786.317816C727.447273 786.317816 729.153273 785.597816 730.589273 784.207816 731.981273 782.815816 732.699273 781.109816 732.699273 779.089816L732.699273 755.071816C732.699273 753.097816 731.981273 751.391816 730.589273 749.999816 729.153273 748.607816 727.491273 747.889816 725.471273 747.889816L701.455273 747.889816C699.435273 747.889816 697.773273 748.607816 696.337273 749.999816 694.945273 751.391816 694.227273 753.097816 694.227273 755.071816L694.227273 779.089816C694.227273 781.109816 694.945273 782.815816 696.337273 784.207816M1755.626 37.67C1756.614 39.286 1758.05 40.408 1759.936 41.126 1761.866 41.8 1763.932 42.16 1766.132 42.16 1768.78 42.16 1771.294 41.666 1773.584 40.722 1775.872 39.78 1777.624 38.254 1778.836 36.234 1779.644 34.842 1780.048 33.406 1780.048 31.88 1780.048 30.578 1779.778 29.41 1779.24 28.332 1778.7 27.3 1778.072 26.402 1777.31 25.728 1776.546 25.1 1775.782 24.472 1775.064 23.934 1774.302 23.35 1773.674 22.812 1773.134 22.228 1772.596 21.644 1772.326 21.06 1772.326 20.432 1772.326 19.894 1772.55 19.354 1772.954 18.816 1773.358 18.278 1773.852 17.738 1774.436 17.244 1774.974 16.75 1775.558 16.212 1776.142 15.628 1776.726 15.044 1777.22 14.282 1777.624 13.294 1778.028 12.352 1778.252 11.274 1778.252 10.062 1778.252 8.536 1777.938 7.234 1777.31 6.066 1776.68 4.9 1775.738 3.778 1774.482 2.7L1777.758 2.7 1781.214.5 1770.756.5C1768.914.5 1767.074.77 1765.324 1.308 1763.528 1.846 1762.046 2.654 1760.744 3.778 1759.712 4.674 1758.858 5.752 1758.276 7.054 1757.692 8.356 1757.378 9.658 1757.378 11.05 1757.378 13.518 1758.23 15.538 1759.936 17.154 1761.598 18.77 1763.708 19.578 1766.176 19.578 1766.536 19.578 1767.118 19.534 1767.882 19.49 1767.522 20.208 1767.344 20.926 1767.344 21.598 1767.344 22.272 1767.478 22.9 1767.748 23.44 1767.972 23.978 1768.376 24.606 1768.914 25.28 1764.38 25.594 1761.014 26.402 1758.814 27.794 1757.558 28.558 1756.57 29.5 1755.852 30.668 1755.088 31.79 1754.728 33.046 1754.728 34.394 1754.728 35.606 1755.044 36.682 1755.626 37.67L1755.626 37.67zM1760.072 30.622C1760.52 29.86 1761.104 29.23 1761.776 28.736 1762.494 28.288 1763.304 27.884 1764.2 27.614 1765.144 27.3 1766.042 27.076 1766.894 26.986 1767.748 26.852 1768.6 26.806 1769.498 26.806 1770.036 26.806 1770.44 26.806 1770.71 26.852 1770.756 26.896 1771.07 27.12 1771.652 27.48 1772.192 27.884 1772.55 28.154 1772.686 28.242 1772.82 28.332 1773.134 28.602 1773.584 28.962 1774.076 29.366 1774.392 29.634 1774.57 29.86 1774.706 30.038 1774.974 30.308 1775.29 30.712 1775.604 31.116 1775.828 31.43 1775.962 31.744 1776.098 32.058 1776.232 32.418 1776.322 32.776 1776.456 33.18 1776.502 33.584 1776.502 34.034 1776.502 35.066 1776.276 35.964 1775.828 36.728 1775.334 37.536 1774.75 38.12 1773.988 38.568 1773.224 39.016 1772.416 39.332 1771.518 39.556 1770.62 39.78 1769.678 39.87 1768.736 39.87 1767.882 39.87 1767.03 39.78 1766.176 39.646 1765.324 39.51 1764.516 39.286 1763.662 38.928 1762.854 38.612 1762.136 38.164 1761.508 37.67 1760.88 37.176 1760.386 36.548 1759.982 35.784 1759.578 35.022 1759.398 34.168 1759.398 33.226 1759.398 32.284 1759.622 31.386 1760.072 30.622L1760.072 30.622zM1763.214 4.36C1763.618 3.822 1764.2 3.374 1764.874 3.058 1765.548 2.744 1766.222 2.566 1766.94 2.566 1767.972 2.566 1768.96 2.924 1769.858 3.598 1770.756 4.27 1771.428 5.124 1771.968 6.202 1772.46 7.234 1772.866 8.312 1773.18 9.434 1773.448 10.51 1773.584 11.588 1773.584 12.576 1773.584 14.282 1773.134 15.628 1772.236 16.526 1771.832 17.02 1771.294 17.38 1770.62 17.648 1769.948 17.918 1769.274 18.052 1768.69 18.052 1767.792 18.052 1766.984 17.828 1766.266 17.38 1765.502 16.976 1764.874 16.392 1764.38 15.718 1763.886 15.044 1763.438 14.282 1763.078 13.384 1762.72 12.53 1762.45 11.678 1762.316 10.826 1762.136 9.972 1762.046 9.164 1762.046 8.4 1762.046 6.696 1762.45 5.348 1763.214 4.36L1763.214 4.36zM1612.92857 121.571429C1614.92263 121.556548 1616.71205 122.066215 1618.29688 123.100446 1619.8817 124.134678 1621.09821 125.566955 1621.94643 127.397321 1622.34822 128.260421 1622.54911 129.592253 1622.54911 131.392857 1622.54911 132.092265 1622.48214 133.513382 1622.34821 135.65625 1622.55655 135.760417 1622.76488 135.8125 1622.97321 135.8125 1623.24107 135.8125 1623.62053 135.712055 1624.11161 135.511161 1624.60268 135.310267 1624.98214 135.209821 1625.25 135.209821 1625.68155 135.209821 1626.09821 135.343749 1626.5 135.611607 1626.90179 135.879466 1627.10268 136.221724 1627.10268 136.638393 1627.10268 137.114586 1626.86831 137.516367 1626.39955 137.84375 1625.9308 138.171133 1625.41741 138.405505 1624.85938 138.546875 1624.30134 138.688245 1623.78795 138.904016 1623.3192 139.194196 1622.85044 139.484376 1622.61607 139.837796 1622.61607 140.254464 1622.61607 140.47768 1622.70536 140.797617 1622.88393 141.214286 1623.43453 142.43453 1624.19717 143.55059 1625.17188 144.5625 1626.14658 145.57441 1627.22172 146.32589 1628.39732 146.816964 1628.81399 146.995537 1629.40922 147.166666 1630.18304 147.330357 1630.5997 147.419643 1630.80804 147.680057 1630.80804 148.111607 1630.80804 149.153279 1629.17859 149.91964 1625.91964 150.410714 1625.81548 150.574406 1625.73363 150.864581 1625.67411 151.28125 1625.61458 151.697919 1625.51042 152.043897 1625.36161 152.319196 1625.2128 152.594495 1624.96726 152.732143 1624.625 152.732143 1624.32738 152.732143 1623.86607 152.68378 1623.24107 152.587054 1622.61607 152.490327 1622.13988 152.441964 1621.8125 152.441964 1621.2619 152.441964 1620.8006 152.479166 1620.42857 152.553571 1619.95238 152.627977 1619.48363 152.795386 1619.02232 153.055804 1618.56101 153.316222 1618.12947 153.598957 1617.72768 153.904018 1617.32589 154.209079 1616.89435 154.510415 1616.43304 154.808036 1615.97172 155.105656 1615.40625 155.35491 1614.73661 155.555804 1614.06696 155.756697 1613.33036 155.857143 1612.52679 155.857143 1611.75297 155.857143 1611.03497 155.756697 1610.37277 155.555804 1609.71056 155.35491 1609.15253 155.105656 1608.69866 154.808036 1608.24479 154.510415 1607.81697 154.209079 1607.41518 153.904018 1607.01339 153.598957 1606.58185 153.316222 1606.12054 153.055804 1605.65922 152.795386 1605.19792 152.627977 1604.73661 152.553571 1604.3497 152.479166 1603.88096 152.441964 1603.33036 152.441964 1602.97321 152.441964 1602.48587 152.497767 1601.8683 152.609375 1601.25074 152.720983 1600.81548 152.776786 1600.5625 152.776786 1600.19047 152.776786 1599.93006 152.639138 1599.78125 152.363839 1599.63244 152.08854 1599.52827 151.735121 1599.46875 151.303571 1599.40923 150.872022 1599.32738 150.574406 1599.22321 150.410714 1595.96427 149.91964 1594.33482 149.153279 1594.33482 148.111607 1594.33482 147.680057 1594.54315 147.419643 1594.95982 147.330357 1595.73363 147.166666 1596.32887 146.995537 1596.74554 146.816964 1597.90626 146.340771 1598.98139 145.589291 1599.97098 144.5625 1600.96057 143.535709 1601.72321 142.419649 1602.25893 141.214286 1602.4375 140.797617 1602.52679 140.47768 1602.52679 140.254464 1602.52679 139.837796 1602.29241 139.484376 1601.82366 139.194196 1601.35491 138.904016 1600.8378 138.684525 1600.27232 138.535714 1599.70684 138.386904 1599.18973 138.152531 1598.72098 137.832589 1598.25223 137.512647 1598.01786 137.122026 1598.01786 136.660714 1598.01786 136.258927 1598.21131 135.920388 1598.59821 135.645089 1598.98512 135.36979 1599.39434 135.232143 1599.82589 135.232143 1600.04911 135.232143 1600.40625 135.328868 1600.89732 135.522321 1601.3884 135.715775 1601.78274 135.8125 1602.08036 135.8125 1602.34822 135.8125 1602.58631 135.760417 1602.79464 135.65625 1602.66071 133.543144 1602.59375 132.129468 1602.59375 131.415179 1602.59375 129.599693 1602.79464 128.260421 1603.19643 127.397321 1604.14881 125.358621 1605.42856 123.885421 1607.03571 122.977679 1608.64287 122.069936 1610.60713 121.601191 1612.92857 121.571429L1612.92857 121.571429z"/>
  </g>
</svg>
