<svg xmlns="http://www.w3.org/2000/svg" width="2560" height="1440" viewBox="0 0 2560 1440" xmlns:xlink="http://www.w3.org/1999/xlink">
  <defs>
    <rect id="a" width="2560" height="1440"/>
  </defs>
  <g fill="none" fill-rule="evenodd">
    <mask id="b" fill="white">
      <use xlink:href="#a"/>
    </mask>
    <use fill="#C090D3" xlink:href="#a"/>
    <g transform="translate(-33 -3)" mask="url(#b)">
      <rect width="2666" height="499.5" x="20" y="3.5" fill="#9A5CB4"/>
      <polygon fill="#9A5CB4" points="24 502 485 502 485 1444 0 1462"/>
      <g transform="translate(44 502)">
        <rect width="398" height="869" fill="#999999" fill-opacity=".2"/>
        <path stroke="#979797" stroke-width="20" d="M27.4398977 107L371 107M27.4398977 169L371 169M27.4398977 217L371 217M27.4398977 268L371 268M27.4398977 318L371 318M27.4398977 367L371 367M27.4398977 418L371 418M27.4398977 468L371 468M27.4398977 519L371 519M27.4398977 567L371 567M27.4398977 618L371 618M27.4398977 669L371 669M27.4398977 719L371 719M27.4398977 768L371 768M27.4398977 818L371 818" stroke-linecap="square"/>
      </g>
      <polygon fill="#9A5CB4" points="2141 477 2623 477 2623 1468 2141 1451.29"/>
      <text font-family="LucidaGrande, Lucida Grande" font-size="72">
        <tspan x="524.395" y="70" fill="#1FBCD2">SUPER EFFICIENT &amp; SECURE ECOMMERCE SITE</tspan>
      </text>
      <g transform="translate(1793 321)">
        <rect width="214" height="74" fill="#5AC8FA" rx="5"/>
        <text fill="#FFFFFF" font-family="AndaleMono, Andale Mono" font-size="59.4">
          <tspan x="70.854" y="57">go</tspan>
        </text>
      </g>
      <g transform="translate(700 317)">
        <rect width="971" height="74.301" y="3" fill="#FFFFFF" stroke="#ABB4BD" stroke-width="4.5" rx="4.5"/>
        <text fill="#808080" font-family="AndaleMono, Andale Mono" font-size="59.4">
          <tspan x="218.156" y="54">search products</tspan>
        </text>
      </g>
    </g>
    <g transform="translate(2127 1342)" mask="url(#b)">
      <path fill="#CDDA49" d="M93,78 L9,78 C4.038,78 0,73.962 0,69 L0,9 C0,4.038 4.038,0 9,0 L93,0 C97.962,0 102,4.038 102,9 L102,69 C102,73.962 97.962,78 93,78 L93,78 Z M9,6 C7.344,6 6,7.344 6,9 L6,69 C6,70.656 7.344,72 9,72 L93,72 C94.656,72 96,70.656 96,69 L96,9 C96,7.344 94.656,6 93,6 L9,6 L9,6 Z"/>
      <polygon fill="#CDDA49" points="3 12 99 12 99 30 3 30"/>
      <polygon fill="#CDDA49" points="12 42 15 42 15 48 12 48"/>
      <polygon fill="#CDDA49" points="18 42 21 42 21 48 18 48"/>
      <polygon fill="#CDDA49" points="24 42 27 42 27 48 24 48"/>
      <polygon fill="#CDDA49" points="33 42 36 42 36 48 33 48"/>
      <polygon fill="#CDDA49" points="39 42 42 42 42 48 39 48"/>
      <polygon fill="#CDDA49" points="45 42 48 42 48 48 45 48"/>
      <polygon fill="#CDDA49" points="54 42 57 42 57 48 54 48"/>
      <polygon fill="#CDDA49" points="60 42 63 42 63 48 60 48"/>
      <polygon fill="#CDDA49" points="66 42 69 42 69 48 66 48"/>
      <polygon fill="#CDDA49" points="75 42 78 42 78 48 75 48"/>
      <polygon fill="#CDDA49" points="81 42 84 42 84 48 81 48"/>
      <polygon fill="#CDDA49" points="87 42 90 42 90 48 87 48"/>
      <text font-family="AndaleMono, Andale Mono" font-size="50">
        <tspan x="138.831" y="56" fill="#CDDA49">check out</tspan>
      </text>
    </g>
    <g transform="translate(2127 510)" mask="url(#b)">
      <path fill="#CDDA49" d="M87,78 L21,78 C20.004,78 19.074,77.505 18.516,76.68 C17.958,75.858 17.844,74.808 18.213,73.884 L23.937,59.574 L18.3,6 L0,6 L0,0 L21,0 C22.536,0 23.823,1.158 23.985,2.685 L29.985,59.688 C30.036,60.171 29.967,60.66 29.787,61.116 L25.431,72 L87,72 L87,78"/>
      <path fill="#CDDA49" d="M27.612 62.937L26.388 57.063 96 42.561 96 18 24 18 24 12 99 12C100.656 12 102 13.344 102 15L102 45C102 46.422 101.004 47.646 99.612 47.937L27.612 62.937M90 96C83.382 96 78 90.618 78 84 78 77.382 83.382 72 90 72 96.618 72 102 77.382 102 84 102 90.618 96.618 96 90 96L90 96zM90 78C86.691 78 84 80.691 84 84 84 87.309 86.691 90 90 90 93.309 90 96 87.309 96 84 96 80.691 93.309 78 90 78L90 78zM18 96C11.382 96 6 90.618 6 84 6 77.382 11.382 72 18 72 24.618 72 30 77.382 30 84 30 90.618 24.618 96 18 96L18 96zM18 78C14.691 78 12 80.691 12 84 12 87.309 14.691 90 18 90 21.309 90 24 87.309 24 84 24 80.691 21.309 78 18 78L18 78z"/>
      <text font-family="AndaleMono, Andale Mono" font-size="50">
        <tspan x="138.831" y="72" fill="#CDDA49">view cart</tspan>
      </text>
    </g>
    <g transform="translate(498 537)" mask="url(#b)">
      <rect width="384" height="417" fill="#808080" fill-opacity=".3" rx="29"/>
      <text font-family="AndaleMono, Andale Mono" font-size="50">
        <tspan x="136.147" y="292" fill="#CDDA49">best </tspan> <tspan x="76.138" y="348" fill="#CDDA49">trashcan </tspan> <tspan x="136.147" y="404" fill="#CDDA49">ever</tspan>
      </text>
      <g transform="translate(140 40)">
        <polygon fill="#673FB4" points="32 40 40 40 40 104 32 104"/>
        <polygon fill="#673FB4" points="48 40 56 40 56 104 48 104"/>
        <polygon fill="#673FB4" points="64 40 72 40 72 104 64 104"/>
        <polygon fill="#673FB4" points="0 16 104 16 104 24 0 24"/>
        <path fill="#673FB4" d="M71.72,20 L64.28,20 L64.28,12 C64.28,9.64 62.36,7.72 60,7.72 L44,7.72 C41.64,7.72 39.72,9.64 39.72,12 L39.72,20 L32.28,20 L32.28,12 C32.28,5.536 37.54,0.28 44,0.28 L60,0.28 C66.46,0.28 71.72,5.536 71.72,12 L71.72,20"/>
        <path fill="#673FB4" d="M28,128 C21.544,128 15.892,122.764 15.4,116.328 L8.012,20.308 L15.988,19.692 L23.376,115.716 C23.552,118 25.712,120 28,120 L76,120 C78.288,120 80.448,118 80.624,115.72 L88.012,19.692 L95.988,20.308 L88.6,116.328 C88.108,122.764 82.456,128 76,128 L28,128 Z"/>
      </g>
    </g>
    <g transform="translate(498 994)" mask="url(#b)">
      <rect width="384" height="417" fill="#808080" fill-opacity=".3" rx="29"/>
      <text font-family="AndaleMono, Andale Mono" font-size="50">
        <tspan x="46.133" y="292" fill="#CDDA49">need a new </tspan> <tspan x="121.145" y="348" fill="#CDDA49">bell?</tspan>
      </text>
      <g transform="translate(119 59)">
        <path fill="#673FB4" d="M136,111.72 C110.108,111.72 106.696,87.732 103.392,64.532 C99.82,39.428 96.444,15.72 68,15.72 C39.556,15.72 36.18,39.428 32.608,64.532 C29.304,87.732 25.892,111.72 0,111.72 L0,104.28 C18.128,104.28 21.628,88.868 25.244,63.484 C28.744,38.888 33.1,8.28 68,8.28 C102.9,8.28 107.256,38.888 110.756,63.484 C114.372,88.868 117.872,104.28 136,104.28 L136,111.72"/>
        <path fill="#673FB4" d="M68,127.72 C57.128,127.72 48.28,118.872 48.28,108 L55.72,108 C55.72,114.772 61.228,120.28 68,120.28 C74.772,120.28 80.28,114.772 80.28,108 L87.72,108 C87.72,118.872 78.872,127.72 68,127.72"/>
        <polygon fill="#673FB4" points="0 104 136 104 136 112 0 112"/>
        <path fill="#673FB4" d="M76,8 C76,12.42 72.42,14 68,14 C63.58,14 60,12.42 60,8 C60,3.58 63.58,0 68,0 C72.42,0 76,3.58 76,8"/>
      </g>
    </g>
    <g transform="translate(1676 994)" mask="url(#b)">
      <rect width="384" height="417" fill="#808080" fill-opacity=".3" rx="29"/>
      <g transform="translate(120 40)">
        <path fill="#673FB4" d="M76,111.72 C56.304,111.72 40.28,95.696 40.28,76 C40.28,56.304 56.304,40.28 76,40.28 C95.696,40.28 111.72,56.304 111.72,76 C111.72,95.696 95.696,111.72 76,111.72 L76,111.72 Z M76,47.72 C60.408,47.72 47.72,60.408 47.72,76 C47.72,91.592 60.408,104.28 76,104.28 C91.592,104.28 104.28,91.592 104.28,76 C104.28,60.408 91.592,47.72 76,47.72 L76,47.72 Z"/>
        <path fill="#673FB4" d="M86.68,151.72 L65.32,151.72 L59.156,133.24 C55.08,132.044 51.152,130.416 47.428,128.384 L30.012,137.092 L14.904,121.988 L23.616,104.568 C21.584,100.852 19.96,96.924 18.76,92.84 L0.28,86.68 L0.28,65.32 L18.76,59.16 C19.96,55.076 21.584,51.148 23.616,47.432 L14.904,30.012 L30.012,14.904 L47.428,23.616 C51.152,21.584 55.08,19.956 59.156,18.76 L65.32,0.28 L86.68,0.28 L92.844,18.76 C96.916,19.956 100.848,21.584 104.572,23.616 L121.988,14.904 L137.096,30.012 L128.384,47.432 C130.416,51.148 132.04,55.076 133.24,59.16 L151.72,65.32 L151.72,86.68 L133.24,92.84 C132.04,96.924 130.416,100.852 128.384,104.568 L137.096,121.988 L121.988,137.092 L104.572,128.384 C100.848,130.416 96.916,132.044 92.844,133.24 L86.68,151.72 L86.68,151.72 Z M70.68,144.28 L81.32,144.28 L87.056,127.08 L89.016,126.576 C93.78,125.352 98.34,123.468 102.564,120.968 L104.308,119.936 L120.52,128.044 L128.044,120.52 L119.932,104.308 L120.968,102.56 C123.46,98.348 125.348,93.792 126.58,89.012 L127.08,87.052 L144.28,81.32 L144.28,70.68 L127.08,64.948 L126.58,62.988 C125.348,58.208 123.46,53.652 120.968,49.44 L119.932,47.692 L128.044,31.48 L120.52,23.956 L104.308,32.064 L102.564,31.032 C98.34,28.532 93.78,26.648 89.016,25.424 L87.056,24.92 L81.32,7.72 L70.68,7.72 L64.944,24.92 L62.984,25.424 C58.22,26.648 53.66,28.532 49.436,31.032 L47.692,32.064 L31.48,23.956 L23.956,31.48 L32.068,47.692 L31.032,49.44 C28.54,53.652 26.652,58.208 25.42,62.988 L24.916,64.948 L7.72,70.68 L7.72,81.32 L24.916,87.052 L25.42,89.012 C26.652,93.792 28.54,98.348 31.032,102.56 L32.068,104.308 L23.956,120.52 L31.48,128.044 L47.692,119.936 L49.436,120.968 C53.66,123.468 58.22,125.352 62.984,126.576 L64.944,127.08 L70.68,144.28 L70.68,144.28 Z"/>
      </g>
      <text font-family="AndaleMono, Andale Mono" font-size="50">
        <tspan x="76.138" y="292" fill="#CDDA49">the best </tspan> <tspan x="61.135" y="348" fill="#CDDA49">cogwheels</tspan>
      </text>
    </g>
    <g transform="translate(1088 1010)" mask="url(#b)">
      <rect width="384" height="417" fill="#808080" fill-opacity=".3" rx="29"/>
      <g transform="translate(152 40)">
        <path fill="#673FB4" d="M79.72,52 L72.28,52 L72.28,36 C72.28,20.408 59.592,7.72 44,7.72 C28.408,7.72 15.72,20.408 15.72,36 L15.72,52 L8.28,52 L8.28,36 C8.28,16.304 24.304,0.28 44,0.28 C63.696,0.28 79.72,16.304 79.72,36 L79.72,52"/>
        <path fill="#673FB4" d="M76,120 L12,120 C5.384,120 0,114.616 0,108 L0,60 C0,53.384 5.384,48 12,48 L76,48 C82.616,48 88,53.384 88,60 L88,108 C88,114.616 82.616,120 76,120 L76,120 Z M12,56 C9.792,56 8,57.796 8,60 L8,108 C8,110.204 9.792,112 12,112 L76,112 C78.208,112 80,110.204 80,108 L80,60 C80,57.796 78.208,56 76,56 L12,56 L12,56 Z"/>
        <path fill="#673FB4" d="M52,72 C52,76.42 48.42,80 44,80 C39.58,80 36,76.42 36,72 C36,67.58 39.58,64 44,64 C48.42,64 52,67.58 52,72"/>
        <polyline fill="#673FB4" points="46 72 42 72 38 96 50 96 46 72"/>
      </g>
      <text font-family="AndaleMono, Andale Mono" font-size="50">
        <tspan x="31.13" y="292" fill="#CDDA49">put sh*t on </tspan> <tspan x="136.147" y="348" fill="#CDDA49">lock</tspan>
      </text>
    </g>
    <g transform="translate(1087 537)" mask="url(#b)">
      <rect width="384" height="417" fill="#808080" fill-opacity=".3" rx="29"/>
      <g transform="translate(124 40)">
        <path fill="#673FB4" d="M124,112 L12,112 C5.384,112 0,106.616 0,100 L0,28 C0,21.384 5.384,16 12,16 L36,16 C36.684,16 37.904,15.244 38.212,14.632 L42.632,5.788 C44.28,2.488 48.308,0 51.996,0 L84,0 C87.692,0 91.72,2.488 93.368,5.788 L97.788,14.632 C98.096,15.244 99.316,16 100,16 L124,16 C130.616,16 136,21.384 136,28 L136,100 C136,106.616 130.616,112 124,112 L124,112 Z M12,24 C9.796,24 8,25.792 8,28 L8,100 C8,102.208 9.796,104 12,104 L124,104 C126.204,104 128,102.208 128,100 L128,28 C128,25.792 126.204,24 124,24 L100,24 C96.312,24 92.284,21.512 90.632,18.212 L86.212,9.368 C85.908,8.756 84.688,8 84,8 L51.996,8 C51.312,8 50.096,8.756 49.792,9.364 L45.368,18.212 C43.716,21.512 39.688,24 36,24 L12,24 L12,24 Z"/>
        <path fill="#673FB4" d="M68 96C48.152 96 32 79.852 32 60 32 40.148 48.152 24 68 24 87.848 24 104 40.148 104 60 104 79.852 87.848 96 68 96L68 96zM68 32C52.56 32 40 44.564 40 60 40 75.436 52.56 88 68 88 83.44 88 96 75.436 96 60 96 44.564 83.44 32 68 32L68 32zM112 32C112 34.208 110.208 36 108 36 105.792 36 104 34.208 104 32 104 29.792 105.792 28 108 28 110.208 28 112 29.792 112 32"/>
        <polygon fill="#673FB4" points="16 8 32 8 32 12 16 12"/>
        <path fill="#673FB4" d="M68,44 L68,40 C56.956,40 48,48.956 48,60 L52,60 C52,51.176 59.176,44 68,44"/>
      </g>
      <text font-family="AndaleMono, Andale Mono" font-size="50">
        <tspan x="91.14" y="292" fill="#CDDA49">awesome </tspan> <tspan x="106.142" y="348" fill="#CDDA49">camera</tspan>
      </text>
    </g>
    <g transform="translate(1676 537)" mask="url(#b)">
      <rect width="384" height="417" fill="#808080" fill-opacity=".3" rx="29"/>
      <text font-family="AndaleMono, Andale Mono" font-size="50">
        <tspan x="136.147" y="292" fill="#CDDA49">give </tspan> <tspan x="46.133" y="348" fill="#CDDA49">yourself a </tspan> <tspan x="121.145" y="404" fill="#CDDA49">tropy</tspan>
      </text>
      <g transform="translate(124 40)">
        <path fill="#673FB4" d="M82.24,77.472 C94.092,68.376 112,54.628 112,4 L112,0 L24,0 L24,4 C24,54.628 41.908,68.376 53.756,77.472 C60.676,82.784 64,85.62 64,92 L64,104.2 C57.528,104.852 51.228,107.2 48.952,112 L40,112 C35.58,112 32,115.58 32,120 L104,120 C104,115.58 100.42,112 96,112 L87.048,112 C84.772,107.2 78.472,104.852 72,104.2 L72,92 C72,85.62 75.324,82.784 82.24,77.472 L82.24,77.472 Z M68,79.708 C65.508,76.408 62.116,73.804 58.628,71.128 C47.72,62.756 32.896,51.376 32.04,8 L103.96,8 C103.104,51.376 88.28,62.756 77.372,71.128 C73.884,73.804 70.492,76.408 68,79.708 L68,79.708 Z"/>
        <path fill="#673FB4" d="M43.216 67.92C42.784 67.836 0 58.74 0 12L0 8 28 8 28 16 8.124 16C10.44 52.772 44.428 60.008 44.784 60.08L43.216 67.92M92.784 67.92L91.216 60.08C92.66 59.78 125.628 52.596 127.88 16L108 16 108 8 136 8 136 12C136 58.74 93.216 67.836 92.784 67.92"/>
      </g>
    </g>
  </g>
</svg>
