<svg xmlns="http://www.w3.org/2000/svg" width="300" height="200" viewBox="0 0 300 200">
  <g fill="none" fill-rule="evenodd">
    <rect width="300" height="200" fill="#3D156F"/>
    <g fill="#E1E4E7" transform="translate(112 1)">
      <path d="M33.8454259,49.7629467 C25.0685086,49.7629467 17.9279052,42.6223433 17.9279052,33.8454259 C17.9279052,25.0685086 25.0685086,17.9279052 33.8454259,17.9279052 C42.6223433,17.9279052 49.7629467,25.0685086 49.7629467,33.8454259 C49.7629467,42.6223433 42.6223433,49.7629467 33.8454259,49.7629467 L33.8454259,49.7629467 Z M33.8454259,21.2433126 C26.8973301,21.2433126 21.2433126,26.8973301 21.2433126,33.8454259 C21.2433126,40.7935218 26.8973301,46.4475392 33.8454259,46.4475392 C40.7935218,46.4475392 46.4475392,40.7935218 46.4475392,33.8454259 C46.4475392,26.8973301 40.7935218,21.2433126 33.8454259,21.2433126 L33.8454259,21.2433126 Z"/>
      <path d="M38.501506,67.4845841 L28.9830781,67.4845841 L26.2362809,59.2495398 C24.4199367,58.7165791 22.6695441,57.9911109 21.0100579,57.0856125 L13.2491525,60.9660652 L6.51673638,54.2354316 L10.3989716,46.4727437 C9.49347319,44.8168225 8.76978748,43.0664299 8.23504434,41.2465208 L0,38.501506 L0,28.9830781 L8.23504434,26.2380633 C8.76978748,24.4181542 9.49347319,22.6677617 10.3989716,21.0118404 L6.51673638,13.2491525 L13.2491525,6.51673638 L21.0100579,10.3989716 C22.6695441,9.49347319 24.4199367,8.768005 26.2362809,8.23504434 L28.9830781,0 L38.501506,0 L41.2483032,8.23504434 C43.062865,8.768005 44.81504,9.49347319 46.4745262,10.3989716 L54.2354316,6.51673638 L60.9678477,13.2491525 L57.0856125,21.0118404 C57.9911109,22.6677617 58.7147966,24.4181542 59.2495398,26.2380633 L67.4845841,28.9830781 L67.4845841,38.501506 L59.2495398,41.2465208 C58.7147966,43.0664299 57.9911109,44.8168225 57.0856125,46.4727437 L60.9678477,54.2354316 L54.2354316,60.9660652 L46.4745262,57.0856125 C44.81504,57.9911109 43.062865,58.7165791 41.2483032,59.2495398 L38.501506,67.4845841 L38.501506,67.4845841 Z M31.3715975,64.1691766 L36.1129866,64.1691766 L38.6690588,56.504525 L39.5424726,56.2799329 C41.6654029,55.7344949 43.6974268,54.8949481 45.5797227,53.7808999 L46.3568827,53.3210208 L53.5812625,56.934102 L56.934102,53.5812625 L53.3192384,46.3568827 L53.7808999,45.5779402 C54.8913832,43.7009918 55.7327124,41.6707503 56.2817154,39.5406902 L56.504525,38.6672764 L64.1691766,36.1129866 L64.1691766,31.3715975 L56.504525,28.8173077 L56.2817154,27.943894 C55.7327124,25.8138338 54.8913832,23.7835923 53.7808999,21.9066439 L53.3192384,21.1277014 L56.934102,13.9033216 L53.5812625,10.5504821 L46.3568827,14.1635633 L45.5797227,13.7036842 C43.6974268,12.589636 41.6654029,11.7500892 39.5424726,11.2046512 L38.6690588,10.9800591 L36.1129866,3.31540746 L31.3715975,3.31540746 L28.8155253,10.9800591 L27.9421115,11.2046512 C25.8191812,11.7500892 23.7871573,12.589636 21.9048614,13.7036842 L21.1277014,14.1635633 L13.9033216,10.5504821 L10.5504821,13.9033216 L14.1653457,21.1277014 L13.7036842,21.9066439 C12.5932009,23.7835923 11.7518717,25.8138338 11.2028688,27.943894 L10.9782766,28.8173077 L3.31540746,31.3715975 L3.31540746,36.1129866 L10.9782766,38.6672764 L11.2028688,39.5406902 C11.7518717,41.6707503 12.5932009,43.7009918 13.7036842,45.5779402 L14.1653457,46.3568827 L10.5504821,53.5812625 L13.9033216,56.934102 L21.1277014,53.3210208 L21.9048614,53.7808999 C23.7871573,54.8949481 25.8191812,55.7344949 27.9421115,56.2799329 L28.8155253,56.504525 L31.3715975,64.1691766 L31.3715975,64.1691766 Z"/>
    </g>
    <text fill="#E1E4E7" font-family="AmericanTypewriter, American Typewriter" font-size="18">
      <tspan x="23.051" y="90">SOFTWAREOPPDATERINGER</tspan> <tspan x="24.609" y="117" font-size="14">* Holder deg oppdatert med de nyeste </tspan> <tspan x="23.664" y="134" font-size="14">funksjoner og muligheter uten å oppta </tspan> <tspan x="130.029" y="151" font-size="14">din tid</tspan>
    </text>
    <text fill="#E1E4E7" font-family="Beirut" font-size="48" font-weight="bold">
      <tspan x="95.339" y="186">150</tspan> <tspan x="143.69" y="186" font-size="18"> / </tspan> <tspan x="158.016" y="186" font-family="LucidaGrande-Bold, Lucida Grande" font-size="18">mnd</tspan>
    </text>
  </g>
</svg>
