<svg xmlns="http://www.w3.org/2000/svg" width="300" height="200" viewBox="0 0 300 200">
  <g fill="none" fill-rule="evenodd">
    <rect width="300" height="200" fill="#50E3C2"/>
    <text fill="#3C4345" font-family="Beirut" font-size="48" font-weight="bold">
      <tspan x="110.034" y="182">50</tspan> <tspan x="146.995" y="182" font-size="18"> / </tspan> <tspan x="161.321" y="182" font-family="LucidaGrande-Bold, Lucida Grande" font-size="18">mnd</tspan>
    </text>
    <path fill="#4A4A4A" d="M256.817085,35.6955726 L256.817085,17.5443759 C256.817085,16.6393263 256.08191,15.9030443 255.178221,15.9030443 L227.799549,15.9030443 C226.89586,15.9030443 226.160684,16.6393263 226.160684,17.5443759 L226.160684,35.6955726 C226.160684,36.6006221 226.89586,37.3369042 227.799549,37.3369042 L255.178221,37.3369042 C256.08191,37.3369042 256.817085,36.6006221 256.817085,35.6955726 L256.817085,35.6955726 L256.817085,35.6955726 Z M298.553943,43.7091328 L293.926562,43.7091328 C292.354988,43.7091328 291.153218,45.1282088 290.354995,47.9265827 C290.060578,48.9581113 289.830173,50.1464354 289.668407,51.4330463 L247.556346,51.4330463 L247.556346,49.7917147 C247.556346,48.9919035 246.909091,48.3434809 246.110289,48.3434809 L246.013885,48.3434809 L246.013885,45.0608177 L261.54087,45.0608177 C264.039271,45.0608177 266.071848,43.0251803 266.071848,40.5230185 L266.071848,32.7025561 L267.794198,32.7025561 C269.379654,32.7025561 270.690167,31.4607439 270.778087,29.8756038 L271.968288,8.41992379 C272.0618,6.73379348 271.475279,5.12934355 270.316506,3.90259299 C269.15754,2.67564933 267.590593,2 265.904298,2 L217.073665,2 C215.387562,2 213.820615,2.67564933 212.661842,3.90239989 C211.503069,5.12934355 210.916163,6.73360038 211.009674,8.41992379 L212.199875,29.8754107 C212.287795,31.4607439 213.598501,32.7025561 215.183958,32.7025561 L216.906115,32.7025561 L216.906115,40.5230185 C216.906115,43.0251803 218.938692,45.0608177 221.437092,45.0608177 L236.95193,45.0608177 L236.95193,48.3434809 L236.855527,48.3434809 C236.056725,48.3434809 235.40947,48.9919035 235.40947,49.7917147 L235.40947,59.0604109 C235.40947,62.4143272 238.134033,65.1429927 241.482908,65.1429927 C244.333568,65.1429927 246.730358,63.1654778 247.381084,60.5086447 L289.668407,60.5086447 C289.830173,61.7950624 290.060578,62.9835796 290.354995,64.0149152 C291.153411,66.8134821 292.354988,68.2325581 293.926562,68.2325581 L298.553943,68.2325581 C299.352745,68.2325581 300,67.5841356 300,66.7843244 L300,45.1573666 C300,44.3575554 299.352745,43.7091328 298.553943,43.7091328 L298.553943,43.7091328 Z M215.183958,29.8060885 C215.132671,29.8060885 215.090446,29.7659242 215.087554,29.7149464 L213.897353,8.25945949 C213.84838,7.37603688 214.155908,6.5356751 214.762866,5.89304549 C215.369631,5.25041589 216.190413,4.89646756 217.073665,4.89646756 L265.904105,4.89646756 C266.787549,4.89646756 267.608331,5.25041589 268.215289,5.89304549 C268.822055,6.5356751 269.12939,7.37603688 269.080417,8.25926639 L267.890216,29.7149464 C267.887324,29.7659242 267.845099,29.8060885 267.794005,29.8060885 L266.071655,29.8060885 L266.071655,12.71693 C266.071655,10.2147682 264.039078,8.17913079 261.540678,8.17913079 L221.436707,8.17913079 C218.938306,8.17913079 216.905729,10.2147682 216.905729,12.71693 L216.905729,29.8060885 L215.183958,29.8060885 L215.183958,29.8060885 Z M253.924972,34.4404366 L229.052798,34.4404366 L229.052798,18.7995118 L253.924972,18.7995118 L253.924972,34.4404366 L253.924972,34.4404366 Z M241.488885,31.1577734 C243.987285,31.1577734 246.019862,29.122136 246.019862,26.6199742 C246.019862,24.1178125 243.987285,22.0821751 241.488885,22.0821751 C238.990485,22.0821751 236.957907,24.1178125 236.957907,26.6199742 C236.957907,29.122136 238.990485,31.1577734 241.488885,31.1577734 L241.488885,31.1577734 Z M241.488885,24.9786426 C242.392574,24.9786426 243.127749,25.7149247 243.127749,26.6199742 C243.127749,27.5250238 242.392574,28.2613059 241.488885,28.2613059 C240.585196,28.2613059 239.850021,27.5250238 239.850021,26.6199742 C239.850021,25.7149247 240.585389,24.9786426 241.488885,24.9786426 L241.488885,24.9786426 Z M219.798035,40.5230185 L219.798035,12.71693 C219.798035,11.8118804 220.53321,11.0755983 221.436899,11.0755983 L261.54087,11.0755983 C262.444559,11.0755983 263.179735,11.8118804 263.179735,12.71693 L263.179735,40.5230185 C263.179735,41.4280681 262.444559,42.1643501 261.54087,42.1643501 L221.436899,42.1643501 C220.533403,42.1643501 219.798035,41.4280681 219.798035,40.5230185 L219.798035,40.5230185 Z M239.844044,45.0608177 L243.121772,45.0608177 L243.121772,48.3434809 L239.844044,48.3434809 L239.844044,45.0608177 L239.844044,45.0608177 Z M241.482908,62.2465252 C239.728745,62.2465252 238.301583,60.817215 238.301583,59.0604109 L238.301583,51.2399485 L244.664232,51.2399485 L244.664232,52.8812801 L244.664232,59.0604109 C244.664232,60.817215 243.237071,62.2465252 241.482908,62.2465252 L241.482908,62.2465252 Z M247.556346,57.6121771 L247.556346,54.3295139 L289.429712,54.3295139 C289.407153,54.8690292 289.395585,55.417234 289.395585,55.9708455 C289.395585,56.5246501 289.407346,57.0726617 289.429712,57.6121771 L247.556346,57.6121771 L247.556346,57.6121771 Z M297.107887,65.3360906 L294.082929,65.3360906 C293.438373,64.7442457 292.287698,61.484368 292.287698,55.9708455 C292.287698,50.4573229 293.438373,47.1974453 294.082929,46.6056004 L297.107887,46.6056004 L297.107887,65.3360906 L297.107887,65.3360906 Z"/>
    <text fill="#3C4345" font-family="AmericanTypewriter, American Typewriter" font-size="18">
      <tspan x="19.709" y="86">SIKKERHETSOVERVÅKNING</tspan> <tspan x="54.894" y="113" font-size="14">* Scanner din nettside etter </tspan> <tspan x="31.871" y="130" font-size="14">sårbarheter og varsler ved funn av </tspan> <tspan x="114.758" y="147" font-size="14">svakheter</tspan>
    </text>
  </g>
</svg>
