<svg xmlns="http://www.w3.org/2000/svg" width="300" height="200" viewBox="0 0 300 200">
  <g fill="none" fill-rule="evenodd">
    <rect width="300" height="200" fill="#C3D367"/>
    <path fill="#4A4A4A" d="M125,51.1085797 L125,63.75 C125,74.9201235 134.137325,84 145.394697,84 L155.605303,84 C166.86521,84 176,74.9317278 176,63.75 L176,51.1085797 C176,46.9076797 172.584341,43.5 168.362522,43.5 L132.637478,43.5 C128.415195,43.5 125,46.9091018 125,51.1085797 L125,51.1085797 Z M130.1,51.1085797 C130.1,49.6987231 131.238254,48.5625 132.637478,48.5625 L168.362522,48.5625 C169.761917,48.5625 170.9,49.6979241 170.9,51.1085797 L170.9,63.75 C170.9,72.1358674 164.048476,78.9375 155.605303,78.9375 L145.394697,78.9375 C136.955203,78.9375 130.1,72.1253973 130.1,63.75 L130.1,51.1085797 L130.1,51.1085797 Z M137.75,43.5 L137.75,20.7113129 C137.75,13.7321713 143.468903,8.0625 150.5,8.0625 C157.540348,8.0625 163.25,13.7284699 163.25,20.7113129 L163.25,43.5 L168.35,43.5 L168.35,20.7113129 C168.35,10.9321886 160.356658,3 150.5,3 C140.653695,3 132.65,10.9347943 132.65,20.7113129 L132.65,43.5 L137.75,43.5 L137.75,43.5 Z M150.5,71.34375 C146.275022,71.34375 142.85,67.9439123 142.85,63.75 C142.85,59.5560877 146.275022,56.15625 150.5,56.15625 C154.724978,56.15625 158.15,59.5560877 158.15,63.75 C158.15,67.9439123 154.724978,71.34375 150.5,71.34375 L150.5,71.34375 Z M150.5,68.8125 C153.316652,68.8125 155.6,66.5459415 155.6,63.75 C155.6,60.9540585 153.316652,58.6875 150.5,58.6875 C147.683348,58.6875 145.4,60.9540585 145.4,63.75 C145.4,66.5459415 147.683348,68.8125 150.5,68.8125 L150.5,68.8125 Z"/>
    <text fill="#3C4345" font-family="AmericanTypewriter, American Typewriter" font-size="18">
      <tspan x="42.994" y="107">SIKKERHETSPATCHING</tspan> <tspan x="21.95" y="134" font-size="14">* Oppdaterer software for å holde dine </tspan> <tspan x="61.066" y="151" font-size="14">nettsider sikre mot angrep</tspan>
    </text>
    <text fill="#3C4345" font-family="Beirut" font-size="48" font-weight="bold">
      <tspan x="110.503" y="186">75</tspan> <tspan x="146.526" y="186" font-size="18"> / </tspan> <tspan x="160.852" y="186" font-family="LucidaGrande-Bold, Lucida Grande" font-size="18">mnd</tspan>
    </text>
  </g>
</svg>
