<svg xmlns="http://www.w3.org/2000/svg" width="300" height="200" viewBox="0 0 300 200">
  <g fill="none" fill-rule="evenodd">
    <rect width="300" height="200" fill="#8949FC"/>
    <path fill="#4A4A4A" d="M125,51.1085797 L125,63.75 C125,74.9201235 134.137325,84 145.394697,84 L155.605303,84 C166.86521,84 176,74.9317278 176,63.75 L176,51.1085797 C176,46.9076797 172.584341,43.5 168.362522,43.5 L132.637478,43.5 C128.415195,43.5 125,46.9091018 125,51.1085797 L125,51.1085797 Z M130.1,51.1085797 C130.1,49.6987231 131.238254,48.5625 132.637478,48.5625 L168.362522,48.5625 C169.761917,48.5625 170.9,49.6979241 170.9,51.1085797 L170.9,63.75 C170.9,72.1358674 164.048476,78.9375 155.605303,78.9375 L145.394697,78.9375 C136.955203,78.9375 130.1,72.1253973 130.1,63.75 L130.1,51.1085797 L130.1,51.1085797 Z M137.75,43.5 L137.75,20.7113129 C137.75,13.7321713 143.468903,8.0625 150.5,8.0625 C157.540348,8.0625 163.25,13.7284699 163.25,20.7113129 L163.25,43.5 L168.35,43.5 L168.35,20.7113129 C168.35,10.9321886 160.356658,3 150.5,3 C140.653695,3 132.65,10.9347943 132.65,20.7113129 L132.65,43.5 L137.75,43.5 L137.75,43.5 Z M150.5,71.34375 C146.275022,71.34375 142.85,67.9439123 142.85,63.75 C142.85,59.5560877 146.275022,56.15625 150.5,56.15625 C154.724978,56.15625 158.15,59.5560877 158.15,63.75 C158.15,67.9439123 154.724978,71.34375 150.5,71.34375 L150.5,71.34375 Z M150.5,68.8125 C153.316652,68.8125 155.6,66.5459415 155.6,63.75 C155.6,60.9540585 153.316652,58.6875 150.5,58.6875 C147.683348,58.6875 145.4,60.9540585 145.4,63.75 C145.4,66.5459415 147.683348,68.8125 150.5,68.8125 L150.5,68.8125 Z"/>
    <path fill="#E1E4E7" d="M61.417136 96.362C60.8531332 95.5339959 60.0311414 95.12 58.951136 95.12 58.6151344 95.12 58.2851377 95.1649996 57.961136 95.255 57.6371344 95.3450005 57.3461373 95.4829991 57.088136 95.669 56.8301348 95.8550009 56.6231368 96.0949985 56.467136 96.389 56.3111353 96.6830015 56.233136 97.027998 56.233136 97.424 56.233136 98.0000029 56.3951344 98.4469984 56.719136 98.765 57.0431377 99.0830016 57.4451336 99.343999 57.925136 99.548 58.4051384 99.752001 58.9301332 99.9349992 59.500136 100.097 60.0701389 100.259001 60.5951336 100.474999 61.075136 100.745 61.5551384 101.015001 61.9571344 101.371998 62.281136 101.816 62.6051377 102.260002 62.767136 102.865996 62.767136 103.634 62.767136 104.210003 62.6441373 104.728998 62.398136 105.191 62.1521348 105.653002 61.8281381 106.039998 61.426136 106.352 61.024134 106.664002 60.5741385 106.903999 60.076136 107.072 59.5781336 107.240001 59.0771386 107.324 58.573136 107.324 57.7931321 107.324 57.0521396 107.177001 56.350136 106.883 55.6481325 106.588999 55.0511385 106.106003 54.559136 105.434L55.729136 104.588C56.0051374 105.056002 56.3891336 105.430999 56.881136 105.713 57.3731385 105.995001 57.9551327 106.136 58.627136 106.136 58.9511377 106.136 59.2751344 106.085001 59.599136 105.983 59.9231377 105.880999 60.2141348 105.731001 60.472136 105.533 60.7301373 105.334999 60.9431352 105.092001 61.111136 104.804 61.2791369 104.515999 61.363136 104.186002 61.363136 103.814 61.363136 103.369998 61.270137 103.001001 61.084136 102.707 60.8981351 102.412999 60.6521376 102.167001 60.346136 101.969 60.0401345 101.770999 59.692138 101.606001 59.302136 101.474 58.9121341 101.341999 58.5101381 101.210001 58.096136 101.078 57.682134 100.945999 57.280138 100.796001 56.890136 100.628 56.5001341 100.459999 56.1521376 100.247001 55.846136 99.989 55.5401345 99.7309987 55.294137 99.407002 55.108136 99.017 54.9221351 98.6269981 54.829136 98.1380029 54.829136 97.55 54.829136 96.9379969 54.9461349 96.4040023 55.180136 95.948 55.4141372 95.4919977 55.7261341 95.1140015 56.116136 94.814 56.506138 94.5139985 56.9471336 94.2920007 57.439136 94.148 57.9311385 94.0039993 58.4351335 93.932 58.951136 93.932 59.6711396 93.932 60.3251331 94.0459989 60.913136 94.274 61.501139 94.5020011 62.0471335 94.9039971 62.551136 95.48L61.417136 96.362zM66.691136 107L65.395136 107 65.395136 94.256 66.691136 94.256 66.691136 107zM71.443136 99.782L71.461136 99.782 71.623136 99.782 77.617136 94.256 79.471136 94.256 73.045136 100.034 79.831136 107 77.923136 107 71.659136 100.43 71.461136 100.43 71.443136 100.43 71.443136 107 70.147136 107 70.147136 94.256 71.443136 94.256 71.443136 99.782zM82.783136 99.782L82.801136 99.782 82.963136 99.782 88.957136 94.256 90.811136 94.256 84.385136 100.034 91.171136 107 89.263136 107 82.999136 100.43 82.801136 100.43 82.783136 100.43 82.783136 107 81.487136 107 81.487136 94.256 82.783136 94.256 82.783136 99.782zM94.123136 105.812L100.945136 105.812 100.945136 107 92.827136 107 92.827136 94.256 100.729136 94.256 100.729136 95.444 94.123136 95.444 94.123136 99.782 100.297136 99.782 100.297136 100.97 94.123136 100.97 94.123136 105.812zM104.797136 99.89L107.101136 99.89C107.677139 99.89 108.166134 99.8300006 108.568136 99.71 108.970138 99.5899994 109.291135 99.431001 109.531136 99.233 109.771137 99.034999 109.945136 98.8010014 110.053136 98.531 110.161137 98.2609987 110.215136 97.9700016 110.215136 97.658 110.215136 97.3579985 110.161137 97.0730014 110.053136 96.803 109.945136 96.5329987 109.771137 96.296001 109.531136 96.092 109.291135 95.887999 108.970138 95.7290006 108.568136 95.615 108.166134 95.5009994 107.677139 95.444 107.101136 95.444L104.797136 95.444 104.797136 99.89zM104.797136 107L103.501136 107 103.501136 94.256 107.425136 94.256C108.721143 94.256 109.744132 94.5379972 110.494136 95.102 111.24414 95.6660028 111.619136 96.5179943 111.619136 97.658 111.619136 98.5460044 111.340139 99.292997 110.782136 99.899 110.224133 100.505003 109.417141 100.856 108.361136 100.952L112.033136 107 110.449136 107 106.957136 101.078 104.797136 101.078 104.797136 107zM114.175136 94.256L115.471136 94.256 115.471136 99.782 122.419136 99.782 122.419136 94.256 123.715136 94.256 123.715136 107 122.419136 107 122.419136 100.97 115.471136 100.97 115.471136 107 114.175136 107 114.175136 94.256zM128.467136 105.812L135.289136 105.812 135.289136 107 127.171136 107 127.171136 94.256 135.073136 94.256 135.073136 95.444 128.467136 95.444 128.467136 99.782 134.641136 99.782 134.641136 100.97 128.467136 100.97 128.467136 105.812zM141.931136 107L140.635136 107 140.635136 95.444 136.369136 95.444 136.369136 94.256 146.197136 94.256 146.197136 95.444 141.931136 95.444 141.931136 107zM154.207136 96.362C153.643133 95.5339959 152.821141 95.12 151.741136 95.12 151.405134 95.12 151.075138 95.1649996 150.751136 95.255 150.427134 95.3450005 150.136137 95.4829991 149.878136 95.669 149.620135 95.8550009 149.413137 96.0949985 149.257136 96.389 149.101135 96.6830015 149.023136 97.027998 149.023136 97.424 149.023136 98.0000029 149.185134 98.4469984 149.509136 98.765 149.833138 99.0830016 150.235134 99.343999 150.715136 99.548 151.195138 99.752001 151.720133 99.9349992 152.290136 100.097 152.860139 100.259001 153.385134 100.474999 153.865136 100.745 154.345138 101.015001 154.747134 101.371998 155.071136 101.816 155.395138 102.260002 155.557136 102.865996 155.557136 103.634 155.557136 104.210003 155.434137 104.728998 155.188136 105.191 154.942135 105.653002 154.618138 106.039998 154.216136 106.352 153.814134 106.664002 153.364139 106.903999 152.866136 107.072 152.368134 107.240001 151.867139 107.324 151.363136 107.324 150.583132 107.324 149.84214 107.177001 149.140136 106.883 148.438133 106.588999 147.841139 106.106003 147.349136 105.434L148.519136 104.588C148.795137 105.056002 149.179134 105.430999 149.671136 105.713 150.163139 105.995001 150.745133 106.136 151.417136 106.136 151.741138 106.136 152.065134 106.085001 152.389136 105.983 152.713138 105.880999 153.004135 105.731001 153.262136 105.533 153.520137 105.334999 153.733135 105.092001 153.901136 104.804 154.069137 104.515999 154.153136 104.186002 154.153136 103.814 154.153136 103.369998 154.060137 103.001001 153.874136 102.707 153.688135 102.412999 153.442138 102.167001 153.136136 101.969 152.830135 101.770999 152.482138 101.606001 152.092136 101.474 151.702134 101.341999 151.300138 101.210001 150.886136 101.078 150.472134 100.945999 150.070138 100.796001 149.680136 100.628 149.290134 100.459999 148.942138 100.247001 148.636136 99.989 148.330135 99.7309987 148.084137 99.407002 147.898136 99.017 147.712135 98.6269981 147.619136 98.1380029 147.619136 97.55 147.619136 96.9379969 147.736135 96.4040023 147.970136 95.948 148.204137 95.4919977 148.516134 95.1140015 148.906136 94.814 149.296138 94.5139985 149.737134 94.2920007 150.229136 94.148 150.721139 94.0039993 151.225133 93.932 151.741136 93.932 152.46114 93.932 153.115133 94.0459989 153.703136 94.274 154.291139 94.5020011 154.837134 94.9039971 155.341136 95.48L154.207136 96.362zM159.481136 99.89L161.569136 99.89C162.145139 99.89 162.634134 99.8300006 163.036136 99.71 163.438138 99.5899994 163.759135 99.431001 163.999136 99.233 164.239137 99.034999 164.413136 98.8010014 164.521136 98.531 164.629137 98.2609987 164.683136 97.9700016 164.683136 97.658 164.683136 97.3579985 164.629137 97.0730014 164.521136 96.803 164.413136 96.5329987 164.239137 96.296001 163.999136 96.092 163.759135 95.887999 163.438138 95.7290006 163.036136 95.615 162.634134 95.5009994 162.145139 95.444 161.569136 95.444L159.481136 95.444 159.481136 99.89zM158.185136 94.256L161.893136 94.256C163.189143 94.256 164.212132 94.5379972 164.962136 95.102 165.71214 95.6660028 166.087136 96.5179943 166.087136 97.658 166.087136 98.7980057 165.71214 99.6529972 164.962136 100.223 164.212132 100.793003 163.189143 101.078 161.893136 101.078L159.481136 101.078 159.481136 107 158.185136 107 158.185136 94.256zM170.191136 102.464L175.717136 102.464 172.963136 95.768 170.191136 102.464zM168.301136 107L166.789136 107 172.333136 94.256 173.593136 94.256 179.137136 107 177.625136 107 176.221136 103.652 169.705136 103.652 168.301136 107zM184.951136 107L183.655136 107 183.655136 95.444 179.389136 95.444 179.389136 94.256 189.217136 94.256 189.217136 95.444 184.951136 95.444 184.951136 107zM201.691136 104.984C201.475135 105.308002 201.208138 105.613999 200.890136 105.902 200.572134 106.190001 200.209138 106.438999 199.801136 106.649 199.393134 106.859001 198.952138 107.023999 198.478136 107.144 198.004134 107.264001 197.503139 107.324 196.975136 107.324 196.027131 107.324 195.14814 107.156002 194.338136 106.82 193.528132 106.483998 192.826139 106.019003 192.232136 105.425 191.638133 104.830997 191.173138 104.126004 190.837136 103.31 190.501134 102.493996 190.333136 101.600005 190.333136 100.628 190.333136 99.6559951 190.501134 98.7620041 190.837136 97.946 191.173138 97.1299959 191.638133 96.425003 192.232136 95.831 192.826139 95.236997 193.528132 94.7720017 194.338136 94.436 195.14814 94.0999983 196.027131 93.932 196.975136 93.932 197.76714 93.932 198.559132 94.0879984 199.351136 94.4 200.14314 94.7120016 200.821133 95.2279964 201.385136 95.948L200.251136 96.794C200.119135 96.589999 199.939137 96.386001 199.711136 96.182 199.483135 95.977999 199.222138 95.7980008 198.928136 95.642 198.634135 95.4859992 198.319138 95.3600005 197.983136 95.264 197.647134 95.1679995 197.311138 95.12 196.975136 95.12 196.159132 95.12 195.427139 95.2699985 194.779136 95.57 194.131133 95.8700015 193.582138 96.2719975 193.132136 96.776 192.682134 97.2800025 192.337137 97.8649967 192.097136 98.531 191.857135 99.1970033 191.737136 99.8959963 191.737136 100.628 191.737136 101.360004 191.857135 102.058997 192.097136 102.725 192.337137 103.391003 192.682134 103.975997 193.132136 104.48 193.582138 104.984003 194.131133 105.385999 194.779136 105.686 195.427139 105.986002 196.159132 106.136 196.975136 106.136 197.311138 106.136 197.644134 106.106 197.974136 106.046 198.304138 105.986 198.628134 105.884001 198.946136 105.74 199.264138 105.595999 199.564135 105.401001 199.846136 105.155 200.128137 104.908999 200.389135 104.600002 200.629136 104.228L201.691136 104.984zM203.869136 94.256L205.165136 94.256 205.165136 99.782 212.113136 99.782 212.113136 94.256 213.409136 94.256 213.409136 107 212.113136 107 212.113136 100.97 205.165136 100.97 205.165136 107 203.869136 107 203.869136 94.256zM218.161136 107L216.865136 107 216.865136 94.256 218.161136 94.256 218.161136 107zM230.833136 105.056L230.869136 105.056 230.869136 94.256 232.165136 94.256 232.165136 107 230.545136 107 222.949136 96.092 222.913136 96.092 222.913136 107 221.617136 107 221.617136 94.256 223.237136 94.256 230.833136 105.056zM245.035136 96.596C244.603134 96.1399977 244.087139 95.7800013 243.487136 95.516 242.887133 95.2519987 242.19114 95.12 241.399136 95.12 240.583132 95.12 239.851139 95.2699985 239.203136 95.57 238.555133 95.8700015 238.006138 96.2719975 237.556136 96.776 237.106134 97.2800025 236.761137 97.8649967 236.521136 98.531 236.281135 99.1970033 236.161136 99.8959963 236.161136 100.628 236.161136 101.360004 236.281135 102.058997 236.521136 102.725 236.761137 103.391003 237.106134 103.975997 237.556136 104.48 238.006138 104.984003 238.555133 105.385999 239.203136 105.686 239.851139 105.986002 240.583132 106.136 241.399136 106.136 242.059139 106.136 242.692133 106.055001 243.298136 105.893 243.904139 105.730999 244.447134 105.512001 244.927136 105.236L244.927136 100.97 241.885136 100.97 241.885136 99.782 246.223136 99.782 246.223136 106.028C245.503132 106.448002 244.71414 106.768999 243.856136 106.991 242.998132 107.213001 242.17914 107.324 241.399136 107.324 240.451131 107.324 239.57214 107.156002 238.762136 106.82 237.952132 106.483998 237.250139 106.019003 236.656136 105.425 236.062133 104.830997 235.597138 104.126004 235.261136 103.31 234.925134 102.493996 234.757136 101.600005 234.757136 100.628 234.757136 99.6559951 234.925134 98.7620041 235.261136 97.946 235.597138 97.1299959 236.062133 96.425003 236.656136 95.831 237.250139 95.236997 237.952132 94.7720017 238.762136 94.436 239.57214 94.0999983 240.451131 93.932 241.399136 93.932 242.419141 93.932 243.298132 94.0729986 244.036136 94.355 244.77414 94.6370014 245.431133 95.0659971 246.007136 95.642L245.035136 96.596zM26.948136 124.088L27.956136 124.088 27.956136 128.386 33.360136 128.386 33.360136 124.088 34.368136 124.088 34.368136 134 33.360136 134 33.360136 129.31 27.956136 129.31 27.956136 134 26.948136 134 26.948136 124.088zM42.334136 130.724C42.334136 130.359998 42.2758033 130.019335 42.159136 129.702 42.0424688 129.384665 41.8768038 129.109334 41.662136 128.876 41.4474683 128.642666 41.1884709 128.458334 40.885136 128.323 40.5818012 128.187666 40.2388046 128.12 39.856136 128.12 39.4734675 128.12 39.1304709 128.187666 38.827136 128.323 38.5238012 128.458334 38.2671371 128.642666 38.057136 128.876 37.847135 129.109334 37.6838033 129.384665 37.567136 129.702 37.4504688 130.019335 37.392136 130.359998 37.392136 130.724 37.392136 131.088002 37.4504688 131.428665 37.567136 131.746 37.6838033 132.063335 37.847135 132.338665 38.057136 132.572 38.2671371 132.805335 38.5238012 132.989666 38.827136 133.125 39.1304709 133.260334 39.4734675 133.328 39.856136 133.328 40.2388046 133.328 40.5818012 133.260334 40.885136 133.125 41.1884709 132.989666 41.4474683 132.805335 41.662136 132.572 41.8768038 132.338665 42.0424688 132.063335 42.159136 131.746 42.2758033 131.428665 42.334136 131.088002 42.334136 130.724L42.334136 130.724zM43.342136 130.724C43.342136 131.218669 43.2558036 131.675998 43.083136 132.096 42.9104685 132.516002 42.6701376 132.879998 42.362136 133.188 42.0541345 133.496002 41.6878048 133.736332 41.263136 133.909 40.8384673 134.081668 40.3694719 134.168 39.856136 134.168 39.3521335 134.168 38.8878048 134.081668 38.463136 133.909 38.0384673 133.736332 37.6721376 133.496002 37.364136 133.188 37.0561345 132.879998 36.8158036 132.516002 36.643136 132.096 36.4704685 131.675998 36.384136 131.218669 36.384136 130.724 36.384136 130.229331 36.4704685 129.772002 36.643136 129.352 36.8158036 128.931998 37.0561345 128.568002 37.364136 128.26 37.6721376 127.951998 38.0384673 127.711668 38.463136 127.539 38.8878048 127.366332 39.3521335 127.28 39.856136 127.28 40.3694719 127.28 40.8384673 127.366332 41.263136 127.539 41.6878048 127.711668 42.0541345 127.951998 42.362136 128.26 42.6701376 128.568002 42.9104685 128.931998 43.083136 129.352 43.2558036 129.772002 43.342136 130.229331 43.342136 130.724L43.342136 130.724zM46.156136 134L45.232136 134 45.232136 123.416 46.156136 123.416 46.156136 134zM48.942136 130.724C48.942136 131.088002 49.0004688 131.428665 49.117136 131.746 49.2338033 132.063335 49.3994683 132.338665 49.614136 132.572 49.8288038 132.805335 50.0878012 132.989666 50.391136 133.125 50.6944709 133.260334 51.0374675 133.328 51.420136 133.328 51.7934712 133.328 52.1411344 133.260334 52.463136 133.125 52.7851377 132.989666 53.0628015 132.805335 53.296136 132.572 53.5294705 132.338665 53.7114687 132.063335 53.842136 131.746 53.9728034 131.428665 54.038136 131.088002 54.038136 130.724 54.038136 130.359998 53.9728034 130.019335 53.842136 129.702 53.7114687 129.384665 53.5294705 129.109334 53.296136 128.876 53.0628015 128.642666 52.7851377 128.458334 52.463136 128.323 52.1411344 128.187666 51.7934712 128.12 51.420136 128.12 51.0374675 128.12 50.6944709 128.187666 50.391136 128.323 50.0878012 128.458334 49.8288038 128.642666 49.614136 128.876 49.3994683 129.109334 49.2338033 129.384665 49.117136 129.702 49.0004688 130.019335 48.942136 130.359998 48.942136 130.724L48.942136 130.724zM54.920136 134L53.996136 134 53.996136 132.908 53.968136 132.908C53.818802 133.132001 53.6414704 133.323333 53.436136 133.482 53.2308017 133.640667 53.0161372 133.771333 52.792136 133.874 52.5681349 133.976667 52.3371372 134.051333 52.099136 134.098 51.8611349 134.144667 51.6348038 134.168 51.420136 134.168 50.9068001 134.168 50.4378048 134.081668 50.013136 133.909 49.5884673 133.736332 49.2221376 133.496002 48.914136 133.188 48.6061345 132.879998 48.3658036 132.516002 48.193136 132.096 48.0204685 131.675998 47.934136 131.218669 47.934136 130.724 47.934136 130.229331 48.0204685 129.772002 48.193136 129.352 48.3658036 128.931998 48.6061345 128.568002 48.914136 128.26 49.2221376 127.951998 49.5884673 127.711668 50.013136 127.539 50.4378048 127.366332 50.9068001 127.28 51.420136 127.28 51.6348038 127.28 51.8611349 127.303333 52.099136 127.35 52.3371372 127.396667 52.5681349 127.471333 52.792136 127.574 53.0161372 127.676667 53.2308017 127.807333 53.436136 127.966 53.6414704 128.124667 53.818802 128.315999 53.968136 128.54L53.996136 128.54 53.996136 123.416 54.920136 123.416 54.920136 134zM62.032136 130.22C62.032136 129.594664 61.8454712 129.088335 61.472136 128.701 61.0988008 128.313665 60.5761394 128.12 59.904136 128.12 59.6054679 128.12 59.3161374 128.178333 59.036136 128.295 58.7561346 128.411667 58.5111371 128.567999 58.301136 128.764 58.091135 128.960001 57.9231367 129.183999 57.797136 129.436 57.6711354 129.688001 57.608136 129.949332 57.608136 130.22L62.032136 130.22zM57.580136 130.976C57.6081362 131.302668 57.6874687 131.610665 57.818136 131.9 57.9488034 132.189335 58.1214683 132.438999 58.336136 132.649 58.5508038 132.859001 58.7981346 133.024666 59.078136 133.146 59.3581374 133.267334 59.6614677 133.328 59.988136 133.328 60.4828052 133.328 60.9098009 133.213668 61.269136 132.985 61.6284712 132.756332 61.9014684 132.492668 62.088136 132.194L62.802136 132.782C62.4101341 133.276669 61.9784717 133.631332 61.507136 133.846 61.0358004 134.060668 60.5294721 134.168 59.988136 134.168 59.5028003 134.168 59.0524715 134.081668 58.637136 133.909 58.2218006 133.736332 57.8648042 133.496002 57.566136 133.188 57.2674679 132.879998 57.0318036 132.516002 56.859136 132.096 56.6864685 131.675998 56.600136 131.218669 56.600136 130.724 56.600136 130.229331 56.6841352 129.772002 56.852136 129.352 57.0201369 128.931998 57.2534679 128.568002 57.552136 128.26 57.8508042 127.951998 58.2008007 127.711668 58.602136 127.539 59.0034714 127.366332 59.437467 127.28 59.904136 127.28 60.3988052 127.28 60.8421341 127.368666 61.234136 127.546 61.626138 127.723334 61.9551347 127.958999 62.221136 128.253 62.4871374 128.547001 62.6901353 128.892331 62.830136 129.289 62.9701367 129.685669 63.040136 130.107998 63.040136 130.556L63.040136 130.976 57.580136 130.976zM64.818136 129.492C64.818136 129.202665 64.8111361 128.908668 64.797136 128.61 64.783136 128.311332 64.7714694 127.924002 64.762136 127.448L65.672136 127.448 65.672136 128.666 65.700136 128.666C65.7654697 128.488666 65.8588021 128.318334 65.980136 128.155 66.10147 127.991666 66.2484685 127.844667 66.421136 127.714 66.5938036 127.583333 66.7944682 127.478334 67.023136 127.399 67.2518039 127.319666 67.5108013 127.28 67.800136 127.28 68.0614707 127.28 68.2901351 127.308 68.486136 127.364L68.304136 128.274C68.1828021 128.227333 68.0054705 128.204 67.772136 128.204 67.4174676 128.204 67.1141373 128.271666 66.862136 128.407 66.6101348 128.542334 66.4001369 128.714999 66.232136 128.925 66.0641352 129.135001 65.9404698 129.361332 65.861136 129.604 65.7818023 129.846668 65.742136 130.079999 65.742136 130.304L65.742136 134 64.818136 134 64.818136 129.492zM73.820136 130.724C73.820136 131.088002 73.8784688 131.428665 73.995136 131.746 74.1118033 132.063335 74.2774683 132.338665 74.492136 132.572 74.7068038 132.805335 74.9658012 132.989666 75.269136 133.125 75.5724709 133.260334 75.9154675 133.328 76.298136 133.328 76.6714712 133.328 77.0191344 133.260334 77.341136 133.125 77.6631377 132.989666 77.9408015 132.805335 78.174136 132.572 78.4074705 132.338665 78.5894687 132.063335 78.720136 131.746 78.8508034 131.428665 78.916136 131.088002 78.916136 130.724 78.916136 130.359998 78.8508034 130.019335 78.720136 129.702 78.5894687 129.384665 78.4074705 129.109334 78.174136 128.876 77.9408015 128.642666 77.6631377 128.458334 77.341136 128.323 77.0191344 128.187666 76.6714712 128.12 76.298136 128.12 75.9154675 128.12 75.5724709 128.187666 75.269136 128.323 74.9658012 128.458334 74.7068038 128.642666 74.492136 128.876 74.2774683 129.109334 74.1118033 129.384665 73.995136 129.702 73.8784688 130.019335 73.820136 130.359998 73.820136 130.724L73.820136 130.724zM79.798136 134L78.874136 134 78.874136 132.908 78.846136 132.908C78.696802 133.132001 78.5194704 133.323333 78.314136 133.482 78.1088017 133.640667 77.8941372 133.771333 77.670136 133.874 77.4461349 133.976667 77.2151372 134.051333 76.977136 134.098 76.7391349 134.144667 76.5128038 134.168 76.298136 134.168 75.7848001 134.168 75.3158048 134.081668 74.891136 133.909 74.4664673 133.736332 74.1001376 133.496002 73.792136 133.188 73.4841345 132.879998 73.2438036 132.516002 73.071136 132.096 72.8984685 131.675998 72.812136 131.218669 72.812136 130.724 72.812136 130.229331 72.8984685 129.772002 73.071136 129.352 73.2438036 128.931998 73.4841345 128.568002 73.792136 128.26 74.1001376 127.951998 74.4664673 127.711668 74.891136 127.539 75.3158048 127.366332 75.7848001 127.28 76.298136 127.28 76.5128038 127.28 76.7391349 127.303333 76.977136 127.35 77.2151372 127.396667 77.4461349 127.471333 77.670136 127.574 77.8941372 127.676667 78.1088017 127.807333 78.314136 127.966 78.5194704 128.124667 78.696802 128.315999 78.846136 128.54L78.874136 128.54 78.874136 123.416 79.798136 123.416 79.798136 134zM83.158136 124.928C83.158136 125.124001 83.0881367 125.284999 82.948136 125.411 82.8081353 125.537001 82.6541369 125.6 82.486136 125.6 82.3181352 125.6 82.1641367 125.537001 82.024136 125.411 81.8841353 125.284999 81.814136 125.124001 81.814136 124.928 81.814136 124.731999 81.8841353 124.571001 82.024136 124.445 82.1641367 124.318999 82.3181352 124.256 82.486136 124.256 82.6541369 124.256 82.8081353 124.318999 82.948136 124.445 83.0881367 124.571001 83.158136 124.731999 83.158136 124.928L83.158136 124.928zM82.948136 134L82.024136 134 82.024136 127.448 82.948136 127.448 82.948136 134zM86.056136 127.448C86.0748028 127.625334 86.0864694 127.800332 86.091136 127.973 86.0958027 128.145668 86.098136 128.320666 86.098136 128.498L86.126136 128.498C86.2288032 128.320666 86.3594686 128.157334 86.518136 128.008 86.6768035 127.858666 86.8541351 127.730334 87.050136 127.623 87.246137 127.515666 87.4538016 127.431667 87.673136 127.371 87.8924705 127.310333 88.1094683 127.28 88.324136 127.28 89.1641402 127.28 89.7848007 127.501664 90.186136 127.945 90.5874714 128.388336 90.788136 129.020663 90.788136 129.842L90.788136 134 89.864136 134 89.864136 130.374C89.864136 129.645996 89.7381373 129.088335 89.486136 128.701 89.2341348 128.313665 88.7674728 128.12 88.086136 128.12 88.0394691 128.12 87.9088038 128.138666 87.694136 128.176 87.4794683 128.213334 87.2531372 128.315999 87.015136 128.484 86.7771349 128.652001 86.5648036 128.903998 86.378136 129.24 86.1914684 129.576002 86.098136 130.042664 86.098136 130.64L86.098136 134 85.174136 134 85.174136 128.89C85.174136 128.712666 85.1671361 128.488668 85.153136 128.218 85.139136 127.947332 85.1228028 127.690668 85.104136 127.448L86.056136 127.448zM98.054136 130.22C98.054136 129.594664 97.8674712 129.088335 97.494136 128.701 97.1208008 128.313665 96.5981394 128.12 95.926136 128.12 95.6274679 128.12 95.3381374 128.178333 95.058136 128.295 94.7781346 128.411667 94.5331371 128.567999 94.323136 128.764 94.113135 128.960001 93.9451367 129.183999 93.819136 129.436 93.6931354 129.688001 93.630136 129.949332 93.630136 130.22L98.054136 130.22zM93.602136 130.976C93.6301362 131.302668 93.7094687 131.610665 93.840136 131.9 93.9708034 132.189335 94.1434683 132.438999 94.358136 132.649 94.5728038 132.859001 94.8201346 133.024666 95.100136 133.146 95.3801374 133.267334 95.6834677 133.328 96.010136 133.328 96.5048052 133.328 96.9318009 133.213668 97.291136 132.985 97.6504712 132.756332 97.9234684 132.492668 98.110136 132.194L98.824136 132.782C98.4321341 133.276669 98.0004717 133.631332 97.529136 133.846 97.0578004 134.060668 96.5514721 134.168 96.010136 134.168 95.5248003 134.168 95.0744715 134.081668 94.659136 133.909 94.2438006 133.736332 93.8868042 133.496002 93.588136 133.188 93.2894679 132.879998 93.0538036 132.516002 92.881136 132.096 92.7084685 131.675998 92.622136 131.218669 92.622136 130.724 92.622136 130.229331 92.7061352 129.772002 92.874136 129.352 93.0421369 128.931998 93.2754679 128.568002 93.574136 128.26 93.8728042 127.951998 94.2228007 127.711668 94.624136 127.539 95.0254714 127.366332 95.459467 127.28 95.926136 127.28 96.4208052 127.28 96.8641341 127.368666 97.256136 127.546 97.648138 127.723334 97.9771347 127.958999 98.243136 128.253 98.5091374 128.547001 98.7121353 128.892331 98.852136 129.289 98.9921367 129.685669 99.062136 130.107998 99.062136 130.556L99.062136 130.976 93.602136 130.976zM105.516136 127.448C105.534803 127.625334 105.546469 127.800332 105.551136 127.973 105.555803 128.145668 105.558136 128.320666 105.558136 128.498L105.586136 128.498C105.688803 128.320666 105.819469 128.157334 105.978136 128.008 106.136804 127.858666 106.314135 127.730334 106.510136 127.623 106.706137 127.515666 106.913802 127.431667 107.133136 127.371 107.35247 127.310333 107.569468 127.28 107.784136 127.28 108.62414 127.28 109.244801 127.501664 109.646136 127.945 110.047471 128.388336 110.248136 129.020663 110.248136 129.842L110.248136 134 109.324136 134 109.324136 130.374C109.324136 129.645996 109.198137 129.088335 108.946136 128.701 108.694135 128.313665 108.227473 128.12 107.546136 128.12 107.499469 128.12 107.368804 128.138666 107.154136 128.176 106.939468 128.213334 106.713137 128.315999 106.475136 128.484 106.237135 128.652001 106.024804 128.903998 105.838136 129.24 105.651468 129.576002 105.558136 130.042664 105.558136 130.64L105.558136 134 104.634136 134 104.634136 128.89C104.634136 128.712666 104.627136 128.488668 104.613136 128.218 104.599136 127.947332 104.582803 127.690668 104.564136 127.448L105.516136 127.448zM117.514136 130.22C117.514136 129.594664 117.327471 129.088335 116.954136 128.701 116.580801 128.313665 116.058139 128.12 115.386136 128.12 115.087468 128.12 114.798137 128.178333 114.518136 128.295 114.238135 128.411667 113.993137 128.567999 113.783136 128.764 113.573135 128.960001 113.405137 129.183999 113.279136 129.436 113.153135 129.688001 113.090136 129.949332 113.090136 130.22L117.514136 130.22zM113.062136 130.976C113.090136 131.302668 113.169469 131.610665 113.300136 131.9 113.430803 132.189335 113.603468 132.438999 113.818136 132.649 114.032804 132.859001 114.280135 133.024666 114.560136 133.146 114.840137 133.267334 115.143468 133.328 115.470136 133.328 115.964805 133.328 116.391801 133.213668 116.751136 132.985 117.110471 132.756332 117.383468 132.492668 117.570136 132.194L118.284136 132.782C117.892134 133.276669 117.460472 133.631332 116.989136 133.846 116.5178 134.060668 116.011472 134.168 115.470136 134.168 114.9848 134.168 114.534471 134.081668 114.119136 133.909 113.703801 133.736332 113.346804 133.496002 113.048136 133.188 112.749468 132.879998 112.513804 132.516002 112.341136 132.096 112.168469 131.675998 112.082136 131.218669 112.082136 130.724 112.082136 130.229331 112.166135 129.772002 112.334136 129.352 112.502137 128.931998 112.735468 128.568002 113.034136 128.26 113.332804 127.951998 113.682801 127.711668 114.084136 127.539 114.485471 127.366332 114.919467 127.28 115.386136 127.28 115.880805 127.28 116.324134 127.368666 116.716136 127.546 117.108138 127.723334 117.437135 127.958999 117.703136 128.253 117.969137 128.547001 118.172135 128.892331 118.312136 129.289 118.452137 129.685669 118.522136 130.107998 118.522136 130.556L118.522136 130.976 113.062136 130.976zM123.590136 128.288L121.700136 128.288 121.700136 132.152C121.700136 132.394668 121.723469 132.592999 121.770136 132.747 121.816803 132.901001 121.882136 133.02 121.966136 133.104 122.050136 133.188 122.150469 133.246333 122.267136 133.279 122.383803 133.311667 122.512135 133.328 122.652136 133.328 122.810804 133.328 122.974135 133.304667 123.142136 133.258 123.310137 133.211333 123.464135 133.150667 123.604136 133.076L123.646136 133.93C123.300801 134.088667 122.885472 134.168 122.400136 134.168 122.222802 134.168 122.03847 134.144667 121.847136 134.098 121.655802 134.051333 121.480804 133.962667 121.322136 133.832 121.163469 133.701333 121.032803 133.524001 120.930136 133.3 120.827469 133.075999 120.776136 132.782002 120.776136 132.418L120.776136 128.288 119.390136 128.288 119.390136 127.448 120.776136 127.448 120.776136 125.6 121.700136 125.6 121.700136 127.448 123.590136 127.448 123.590136 128.288zM128.238136 128.288L126.348136 128.288 126.348136 132.152C126.348136 132.394668 126.371469 132.592999 126.418136 132.747 126.464803 132.901001 126.530136 133.02 126.614136 133.104 126.698136 133.188 126.798469 133.246333 126.915136 133.279 127.031803 133.311667 127.160135 133.328 127.300136 133.328 127.458804 133.328 127.622135 133.304667 127.790136 133.258 127.958137 133.211333 128.112135 133.150667 128.252136 133.076L128.294136 133.93C127.948801 134.088667 127.533472 134.168 127.048136 134.168 126.870802 134.168 126.68647 134.144667 126.495136 134.098 126.303802 134.051333 126.128804 133.962667 125.970136 133.832 125.811469 133.701333 125.680803 133.524001 125.578136 133.3 125.475469 133.075999 125.424136 132.782002 125.424136 132.418L125.424136 128.288 124.038136 128.288 124.038136 127.448 125.424136 127.448 125.424136 125.6 126.348136 125.6 126.348136 127.448 128.238136 127.448 128.238136 128.288zM132.970136 129.002C132.830135 128.731332 132.643471 128.516667 132.410136 128.358 132.176802 128.199333 131.892138 128.12 131.556136 128.12 131.397469 128.12 131.23647 128.138666 131.073136 128.176 130.909802 128.213334 130.762803 128.271666 130.632136 128.351 130.501469 128.430334 130.39647 128.530666 130.317136 128.652 130.237802 128.773334 130.198136 128.922666 130.198136 129.1 130.198136 129.408002 130.305468 129.631999 130.520136 129.772 130.734804 129.912001 131.056801 130.033333 131.486136 130.136L132.424136 130.36C132.881472 130.462667 133.261801 130.670332 133.565136 130.983 133.868471 131.295668 134.020136 131.685331 134.020136 132.152 134.020136 132.506668 133.947803 132.812332 133.803136 133.069 133.658469 133.325668 133.467137 133.535666 133.229136 133.699 132.991135 133.862334 132.718138 133.981333 132.410136 134.056 132.102135 134.130667 131.789471 134.168 131.472136 134.168 130.968134 134.168 130.499138 134.072334 130.065136 133.881 129.631134 133.689666 129.260138 133.360669 128.952136 132.894L129.750136 132.348C129.936804 132.646668 130.172468 132.884666 130.457136 133.062 130.741804 133.239334 131.080134 133.328 131.472136 133.328 131.658804 133.328 131.845468 133.307 132.032136 133.265 132.218804 133.223 132.384469 133.157667 132.529136 133.069 132.673803 132.980333 132.790469 132.866001 132.879136 132.726 132.967803 132.585999 133.012136 132.422668 133.012136 132.236 133.012136 131.909332 132.890804 131.673667 132.648136 131.529 132.405468 131.384333 132.111471 131.27 131.766136 131.186L130.870136 130.976C130.758135 130.948 130.60647 130.901334 130.415136 130.836 130.223802 130.770666 130.037137 130.672667 129.855136 130.542 129.673135 130.411333 129.516803 130.241001 129.386136 130.031 129.255469 129.820999 129.190136 129.562002 129.190136 129.254 129.190136 128.917998 129.257802 128.624001 129.393136 128.372 129.52847 128.119999 129.710468 127.914667 129.939136 127.756 130.167804 127.597333 130.426801 127.478334 130.716136 127.399 131.005471 127.319666 131.304135 127.28 131.612136 127.28 132.069472 127.28 132.494134 127.368666 132.886136 127.546 133.278138 127.723334 133.581468 128.026665 133.796136 128.456L132.970136 129.002zM136.806136 124.928C136.806136 125.124001 136.736137 125.284999 136.596136 125.411 136.456135 125.537001 136.302137 125.6 136.134136 125.6 135.966135 125.6 135.812137 125.537001 135.672136 125.411 135.532135 125.284999 135.462136 125.124001 135.462136 124.928 135.462136 124.731999 135.532135 124.571001 135.672136 124.445 135.812137 124.318999 135.966135 124.256 136.134136 124.256 136.302137 124.256 136.456135 124.318999 136.596136 124.445 136.736137 124.571001 136.806136 124.731999 136.806136 124.928L136.806136 124.928zM136.596136 134L135.672136 134 135.672136 127.448 136.596136 127.448 136.596136 134zM139.382136 130.724C139.382136 131.088002 139.440469 131.428665 139.557136 131.746 139.673803 132.063335 139.839468 132.338665 140.054136 132.572 140.268804 132.805335 140.527801 132.989666 140.831136 133.125 141.134471 133.260334 141.477467 133.328 141.860136 133.328 142.233471 133.328 142.581134 133.260334 142.903136 133.125 143.225138 132.989666 143.502802 132.805335 143.736136 132.572 143.969471 132.338665 144.151469 132.063335 144.282136 131.746 144.412803 131.428665 144.478136 131.088002 144.478136 130.724 144.478136 130.359998 144.412803 130.019335 144.282136 129.702 144.151469 129.384665 143.969471 129.109334 143.736136 128.876 143.502802 128.642666 143.225138 128.458334 142.903136 128.323 142.581134 128.187666 142.233471 128.12 141.860136 128.12 141.477467 128.12 141.134471 128.187666 140.831136 128.323 140.527801 128.458334 140.268804 128.642666 140.054136 128.876 139.839468 129.109334 139.673803 129.384665 139.557136 129.702 139.440469 130.019335 139.382136 130.359998 139.382136 130.724L139.382136 130.724zM145.360136 134L144.436136 134 144.436136 132.908 144.408136 132.908C144.258802 133.132001 144.08147 133.323333 143.876136 133.482 143.670802 133.640667 143.456137 133.771333 143.232136 133.874 143.008135 133.976667 142.777137 134.051333 142.539136 134.098 142.301135 134.144667 142.074804 134.168 141.860136 134.168 141.3468 134.168 140.877805 134.081668 140.453136 133.909 140.028467 133.736332 139.662138 133.496002 139.354136 133.188 139.046135 132.879998 138.805804 132.516002 138.633136 132.096 138.460469 131.675998 138.374136 131.218669 138.374136 130.724 138.374136 130.229331 138.460469 129.772002 138.633136 129.352 138.805804 128.931998 139.046135 128.568002 139.354136 128.26 139.662138 127.951998 140.028467 127.711668 140.453136 127.539 140.877805 127.366332 141.3468 127.28 141.860136 127.28 142.074804 127.28 142.301135 127.303333 142.539136 127.35 142.777137 127.396667 143.008135 127.471333 143.232136 127.574 143.456137 127.676667 143.670802 127.807333 143.876136 127.966 144.08147 128.124667 144.258802 128.315999 144.408136 128.54L144.436136 128.54 144.436136 123.416 145.360136 123.416 145.360136 134zM152.472136 130.22C152.472136 129.594664 152.285471 129.088335 151.912136 128.701 151.538801 128.313665 151.016139 128.12 150.344136 128.12 150.045468 128.12 149.756137 128.178333 149.476136 128.295 149.196135 128.411667 148.951137 128.567999 148.741136 128.764 148.531135 128.960001 148.363137 129.183999 148.237136 129.436 148.111135 129.688001 148.048136 129.949332 148.048136 130.22L152.472136 130.22zM148.020136 130.976C148.048136 131.302668 148.127469 131.610665 148.258136 131.9 148.388803 132.189335 148.561468 132.438999 148.776136 132.649 148.990804 132.859001 149.238135 133.024666 149.518136 133.146 149.798137 133.267334 150.101468 133.328 150.428136 133.328 150.922805 133.328 151.349801 133.213668 151.709136 132.985 152.068471 132.756332 152.341468 132.492668 152.528136 132.194L153.242136 132.782C152.850134 133.276669 152.418472 133.631332 151.947136 133.846 151.4758 134.060668 150.969472 134.168 150.428136 134.168 149.9428 134.168 149.492471 134.081668 149.077136 133.909 148.661801 133.736332 148.304804 133.496002 148.006136 133.188 147.707468 132.879998 147.471804 132.516002 147.299136 132.096 147.126469 131.675998 147.040136 131.218669 147.040136 130.724 147.040136 130.229331 147.124135 129.772002 147.292136 129.352 147.460137 128.931998 147.693468 128.568002 147.992136 128.26 148.290804 127.951998 148.640801 127.711668 149.042136 127.539 149.443471 127.366332 149.877467 127.28 150.344136 127.28 150.838805 127.28 151.282134 127.368666 151.674136 127.546 152.066138 127.723334 152.395135 127.958999 152.661136 128.253 152.927137 128.547001 153.130135 128.892331 153.270136 129.289 153.410137 129.685669 153.480136 130.107998 153.480136 130.556L153.480136 130.976 148.020136 130.976zM155.258136 129.492C155.258136 129.202665 155.251136 128.908668 155.237136 128.61 155.223136 128.311332 155.211469 127.924002 155.202136 127.448L156.112136 127.448 156.112136 128.666 156.140136 128.666C156.20547 128.488666 156.298802 128.318334 156.420136 128.155 156.54147 127.991666 156.688469 127.844667 156.861136 127.714 157.033804 127.583333 157.234468 127.478334 157.463136 127.399 157.691804 127.319666 157.950801 127.28 158.240136 127.28 158.501471 127.28 158.730135 127.308 158.926136 127.364L158.744136 128.274C158.622802 128.227333 158.445471 128.204 158.212136 128.204 157.857468 128.204 157.554137 128.271666 157.302136 128.407 157.050135 128.542334 156.840137 128.714999 156.672136 128.925 156.504135 129.135001 156.38047 129.361332 156.301136 129.604 156.221802 129.846668 156.182136 130.079999 156.182136 130.304L156.182136 134 155.258136 134 155.258136 129.492zM169.314136 130.724C169.314136 130.359998 169.255803 130.019335 169.139136 129.702 169.022469 129.384665 168.856804 129.109334 168.642136 128.876 168.427468 128.642666 168.168471 128.458334 167.865136 128.323 167.561801 128.187666 167.218805 128.12 166.836136 128.12 166.453467 128.12 166.110471 128.187666 165.807136 128.323 165.503801 128.458334 165.247137 128.642666 165.037136 128.876 164.827135 129.109334 164.663803 129.384665 164.547136 129.702 164.430469 130.019335 164.372136 130.359998 164.372136 130.724 164.372136 131.088002 164.430469 131.428665 164.547136 131.746 164.663803 132.063335 164.827135 132.338665 165.037136 132.572 165.247137 132.805335 165.503801 132.989666 165.807136 133.125 166.110471 133.260334 166.453467 133.328 166.836136 133.328 167.218805 133.328 167.561801 133.260334 167.865136 133.125 168.168471 132.989666 168.427468 132.805335 168.642136 132.572 168.856804 132.338665 169.022469 132.063335 169.139136 131.746 169.255803 131.428665 169.314136 131.088002 169.314136 130.724L169.314136 130.724zM170.322136 130.724C170.322136 131.218669 170.235804 131.675998 170.063136 132.096 169.890469 132.516002 169.650138 132.879998 169.342136 133.188 169.034135 133.496002 168.667805 133.736332 168.243136 133.909 167.818467 134.081668 167.349472 134.168 166.836136 134.168 166.332134 134.168 165.867805 134.081668 165.443136 133.909 165.018467 133.736332 164.652138 133.496002 164.344136 133.188 164.036135 132.879998 163.795804 132.516002 163.623136 132.096 163.450469 131.675998 163.364136 131.218669 163.364136 130.724 163.364136 130.229331 163.450469 129.772002 163.623136 129.352 163.795804 128.931998 164.036135 128.568002 164.344136 128.26 164.652138 127.951998 165.018467 127.711668 165.443136 127.539 165.867805 127.366332 166.332134 127.28 166.836136 127.28 167.349472 127.28 167.818467 127.366332 168.243136 127.539 168.667805 127.711668 169.034135 127.951998 169.342136 128.26 169.650138 128.568002 169.890469 128.931998 170.063136 129.352 170.235804 129.772002 170.322136 130.229331 170.322136 130.724L170.322136 130.724zM172.674136 130.64C172.674136 130.985335 172.737135 131.309665 172.863136 131.613 172.989137 131.916335 173.161802 132.182332 173.381136 132.411 173.60047 132.639668 173.857135 132.821666 174.151136 132.957 174.445138 133.092334 174.764801 133.16 175.110136 133.16 175.446138 133.16 175.765801 133.099334 176.069136 132.978 176.372471 132.856666 176.640802 132.686334 176.874136 132.467 177.107471 132.247666 177.287135 131.984002 177.413136 131.676 177.539137 131.367998 177.597469 131.022669 177.588136 130.64 177.588136 130.294665 177.532137 129.970335 177.420136 129.667 177.308135 129.363665 177.144804 129.097668 176.930136 128.869 176.715468 128.640332 176.454138 128.458334 176.146136 128.323 175.838135 128.187666 175.492805 128.12 175.110136 128.12 174.764801 128.12 174.445138 128.187666 174.151136 128.323 173.857135 128.458334 173.60047 128.640332 173.381136 128.869 173.161802 129.097668 172.989137 129.363665 172.863136 129.667 172.737135 129.970335 172.674136 130.294665 172.674136 130.64L172.674136 130.64zM172.506136 135.316C172.776804 135.680002 173.129134 135.971666 173.563136 136.191 173.997138 136.410334 174.480133 136.52 175.012136 136.52 175.478805 136.52 175.875468 136.452334 176.202136 136.317 176.528804 136.181666 176.792468 135.997335 176.993136 135.764 177.193804 135.530665 177.338469 135.257668 177.427136 134.945 177.515803 134.632332 177.560136 134.298668 177.560136 133.944L177.560136 132.768 177.532136 132.768C177.233468 133.216002 176.869472 133.533332 176.440136 133.72 176.010801 133.906668 175.558138 134 175.082136 134 174.606134 134 174.160471 133.916001 173.745136 133.748 173.329801 133.579999 172.968138 133.349001 172.660136 133.055 172.352135 132.760999 172.10947 132.408669 171.932136 131.998 171.754802 131.587331 171.666136 131.144002 171.666136 130.668 171.666136 130.191998 171.750135 129.748669 171.918136 129.338 172.086137 128.927331 172.317135 128.568002 172.611136 128.26 172.905138 127.951998 173.255134 127.711668 173.661136 127.539 174.067138 127.366332 174.5128 127.28 174.998136 127.28 175.194137 127.28 175.401802 127.298666 175.621136 127.336 175.84047 127.373334 176.059802 127.438666 176.279136 127.532 176.49847 127.625334 176.715468 127.753666 176.930136 127.917 177.144804 128.080334 177.345468 128.287999 177.532136 128.54L177.560136 128.54 177.560136 127.448 178.484136 127.448 178.484136 133.944C178.484136 134.298668 178.439803 134.676665 178.351136 135.078 178.262469 135.479335 178.089804 135.847998 177.833136 136.184 177.576468 136.520002 177.219472 136.799999 176.762136 137.024 176.3048 137.248001 175.707473 137.36 174.970136 137.36 174.316799 137.36 173.733472 137.252668 173.220136 137.038 172.7068 136.823332 172.240138 136.492002 171.820136 136.044L172.506136 135.316zM187.920136 129.002C187.780135 128.731332 187.593471 128.516667 187.360136 128.358 187.126802 128.199333 186.842138 128.12 186.506136 128.12 186.347469 128.12 186.18647 128.138666 186.023136 128.176 185.859802 128.213334 185.712803 128.271666 185.582136 128.351 185.451469 128.430334 185.34647 128.530666 185.267136 128.652 185.187802 128.773334 185.148136 128.922666 185.148136 129.1 185.148136 129.408002 185.255468 129.631999 185.470136 129.772 185.684804 129.912001 186.006801 130.033333 186.436136 130.136L187.374136 130.36C187.831472 130.462667 188.211801 130.670332 188.515136 130.983 188.818471 131.295668 188.970136 131.685331 188.970136 132.152 188.970136 132.506668 188.897803 132.812332 188.753136 133.069 188.608469 133.325668 188.417137 133.535666 188.179136 133.699 187.941135 133.862334 187.668138 133.981333 187.360136 134.056 187.052135 134.130667 186.739471 134.168 186.422136 134.168 185.918134 134.168 185.449138 134.072334 185.015136 133.881 184.581134 133.689666 184.210138 133.360669 183.902136 132.894L184.700136 132.348C184.886804 132.646668 185.122468 132.884666 185.407136 133.062 185.691804 133.239334 186.030134 133.328 186.422136 133.328 186.608804 133.328 186.795468 133.307 186.982136 133.265 187.168804 133.223 187.334469 133.157667 187.479136 133.069 187.623803 132.980333 187.740469 132.866001 187.829136 132.726 187.917803 132.585999 187.962136 132.422668 187.962136 132.236 187.962136 131.909332 187.840804 131.673667 187.598136 131.529 187.355468 131.384333 187.061471 131.27 186.716136 131.186L185.820136 130.976C185.708135 130.948 185.55647 130.901334 185.365136 130.836 185.173802 130.770666 184.987137 130.672667 184.805136 130.542 184.623135 130.411333 184.466803 130.241001 184.336136 130.031 184.205469 129.820999 184.140136 129.562002 184.140136 129.254 184.140136 128.917998 184.207802 128.624001 184.343136 128.372 184.47847 128.119999 184.660468 127.914667 184.889136 127.756 185.117804 127.597333 185.376801 127.478334 185.666136 127.399 185.955471 127.319666 186.254135 127.28 186.562136 127.28 187.019472 127.28 187.444134 127.368666 187.836136 127.546 188.228138 127.723334 188.531468 128.026665 188.746136 128.456L187.920136 129.002zM192.848136 132.866L194.850136 127.448 195.970136 127.448 192.694136 135.708C192.498135 136.212003 192.248471 136.613332 191.945136 136.912 191.641801 137.210668 191.205472 137.36 190.636136 137.36 190.496135 137.36 190.353803 137.355333 190.209136 137.346 190.064469 137.336667 189.922137 137.308667 189.782136 137.262L189.880136 136.366C190.076137 136.468667 190.309468 136.52 190.580136 136.52 190.906804 136.52 191.163468 136.417334 191.350136 136.212 191.536804 136.006666 191.700135 135.717335 191.840136 135.344L192.316136 134.084 189.628136 127.448 190.790136 127.448 192.848136 132.866zM200.632136 129.002C200.492135 128.731332 200.305471 128.516667 200.072136 128.358 199.838802 128.199333 199.554138 128.12 199.218136 128.12 199.059469 128.12 198.89847 128.138666 198.735136 128.176 198.571802 128.213334 198.424803 128.271666 198.294136 128.351 198.163469 128.430334 198.05847 128.530666 197.979136 128.652 197.899802 128.773334 197.860136 128.922666 197.860136 129.1 197.860136 129.408002 197.967468 129.631999 198.182136 129.772 198.396804 129.912001 198.718801 130.033333 199.148136 130.136L200.086136 130.36C200.543472 130.462667 200.923801 130.670332 201.227136 130.983 201.530471 131.295668 201.682136 131.685331 201.682136 132.152 201.682136 132.506668 201.609803 132.812332 201.465136 133.069 201.320469 133.325668 201.129137 133.535666 200.891136 133.699 200.653135 133.862334 200.380138 133.981333 200.072136 134.056 199.764135 134.130667 199.451471 134.168 199.134136 134.168 198.630134 134.168 198.161138 134.072334 197.727136 133.881 197.293134 133.689666 196.922138 133.360669 196.614136 132.894L197.412136 132.348C197.598804 132.646668 197.834468 132.884666 198.119136 133.062 198.403804 133.239334 198.742134 133.328 199.134136 133.328 199.320804 133.328 199.507468 133.307 199.694136 133.265 199.880804 133.223 200.046469 133.157667 200.191136 133.069 200.335803 132.980333 200.452469 132.866001 200.541136 132.726 200.629803 132.585999 200.674136 132.422668 200.674136 132.236 200.674136 131.909332 200.552804 131.673667 200.310136 131.529 200.067468 131.384333 199.773471 131.27 199.428136 131.186L198.532136 130.976C198.420135 130.948 198.26847 130.901334 198.077136 130.836 197.885802 130.770666 197.699137 130.672667 197.517136 130.542 197.335135 130.411333 197.178803 130.241001 197.048136 130.031 196.917469 129.820999 196.852136 129.562002 196.852136 129.254 196.852136 128.917998 196.919802 128.624001 197.055136 128.372 197.19047 128.119999 197.372468 127.914667 197.601136 127.756 197.829804 127.597333 198.088801 127.478334 198.378136 127.399 198.667471 127.319666 198.966135 127.28 199.274136 127.28 199.731472 127.28 200.156134 127.368666 200.548136 127.546 200.940138 127.723334 201.243468 128.026665 201.458136 128.456L200.632136 129.002zM206.512136 128.288L204.622136 128.288 204.622136 132.152C204.622136 132.394668 204.645469 132.592999 204.692136 132.747 204.738803 132.901001 204.804136 133.02 204.888136 133.104 204.972136 133.188 205.072469 133.246333 205.189136 133.279 205.305803 133.311667 205.434135 133.328 205.574136 133.328 205.732804 133.328 205.896135 133.304667 206.064136 133.258 206.232137 133.211333 206.386135 133.150667 206.526136 133.076L206.568136 133.93C206.222801 134.088667 205.807472 134.168 205.322136 134.168 205.144802 134.168 204.96047 134.144667 204.769136 134.098 204.577802 134.051333 204.402804 133.962667 204.244136 133.832 204.085469 133.701333 203.954803 133.524001 203.852136 133.3 203.749469 133.075999 203.698136 132.782002 203.698136 132.418L203.698136 128.288 202.312136 128.288 202.312136 127.448 203.698136 127.448 203.698136 125.6 204.622136 125.6 204.622136 127.448 206.512136 127.448 206.512136 128.288zM212.868136 130.22C212.868136 129.594664 212.681471 129.088335 212.308136 128.701 211.934801 128.313665 211.412139 128.12 210.740136 128.12 210.441468 128.12 210.152137 128.178333 209.872136 128.295 209.592135 128.411667 209.347137 128.567999 209.137136 128.764 208.927135 128.960001 208.759137 129.183999 208.633136 129.436 208.507135 129.688001 208.444136 129.949332 208.444136 130.22L212.868136 130.22zM208.416136 130.976C208.444136 131.302668 208.523469 131.610665 208.654136 131.9 208.784803 132.189335 208.957468 132.438999 209.172136 132.649 209.386804 132.859001 209.634135 133.024666 209.914136 133.146 210.194137 133.267334 210.497468 133.328 210.824136 133.328 211.318805 133.328 211.745801 133.213668 212.105136 132.985 212.464471 132.756332 212.737468 132.492668 212.924136 132.194L213.638136 132.782C213.246134 133.276669 212.814472 133.631332 212.343136 133.846 211.8718 134.060668 211.365472 134.168 210.824136 134.168 210.3388 134.168 209.888471 134.081668 209.473136 133.909 209.057801 133.736332 208.700804 133.496002 208.402136 133.188 208.103468 132.879998 207.867804 132.516002 207.695136 132.096 207.522469 131.675998 207.436136 131.218669 207.436136 130.724 207.436136 130.229331 207.520135 129.772002 207.688136 129.352 207.856137 128.931998 208.089468 128.568002 208.388136 128.26 208.686804 127.951998 209.036801 127.711668 209.438136 127.539 209.839471 127.366332 210.273467 127.28 210.740136 127.28 211.234805 127.28 211.678134 127.368666 212.070136 127.546 212.462138 127.723334 212.791135 127.958999 213.057136 128.253 213.323137 128.547001 213.526135 128.892331 213.666136 129.289 213.806137 129.685669 213.876136 130.107998 213.876136 130.556L213.876136 130.976 208.416136 130.976zM215.556136 128.904C215.556136 128.661332 215.549136 128.418668 215.535136 128.176 215.521136 127.933332 215.504803 127.690668 215.486136 127.448L216.480136 127.448 216.480136 128.442 216.508136 128.442C216.732137 128.059331 217.042467 127.770001 217.439136 127.574 217.835805 127.377999 218.230134 127.28 218.622136 127.28 218.79947 127.28 218.988468 127.298666 219.189136 127.336 219.389804 127.373334 219.583468 127.441 219.770136 127.539 219.956804 127.637 220.131802 127.774666 220.295136 127.952 220.45847 128.129334 220.596135 128.357999 220.708136 128.638 220.894804 128.217998 221.191134 127.886668 221.597136 127.644 222.003138 127.401332 222.425467 127.28 222.864136 127.28 223.70414 127.28 224.324801 127.501664 224.726136 127.945 225.127471 128.388336 225.328136 129.020663 225.328136 129.842L225.328136 134 224.404136 134 224.404136 130.178C224.404136 129.51533 224.287471 129.006668 224.054136 128.652 223.820802 128.297332 223.386806 128.12 222.752136 128.12 222.406801 128.12 222.117471 128.187666 221.884136 128.323 221.650802 128.458334 221.461803 128.637999 221.317136 128.862 221.172469 129.086001 221.06747 129.340332 221.002136 129.625 220.936802 129.909668 220.904136 130.205998 220.904136 130.514L220.904136 134 219.980136 134 219.980136 130.178C219.980136 129.51533 219.863471 129.006668 219.630136 128.652 219.396802 128.297332 218.962806 128.12 218.328136 128.12 218.272136 128.12 218.143804 128.138666 217.943136 128.176 217.742468 128.213334 217.534804 128.315999 217.320136 128.484 217.105468 128.652001 216.911804 128.903998 216.739136 129.24 216.566469 129.576002 216.480136 130.042664 216.480136 130.64L216.480136 134 215.556136 134 215.556136 128.904zM232.580136 130.22C232.580136 129.594664 232.393471 129.088335 232.020136 128.701 231.646801 128.313665 231.124139 128.12 230.452136 128.12 230.153468 128.12 229.864137 128.178333 229.584136 128.295 229.304135 128.411667 229.059137 128.567999 228.849136 128.764 228.639135 128.960001 228.471137 129.183999 228.345136 129.436 228.219135 129.688001 228.156136 129.949332 228.156136 130.22L232.580136 130.22zM228.128136 130.976C228.156136 131.302668 228.235469 131.610665 228.366136 131.9 228.496803 132.189335 228.669468 132.438999 228.884136 132.649 229.098804 132.859001 229.346135 133.024666 229.626136 133.146 229.906137 133.267334 230.209468 133.328 230.536136 133.328 231.030805 133.328 231.457801 133.213668 231.817136 132.985 232.176471 132.756332 232.449468 132.492668 232.636136 132.194L233.350136 132.782C232.958134 133.276669 232.526472 133.631332 232.055136 133.846 231.5838 134.060668 231.077472 134.168 230.536136 134.168 230.0508 134.168 229.600471 134.081668 229.185136 133.909 228.769801 133.736332 228.412804 133.496002 228.114136 133.188 227.815468 132.879998 227.579804 132.516002 227.407136 132.096 227.234469 131.675998 227.148136 131.218669 227.148136 130.724 227.148136 130.229331 227.232135 129.772002 227.400136 129.352 227.568137 128.931998 227.801468 128.568002 228.100136 128.26 228.398804 127.951998 228.748801 127.711668 229.150136 127.539 229.551471 127.366332 229.985467 127.28 230.452136 127.28 230.946805 127.28 231.390134 127.368666 231.782136 127.546 232.174138 127.723334 232.503135 127.958999 232.769136 128.253 233.035137 128.547001 233.238135 128.892331 233.378136 129.289 233.518137 129.685669 233.588136 130.107998 233.588136 130.556L233.588136 130.976 228.128136 130.976zM235.366136 129.492C235.366136 129.202665 235.359136 128.908668 235.345136 128.61 235.331136 128.311332 235.319469 127.924002 235.310136 127.448L236.220136 127.448 236.220136 128.666 236.248136 128.666C236.31347 128.488666 236.406802 128.318334 236.528136 128.155 236.64947 127.991666 236.796469 127.844667 236.969136 127.714 237.141804 127.583333 237.342468 127.478334 237.571136 127.399 237.799804 127.319666 238.058801 127.28 238.348136 127.28 238.609471 127.28 238.838135 127.308 239.034136 127.364L238.852136 128.274C238.730802 128.227333 238.553471 128.204 238.320136 128.204 237.965468 128.204 237.662137 128.271666 237.410136 128.407 237.158135 128.542334 236.948137 128.714999 236.780136 128.925 236.612135 129.135001 236.48847 129.361332 236.409136 129.604 236.329802 129.846668 236.290136 130.079999 236.290136 130.304L236.290136 134 235.366136 134 235.366136 129.492zM247.280136 129.002C247.140135 128.731332 246.953471 128.516667 246.720136 128.358 246.486802 128.199333 246.202138 128.12 245.866136 128.12 245.707469 128.12 245.54647 128.138666 245.383136 128.176 245.219802 128.213334 245.072803 128.271666 244.942136 128.351 244.811469 128.430334 244.70647 128.530666 244.627136 128.652 244.547802 128.773334 244.508136 128.922666 244.508136 129.1 244.508136 129.408002 244.615468 129.631999 244.830136 129.772 245.044804 129.912001 245.366801 130.033333 245.796136 130.136L246.734136 130.36C247.191472 130.462667 247.571801 130.670332 247.875136 130.983 248.178471 131.295668 248.330136 131.685331 248.330136 132.152 248.330136 132.506668 248.257803 132.812332 248.113136 133.069 247.968469 133.325668 247.777137 133.535666 247.539136 133.699 247.301135 133.862334 247.028138 133.981333 246.720136 134.056 246.412135 134.130667 246.099471 134.168 245.782136 134.168 245.278134 134.168 244.809138 134.072334 244.375136 133.881 243.941134 133.689666 243.570138 133.360669 243.262136 132.894L244.060136 132.348C244.246804 132.646668 244.482468 132.884666 244.767136 133.062 245.051804 133.239334 245.390134 133.328 245.782136 133.328 245.968804 133.328 246.155468 133.307 246.342136 133.265 246.528804 133.223 246.694469 133.157667 246.839136 133.069 246.983803 132.980333 247.100469 132.866001 247.189136 132.726 247.277803 132.585999 247.322136 132.422668 247.322136 132.236 247.322136 131.909332 247.200804 131.673667 246.958136 131.529 246.715468 131.384333 246.421471 131.27 246.076136 131.186L245.180136 130.976C245.068135 130.948 244.91647 130.901334 244.725136 130.836 244.533802 130.770666 244.347137 130.672667 244.165136 130.542 243.983135 130.411333 243.826803 130.241001 243.696136 130.031 243.565469 129.820999 243.500136 129.562002 243.500136 129.254 243.500136 128.917998 243.567802 128.624001 243.703136 128.372 243.83847 128.119999 244.020468 127.914667 244.249136 127.756 244.477804 127.597333 244.736801 127.478334 245.026136 127.399 245.315471 127.319666 245.614135 127.28 245.922136 127.28 246.379472 127.28 246.804134 127.368666 247.196136 127.546 247.588138 127.723334 247.891468 128.026665 248.106136 128.456L247.280136 129.002zM251.116136 124.928C251.116136 125.124001 251.046137 125.284999 250.906136 125.411 250.766135 125.537001 250.612137 125.6 250.444136 125.6 250.276135 125.6 250.122137 125.537001 249.982136 125.411 249.842135 125.284999 249.772136 125.124001 249.772136 124.928 249.772136 124.731999 249.842135 124.571001 249.982136 124.445 250.122137 124.318999 250.276135 124.256 250.444136 124.256 250.612137 124.256 250.766135 124.318999 250.906136 124.445 251.046137 124.571001 251.116136 124.731999 251.116136 124.928L251.116136 124.928zM250.906136 134L249.982136 134 249.982136 127.448 250.906136 127.448 250.906136 134zM254.056136 130.402L257.150136 127.448 258.536136 127.448 255.274136 130.444 258.886136 134 257.458136 134 254.056136 130.556 254.056136 134 253.132136 134 253.132136 123.416 254.056136 123.416 254.056136 130.402zM259.978136 129.492C259.978136 129.202665 259.971136 128.908668 259.957136 128.61 259.943136 128.311332 259.931469 127.924002 259.922136 127.448L260.832136 127.448 260.832136 128.666 260.860136 128.666C260.92547 128.488666 261.018802 128.318334 261.140136 128.155 261.26147 127.991666 261.408469 127.844667 261.581136 127.714 261.753804 127.583333 261.954468 127.478334 262.183136 127.399 262.411804 127.319666 262.670801 127.28 262.960136 127.28 263.221471 127.28 263.450135 127.308 263.646136 127.364L263.464136 128.274C263.342802 128.227333 263.165471 128.204 262.932136 128.204 262.577468 128.204 262.274137 128.271666 262.022136 128.407 261.770135 128.542334 261.560137 128.714999 261.392136 128.925 261.224135 129.135001 261.10047 129.361332 261.021136 129.604 260.941802 129.846668 260.902136 130.079999 260.902136 130.304L260.902136 134 259.978136 134 259.978136 129.492zM269.624136 130.22C269.624136 129.594664 269.437471 129.088335 269.064136 128.701 268.690801 128.313665 268.168139 128.12 267.496136 128.12 267.197468 128.12 266.908137 128.178333 266.628136 128.295 266.348135 128.411667 266.103137 128.567999 265.893136 128.764 265.683135 128.960001 265.515137 129.183999 265.389136 129.436 265.263135 129.688001 265.200136 129.949332 265.200136 130.22L269.624136 130.22zM265.172136 130.976C265.200136 131.302668 265.279469 131.610665 265.410136 131.9 265.540803 132.189335 265.713468 132.438999 265.928136 132.649 266.142804 132.859001 266.390135 133.024666 266.670136 133.146 266.950137 133.267334 267.253468 133.328 267.580136 133.328 268.074805 133.328 268.501801 133.213668 268.861136 132.985 269.220471 132.756332 269.493468 132.492668 269.680136 132.194L270.394136 132.782C270.002134 133.276669 269.570472 133.631332 269.099136 133.846 268.6278 134.060668 268.121472 134.168 267.580136 134.168 267.0948 134.168 266.644471 134.081668 266.229136 133.909 265.813801 133.736332 265.456804 133.496002 265.158136 133.188 264.859468 132.879998 264.623804 132.516002 264.451136 132.096 264.278469 131.675998 264.192136 131.218669 264.192136 130.724 264.192136 130.229331 264.276135 129.772002 264.444136 129.352 264.612137 128.931998 264.845468 128.568002 265.144136 128.26 265.442804 127.951998 265.792801 127.711668 266.194136 127.539 266.595471 127.366332 267.029467 127.28 267.496136 127.28 267.990805 127.28 268.434134 127.368666 268.826136 127.546 269.218138 127.723334 269.547135 127.958999 269.813136 128.253 270.079137 128.547001 270.282135 128.892331 270.422136 129.289 270.562137 129.685669 270.632136 130.107998 270.632136 130.556L270.632136 130.976 265.172136 130.976zM275.700136 128.288L273.810136 128.288 273.810136 132.152C273.810136 132.394668 273.833469 132.592999 273.880136 132.747 273.926803 132.901001 273.992136 133.02 274.076136 133.104 274.160136 133.188 274.260469 133.246333 274.377136 133.279 274.493803 133.311667 274.622135 133.328 274.762136 133.328 274.920804 133.328 275.084135 133.304667 275.252136 133.258 275.420137 133.211333 275.574135 133.150667 275.714136 133.076L275.756136 133.93C275.410801 134.088667 274.995472 134.168 274.510136 134.168 274.332802 134.168 274.14847 134.144667 273.957136 134.098 273.765802 134.051333 273.590804 133.962667 273.432136 133.832 273.273469 133.701333 273.142803 133.524001 273.040136 133.3 272.937469 133.075999 272.886136 132.782002 272.886136 132.418L272.886136 128.288 271.500136 128.288 271.500136 127.448 272.886136 127.448 272.886136 125.6 273.810136 125.6 273.810136 127.448 275.700136 127.448 275.700136 128.288zM115.106136 147.904C115.106136 147.661332 115.099136 147.418668 115.085136 147.176 115.071136 146.933332 115.054803 146.690668 115.036136 146.448L116.030136 146.448 116.030136 147.442 116.058136 147.442C116.282137 147.059331 116.592467 146.770001 116.989136 146.574 117.385805 146.377999 117.780134 146.28 118.172136 146.28 118.34947 146.28 118.538468 146.298666 118.739136 146.336 118.939804 146.373334 119.133468 146.441 119.320136 146.539 119.506804 146.637 119.681802 146.774666 119.845136 146.952 120.00847 147.129334 120.146135 147.357999 120.258136 147.638 120.444804 147.217998 120.741134 146.886668 121.147136 146.644 121.553138 146.401332 121.975467 146.28 122.414136 146.28 123.25414 146.28 123.874801 146.501664 124.276136 146.945 124.677471 147.388336 124.878136 148.020663 124.878136 148.842L124.878136 153 123.954136 153 123.954136 149.178C123.954136 148.51533 123.837471 148.006668 123.604136 147.652 123.370802 147.297332 122.936806 147.12 122.302136 147.12 121.956801 147.12 121.667471 147.187666 121.434136 147.323 121.200802 147.458334 121.011803 147.637999 120.867136 147.862 120.722469 148.086001 120.61747 148.340332 120.552136 148.625 120.486802 148.909668 120.454136 149.205998 120.454136 149.514L120.454136 153 119.530136 153 119.530136 149.178C119.530136 148.51533 119.413471 148.006668 119.180136 147.652 118.946802 147.297332 118.512806 147.12 117.878136 147.12 117.822136 147.12 117.693804 147.138666 117.493136 147.176 117.292468 147.213334 117.084804 147.315999 116.870136 147.484 116.655468 147.652001 116.461804 147.903998 116.289136 148.24 116.116469 148.576002 116.030136 149.042664 116.030136 149.64L116.030136 153 115.106136 153 115.106136 147.904zM132.648136 149.724C132.648136 149.359998 132.589803 149.019335 132.473136 148.702 132.356469 148.384665 132.190804 148.109334 131.976136 147.876 131.761468 147.642666 131.502471 147.458334 131.199136 147.323 130.895801 147.187666 130.552805 147.12 130.170136 147.12 129.787467 147.12 129.444471 147.187666 129.141136 147.323 128.837801 147.458334 128.581137 147.642666 128.371136 147.876 128.161135 148.109334 127.997803 148.384665 127.881136 148.702 127.764469 149.019335 127.706136 149.359998 127.706136 149.724 127.706136 150.088002 127.764469 150.428665 127.881136 150.746 127.997803 151.063335 128.161135 151.338665 128.371136 151.572 128.581137 151.805335 128.837801 151.989666 129.141136 152.125 129.444471 152.260334 129.787467 152.328 130.170136 152.328 130.552805 152.328 130.895801 152.260334 131.199136 152.125 131.502471 151.989666 131.761468 151.805335 131.976136 151.572 132.190804 151.338665 132.356469 151.063335 132.473136 150.746 132.589803 150.428665 132.648136 150.088002 132.648136 149.724L132.648136 149.724zM133.656136 149.724C133.656136 150.218669 133.569804 150.675998 133.397136 151.096 133.224469 151.516002 132.984138 151.879998 132.676136 152.188 132.368135 152.496002 132.001805 152.736332 131.577136 152.909 131.152467 153.081668 130.683472 153.168 130.170136 153.168 129.666134 153.168 129.201805 153.081668 128.777136 152.909 128.352467 152.736332 127.986138 152.496002 127.678136 152.188 127.370135 151.879998 127.129804 151.516002 126.957136 151.096 126.784469 150.675998 126.698136 150.218669 126.698136 149.724 126.698136 149.229331 126.784469 148.772002 126.957136 148.352 127.129804 147.931998 127.370135 147.568002 127.678136 147.26 127.986138 146.951998 128.352467 146.711668 128.777136 146.539 129.201805 146.366332 129.666134 146.28 130.170136 146.28 130.683472 146.28 131.152467 146.366332 131.577136 146.539 132.001805 146.711668 132.368135 146.951998 132.676136 147.26 132.984138 147.568002 133.224469 147.931998 133.397136 148.352 133.569804 148.772002 133.656136 149.229331 133.656136 149.724L133.656136 149.724zM138.724136 147.288L136.834136 147.288 136.834136 151.152C136.834136 151.394668 136.857469 151.592999 136.904136 151.747 136.950803 151.901001 137.016136 152.02 137.100136 152.104 137.184136 152.188 137.284469 152.246333 137.401136 152.279 137.517803 152.311667 137.646135 152.328 137.786136 152.328 137.944804 152.328 138.108135 152.304667 138.276136 152.258 138.444137 152.211333 138.598135 152.150667 138.738136 152.076L138.780136 152.93C138.434801 153.088667 138.019472 153.168 137.534136 153.168 137.356802 153.168 137.17247 153.144667 136.981136 153.098 136.789802 153.051333 136.614804 152.962667 136.456136 152.832 136.297469 152.701333 136.166803 152.524001 136.064136 152.3 135.961469 152.075999 135.910136 151.782002 135.910136 151.418L135.910136 147.288 134.524136 147.288 134.524136 146.448 135.910136 146.448 135.910136 144.6 136.834136 144.6 136.834136 146.448 138.724136 146.448 138.724136 147.288zM147.600136 149.738C147.366802 149.738 147.075138 149.749667 146.725136 149.773 146.375134 149.796333 146.039138 149.852333 145.717136 149.941 145.395134 150.029667 145.119804 150.167332 144.891136 150.354 144.662468 150.540668 144.548136 150.797332 144.548136 151.124 144.548136 151.338668 144.592469 151.522999 144.681136 151.677 144.769803 151.831001 144.888802 151.957 145.038136 152.055 145.18747 152.153 145.353135 152.223 145.535136 152.265 145.717137 152.307 145.901468 152.328 146.088136 152.328 146.424138 152.328 146.715801 152.272001 146.963136 152.16 147.210471 152.047999 147.418135 151.896334 147.586136 151.705 147.754137 151.513666 147.877802 151.289668 147.957136 151.033 148.03647 150.776332 148.076136 150.503335 148.076136 150.214L148.076136 149.738 147.600136 149.738zM148.076136 148.982L148.076136 148.814C148.076136 147.684661 147.516142 147.12 146.396136 147.12 145.630799 147.12 144.963472 147.376664 144.394136 147.89L143.834136 147.232C144.450139 146.59733 145.37413 146.28 146.606136 146.28 146.923471 146.28 147.229135 146.326666 147.523136 146.42 147.817138 146.513334 148.071468 146.655666 148.286136 146.847 148.500804 147.038334 148.673469 147.278665 148.804136 147.568 148.934803 147.857335 149.000136 148.202665 149.000136 148.604L149.000136 151.53C149.000136 151.782001 149.011803 152.045665 149.035136 152.321 149.058469 152.596335 149.084136 152.822666 149.112136 153L148.216136 153C148.188136 152.841333 148.167136 152.668668 148.153136 152.482 148.139136 152.295332 148.132136 152.113334 148.132136 151.936L148.104136 151.936C147.833468 152.374669 147.513805 152.689666 147.145136 152.881 146.776468 153.072334 146.326139 153.168 145.794136 153.168 145.504801 153.168 145.224804 153.128334 144.954136 153.049 144.683468 152.969666 144.443137 152.848334 144.233136 152.685 144.023135 152.521666 143.855137 152.321001 143.729136 152.083 143.603135 151.844999 143.540136 151.567335 143.540136 151.25 143.540136 150.717997 143.677801 150.300335 143.953136 149.997 144.228471 149.693665 144.573801 149.467334 144.989136 149.318 145.404471 149.168666 145.8478 149.075334 146.319136 149.038 146.790472 149.000666 147.222134 148.982 147.614136 148.982L148.076136 148.982zM152.024136 146.448C152.042803 146.625334 152.054469 146.800332 152.059136 146.973 152.063803 147.145668 152.066136 147.320666 152.066136 147.498L152.094136 147.498C152.196803 147.320666 152.327469 147.157334 152.486136 147.008 152.644804 146.858666 152.822135 146.730334 153.018136 146.623 153.214137 146.515666 153.421802 146.431667 153.641136 146.371 153.86047 146.310333 154.077468 146.28 154.292136 146.28 155.13214 146.28 155.752801 146.501664 156.154136 146.945 156.555471 147.388336 156.756136 148.020663 156.756136 148.842L156.756136 153 155.832136 153 155.832136 149.374C155.832136 148.645996 155.706137 148.088335 155.454136 147.701 155.202135 147.313665 154.735473 147.12 154.054136 147.12 154.007469 147.12 153.876804 147.138666 153.662136 147.176 153.447468 147.213334 153.221137 147.315999 152.983136 147.484 152.745135 147.652001 152.532804 147.903998 152.346136 148.24 152.159468 148.576002 152.066136 149.042664 152.066136 149.64L152.066136 153 151.142136 153 151.142136 147.89C151.142136 147.712666 151.135136 147.488668 151.121136 147.218 151.107136 146.947332 151.090803 146.690668 151.072136 146.448L152.024136 146.448zM159.598136 149.64C159.598136 149.985335 159.661135 150.309665 159.787136 150.613 159.913137 150.916335 160.085802 151.182332 160.305136 151.411 160.52447 151.639668 160.781135 151.821666 161.075136 151.957 161.369138 152.092334 161.688801 152.16 162.034136 152.16 162.370138 152.16 162.689801 152.099334 162.993136 151.978 163.296471 151.856666 163.564802 151.686334 163.798136 151.467 164.031471 151.247666 164.211135 150.984002 164.337136 150.676 164.463137 150.367998 164.521469 150.022669 164.512136 149.64 164.512136 149.294665 164.456137 148.970335 164.344136 148.667 164.232135 148.363665 164.068804 148.097668 163.854136 147.869 163.639468 147.640332 163.378138 147.458334 163.070136 147.323 162.762135 147.187666 162.416805 147.12 162.034136 147.12 161.688801 147.12 161.369138 147.187666 161.075136 147.323 160.781135 147.458334 160.52447 147.640332 160.305136 147.869 160.085802 148.097668 159.913137 148.363665 159.787136 148.667 159.661135 148.970335 159.598136 149.294665 159.598136 149.64L159.598136 149.64zM159.430136 154.316C159.700804 154.680002 160.053134 154.971666 160.487136 155.191 160.921138 155.410334 161.404133 155.52 161.936136 155.52 162.402805 155.52 162.799468 155.452334 163.126136 155.317 163.452804 155.181666 163.716468 154.997335 163.917136 154.764 164.117804 154.530665 164.262469 154.257668 164.351136 153.945 164.439803 153.632332 164.484136 153.298668 164.484136 152.944L164.484136 151.768 164.456136 151.768C164.157468 152.216002 163.793472 152.533332 163.364136 152.72 162.934801 152.906668 162.482138 153 162.006136 153 161.530134 153 161.084471 152.916001 160.669136 152.748 160.253801 152.579999 159.892138 152.349001 159.584136 152.055 159.276135 151.760999 159.03347 151.408669 158.856136 150.998 158.678802 150.587331 158.590136 150.144002 158.590136 149.668 158.590136 149.191998 158.674135 148.748669 158.842136 148.338 159.010137 147.927331 159.241135 147.568002 159.535136 147.26 159.829138 146.951998 160.179134 146.711668 160.585136 146.539 160.991138 146.366332 161.4368 146.28 161.922136 146.28 162.118137 146.28 162.325802 146.298666 162.545136 146.336 162.76447 146.373334 162.983802 146.438666 163.203136 146.532 163.42247 146.625334 163.639468 146.753666 163.854136 146.917 164.068804 147.080334 164.269468 147.287999 164.456136 147.54L164.484136 147.54 164.484136 146.448 165.408136 146.448 165.408136 152.944C165.408136 153.298668 165.363803 153.676665 165.275136 154.078 165.186469 154.479335 165.013804 154.847998 164.757136 155.184 164.500468 155.520002 164.143472 155.799999 163.686136 156.024 163.2288 156.248001 162.631473 156.36 161.894136 156.36 161.240799 156.36 160.657472 156.252668 160.144136 156.038 159.6308 155.823332 159.164138 155.492002 158.744136 155.044L159.430136 154.316zM167.578136 148.492C167.578136 148.202665 167.571136 147.908668 167.557136 147.61 167.543136 147.311332 167.531469 146.924002 167.522136 146.448L168.432136 146.448 168.432136 147.666 168.460136 147.666C168.52547 147.488666 168.618802 147.318334 168.740136 147.155 168.86147 146.991666 169.008469 146.844667 169.181136 146.714 169.353804 146.583333 169.554468 146.478334 169.783136 146.399 170.011804 146.319666 170.270801 146.28 170.560136 146.28 170.821471 146.28 171.050135 146.308 171.246136 146.364L171.064136 147.274C170.942802 147.227333 170.765471 147.204 170.532136 147.204 170.177468 147.204 169.874137 147.271666 169.622136 147.407 169.370135 147.542334 169.160137 147.714999 168.992136 147.925 168.824135 148.135001 168.70047 148.361332 168.621136 148.604 168.541802 148.846668 168.502136 149.079999 168.502136 149.304L168.502136 153 167.578136 153 167.578136 148.492zM177.224136 149.22C177.224136 148.594664 177.037471 148.088335 176.664136 147.701 176.290801 147.313665 175.768139 147.12 175.096136 147.12 174.797468 147.12 174.508137 147.178333 174.228136 147.295 173.948135 147.411667 173.703137 147.567999 173.493136 147.764 173.283135 147.960001 173.115137 148.183999 172.989136 148.436 172.863135 148.688001 172.800136 148.949332 172.800136 149.22L177.224136 149.22zM172.772136 149.976C172.800136 150.302668 172.879469 150.610665 173.010136 150.9 173.140803 151.189335 173.313468 151.438999 173.528136 151.649 173.742804 151.859001 173.990135 152.024666 174.270136 152.146 174.550137 152.267334 174.853468 152.328 175.180136 152.328 175.674805 152.328 176.101801 152.213668 176.461136 151.985 176.820471 151.756332 177.093468 151.492668 177.280136 151.194L177.994136 151.782C177.602134 152.276669 177.170472 152.631332 176.699136 152.846 176.2278 153.060668 175.721472 153.168 175.180136 153.168 174.6948 153.168 174.244471 153.081668 173.829136 152.909 173.413801 152.736332 173.056804 152.496002 172.758136 152.188 172.459468 151.879998 172.223804 151.516002 172.051136 151.096 171.878469 150.675998 171.792136 150.218669 171.792136 149.724 171.792136 149.229331 171.876135 148.772002 172.044136 148.352 172.212137 147.931998 172.445468 147.568002 172.744136 147.26 173.042804 146.951998 173.392801 146.711668 173.794136 146.539 174.195471 146.366332 174.629467 146.28 175.096136 146.28 175.590805 146.28 176.034134 146.368666 176.426136 146.546 176.818138 146.723334 177.147135 146.958999 177.413136 147.253 177.679137 147.547001 177.882135 147.892331 178.022136 148.289 178.162137 148.685669 178.232136 149.107998 178.232136 149.556L178.232136 149.976 172.772136 149.976zM185.890136 149.724C185.890136 149.359998 185.831803 149.019335 185.715136 148.702 185.598469 148.384665 185.432804 148.109334 185.218136 147.876 185.003468 147.642666 184.744471 147.458334 184.441136 147.323 184.137801 147.187666 183.794805 147.12 183.412136 147.12 183.029467 147.12 182.679471 147.187666 182.362136 147.323 182.044801 147.458334 181.769471 147.642666 181.536136 147.876 181.302802 148.109334 181.120803 148.384665 180.990136 148.702 180.859469 149.019335 180.794136 149.359998 180.794136 149.724 180.794136 150.088002 180.859469 150.428665 180.990136 150.746 181.120803 151.063335 181.302802 151.338665 181.536136 151.572 181.769471 151.805335 182.044801 151.989666 182.362136 152.125 182.679471 152.260334 183.029467 152.328 183.412136 152.328 183.794805 152.328 184.137801 152.260334 184.441136 152.125 184.744471 151.989666 185.003468 151.805335 185.218136 151.572 185.432804 151.338665 185.598469 151.063335 185.715136 150.746 185.831803 150.428665 185.890136 150.088002 185.890136 149.724L185.890136 149.724zM179.912136 146.448L180.836136 146.448 180.836136 147.54 180.864136 147.54C181.01347 147.315999 181.190802 147.124667 181.396136 146.966 181.60147 146.807333 181.816135 146.676667 182.040136 146.574 182.264137 146.471333 182.495135 146.396667 182.733136 146.35 182.971137 146.303333 183.197468 146.28 183.412136 146.28 183.925472 146.28 184.394467 146.366332 184.819136 146.539 185.243805 146.711668 185.610135 146.951998 185.918136 147.26 186.226138 147.568002 186.466469 147.931998 186.639136 148.352 186.811804 148.772002 186.898136 149.229331 186.898136 149.724 186.898136 150.218669 186.811804 150.675998 186.639136 151.096 186.466469 151.516002 186.226138 151.879998 185.918136 152.188 185.610135 152.496002 185.243805 152.736332 184.819136 152.909 184.394467 153.081668 183.925472 153.168 183.412136 153.168 183.197468 153.168 182.971137 153.144667 182.733136 153.098 182.495135 153.051333 182.264137 152.976667 182.040136 152.874 181.816135 152.771333 181.60147 152.640667 181.396136 152.482 181.190802 152.323333 181.01347 152.132001 180.864136 151.908L180.836136 151.908 180.836136 157.032 179.912136 157.032 179.912136 146.448zM126.08863 163.453125L118.49488 186 113.362067 186 120.135505 166.03125 112.846442 166.03125 112.846442 163.453125 126.08863 163.453125zM144.18238 178.289062C144.18238 179.351568 143.979257 180.351558 143.573005 181.289062 143.166753 182.226567 142.615977 183.042965 141.920661 183.738281 141.225345 184.433597 140.408947 184.984373 139.471442 185.390625 138.533938 185.796877 137.533948 186 136.471442 186 135.330812 186 134.272228 185.785158 133.295661 185.355469 132.319094 184.925779 131.479258 184.312504 130.77613 183.515625L132.604255 181.710938C132.854256 182.132815 133.248783 182.48828 133.787849 182.777344 134.326914 183.066408 134.916752 183.257812 135.55738 183.351562 136.198008 183.445313 136.842533 183.441407 137.490974 183.339844 138.139414 183.238281 138.69019 183.007814 139.143317 182.648438L139.143317 173.929688C138.705815 173.601561 138.143321 173.363282 137.455817 173.214844 136.768314 173.066406 136.037852 173.066406 135.264411 173.214844 134.49097 173.363282 133.709727 173.691404 132.920661 174.199219 132.131595 174.707034 131.416758 175.460933 130.77613 176.460938L132.533942 163.453125 142.799567 163.453125 142.799567 166.03125 137.174567 166.03125 136.541755 170.601562C137.60426 170.601562 138.600344 170.804685 139.530036 171.210938 140.459728 171.61719 141.268314 172.167965 141.955817 172.863281 142.643321 173.558597 143.186284 174.371089 143.584724 175.300781 143.983163 176.230473 144.18238 177.226557 144.18238 178.289062L144.18238 178.289062zM156.8357 174.011719L151.579841 186 150.542731 186 155.816169 174.011719 156.8357 174.011719zM162.478278 186L162.478278 176.349609 164.974372 176.349609 164.974372 178.168945C165.736095 176.809564 166.820068 176.129883 168.226325 176.129883 168.952891 176.129883 169.550542 176.308592 170.019294 176.666016 170.488046 177.023439 170.775153 177.524411 170.880622 178.168945 171.78297 176.809564 172.872803 176.129883 174.150153 176.129883 175.913834 176.129883 176.795661 177.102529 176.795661 179.047852L176.795661 186 174.299567 186 174.299567 179.900391C174.299567 178.757807 173.918712 178.186523 173.156989 178.186523 172.377688 178.186523 171.618907 178.749018 170.880622 179.874023L170.880622 186 168.384528 186 168.384528 179.900391C168.384528 178.751947 168.000743 178.177734 167.233161 178.177734 166.465579 178.177734 165.712657 178.743158 164.974372 179.874023L164.974372 186 162.478278 186zM179.933356 186L179.933356 176.349609 182.534919 176.349609 182.534919 178.168945C183.384532 176.809564 184.480225 176.129883 185.822028 176.129883 186.683361 176.129883 187.363041 176.402341 187.861091 176.947266 188.35914 177.49219 188.608161 178.236323 188.608161 179.179688L188.608161 186 186.006599 186 186.006599 179.821289C186.006599 178.72558 185.643321 178.177734 184.916755 178.177734 184.090579 178.177734 183.296641 178.760736 182.534919 179.926758L182.534919 186 179.933356 186zM197.827888 186L197.827888 184.180664C197.159916 185.540046 196.108168 186.219727 194.672614 186.219727 193.512452 186.219727 192.601328 185.794926 191.939216 184.945312 191.277103 184.095699 190.946052 182.926765 190.946052 181.438477 190.946052 179.821281 191.319583 178.532231 192.066657 177.571289 192.813731 176.610347 193.817139 176.129883 195.076911 176.129883 196.084729 176.129883 197.001712 176.528316 197.827888 177.325195L197.827888 172.12207 200.438239 172.12207 200.438239 186 197.827888 186zM197.827888 178.87207C197.200931 178.168942 196.53004 177.817383 195.815192 177.817383 195.176517 177.817383 194.666757 178.124997 194.285895 178.740234 193.905034 179.355472 193.714606 180.181635 193.714606 181.21875 193.714606 183.193369 194.347413 184.180664 195.613044 184.180664 196.386485 184.180664 197.124759 183.685552 197.827888 182.695312L197.827888 178.87207z"/>
  </g>
</svg>
