<svg xmlns="http://www.w3.org/2000/svg" width="207" height="141" viewBox="0 0 207 141" xmlns:xlink="http://www.w3.org/1999/xlink">
  <defs>
    <rect id="b" width="198.265" height="132.282" rx="10"/>
    <filter id="a" width="200%" height="200%" x="-50%" y="-50%" filterUnits="objectBoundingBox">
      <feOffset dy="2" in="SourceAlpha" result="shadowOffsetOuter1"/>
      <feGaussianBlur stdDeviation="2" in="shadowOffsetOuter1" result="shadowBlurOuter1"/>
      <feColorMatrix values="0 0 0 0 0 0 0 0 0 0 0 0 0 0 0 0 0 0 0.5 0" in="shadowBlurOuter1"/>
    </filter>
  </defs>
  <g fill="none" fill-rule="evenodd" transform="translate(4.36 2.083)">
    <use fill="black" filter="url(#a)" xlink:href="#b"/>
    <use fill="#007AFF" xlink:href="#b"/>
    <path fill="#4A4A4A" d="M82.6103041,33.8036768 L82.6103041,42.1648265 C82.6103041,49.5528472 88.6490017,55.5583596 96.0888011,55.5583596 L102.836811,55.5583596 C110.278286,55.5583596 116.315308,49.5605224 116.315308,42.1648265 L116.315308,33.8036768 C116.315308,31.0251635 114.057959,28.7712934 111.267833,28.7712934 L87.6577791,28.7712934 C84.8673465,28.7712934 82.6103041,31.0261041 82.6103041,33.8036768 L82.6103041,33.8036768 L82.6103041,33.8036768 Z M85.9808045,33.8036768 C85.9808045,32.8711849 86.7330566,32.1196767 87.6577791,32.1196767 L111.267833,32.1196767 C112.192669,32.1196767 112.944808,32.8706564 112.944808,33.8036768 L112.944808,42.1648265 C112.944808,47.711315 108.416756,52.2099763 102.836811,52.2099763 L96.0888011,52.2099763 C90.5112877,52.2099763 85.9808045,47.70439 85.9808045,42.1648265 L85.9808045,33.8036768 L85.9808045,33.8036768 L85.9808045,33.8036768 Z M91.0365551,28.7712934 L91.0365551,13.6986496 C91.0365551,9.08258228 94.8160776,5.33261041 99.4628061,5.33261041 C104.115648,5.33261041 107.889057,9.08013414 107.889057,13.6986496 L107.889057,28.7712934 L111.259558,28.7712934 L111.259558,13.6986496 C111.259558,7.2306484 105.976898,1.98422713 99.4628061,1.98422713 C92.9555561,1.98422713 87.6660547,7.23237183 87.6660547,13.6986496 L87.6660547,28.7712934 L91.0365551,28.7712934 L91.0365551,28.7712934 L91.0365551,28.7712934 Z M99.4628061,47.1874014 C96.6705924,47.1874014 94.4070555,44.938718 94.4070555,42.1648265 C94.4070555,39.390935 96.6705924,37.1422516 99.4628061,37.1422516 C102.25502,37.1422516 104.518557,39.390935 104.518557,42.1648265 C104.518557,44.938718 102.25502,47.1874014 99.4628061,47.1874014 L99.4628061,47.1874014 L99.4628061,47.1874014 Z M99.4628061,45.5132098 C101.324282,45.5132098 102.833307,44.0140875 102.833307,42.1648265 C102.833307,40.3155655 101.324282,38.8164432 99.4628061,38.8164432 C97.6013303,38.8164432 96.0923057,40.3155655 96.0923057,42.1648265 C96.0923057,44.0140875 97.6013303,45.5132098 99.4628061,45.5132098 L99.4628061,45.5132098 L99.4628061,45.5132098 Z"/>
    <path fill="#E1E4E7" d="M40.5895063,63.7346982 C40.2167667,63.1870488 39.6735268,62.9132282 38.9597702,62.9132282 C38.7377126,62.9132282 38.5196236,62.9429913 38.3054966,63.0025184 C38.0913696,63.0620455 37.8990547,63.1533191 37.7285462,63.2763417 C37.5580377,63.3993644 37.4212364,63.558101 37.3181382,63.7525563 C37.2150401,63.9470115 37.1634917,64.1751953 37.1634917,64.4371146 C37.1634917,64.8180881 37.2705536,65.113735 37.4846806,65.3240641 C37.6988076,65.5343933 37.9644796,65.7070193 38.2817048,65.8419474 C38.59893,65.9768755 38.9458898,66.0979122 39.3225946,66.205061 C39.6992995,66.3122099 40.0462593,66.4550729 40.3634845,66.633654 C40.6807096,66.8122352 40.9463817,67.0483562 41.1605087,67.3420231 C41.3746357,67.6356901 41.4816975,68.0365 41.4816975,68.5444648 C41.4816975,68.9254384 41.4004099,69.2687064 41.2378319,69.5742787 C41.075254,69.879851 40.8611303,70.1358136 40.5954542,70.3421746 C40.3297781,70.5485355 40.032384,70.7072717 39.7032629,70.8183891 C39.3741419,70.9295064 39.0430431,70.9850641 38.7099566,70.9850641 C38.1944657,70.9850641 37.7047568,70.8878377 37.240815,70.6933828 C36.7768732,70.4989278 36.3823303,70.1794699 36.0571745,69.7350011 L36.830407,69.175449 C37.0128115,69.4849898 37.2665878,69.7330162 37.5917435,69.9195342 C37.9168993,70.1060522 38.3015291,70.1993102 38.7456443,70.1993102 C38.9597713,70.1993102 39.173895,70.165579 39.388022,70.0981146 C39.602149,70.0306502 39.7944639,69.9314402 39.9649724,69.8004805 C40.1354809,69.6695209 40.2762475,69.5087998 40.3872762,69.3183134 C40.4983051,69.1278269 40.5538186,68.9095639 40.5538186,68.6635184 C40.5538186,68.3698515 40.4923572,68.1257935 40.3694324,67.9313386 C40.2465077,67.7368837 40.0839322,67.5741784 39.8817012,67.4432187 C39.6794702,67.3122591 39.4494854,67.2031279 39.1917399,67.1158212 C38.9339945,67.0285146 38.6683224,66.9412099 38.3947157,66.8539033 C38.121109,66.7665966 37.8554369,66.6673866 37.5976915,66.5562692 C37.3399461,66.4451518 37.1099613,66.304273 36.9077302,66.1336288 C36.7054992,65.9629844 36.5429238,65.7486901 36.419999,65.4907392 C36.2970743,65.2327884 36.2356128,64.9093626 36.2356128,64.5204522 C36.2356128,64.1156678 36.3129353,63.7624789 36.4675825,63.4608749 C36.6222298,63.1592708 36.8284231,62.9092607 37.0861685,62.710837 C37.3439139,62.5124133 37.6353602,62.365582 37.9605159,62.2703386 C38.2856717,62.1750952 38.6187532,62.1274742 38.9597702,62.1274742 C39.4356079,62.1274742 39.8678207,62.2028741 40.2564215,62.3536761 C40.6450224,62.5044781 41.0058605,62.7703619 41.3389469,63.1513354 L40.5895063,63.7346982 L40.5895063,63.7346982 Z M44.0750002,70.7707676 L43.2184966,70.7707676 L43.2184966,62.3417708 L44.0750002,62.3417708 L44.0750002,70.7707676 L44.0750002,70.7707676 Z M47.2155135,65.9967171 L47.2274094,65.9967171 L47.3344724,65.9967171 L51.2958017,62.3417708 L52.5210777,62.3417708 L48.2742472,66.1633922 L52.7589954,70.7707676 L51.4980317,70.7707676 L47.3582641,66.4253102 L47.2274094,66.4253102 L47.2155135,66.4253102 L47.2155135,70.7707676 L46.3590099,70.7707676 L46.3590099,62.3417708 L47.2155135,62.3417708 L47.2155135,65.9967171 L47.2155135,65.9967171 Z M54.7099203,65.9967171 L54.7218162,65.9967171 L54.8288791,65.9967171 L58.7902084,62.3417708 L60.0154845,62.3417708 L55.768654,66.1633922 L60.2534022,70.7707676 L58.9924385,70.7707676 L54.8526709,66.4253102 L54.7218162,66.4253102 L54.7099203,66.4253102 L54.7099203,70.7707676 L53.8534167,70.7707676 L53.8534167,62.3417708 L54.7099203,62.3417708 L54.7099203,65.9967171 L54.7099203,65.9967171 Z M62.2043271,69.9850137 L66.7128671,69.9850137 L66.7128671,70.7707676 L61.3478235,70.7707676 L61.3478235,62.3417708 L66.5701164,62.3417708 L66.5701164,63.1275247 L62.2043271,63.1275247 L62.2043271,65.9967171 L66.2846152,65.9967171 L66.2846152,66.7824711 L62.2043271,66.7824711 L62.2043271,69.9850137 L62.2043271,69.9850137 Z M69.2585862,66.0681493 L70.7812593,66.0681493 C71.1619296,66.0681493 71.4850978,66.0284652 71.7507738,65.9490957 C72.0164499,65.8697262 72.2285912,65.7645632 72.3872036,65.6336036 C72.5458161,65.5026439 72.6608089,65.3478758 72.7321843,65.1692944 C72.8035602,64.9907131 72.8392472,64.798245 72.8392472,64.5918843 C72.8392472,64.3934606 72.8035602,64.204961 72.7321843,64.0263796 C72.6608089,63.8477983 72.5458161,63.6910459 72.3872036,63.5561178 C72.2285912,63.4211897 72.0164499,63.3160267 71.7507738,63.2406257 C71.4850978,63.1652246 71.1619296,63.1275247 70.7812593,63.1275247 L69.2585862,63.1275247 L69.2585862,66.0681493 L69.2585862,66.0681493 Z M69.2585862,70.7707676 L68.4020826,70.7707676 L68.4020826,62.3417708 L70.9953852,62.3417708 C71.8518935,62.3417708 72.5279689,62.5282863 73.0236334,62.9013228 C73.5192979,63.2743594 73.7671261,63.8378743 73.7671261,64.5918843 C73.7671261,65.1792185 73.5827419,65.6732861 73.2139675,66.074102 C72.8451932,66.4749179 72.3118663,66.7070705 71.6139712,66.7705657 L74.0407315,70.7707676 L72.9938937,70.7707676 L70.6860922,66.8539033 L69.2585862,66.8539033 L69.2585862,70.7707676 L69.2585862,70.7707676 Z M75.4563416,62.3417708 L76.3128453,62.3417708 L76.3128453,65.9967171 L80.9046564,65.9967171 L80.9046564,62.3417708 L81.76116,62.3417708 L81.76116,70.7707676 L80.9046564,70.7707676 L80.9046564,66.7824711 L76.3128453,66.7824711 L76.3128453,70.7707676 L75.4563416,70.7707676 L75.4563416,62.3417708 L75.4563416,62.3417708 Z M84.9016734,69.9850137 L89.4102133,69.9850137 L89.4102133,70.7707676 L84.0451697,70.7707676 L84.0451697,62.3417708 L89.2674627,62.3417708 L89.2674627,63.1275247 L84.9016734,63.1275247 L84.9016734,65.9967171 L88.9819615,65.9967171 L88.9819615,66.7824711 L84.9016734,66.7824711 L84.9016734,69.9850137 L84.9016734,69.9850137 Z M93.7997944,70.7707676 L92.9432908,70.7707676 L92.9432908,63.1275247 L90.1239664,63.1275247 L90.1239664,62.3417708 L96.6191189,62.3417708 L96.6191189,63.1275247 L93.7997944,63.1275247 L93.7997944,70.7707676 L93.7997944,70.7707676 Z M101.912787,63.7346982 C101.540048,63.1870488 100.996807,62.9132282 100.283051,62.9132282 C100.060993,62.9132282 99.8429047,62.9429913 99.6287775,63.0025184 C99.4146503,63.0620455 99.2223355,63.1533191 99.0518271,63.2763417 C98.8813188,63.3993644 98.7445175,63.558101 98.6414191,63.7525563 C98.5383208,63.9470115 98.4867727,64.1751953 98.4867727,64.4371146 C98.4867727,64.8180881 98.5938343,65.113735 98.8079615,65.3240641 C99.0220887,65.5343933 99.2877608,65.7070193 99.6049857,65.8419474 C99.9222106,65.9768755 100.269171,66.0979122 100.645876,66.205061 C101.022581,66.3122099 101.369541,66.4550729 101.686765,66.633654 C102.00399,66.8122352 102.269662,67.0483562 102.48379,67.3420231 C102.697917,67.6356901 102.804978,68.0365 102.804978,68.5444648 C102.804978,68.9254384 102.723691,69.2687064 102.561113,69.5742787 C102.398535,69.879851 102.184411,70.1358136 101.918735,70.3421746 C101.653059,70.5485355 101.355665,70.7072717 101.026544,70.8183891 C100.697423,70.9295064 100.366324,70.9850641 100.033238,70.9850641 C99.5177466,70.9850641 99.028038,70.8878377 98.5640959,70.6933828 C98.1001544,70.4989278 97.7056116,70.1794699 97.3804555,69.7350011 L98.1536879,69.175449 C98.3360921,69.4849898 98.589869,69.7330162 98.9150245,69.9195342 C99.2401806,70.1060522 99.6248102,70.1993102 100.068925,70.1993102 C100.283052,70.1993102 100.497176,70.165579 100.711303,70.0981146 C100.92543,70.0306502 101.117745,69.9314402 101.288253,69.8004805 C101.458762,69.6695209 101.599528,69.5087998 101.710557,69.3183134 C101.821586,69.1278269 101.8771,68.9095639 101.8771,68.6635184 C101.8771,68.3698515 101.815638,68.1257935 101.692713,67.9313386 C101.569789,67.7368837 101.407213,67.5741784 101.204982,67.4432187 C101.002751,67.3122591 100.772766,67.2031279 100.515021,67.1158212 C100.257275,67.0285146 99.9916033,66.9412099 99.7179966,66.8539033 C99.44439,66.7665966 99.1787179,66.6673866 98.9209724,66.5562692 C98.6632269,66.4451518 98.4332425,66.304273 98.2310112,66.1336288 C98.0287805,65.9629844 97.8662047,65.7486901 97.7432799,65.4907392 C97.6203551,65.2327884 97.5588937,64.9093626 97.5588937,64.5204522 C97.5588937,64.1156678 97.6362163,63.7624789 97.7908635,63.4608749 C97.9455106,63.1592708 98.1517039,62.9092607 98.4094494,62.710837 C98.6671949,62.5124133 98.9586414,62.365582 99.2837969,62.2703386 C99.608953,62.1750952 99.9420338,62.1274742 100.283051,62.1274742 C100.758889,62.1274742 101.191102,62.2028741 101.579702,62.3536761 C101.968303,62.5044781 102.329142,62.7703619 102.662228,63.1513354 L101.912787,63.7346982 L101.912787,63.7346982 Z M105.398281,66.0681493 L106.778204,66.0681493 C107.158874,66.0681493 107.482042,66.0284652 107.747718,65.9490957 C108.013394,65.8697262 108.225536,65.7645632 108.384148,65.6336036 C108.54276,65.5026439 108.657753,65.3478758 108.729129,65.1692944 C108.800505,64.9907131 108.836192,64.798245 108.836192,64.5918843 C108.836192,64.3934606 108.800505,64.204961 108.729129,64.0263796 C108.657753,63.8477983 108.54276,63.6910459 108.384148,63.5561178 C108.225536,63.4211897 108.013394,63.3160267 107.747718,63.2406257 C107.482042,63.1652246 107.158874,63.1275247 106.778204,63.1275247 L105.398281,63.1275247 L105.398281,66.0681493 L105.398281,66.0681493 Z M104.541778,62.3417708 L106.99233,62.3417708 C107.848838,62.3417708 108.524913,62.5282863 109.020578,62.9013228 C109.516242,63.2743594 109.76407,63.8378743 109.76407,64.5918843 C109.76407,65.3458944 109.516242,65.9113935 109.020578,66.2883985 C108.524913,66.6654037 107.848838,66.8539033 106.99233,66.8539033 L105.398281,66.8539033 L105.398281,70.7707676 L104.541778,70.7707676 L104.541778,62.3417708 L104.541778,62.3417708 Z M112.476332,67.7706162 L116.128368,67.7706162 L114.308298,63.3418212 L112.476332,67.7706162 L112.476332,67.7706162 Z M111.227264,70.7707676 L110.22801,70.7707676 L113.891942,62.3417708 L114.724654,62.3417708 L118.388586,70.7707676 L117.389332,70.7707676 L116.461453,68.5563701 L112.155143,68.5563701 L111.227264,70.7707676 L111.227264,70.7707676 Z M122.230957,70.7707676 L121.374453,70.7707676 L121.374453,63.1275247 L118.555129,63.1275247 L118.555129,62.3417708 L125.050281,62.3417708 L125.050281,63.1275247 L122.230957,63.1275247 L122.230957,70.7707676 L122.230957,70.7707676 Z M133.294129,69.437367 C133.151377,69.6516648 132.974924,69.854054 132.764762,70.0445405 C132.5546,70.2350269 132.314702,70.3997165 132.045061,70.538613 C131.775419,70.6775096 131.483973,70.7866408 131.170713,70.8660105 C130.857454,70.9453803 130.526355,70.9850641 130.177407,70.9850641 C129.550887,70.9850641 128.969978,70.8739487 128.43466,70.651714 C127.899343,70.4294792 127.435408,70.1219273 127.042842,69.7290484 C126.650276,69.3361694 126.342969,68.8698807 126.120911,68.3301682 C125.898853,67.7904558 125.787826,67.1991621 125.787826,66.5562692 C125.787826,65.9133764 125.898853,65.3220826 126.120911,64.7823701 C126.342969,64.2426576 126.650276,63.776369 127.042842,63.38349 C127.435408,62.9906111 127.899343,62.683059 128.43466,62.4608244 C128.969978,62.2385898 129.550887,62.1274742 130.177407,62.1274742 C130.700829,62.1274742 131.224242,62.230653 131.747664,62.4370137 C132.271085,62.6433743 132.719159,62.984658 133.091899,63.4608749 L132.342458,64.0204269 C132.255221,63.8854988 132.136263,63.7505727 131.985581,63.6156446 C131.8349,63.4807165 131.662411,63.361664 131.46811,63.2584837 C131.27381,63.1553034 131.065634,63.0719667 130.843577,63.0084711 C130.621519,62.9449755 130.399465,62.9132282 130.177407,62.9132282 C129.638124,62.9132282 129.154363,63.0124385 128.726109,63.2108623 C128.297855,63.409286 127.935034,63.6751697 127.637636,64.0085216 C127.340237,64.3418734 127.112235,64.7287938 126.953623,65.1692944 C126.79501,65.609795 126.715705,66.0721153 126.715705,66.5562692 C126.715705,67.0404233 126.79501,67.5027435 126.953623,67.943244 C127.112235,68.3837444 127.340237,68.7706647 127.637636,69.1040168 C127.935034,69.437369 128.297855,69.7032528 128.726109,69.9016761 C129.154363,70.1001002 129.638124,70.1993102 130.177407,70.1993102 C130.399465,70.1993102 130.619536,70.1794679 130.837629,70.1397834 C131.055721,70.1000988 131.269844,70.0326358 131.480006,69.9373922 C131.690168,69.8421487 131.888431,69.7131752 132.074801,69.5504679 C132.26117,69.3877606 132.433659,69.1833872 132.592271,68.9373417 L133.294129,69.437367 L133.294129,69.437367 Z M134.733531,62.3417708 L135.590034,62.3417708 L135.590034,65.9967171 L140.181845,65.9967171 L140.181845,62.3417708 L141.038349,62.3417708 L141.038349,70.7707676 L140.181845,70.7707676 L140.181845,66.7824711 L135.590034,66.7824711 L135.590034,70.7707676 L134.733531,70.7707676 L134.733531,62.3417708 L134.733531,62.3417708 Z M144.178862,70.7707676 L143.322359,70.7707676 L143.322359,62.3417708 L144.178862,62.3417708 L144.178862,70.7707676 L144.178862,70.7707676 Z M152.553564,69.4849884 L152.577356,69.4849884 L152.577356,62.3417708 L153.43386,62.3417708 L153.43386,70.7707676 L152.36323,70.7707676 L147.343167,63.5561178 L147.319376,63.5561178 L147.319376,70.7707676 L146.462872,70.7707676 L146.462872,62.3417708 L147.533502,62.3417708 L152.553564,69.4849884 L152.553564,69.4849884 Z M161.939417,63.8894679 C161.653914,63.5878639 161.312902,63.349759 160.916371,63.1751462 C160.519839,63.0005333 160.05987,62.9132282 159.536448,62.9132282 C158.997166,62.9132282 158.513404,63.0124385 158.08515,63.2108623 C157.656897,63.409286 157.294075,63.6751697 156.996677,64.0085216 C156.699279,64.3418734 156.471276,64.7287938 156.312664,65.1692944 C156.154051,65.609795 156.074746,66.0721153 156.074746,66.5562692 C156.074746,67.0404233 156.154051,67.5027435 156.312664,67.943244 C156.471276,68.3837444 156.699279,68.7706647 156.996677,69.1040168 C157.294075,69.437369 157.656897,69.7032528 158.08515,69.9016761 C158.513404,70.1001002 158.997166,70.1993102 159.536448,70.1993102 C159.972633,70.1993102 160.390967,70.1457367 160.791464,70.0385878 C161.191961,69.9314389 161.550817,69.7865916 161.868041,69.6040421 L161.868041,66.7824711 L159.857637,66.7824711 L159.857637,65.9967171 L162.724545,65.9967171 L162.724545,70.127878 C162.248707,70.4056711 161.727276,70.6179815 161.160236,70.7648149 C160.593197,70.9116484 160.051939,70.9850641 159.536448,70.9850641 C158.909928,70.9850641 158.329019,70.8739487 157.793701,70.651714 C157.258384,70.4294792 156.794449,70.1219273 156.401883,69.7290484 C156.009317,69.3361694 155.70201,68.8698807 155.479952,68.3301682 C155.257894,67.7904558 155.146867,67.1991621 155.146867,66.5562692 C155.146867,65.9133764 155.257894,65.3220826 155.479952,64.7823701 C155.70201,64.2426576 156.009317,63.776369 156.401883,63.38349 C156.794449,62.9906111 157.258384,62.683059 157.793701,62.4608244 C158.329019,62.2385898 158.909928,62.1274742 159.536448,62.1274742 C160.210552,62.1274742 160.791461,62.220732 161.279195,62.4072503 C161.766929,62.5937685 162.201124,62.8775102 162.581795,63.2584837 L161.939417,63.8894679 L161.939417,63.8894679 Z M17.8095497,82.0729253 L18.4757192,82.0729253 L18.4757192,84.9156614 L22.0471278,84.9156614 L22.0471278,82.0729253 L22.7132973,82.0729253 L22.7132973,88.6288118 L22.0471278,88.6288118 L22.0471278,85.5268034 L18.4757192,85.5268034 L18.4757192,88.6288118 L17.8095497,88.6288118 L17.8095497,82.0729253 L17.8095497,82.0729253 Z M27.9778868,86.4620358 C27.9778868,86.2212815 27.9393357,85.9959639 27.8622324,85.7860757 C27.7851291,85.5761875 27.675644,85.3940811 27.5337738,85.2397518 C27.3919037,85.0854226 27.2207368,84.9635038 27.0202681,84.8739926 C26.8197995,84.7844815 26.5931191,84.7397266 26.3402201,84.7397266 C26.0873212,84.7397266 25.8606408,84.7844815 25.6601721,84.8739926 C25.4597035,84.9635038 25.2900787,85.0854226 25.1512926,85.2397518 C25.0125067,85.3940811 24.9045636,85.5761875 24.8274602,85.7860757 C24.7503569,85.9959639 24.7118058,86.2212815 24.7118058,86.4620358 C24.7118058,86.70279 24.7503569,86.9281076 24.8274602,87.1379958 C24.9045636,87.347884 25.0125067,87.5299898 25.1512926,87.6843197 C25.2900787,87.8386495 25.4597035,87.9605677 25.6601721,88.0500789 C25.8606408,88.13959 26.0873212,88.1843449 26.3402201,88.1843449 C26.5931191,88.1843449 26.8197995,88.13959 27.0202681,88.0500789 C27.2207368,87.9605677 27.3919037,87.8386495 27.5337738,87.6843197 C27.675644,87.5299898 27.7851291,87.347884 27.8622324,87.1379958 C27.9393357,86.9281076 27.9778868,86.70279 27.9778868,86.4620358 L27.9778868,86.4620358 L27.9778868,86.4620358 Z M28.6440563,86.4620358 C28.6440563,86.7892143 28.5870007,87.0916958 28.4728877,87.369489 C28.3587748,87.6472821 28.1999443,87.8880323 27.9963915,88.0917476 C27.7928387,88.2954629 27.5507379,88.4544194 27.2700817,88.5686236 C26.9894256,88.6828277 26.6794748,88.7399285 26.3402201,88.7399285 C26.0071337,88.7399285 25.700267,88.6828277 25.4196109,88.5686236 C25.1389548,88.4544194 24.8968539,88.2954629 24.6933011,88.0917476 C24.4897483,87.8880323 24.3309178,87.6472821 24.2168049,87.369489 C24.1026919,87.0916958 24.0456363,86.7892143 24.0456363,86.4620358 C24.0456363,86.1348572 24.1026919,85.8323757 24.2168049,85.5545825 C24.3309178,85.2767894 24.4897483,85.0360392 24.6933011,84.8323239 C24.8968539,84.6286086 25.1389548,84.4696521 25.4196109,84.3554479 C25.700267,84.2412438 26.0071337,84.184143 26.3402201,84.184143 C26.6794748,84.184143 26.9894256,84.2412438 27.2700817,84.3554479 C27.5507379,84.4696521 27.7928387,84.6286086 27.9963915,84.8323239 C28.1999443,85.0360392 28.3587748,85.2767894 28.4728877,85.5545825 C28.5870007,85.8323757 28.6440563,86.1348572 28.6440563,86.4620358 L28.6440563,86.4620358 L28.6440563,86.4620358 Z M30.5037794,88.6288118 L29.8931241,88.6288118 L29.8931241,81.6284585 L30.5037794,81.6284585 L30.5037794,88.6288118 L30.5037794,88.6288118 Z M32.3449979,86.4620358 C32.3449979,86.70279 32.383549,86.9281076 32.4606523,87.1379958 C32.5377557,87.347884 32.6472408,87.5299898 32.7891109,87.6843197 C32.9309811,87.8386495 33.1021479,87.9605677 33.3026165,88.0500789 C33.5030853,88.13959 33.7297657,88.1843449 33.9826646,88.1843449 C34.2293952,88.1843449 34.4591597,88.13959 34.6719649,88.0500789 C34.8847702,87.9605677 35.0682733,87.8386495 35.22248,87.6843197 C35.3766867,87.5299898 35.4969661,87.347884 35.5833218,87.1379958 C35.6696776,86.9281076 35.7128548,86.70279 35.7128548,86.4620358 C35.7128548,86.2212815 35.6696776,85.9959639 35.5833218,85.7860757 C35.4969661,85.5761875 35.3766867,85.3940811 35.22248,85.2397518 C35.0682733,85.0854226 34.8847702,84.9635038 34.6719649,84.8739926 C34.4591597,84.7844815 34.2293952,84.7397266 33.9826646,84.7397266 C33.7297657,84.7397266 33.5030853,84.7844815 33.3026165,84.8739926 C33.1021479,84.9635038 32.9309811,85.0854226 32.7891109,85.2397518 C32.6472408,85.3940811 32.5377557,85.5761875 32.4606523,85.7860757 C32.383549,85.9959639 32.3449979,86.2212815 32.3449979,86.4620358 L32.3449979,86.4620358 L32.3449979,86.4620358 Z M36.2957531,88.6288118 L35.6850977,88.6288118 L35.6850977,87.9065531 L35.666593,87.9065531 C35.5679008,88.0547094 35.4507055,88.1812581 35.3150036,88.2862019 C35.1793017,88.3911457 35.0374337,88.4775694 34.8893953,88.5454742 C34.7413569,88.6133791 34.5886946,88.6627639 34.4314037,88.6936299 C34.274113,88.7244958 34.1245347,88.7399285 33.9826646,88.7399285 C33.6434099,88.7399285 33.3334591,88.6828277 33.052803,88.5686236 C32.7721469,88.4544194 32.530046,88.2954629 32.3264932,88.0917476 C32.1229404,87.8880323 31.9641099,87.6472821 31.849997,87.369489 C31.735884,87.0916958 31.6788284,86.7892143 31.6788284,86.4620358 C31.6788284,86.1348572 31.735884,85.8323757 31.849997,85.5545825 C31.9641099,85.2767894 32.1229404,85.0360392 32.3264932,84.8323239 C32.530046,84.6286086 32.7721469,84.4696521 33.052803,84.3554479 C33.3334591,84.2412438 33.6434099,84.184143 33.9826646,84.184143 C34.1245347,84.184143 34.274113,84.1995757 34.4314037,84.2304416 C34.5886946,84.2613076 34.7413569,84.3106924 34.8893953,84.3785973 C35.0374337,84.4465021 35.1793017,84.5329258 35.3150036,84.6378696 C35.4507055,84.7428134 35.5679008,84.8693621 35.666593,85.0175184 L35.6850977,85.0175184 L35.6850977,81.6284585 L36.2957531,81.6284585 L36.2957531,88.6288118 L36.2957531,88.6288118 Z M40.9959489,86.1286856 C40.9959489,85.7150827 40.8725855,85.3801921 40.6258548,85.1240053 C40.3791241,84.8678184 40.0337064,84.7397266 39.5895911,84.7397266 C39.3922066,84.7397266 39.2009932,84.7783086 39.0159452,84.8554732 C38.8308972,84.9326378 38.6689826,85.0360372 38.5301966,85.165674 C38.3914106,85.2953109 38.2803835,85.4434652 38.1971118,85.6101409 C38.1138403,85.7768166 38.0722051,85.9496633 38.0722051,86.1286856 L40.9959489,86.1286856 L40.9959489,86.1286856 Z M38.0537004,86.6287108 C38.0722052,86.844772 38.1246347,87.048484 38.2109904,87.2398528 C38.2973462,87.4312216 38.4114574,87.5963516 38.5533275,87.7352482 C38.6951977,87.8741447 38.8586542,87.983717 39.0437022,88.0639685 C39.2287502,88.1442199 39.4292159,88.1843449 39.6451053,88.1843449 C39.9720234,88.1843449 40.2542174,88.1087247 40.4916957,87.9574816 C40.729174,87.8062385 40.909593,87.6318488 41.0329584,87.434307 L41.5048284,87.8232156 C41.2457613,88.1503941 40.9604832,88.3849714 40.6489857,88.5269548 C40.3374883,88.6689381 40.0028648,88.7399285 39.6451053,88.7399285 C39.3243554,88.7399285 39.026741,88.6828277 38.7522531,88.5686236 C38.4777652,88.4544194 38.2418326,88.2954629 38.044448,88.0917476 C37.8470635,87.8880323 37.6913171,87.6472821 37.5772041,87.369489 C37.4630912,87.0916958 37.4060356,86.7892143 37.4060356,86.4620358 C37.4060356,86.1348572 37.4615492,85.8323757 37.5725779,85.5545825 C37.6836068,85.2767894 37.8378111,85.0360392 38.0351956,84.8323239 C38.2325802,84.6286086 38.4638868,84.4696521 38.7291222,84.3554479 C38.9943577,84.2412438 39.2811778,84.184143 39.5895911,84.184143 C39.9165093,84.184143 40.2094976,84.2427875 40.4685648,84.3600778 C40.727632,84.4773681 40.9450601,84.6332391 41.1208557,84.827694 C41.2966514,85.0221489 41.4308091,85.2505533 41.5233331,85.5129138 C41.6158571,85.7752742 41.6621184,86.0546065 41.6621184,86.350919 L41.6621184,86.6287108 L38.0537004,86.6287108 L38.0537004,86.6287108 Z M42.8371674,85.6471798 C42.8371674,85.455811 42.8325413,85.2613588 42.8232889,85.063817 C42.8140365,84.8662753 42.8063263,84.6100918 42.800158,84.2952597 L43.401561,84.2952597 L43.401561,85.1008559 L43.4200657,85.1008559 C43.4632436,84.9835656 43.5249253,84.8709065 43.6051128,84.7628759 C43.6853003,84.6548453 43.782449,84.5576189 43.8965619,84.4711945 C44.0106749,84.3847702 44.1432906,84.3153229 44.2944132,84.2628507 C44.4455358,84.2103785 44.6167026,84.184143 44.8079188,84.184143 C44.9806303,84.184143 45.1317506,84.2026625 45.2612842,84.2397014 L45.1410036,84.8415836 C45.0608161,84.8107176 44.9436208,84.795285 44.7894141,84.795285 C44.55502,84.795285 44.3545543,84.8400399 44.1880111,84.929551 C44.0214679,85.0190621 43.882684,85.1332643 43.7716552,85.2721609 C43.6606264,85.4110574 43.5788981,85.5607548 43.5264678,85.7212576 C43.4740375,85.8817604 43.4478228,86.0360877 43.4478228,86.184244 L43.4478228,88.6288118 L42.8371674,88.6288118 L42.8371674,85.6471798 L42.8371674,85.6471798 Z M48.7864311,86.4620358 C48.7864311,86.70279 48.8249822,86.9281076 48.9020855,87.1379958 C48.9791889,87.347884 49.0886739,87.5299898 49.2305441,87.6843197 C49.3724142,87.8386495 49.5435811,87.9605677 49.7440497,88.0500789 C49.9445184,88.13959 50.1711988,88.1843449 50.4240977,88.1843449 C50.6708284,88.1843449 50.9005929,88.13959 51.1133981,88.0500789 C51.3262034,87.9605677 51.5097065,87.8386495 51.6639132,87.6843197 C51.8181198,87.5299898 51.9383993,87.347884 52.024755,87.1379958 C52.1111108,86.9281076 52.1542879,86.70279 52.1542879,86.4620358 C52.1542879,86.2212815 52.1111108,85.9959639 52.024755,85.7860757 C51.9383993,85.5761875 51.8181198,85.3940811 51.6639132,85.2397518 C51.5097065,85.0854226 51.3262034,84.9635038 51.1133981,84.8739926 C50.9005929,84.7844815 50.6708284,84.7397266 50.4240977,84.7397266 C50.1711988,84.7397266 49.9445184,84.7844815 49.7440497,84.8739926 C49.5435811,84.9635038 49.3724142,85.0854226 49.2305441,85.2397518 C49.0886739,85.3940811 48.9791889,85.5761875 48.9020855,85.7860757 C48.8249822,85.9959639 48.7864311,86.2212815 48.7864311,86.4620358 L48.7864311,86.4620358 L48.7864311,86.4620358 Z M52.7371862,88.6288118 L52.1265309,88.6288118 L52.1265309,87.9065531 L52.1080262,87.9065531 C52.009334,88.0547094 51.8921386,88.1812581 51.7564367,88.2862019 C51.6207349,88.3911457 51.4788669,88.4775694 51.3308284,88.5454742 C51.18279,88.6133791 51.0301277,88.6627639 50.8728369,88.6936299 C50.7155462,88.7244958 50.5659679,88.7399285 50.4240977,88.7399285 C50.0848431,88.7399285 49.7748923,88.6828277 49.4942362,88.5686236 C49.2135801,88.4544194 48.9714792,88.2954629 48.7679264,88.0917476 C48.5643736,87.8880323 48.4055431,87.6472821 48.2914301,87.369489 C48.1773172,87.0916958 48.1202616,86.7892143 48.1202616,86.4620358 C48.1202616,86.1348572 48.1773172,85.8323757 48.2914301,85.5545825 C48.4055431,85.2767894 48.5643736,85.0360392 48.7679264,84.8323239 C48.9714792,84.6286086 49.2135801,84.4696521 49.4942362,84.3554479 C49.7748923,84.2412438 50.0848431,84.184143 50.4240977,84.184143 C50.5659679,84.184143 50.7155462,84.1995757 50.8728369,84.2304416 C51.0301277,84.2613076 51.18279,84.3106924 51.3308284,84.3785973 C51.4788669,84.4465021 51.6207349,84.5329258 51.7564367,84.6378696 C51.8921386,84.7428134 52.009334,84.8693621 52.1080262,85.0175184 L52.1265309,85.0175184 L52.1265309,81.6284585 L52.7371862,81.6284585 L52.7371862,88.6288118 L52.7371862,88.6288118 Z M54.9577512,82.6285089 C54.9577512,82.7581458 54.9114899,82.8646313 54.8189659,82.9479695 C54.7264419,83.0313077 54.6246671,83.0729758 54.5136382,83.0729758 C54.4026094,83.0729758 54.3008345,83.0313077 54.2083105,82.9479695 C54.1157865,82.8646313 54.0695252,82.7581458 54.0695252,82.6285089 C54.0695252,82.4988721 54.1157865,82.3923866 54.2083105,82.3090484 C54.3008345,82.2257102 54.4026094,82.1840421 54.5136382,82.1840421 C54.6246671,82.1840421 54.7264419,82.2257102 54.8189659,82.3090484 C54.9114899,82.3923866 54.9577512,82.4988721 54.9577512,82.6285089 L54.9577512,82.6285089 L54.9577512,82.6285089 Z M54.8189659,88.6288118 L54.2083105,88.6288118 L54.2083105,84.2952597 L54.8189659,84.2952597 L54.8189659,88.6288118 L54.8189659,88.6288118 Z M56.8729885,84.2952597 C56.8853251,84.41255 56.8930353,84.5282953 56.8961194,84.6424995 C56.8992035,84.7567037 56.9007456,84.8724489 56.9007456,84.9897392 L56.9192503,84.9897392 C56.9871012,84.8724489 57.0734557,84.7644196 57.1783162,84.6656488 C57.2831768,84.5668779 57.4003721,84.481998 57.5299057,84.4110063 C57.6594393,84.3400146 57.7966812,84.2844569 57.9416354,84.2443312 C58.0865897,84.2042055 58.2299998,84.184143 58.3718699,84.184143 C58.9270139,84.184143 59.3371975,84.3307536 59.602433,84.62398 C59.8676685,84.9172065 60.0002842,85.3354333 60.0002842,85.878673 L60.0002842,88.6288118 L59.3896288,88.6288118 L59.3896288,86.2305426 C59.3896288,85.7490342 59.3063585,85.3801921 59.1398153,85.1240053 C58.9732721,84.8678184 58.6648634,84.7397266 58.2145799,84.7397266 C58.1837385,84.7397266 58.0973841,84.7520725 57.9555139,84.7767655 C57.8136438,84.8014586 57.6640656,84.8693621 57.5067748,84.9804795 C57.349484,85.0915969 57.209158,85.25827 57.0857927,85.4805047 C56.9624273,85.7027395 56.9007456,86.011394 56.9007456,86.4064774 L56.9007456,88.6288118 L56.2900902,88.6288118 L56.2900902,85.2490116 C56.2900902,85.1317213 56.2854641,84.983567 56.2762117,84.8045447 C56.2669593,84.6255224 56.256165,84.4557625 56.2438284,84.2952597 L56.8729885,84.2952597 L56.8729885,84.2952597 Z M64.8022559,86.1286856 C64.8022559,85.7150827 64.6788925,85.3801921 64.4321618,85.1240053 C64.1854311,84.8678184 63.8400134,84.7397266 63.3958981,84.7397266 C63.1985136,84.7397266 63.0073002,84.7783086 62.8222522,84.8554732 C62.6372042,84.9326378 62.4752896,85.0360372 62.3365036,85.165674 C62.1977176,85.2953109 62.0866905,85.4434652 62.0034188,85.6101409 C61.9201473,85.7768166 61.8785121,85.9496633 61.8785121,86.1286856 L64.8022559,86.1286856 L64.8022559,86.1286856 Z M61.8600073,86.6287108 C61.8785122,86.844772 61.9309416,87.048484 62.0172974,87.2398528 C62.1036532,87.4312216 62.2177644,87.5963516 62.3596345,87.7352482 C62.5015046,87.8741447 62.6649612,87.983717 62.8500092,88.0639685 C63.0350572,88.1442199 63.2355229,88.1843449 63.4514122,88.1843449 C63.7783304,88.1843449 64.0605244,88.1087247 64.2980026,87.9574816 C64.535481,87.8062385 64.7159,87.6318488 64.8392654,87.434307 L65.3111354,87.8232156 C65.0520682,88.1503941 64.7667901,88.3849714 64.4552927,88.5269548 C64.1437952,88.6689381 63.8091718,88.7399285 63.4514122,88.7399285 C63.1306624,88.7399285 62.833048,88.6828277 62.5585601,88.5686236 C62.2840722,88.4544194 62.0481396,88.2954629 61.850755,88.0917476 C61.6533705,87.8880323 61.4976241,87.6472821 61.3835111,87.369489 C61.2693982,87.0916958 61.2123426,86.7892143 61.2123426,86.4620358 C61.2123426,86.1348572 61.2678562,85.8323757 61.3788849,85.5545825 C61.4899138,85.2767894 61.6441181,85.0360392 61.8415026,84.8323239 C62.0388872,84.6286086 62.2701937,84.4696521 62.5354292,84.3554479 C62.8006647,84.2412438 63.0874848,84.184143 63.3958981,84.184143 C63.7228163,84.184143 64.0158046,84.2427875 64.2748718,84.3600778 C64.533939,84.4773681 64.7513671,84.6332391 64.9271627,84.827694 C65.1029584,85.0221489 65.2371161,85.2505533 65.3296401,85.5129138 C65.4221641,85.7752742 65.4684254,86.0546065 65.4684254,86.350919 L65.4684254,86.6287108 L61.8600073,86.6287108 L61.8600073,86.6287108 Z M69.7337607,84.2952597 C69.7460973,84.41255 69.7538072,84.5282953 69.7568915,84.6424995 C69.7599759,84.7567037 69.7615177,84.8724489 69.7615177,84.9897392 L69.7800224,84.9897392 C69.8478732,84.8724489 69.9342281,84.7644196 70.0390883,84.6656488 C70.1439492,84.5668779 70.2611442,84.481998 70.3906778,84.4110063 C70.5202114,84.3400146 70.6574536,84.2844569 70.8024075,84.2443312 C70.9473615,84.2042055 71.0907717,84.184143 71.232642,84.184143 C71.7877859,84.184143 72.1979698,84.3307536 72.4632051,84.62398 C72.7284404,84.9172065 72.8610563,85.3354333 72.8610563,85.878673 L72.8610563,88.6288118 L72.250401,88.6288118 L72.250401,86.2305426 C72.250401,85.7490342 72.1671304,85.3801921 72.0005874,85.1240053 C71.8340444,84.8678184 71.5256356,84.7397266 71.075352,84.7397266 C71.0445106,84.7397266 70.9581564,84.7520725 70.8162861,84.7767655 C70.6744158,84.8014586 70.5248376,84.8693621 70.3675469,84.9804795 C70.2102562,85.0915969 70.0699304,85.25827 69.9465648,85.4805047 C69.8231992,85.7027395 69.7615177,86.011394 69.7615177,86.4064774 L69.7615177,88.6288118 L69.1508623,88.6288118 L69.1508623,85.2490116 C69.1508623,85.1317213 69.1462362,84.983567 69.1369838,84.8045447 C69.1277315,84.6255224 69.1169373,84.4557625 69.1046006,84.2952597 L69.7337607,84.2952597 L69.7337607,84.2952597 Z M77.6630281,86.1286856 C77.6630281,85.7150827 77.5396645,85.3801921 77.2929339,85.1240053 C77.0462034,84.8678184 76.7007852,84.7397266 76.2566703,84.7397266 C76.0592858,84.7397266 75.8680721,84.7783086 75.6830243,84.8554732 C75.4979766,84.9326378 75.3360617,85.0360372 75.1972757,85.165674 C75.0584898,85.2953109 74.9474628,85.4434652 74.864191,85.6101409 C74.7809191,85.7768166 74.7392842,85.9496633 74.7392842,86.1286856 L77.6630281,86.1286856 L77.6630281,86.1286856 Z M74.7207795,86.6287108 C74.7392842,86.844772 74.791714,87.048484 74.8780695,87.2398528 C74.964425,87.4312216 75.0785363,87.5963516 75.2204066,87.7352482 C75.3622769,87.8741447 75.5257336,87.983717 75.7107814,88.0639685 C75.8958291,88.1442199 76.0962952,88.1843449 76.3121844,88.1843449 C76.6391024,88.1843449 76.9212966,88.1087247 77.1587748,87.9574816 C77.396253,87.8062385 77.5766719,87.6318488 77.7000375,87.434307 L78.1719076,87.8232156 C77.9128403,88.1503941 77.6275625,88.3849714 77.3160648,88.5269548 C77.0045671,88.6689381 76.6699438,88.7399285 76.3121844,88.7399285 C75.9914344,88.7399285 75.6938198,88.6828277 75.4193322,88.5686236 C75.1448446,88.4544194 74.9089116,88.2954629 74.7115271,88.0917476 C74.5141427,87.8880323 74.3583965,87.6472821 74.2442833,87.369489 C74.1301707,87.0916958 74.0731147,86.7892143 74.0731147,86.4620358 C74.0731147,86.1348572 74.1286282,85.8323757 74.2396571,85.5545825 C74.350686,85.2767894 74.5048903,85.0360392 74.7022748,84.8323239 C74.8996592,84.6286086 75.1309661,84.4696521 75.3962013,84.3554479 C75.6614366,84.2412438 75.9482569,84.184143 76.2566703,84.184143 C76.5835883,84.184143 76.8765767,84.2427875 77.1356439,84.3600778 C77.3947111,84.4773681 77.6121395,84.6332391 77.7879349,84.827694 C77.9637302,85.0221489 78.0978881,85.2505533 78.1904123,85.5129138 C78.2829365,85.7752742 78.3291976,86.0546065 78.3291976,86.350919 L78.3291976,86.6287108 L74.7207795,86.6287108 L74.7207795,86.6287108 Z M81.6785497,84.8508433 L80.4294819,84.8508433 L80.4294819,87.4065279 C80.4294819,87.5670307 80.4449023,87.6982086 80.4757437,87.8000662 C80.5065851,87.9019239 80.5497625,87.9806309 80.6052767,88.0361893 C80.6607908,88.0917476 80.7270991,88.1303296 80.8042023,88.1519359 C80.8813055,88.1735421 80.9661178,88.1843449 81.058642,88.1843449 C81.1635029,88.1843449 81.2714455,88.1689122 81.3824744,88.1380463 C81.4935033,88.1071803 81.5952779,88.0670553 81.6878021,88.0176698 L81.7155592,88.5825131 C81.4873333,88.6874569 81.2128497,88.7399285 80.8920996,88.7399285 C80.7749027,88.7399285 80.6530809,88.7244958 80.5266317,88.6936299 C80.4001824,88.6627639 80.2845293,88.6041194 80.1796684,88.5176951 C80.0748082,88.4312707 79.9884533,88.3139817 79.9206025,88.1658254 C79.8527517,88.0176692 79.8188266,87.8232169 79.8188266,87.5824627 L79.8188266,84.8508433 L78.9028435,84.8508433 L78.9028435,84.2952597 L79.8188266,84.2952597 L79.8188266,83.0729758 L80.4294819,83.0729758 L80.4294819,84.2952597 L81.6785497,84.2952597 L81.6785497,84.8508433 L81.6785497,84.8508433 Z M84.7503313,84.8508433 L83.5012635,84.8508433 L83.5012635,87.4065279 C83.5012635,87.5670307 83.5166839,87.6982086 83.5475253,87.8000662 C83.5783667,87.9019239 83.6215441,87.9806309 83.6770582,88.0361893 C83.7325723,88.0917476 83.7988807,88.1303296 83.8759838,88.1519359 C83.953087,88.1735421 84.0378994,88.1843449 84.1304236,88.1843449 C84.2352845,88.1843449 84.3432271,88.1689122 84.454256,88.1380463 C84.5652849,88.1071803 84.6670594,88.0670553 84.7595836,88.0176698 L84.7873407,88.5825131 C84.5591149,88.6874569 84.2846312,88.7399285 83.9638812,88.7399285 C83.8466843,88.7399285 83.7248625,88.7244958 83.5984132,88.6936299 C83.4719639,88.6627639 83.3563108,88.6041194 83.2514499,88.5176951 C83.1465897,88.4312707 83.0602348,88.3139817 82.992384,88.1658254 C82.9245332,88.0176692 82.8906081,87.8232169 82.8906081,87.5824627 L82.8906081,84.8508433 L81.9746251,84.8508433 L81.9746251,84.2952597 L82.8906081,84.2952597 L82.8906081,83.0729758 L83.5012635,83.0729758 L83.5012635,84.2952597 L84.7503313,84.2952597 L84.7503313,84.8508433 L84.7503313,84.8508433 Z M87.877627,85.3230894 C87.7851028,85.1440671 87.6617398,85.0020857 87.5075328,84.897142 C87.3533265,84.7921982 87.165197,84.7397266 86.9431392,84.7397266 C86.838279,84.7397266 86.7318776,84.7520725 86.623933,84.7767655 C86.5159884,84.8014586 86.4188394,84.8400399 86.3324838,84.8925121 C86.2461283,84.9449843 86.1767363,85.0113448 86.1243059,85.0915962 C86.0718754,85.1718476 86.0456609,85.2706172 86.0456609,85.3879075 C86.0456609,85.5916228 86.1165947,85.7397764 86.258465,85.8323743 C86.4003353,85.9249723 86.6131375,86.0052224 86.8968774,86.0731272 L87.5167852,86.2212829 C87.8190305,86.2891877 88.0703832,86.4265393 88.270852,86.6333407 C88.4713208,86.8401421 88.5715535,87.0978688 88.5715535,87.4065279 C88.5715535,87.6411085 88.5237499,87.8432774 88.428142,88.01304 C88.3325341,88.1828025 88.2060862,88.3216971 88.0487955,88.4297277 C87.8915048,88.5377582 87.7110859,88.6164653 87.5075328,88.6658507 C87.3039803,88.7152361 87.0973462,88.7399285 86.8876251,88.7399285 C86.554539,88.7399285 86.2445878,88.6766541 85.9577635,88.5501041 C85.6709392,88.4235541 85.4257545,88.2059525 85.2222013,87.8972934 L85.7495855,87.536164 C85.8729511,87.7337058 86.0286973,87.8911198 86.2168294,88.0084101 C86.4049615,88.1257004 86.6285578,88.1843449 86.8876251,88.1843449 C87.0109907,88.1843449 87.1343536,88.1704553 87.2577192,88.1426761 C87.3810848,88.114897 87.4905699,88.0716851 87.5861778,88.01304 C87.6817857,87.9543948 87.7588882,87.8787746 87.8174867,87.7861767 C87.8760851,87.6935787 87.905384,87.5855501 87.905384,87.4620862 C87.905384,87.2460251 87.8251978,87.0901541 87.6648228,86.99447 C87.5044478,86.898786 87.3101503,86.8231651 87.0819245,86.7676067 L86.4897739,86.6287108 C86.4157544,86.6101914 86.3155216,86.5793261 86.1890723,86.5361136 C86.0626231,86.4929011 85.9392594,86.4280836 85.8189782,86.3416593 C85.6986969,86.255235 85.5953798,86.1425758 85.5090243,86.0036793 C85.4226688,85.8647827 85.3794914,85.6934798 85.3794914,85.4897645 C85.3794914,85.2675297 85.4242106,85.0730774 85.5136505,84.9064017 C85.6030904,84.7397259 85.7233696,84.6039175 85.8744923,84.4989737 C86.025615,84.3940299 86.1967815,84.3153229 86.387998,84.2628507 C86.5792144,84.2103785 86.7765962,84.184143 86.9801486,84.184143 C87.2823939,84.184143 87.5630456,84.2427875 87.8221128,84.3600778 C88.0811801,84.4773681 88.2816455,84.677994 88.4235159,84.96196 L87.877627,85.3230894 L87.877627,85.3230894 Z M90.412772,82.6285089 C90.412772,82.7581458 90.3665109,82.8646313 90.2739867,82.9479695 C90.1814625,83.0313077 90.0796879,83.0729758 89.968659,83.0729758 C89.8576301,83.0729758 89.7558555,83.0313077 89.6633313,82.9479695 C89.5708071,82.8646313 89.524546,82.7581458 89.524546,82.6285089 C89.524546,82.4988721 89.5708071,82.3923866 89.6633313,82.3090484 C89.7558555,82.2257102 89.8576301,82.1840421 89.968659,82.1840421 C90.0796879,82.1840421 90.1814625,82.2257102 90.2739867,82.3090484 C90.3665109,82.3923866 90.412772,82.4988721 90.412772,82.6285089 L90.412772,82.6285089 L90.412772,82.6285089 Z M90.2739867,88.6288118 L89.6633313,88.6288118 L89.6633313,84.2952597 L90.2739867,84.2952597 L90.2739867,88.6288118 L90.2739867,88.6288118 Z M92.1152051,86.4620358 C92.1152051,86.70279 92.1537564,86.9281076 92.2308595,87.1379958 C92.3079627,87.347884 92.4174478,87.5299898 92.5593181,87.6843197 C92.7011884,87.8386495 92.872355,87.9605677 93.0728238,88.0500789 C93.2732925,88.13959 93.4999726,88.1843449 93.7528718,88.1843449 C93.9996023,88.1843449 94.2293667,88.13959 94.4421722,88.0500789 C94.6549776,87.9605677 94.8384809,87.8386495 94.9926872,87.6843197 C95.1468942,87.5299898 95.2671735,87.347884 95.353529,87.1379958 C95.4398846,86.9281076 95.483062,86.70279 95.483062,86.4620358 C95.483062,86.2212815 95.4398846,85.9959639 95.353529,85.7860757 C95.2671735,85.5761875 95.1468942,85.3940811 94.9926872,85.2397518 C94.8384809,85.0854226 94.6549776,84.9635038 94.4421722,84.8739926 C94.2293667,84.7844815 93.9996023,84.7397266 93.7528718,84.7397266 C93.4999726,84.7397266 93.2732925,84.7844815 93.0728238,84.8739926 C92.872355,84.9635038 92.7011884,85.0854226 92.5593181,85.2397518 C92.4174478,85.3940811 92.3079627,85.5761875 92.2308595,85.7860757 C92.1537564,85.9959639 92.1152051,86.2212815 92.1152051,86.4620358 L92.1152051,86.4620358 L92.1152051,86.4620358 Z M96.0659603,88.6288118 L95.4553049,88.6288118 L95.4553049,87.9065531 L95.4368002,87.9065531 C95.338108,88.0547094 95.2209124,88.1812581 95.0852108,88.2862019 C94.9495091,88.3911457 94.8076408,88.4775694 94.6596025,88.5454742 C94.5115642,88.6133791 94.3589016,88.6627639 94.201611,88.6936299 C94.0443203,88.7244958 93.8947421,88.7399285 93.7528718,88.7399285 C93.413617,88.7399285 93.1036665,88.6828277 92.8230102,88.5686236 C92.5423539,88.4544194 92.3002535,88.2954629 92.0967004,88.0917476 C91.893148,87.8880323 91.7343174,87.6472821 91.6202042,87.369489 C91.5060916,87.0916958 91.4490356,86.7892143 91.4490356,86.4620358 C91.4490356,86.1348572 91.5060916,85.8323757 91.6202042,85.5545825 C91.7343174,85.2767894 91.893148,85.0360392 92.0967004,84.8323239 C92.3002535,84.6286086 92.5423539,84.4696521 92.8230102,84.3554479 C93.1036665,84.2412438 93.413617,84.184143 93.7528718,84.184143 C93.8947421,84.184143 94.0443203,84.1995757 94.201611,84.2304416 C94.3589016,84.2613076 94.5115642,84.3106924 94.6596025,84.3785973 C94.8076408,84.4465021 94.9495091,84.5329258 95.0852108,84.6378696 C95.2209124,84.7428134 95.338108,84.8693621 95.4368002,85.0175184 L95.4553049,85.0175184 L95.4553049,81.6284585 L96.0659603,81.6284585 L96.0659603,88.6288118 L96.0659603,88.6288118 Z M100.766156,86.1286856 C100.766156,85.7150827 100.642793,85.3801921 100.396062,85.1240053 C100.149331,84.8678184 99.8039133,84.7397266 99.3597983,84.7397266 C99.1624139,84.7397266 98.9712001,84.7783086 98.7861524,84.8554732 C98.6011047,84.9326378 98.4391898,85.0360372 98.3004038,85.165674 C98.1616178,85.2953109 98.0505909,85.4434652 97.9673191,85.6101409 C97.8840472,85.7768166 97.8424123,85.9496633 97.8424123,86.1286856 L100.766156,86.1286856 L100.766156,86.1286856 Z M97.8239076,86.6287108 C97.8424123,86.844772 97.8948421,87.048484 97.9811976,87.2398528 C98.0675531,87.4312216 98.1816644,87.5963516 98.3235347,87.7352482 C98.465405,87.8741447 98.6288617,87.983717 98.8139095,88.0639685 C98.9989572,88.1442199 99.1994233,88.1843449 99.4153125,88.1843449 C99.7422305,88.1843449 100.024425,88.1087247 100.261903,87.9574816 C100.499381,87.8062385 100.6798,87.6318488 100.803166,87.434307 L101.275036,87.8232156 C101.015968,88.1503941 100.730691,88.3849714 100.419193,88.5269548 C100.107695,88.6689381 99.7730719,88.7399285 99.4153125,88.7399285 C99.0945624,88.7399285 98.7969479,88.6828277 98.5224603,88.5686236 C98.2479727,88.4544194 98.0120397,88.2954629 97.8146552,88.0917476 C97.6172708,87.8880323 97.4615246,87.6472821 97.3474113,87.369489 C97.2332988,87.0916958 97.1762428,86.7892143 97.1762428,86.4620358 C97.1762428,86.1348572 97.2317563,85.8323757 97.3427852,85.5545825 C97.4538141,85.2767894 97.6080184,85.0360392 97.8054029,84.8323239 C98.0027873,84.6286086 98.2340942,84.4696521 98.4993294,84.3554479 C98.7645647,84.2412438 99.051385,84.184143 99.3597983,84.184143 C99.6867164,84.184143 99.9797047,84.2427875 100.238772,84.3600778 C100.497839,84.4773681 100.715268,84.6332391 100.891063,84.827694 C101.066858,85.0221489 101.201016,85.2505533 101.29354,85.5129138 C101.386065,85.7752742 101.432326,86.0546065 101.432326,86.350919 L101.432326,86.6287108 L97.8239076,86.6287108 L97.8239076,86.6287108 Z M102.607375,85.6471798 C102.607375,85.455811 102.602748,85.2613588 102.593496,85.063817 C102.584244,84.8662753 102.576533,84.6100918 102.570365,84.2952597 L103.171768,84.2952597 L103.171768,85.1008559 L103.190273,85.1008559 C103.233451,84.9835656 103.295133,84.8709065 103.37532,84.7628759 C103.455508,84.6548453 103.552657,84.5576189 103.666769,84.4711945 C103.780882,84.3847702 103.913498,84.3153229 104.06462,84.2628507 C104.215743,84.2103785 104.38691,84.184143 104.578126,84.184143 C104.750838,84.184143 104.901958,84.2026625 105.031491,84.2397014 L104.911211,84.8415836 C104.831023,84.8107176 104.713828,84.795285 104.559621,84.795285 C104.325227,84.795285 104.124761,84.8400399 103.958218,84.929551 C103.791675,85.0190621 103.652891,85.1332643 103.541862,85.2721609 C103.430833,85.4110574 103.349105,85.5607548 103.296675,85.7212576 C103.244245,85.8817604 103.21803,86.0360877 103.21803,86.184244 L103.21803,88.6288118 L102.607375,88.6288118 L102.607375,85.6471798 L102.607375,85.6471798 Z M111.896738,86.4620358 C111.896738,86.2212815 111.858187,85.9959639 111.781084,85.7860757 C111.703981,85.5761875 111.594495,85.3940811 111.452625,85.2397518 C111.310755,85.0854226 111.139588,84.9635038 110.939119,84.8739926 C110.738651,84.7844815 110.511971,84.7397266 110.259071,84.7397266 C110.006172,84.7397266 109.779492,84.7844815 109.579023,84.8739926 C109.378555,84.9635038 109.20893,85.0854226 109.070144,85.2397518 C108.931358,85.3940811 108.823415,85.5761875 108.746312,85.7860757 C108.669208,85.9959639 108.630657,86.2212815 108.630657,86.4620358 C108.630657,86.70279 108.669208,86.9281076 108.746312,87.1379958 C108.823415,87.347884 108.931358,87.5299898 109.070144,87.6843197 C109.20893,87.8386495 109.378555,87.9605677 109.579023,88.0500789 C109.779492,88.13959 110.006172,88.1843449 110.259071,88.1843449 C110.511971,88.1843449 110.738651,88.13959 110.939119,88.0500789 C111.139588,87.9605677 111.310755,87.8386495 111.452625,87.6843197 C111.594495,87.5299898 111.703981,87.347884 111.781084,87.1379958 C111.858187,86.9281076 111.896738,86.70279 111.896738,86.4620358 L111.896738,86.4620358 L111.896738,86.4620358 Z M112.562908,86.4620358 C112.562908,86.7892143 112.505852,87.0916958 112.391739,87.369489 C112.277626,87.6472821 112.118796,87.8880323 111.915243,88.0917476 C111.71169,88.2954629 111.469589,88.4544194 111.188933,88.5686236 C110.908277,88.6828277 110.598326,88.7399285 110.259071,88.7399285 C109.925985,88.7399285 109.619118,88.6828277 109.338462,88.5686236 C109.057806,88.4544194 108.815706,88.2954629 108.612152,88.0917476 C108.4086,87.8880323 108.249769,87.6472821 108.135656,87.369489 C108.021544,87.0916958 107.964488,86.7892143 107.964488,86.4620358 C107.964488,86.1348572 108.021544,85.8323757 108.135656,85.5545825 C108.249769,85.2767894 108.4086,85.0360392 108.612152,84.8323239 C108.815706,84.6286086 109.057806,84.4696521 109.338462,84.3554479 C109.619118,84.2412438 109.925985,84.184143 110.259071,84.184143 C110.598326,84.184143 110.908277,84.2412438 111.188933,84.3554479 C111.469589,84.4696521 111.71169,84.6286086 111.915243,84.8323239 C112.118796,85.0360392 112.277626,85.2767894 112.391739,85.5545825 C112.505852,85.8323757 112.562908,86.1348572 112.562908,86.4620358 L112.562908,86.4620358 L112.562908,86.4620358 Z M114.117303,86.4064774 C114.117303,86.6348851 114.158938,86.8493999 114.24221,87.0500284 C114.325482,87.2506569 114.439593,87.4265897 114.584547,87.5778328 C114.729501,87.7290759 114.899126,87.849451 115.093426,87.9389621 C115.287727,88.0284733 115.498987,88.0732282 115.727213,88.0732282 C115.94927,88.0732282 116.16053,88.0331031 116.360999,87.9528517 C116.561468,87.8726003 116.738803,87.7599412 116.893009,87.6148717 C117.047216,87.4698022 117.165953,87.2954125 117.249225,87.0916972 C117.332497,86.8879819 117.371047,86.6595781 117.364879,86.4064774 C117.364879,86.1780697 117.327871,85.9635549 117.253851,85.7629264 C117.179832,85.5622979 117.071889,85.3863651 116.930019,85.235122 C116.788148,85.0838789 116.61544,84.9635038 116.411887,84.8739926 C116.208334,84.7844815 115.980112,84.7397266 115.727213,84.7397266 C115.498987,84.7397266 115.287727,84.7844815 115.093426,84.8739926 C114.899126,84.9635038 114.729501,85.0838789 114.584547,85.235122 C114.439593,85.3863651 114.325482,85.5622979 114.24221,85.7629264 C114.158938,85.9635549 114.117303,86.1780697 114.117303,86.4064774 L114.117303,86.4064774 L114.117303,86.4064774 Z M114.006275,89.4992261 C114.185155,89.7399803 114.418003,89.9328895 114.704828,90.077959 C114.991652,90.2230285 115.310855,90.2955626 115.662446,90.2955626 C115.97086,90.2955626 116.233007,90.2508077 116.448896,90.1612965 C116.664785,90.0717854 116.839036,89.9498672 116.971654,89.7955373 C117.104272,89.6412075 117.199879,89.4606448 117.258477,89.2538433 C117.317076,89.0470419 117.346375,88.8263535 117.346375,88.5917729 L117.346375,87.8139558 L117.32787,87.8139558 C117.130485,88.1102684 116.889927,88.3201533 116.606186,88.4436172 C116.322446,88.5670811 116.023289,88.6288118 115.708708,88.6288118 C115.394127,88.6288118 115.099596,88.5732541 114.825108,88.4621367 C114.550621,88.3510193 114.311604,88.1982352 114.108051,88.0037802 C113.904498,87.8093253 113.744125,87.5762911 113.626928,87.3046709 C113.509731,87.0330507 113.451134,86.7398289 113.451134,86.4249968 C113.451134,86.1101648 113.506647,85.816943 113.617676,85.5453228 C113.728705,85.2737026 113.881367,85.0360392 114.075667,84.8323239 C114.269968,84.6286086 114.501274,84.4696521 114.769594,84.3554479 C115.037914,84.2412438 115.332444,84.184143 115.653194,84.184143 C115.782727,84.184143 115.91997,84.1964889 116.064924,84.2211819 C116.209878,84.245875 116.35483,84.2890861 116.499784,84.3508181 C116.644738,84.41255 116.788148,84.49743 116.930019,84.6054606 C117.071889,84.7134912 117.204504,84.8508427 117.32787,85.0175184 L117.346375,85.0175184 L117.346375,84.2952597 L117.95703,84.2952597 L117.95703,88.5917729 C117.95703,88.8263535 117.927731,89.0763641 117.869133,89.3418107 C117.810534,89.6072573 117.696423,89.8510944 117.526796,90.0733291 C117.357168,90.2955639 117.121236,90.4807564 116.81899,90.6289127 C116.516745,90.777069 116.121982,90.8511462 115.634689,90.8511462 C115.20291,90.8511462 114.8174,90.7801558 114.478145,90.6381725 C114.13889,90.4961891 113.830481,90.2770444 113.552909,89.9807319 L114.006275,89.4992261 L114.006275,89.4992261 Z M124.193117,85.3230894 C124.100592,85.1440671 123.977229,85.0020857 123.823022,84.897142 C123.668816,84.7921982 123.480687,84.7397266 123.258629,84.7397266 C123.153769,84.7397266 123.047367,84.7520725 122.939423,84.7767655 C122.831478,84.8014586 122.734329,84.8400399 122.647974,84.8925121 C122.561618,84.9449843 122.492226,85.0113448 122.439796,85.0915962 C122.387365,85.1718476 122.361151,85.2706172 122.361151,85.3879075 C122.361151,85.5916228 122.432084,85.7397764 122.573955,85.8323743 C122.715825,85.9249723 122.928627,86.0052224 123.212367,86.0731272 L123.832275,86.2212829 C124.13452,86.2891877 124.385873,86.4265393 124.586342,86.6333407 C124.78681,86.8401421 124.887043,87.0978688 124.887043,87.4065279 C124.887043,87.6411085 124.83924,87.8432774 124.743632,88.01304 C124.648024,88.1828025 124.521576,88.3216971 124.364285,88.4297277 C124.206995,88.5377582 124.026576,88.6164653 123.823022,88.6658507 C123.61947,88.7152361 123.412836,88.7399285 123.203115,88.7399285 C122.870029,88.7399285 122.560077,88.6766541 122.273253,88.5501041 C121.986429,88.4235541 121.741244,88.2059525 121.537691,87.8972934 L122.065075,87.536164 C122.188441,87.7337058 122.344187,87.8911198 122.532319,88.0084101 C122.720451,88.1257004 122.944048,88.1843449 123.203115,88.1843449 C123.32648,88.1843449 123.449843,88.1704553 123.573209,88.1426761 C123.696575,88.114897 123.80606,88.0716851 123.901667,88.01304 C123.997275,87.9543948 124.074378,87.8787746 124.132976,87.7861767 C124.191575,87.6935787 124.220874,87.5855501 124.220874,87.4620862 C124.220874,87.2460251 124.140688,87.0901541 123.980312,86.99447 C123.819937,86.898786 123.62564,86.8231651 123.397414,86.7676067 L122.805264,86.6287108 C122.731244,86.6101914 122.631011,86.5793261 122.504562,86.5361136 C122.378113,86.4929011 122.254749,86.4280836 122.134468,86.3416593 C122.014187,86.255235 121.91087,86.1425758 121.824514,86.0036793 C121.738158,85.8647827 121.694981,85.6934798 121.694981,85.4897645 C121.694981,85.2675297 121.7397,85.0730774 121.82914,84.9064017 C121.91858,84.7397259 122.038859,84.6039175 122.189982,84.4989737 C122.341105,84.3940299 122.512271,84.3153229 122.703488,84.2628507 C122.894704,84.2103785 123.092086,84.184143 123.295638,84.184143 C123.597884,84.184143 123.878535,84.2427875 124.137603,84.3600778 C124.39667,84.4773681 124.597135,84.677994 124.739006,84.96196 L124.193117,85.3230894 L124.193117,85.3230894 Z M127.449945,87.8787739 L128.773032,84.2952597 L129.51322,84.2952597 L127.348169,89.7584984 C127.218636,90.0918506 127.053637,90.3572932 126.853168,90.5548349 C126.6527,90.7523766 126.364337,90.8511462 125.988073,90.8511462 C125.895549,90.8511462 125.801484,90.8480594 125.705877,90.8418864 C125.610269,90.8357135 125.516204,90.8171941 125.42368,90.7863281 L125.488446,90.1937056 C125.61798,90.2616105 125.772184,90.2955626 125.951064,90.2955626 C126.166953,90.2955626 126.336578,90.2276583 126.459943,90.0918486 C126.583309,89.9560388 126.691252,89.7646727 126.783776,89.5177455 L127.098356,88.6843701 L125.321904,84.2952597 L126.089849,84.2952597 L127.449945,87.8787739 L127.449945,87.8787739 Z M132.594254,85.3230894 C132.50173,85.1440671 132.378367,85.0020857 132.22416,84.897142 C132.069954,84.7921982 131.881824,84.7397266 131.659766,84.7397266 C131.554906,84.7397266 131.448505,84.7520725 131.34056,84.7767655 C131.232616,84.8014586 131.135467,84.8400399 131.049111,84.8925121 C130.962755,84.9449843 130.893363,85.0113448 130.840933,85.0915962 C130.788503,85.1718476 130.762288,85.2706172 130.762288,85.3879075 C130.762288,85.5916228 130.833222,85.7397764 130.975092,85.8323743 C131.116962,85.9249723 131.329765,86.0052224 131.613505,86.0731272 L132.233412,86.2212829 C132.535658,86.2891877 132.78701,86.4265393 132.987479,86.6333407 C133.187948,86.8401421 133.288181,87.0978688 133.288181,87.4065279 C133.288181,87.6411085 133.240377,87.8432774 133.144769,88.01304 C133.049161,88.1828025 132.922713,88.3216971 132.765423,88.4297277 C132.608132,88.5377582 132.427713,88.6164653 132.22416,88.6658507 C132.020608,88.7152361 131.813973,88.7399285 131.604252,88.7399285 C131.271166,88.7399285 130.961215,88.6766541 130.674391,88.5501041 C130.387566,88.4235541 130.142382,88.2059525 129.938829,87.8972934 L130.466213,87.536164 C130.589578,87.7337058 130.745324,87.8911198 130.933457,88.0084101 C131.121589,88.1257004 131.345185,88.1843449 131.604252,88.1843449 C131.727618,88.1843449 131.850981,88.1704553 131.974346,88.1426761 C132.097712,88.114897 132.207197,88.0716851 132.302805,88.01304 C132.398413,87.9543948 132.475515,87.8787746 132.534114,87.7861767 C132.592712,87.6935787 132.622011,87.5855501 132.622011,87.4620862 C132.622011,87.2460251 132.541825,87.0901541 132.38145,86.99447 C132.221075,86.898786 132.026778,86.8231651 131.798552,86.7676067 L131.206401,86.6287108 C131.132382,86.6101914 131.032149,86.5793261 130.9057,86.5361136 C130.77925,86.4929011 130.655887,86.4280836 130.535605,86.3416593 C130.415324,86.255235 130.312007,86.1425758 130.225651,86.0036793 C130.139296,85.8647827 130.096119,85.6934798 130.096119,85.4897645 C130.096119,85.2675297 130.140838,85.0730774 130.230278,84.9064017 C130.319718,84.7397259 130.439997,84.6039175 130.591119,84.4989737 C130.742242,84.3940299 130.913409,84.3153229 131.104625,84.2628507 C131.295842,84.2103785 131.493223,84.184143 131.696776,84.184143 C131.999021,84.184143 132.279673,84.2427875 132.53874,84.3600778 C132.797807,84.4773681 132.998273,84.677994 133.140143,84.96196 L132.594254,85.3230894 L132.594254,85.3230894 Z M136.480243,84.8508433 L135.231175,84.8508433 L135.231175,87.4065279 C135.231175,87.5670307 135.246595,87.6982086 135.277437,87.8000662 C135.308278,87.9019239 135.351456,87.9806309 135.40697,88.0361893 C135.462484,88.0917476 135.528792,88.1303296 135.605895,88.1519359 C135.682999,88.1735421 135.767811,88.1843449 135.860335,88.1843449 C135.965196,88.1843449 136.073139,88.1689122 136.184168,88.1380463 C136.295196,88.1071803 136.396971,88.0670553 136.489495,88.0176698 L136.517252,88.5825131 C136.289026,88.6874569 136.014543,88.7399285 135.693793,88.7399285 C135.576596,88.7399285 135.454774,88.7244958 135.328325,88.6936299 C135.201875,88.6627639 135.086222,88.6041194 134.981361,88.5176951 C134.876501,88.4312707 134.790146,88.3139817 134.722296,88.1658254 C134.654445,88.0176692 134.62052,87.8232169 134.62052,87.5824627 L134.62052,84.8508433 L133.704537,84.8508433 L133.704537,84.2952597 L134.62052,84.2952597 L134.62052,83.0729758 L135.231175,83.0729758 L135.231175,84.2952597 L136.480243,84.2952597 L136.480243,84.8508433 L136.480243,84.8508433 Z M140.680812,86.1286856 C140.680812,85.7150827 140.557448,85.3801921 140.310717,85.1240053 C140.063987,84.8678184 139.718569,84.7397266 139.274454,84.7397266 C139.077069,84.7397266 138.885856,84.7783086 138.700808,84.8554732 C138.51576,84.9326378 138.353845,85.0360372 138.215059,85.165674 C138.076273,85.2953109 137.965246,85.4434652 137.881974,85.6101409 C137.798703,85.7768166 137.757068,85.9496633 137.757068,86.1286856 L140.680812,86.1286856 L140.680812,86.1286856 Z M137.738563,86.6287108 C137.757068,86.844772 137.809497,87.048484 137.895853,87.2398528 C137.982209,87.4312216 138.09632,87.5963516 138.23819,87.7352482 C138.38006,87.8741447 138.543517,87.983717 138.728565,88.0639685 C138.913613,88.1442199 139.114079,88.1843449 139.329968,88.1843449 C139.656886,88.1843449 139.93908,88.1087247 140.176558,87.9574816 C140.414036,87.8062385 140.594455,87.6318488 140.717821,87.434307 L141.189691,87.8232156 C140.930624,88.1503941 140.645346,88.3849714 140.333848,88.5269548 C140.022351,88.6689381 139.687727,88.7399285 139.329968,88.7399285 C139.009218,88.7399285 138.711603,88.6828277 138.437116,88.5686236 C138.162628,88.4544194 137.926695,88.2954629 137.729311,88.0917476 C137.531926,87.8880323 137.37618,87.6472821 137.262067,87.369489 C137.147954,87.0916958 137.090898,86.7892143 137.090898,86.4620358 C137.090898,86.1348572 137.146412,85.8323757 137.257441,85.5545825 C137.368469,85.2767894 137.522674,85.0360392 137.720058,84.8323239 C137.917443,84.6286086 138.14875,84.4696521 138.413985,84.3554479 C138.67922,84.2412438 138.96604,84.184143 139.274454,84.184143 C139.601372,84.184143 139.89436,84.2427875 140.153427,84.3600778 C140.412495,84.4773681 140.629923,84.6332391 140.805718,84.827694 C140.981514,85.0221489 141.115672,85.2505533 141.208196,85.5129138 C141.30072,85.7752742 141.346981,86.0546065 141.346981,86.350919 L141.346981,86.6287108 L137.738563,86.6287108 L137.738563,86.6287108 Z M142.457264,85.2582713 C142.457264,85.0977685 142.452637,84.9372683 142.443385,84.7767655 C142.434133,84.6162627 142.423338,84.4557625 142.411002,84.2952597 L143.067919,84.2952597 L143.067919,84.9527003 L143.086424,84.9527003 C143.234462,84.6995996 143.439554,84.5082341 143.701705,84.3785973 C143.963857,84.2489604 144.224462,84.184143 144.483529,84.184143 C144.600726,84.184143 144.725631,84.1964889 144.858249,84.2211819 C144.990867,84.245875 145.118857,84.2906299 145.242222,84.3554479 C145.365588,84.420266 145.481241,84.5113196 145.589185,84.6286099 C145.69713,84.7459002 145.78811,84.8971413 145.86213,85.0823365 C145.985495,84.8045434 146.181335,84.5853987 146.449654,84.4248959 C146.717974,84.2643931 146.997084,84.184143 147.286992,84.184143 C147.842136,84.184143 148.25232,84.3307536 148.517555,84.62398 C148.782791,84.9172065 148.915407,85.3354333 148.915407,85.878673 L148.915407,88.6288118 L148.304751,88.6288118 L148.304751,86.1009064 C148.304751,85.6626105 148.227649,85.3261768 148.073442,85.0915962 C147.919236,84.8570156 147.632416,84.7397266 147.212974,84.7397266 C146.984748,84.7397266 146.793535,84.7844815 146.639328,84.8739926 C146.485121,84.9635038 146.360215,85.0823358 146.264607,85.2304921 C146.168999,85.3786484 146.099607,85.5468652 146.056429,85.7351472 C146.013251,85.9234292 145.991663,86.1194245 145.991663,86.3231399 L145.991663,88.6288118 L145.381007,88.6288118 L145.381007,86.1009064 C145.381007,85.6626105 145.303906,85.3261768 145.149699,85.0915962 C144.995492,84.8570156 144.708672,84.7397266 144.28923,84.7397266 C144.25222,84.7397266 144.167408,84.7520725 144.03479,84.7767655 C143.902172,84.8014586 143.76493,84.8693621 143.62306,84.9804795 C143.48119,85.0915969 143.353201,85.25827 143.239087,85.4805047 C143.124975,85.7027395 143.067919,86.011394 143.067919,86.4064774 L143.067919,88.6288118 L142.457264,88.6288118 L142.457264,85.2582713 L142.457264,85.2582713 Z M153.708126,86.1286856 C153.708126,85.7150827 153.584762,85.3801921 153.338032,85.1240053 C153.091301,84.8678184 152.745883,84.7397266 152.301768,84.7397266 C152.104384,84.7397266 151.91317,84.7783086 151.728122,84.8554732 C151.543075,84.9326378 151.38116,85.0360372 151.242374,85.165674 C151.103588,85.2953109 150.992561,85.4434652 150.909289,85.6101409 C150.826017,85.7768166 150.784382,85.9496633 150.784382,86.1286856 L153.708126,86.1286856 L153.708126,86.1286856 Z M150.765877,86.6287108 C150.784382,86.844772 150.836812,87.048484 150.923168,87.2398528 C151.009523,87.4312216 151.123634,87.5963516 151.265505,87.7352482 C151.407375,87.8741447 151.570832,87.983717 151.755879,88.0639685 C151.940927,88.1442199 152.141393,88.1843449 152.357282,88.1843449 C152.6842,88.1843449 152.966395,88.1087247 153.203873,87.9574816 C153.441351,87.8062385 153.62177,87.6318488 153.745136,87.434307 L154.217006,87.8232156 C153.957938,88.1503941 153.67266,88.3849714 153.361163,88.5269548 C153.049665,88.6689381 152.715042,88.7399285 152.357282,88.7399285 C152.036532,88.7399285 151.738918,88.6828277 151.46443,88.5686236 C151.189943,88.4544194 150.95401,88.2954629 150.756625,88.0917476 C150.559241,87.8880323 150.403495,87.6472821 150.289381,87.369489 C150.175269,87.0916958 150.118213,86.7892143 150.118213,86.4620358 C150.118213,86.1348572 150.173726,85.8323757 150.284755,85.5545825 C150.395784,85.2767894 150.549988,85.0360392 150.747373,84.8323239 C150.944757,84.6286086 151.176064,84.4696521 151.441299,84.3554479 C151.706535,84.2412438 151.993355,84.184143 152.301768,84.184143 C152.628686,84.184143 152.921675,84.2427875 153.180742,84.3600778 C153.439809,84.4773681 153.657237,84.6332391 153.833033,84.827694 C154.008828,85.0221489 154.142986,85.2505533 154.23551,85.5129138 C154.328034,85.7752742 154.374296,86.0546065 154.374296,86.350919 L154.374296,86.6287108 L150.765877,86.6287108 L150.765877,86.6287108 Z M155.549345,85.6471798 C155.549345,85.455811 155.544718,85.2613588 155.535466,85.063817 C155.526214,84.8662753 155.518503,84.6100918 155.512335,84.2952597 L156.113738,84.2952597 L156.113738,85.1008559 L156.132243,85.1008559 C156.175421,84.9835656 156.237102,84.8709065 156.31729,84.7628759 C156.397477,84.6548453 156.494626,84.5576189 156.608739,84.4711945 C156.722852,84.3847702 156.855468,84.3153229 157.00659,84.2628507 C157.157713,84.2103785 157.32888,84.184143 157.520096,84.184143 C157.692808,84.184143 157.843928,84.2026625 157.973461,84.2397014 L157.853181,84.8415836 C157.772993,84.8107176 157.655798,84.795285 157.501591,84.795285 C157.267197,84.795285 157.066731,84.8400399 156.900188,84.929551 C156.733645,85.0190621 156.594861,85.1332643 156.483832,85.2721609 C156.372803,85.4110574 156.291075,85.5607548 156.238645,85.7212576 C156.186214,85.8817604 156.16,86.0360877 156.16,86.184244 L156.16,88.6288118 L155.549345,88.6288118 L155.549345,85.6471798 L155.549345,85.6471798 Z M163.423098,85.3230894 C163.330574,85.1440671 163.207211,85.0020857 163.053004,84.897142 C162.898797,84.7921982 162.710668,84.7397266 162.48861,84.7397266 C162.38375,84.7397266 162.277348,84.7520725 162.169404,84.7767655 C162.061459,84.8014586 161.96431,84.8400399 161.877955,84.8925121 C161.791599,84.9449843 161.722207,85.0113448 161.669777,85.0915962 C161.617346,85.1718476 161.591132,85.2706172 161.591132,85.3879075 C161.591132,85.5916228 161.662066,85.7397764 161.803936,85.8323743 C161.945806,85.9249723 162.158608,86.0052224 162.442348,86.0731272 L163.062256,86.2212829 C163.364501,86.2891877 163.615854,86.4265393 163.816323,86.6333407 C164.016792,86.8401421 164.117024,87.0978688 164.117024,87.4065279 C164.117024,87.6411085 164.069221,87.8432774 163.973613,88.01304 C163.878005,88.1828025 163.751557,88.3216971 163.594266,88.4297277 C163.436976,88.5377582 163.256557,88.6164653 163.053004,88.6658507 C162.849451,88.7152361 162.642817,88.7399285 162.433096,88.7399285 C162.10001,88.7399285 161.790059,88.6766541 161.503234,88.5501041 C161.21641,88.4235541 160.971225,88.2059525 160.767672,87.8972934 L161.295056,87.536164 C161.418422,87.7337058 161.574168,87.8911198 161.7623,88.0084101 C161.950432,88.1257004 162.174029,88.1843449 162.433096,88.1843449 C162.556462,88.1843449 162.679825,88.1704553 162.80319,88.1426761 C162.926556,88.114897 163.036041,88.0716851 163.131649,88.01304 C163.227257,87.9543948 163.304359,87.8787746 163.362958,87.7861767 C163.421556,87.6935787 163.450855,87.5855501 163.450855,87.4620862 C163.450855,87.2460251 163.370669,87.0901541 163.210294,86.99447 C163.049919,86.898786 162.855621,86.8231651 162.627395,86.7676067 L162.035245,86.6287108 C161.961225,86.6101914 161.860993,86.5793261 161.734543,86.5361136 C161.608094,86.4929011 161.48473,86.4280836 161.364449,86.3416593 C161.244168,86.255235 161.140851,86.1425758 161.054495,86.0036793 C160.96814,85.8647827 160.924962,85.6934798 160.924962,85.4897645 C160.924962,85.2675297 160.969682,85.0730774 161.059121,84.9064017 C161.148561,84.7397259 161.268841,84.6039175 161.419963,84.4989737 C161.571086,84.3940299 161.742252,84.3153229 161.933469,84.2628507 C162.124685,84.2103785 162.322067,84.184143 162.52562,84.184143 C162.827865,84.184143 163.108516,84.2427875 163.367584,84.3600778 C163.626651,84.4773681 163.827116,84.677994 163.968987,84.96196 L163.423098,85.3230894 L163.423098,85.3230894 Z M165.958243,82.6285089 C165.958243,82.7581458 165.911982,82.8646313 165.819458,82.9479695 C165.726933,83.0313077 165.625159,83.0729758 165.51413,83.0729758 C165.403101,83.0729758 165.301326,83.0313077 165.208802,82.9479695 C165.116278,82.8646313 165.070017,82.7581458 165.070017,82.6285089 C165.070017,82.4988721 165.116278,82.3923866 165.208802,82.3090484 C165.301326,82.2257102 165.403101,82.1840421 165.51413,82.1840421 C165.625159,82.1840421 165.726933,82.2257102 165.819458,82.3090484 C165.911982,82.3923866 165.958243,82.4988721 165.958243,82.6285089 L165.958243,82.6285089 L165.958243,82.6285089 Z M165.819458,88.6288118 L165.208802,88.6288118 L165.208802,84.2952597 L165.819458,84.2952597 L165.819458,88.6288118 L165.819458,88.6288118 Z M167.901237,86.249062 L169.946007,84.2952597 L170.861991,84.2952597 L168.706192,86.2768412 L171.093299,88.6288118 L170.149559,88.6288118 L167.901237,86.350919 L167.901237,88.6288118 L167.290582,88.6288118 L167.290582,81.6284585 L167.901237,81.6284585 L167.901237,86.249062 L167.901237,86.249062 Z M171.814983,85.6471798 C171.814983,85.455811 171.810357,85.2613588 171.801104,85.063817 C171.791852,84.8662753 171.784142,84.6100918 171.777974,84.2952597 L172.379377,84.2952597 L172.379377,85.1008559 L172.397881,85.1008559 C172.441059,84.9835656 172.502741,84.8709065 172.582928,84.7628759 C172.663116,84.6548453 172.760265,84.5576189 172.874378,84.4711945 C172.988491,84.3847702 173.121106,84.3153229 173.272229,84.2628507 C173.423351,84.2103785 173.594518,84.184143 173.785734,84.184143 C173.958446,84.184143 174.109566,84.2026625 174.2391,84.2397014 L174.118819,84.8415836 C174.038632,84.8107176 173.921437,84.795285 173.76723,84.795285 C173.532836,84.795285 173.33237,84.8400399 173.165827,84.929551 C172.999284,85.0190621 172.8605,85.1332643 172.749471,85.2721609 C172.638442,85.4110574 172.556714,85.5607548 172.504283,85.7212576 C172.451853,85.8817604 172.425638,86.0360877 172.425638,86.184244 L172.425638,88.6288118 L171.814983,88.6288118 L171.814983,85.6471798 L171.814983,85.6471798 Z M178.189855,86.1286856 C178.189855,85.7150827 178.066491,85.3801921 177.819761,85.1240053 C177.57303,84.8678184 177.227612,84.7397266 176.783497,84.7397266 C176.586113,84.7397266 176.394899,84.7783086 176.209851,84.8554732 C176.024803,84.9326378 175.862889,85.0360372 175.724103,85.165674 C175.585317,85.2953109 175.47429,85.4434652 175.391018,85.6101409 C175.307746,85.7768166 175.266111,85.9496633 175.266111,86.1286856 L178.189855,86.1286856 L178.189855,86.1286856 Z M175.247606,86.6287108 C175.266111,86.844772 175.318541,87.048484 175.404896,87.2398528 C175.491252,87.4312216 175.605363,87.5963516 175.747233,87.7352482 C175.889104,87.8741447 176.05256,87.983717 176.237608,88.0639685 C176.422656,88.1442199 176.623122,88.1843449 176.839011,88.1843449 C177.165929,88.1843449 177.448123,88.1087247 177.685602,87.9574816 C177.92308,87.8062385 178.103499,87.6318488 178.226864,87.434307 L178.698734,87.8232156 C178.439667,88.1503941 178.154389,88.3849714 177.842892,88.5269548 C177.531394,88.6689381 177.196771,88.7399285 176.839011,88.7399285 C176.518261,88.7399285 176.220647,88.6828277 175.946159,88.5686236 C175.671671,88.4544194 175.435738,88.2954629 175.238354,88.0917476 C175.04097,87.8880323 174.885223,87.6472821 174.77111,87.369489 C174.656998,87.0916958 174.599942,86.7892143 174.599942,86.4620358 C174.599942,86.1348572 174.655455,85.8323757 174.766484,85.5545825 C174.877513,85.2767894 175.031717,85.0360392 175.229102,84.8323239 C175.426486,84.6286086 175.657793,84.4696521 175.923028,84.3554479 C176.188263,84.2412438 176.475084,84.184143 176.783497,84.184143 C177.110415,84.184143 177.403404,84.2427875 177.662471,84.3600778 C177.921538,84.4773681 178.138966,84.6332391 178.314762,84.827694 C178.490557,85.0221489 178.624715,85.2505533 178.717239,85.5129138 C178.809763,85.7752742 178.856024,86.0546065 178.856024,86.350919 L178.856024,86.6287108 L175.247606,86.6287108 L175.247606,86.6287108 Z M182.205377,84.8508433 L180.956309,84.8508433 L180.956309,87.4065279 C180.956309,87.5670307 180.971729,87.6982086 181.002571,87.8000662 C181.033412,87.9019239 181.076589,87.9806309 181.132104,88.0361893 C181.187618,88.0917476 181.253926,88.1303296 181.331029,88.1519359 C181.408132,88.1735421 181.492945,88.1843449 181.585469,88.1843449 C181.69033,88.1843449 181.798272,88.1689122 181.909301,88.1380463 C182.02033,88.1071803 182.122105,88.0670553 182.214629,88.0176698 L182.242386,88.5825131 C182.01416,88.6874569 181.739677,88.7399285 181.418926,88.7399285 C181.30173,88.7399285 181.179908,88.7244958 181.053459,88.6936299 C180.927009,88.6627639 180.811356,88.6041194 180.706495,88.5176951 C180.601635,88.4312707 180.51528,88.3139817 180.447429,88.1658254 C180.379578,88.0176692 180.345653,87.8232169 180.345653,87.5824627 L180.345653,84.8508433 L179.42967,84.8508433 L179.42967,84.2952597 L180.345653,84.2952597 L180.345653,83.0729758 L180.956309,83.0729758 L180.956309,84.2952597 L182.205377,84.2952597 L182.205377,84.8508433 L182.205377,84.8508433 Z M76.0716232,97.8250431 C76.0716232,97.6645403 76.066997,97.5040401 76.0577447,97.3435373 C76.0484923,97.1830345 76.0376981,97.0225344 76.0253614,96.8620315 L76.6822786,96.8620315 L76.6822786,97.5194721 L76.7007833,97.5194721 C76.8488216,97.2663714 77.0539132,97.0750059 77.3160648,96.9453691 C77.5782164,96.8157323 77.8388215,96.7509148 78.0978887,96.7509148 C78.2150856,96.7509148 78.3399911,96.7632607 78.4726091,96.7879537 C78.605227,96.8126468 78.7332162,96.8574017 78.8565818,96.9222198 C78.9799474,96.9870379 79.0956005,97.0780914 79.203545,97.1953817 C79.3114896,97.312672 79.40247,97.4639131 79.4764895,97.6491083 C79.5998551,97.3713152 79.7956944,97.1521705 80.064014,96.9916677 C80.3323335,96.8311649 80.6114434,96.7509148 80.901352,96.7509148 C81.4564959,96.7509148 81.8666798,96.8975254 82.1319151,97.1907518 C82.3971503,97.4839783 82.5297663,97.9022051 82.5297663,98.4454448 L82.5297663,101.195584 L81.9191109,101.195584 L81.9191109,98.6676782 C81.9191109,98.2293823 81.8420091,97.8929487 81.6878021,97.658368 C81.5335958,97.4237874 81.2467754,97.3064984 80.8273332,97.3064984 C80.5991073,97.3064984 80.4078942,97.3512533 80.2536872,97.4407645 C80.0994809,97.5302756 79.9745748,97.6491076 79.8789669,97.7972639 C79.783359,97.9454202 79.713967,98.113637 79.6707889,98.301919 C79.6276108,98.490201 79.6060224,98.6861964 79.6060224,98.8899117 L79.6060224,101.195584 L78.9953671,101.195584 L78.9953671,98.6676782 C78.9953671,98.2293823 78.9182652,97.8929487 78.7640582,97.658368 C78.6098519,97.4237874 78.3230315,97.3064984 77.9035893,97.3064984 C77.8665799,97.3064984 77.7817675,97.3188443 77.6491496,97.3435373 C77.5165316,97.3682304 77.3792901,97.4361339 77.2374198,97.5472513 C77.0955495,97.6583687 76.9675603,97.8250418 76.8534471,98.0472766 C76.7393345,98.2695113 76.6822786,98.5781658 76.6822786,98.9732492 L76.6822786,101.195584 L76.0716232,101.195584 L76.0716232,97.8250431 L76.0716232,97.8250431 Z M87.6648228,99.0288076 C87.6648228,98.7880534 87.6262716,98.5627358 87.5491684,98.3528475 C87.4720652,98.1429593 87.3625801,97.9608529 87.2207098,97.8065237 C87.0788395,97.6521944 86.9076729,97.5302756 86.7072042,97.4407645 C86.5067354,97.3512533 86.2800554,97.3064984 86.0271562,97.3064984 C85.7742569,97.3064984 85.5475769,97.3512533 85.3471081,97.4407645 C85.1466394,97.5302756 84.9770146,97.6521944 84.8382287,97.8065237 C84.6994427,97.9608529 84.5914994,98.1429593 84.5143963,98.3528475 C84.4372931,98.5627358 84.3987418,98.7880534 84.3987418,99.0288076 C84.3987418,99.2695618 84.4372931,99.4948794 84.5143963,99.7047676 C84.5914994,99.9146559 84.6994427,100.096762 84.8382287,100.251091 C84.9770146,100.405421 85.1466394,100.52734 85.3471081,100.616851 C85.5475769,100.706362 85.7742569,100.751117 86.0271562,100.751117 C86.2800554,100.751117 86.5067354,100.706362 86.7072042,100.616851 C86.9076729,100.52734 87.0788395,100.405421 87.2207098,100.251091 C87.3625801,100.096762 87.4720652,99.9146559 87.5491684,99.7047676 C87.6262716,99.4948794 87.6648228,99.2695618 87.6648228,99.0288076 L87.6648228,99.0288076 L87.6648228,99.0288076 Z M88.3309923,99.0288076 C88.3309923,99.3559861 88.273937,99.6584677 88.1598238,99.9362608 C88.0457112,100.214054 87.8868806,100.454804 87.6833275,100.658519 C87.4797751,100.862235 87.237674,101.021191 86.9570177,101.135395 C86.6763615,101.2496 86.3664109,101.3067 86.0271562,101.3067 C85.6940701,101.3067 85.3872032,101.2496 85.1065469,101.135395 C84.8258906,101.021191 84.5837902,100.862235 84.3802371,100.658519 C84.1766847,100.454804 84.0178541,100.214054 83.9037409,99.9362608 C83.7896283,99.6584677 83.7325723,99.3559861 83.7325723,99.0288076 C83.7325723,98.701629 83.7896283,98.3991475 83.9037409,98.1213544 C84.0178541,97.8435612 84.1766847,97.602811 84.3802371,97.3990957 C84.5837902,97.1953804 84.8258906,97.0364239 85.1065469,96.9222198 C85.3872032,96.8080156 85.6940701,96.7509148 86.0271562,96.7509148 C86.3664109,96.7509148 86.6763615,96.8080156 86.9570177,96.9222198 C87.237674,97.0364239 87.4797751,97.1953804 87.6833275,97.3990957 C87.8868806,97.602811 88.0457112,97.8435612 88.1598238,98.1213544 C88.273937,98.3991475 88.3309923,98.701629 88.3309923,99.0288076 L88.3309923,99.0288076 L88.3309923,99.0288076 Z M91.6803445,97.4176151 L90.4312767,97.4176151 L90.4312767,99.9732997 C90.4312767,100.133802 90.4466971,100.26498 90.4775385,100.366838 C90.5083799,100.468696 90.5515573,100.547403 90.6070714,100.602961 C90.6625855,100.658519 90.7288939,100.697101 90.805997,100.718708 C90.8831002,100.740314 90.9679126,100.751117 91.0604368,100.751117 C91.1652977,100.751117 91.2732402,100.735684 91.3842692,100.704818 C91.4952981,100.673952 91.5970726,100.633827 91.6895968,100.584442 L91.7173539,101.149285 C91.4891281,101.254229 91.2146444,101.3067 90.8938944,101.3067 C90.7766975,101.3067 90.6548757,101.291268 90.5284264,101.260402 C90.4019771,101.229536 90.286324,101.170891 90.1814631,101.084467 C90.0766029,100.998043 89.990248,100.880754 89.9223972,100.732597 C89.8545464,100.584441 89.8206213,100.389989 89.8206213,100.149234 L89.8206213,97.4176151 L88.9046383,97.4176151 L88.9046383,96.8620315 L89.8206213,96.8620315 L89.8206213,95.6397476 L90.4312767,95.6397476 L90.4312767,96.8620315 L91.6803445,96.8620315 L91.6803445,97.4176151 L91.6803445,97.4176151 Z M97.546337,99.0380673 C97.3921306,99.0380673 97.199375,99.045784 96.9680648,99.0612166 C96.7367547,99.0766493 96.5147008,99.1136882 96.3018953,99.1723333 C96.0890899,99.2309785 95.9071291,99.3220314 95.7560064,99.4454953 C95.6048838,99.5689592 95.5293238,99.7387191 95.5293238,99.9547802 C95.5293238,100.096764 95.5586227,100.218682 95.6172211,100.320539 C95.6758196,100.422397 95.7544639,100.505734 95.8531562,100.570552 C95.9518484,100.63537 96.0613335,100.681669 96.1816147,100.709448 C96.301896,100.737227 96.4237171,100.751117 96.5470827,100.751117 C96.7691405,100.751117 96.9618955,100.714078 97.1253548,100.64 C97.2888142,100.565922 97.4260557,100.465609 97.5370846,100.339059 C97.6481135,100.212509 97.7298415,100.064355 97.782272,99.894592 C97.8347024,99.7248295 97.860917,99.5442668 97.860917,99.352898 L97.860917,99.0380673 L97.546337,99.0380673 L97.546337,99.0380673 Z M97.860917,98.5380421 L97.860917,98.4269253 C97.860917,97.6799703 97.4908268,97.3064984 96.7506345,97.3064984 C96.2448367,97.3064984 95.803812,97.4762583 95.4275479,97.8157834 L95.0574537,97.3805762 C95.4645593,96.9607998 96.0752087,96.7509148 96.8894198,96.7509148 C97.0991409,96.7509148 97.3011489,96.7817801 97.495449,96.8435121 C97.6897498,96.905244 97.857832,96.9993837 97.9997023,97.1259338 C98.1415726,97.2524838 98.2556839,97.4114409 98.3420394,97.6028097 C98.4283949,97.7941785 98.4715724,98.0225828 98.4715724,98.2880294 L98.4715724,100.223312 C98.4715724,100.389988 98.4792829,100.564378 98.4947032,100.746487 C98.5101236,100.928596 98.5270865,101.078293 98.5455912,101.195584 L97.9534405,101.195584 C97.9349358,101.09064 97.9210573,100.976438 97.9118049,100.852974 C97.9025526,100.72951 97.8979264,100.609135 97.8979264,100.491844 L97.8794217,100.491844 C97.700542,100.781984 97.4892823,100.990326 97.2456354,101.116876 C97.0019892,101.243426 96.7043747,101.3067 96.3527833,101.3067 C96.1615669,101.3067 95.9765218,101.280465 95.797642,101.227993 C95.6187623,101.17552 95.4599318,101.09527 95.3211458,100.98724 C95.1823598,100.879209 95.0713329,100.746488 94.9880611,100.589072 C94.9047892,100.431655 94.8631543,100.248006 94.8631543,100.038118 C94.8631543,99.6862462 94.9541347,99.4100008 95.1360987,99.2093722 C95.3180628,99.0087437 95.5462853,98.8590464 95.8207729,98.7602755 C96.0952605,98.6615046 96.3882489,98.599774 96.6997466,98.575081 C97.0112442,98.5503879 97.2965221,98.5380421 97.5555893,98.5380421 L97.860917,98.5380421 L97.860917,98.5380421 Z M100.470081,96.8620315 C100.482418,96.9793219 100.490127,97.0950671 100.493212,97.2092713 C100.496296,97.3234755 100.497838,97.4392207 100.497838,97.556511 L100.516343,97.556511 C100.584193,97.4392207 100.670548,97.3311915 100.775409,97.2324206 C100.880269,97.1336498 100.997464,97.0487698 101.126998,96.9777781 C101.256532,96.9067865 101.393774,96.8512288 101.538728,96.811103 C101.683682,96.7709773 101.827092,96.7509148 101.968962,96.7509148 C102.524106,96.7509148 102.93429,96.8975254 103.199525,97.1907518 C103.464761,97.4839783 103.597377,97.9022051 103.597377,98.4454448 L103.597377,101.195584 L102.986721,101.195584 L102.986721,98.7973144 C102.986721,98.315806 102.903451,97.9469639 102.736908,97.6907771 C102.570365,97.4345902 102.261956,97.3064984 101.811672,97.3064984 C101.780831,97.3064984 101.694477,97.3188443 101.552606,97.3435373 C101.410736,97.3682304 101.261158,97.4361339 101.103867,97.5472513 C100.946576,97.6583687 100.806251,97.8250418 100.682885,98.0472766 C100.559519,98.2695113 100.497838,98.5781658 100.497838,98.9732492 L100.497838,101.195584 L99.8871825,101.195584 L99.8871825,97.8157834 C99.8871825,97.6984931 99.8825564,97.5503388 99.873304,97.3713165 C99.8640516,97.1922942 99.8532575,97.0225344 99.8409208,96.8620315 L100.470081,96.8620315 L100.470081,96.8620315 Z M105.475604,98.9732492 C105.475604,99.2016569 105.517239,99.4161717 105.600511,99.6168002 C105.683783,99.8174287 105.797894,99.9933615 105.942848,100.144605 C106.087802,100.295848 106.257428,100.416223 106.451728,100.505734 C106.646028,100.595245 106.857288,100.64 107.085514,100.64 C107.307572,100.64 107.518831,100.599875 107.7193,100.519624 C107.919769,100.439372 108.097104,100.326713 108.251311,100.181644 C108.405518,100.036574 108.524254,99.8621843 108.607526,99.658469 C108.690798,99.4547537 108.729349,99.2263499 108.723181,98.9732492 C108.723181,98.7448415 108.686172,98.5303267 108.612152,98.3296982 C108.538133,98.1290697 108.43019,97.9531369 108.28832,97.8018938 C108.14645,97.6506507 107.973741,97.5302756 107.770188,97.4407645 C107.566636,97.3512533 107.338413,97.3064984 107.085514,97.3064984 C106.857288,97.3064984 106.646028,97.3512533 106.451728,97.4407645 C106.257428,97.5302756 106.087802,97.6506507 105.942848,97.8018938 C105.797894,97.9531369 105.683783,98.1290697 105.600511,98.3296982 C105.517239,98.5303267 105.475604,98.7448415 105.475604,98.9732492 L105.475604,98.9732492 L105.475604,98.9732492 Z M105.364576,102.065998 C105.543456,102.306752 105.776305,102.499661 106.063129,102.644731 C106.349953,102.7898 106.669156,102.862334 107.020748,102.862334 C107.329161,102.862334 107.591308,102.817579 107.807198,102.728068 C108.023087,102.638557 108.197338,102.516639 108.329956,102.362309 C108.462574,102.207979 108.55818,102.027417 108.616779,101.820615 C108.675377,101.613814 108.704676,101.393125 108.704676,101.158545 L108.704676,100.380728 L108.686171,100.380728 C108.488787,100.67704 108.248228,100.886925 107.964488,101.010389 C107.680748,101.133853 107.381591,101.195584 107.067009,101.195584 C106.752428,101.195584 106.457897,101.140026 106.183409,101.028909 C105.908922,100.917791 105.669905,100.765007 105.466352,100.570552 C105.2628,100.376097 105.102427,100.143063 104.98523,99.8714427 C104.868033,99.5998225 104.809435,99.3066007 104.809435,98.9917687 C104.809435,98.6769366 104.864948,98.3837148 104.975977,98.1120946 C105.087006,97.8404744 105.239669,97.602811 105.433969,97.3990957 C105.62827,97.1953804 105.859576,97.0364239 106.127895,96.9222198 C106.396215,96.8080156 106.690745,96.7509148 107.011495,96.7509148 C107.141029,96.7509148 107.278271,96.7632607 107.423225,96.7879537 C107.568179,96.8126468 107.713132,96.855858 107.858086,96.9175899 C108.00304,96.9793219 108.14645,97.0642018 108.28832,97.1722324 C108.43019,97.280263 108.562806,97.4176145 108.686171,97.5842902 L108.704676,97.5842902 L108.704676,96.8620315 L109.315331,96.8620315 L109.315331,101.158545 C109.315331,101.393125 109.286032,101.643136 109.227434,101.908583 C109.168835,102.174029 109.054724,102.417866 108.885097,102.640101 C108.715469,102.862336 108.479537,103.047528 108.177292,103.195685 C107.875046,103.343841 107.480284,103.417918 106.99299,103.417918 C106.561212,103.417918 106.175701,103.346928 105.836446,103.204944 C105.497191,103.062961 105.188783,102.843816 104.911211,102.547504 L105.364576,102.065998 L105.364576,102.065998 Z M110.749446,98.2139516 C110.749446,98.0225828 110.74482,97.8281306 110.735568,97.6305889 C110.726315,97.4330471 110.718605,97.1768636 110.712437,96.8620315 L111.31384,96.8620315 L111.31384,97.6676278 L111.332345,97.6676278 C111.375523,97.5503374 111.437204,97.4376783 111.517392,97.3296477 C111.597579,97.2216172 111.694728,97.1243907 111.808841,97.0379664 C111.922954,96.951542 112.055569,96.8820947 112.206692,96.8296225 C112.357815,96.7771503 112.528981,96.7509148 112.720198,96.7509148 C112.892909,96.7509148 113.044029,96.7694343 113.173563,96.8064732 L113.053282,97.4083554 C112.973095,97.3774894 112.8559,97.3620568 112.701693,97.3620568 C112.467299,97.3620568 112.266833,97.4068117 112.10029,97.4963228 C111.933747,97.5858339 111.794963,97.7000361 111.683934,97.8389327 C111.572905,97.9778293 111.491177,98.1275266 111.438747,98.2880294 C111.386316,98.4485323 111.360102,98.6028595 111.360102,98.7510158 L111.360102,101.195584 L110.749446,101.195584 L110.749446,98.2139516 L110.749446,98.2139516 Z M117.124318,98.6954574 C117.124318,98.2818545 117.000955,97.9469639 116.754224,97.6907771 C116.507493,97.4345902 116.162075,97.3064984 115.71796,97.3064984 C115.520576,97.3064984 115.329362,97.3450804 115.144314,97.422245 C114.959267,97.4994096 114.797352,97.602809 114.658566,97.7324458 C114.51978,97.8620827 114.408753,98.010237 114.325481,98.1769127 C114.242209,98.3435885 114.200574,98.5164352 114.200574,98.6954574 L117.124318,98.6954574 L117.124318,98.6954574 Z M114.18207,99.1954826 C114.200574,99.4115438 114.253004,99.6152558 114.33936,99.8066246 C114.425715,99.9979934 114.539826,100.163123 114.681697,100.30202 C114.823567,100.440917 114.987024,100.550489 115.172071,100.63074 C115.357119,100.710992 115.557585,100.751117 115.773474,100.751117 C116.100393,100.751117 116.382587,100.675497 116.620065,100.524253 C116.857543,100.37301 117.037962,100.198621 117.161328,100.001079 L117.633198,100.389987 C117.37413,100.717166 117.088853,100.951743 116.777355,101.093727 C116.465857,101.23571 116.131234,101.3067 115.773474,101.3067 C115.452724,101.3067 115.15511,101.2496 114.880622,101.135395 C114.606135,101.021191 114.370202,100.862235 114.172817,100.658519 C113.975433,100.454804 113.819687,100.214054 113.705573,99.9362608 C113.591461,99.6584677 113.534405,99.3559861 113.534405,99.0288076 C113.534405,98.701629 113.589918,98.3991475 113.700947,98.1213544 C113.811976,97.8435612 113.96618,97.602811 114.163565,97.3990957 C114.360949,97.1953804 114.592256,97.0364239 114.857491,96.9222198 C115.122727,96.8080156 115.409547,96.7509148 115.71796,96.7509148 C116.044878,96.7509148 116.337867,96.8095593 116.596934,96.9268496 C116.856001,97.0441399 117.07343,97.2000109 117.249225,97.3944658 C117.42502,97.5889207 117.559178,97.8173251 117.651702,98.0796856 C117.744227,98.3420461 117.790488,98.6213783 117.790488,98.9176909 L117.790488,99.1954826 L114.18207,99.1954826 L114.18207,99.1954826 Z M122.851525,99.0288076 C122.851525,98.7880534 122.812974,98.5627358 122.735871,98.3528475 C122.658768,98.1429593 122.549283,97.9608529 122.407412,97.8065237 C122.265542,97.6521944 122.094375,97.5302756 121.893907,97.4407645 C121.693438,97.3512533 121.466758,97.3064984 121.213859,97.3064984 C120.960959,97.3064984 120.729653,97.3512533 120.519932,97.4407645 C120.310211,97.5302756 120.12825,97.6521944 119.974043,97.8065237 C119.819837,97.9608529 119.699557,98.1429593 119.613201,98.3528475 C119.526846,98.5627358 119.483668,98.7880534 119.483668,99.0288076 C119.483668,99.2695618 119.526846,99.4948794 119.613201,99.7047676 C119.699557,99.9146559 119.819837,100.096762 119.974043,100.251091 C120.12825,100.405421 120.310211,100.52734 120.519932,100.616851 C120.729653,100.706362 120.960959,100.751117 121.213859,100.751117 C121.466758,100.751117 121.693438,100.706362 121.893907,100.616851 C122.094375,100.52734 122.265542,100.405421 122.407412,100.251091 C122.549283,100.096762 122.658768,99.9146559 122.735871,99.7047676 C122.812974,99.4948794 122.851525,99.2695618 122.851525,99.0288076 L122.851525,99.0288076 L122.851525,99.0288076 Z M118.90077,96.8620315 L119.511425,96.8620315 L119.511425,97.5842902 L119.52993,97.5842902 C119.628622,97.4361339 119.745818,97.3095852 119.88152,97.2046414 C120.017221,97.0996976 120.15909,97.013274 120.307128,96.9453691 C120.455166,96.8774642 120.607829,96.8280794 120.765119,96.7972135 C120.92241,96.7663475 121.071988,96.7509148 121.213859,96.7509148 C121.553113,96.7509148 121.863064,96.8080156 122.14372,96.9222198 C122.424376,97.0364239 122.666478,97.1953804 122.87003,97.3990957 C123.073583,97.602811 123.232414,97.8435612 123.346526,98.1213544 C123.460639,98.3991475 123.517695,98.701629 123.517695,99.0288076 C123.517695,99.3559861 123.460639,99.6584677 123.346526,99.9362608 C123.232414,100.214054 123.073583,100.454804 122.87003,100.658519 C122.666478,100.862235 122.424376,101.021191 122.14372,101.135395 C121.863064,101.2496 121.553113,101.3067 121.213859,101.3067 C121.071988,101.3067 120.92241,101.291268 120.765119,101.260402 C120.607829,101.229536 120.455166,101.180151 120.307128,101.112246 C120.15909,101.044341 120.017221,100.957918 119.88152,100.852974 C119.745818,100.74803 119.628622,100.621481 119.52993,100.473325 L119.511425,100.473325 L119.511425,103.862385 L118.90077,103.862385 L118.90077,96.8620315 L118.90077,96.8620315 Z M83.3297605,108.109375 L78.3111846,123.022082 L74.9189986,123.022082 L79.3954448,109.81457 L74.5782311,109.81457 L74.5782311,108.109375 L83.3297605,108.109375 L83.3297605,108.109375 Z M95.2876021,117.921998 C95.2876021,118.624749 95.1533616,119.286151 94.8848768,119.906225 C94.616392,120.526299 94.2523938,121.066272 93.7928717,121.526161 C93.3333496,121.986049 92.7938065,122.350337 92.1742259,122.619036 C91.554646,122.887735 90.8937701,123.022082 90.1915786,123.022082 C89.4377563,123.022082 88.7381567,122.879984 88.0927607,122.595783 C87.4473647,122.311583 86.8923319,121.905957 86.4276469,121.378894 L87.6358226,120.185258 C87.8010439,120.464291 88.0617799,120.699399 88.4180391,120.890588 C88.7742977,121.081778 89.1641113,121.208374 89.5874911,121.270381 C90.0108709,121.332389 90.4368261,121.329805 90.8653694,121.262631 C91.293912,121.195456 91.6579102,121.043023 91.9573738,120.805329 L91.9573738,115.038669 C91.6682365,114.821642 91.296494,114.664042 90.8421347,114.565864 C90.3877761,114.467686 89.9050266,114.467686 89.393873,114.565864 C88.8827194,114.664042 88.3664097,114.881065 87.8449298,115.216939 C87.3234499,115.552812 86.8510267,116.051448 86.4276469,116.71286 L87.589354,108.109375 L94.3737252,108.109375 L94.3737252,109.81457 L90.6562615,109.81457 L90.2380472,112.837416 C90.9402381,112.837416 91.5985325,112.971763 92.2129496,113.240463 C92.8273667,113.509161 93.361747,113.873449 93.8161057,114.333337 C94.270465,114.793226 94.6292997,115.330615 94.8926217,115.945522 C95.155943,116.560429 95.2876021,117.219247 95.2876021,117.921998 L95.2876021,117.921998 L95.2876021,117.921998 Z M103.649959,115.092925 L100.176454,123.022082 L99.4910463,123.022082 L102.976169,115.092925 L103.649959,115.092925 L103.649959,115.092925 Z M107.37904,123.022082 L107.37904,116.639226 L109.028664,116.639226 L109.028664,117.842551 C109.532074,116.943445 110.248452,116.493897 111.177823,116.493897 C111.657998,116.493897 112.052975,116.612097 112.362765,116.848501 C112.672555,117.084903 112.862299,117.416251 112.932001,117.842551 C113.528347,116.943445 114.248599,116.493897 115.092777,116.493897 C116.258363,116.493897 116.841147,117.137214 116.841147,118.423868 L116.841147,123.022082 L115.191522,123.022082 L115.191522,118.987745 C115.191522,118.23203 114.939821,117.854178 114.436412,117.854178 C113.921386,117.854178 113.419921,118.226217 112.932001,118.970305 L112.932001,123.022082 L111.282377,123.022082 L111.282377,118.987745 C111.282377,118.228154 111.02874,117.848365 110.521458,117.848365 C110.014177,117.848365 109.516584,118.222341 109.028664,118.970305 L109.028664,123.022082 L107.37904,123.022082 L107.37904,123.022082 Z M118.914794,123.022082 L118.914794,116.639226 L120.634121,116.639226 L120.634121,117.842551 C121.195616,116.943445 121.91974,116.493897 122.806514,116.493897 C123.375754,116.493897 123.824942,116.674104 124.154095,117.034522 C124.483247,117.39494 124.64782,117.887116 124.64782,118.511066 L124.64782,123.022082 L122.928494,123.022082 L122.928494,118.935427 C122.928494,118.210715 122.68841,117.848365 122.208235,117.848365 C121.66223,117.848365 121.13753,118.233967 120.634121,119.005185 L120.634121,123.022082 L118.914794,123.022082 L118.914794,123.022082 Z M130.740976,123.022082 L130.740976,121.818757 C130.299525,122.717864 129.604443,123.167411 128.655711,123.167411 C127.88898,123.167411 127.286834,122.886444 126.849256,122.324502 C126.411677,121.76256 126.192891,120.989417 126.192891,120.005049 C126.192891,118.935421 126.439751,118.082832 126.93348,117.447256 C127.427208,116.811681 128.090342,116.493897 128.922904,116.493897 C129.588953,116.493897 130.194971,116.757425 130.740976,117.284488 L130.740976,113.843094 L132.466111,113.843094 L132.466111,123.022082 L130.740976,123.022082 L130.740976,123.022082 Z M130.740976,118.307605 C130.326631,117.842549 129.883251,117.610025 129.41082,117.610025 C128.988731,117.610025 128.65184,117.813484 128.400135,118.220407 C128.148431,118.627331 128.02258,119.173763 128.02258,119.85972 C128.02258,121.165751 128.440791,121.818757 129.277224,121.818757 C129.788378,121.818757 130.27629,121.491285 130.740976,120.836331 L130.740976,118.307605 L130.740976,118.307605 Z"/>
  </g>
</svg>
