<svg xmlns="http://www.w3.org/2000/svg" width="300" height="200" viewBox="0 0 300 200" xmlns:xlink="http://www.w3.org/1999/xlink">
  <defs>
    <path id="a" d="M177.535271,31.9058605 C177.516667,31.9832558 177.498062,32.0971163 177.469783,32.2831628 C176.365411,39.4005581 171.473132,56.8219535 149.924481,64.9566512 L149.768201,64.9618605 C128.23369,56.8249302 123.339922,39.416186 122.23555,32.3032558 C122.207271,32.1172093 122.189411,32.0033488 122.170806,31.9259535 C121.335085,21.1575814 121.95276,8.46251163 122.13062,5.29451163 C123.69862,6.5387907 128.341597,9.65767442 135.467178,9.65767442 C143.441876,9.65767442 148.913132,3.84483721 149.853039,2.77395349 C150.792201,3.84483721 156.263457,9.65767442 164.238899,9.65767442 C171.363736,9.65767442 176.005969,6.51348837 177.576201,5.25804651 C177.754062,8.43348837 178.370248,21.1389767 177.535271,31.9058605 M178.274248,4.46325581 L178.222155,3.66697674 L177.645411,4.2184186 C177.596294,4.26530233 172.638527,8.91348837 164.238899,8.91348837 C155.861597,8.91348837 150.343457,2.20613953 150.288387,2.1384186 L150.17676,2 L149.528574,2 L149.41769,2.1384186 C149.36262,2.20613953 143.844481,8.91348837 135.467178,8.91348837 C127.066806,8.91348837 122.108294,4.30474419 122.059178,4.25786047 L121.483178,3.71237209 L121.431085,4.50344186 C121.422155,4.65302326 120.465132,19.6186047 121.431829,32.027907 L121.442248,32.1648372 L121.464574,32.1871628 C121.473504,32.2422326 121.485411,32.3188837 121.500294,32.4171163 C122.626248,39.6669767 127.613783,57.4210233 149.576201,65.6844651 L149.644667,65.7112558 L150.012294,65.6978605 L150.129876,65.6740465 C172.092294,57.4106047 177.079829,39.6498605 178.205039,32.3970233 C178.220667,32.2987907 178.232574,32.2213953 178.24076,32.1670698 L178.273504,32.007814 C179.240946,19.5985116 178.283922,4.61283721 178.274248,4.46325581 M143.09635,43.1267721 L134.336536,34.3669581 L133.809653,34.8930977 L143.09635,44.1790512 L168.618211,18.6571907 L168.092071,18.1310512 L143.09635,43.1267721 Z"/>
  </defs>
  <g fill="none" fill-rule="evenodd">
    <rect width="300" height="200" fill="#ED5F55"/>
    <g stroke="#FFFFFF" stroke-width="2">
      <use xlink:href="#a"/>
      <use xlink:href="#a"/>
      <use xlink:href="#a"/>
    </g>
    <text fill="#E1E4E7" font-family="AmericanTypewriter, American Typewriter" font-size="18">
      <tspan x="90.874" y="90">SSL Sertifikat</tspan> <tspan x="31.869" y="117" font-size="14">* Skaper trygghet og tillitt hos dine </tspan> <tspan x="24.82" y="134" font-size="14">kunder og øker synligheten på Google </tspan> <tspan x="139.179" y="151" font-size="14">søk</tspan>
    </text>
    <text fill="#E1E4E7" font-family="Beirut" font-size="48" font-weight="bold">
      <tspan x="104.339" y="186">150</tspan> <tspan x="152.69" y="186" font-size="18"> / </tspan> <tspan x="167.016" y="186" font-family="LucidaGrande-Bold, Lucida Grande" font-size="18">mnd</tspan>
    </text>
  </g>
</svg>
