<svg xmlns="http://www.w3.org/2000/svg" width="341" height="100" viewBox="0 0 341 100">
  <defs>
    <linearGradient id="b" x1="50%" x2="50%" y1="7.561%" y2="100%">
      <stop stop-color="#B45543" stop-opacity=".3" offset="0%"/>
      <stop stop-color="#B45543" stop-opacity="0" offset="100%"/>
    </linearGradient>
    <linearGradient id="a" x1="50%" x2="50%" y1="79.279%" y2="100%">
      <stop stop-color="#F26D4F" offset="0%"/>
      <stop stop-color="#F26D4F" stop-opacity="0" offset="100%"/>
    </linearGradient>
  </defs>
  <polygon fill="url(#b)" fill-rule="evenodd" stroke="url(#a)" points="52 138.562 57.323 90.989 62.81 96.879 63.667 86.919 69.418 95.98 73.458 99.35 78.835 91.479 81.378 67.472 85.606 74.057 84.99 94.106 91.839 66.292 97.564 67.431 99.489 84.364 105.029 79.756 108.855 86.439 115.704 80.646 119.471 86.434 123.298 81.975 130.856 86.53 145.211 89.301 146.521 97.616 152.663 90.561 159.661 92.318 164.997 74.622 167.792 84.693 172.448 86.476 175.257 66.305 183.539 78.533 190.895 72.222 198.707 81.724 206.265 65.929 205.73 77.411 213.356 81.149 219.725 73.745 227.656 76.12 231.175 68.4 238.424 68.4 249.543 50.481 259.777 49.887 269.006 62.803 276.603 48.596 284.439 65.472 295.95 72.877 305.113 71.022 311.105 84.46 320.615 64.909 327.599 70.428 344.655 56.594 351.623 42.489 353.896 56.198 358.418 61.866 362.778 49.664 368.129 50.853 368.784 79.535 373.145 82.48 372.931 75.101 378.577 84.01 384.3 97.616 390.693 138.562 390.693 140.386" transform="translate(-51 -40)" opacity=".7"/>
</svg>
