<svg xmlns="http://www.w3.org/2000/svg" width="1140" height="512" viewBox="0 0 1140 512" xmlns:xlink="http://www.w3.org/1999/xlink">
  <defs>
    <linearGradient id="b" x1="50%" x2="50%" y1="0%" y2="100%">
      <stop stop-color="#FFFFFF" offset="0%"/>
      <stop stop-color="#000000" offset="100%"/>
    </linearGradient>
    <path id="a" d="M0,792.013473 L87.7261401,795.976384 L134.337432,806.542147 L158.742449,806.542147 L189.08382,806.542147 L215.687487,806.542147 L263.17833,803.900706 L331.776213,806.542147 L402.572748,806.542147 L479.085772,803.900706 L522.619044,800.819025 L569.670157,795.976384 L616.28154,775.285099 L650.800347,774.184499 L711.702955,785.410621 L762.052043,791.133743 L802.727071,762.298016 L862.310489,776.825939 L934.206348,769.121737 L1050.51485,785.850112 L1079.31726,737.049845 L1112.29701,719 L1140,719 L1140,1231 L0.219774375,1231 L0,792.013473 Z"/>
  </defs>
  <g fill="none" fill-rule="evenodd" transform="translate(0 -719)">
    <use fill="#CECED2" xlink:href="#a"/>
    <use fill="url(#b)" fill-opacity=".7" xlink:href="#a"/>
  </g>
</svg>
