<svg xmlns="http://www.w3.org/2000/svg" width="1140" height="2075" viewBox="0 0 1140 2075">
  <g fill="none" fill-rule="evenodd">
    <polygon fill="#404040" points="0 2075 0 0 96.5 23.647 148.002 49.456 182.307 50.346 215.293 39.285 260.814 39.285 304.576 35.436 332.284 44.703 399.136 55.302 432.122 72.185 511.948 72.185 556.15 77.96 652.029 66.79 717.342 66.79 771.879 52.7 825.316 49.456 878 28.352 937.5 23.647 1010.259 28.352 1041.266 10.425 1095 5.946 1140 0 1140 2075"/>
    <polygon fill="#999999" fill-opacity=".2" points="759 87 772 87 794 105.5 759 102"/>
    <polygon fill="#999999" fill-opacity=".2" points="612 91.5 627 88 627 94 622 98 615.5 95"/>
    <polygon fill="#999999" fill-opacity=".2" points="651.5 86.5 662 92 663 103 650 103 631.5 97"/>
    <polygon fill="#999999" fill-opacity=".2" points="663 93 687 93 677 102 665 102"/>
    <polygon fill="#999999" fill-opacity=".2" points="478.5 93.5 485 95 494.5 100 474 100"/>
    <polygon fill="#999999" fill-opacity=".2" points="632.04 82.738 638.54 84.238 648.04 89.238 627.54 89.238" transform="rotate(-30 637.79 85.988)"/>
    <path fill="#999999" fill-opacity=".2" d="M219,94 L283.5,72 L325.5,75 L333.5,94 C333.5,94 295.994513,103.72179 277,105.5 C256.827846,107.388457 216,105 216,105 L219,94 Z"/>
    <polygon fill="#999999" fill-opacity=".2" points="187 92 214 87 212.5 98 199.5 110 187 106"/>
    <polygon fill="#999999" fill-opacity=".2" points="19.5 94 48.5 92 47 103 31 103 4 97.5" transform="matrix(-1 0 0 1 52.5 0)"/>
    <polygon fill="#999999" fill-opacity=".2" points="50.5 99 59.5 95 84.5 99 120.5 99 67 110 30.5 103.5"/>
    <polygon fill="#999999" fill-opacity=".2" points="432 81 435 75 463.5 75 508 75 550.5 81 538 92 501.5 99.5 482 92 448.5 92 345 92 331.5 75 375 82"/>
    <polygon fill="#999999" fill-opacity=".2" points="664.5 88 646.5 73 691.5 69.5 740.5 74 786.5 80.5 803 93 744 93 697.5 80.5 677.5 91 585 83 541 55 576.5 58.5 607 63.5" transform="matrix(-1 0 0 1 1344 0)"/>
    <polygon fill="#999999" fill-opacity=".2" points="807 57 887.5 33.5 859.5 89.5 809 86.5 800.5 106.5 772 83"/>
    <polygon fill="#999999" fill-opacity=".2" points="0 10 98 34 148 59.5 182 60 215 49.5 177 103.5 0 88"/>
    <path fill="#999999" fill-opacity=".2" d="M205.5,77.5 L227.5,59 L294.5,50 L324,38.5 C324,38.5 349.683943,41.0449921 362.5,41.5 C377.85061,42.0449921 405,43 405,43 L422,85.5 L350.5,63 L205.5,77.5 Z" transform="matrix(-1 0 0 1 627.5 0)"/>
    <polygon fill="#999999" fill-opacity=".2" points="958.5 47.5 963.5 29 1013 34.5 1043.5 17.5 1088 17.5 1137 3 1111 41 1054.5 67.5"/>
    <path fill="#999999" fill-opacity=".2" d="M806,106.5 L811,88 L860.5,93.5 L890,33.5 L929.5,33.5 C929.5,33.5 936.962926,51.5762436 945.5,56 C955.29626,61.0762436 984.5,62 984.5,62 C984.5,62 1068.5,106.5 1108,86 C1147.5,65.5 1110.01652,95.536378 1112.5,98.5 C1129.11684,118.329427 1059.5,151.5 1059.5,151.5 L976,106.5 L806,106.5 Z"/>
  </g>
</svg>
