<svg xmlns="http://www.w3.org/2000/svg" width="1140" height="2075" viewBox="0 0 1140 2075">
  <g fill="none" fill-rule="evenodd" transform="translate(0 -31)">
    <polygon fill="#404040" points="0 2106 0 31 96.5 54.647 148.002 80.456 182.307 81.346 215.293 70.285 260.814 70.285 304.576 66.436 332.284 75.703 399.136 86.302 432.122 103.185 511.948 103.185 556.15 108.96 652.029 97.79 717.342 97.79 771.879 83.7 825.316 80.456 878 59.352 937.5 54.647 1010.259 59.352 1041.266 41.425 1095 36.946 1140 31 1140 2106"/>
    <polygon fill="#999999" fill-opacity=".2" points="759 118 772 118 794 136.5 759 133"/>
    <polygon fill="#999999" fill-opacity=".2" points="612 122.5 627 119 627 125 622 129 615.5 126"/>
    <polygon fill="#999999" fill-opacity=".2" points="651.5 117.5 662 123 663 134 650 134 631.5 128"/>
    <polygon fill="#999999" fill-opacity=".2" points="663 124 687 124 677 133 665 133"/>
    <polygon fill="#999999" fill-opacity=".2" points="478.5 124.5 485 126 494.5 131 474 131"/>
    <polygon fill="#999999" fill-opacity=".2" points="632.04 113.738 638.54 115.238 648.04 120.238 627.54 120.238" transform="rotate(-30 637.79 116.988)"/>
    <path fill="#999999" fill-opacity=".2" d="M219,125 L283.5,103 L325.5,106 L333.5,125 C333.5,125 295.994513,134.72179 277,136.5 C256.827846,138.388457 216,136 216,136 L219,125 Z"/>
    <polygon fill="#999999" fill-opacity=".2" points="187 123 214 118 212.5 129 199.5 141 187 137"/>
    <polygon fill="#999999" fill-opacity=".2" points="19.5 125 48.5 123 47 134 31 134 4 128.5" transform="matrix(-1 0 0 1 52.5 0)"/>
    <polygon fill="#999999" fill-opacity=".2" points="50.5 130 59.5 126 84.5 130 120.5 130 67 141 30.5 134.5"/>
    <polygon fill="#999999" fill-opacity=".2" points="432 112 435 106 463.5 106 508 106 550.5 112 538 123 501.5 130.5 482 123 448.5 123 345 123 331.5 106 375 113"/>
    <polygon fill="#999999" fill-opacity=".2" points="664.5 119 646.5 104 691.5 100.5 740.5 105 786.5 111.5 803 124 744 124 697.5 111.5 677.5 122 585 114 541 86 576.5 89.5 607 94.5" transform="matrix(-1 0 0 1 1344 0)"/>
    <polygon fill="#999999" fill-opacity=".2" points="807 88 887.5 64.5 859.5 120.5 809 117.5 800.5 137.5 772 114"/>
    <polygon fill="#999999" fill-opacity=".2" points="0 41 98 65 148 90.5 182 91 215 80.5 177 134.5 0 119"/>
    <path fill="#999999" fill-opacity=".2" d="M205.5,108.5 L227.5,90 L294.5,81 L324,69.5 C324,69.5 349.683943,72.0449921 362.5,72.5 C377.85061,73.0449921 405,74 405,74 L422,116.5 L350.5,94 L205.5,108.5 Z" transform="matrix(-1 0 0 1 627.5 0)"/>
    <polygon fill="#999999" fill-opacity=".2" points="958.5 78.5 963.5 60 1013 65.5 1043.5 48.5 1088 48.5 1137 34 1111 72 1054.5 98.5"/>
    <path fill="#999999" fill-opacity=".2" d="M806,137.5 L811,119 L860.5,124.5 L890,64.5 L929.5,64.5 C929.5,64.5 936.962926,82.5762436 945.5,87 C955.29626,92.0762436 984.5,93 984.5,93 C984.5,93 1068.5,137.5 1108,117 C1147.5,96.5 1110.01652,126.536378 1112.5,129.5 C1129.11684,149.329427 1059.5,182.5 1059.5,182.5 L976,137.5 L806,137.5 Z"/>
    <polygon fill="#999999" fill-opacity=".2" points="6.5 53 51 59.5 102.5 79 137.5 95.5 177.5 101 176 126 62.5 84.5"/>
    <polygon fill="#999999" fill-opacity=".7" points="10.5 62 57.5 83.5 108 122 12.5 88"/>
    <polygon fill="#999999" fill-opacity=".7" points="1005.465 19.069 1069.311 59.812 1106.657 107.532 1042.928 59.375" transform="scale(-1 1) rotate(-28 0 4298.93)"/>
    <polygon fill="#313546" fill-opacity=".4" points="226 82 307.5 76 400 101.5 226 89"/>
    <polygon fill="#313546" fill-opacity=".4" points="558 113 639.5 107 677.5 106 605 118.5 558 120"/>
    <polygon fill="#313546" fill-opacity=".4" points="895 70 953.5 100 991.5 99 964 132 872 113"/>
  </g>
</svg>
