<svg xmlns="http://www.w3.org/2000/svg" width="1140" height="1856" viewBox="0 0 1140 1856">
  <defs>
    <linearGradient id="a" x1="46.261%" x2="46.261%" y1="14.727%" y2="62.724%">
      <stop stop-color="#3C3891" offset="0%"/>
      <stop stop-color="#53A0FE" offset="100%"/>
      <stop stop-color="#B4ED50" offset="100%"/>
    </linearGradient>
  </defs>
  <g fill="none" fill-rule="evenodd">
    <polygon fill="url(#a)" points="0 0 1140 0 1140 1856 0 1856"/>
    <path fill="#FFFFFF" d="M241.820444,170.879438 C241.177969,172.528837 239.863885,173.84259 238.214071,174.484904 L235.916667,185.203431 L233.619262,174.484904 C231.969448,173.84259 230.655365,172.528837 230.012889,170.879438 L219.291667,168.582611 L230.012889,166.285783 C230.655365,164.636384 231.969448,163.322631 233.619262,162.680317 L235.916667,151.96179 L238.214071,162.680317 C239.863885,163.322631 241.177969,164.636384 241.820444,166.285783 L252.541667,168.582611 L241.820444,170.879438 Z"/>
    <g fill="#FFFFFF" transform="translate(491.625 63.317)">
      <path d="M7.50959257 6.30588267C7.29543396 6.85568233 6.85740616 7.29360002 6.30746826 7.50770479L5.54166667 11.0805472 4.77586507 7.50770479C4.22592717 7.29360002 3.78789937 6.85568233 3.57374077 6.30588267L0 5.54027359 3.57374077 4.7746645C3.78789937 4.22486485 4.22592717 3.78694716 4.77586507 3.57284239L5.54166667 0 6.30746826 3.57284239C6.85740616 3.78694716 7.29543396 4.22486485 7.50959257 4.7746645L11.0833333 5.54027359 7.50959257 6.30588267zM63.7179259 6.30588267C63.5037673 6.85568233 63.0657395 7.29360002 62.5158016 7.50770479L61.75 11.0805472 60.9841984 7.50770479C60.4342605 7.29360002 59.9962327 6.85568233 59.7820741 6.30588267L56.2083333 5.54027359 59.7820741 4.7746645C59.9962327 4.22486485 60.4342605 3.78694716 60.9841984 3.57284239L61.75 0 62.5158016 3.57284239C63.0657395 3.78694716 63.5037673 4.22486485 63.7179259 4.7746645L67.2916667 5.54027359 63.7179259 6.30588267zM105.676259 6.30588267C105.462101 6.85568233 105.024073 7.29360002 104.474135 7.50770479L103.708333 11.0805472 102.942532 7.50770479C102.392594 7.29360002 101.954566 6.85568233 101.740407 6.30588267L98.1666667 5.54027359 101.740407 4.7746645C101.954566 4.22486485 102.392594 3.78694716 102.942532 3.57284239L103.708333 0 104.474135 3.57284239C105.024073 3.78694716 105.462101 4.22486485 105.676259 4.7746645L109.25 5.54027359 105.676259 6.30588267z"/>
    </g>
    <g fill="#FFFFFF" transform="translate(82.333 5.54)">
      <path d="M37.0047963 32.4372446C36.897717 32.7121444 36.6787031 32.9311033 36.4037341 33.0381556L36.0208333 34.8245768 35.6379325 33.0381556C35.3629636 32.9311033 35.1439497 32.7121444 35.0368704 32.4372446L33.25 32.05444 35.0368704 31.6716355C35.1439497 31.3967357 35.3629636 31.1777768 35.6379325 31.0707244L36.0208333 29.2843033 36.4037341 31.0707244C36.6787031 31.1777768 36.897717 31.3967357 37.0047963 31.6716355L38.7916667 32.05444 37.0047963 32.4372446zM19.5881296 45.8921947C19.4810503 46.1670946 19.2620364 46.3860534 18.9870675 46.4931058L18.6041667 48.279527 18.2212659 46.4931058C17.9462969 46.3860534 17.727283 46.1670946 17.6202037 45.8921947L15.8333333 45.5093902 17.6202037 45.1265856C17.727283 44.8516858 17.9462969 44.632727 18.2212659 44.5256746L18.6041667 42.7392534 18.9870675 44.5256746C19.2620364 44.632727 19.4810503 44.8516858 19.5881296 45.1265856L21.375 45.5093902 19.5881296 45.8921947zM3.75479628 22.9396327C3.64771698 23.2145326 3.42870308 23.4334914 3.15373413 23.5405438L2.77083333 25.326965 2.38793254 23.5405438C2.11296359 23.4334914 1.89394969 23.2145326 1.78687038 22.9396327L0 22.5568282 1.78687038 22.1740236C1.89394969 21.8991238 2.11296359 21.680165 2.38793254 21.5731126L2.77083333 19.7866914 3.15373413 21.5731126C3.42870308 21.680165 3.64771698 21.8991238 3.75479628 22.1740236L5.54166667 22.5568282 3.75479628 22.9396327zM40.171463 51.4324683C40.0643836 51.7073681 39.8453697 51.926327 39.5704008 52.0333794L39.1875 53.8198006 38.8045992 52.0333794C38.5296303 51.926327 38.3106164 51.7073681 38.203537 51.4324683L36.4166667 51.0496638 38.203537 50.6668592C38.3106164 50.3919594 38.5296303 50.1730006 38.8045992 50.0659482L39.1875 48.279527 39.5704008 50.0659482C39.8453697 50.1730006 40.0643836 50.3919594 40.171463 50.6668592L41.9583333 51.0496638 40.171463 51.4324683zM65.5047963 37.9775182C65.397717 38.252418 65.1787031 38.4713768 64.9037341 38.5784292L64.5208333 40.3648504 64.1379325 38.5784292C63.8629636 38.4713768 63.6439497 38.252418 63.5368704 37.9775182L61.75 37.5947136 63.5368704 37.2119091C63.6439497 36.9370093 63.8629636 36.7180504 64.1379325 36.610998L64.5208333 34.8245768 64.9037341 36.610998C65.1787031 36.7180504 65.397717 36.9370093 65.5047963 37.2119091L67.2916667 37.5947136 65.5047963 37.9775182zM81.3381296 17.3993591C81.2310503 17.674259 81.0120364 17.8932178 80.7370675 18.0002702L80.3541667 19.7866914 79.9712659 18.0002702C79.6962969 17.8932178 79.477283 17.674259 79.3702037 17.3993591L77.5833333 17.0165546 79.3702037 16.6337501C79.477283 16.3588502 79.6962969 16.1398914 79.9712659 16.032839L80.3541667 14.2464178 80.7370675 16.032839C81.0120364 16.1398914 81.2310503 16.3588502 81.3381296 16.6337501L83.125 17.0165546 81.3381296 17.3993591zM96.3797963 45.8921947C96.272717 46.1670946 96.0537031 46.3860534 95.7787341 46.4931058L95.3958333 48.279527 95.0129325 46.4931058C94.7379636 46.3860534 94.5189497 46.1670946 94.4118704 45.8921947L92.625 45.5093902 94.4118704 45.1265856C94.5189497 44.8516858 94.7379636 44.632727 95.0129325 44.5256746L95.3958333 42.7392534 95.7787341 44.5256746C96.0537031 44.632727 96.272717 44.8516858 96.3797963 45.1265856L98.1666667 45.5093902 96.3797963 45.8921947zM101.921463 32.4372446C101.814384 32.7121444 101.59537 32.9311033 101.320401 33.0381556L100.9375 34.8245768 100.554599 33.0381556C100.27963 32.9311033 100.060616 32.7121444 99.953537 32.4372446L98.1666667 32.05444 99.953537 31.6716355C100.060616 31.3967357 100.27963 31.1777768 100.554599 31.0707244L100.9375 29.2843033 101.320401 31.0707244C101.59537 31.1777768 101.814384 31.3967357 101.921463 31.6716355L103.708333 32.05444 101.921463 32.4372446zM140.71313 19.7737621C140.60605 20.0486619 140.387036 20.2676208 140.112067 20.3746732L139.729167 22.1610944 139.346266 20.3746732C139.071297 20.2676208 138.852283 20.0486619 138.745204 19.7737621L136.958333 19.3909576 138.745204 19.008153C138.852283 18.7332532 139.071297 18.5142943 139.346266 18.407242L139.729167 16.6208208 140.112067 18.407242C140.387036 18.5142943 140.60605 18.7332532 140.71313 19.008153L142.5 19.3909576 140.71313 19.7737621z"/>
      <path d="M140.71313 19.7737621C140.60605 20.0486619 140.387036 20.2676208 140.112067 20.3746732L139.729167 22.1610944 139.346266 20.3746732C139.071297 20.2676208 138.852283 20.0486619 138.745204 19.7737621L136.958333 19.3909576 138.745204 19.008153C138.852283 18.7332532 139.071297 18.5142943 139.346266 18.407242L139.729167 16.6208208 140.112067 18.407242C140.387036 18.5142943 140.60605 18.7332532 140.71313 19.008153L142.5 19.3909576 140.71313 19.7737621zM160.504796 53.0154036C160.397717 53.2903035 160.178703 53.5092623 159.903734 53.6163147L159.520833 55.4027359 159.137933 53.6163147C158.862964 53.5092623 158.64395 53.2903035 158.53687 53.0154036L156.75 52.6325991 158.53687 52.2497945C158.64395 51.9748947 158.862964 51.7559359 159.137933 51.6488835L159.520833 49.8624623 159.903734 51.6488835C160.178703 51.7559359 160.397717 51.9748947 160.504796 52.2497945L162.291667 52.6325991 160.504796 53.0154036zM143.08813 66.4703538C142.98105 66.7452536 142.762036 66.9642124 142.487067 67.0712648L142.104167 68.857686 141.721266 67.0712648C141.446297 66.9642124 141.227283 66.7452536 141.120204 66.4703538L139.333333 66.0875492 141.120204 65.7047447C141.227283 65.4298449 141.446297 65.210886 141.721266 65.1038336L142.104167 63.3174124 142.487067 65.1038336C142.762036 65.210886 142.98105 65.4298449 143.08813 65.7047447L144.875 66.0875492 143.08813 66.4703538zM127.254796 43.5177918C127.147717 43.7926916 126.928703 44.0116504 126.653734 44.1187028L126.270833 45.905124 125.887933 44.1187028C125.612964 44.0116504 125.39395 43.7926916 125.28687 43.5177918L123.5 43.1349872 125.28687 42.7521827C125.39395 42.4772829 125.612964 42.258324 125.887933 42.1512716L126.270833 40.3648504 126.653734 42.1512716C126.928703 42.258324 127.147717 42.4772829 127.254796 42.7521827L129.041667 43.1349872 127.254796 43.5177918zM163.671463 72.0106274C163.564384 72.2855272 163.34537 72.504486 163.070401 72.6115384L162.6875 74.3979596 162.304599 72.6115384C162.02963 72.504486 161.810616 72.2855272 161.703537 72.0106274L159.916667 71.6278228 161.703537 71.2450183C161.810616 70.9701184 162.02963 70.7511596 162.304599 70.6441072L162.6875 68.857686 163.070401 70.6441072C163.34537 70.7511596 163.564384 70.9701184 163.671463 71.2450183L165.458333 71.6278228 163.671463 72.0106274zM189.004796 58.5556772C188.897717 58.830577 188.678703 59.0495359 188.403734 59.1565883L188.020833 60.9430095 187.637933 59.1565883C187.362964 59.0495359 187.14395 58.830577 187.03687 58.5556772L185.25 58.1728727 187.03687 57.7900681C187.14395 57.5151683 187.362964 57.2962095 187.637933 57.1891571L188.020833 55.4027359 188.403734 57.1891571C188.678703 57.2962095 188.897717 57.5151683 189.004796 57.7900681L190.791667 58.1728727 189.004796 58.5556772zM204.83813 37.9775182C204.73105 38.252418 204.512036 38.4713768 204.237067 38.5784292L203.854167 40.3648504 203.471266 38.5784292C203.196297 38.4713768 202.977283 38.252418 202.870204 37.9775182L201.083333 37.5947136 202.870204 37.2119091C202.977283 36.9370093 203.196297 36.7180504 203.471266 36.610998L203.854167 34.8245768 204.237067 36.610998C204.512036 36.7180504 204.73105 36.9370093 204.83813 37.2119091L206.625 37.5947136 204.83813 37.9775182zM219.879796 66.4703538C219.772717 66.7452536 219.553703 66.9642124 219.278734 67.0712648L218.895833 68.857686 218.512933 67.0712648C218.237964 66.9642124 218.01895 66.7452536 217.91187 66.4703538L216.125 66.0875492 217.91187 65.7047447C218.01895 65.4298449 218.237964 65.210886 218.512933 65.1038336L218.895833 63.3174124 219.278734 65.1038336C219.553703 65.210886 219.772717 65.4298449 219.879796 65.7047447L221.666667 66.0875492 219.879796 66.4703538zM225.421463 53.0154036C225.314384 53.2903035 225.09537 53.5092623 224.820401 53.6163147L224.4375 55.4027359 224.054599 53.6163147C223.77963 53.5092623 223.560616 53.2903035 223.453537 53.0154036L221.666667 52.6325991 223.453537 52.2497945C223.560616 51.9748947 223.77963 51.7559359 224.054599 51.6488835L224.4375 49.8624623 224.820401 51.6488835C225.09537 51.7559359 225.314384 51.9748947 225.421463 52.2497945L227.208333 52.6325991 225.421463 53.0154036zM264.21313 40.3519211C264.10605 40.626821 263.887036 40.8457798 263.612067 40.9528322L263.229167 42.7392534 262.846266 40.9528322C262.571297 40.8457798 262.352283 40.626821 262.245204 40.3519211L260.458333 39.9691166 262.245204 39.5863121C262.352283 39.3114122 262.571297 39.0924534 262.846266 38.985401L263.229167 37.1989798 263.612067 38.985401C263.887036 39.0924534 264.10605 39.3114122 264.21313 39.5863121L266 39.9691166 264.21313 40.3519211z"/>
      <path d="M264.21313 40.3519211C264.10605 40.626821 263.887036 40.8457798 263.612067 40.9528322L263.229167 42.7392534 262.846266 40.9528322C262.571297 40.8457798 262.352283 40.626821 262.245204 40.3519211L260.458333 39.9691166 262.245204 39.5863121C262.352283 39.3114122 262.571297 39.0924534 262.846266 38.985401L263.229167 37.1989798 263.612067 38.985401C263.887036 39.0924534 264.10605 39.3114122 264.21313 39.5863121L266 39.9691166 264.21313 40.3519211zM238.08813 23.7311004C237.98105 24.0060002 237.762036 24.224959 237.487067 24.3320114L237.104167 26.1184326 236.721266 24.3320114C236.446297 24.224959 236.227283 24.0060002 236.120204 23.7311004L234.333333 23.3482958 236.120204 22.9654913C236.227283 22.6905915 236.446297 22.4716326 236.721266 22.3645802L237.104167 20.578159 237.487067 22.3645802C237.762036 22.4716326 237.98105 22.6905915 238.08813 22.9654913L239.875 23.3482958 238.08813 23.7311004zM220.671463 37.1860505C220.564384 37.4609503 220.34537 37.6799092 220.070401 37.7869616L219.6875 39.5733828 219.304599 37.7869616C219.02963 37.6799092 218.810616 37.4609503 218.703537 37.1860505L216.916667 36.803246 218.703537 36.4204414C218.810616 36.1455416 219.02963 35.9265828 219.304599 35.8195304L219.6875 34.0331092 220.070401 35.8195304C220.34537 35.9265828 220.564384 36.1455416 220.671463 36.4204414L222.458333 36.803246 220.671463 37.1860505zM204.83813 14.2334885C204.73105 14.5083883 204.512036 14.7273472 204.237067 14.8343996L203.854167 16.6208208 203.471266 14.8343996C203.196297 14.7273472 202.977283 14.5083883 202.870204 14.2334885L201.083333 13.850684 202.870204 13.4678794C202.977283 13.1929796 203.196297 12.9740208 203.471266 12.8669684L203.854167 11.0805472 204.237067 12.8669684C204.512036 12.9740208 204.73105 13.1929796 204.83813 13.4678794L206.625 13.850684 204.83813 14.2334885zM241.254796 42.7263241C241.147717 43.0012239 240.928703 43.2201828 240.653734 43.3272352L240.270833 45.1136564 239.887933 43.3272352C239.612964 43.2201828 239.39395 43.0012239 239.28687 42.7263241L237.5 42.3435196 239.28687 41.960715C239.39395 41.6858152 239.612964 41.4668564 239.887933 41.359804L240.270833 39.5733828 240.653734 41.359804C240.928703 41.4668564 241.147717 41.6858152 241.254796 41.960715L243.041667 42.3435196 241.254796 42.7263241zM266.58813 29.271374C266.48105 29.5462738 266.262036 29.7652326 265.987067 29.872285L265.604167 31.6587062 265.221266 29.872285C264.946297 29.7652326 264.727283 29.5462738 264.620204 29.271374L262.833333 28.8885694 264.620204 28.5057649C264.727283 28.2308651 264.946297 28.0119062 265.221266 27.9048538L265.604167 26.1184326 265.987067 27.9048538C266.262036 28.0119062 266.48105 28.2308651 266.58813 28.5057649L268.375 28.8885694 266.58813 29.271374zM282.421463 8.69321492C282.314384 8.96811475 282.09537 9.1870736 281.820401 9.29412598L281.4375 11.0805472 281.054599 9.29412598C280.77963 9.1870736 280.560616 8.96811475 280.453537 8.69321492L278.666667 8.31041038 280.453537 7.92760584C280.560616 7.65270601 280.77963 7.43374717 281.054599 7.32669478L281.4375 5.54027359 281.820401 7.32669478C282.09537 7.43374717 282.314384 7.65270601 282.421463 7.92760584L284.208333 8.31041038 282.421463 8.69321492zM297.46313 37.1860505C297.35605 37.4609503 297.137036 37.6799092 296.862067 37.7869616L296.479167 39.5733828 296.096266 37.7869616C295.821297 37.6799092 295.602283 37.4609503 295.495204 37.1860505L293.708333 36.803246 295.495204 36.4204414C295.602283 36.1455416 295.821297 35.9265828 296.096266 35.8195304L296.479167 34.0331092 296.862067 35.8195304C297.137036 35.9265828 297.35605 36.1455416 297.46313 36.4204414L299.25 36.803246 297.46313 37.1860505zM303.004796 23.7311004C302.897717 24.0060002 302.678703 24.224959 302.403734 24.3320114L302.020833 26.1184326 301.637933 24.3320114C301.362964 24.224959 301.14395 24.0060002 301.03687 23.7311004L299.25 23.3482958 301.03687 22.9654913C301.14395 22.6905915 301.362964 22.4716326 301.637933 22.3645802L302.020833 20.578159 302.403734 22.3645802C302.678703 22.4716326 302.897717 22.6905915 303.004796 22.9654913L304.791667 23.3482958 303.004796 23.7311004zM341.796463 11.0676179C341.689384 11.3425177 341.47037 11.5614766 341.195401 11.6685289L340.8125 13.4549501 340.429599 11.6685289C340.15463 11.5614766 339.935616 11.3425177 339.828537 11.0676179L338.041667 10.6848133 339.828537 10.3020088C339.935616 10.027109 340.15463 9.80815013 340.429599 9.70109775L340.8125 7.91467655 341.195401 9.70109775C341.47037 9.80815013 341.689384 10.027109 341.796463 10.3020088L343.583333 10.6848133 341.796463 11.0676179z"/>
      <path d="M341.796463 11.0676179C341.689384 11.3425177 341.47037 11.5614766 341.195401 11.6685289L340.8125 13.4549501 340.429599 11.6685289C340.15463 11.5614766 339.935616 11.3425177 339.828537 11.0676179L338.041667 10.6848133 339.828537 10.3020088C339.935616 10.027109 340.15463 9.80815013 340.429599 9.70109775L340.8125 7.91467655 341.195401 9.70109775C341.47037 9.80815013 341.689384 10.027109 341.796463 10.3020088L343.583333 10.6848133 341.796463 11.0676179zM314.879796 56.9727419C314.772717 57.2476417 314.553703 57.4666006 314.278734 57.573653L313.895833 59.3600742 313.512933 57.573653C313.237964 57.4666006 313.01895 57.2476417 312.91187 56.9727419L311.125 56.5899374 312.91187 56.2071328C313.01895 55.932233 313.237964 55.7132741 313.512933 55.6062218L313.895833 53.8198006 314.278734 55.6062218C314.553703 55.7132741 314.772717 55.932233 314.879796 56.2071328L316.666667 56.5899374 314.879796 56.9727419zM297.46313 70.427692C297.35605 70.7025919 297.137036 70.9215507 296.862067 71.0286031L296.479167 72.8150243 296.096266 71.0286031C295.821297 70.9215507 295.602283 70.7025919 295.495204 70.427692L293.708333 70.0448875 295.495204 69.662083C295.602283 69.3871831 295.821297 69.1682243 296.096266 69.0611719L296.479167 67.2747507 296.862067 69.0611719C297.137036 69.1682243 297.35605 69.3871831 297.46313 69.662083L299.25 70.0448875 297.46313 70.427692zM281.629796 47.47513C281.522717 47.7500299 281.303703 47.9689887 281.028734 48.0760411L280.645833 49.8624623 280.262933 48.0760411C279.987964 47.9689887 279.76895 47.7500299 279.66187 47.47513L277.875 47.0923255 279.66187 46.709521C279.76895 46.4346211 279.987964 46.2156623 280.262933 46.1086099L280.645833 44.3221887 281.028734 46.1086099C281.303703 46.2156623 281.522717 46.4346211 281.629796 46.709521L283.416667 47.0923255 281.629796 47.47513zM318.046463 75.9679656C317.939384 76.2428655 317.72037 76.4618243 317.445401 76.5688767L317.0625 78.3552979 316.679599 76.5688767C316.40463 76.4618243 316.185616 76.2428655 316.078537 75.9679656L314.291667 75.5851611 316.078537 75.2023566C316.185616 74.9274567 316.40463 74.7084979 316.679599 74.6014455L317.0625 72.8150243 317.445401 74.6014455C317.72037 74.7084979 317.939384 74.9274567 318.046463 75.2023566L319.833333 75.5851611 318.046463 75.9679656zM343.379796 62.5130155C343.272717 62.7879153 343.053703 63.0068742 342.778734 63.1139266L342.395833 64.9003477 342.012933 63.1139266C341.737964 63.0068742 341.51895 62.7879153 341.41187 62.5130155L339.625 62.130211 341.41187 61.7474064C341.51895 61.4725066 341.737964 61.2535477 342.012933 61.1464954L342.395833 59.3600742 342.778734 61.1464954C343.053703 61.2535477 343.272717 61.4725066 343.379796 61.7474064L345.166667 62.130211 343.379796 62.5130155zM359.21313 41.9348565C359.10605 42.2097563 358.887036 42.4287151 358.612067 42.5357675L358.229167 44.3221887 357.846266 42.5357675C357.571297 42.4287151 357.352283 42.2097563 357.245204 41.9348565L355.458333 41.5520519 357.245204 41.1692474C357.352283 40.8943475 357.571297 40.6753887 357.846266 40.5683363L358.229167 38.7819151 358.612067 40.5683363C358.887036 40.6753887 359.10605 40.8943475 359.21313 41.1692474L361 41.5520519 359.21313 41.9348565zM374.254796 70.427692C374.147717 70.7025919 373.928703 70.9215507 373.653734 71.0286031L373.270833 72.8150243 372.887933 71.0286031C372.612964 70.9215507 372.39395 70.7025919 372.28687 70.427692L370.5 70.0448875 372.28687 69.662083C372.39395 69.3871831 372.612964 69.1682243 372.887933 69.0611719L373.270833 67.2747507 373.653734 69.0611719C373.928703 69.1682243 374.147717 69.3871831 374.254796 69.662083L376.041667 70.0448875 374.254796 70.427692zM379.796463 56.9727419C379.689384 57.2476417 379.47037 57.4666006 379.195401 57.573653L378.8125 59.3600742 378.429599 57.573653C378.15463 57.4666006 377.935616 57.2476417 377.828537 56.9727419L376.041667 56.5899374 377.828537 56.2071328C377.935616 55.932233 378.15463 55.7132741 378.429599 55.6062218L378.8125 53.8198006 379.195401 55.6062218C379.47037 55.7132741 379.689384 55.932233 379.796463 56.2071328L381.583333 56.5899374 379.796463 56.9727419zM418.58813 44.3092594C418.48105 44.5841592 418.262036 44.8031181 417.987067 44.9101705L417.604167 46.6965917 417.221266 44.9101705C416.946297 44.8031181 416.727283 44.5841592 416.620204 44.3092594L414.833333 43.9264549 416.620204 43.5436503C416.727283 43.2687505 416.946297 43.0497917 417.221266 42.9427393L417.604167 41.1563181 417.987067 42.9427393C418.262036 43.0497917 418.48105 43.2687505 418.58813 43.5436503L420.375 43.9264549 418.58813 44.3092594z"/>
      <path d="M418.58813 44.3092594C418.48105 44.5841592 418.262036 44.8031181 417.987067 44.9101705L417.604167 46.6965917 417.221266 44.9101705C416.946297 44.8031181 416.727283 44.5841592 416.620204 44.3092594L414.833333 43.9264549 416.620204 43.5436503C416.727283 43.2687505 416.946297 43.0497917 417.221266 42.9427393L417.604167 41.1563181 417.987067 42.9427393C418.262036 43.0497917 418.48105 43.2687505 418.58813 43.5436503L420.375 43.9264549 418.58813 44.3092594zM431.254796 20.5652298C431.147717 20.8401296 430.928703 21.0590884 430.653734 21.1661408L430.270833 22.952562 429.887933 21.1661408C429.612964 21.0590884 429.39395 20.8401296 429.28687 20.5652298L427.5 20.1824252 429.28687 19.7996207C429.39395 19.5247208 429.612964 19.305762 429.887933 19.1987096L430.270833 17.4122884 430.653734 19.1987096C430.928703 19.305762 431.147717 19.5247208 431.254796 19.7996207L433.041667 20.1824252 431.254796 20.5652298zM413.83813 34.0201799C413.73105 34.2950797 413.512036 34.5140386 413.237067 34.621091L412.854167 36.4075122 412.471266 34.621091C412.196297 34.5140386 411.977283 34.2950797 411.870204 34.0201799L410.083333 33.6373754 411.870204 33.2545708C411.977283 32.979671 412.196297 32.7607121 412.471266 32.6536598L412.854167 30.8672386 413.237067 32.6536598C413.512036 32.7607121 413.73105 32.979671 413.83813 33.2545708L415.625 33.6373754 413.83813 34.0201799zM398.004796 11.0676179C397.897717 11.3425177 397.678703 11.5614766 397.403734 11.6685289L397.020833 13.4549501 396.637933 11.6685289C396.362964 11.5614766 396.14395 11.3425177 396.03687 11.0676179L394.25 10.6848133 396.03687 10.3020088C396.14395 10.027109 396.362964 9.80815013 396.637933 9.70109775L397.020833 7.91467655 397.403734 9.70109775C397.678703 9.80815013 397.897717 10.027109 398.004796 10.3020088L399.791667 10.6848133 398.004796 11.0676179zM434.421463 39.5604535C434.314384 39.8353533 434.09537 40.0543122 433.820401 40.1613645L433.4375 41.9477857 433.054599 40.1613645C432.77963 40.0543122 432.560616 39.8353533 432.453537 39.5604535L430.666667 39.1776489 432.453537 38.7948444C432.560616 38.5199446 432.77963 38.3009857 433.054599 38.1939333L433.4375 36.4075122 433.820401 38.1939333C434.09537 38.3009857 434.314384 38.5199446 434.421463 38.7948444L436.208333 39.1776489 434.421463 39.5604535zM459.754796 26.1055033C459.647717 26.3804032 459.428703 26.599362 459.153734 26.7064144L458.770833 28.4928356 458.387933 26.7064144C458.112964 26.599362 457.89395 26.3804032 457.78687 26.1055033L456 25.7226988 457.78687 25.3398943C457.89395 25.0649944 458.112964 24.8460356 458.387933 24.7389832L458.770833 22.952562 459.153734 24.7389832C459.428703 24.8460356 459.647717 25.0649944 459.754796 25.3398943L461.541667 25.7226988 459.754796 26.1055033zM475.58813 5.5273443C475.48105 5.80224413 475.262036 6.02120297 474.987067 6.12825536L474.604167 7.91467655 474.221266 6.12825536C473.946297 6.02120297 473.727283 5.80224413 473.620204 5.5273443L471.833333 5.14453976 473.620204 4.76173522C473.727283 4.48683539 473.946297 4.26787655 474.221266 4.16082416L474.604167 2.37440297 474.987067 4.16082416C475.262036 4.26787655 475.48105 4.48683539 475.58813 4.76173522L477.375 5.14453976 475.58813 5.5273443zM490.629796 34.0201799C490.522717 34.2950797 490.303703 34.5140386 490.028734 34.621091L489.645833 36.4075122 489.262933 34.621091C488.987964 34.5140386 488.76895 34.2950797 488.66187 34.0201799L486.875 33.6373754 488.66187 33.2545708C488.76895 32.979671 488.987964 32.7607121 489.262933 32.6536598L489.645833 30.8672386 490.028734 32.6536598C490.303703 32.7607121 490.522717 32.979671 490.629796 33.2545708L492.416667 33.6373754 490.629796 34.0201799zM496.171463 20.5652298C496.064384 20.8401296 495.84537 21.0590884 495.570401 21.1661408L495.1875 22.952562 494.804599 21.1661408C494.52963 21.0590884 494.310616 20.8401296 494.203537 20.5652298L492.416667 20.1824252 494.203537 19.7996207C494.310616 19.5247208 494.52963 19.305762 494.804599 19.1987096L495.1875 17.4122884 495.570401 19.1987096C495.84537 19.305762 496.064384 19.5247208 496.171463 19.7996207L497.958333 20.1824252 496.171463 20.5652298zM534.96313 7.90174727C534.85605 8.1766471 534.637036 8.39560594 534.362067 8.50265833L533.979167 10.2890795 533.596266 8.50265833C533.321297 8.39560594 533.102283 8.1766471 532.995204 7.90174727L531.208333 7.51894273 532.995204 7.13613818C533.102283 6.86123836 533.321297 6.64227951 533.596266 6.53522713L533.979167 4.74880593 534.362067 6.53522713C534.637036 6.64227951 534.85605 6.86123836 534.96313 7.13613818L536.75 7.51894273 534.96313 7.90174727z"/>
      <path d="M534.96313 7.90174727C534.85605 8.1766471 534.637036 8.39560594 534.362067 8.50265833L533.979167 10.2890795 533.596266 8.50265833C533.321297 8.39560594 533.102283 8.1766471 532.995204 7.90174727L531.208333 7.51894273 532.995204 7.13613818C533.102283 6.86123836 533.321297 6.64227951 533.596266 6.53522713L533.979167 4.74880593 534.362067 6.53522713C534.637036 6.64227951 534.85605 6.86123836 534.96313 7.13613818L536.75 7.51894273 534.96313 7.90174727zM555.546463 41.9348565C555.439384 42.2097563 555.22037 42.4287151 554.945401 42.5357675L554.5625 44.3221887 554.179599 42.5357675C553.90463 42.4287151 553.685616 42.2097563 553.578537 41.9348565L551.791667 41.5520519 553.578537 41.1692474C553.685616 40.8943475 553.90463 40.6753887 554.179599 40.5683363L554.5625 38.7819151 554.945401 40.5683363C555.22037 40.6753887 555.439384 40.8943475 555.546463 41.1692474L557.333333 41.5520519 555.546463 41.9348565zM538.129796 55.3898066C538.022717 55.6647064 537.803703 55.8836653 537.528734 55.9907177L537.145833 57.7771388 536.762933 55.9907177C536.487964 55.8836653 536.26895 55.6647064 536.16187 55.3898066L534.375 55.0070021 536.16187 54.6241975C536.26895 54.3492977 536.487964 54.1303388 536.762933 54.0232865L537.145833 52.2368653 537.528734 54.0232865C537.803703 54.1303388 538.022717 54.3492977 538.129796 54.6241975L539.916667 55.0070021 538.129796 55.3898066zM522.296463 32.4372446C522.189384 32.7121444 521.97037 32.9311033 521.695401 33.0381556L521.3125 34.8245768 520.929599 33.0381556C520.65463 32.9311033 520.435616 32.7121444 520.328537 32.4372446L518.541667 32.05444 520.328537 31.6716355C520.435616 31.3967357 520.65463 31.1777768 520.929599 31.0707244L521.3125 29.2843033 521.695401 31.0707244C521.97037 31.1777768 522.189384 31.3967357 522.296463 31.6716355L524.083333 32.05444 522.296463 32.4372446zM558.71313 60.9300802C558.60605 61.20498 558.387036 61.4239389 558.112067 61.5309912L557.729167 63.3174124 557.346266 61.5309912C557.071297 61.4239389 556.852283 61.20498 556.745204 60.9300802L554.958333 60.5472756 556.745204 60.1644711C556.852283 59.8895713 557.071297 59.6706124 557.346266 59.56356L557.729167 57.7771388 558.112067 59.56356C558.387036 59.6706124 558.60605 59.8895713 558.71313 60.1644711L560.5 60.5472756 558.71313 60.9300802zM584.046463 47.47513C583.939384 47.7500299 583.72037 47.9689887 583.445401 48.0760411L583.0625 49.8624623 582.679599 48.0760411C582.40463 47.9689887 582.185616 47.7500299 582.078537 47.47513L580.291667 47.0923255 582.078537 46.709521C582.185616 46.4346211 582.40463 46.2156623 582.679599 46.1086099L583.0625 44.3221887 583.445401 46.1086099C583.72037 46.2156623 583.939384 46.4346211 584.046463 46.709521L585.833333 47.0923255 584.046463 47.47513zM599.879796 26.896971C599.772717 27.1718708 599.553703 27.3908297 599.278734 27.4978821L598.895833 29.2843033 598.512933 27.4978821C598.237964 27.3908297 598.01895 27.1718708 597.91187 26.896971L596.125 26.5141665 597.91187 26.1313619C598.01895 25.8564621 598.237964 25.6375032 598.512933 25.5304509L598.895833 23.7440297 599.278734 25.5304509C599.553703 25.6375032 599.772717 25.8564621 599.879796 26.1313619L601.666667 26.5141665 599.879796 26.896971zM614.921463 55.3898066C614.814384 55.6647064 614.59537 55.8836653 614.320401 55.9907177L613.9375 57.7771388 613.554599 55.9907177C613.27963 55.8836653 613.060616 55.6647064 612.953537 55.3898066L611.166667 55.0070021 612.953537 54.6241975C613.060616 54.3492977 613.27963 54.1303388 613.554599 54.0232865L613.9375 52.2368653 614.320401 54.0232865C614.59537 54.1303388 614.814384 54.3492977 614.921463 54.6241975L616.708333 55.0070021 614.921463 55.3898066zM620.46313 41.9348565C620.35605 42.2097563 620.137036 42.4287151 619.862067 42.5357675L619.479167 44.3221887 619.096266 42.5357675C618.821297 42.4287151 618.602283 42.2097563 618.495204 41.9348565L616.708333 41.5520519 618.495204 41.1692474C618.602283 40.8943475 618.821297 40.6753887 619.096266 40.5683363L619.479167 38.7819151 619.862067 40.5683363C620.137036 40.6753887 620.35605 40.8943475 620.46313 41.1692474L622.25 41.5520519 620.46313 41.9348565zM659.254796 29.271374C659.147717 29.5462738 658.928703 29.7652326 658.653734 29.872285L658.270833 31.6587062 657.887933 29.872285C657.612964 29.7652326 657.39395 29.5462738 657.28687 29.271374L655.5 28.8885694 657.28687 28.5057649C657.39395 28.2308651 657.612964 28.0119062 657.887933 27.9048538L658.270833 26.1184326 658.653734 27.9048538C658.928703 28.0119062 659.147717 28.2308651 659.254796 28.5057649L661.041667 28.8885694 659.254796 29.271374z"/>
      <path d="M659.254796 29.271374C659.147717 29.5462738 658.928703 29.7652326 658.653734 29.872285L658.270833 31.6587062 657.887933 29.872285C657.612964 29.7652326 657.39395 29.5462738 657.28687 29.271374L655.5 28.8885694 657.28687 28.5057649C657.39395 28.2308651 657.612964 28.0119062 657.887933 27.9048538L658.270833 26.1184326 658.653734 27.9048538C658.928703 28.0119062 659.147717 28.2308651 659.254796 28.5057649L661.041667 28.8885694 659.254796 29.271374zM659.254796 18.1908268C659.147717 18.4657266 658.928703 18.6846855 658.653734 18.7917378L658.270833 20.578159 657.887933 18.7917378C657.612964 18.6846855 657.39395 18.4657266 657.28687 18.1908268L655.5 17.8080222 657.28687 17.4252177C657.39395 17.1503179 657.612964 16.931359 657.887933 16.8243066L658.270833 15.0378855 658.653734 16.8243066C658.928703 16.931359 659.147717 17.1503179 659.254796 17.4252177L661.041667 17.8080222 659.254796 18.1908268zM641.83813 31.6457769C641.73105 31.9206768 641.512036 32.1396356 641.237067 32.246688L640.854167 34.0331092 640.471266 32.246688C640.196297 32.1396356 639.977283 31.9206768 639.870204 31.6457769L638.083333 31.2629724 639.870204 30.8801678C639.977283 30.605268 640.196297 30.3863092 640.471266 30.2792568L640.854167 28.4928356 641.237067 30.2792568C641.512036 30.3863092 641.73105 30.605268 641.83813 30.8801678L643.625 31.2629724 641.83813 31.6457769zM626.004796 8.69321492C625.897717 8.96811475 625.678703 9.1870736 625.403734 9.29412598L625.020833 11.0805472 624.637933 9.29412598C624.362964 9.1870736 624.14395 8.96811475 624.03687 8.69321492L622.25 8.31041038 624.03687 7.92760584C624.14395 7.65270601 624.362964 7.43374717 624.637933 7.32669478L625.020833 5.54027359 625.403734 7.32669478C625.678703 7.43374717 625.897717 7.65270601 626.004796 7.92760584L627.791667 8.31041038 626.004796 8.69321492zM662.421463 37.1860505C662.314384 37.4609503 662.09537 37.6799092 661.820401 37.7869616L661.4375 39.5733828 661.054599 37.7869616C660.77963 37.6799092 660.560616 37.4609503 660.453537 37.1860505L658.666667 36.803246 660.453537 36.4204414C660.560616 36.1455416 660.77963 35.9265828 661.054599 35.8195304L661.4375 34.0331092 661.820401 35.8195304C662.09537 35.9265828 662.314384 36.1455416 662.421463 36.4204414L664.208333 36.803246 662.421463 37.1860505zM687.754796 23.7311004C687.647717 24.0060002 687.428703 24.224959 687.153734 24.3320114L686.770833 26.1184326 686.387933 24.3320114C686.112964 24.224959 685.89395 24.0060002 685.78687 23.7311004L684 23.3482958 685.78687 22.9654913C685.89395 22.6905915 686.112964 22.4716326 686.387933 22.3645802L686.770833 20.578159 687.153734 22.3645802C687.428703 22.4716326 687.647717 22.6905915 687.754796 22.9654913L689.541667 23.3482958 687.754796 23.7311004zM703.58813 3.15294134C703.48105 3.42784116 703.262036 3.64680001 702.987067 3.75385239L702.604167 5.54027359 702.221266 3.75385239C701.946297 3.64680001 701.727283 3.42784116 701.620204 3.15294134L699.833333 2.77013679 701.620204 2.38733225C701.727283 2.11243242 701.946297 1.89347358 702.221266 1.7864212L702.604167 0 702.987067 1.7864212C703.262036 1.89347358 703.48105 2.11243242 703.58813 2.38733225L705.375 2.77013679 703.58813 3.15294134zM718.629796 31.6457769C718.522717 31.9206768 718.303703 32.1396356 718.028734 32.246688L717.645833 34.0331092 717.262933 32.246688C716.987964 32.1396356 716.76895 31.9206768 716.66187 31.6457769L714.875 31.2629724 716.66187 30.8801678C716.76895 30.605268 716.987964 30.3863092 717.262933 30.2792568L717.645833 28.4928356 718.028734 30.2792568C718.303703 30.3863092 718.522717 30.605268 718.629796 30.8801678L720.416667 31.2629724 718.629796 31.6457769zM724.171463 18.1908268C724.064384 18.4657266 723.84537 18.6846855 723.570401 18.7917378L723.1875 20.578159 722.804599 18.7917378C722.52963 18.6846855 722.310616 18.4657266 722.203537 18.1908268L720.416667 17.8080222 722.203537 17.4252177C722.310616 17.1503179 722.52963 16.931359 722.804599 16.8243066L723.1875 15.0378855 723.570401 16.8243066C723.84537 16.931359 724.064384 17.1503179 724.171463 17.4252177L725.958333 17.8080222 724.171463 18.1908268zM762.96313 5.5273443C762.85605 5.80224413 762.637036 6.02120297 762.362067 6.12825536L761.979167 7.91467655 761.596266 6.12825536C761.321297 6.02120297 761.102283 5.80224413 760.995204 5.5273443L759.208333 5.14453976 760.995204 4.76173522C761.102283 4.48683539 761.321297 4.26787655 761.596266 4.16082416L761.979167 2.37440297 762.362067 4.16082416C762.637036 4.26787655 762.85605 4.48683539 762.96313 4.76173522L764.75 5.14453976 762.96313 5.5273443z"/>
      <path d="M762.96313 5.5273443C762.85605 5.80224413 762.637036 6.02120297 762.362067 6.12825536L761.979167 7.91467655 761.596266 6.12825536C761.321297 6.02120297 761.102283 5.80224413 760.995204 5.5273443L759.208333 5.14453976 760.995204 4.76173522C761.102283 4.48683539 761.321297 4.26787655 761.596266 4.16082416L761.979167 2.37440297 762.362067 4.16082416C762.637036 4.26787655 762.85605 4.48683539 762.96313 4.76173522L764.75 5.14453976 762.96313 5.5273443zM796.21313 33.2287122C796.10605 33.5036121 795.887036 33.7225709 795.612067 33.8296233L795.229167 35.6160445 794.846266 33.8296233C794.571297 33.7225709 794.352283 33.5036121 794.245204 33.2287122L792.458333 32.8459077 794.245204 32.4631032C794.352283 32.1882033 794.571297 31.9692445 794.846266 31.8621921L795.229167 30.0757709 795.612067 31.8621921C795.887036 31.9692445 796.10605 32.1882033 796.21313 32.4631032L798 32.8459077 796.21313 33.2287122zM778.796463 46.6836624C778.689384 46.9585622 778.47037 47.1775211 778.195401 47.2845734L777.8125 49.0709946 777.429599 47.2845734C777.15463 47.1775211 776.935616 46.9585622 776.828537 46.6836624L775.041667 46.3008578 776.828537 45.9180533C776.935616 45.6431535 777.15463 45.4241946 777.429599 45.3171422L777.8125 43.530721 778.195401 45.3171422C778.47037 45.4241946 778.689384 45.6431535 778.796463 45.9180533L780.583333 46.3008578 778.796463 46.6836624zM762.96313 23.7311004C762.85605 24.0060002 762.637036 24.224959 762.362067 24.3320114L761.979167 26.1184326 761.596266 24.3320114C761.321297 24.224959 761.102283 24.0060002 760.995204 23.7311004L759.208333 23.3482958 760.995204 22.9654913C761.102283 22.6905915 761.321297 22.4716326 761.596266 22.3645802L761.979167 20.578159 762.362067 22.3645802C762.637036 22.4716326 762.85605 22.6905915 762.96313 22.9654913L764.75 23.3482958 762.96313 23.7311004zM799.379796 52.223936C799.272717 52.4988358 799.053703 52.7177946 798.778734 52.824847L798.395833 54.6112682 798.012933 52.824847C797.737964 52.7177946 797.51895 52.4988358 797.41187 52.223936L795.625 51.8411314 797.41187 51.4583269C797.51895 51.1834271 797.737964 50.9644682 798.012933 50.8574158L798.395833 49.0709946 798.778734 50.8574158C799.053703 50.9644682 799.272717 51.1834271 799.379796 51.4583269L801.166667 51.8411314 799.379796 52.223936zM824.71313 38.7689858C824.60605 39.0438857 824.387036 39.2628445 824.112067 39.3698969L823.729167 41.1563181 823.346266 39.3698969C823.071297 39.2628445 822.852283 39.0438857 822.745204 38.7689858L820.958333 38.3861813 822.745204 38.0033767C822.852283 37.7284769 823.071297 37.5095181 823.346266 37.4024657L823.729167 35.6160445 824.112067 37.4024657C824.387036 37.5095181 824.60605 37.7284769 824.71313 38.0033767L826.5 38.3861813 824.71313 38.7689858zM840.546463 18.1908268C840.439384 18.4657266 840.22037 18.6846855 839.945401 18.7917378L839.5625 20.578159 839.179599 18.7917378C838.90463 18.6846855 838.685616 18.4657266 838.578537 18.1908268L836.791667 17.8080222 838.578537 17.4252177C838.685616 17.1503179 838.90463 16.931359 839.179599 16.8243066L839.5625 15.0378855 839.945401 16.8243066C840.22037 16.931359 840.439384 17.1503179 840.546463 17.4252177L842.333333 17.8080222 840.546463 18.1908268zM855.58813 46.6836624C855.48105 46.9585622 855.262036 47.1775211 854.987067 47.2845734L854.604167 49.0709946 854.221266 47.2845734C853.946297 47.1775211 853.727283 46.9585622 853.620204 46.6836624L851.833333 46.3008578 853.620204 45.9180533C853.727283 45.6431535 853.946297 45.4241946 854.221266 45.3171422L854.604167 43.530721 854.987067 45.3171422C855.262036 45.4241946 855.48105 45.6431535 855.58813 45.9180533L857.375 46.3008578 855.58813 46.6836624zM861.129796 33.2287122C861.022717 33.5036121 860.803703 33.7225709 860.528734 33.8296233L860.145833 35.6160445 859.762933 33.8296233C859.487964 33.7225709 859.26895 33.5036121 859.16187 33.2287122L857.375 32.8459077 859.16187 32.4631032C859.26895 32.1882033 859.487964 31.9692445 859.762933 31.8621921L860.145833 30.0757709 860.528734 31.8621921C860.803703 31.9692445 861.022717 32.1882033 861.129796 32.4631032L862.916667 32.8459077 861.129796 33.2287122zM899.921463 20.5652298C899.814384 20.8401296 899.59537 21.0590884 899.320401 21.1661408L898.9375 22.952562 898.554599 21.1661408C898.27963 21.0590884 898.060616 20.8401296 897.953537 20.5652298L896.166667 20.1824252 897.953537 19.7996207C898.060616 19.5247208 898.27963 19.305762 898.554599 19.1987096L898.9375 17.4122884 899.320401 19.1987096C899.59537 19.305762 899.814384 19.5247208 899.921463 19.7996207L901.708333 20.1824252 899.921463 20.5652298z"/>
      <path d="M899.921463 20.5652298C899.814384 20.8401296 899.59537 21.0590884 899.320401 21.1661408L898.9375 22.952562 898.554599 21.1661408C898.27963 21.0590884 898.060616 20.8401296 897.953537 20.5652298L896.166667 20.1824252 897.953537 19.7996207C898.060616 19.5247208 898.27963 19.305762 898.554599 19.1987096L898.9375 17.4122884 899.320401 19.1987096C899.59537 19.305762 899.814384 19.5247208 899.921463 19.7996207L901.708333 20.1824252 899.921463 20.5652298zM917.33813 19.7737621C917.23105 20.0486619 917.012036 20.2676208 916.737067 20.3746732L916.354167 22.1610944 915.971266 20.3746732C915.696297 20.2676208 915.477283 20.0486619 915.370204 19.7737621L913.583333 19.3909576 915.370204 19.008153C915.477283 18.7332532 915.696297 18.5142943 915.971266 18.407242L916.354167 16.6208208 916.737067 18.407242C917.012036 18.5142943 917.23105 18.7332532 917.33813 19.008153L919.125 19.3909576 917.33813 19.7737621zM899.921463 33.2287122C899.814384 33.5036121 899.59537 33.7225709 899.320401 33.8296233L898.9375 35.6160445 898.554599 33.8296233C898.27963 33.7225709 898.060616 33.5036121 897.953537 33.2287122L896.166667 32.8459077 897.953537 32.4631032C898.060616 32.1882033 898.27963 31.9692445 898.554599 31.8621921L898.9375 30.0757709 899.320401 31.8621921C899.59537 31.9692445 899.814384 32.1882033 899.921463 32.4631032L901.708333 32.8459077 899.921463 33.2287122zM884.08813 10.2761502C883.98105 10.5510501 883.762036 10.7700089 883.487067 10.8770613L883.104167 12.6634825 882.721266 10.8770613C882.446297 10.7700089 882.227283 10.5510501 882.120204 10.2761502L880.333333 9.89334569 882.120204 9.51054115C882.227283 9.23564132 882.446297 9.01668248 882.721266 8.90963009L883.104167 7.1232089 883.487067 8.90963009C883.762036 9.01668248 883.98105 9.23564132 884.08813 9.51054115L885.875 9.89334569 884.08813 10.2761502zM920.504796 38.7689858C920.397717 39.0438857 920.178703 39.2628445 919.903734 39.3698969L919.520833 41.1563181 919.137933 39.3698969C918.862964 39.2628445 918.64395 39.0438857 918.53687 38.7689858L916.75 38.3861813 918.53687 38.0033767C918.64395 37.7284769 918.862964 37.5095181 919.137933 37.4024657L919.520833 35.6160445 919.903734 37.4024657C920.178703 37.5095181 920.397717 37.7284769 920.504796 38.0033767L922.291667 38.3861813 920.504796 38.7689858zM945.83813 25.3140357C945.73105 25.5889355 945.512036 25.8078944 945.237067 25.9149467L944.854167 27.7013679 944.471266 25.9149467C944.196297 25.8078944 943.977283 25.5889355 943.870204 25.3140357L942.083333 24.9312311 943.870204 24.5484266C943.977283 24.2735268 944.196297 24.0545679 944.471266 23.9475155L944.854167 22.1610944 945.237067 23.9475155C945.512036 24.0545679 945.73105 24.2735268 945.83813 24.5484266L947.625 24.9312311 945.83813 25.3140357zM961.671463 4.73587665C961.564384 5.01077648 961.34537 5.22973532 961.070401 5.3367877L960.6875 7.1232089 960.304599 5.3367877C960.02963 5.22973532 959.810616 5.01077648 959.703537 4.73587665L957.916667 4.3530721 959.703537 3.97026756C959.810616 3.69536773 960.02963 3.47640889 960.304599 3.36935651L960.6875 1.58293531 961.070401 3.36935651C961.34537 3.47640889 961.564384 3.69536773 961.671463 3.97026756L963.458333 4.3530721 961.671463 4.73587665zM976.71313 33.2287122C976.60605 33.5036121 976.387036 33.7225709 976.112067 33.8296233L975.729167 35.6160445 975.346266 33.8296233C975.071297 33.7225709 974.852283 33.5036121 974.745204 33.2287122L972.958333 32.8459077 974.745204 32.4631032C974.852283 32.1882033 975.071297 31.9692445 975.346266 31.8621921L975.729167 30.0757709 976.112067 31.8621921C976.387036 31.9692445 976.60605 32.1882033 976.71313 32.4631032L978.5 32.8459077 976.71313 33.2287122zM982.254796 19.7737621C982.147717 20.0486619 981.928703 20.2676208 981.653734 20.3746732L981.270833 22.1610944 980.887933 20.3746732C980.612964 20.2676208 980.39395 20.0486619 980.28687 19.7737621L978.5 19.3909576 980.28687 19.008153C980.39395 18.7332532 980.612964 18.5142943 980.887933 18.407242L981.270833 16.6208208 981.653734 18.407242C981.928703 18.5142943 982.147717 18.7332532 982.254796 19.008153L984.041667 19.3909576 982.254796 19.7737621zM1021.04646 7.11027961C1020.93938 7.38517944 1020.72037 7.60413829 1020.4454 7.71119067L1020.0625 9.49761187 1019.6796 7.71119067C1019.40463 7.60413829 1019.18562 7.38517944 1019.07854 7.11027961L1017.29167 6.72747507 1019.07854 6.34467053C1019.18562 6.0697707 1019.40463 5.85081186 1019.6796 5.74375947L1020.0625 3.95733828 1020.4454 5.74375947C1020.72037 5.85081186 1020.93938 6.0697707 1021.04646 6.34467053L1022.83333 6.72747507 1021.04646 7.11027961z"/>
      <path d="M1021.04646,11.0676179 C1020.93938,11.3425177 1020.72037,11.5614766 1020.4454,11.6685289 L1020.0625,13.4549501 L1019.6796,11.6685289 C1019.40463,11.5614766 1019.18562,11.3425177 1019.07854,11.0676179 L1017.29167,10.6848133 L1019.07854,10.3020088 C1019.18562,10.027109 1019.40463,9.80815013 1019.6796,9.70109775 L1020.0625,7.91467655 L1020.4454,9.70109775 C1020.72037,9.80815013 1020.93938,10.027109 1021.04646,10.3020088 L1022.83333,10.6848133 L1021.04646,11.0676179 Z"/>
    </g>
    <g fill="#FFFFFF" transform="translate(15.833 74.398)">
      <path d="M37.0047963 32.4372446C36.897717 32.7121444 36.6787031 32.9311033 36.4037341 33.0381556L36.0208333 34.8245768 35.6379325 33.0381556C35.3629636 32.9311033 35.1439497 32.7121444 35.0368704 32.4372446L33.25 32.05444 35.0368704 31.6716355C35.1439497 31.3967357 35.3629636 31.1777768 35.6379325 31.0707244L36.0208333 29.2843033 36.4037341 31.0707244C36.6787031 31.1777768 36.897717 31.3967357 37.0047963 31.6716355L38.7916667 32.05444 37.0047963 32.4372446zM19.5881296 45.8921947C19.4810503 46.1670946 19.2620364 46.3860534 18.9870675 46.4931058L18.6041667 48.279527 18.2212659 46.4931058C17.9462969 46.3860534 17.727283 46.1670946 17.6202037 45.8921947L15.8333333 45.5093902 17.6202037 45.1265856C17.727283 44.8516858 17.9462969 44.632727 18.2212659 44.5256746L18.6041667 42.7392534 18.9870675 44.5256746C19.2620364 44.632727 19.4810503 44.8516858 19.5881296 45.1265856L21.375 45.5093902 19.5881296 45.8921947zM3.75479628 22.9396327C3.64771698 23.2145326 3.42870308 23.4334914 3.15373413 23.5405438L2.77083333 25.326965 2.38793254 23.5405438C2.11296359 23.4334914 1.89394969 23.2145326 1.78687038 22.9396327L0 22.5568282 1.78687038 22.1740236C1.89394969 21.8991238 2.11296359 21.680165 2.38793254 21.5731126L2.77083333 19.7866914 3.15373413 21.5731126C3.42870308 21.680165 3.64771698 21.8991238 3.75479628 22.1740236L5.54166667 22.5568282 3.75479628 22.9396327zM40.171463 51.4324683C40.0643836 51.7073681 39.8453697 51.926327 39.5704008 52.0333794L39.1875 53.8198006 38.8045992 52.0333794C38.5296303 51.926327 38.3106164 51.7073681 38.203537 51.4324683L36.4166667 51.0496638 38.203537 50.6668592C38.3106164 50.3919594 38.5296303 50.1730006 38.8045992 50.0659482L39.1875 48.279527 39.5704008 50.0659482C39.8453697 50.1730006 40.0643836 50.3919594 40.171463 50.6668592L41.9583333 51.0496638 40.171463 51.4324683zM65.5047963 37.9775182C65.397717 38.252418 65.1787031 38.4713768 64.9037341 38.5784292L64.5208333 40.3648504 64.1379325 38.5784292C63.8629636 38.4713768 63.6439497 38.252418 63.5368704 37.9775182L61.75 37.5947136 63.5368704 37.2119091C63.6439497 36.9370093 63.8629636 36.7180504 64.1379325 36.610998L64.5208333 34.8245768 64.9037341 36.610998C65.1787031 36.7180504 65.397717 36.9370093 65.5047963 37.2119091L67.2916667 37.5947136 65.5047963 37.9775182zM81.3381296 17.3993591C81.2310503 17.674259 81.0120364 17.8932178 80.7370675 18.0002702L80.3541667 19.7866914 79.9712659 18.0002702C79.6962969 17.8932178 79.477283 17.674259 79.3702037 17.3993591L77.5833333 17.0165546 79.3702037 16.6337501C79.477283 16.3588502 79.6962969 16.1398914 79.9712659 16.032839L80.3541667 14.2464178 80.7370675 16.032839C81.0120364 16.1398914 81.2310503 16.3588502 81.3381296 16.6337501L83.125 17.0165546 81.3381296 17.3993591zM96.3797963 45.8921947C96.272717 46.1670946 96.0537031 46.3860534 95.7787341 46.4931058L95.3958333 48.279527 95.0129325 46.4931058C94.7379636 46.3860534 94.5189497 46.1670946 94.4118704 45.8921947L92.625 45.5093902 94.4118704 45.1265856C94.5189497 44.8516858 94.7379636 44.632727 95.0129325 44.5256746L95.3958333 42.7392534 95.7787341 44.5256746C96.0537031 44.632727 96.272717 44.8516858 96.3797963 45.1265856L98.1666667 45.5093902 96.3797963 45.8921947zM101.921463 32.4372446C101.814384 32.7121444 101.59537 32.9311033 101.320401 33.0381556L100.9375 34.8245768 100.554599 33.0381556C100.27963 32.9311033 100.060616 32.7121444 99.953537 32.4372446L98.1666667 32.05444 99.953537 31.6716355C100.060616 31.3967357 100.27963 31.1777768 100.554599 31.0707244L100.9375 29.2843033 101.320401 31.0707244C101.59537 31.1777768 101.814384 31.3967357 101.921463 31.6716355L103.708333 32.05444 101.921463 32.4372446zM140.71313 19.7737621C140.60605 20.0486619 140.387036 20.2676208 140.112067 20.3746732L139.729167 22.1610944 139.346266 20.3746732C139.071297 20.2676208 138.852283 20.0486619 138.745204 19.7737621L136.958333 19.3909576 138.745204 19.008153C138.852283 18.7332532 139.071297 18.5142943 139.346266 18.407242L139.729167 16.6208208 140.112067 18.407242C140.387036 18.5142943 140.60605 18.7332532 140.71313 19.008153L142.5 19.3909576 140.71313 19.7737621z"/>
      <path d="M140.71313 19.7737621C140.60605 20.0486619 140.387036 20.2676208 140.112067 20.3746732L139.729167 22.1610944 139.346266 20.3746732C139.071297 20.2676208 138.852283 20.0486619 138.745204 19.7737621L136.958333 19.3909576 138.745204 19.008153C138.852283 18.7332532 139.071297 18.5142943 139.346266 18.407242L139.729167 16.6208208 140.112067 18.407242C140.387036 18.5142943 140.60605 18.7332532 140.71313 19.008153L142.5 19.3909576 140.71313 19.7737621zM160.504796 53.0154036C160.397717 53.2903035 160.178703 53.5092623 159.903734 53.6163147L159.520833 55.4027359 159.137933 53.6163147C158.862964 53.5092623 158.64395 53.2903035 158.53687 53.0154036L156.75 52.6325991 158.53687 52.2497945C158.64395 51.9748947 158.862964 51.7559359 159.137933 51.6488835L159.520833 49.8624623 159.903734 51.6488835C160.178703 51.7559359 160.397717 51.9748947 160.504796 52.2497945L162.291667 52.6325991 160.504796 53.0154036zM143.08813 66.4703538C142.98105 66.7452536 142.762036 66.9642124 142.487067 67.0712648L142.104167 68.857686 141.721266 67.0712648C141.446297 66.9642124 141.227283 66.7452536 141.120204 66.4703538L139.333333 66.0875492 141.120204 65.7047447C141.227283 65.4298449 141.446297 65.210886 141.721266 65.1038336L142.104167 63.3174124 142.487067 65.1038336C142.762036 65.210886 142.98105 65.4298449 143.08813 65.7047447L144.875 66.0875492 143.08813 66.4703538zM127.254796 43.5177918C127.147717 43.7926916 126.928703 44.0116504 126.653734 44.1187028L126.270833 45.905124 125.887933 44.1187028C125.612964 44.0116504 125.39395 43.7926916 125.28687 43.5177918L123.5 43.1349872 125.28687 42.7521827C125.39395 42.4772829 125.612964 42.258324 125.887933 42.1512716L126.270833 40.3648504 126.653734 42.1512716C126.928703 42.258324 127.147717 42.4772829 127.254796 42.7521827L129.041667 43.1349872 127.254796 43.5177918zM163.671463 72.0106274C163.564384 72.2855272 163.34537 72.504486 163.070401 72.6115384L162.6875 74.3979596 162.304599 72.6115384C162.02963 72.504486 161.810616 72.2855272 161.703537 72.0106274L159.916667 71.6278228 161.703537 71.2450183C161.810616 70.9701184 162.02963 70.7511596 162.304599 70.6441072L162.6875 68.857686 163.070401 70.6441072C163.34537 70.7511596 163.564384 70.9701184 163.671463 71.2450183L165.458333 71.6278228 163.671463 72.0106274zM189.004796 58.5556772C188.897717 58.830577 188.678703 59.0495359 188.403734 59.1565883L188.020833 60.9430095 187.637933 59.1565883C187.362964 59.0495359 187.14395 58.830577 187.03687 58.5556772L185.25 58.1728727 187.03687 57.7900681C187.14395 57.5151683 187.362964 57.2962095 187.637933 57.1891571L188.020833 55.4027359 188.403734 57.1891571C188.678703 57.2962095 188.897717 57.5151683 189.004796 57.7900681L190.791667 58.1728727 189.004796 58.5556772zM204.83813 37.9775182C204.73105 38.252418 204.512036 38.4713768 204.237067 38.5784292L203.854167 40.3648504 203.471266 38.5784292C203.196297 38.4713768 202.977283 38.252418 202.870204 37.9775182L201.083333 37.5947136 202.870204 37.2119091C202.977283 36.9370093 203.196297 36.7180504 203.471266 36.610998L203.854167 34.8245768 204.237067 36.610998C204.512036 36.7180504 204.73105 36.9370093 204.83813 37.2119091L206.625 37.5947136 204.83813 37.9775182zM219.879796 66.4703538C219.772717 66.7452536 219.553703 66.9642124 219.278734 67.0712648L218.895833 68.857686 218.512933 67.0712648C218.237964 66.9642124 218.01895 66.7452536 217.91187 66.4703538L216.125 66.0875492 217.91187 65.7047447C218.01895 65.4298449 218.237964 65.210886 218.512933 65.1038336L218.895833 63.3174124 219.278734 65.1038336C219.553703 65.210886 219.772717 65.4298449 219.879796 65.7047447L221.666667 66.0875492 219.879796 66.4703538zM225.421463 53.0154036C225.314384 53.2903035 225.09537 53.5092623 224.820401 53.6163147L224.4375 55.4027359 224.054599 53.6163147C223.77963 53.5092623 223.560616 53.2903035 223.453537 53.0154036L221.666667 52.6325991 223.453537 52.2497945C223.560616 51.9748947 223.77963 51.7559359 224.054599 51.6488835L224.4375 49.8624623 224.820401 51.6488835C225.09537 51.7559359 225.314384 51.9748947 225.421463 52.2497945L227.208333 52.6325991 225.421463 53.0154036zM264.21313 40.3519211C264.10605 40.626821 263.887036 40.8457798 263.612067 40.9528322L263.229167 42.7392534 262.846266 40.9528322C262.571297 40.8457798 262.352283 40.626821 262.245204 40.3519211L260.458333 39.9691166 262.245204 39.5863121C262.352283 39.3114122 262.571297 39.0924534 262.846266 38.985401L263.229167 37.1989798 263.612067 38.985401C263.887036 39.0924534 264.10605 39.3114122 264.21313 39.5863121L266 39.9691166 264.21313 40.3519211z"/>
      <path d="M264.21313 40.3519211C264.10605 40.626821 263.887036 40.8457798 263.612067 40.9528322L263.229167 42.7392534 262.846266 40.9528322C262.571297 40.8457798 262.352283 40.626821 262.245204 40.3519211L260.458333 39.9691166 262.245204 39.5863121C262.352283 39.3114122 262.571297 39.0924534 262.846266 38.985401L263.229167 37.1989798 263.612067 38.985401C263.887036 39.0924534 264.10605 39.3114122 264.21313 39.5863121L266 39.9691166 264.21313 40.3519211zM238.08813 23.7311004C237.98105 24.0060002 237.762036 24.224959 237.487067 24.3320114L237.104167 26.1184326 236.721266 24.3320114C236.446297 24.224959 236.227283 24.0060002 236.120204 23.7311004L234.333333 23.3482958 236.120204 22.9654913C236.227283 22.6905915 236.446297 22.4716326 236.721266 22.3645802L237.104167 20.578159 237.487067 22.3645802C237.762036 22.4716326 237.98105 22.6905915 238.08813 22.9654913L239.875 23.3482958 238.08813 23.7311004zM220.671463 37.1860505C220.564384 37.4609503 220.34537 37.6799092 220.070401 37.7869616L219.6875 39.5733828 219.304599 37.7869616C219.02963 37.6799092 218.810616 37.4609503 218.703537 37.1860505L216.916667 36.803246 218.703537 36.4204414C218.810616 36.1455416 219.02963 35.9265828 219.304599 35.8195304L219.6875 34.0331092 220.070401 35.8195304C220.34537 35.9265828 220.564384 36.1455416 220.671463 36.4204414L222.458333 36.803246 220.671463 37.1860505zM204.83813 14.2334885C204.73105 14.5083883 204.512036 14.7273472 204.237067 14.8343996L203.854167 16.6208208 203.471266 14.8343996C203.196297 14.7273472 202.977283 14.5083883 202.870204 14.2334885L201.083333 13.850684 202.870204 13.4678794C202.977283 13.1929796 203.196297 12.9740208 203.471266 12.8669684L203.854167 11.0805472 204.237067 12.8669684C204.512036 12.9740208 204.73105 13.1929796 204.83813 13.4678794L206.625 13.850684 204.83813 14.2334885zM241.254796 42.7263241C241.147717 43.0012239 240.928703 43.2201828 240.653734 43.3272352L240.270833 45.1136564 239.887933 43.3272352C239.612964 43.2201828 239.39395 43.0012239 239.28687 42.7263241L237.5 42.3435196 239.28687 41.960715C239.39395 41.6858152 239.612964 41.4668564 239.887933 41.359804L240.270833 39.5733828 240.653734 41.359804C240.928703 41.4668564 241.147717 41.6858152 241.254796 41.960715L243.041667 42.3435196 241.254796 42.7263241zM266.58813 29.271374C266.48105 29.5462738 266.262036 29.7652326 265.987067 29.872285L265.604167 31.6587062 265.221266 29.872285C264.946297 29.7652326 264.727283 29.5462738 264.620204 29.271374L262.833333 28.8885694 264.620204 28.5057649C264.727283 28.2308651 264.946297 28.0119062 265.221266 27.9048538L265.604167 26.1184326 265.987067 27.9048538C266.262036 28.0119062 266.48105 28.2308651 266.58813 28.5057649L268.375 28.8885694 266.58813 29.271374zM282.421463 8.69321492C282.314384 8.96811475 282.09537 9.1870736 281.820401 9.29412598L281.4375 11.0805472 281.054599 9.29412598C280.77963 9.1870736 280.560616 8.96811475 280.453537 8.69321492L278.666667 8.31041038 280.453537 7.92760584C280.560616 7.65270601 280.77963 7.43374717 281.054599 7.32669478L281.4375 5.54027359 281.820401 7.32669478C282.09537 7.43374717 282.314384 7.65270601 282.421463 7.92760584L284.208333 8.31041038 282.421463 8.69321492zM297.46313 37.1860505C297.35605 37.4609503 297.137036 37.6799092 296.862067 37.7869616L296.479167 39.5733828 296.096266 37.7869616C295.821297 37.6799092 295.602283 37.4609503 295.495204 37.1860505L293.708333 36.803246 295.495204 36.4204414C295.602283 36.1455416 295.821297 35.9265828 296.096266 35.8195304L296.479167 34.0331092 296.862067 35.8195304C297.137036 35.9265828 297.35605 36.1455416 297.46313 36.4204414L299.25 36.803246 297.46313 37.1860505zM303.004796 23.7311004C302.897717 24.0060002 302.678703 24.224959 302.403734 24.3320114L302.020833 26.1184326 301.637933 24.3320114C301.362964 24.224959 301.14395 24.0060002 301.03687 23.7311004L299.25 23.3482958 301.03687 22.9654913C301.14395 22.6905915 301.362964 22.4716326 301.637933 22.3645802L302.020833 20.578159 302.403734 22.3645802C302.678703 22.4716326 302.897717 22.6905915 303.004796 22.9654913L304.791667 23.3482958 303.004796 23.7311004zM341.796463 11.0676179C341.689384 11.3425177 341.47037 11.5614766 341.195401 11.6685289L340.8125 13.4549501 340.429599 11.6685289C340.15463 11.5614766 339.935616 11.3425177 339.828537 11.0676179L338.041667 10.6848133 339.828537 10.3020088C339.935616 10.027109 340.15463 9.80815013 340.429599 9.70109775L340.8125 7.91467655 341.195401 9.70109775C341.47037 9.80815013 341.689384 10.027109 341.796463 10.3020088L343.583333 10.6848133 341.796463 11.0676179z"/>
      <path d="M341.796463 11.0676179C341.689384 11.3425177 341.47037 11.5614766 341.195401 11.6685289L340.8125 13.4549501 340.429599 11.6685289C340.15463 11.5614766 339.935616 11.3425177 339.828537 11.0676179L338.041667 10.6848133 339.828537 10.3020088C339.935616 10.027109 340.15463 9.80815013 340.429599 9.70109775L340.8125 7.91467655 341.195401 9.70109775C341.47037 9.80815013 341.689384 10.027109 341.796463 10.3020088L343.583333 10.6848133 341.796463 11.0676179zM314.879796 56.9727419C314.772717 57.2476417 314.553703 57.4666006 314.278734 57.573653L313.895833 59.3600742 313.512933 57.573653C313.237964 57.4666006 313.01895 57.2476417 312.91187 56.9727419L311.125 56.5899374 312.91187 56.2071328C313.01895 55.932233 313.237964 55.7132741 313.512933 55.6062218L313.895833 53.8198006 314.278734 55.6062218C314.553703 55.7132741 314.772717 55.932233 314.879796 56.2071328L316.666667 56.5899374 314.879796 56.9727419zM297.46313 70.427692C297.35605 70.7025919 297.137036 70.9215507 296.862067 71.0286031L296.479167 72.8150243 296.096266 71.0286031C295.821297 70.9215507 295.602283 70.7025919 295.495204 70.427692L293.708333 70.0448875 295.495204 69.662083C295.602283 69.3871831 295.821297 69.1682243 296.096266 69.0611719L296.479167 67.2747507 296.862067 69.0611719C297.137036 69.1682243 297.35605 69.3871831 297.46313 69.662083L299.25 70.0448875 297.46313 70.427692zM281.629796 47.47513C281.522717 47.7500299 281.303703 47.9689887 281.028734 48.0760411L280.645833 49.8624623 280.262933 48.0760411C279.987964 47.9689887 279.76895 47.7500299 279.66187 47.47513L277.875 47.0923255 279.66187 46.709521C279.76895 46.4346211 279.987964 46.2156623 280.262933 46.1086099L280.645833 44.3221887 281.028734 46.1086099C281.303703 46.2156623 281.522717 46.4346211 281.629796 46.709521L283.416667 47.0923255 281.629796 47.47513zM318.046463 75.9679656C317.939384 76.2428655 317.72037 76.4618243 317.445401 76.5688767L317.0625 78.3552979 316.679599 76.5688767C316.40463 76.4618243 316.185616 76.2428655 316.078537 75.9679656L314.291667 75.5851611 316.078537 75.2023566C316.185616 74.9274567 316.40463 74.7084979 316.679599 74.6014455L317.0625 72.8150243 317.445401 74.6014455C317.72037 74.7084979 317.939384 74.9274567 318.046463 75.2023566L319.833333 75.5851611 318.046463 75.9679656zM343.379796 62.5130155C343.272717 62.7879153 343.053703 63.0068742 342.778734 63.1139266L342.395833 64.9003477 342.012933 63.1139266C341.737964 63.0068742 341.51895 62.7879153 341.41187 62.5130155L339.625 62.130211 341.41187 61.7474064C341.51895 61.4725066 341.737964 61.2535477 342.012933 61.1464954L342.395833 59.3600742 342.778734 61.1464954C343.053703 61.2535477 343.272717 61.4725066 343.379796 61.7474064L345.166667 62.130211 343.379796 62.5130155zM359.21313 41.9348565C359.10605 42.2097563 358.887036 42.4287151 358.612067 42.5357675L358.229167 44.3221887 357.846266 42.5357675C357.571297 42.4287151 357.352283 42.2097563 357.245204 41.9348565L355.458333 41.5520519 357.245204 41.1692474C357.352283 40.8943475 357.571297 40.6753887 357.846266 40.5683363L358.229167 38.7819151 358.612067 40.5683363C358.887036 40.6753887 359.10605 40.8943475 359.21313 41.1692474L361 41.5520519 359.21313 41.9348565zM374.254796 70.427692C374.147717 70.7025919 373.928703 70.9215507 373.653734 71.0286031L373.270833 72.8150243 372.887933 71.0286031C372.612964 70.9215507 372.39395 70.7025919 372.28687 70.427692L370.5 70.0448875 372.28687 69.662083C372.39395 69.3871831 372.612964 69.1682243 372.887933 69.0611719L373.270833 67.2747507 373.653734 69.0611719C373.928703 69.1682243 374.147717 69.3871831 374.254796 69.662083L376.041667 70.0448875 374.254796 70.427692zM379.796463 56.9727419C379.689384 57.2476417 379.47037 57.4666006 379.195401 57.573653L378.8125 59.3600742 378.429599 57.573653C378.15463 57.4666006 377.935616 57.2476417 377.828537 56.9727419L376.041667 56.5899374 377.828537 56.2071328C377.935616 55.932233 378.15463 55.7132741 378.429599 55.6062218L378.8125 53.8198006 379.195401 55.6062218C379.47037 55.7132741 379.689384 55.932233 379.796463 56.2071328L381.583333 56.5899374 379.796463 56.9727419zM418.58813 44.3092594C418.48105 44.5841592 418.262036 44.8031181 417.987067 44.9101705L417.604167 46.6965917 417.221266 44.9101705C416.946297 44.8031181 416.727283 44.5841592 416.620204 44.3092594L414.833333 43.9264549 416.620204 43.5436503C416.727283 43.2687505 416.946297 43.0497917 417.221266 42.9427393L417.604167 41.1563181 417.987067 42.9427393C418.262036 43.0497917 418.48105 43.2687505 418.58813 43.5436503L420.375 43.9264549 418.58813 44.3092594z"/>
      <path d="M418.58813 44.3092594C418.48105 44.5841592 418.262036 44.8031181 417.987067 44.9101705L417.604167 46.6965917 417.221266 44.9101705C416.946297 44.8031181 416.727283 44.5841592 416.620204 44.3092594L414.833333 43.9264549 416.620204 43.5436503C416.727283 43.2687505 416.946297 43.0497917 417.221266 42.9427393L417.604167 41.1563181 417.987067 42.9427393C418.262036 43.0497917 418.48105 43.2687505 418.58813 43.5436503L420.375 43.9264549 418.58813 44.3092594zM431.254796 20.5652298C431.147717 20.8401296 430.928703 21.0590884 430.653734 21.1661408L430.270833 22.952562 429.887933 21.1661408C429.612964 21.0590884 429.39395 20.8401296 429.28687 20.5652298L427.5 20.1824252 429.28687 19.7996207C429.39395 19.5247208 429.612964 19.305762 429.887933 19.1987096L430.270833 17.4122884 430.653734 19.1987096C430.928703 19.305762 431.147717 19.5247208 431.254796 19.7996207L433.041667 20.1824252 431.254796 20.5652298zM413.83813 34.0201799C413.73105 34.2950797 413.512036 34.5140386 413.237067 34.621091L412.854167 36.4075122 412.471266 34.621091C412.196297 34.5140386 411.977283 34.2950797 411.870204 34.0201799L410.083333 33.6373754 411.870204 33.2545708C411.977283 32.979671 412.196297 32.7607121 412.471266 32.6536598L412.854167 30.8672386 413.237067 32.6536598C413.512036 32.7607121 413.73105 32.979671 413.83813 33.2545708L415.625 33.6373754 413.83813 34.0201799zM398.004796 11.0676179C397.897717 11.3425177 397.678703 11.5614766 397.403734 11.6685289L397.020833 13.4549501 396.637933 11.6685289C396.362964 11.5614766 396.14395 11.3425177 396.03687 11.0676179L394.25 10.6848133 396.03687 10.3020088C396.14395 10.027109 396.362964 9.80815013 396.637933 9.70109775L397.020833 7.91467655 397.403734 9.70109775C397.678703 9.80815013 397.897717 10.027109 398.004796 10.3020088L399.791667 10.6848133 398.004796 11.0676179zM434.421463 39.5604535C434.314384 39.8353533 434.09537 40.0543122 433.820401 40.1613645L433.4375 41.9477857 433.054599 40.1613645C432.77963 40.0543122 432.560616 39.8353533 432.453537 39.5604535L430.666667 39.1776489 432.453537 38.7948444C432.560616 38.5199446 432.77963 38.3009857 433.054599 38.1939333L433.4375 36.4075122 433.820401 38.1939333C434.09537 38.3009857 434.314384 38.5199446 434.421463 38.7948444L436.208333 39.1776489 434.421463 39.5604535zM459.754796 26.1055033C459.647717 26.3804032 459.428703 26.599362 459.153734 26.7064144L458.770833 28.4928356 458.387933 26.7064144C458.112964 26.599362 457.89395 26.3804032 457.78687 26.1055033L456 25.7226988 457.78687 25.3398943C457.89395 25.0649944 458.112964 24.8460356 458.387933 24.7389832L458.770833 22.952562 459.153734 24.7389832C459.428703 24.8460356 459.647717 25.0649944 459.754796 25.3398943L461.541667 25.7226988 459.754796 26.1055033zM475.58813 5.5273443C475.48105 5.80224413 475.262036 6.02120297 474.987067 6.12825536L474.604167 7.91467655 474.221266 6.12825536C473.946297 6.02120297 473.727283 5.80224413 473.620204 5.5273443L471.833333 5.14453976 473.620204 4.76173522C473.727283 4.48683539 473.946297 4.26787655 474.221266 4.16082416L474.604167 2.37440297 474.987067 4.16082416C475.262036 4.26787655 475.48105 4.48683539 475.58813 4.76173522L477.375 5.14453976 475.58813 5.5273443zM490.629796 34.0201799C490.522717 34.2950797 490.303703 34.5140386 490.028734 34.621091L489.645833 36.4075122 489.262933 34.621091C488.987964 34.5140386 488.76895 34.2950797 488.66187 34.0201799L486.875 33.6373754 488.66187 33.2545708C488.76895 32.979671 488.987964 32.7607121 489.262933 32.6536598L489.645833 30.8672386 490.028734 32.6536598C490.303703 32.7607121 490.522717 32.979671 490.629796 33.2545708L492.416667 33.6373754 490.629796 34.0201799zM496.171463 20.5652298C496.064384 20.8401296 495.84537 21.0590884 495.570401 21.1661408L495.1875 22.952562 494.804599 21.1661408C494.52963 21.0590884 494.310616 20.8401296 494.203537 20.5652298L492.416667 20.1824252 494.203537 19.7996207C494.310616 19.5247208 494.52963 19.305762 494.804599 19.1987096L495.1875 17.4122884 495.570401 19.1987096C495.84537 19.305762 496.064384 19.5247208 496.171463 19.7996207L497.958333 20.1824252 496.171463 20.5652298zM534.96313 7.90174727C534.85605 8.1766471 534.637036 8.39560594 534.362067 8.50265833L533.979167 10.2890795 533.596266 8.50265833C533.321297 8.39560594 533.102283 8.1766471 532.995204 7.90174727L531.208333 7.51894273 532.995204 7.13613818C533.102283 6.86123836 533.321297 6.64227951 533.596266 6.53522713L533.979167 4.74880593 534.362067 6.53522713C534.637036 6.64227951 534.85605 6.86123836 534.96313 7.13613818L536.75 7.51894273 534.96313 7.90174727z"/>
      <path d="M534.96313 7.90174727C534.85605 8.1766471 534.637036 8.39560594 534.362067 8.50265833L533.979167 10.2890795 533.596266 8.50265833C533.321297 8.39560594 533.102283 8.1766471 532.995204 7.90174727L531.208333 7.51894273 532.995204 7.13613818C533.102283 6.86123836 533.321297 6.64227951 533.596266 6.53522713L533.979167 4.74880593 534.362067 6.53522713C534.637036 6.64227951 534.85605 6.86123836 534.96313 7.13613818L536.75 7.51894273 534.96313 7.90174727zM555.546463 41.9348565C555.439384 42.2097563 555.22037 42.4287151 554.945401 42.5357675L554.5625 44.3221887 554.179599 42.5357675C553.90463 42.4287151 553.685616 42.2097563 553.578537 41.9348565L551.791667 41.5520519 553.578537 41.1692474C553.685616 40.8943475 553.90463 40.6753887 554.179599 40.5683363L554.5625 38.7819151 554.945401 40.5683363C555.22037 40.6753887 555.439384 40.8943475 555.546463 41.1692474L557.333333 41.5520519 555.546463 41.9348565zM538.129796 55.3898066C538.022717 55.6647064 537.803703 55.8836653 537.528734 55.9907177L537.145833 57.7771388 536.762933 55.9907177C536.487964 55.8836653 536.26895 55.6647064 536.16187 55.3898066L534.375 55.0070021 536.16187 54.6241975C536.26895 54.3492977 536.487964 54.1303388 536.762933 54.0232865L537.145833 52.2368653 537.528734 54.0232865C537.803703 54.1303388 538.022717 54.3492977 538.129796 54.6241975L539.916667 55.0070021 538.129796 55.3898066zM522.296463 32.4372446C522.189384 32.7121444 521.97037 32.9311033 521.695401 33.0381556L521.3125 34.8245768 520.929599 33.0381556C520.65463 32.9311033 520.435616 32.7121444 520.328537 32.4372446L518.541667 32.05444 520.328537 31.6716355C520.435616 31.3967357 520.65463 31.1777768 520.929599 31.0707244L521.3125 29.2843033 521.695401 31.0707244C521.97037 31.1777768 522.189384 31.3967357 522.296463 31.6716355L524.083333 32.05444 522.296463 32.4372446zM558.71313 60.9300802C558.60605 61.20498 558.387036 61.4239389 558.112067 61.5309912L557.729167 63.3174124 557.346266 61.5309912C557.071297 61.4239389 556.852283 61.20498 556.745204 60.9300802L554.958333 60.5472756 556.745204 60.1644711C556.852283 59.8895713 557.071297 59.6706124 557.346266 59.56356L557.729167 57.7771388 558.112067 59.56356C558.387036 59.6706124 558.60605 59.8895713 558.71313 60.1644711L560.5 60.5472756 558.71313 60.9300802zM584.046463 47.47513C583.939384 47.7500299 583.72037 47.9689887 583.445401 48.0760411L583.0625 49.8624623 582.679599 48.0760411C582.40463 47.9689887 582.185616 47.7500299 582.078537 47.47513L580.291667 47.0923255 582.078537 46.709521C582.185616 46.4346211 582.40463 46.2156623 582.679599 46.1086099L583.0625 44.3221887 583.445401 46.1086099C583.72037 46.2156623 583.939384 46.4346211 584.046463 46.709521L585.833333 47.0923255 584.046463 47.47513zM599.879796 26.896971C599.772717 27.1718708 599.553703 27.3908297 599.278734 27.4978821L598.895833 29.2843033 598.512933 27.4978821C598.237964 27.3908297 598.01895 27.1718708 597.91187 26.896971L596.125 26.5141665 597.91187 26.1313619C598.01895 25.8564621 598.237964 25.6375032 598.512933 25.5304509L598.895833 23.7440297 599.278734 25.5304509C599.553703 25.6375032 599.772717 25.8564621 599.879796 26.1313619L601.666667 26.5141665 599.879796 26.896971zM614.921463 55.3898066C614.814384 55.6647064 614.59537 55.8836653 614.320401 55.9907177L613.9375 57.7771388 613.554599 55.9907177C613.27963 55.8836653 613.060616 55.6647064 612.953537 55.3898066L611.166667 55.0070021 612.953537 54.6241975C613.060616 54.3492977 613.27963 54.1303388 613.554599 54.0232865L613.9375 52.2368653 614.320401 54.0232865C614.59537 54.1303388 614.814384 54.3492977 614.921463 54.6241975L616.708333 55.0070021 614.921463 55.3898066zM620.46313 41.9348565C620.35605 42.2097563 620.137036 42.4287151 619.862067 42.5357675L619.479167 44.3221887 619.096266 42.5357675C618.821297 42.4287151 618.602283 42.2097563 618.495204 41.9348565L616.708333 41.5520519 618.495204 41.1692474C618.602283 40.8943475 618.821297 40.6753887 619.096266 40.5683363L619.479167 38.7819151 619.862067 40.5683363C620.137036 40.6753887 620.35605 40.8943475 620.46313 41.1692474L622.25 41.5520519 620.46313 41.9348565zM659.254796 29.271374C659.147717 29.5462738 658.928703 29.7652326 658.653734 29.872285L658.270833 31.6587062 657.887933 29.872285C657.612964 29.7652326 657.39395 29.5462738 657.28687 29.271374L655.5 28.8885694 657.28687 28.5057649C657.39395 28.2308651 657.612964 28.0119062 657.887933 27.9048538L658.270833 26.1184326 658.653734 27.9048538C658.928703 28.0119062 659.147717 28.2308651 659.254796 28.5057649L661.041667 28.8885694 659.254796 29.271374z"/>
      <path d="M659.254796 29.271374C659.147717 29.5462738 658.928703 29.7652326 658.653734 29.872285L658.270833 31.6587062 657.887933 29.872285C657.612964 29.7652326 657.39395 29.5462738 657.28687 29.271374L655.5 28.8885694 657.28687 28.5057649C657.39395 28.2308651 657.612964 28.0119062 657.887933 27.9048538L658.270833 26.1184326 658.653734 27.9048538C658.928703 28.0119062 659.147717 28.2308651 659.254796 28.5057649L661.041667 28.8885694 659.254796 29.271374zM659.254796 18.1908268C659.147717 18.4657266 658.928703 18.6846855 658.653734 18.7917378L658.270833 20.578159 657.887933 18.7917378C657.612964 18.6846855 657.39395 18.4657266 657.28687 18.1908268L655.5 17.8080222 657.28687 17.4252177C657.39395 17.1503179 657.612964 16.931359 657.887933 16.8243066L658.270833 15.0378855 658.653734 16.8243066C658.928703 16.931359 659.147717 17.1503179 659.254796 17.4252177L661.041667 17.8080222 659.254796 18.1908268zM641.83813 31.6457769C641.73105 31.9206768 641.512036 32.1396356 641.237067 32.246688L640.854167 34.0331092 640.471266 32.246688C640.196297 32.1396356 639.977283 31.9206768 639.870204 31.6457769L638.083333 31.2629724 639.870204 30.8801678C639.977283 30.605268 640.196297 30.3863092 640.471266 30.2792568L640.854167 28.4928356 641.237067 30.2792568C641.512036 30.3863092 641.73105 30.605268 641.83813 30.8801678L643.625 31.2629724 641.83813 31.6457769zM626.004796 8.69321492C625.897717 8.96811475 625.678703 9.1870736 625.403734 9.29412598L625.020833 11.0805472 624.637933 9.29412598C624.362964 9.1870736 624.14395 8.96811475 624.03687 8.69321492L622.25 8.31041038 624.03687 7.92760584C624.14395 7.65270601 624.362964 7.43374717 624.637933 7.32669478L625.020833 5.54027359 625.403734 7.32669478C625.678703 7.43374717 625.897717 7.65270601 626.004796 7.92760584L627.791667 8.31041038 626.004796 8.69321492zM662.421463 37.1860505C662.314384 37.4609503 662.09537 37.6799092 661.820401 37.7869616L661.4375 39.5733828 661.054599 37.7869616C660.77963 37.6799092 660.560616 37.4609503 660.453537 37.1860505L658.666667 36.803246 660.453537 36.4204414C660.560616 36.1455416 660.77963 35.9265828 661.054599 35.8195304L661.4375 34.0331092 661.820401 35.8195304C662.09537 35.9265828 662.314384 36.1455416 662.421463 36.4204414L664.208333 36.803246 662.421463 37.1860505zM687.754796 23.7311004C687.647717 24.0060002 687.428703 24.224959 687.153734 24.3320114L686.770833 26.1184326 686.387933 24.3320114C686.112964 24.224959 685.89395 24.0060002 685.78687 23.7311004L684 23.3482958 685.78687 22.9654913C685.89395 22.6905915 686.112964 22.4716326 686.387933 22.3645802L686.770833 20.578159 687.153734 22.3645802C687.428703 22.4716326 687.647717 22.6905915 687.754796 22.9654913L689.541667 23.3482958 687.754796 23.7311004zM703.58813 3.15294134C703.48105 3.42784116 703.262036 3.64680001 702.987067 3.75385239L702.604167 5.54027359 702.221266 3.75385239C701.946297 3.64680001 701.727283 3.42784116 701.620204 3.15294134L699.833333 2.77013679 701.620204 2.38733225C701.727283 2.11243242 701.946297 1.89347358 702.221266 1.7864212L702.604167 0 702.987067 1.7864212C703.262036 1.89347358 703.48105 2.11243242 703.58813 2.38733225L705.375 2.77013679 703.58813 3.15294134zM718.629796 31.6457769C718.522717 31.9206768 718.303703 32.1396356 718.028734 32.246688L717.645833 34.0331092 717.262933 32.246688C716.987964 32.1396356 716.76895 31.9206768 716.66187 31.6457769L714.875 31.2629724 716.66187 30.8801678C716.76895 30.605268 716.987964 30.3863092 717.262933 30.2792568L717.645833 28.4928356 718.028734 30.2792568C718.303703 30.3863092 718.522717 30.605268 718.629796 30.8801678L720.416667 31.2629724 718.629796 31.6457769zM724.171463 18.1908268C724.064384 18.4657266 723.84537 18.6846855 723.570401 18.7917378L723.1875 20.578159 722.804599 18.7917378C722.52963 18.6846855 722.310616 18.4657266 722.203537 18.1908268L720.416667 17.8080222 722.203537 17.4252177C722.310616 17.1503179 722.52963 16.931359 722.804599 16.8243066L723.1875 15.0378855 723.570401 16.8243066C723.84537 16.931359 724.064384 17.1503179 724.171463 17.4252177L725.958333 17.8080222 724.171463 18.1908268zM762.96313 5.5273443C762.85605 5.80224413 762.637036 6.02120297 762.362067 6.12825536L761.979167 7.91467655 761.596266 6.12825536C761.321297 6.02120297 761.102283 5.80224413 760.995204 5.5273443L759.208333 5.14453976 760.995204 4.76173522C761.102283 4.48683539 761.321297 4.26787655 761.596266 4.16082416L761.979167 2.37440297 762.362067 4.16082416C762.637036 4.26787655 762.85605 4.48683539 762.96313 4.76173522L764.75 5.14453976 762.96313 5.5273443z"/>
      <path d="M762.96313 5.5273443C762.85605 5.80224413 762.637036 6.02120297 762.362067 6.12825536L761.979167 7.91467655 761.596266 6.12825536C761.321297 6.02120297 761.102283 5.80224413 760.995204 5.5273443L759.208333 5.14453976 760.995204 4.76173522C761.102283 4.48683539 761.321297 4.26787655 761.596266 4.16082416L761.979167 2.37440297 762.362067 4.16082416C762.637036 4.26787655 762.85605 4.48683539 762.96313 4.76173522L764.75 5.14453976 762.96313 5.5273443zM796.21313 33.2287122C796.10605 33.5036121 795.887036 33.7225709 795.612067 33.8296233L795.229167 35.6160445 794.846266 33.8296233C794.571297 33.7225709 794.352283 33.5036121 794.245204 33.2287122L792.458333 32.8459077 794.245204 32.4631032C794.352283 32.1882033 794.571297 31.9692445 794.846266 31.8621921L795.229167 30.0757709 795.612067 31.8621921C795.887036 31.9692445 796.10605 32.1882033 796.21313 32.4631032L798 32.8459077 796.21313 33.2287122zM778.796463 46.6836624C778.689384 46.9585622 778.47037 47.1775211 778.195401 47.2845734L777.8125 49.0709946 777.429599 47.2845734C777.15463 47.1775211 776.935616 46.9585622 776.828537 46.6836624L775.041667 46.3008578 776.828537 45.9180533C776.935616 45.6431535 777.15463 45.4241946 777.429599 45.3171422L777.8125 43.530721 778.195401 45.3171422C778.47037 45.4241946 778.689384 45.6431535 778.796463 45.9180533L780.583333 46.3008578 778.796463 46.6836624zM762.96313 23.7311004C762.85605 24.0060002 762.637036 24.224959 762.362067 24.3320114L761.979167 26.1184326 761.596266 24.3320114C761.321297 24.224959 761.102283 24.0060002 760.995204 23.7311004L759.208333 23.3482958 760.995204 22.9654913C761.102283 22.6905915 761.321297 22.4716326 761.596266 22.3645802L761.979167 20.578159 762.362067 22.3645802C762.637036 22.4716326 762.85605 22.6905915 762.96313 22.9654913L764.75 23.3482958 762.96313 23.7311004zM799.379796 52.223936C799.272717 52.4988358 799.053703 52.7177946 798.778734 52.824847L798.395833 54.6112682 798.012933 52.824847C797.737964 52.7177946 797.51895 52.4988358 797.41187 52.223936L795.625 51.8411314 797.41187 51.4583269C797.51895 51.1834271 797.737964 50.9644682 798.012933 50.8574158L798.395833 49.0709946 798.778734 50.8574158C799.053703 50.9644682 799.272717 51.1834271 799.379796 51.4583269L801.166667 51.8411314 799.379796 52.223936zM824.71313 38.7689858C824.60605 39.0438857 824.387036 39.2628445 824.112067 39.3698969L823.729167 41.1563181 823.346266 39.3698969C823.071297 39.2628445 822.852283 39.0438857 822.745204 38.7689858L820.958333 38.3861813 822.745204 38.0033767C822.852283 37.7284769 823.071297 37.5095181 823.346266 37.4024657L823.729167 35.6160445 824.112067 37.4024657C824.387036 37.5095181 824.60605 37.7284769 824.71313 38.0033767L826.5 38.3861813 824.71313 38.7689858zM840.546463 18.1908268C840.439384 18.4657266 840.22037 18.6846855 839.945401 18.7917378L839.5625 20.578159 839.179599 18.7917378C838.90463 18.6846855 838.685616 18.4657266 838.578537 18.1908268L836.791667 17.8080222 838.578537 17.4252177C838.685616 17.1503179 838.90463 16.931359 839.179599 16.8243066L839.5625 15.0378855 839.945401 16.8243066C840.22037 16.931359 840.439384 17.1503179 840.546463 17.4252177L842.333333 17.8080222 840.546463 18.1908268zM855.58813 46.6836624C855.48105 46.9585622 855.262036 47.1775211 854.987067 47.2845734L854.604167 49.0709946 854.221266 47.2845734C853.946297 47.1775211 853.727283 46.9585622 853.620204 46.6836624L851.833333 46.3008578 853.620204 45.9180533C853.727283 45.6431535 853.946297 45.4241946 854.221266 45.3171422L854.604167 43.530721 854.987067 45.3171422C855.262036 45.4241946 855.48105 45.6431535 855.58813 45.9180533L857.375 46.3008578 855.58813 46.6836624zM861.129796 33.2287122C861.022717 33.5036121 860.803703 33.7225709 860.528734 33.8296233L860.145833 35.6160445 859.762933 33.8296233C859.487964 33.7225709 859.26895 33.5036121 859.16187 33.2287122L857.375 32.8459077 859.16187 32.4631032C859.26895 32.1882033 859.487964 31.9692445 859.762933 31.8621921L860.145833 30.0757709 860.528734 31.8621921C860.803703 31.9692445 861.022717 32.1882033 861.129796 32.4631032L862.916667 32.8459077 861.129796 33.2287122zM899.921463 20.5652298C899.814384 20.8401296 899.59537 21.0590884 899.320401 21.1661408L898.9375 22.952562 898.554599 21.1661408C898.27963 21.0590884 898.060616 20.8401296 897.953537 20.5652298L896.166667 20.1824252 897.953537 19.7996207C898.060616 19.5247208 898.27963 19.305762 898.554599 19.1987096L898.9375 17.4122884 899.320401 19.1987096C899.59537 19.305762 899.814384 19.5247208 899.921463 19.7996207L901.708333 20.1824252 899.921463 20.5652298z"/>
      <path d="M899.921463 20.5652298C899.814384 20.8401296 899.59537 21.0590884 899.320401 21.1661408L898.9375 22.952562 898.554599 21.1661408C898.27963 21.0590884 898.060616 20.8401296 897.953537 20.5652298L896.166667 20.1824252 897.953537 19.7996207C898.060616 19.5247208 898.27963 19.305762 898.554599 19.1987096L898.9375 17.4122884 899.320401 19.1987096C899.59537 19.305762 899.814384 19.5247208 899.921463 19.7996207L901.708333 20.1824252 899.921463 20.5652298zM917.33813 19.7737621C917.23105 20.0486619 917.012036 20.2676208 916.737067 20.3746732L916.354167 22.1610944 915.971266 20.3746732C915.696297 20.2676208 915.477283 20.0486619 915.370204 19.7737621L913.583333 19.3909576 915.370204 19.008153C915.477283 18.7332532 915.696297 18.5142943 915.971266 18.407242L916.354167 16.6208208 916.737067 18.407242C917.012036 18.5142943 917.23105 18.7332532 917.33813 19.008153L919.125 19.3909576 917.33813 19.7737621zM899.921463 33.2287122C899.814384 33.5036121 899.59537 33.7225709 899.320401 33.8296233L898.9375 35.6160445 898.554599 33.8296233C898.27963 33.7225709 898.060616 33.5036121 897.953537 33.2287122L896.166667 32.8459077 897.953537 32.4631032C898.060616 32.1882033 898.27963 31.9692445 898.554599 31.8621921L898.9375 30.0757709 899.320401 31.8621921C899.59537 31.9692445 899.814384 32.1882033 899.921463 32.4631032L901.708333 32.8459077 899.921463 33.2287122zM884.08813 10.2761502C883.98105 10.5510501 883.762036 10.7700089 883.487067 10.8770613L883.104167 12.6634825 882.721266 10.8770613C882.446297 10.7700089 882.227283 10.5510501 882.120204 10.2761502L880.333333 9.89334569 882.120204 9.51054115C882.227283 9.23564132 882.446297 9.01668248 882.721266 8.90963009L883.104167 7.1232089 883.487067 8.90963009C883.762036 9.01668248 883.98105 9.23564132 884.08813 9.51054115L885.875 9.89334569 884.08813 10.2761502zM920.504796 38.7689858C920.397717 39.0438857 920.178703 39.2628445 919.903734 39.3698969L919.520833 41.1563181 919.137933 39.3698969C918.862964 39.2628445 918.64395 39.0438857 918.53687 38.7689858L916.75 38.3861813 918.53687 38.0033767C918.64395 37.7284769 918.862964 37.5095181 919.137933 37.4024657L919.520833 35.6160445 919.903734 37.4024657C920.178703 37.5095181 920.397717 37.7284769 920.504796 38.0033767L922.291667 38.3861813 920.504796 38.7689858zM945.83813 25.3140357C945.73105 25.5889355 945.512036 25.8078944 945.237067 25.9149467L944.854167 27.7013679 944.471266 25.9149467C944.196297 25.8078944 943.977283 25.5889355 943.870204 25.3140357L942.083333 24.9312311 943.870204 24.5484266C943.977283 24.2735268 944.196297 24.0545679 944.471266 23.9475155L944.854167 22.1610944 945.237067 23.9475155C945.512036 24.0545679 945.73105 24.2735268 945.83813 24.5484266L947.625 24.9312311 945.83813 25.3140357zM961.671463 4.73587665C961.564384 5.01077648 961.34537 5.22973532 961.070401 5.3367877L960.6875 7.1232089 960.304599 5.3367877C960.02963 5.22973532 959.810616 5.01077648 959.703537 4.73587665L957.916667 4.3530721 959.703537 3.97026756C959.810616 3.69536773 960.02963 3.47640889 960.304599 3.36935651L960.6875 1.58293531 961.070401 3.36935651C961.34537 3.47640889 961.564384 3.69536773 961.671463 3.97026756L963.458333 4.3530721 961.671463 4.73587665zM976.71313 33.2287122C976.60605 33.5036121 976.387036 33.7225709 976.112067 33.8296233L975.729167 35.6160445 975.346266 33.8296233C975.071297 33.7225709 974.852283 33.5036121 974.745204 33.2287122L972.958333 32.8459077 974.745204 32.4631032C974.852283 32.1882033 975.071297 31.9692445 975.346266 31.8621921L975.729167 30.0757709 976.112067 31.8621921C976.387036 31.9692445 976.60605 32.1882033 976.71313 32.4631032L978.5 32.8459077 976.71313 33.2287122zM982.254796 19.7737621C982.147717 20.0486619 981.928703 20.2676208 981.653734 20.3746732L981.270833 22.1610944 980.887933 20.3746732C980.612964 20.2676208 980.39395 20.0486619 980.28687 19.7737621L978.5 19.3909576 980.28687 19.008153C980.39395 18.7332532 980.612964 18.5142943 980.887933 18.407242L981.270833 16.6208208 981.653734 18.407242C981.928703 18.5142943 982.147717 18.7332532 982.254796 19.008153L984.041667 19.3909576 982.254796 19.7737621zM1021.04646 7.11027961C1020.93938 7.38517944 1020.72037 7.60413829 1020.4454 7.71119067L1020.0625 9.49761187 1019.6796 7.71119067C1019.40463 7.60413829 1019.18562 7.38517944 1019.07854 7.11027961L1017.29167 6.72747507 1019.07854 6.34467053C1019.18562 6.0697707 1019.40463 5.85081186 1019.6796 5.74375947L1020.0625 3.95733828 1020.4454 5.74375947C1020.72037 5.85081186 1020.93938 6.0697707 1021.04646 6.34467053L1022.83333 6.72747507 1021.04646 7.11027961z"/>
      <path d="M1021.04646,11.0676179 C1020.93938,11.3425177 1020.72037,11.5614766 1020.4454,11.6685289 L1020.0625,13.4549501 L1019.6796,11.6685289 C1019.40463,11.5614766 1019.18562,11.3425177 1019.07854,11.0676179 L1017.29167,10.6848133 L1019.07854,10.3020088 C1019.18562,10.027109 1019.40463,9.80815013 1019.6796,9.70109775 L1020.0625,7.91467655 L1020.4454,9.70109775 C1020.72037,9.80815013 1020.93938,10.027109 1021.04646,10.3020088 L1022.83333,10.6848133 L1021.04646,11.0676179 Z"/>
    </g>
    <g fill="#FFFFFF" transform="translate(618.292 113.18)">
      <path d="M47.0929259,45.0877978 C46.8787673,45.6375974 46.4407395,46.0755151 45.8908016,46.2896199 L45.125,49.8624623 L44.3591984,46.2896199 C43.8092605,46.0755151 43.3712327,45.6375974 43.1570741,45.0877978 L39.5833333,44.3221887 L43.1570741,43.5565796 C43.3712327,43.00678 43.8092605,42.5688623 44.3591984,42.3547575 L45.125,38.7819151 L45.8908016,42.3547575 C46.4407395,42.5688623 46.8787673,43.00678 47.0929259,43.5565796 L50.6666667,44.3221887 L47.0929259,45.0877978 Z"/>
      <path d="M47.0929259 45.0877978C46.8787673 45.6375974 46.4407395 46.0755151 45.8908016 46.2896199L45.125 49.8624623 44.3591984 46.2896199C43.8092605 46.0755151 43.3712327 45.6375974 43.1570741 45.0877978L39.5833333 44.3221887 43.1570741 43.5565796C43.3712327 43.00678 43.8092605 42.5688623 44.3591984 42.3547575L45.125 38.7819151 45.8908016 42.3547575C46.4407395 42.5688623 46.8787673 43.00678 47.0929259 43.5565796L50.6666667 44.3221887 47.0929259 45.0877978zM7.50959257 26.0925741C7.29543396 26.6423737 6.85740616 27.0802914 6.30746826 27.2943962L5.54166667 30.8672386 4.77586507 27.2943962C4.22592717 27.0802914 3.78789937 26.6423737 3.57374077 26.0925741L0 25.326965 3.57374077 24.5613559C3.78789937 24.0115562 4.22592717 23.5736385 4.77586507 23.3595338L5.54166667 19.7866914 6.30746826 23.3595338C6.85740616 23.5736385 7.29543396 24.0115562 7.50959257 24.5613559L11.0833333 25.326965 7.50959257 26.0925741zM97.7595926 72.7891657C97.545434 73.3389654 97.1074062 73.7768831 96.5574683 73.9909878L95.7916667 77.5638302 95.0258651 73.9909878C94.4759272 73.7768831 94.0378994 73.3389654 93.8237408 72.7891657L90.25 72.0235566 93.8237408 71.2579476C94.0378994 70.7081479 94.4759272 70.2702302 95.0258651 70.0561254L95.7916667 66.4832831 96.5574683 70.0561254C97.1074062 70.2702302 97.545434 70.7081479 97.7595926 71.2579476L101.333333 72.0235566 97.7595926 72.7891657zM130.217926 50.6280714C130.003767 51.177871 129.565739 51.6157887 129.015802 51.8298935L128.25 55.4027359 127.484198 51.8298935C126.934261 51.6157887 126.496233 51.177871 126.282074 50.6280714L122.708333 49.8624623 126.282074 49.0968532C126.496233 48.5470536 126.934261 48.1091359 127.484198 47.8950311L128.25 44.3221887 129.015802 47.8950311C129.565739 48.1091359 130.003767 48.5470536 130.217926 49.0968532L133.791667 49.8624623 130.217926 50.6280714zM156.342926 39.5475242C156.128767 40.0973239 155.690739 40.5352415 155.140802 40.7493463L154.375 44.3221887 153.609198 40.7493463C153.059261 40.5352415 152.621233 40.0973239 152.407074 39.5475242L148.833333 38.7819151 152.407074 38.016306C152.621233 37.4665064 153.059261 37.0285887 153.609198 36.8144839L154.375 33.2416415 155.140802 36.8144839C155.690739 37.0285887 156.128767 37.4665064 156.342926 38.016306L159.916667 38.7819151 156.342926 39.5475242zM108.842926 26.0925741C108.628767 26.6423737 108.190739 27.0802914 107.640802 27.2943962L106.875 30.8672386 106.109198 27.2943962C105.559261 27.0802914 105.121233 26.6423737 104.907074 26.0925741L101.333333 25.326965 104.907074 24.5613559C105.121233 24.0115562 105.559261 23.5736385 106.109198 23.3595338L106.875 19.7866914 107.640802 23.3595338C108.190739 23.5736385 108.628767 24.0115562 108.842926 24.5613559L112.416667 25.326965 108.842926 26.0925741zM142.092926 6.30588267C141.878767 6.85568233 141.440739 7.29360002 140.890802 7.50770479L140.125 11.0805472 139.359198 7.50770479C138.809261 7.29360002 138.371233 6.85568233 138.157074 6.30588267L134.583333 5.54027359 138.157074 4.7746645C138.371233 4.22486485 138.809261 3.78694716 139.359198 3.57284239L140.125 0 140.890802 3.57284239C141.440739 3.78694716 141.878767 4.22486485 142.092926 4.7746645L145.666667 5.54027359 142.092926 6.30588267z"/>
      <path d="M142.092926,6.30588267 C141.878767,6.85568233 141.440739,7.29360002 140.890802,7.50770479 L140.125,11.0805472 L139.359198,7.50770479 C138.809261,7.29360002 138.371233,6.85568233 138.157074,6.30588267 L134.583333,5.54027359 L138.157074,4.7746645 C138.371233,4.22486485 138.809261,3.78694716 139.359198,3.57284239 L140.125,0 L140.890802,3.57284239 C141.440739,3.78694716 141.878767,4.22486485 142.092926,4.7746645 L145.666667,5.54027359 L142.092926,6.30588267 Z"/>
    </g>
  </g>
</svg>
