<svg xmlns="http://www.w3.org/2000/svg" width="1140" height="2933" viewBox="0 0 1140 2933">
  <defs>
    <linearGradient id="a" x1="46.261%" x2="46.261%" y1=".573%" y2="73.498%">
      <stop stop-color="#3C3891" offset="0%"/>
      <stop stop-color="#489AFD" offset="100%"/>
      <stop stop-color="#507AED" offset="100%"/>
    </linearGradient>
  </defs>
  <g fill="none" fill-rule="evenodd">
    <polygon fill="url(#a)" points="0 0 1140 0 1140 2933 0 2933"/>
    <path fill="#FFFFFF" d="M151.820444,110.879438 C151.177969,112.528837 149.863885,113.84259 148.214071,114.484904 L145.916667,125.203431 L143.619262,114.484904 C141.969448,113.84259 140.655365,112.528837 140.012889,110.879438 L129.291667,108.582611 L140.012889,106.285783 C140.655365,104.636384 141.969448,103.322631 143.619262,102.680317 L145.916667,91.96179 L148.214071,102.680317 C149.863885,103.322631 151.177969,104.636384 151.820444,106.285783 L162.541667,108.582611 L151.820444,110.879438 L151.820444,110.879438 Z"/>
    <path fill="#FFFFFF" d="M7.50959257,6.30588267 C7.29543396,6.85568233 6.85740616,7.29360002 6.30746826,7.50770479 L5.54166667,11.0805472 L4.77586507,7.50770479 C4.22592717,7.29360002 3.78789937,6.85568233 3.57374077,6.30588267 L0,5.54027359 L3.57374077,4.7746645 C3.78789937,4.22486485 4.22592717,3.78694716 4.77586507,3.57284239 L5.54166667,0 L6.30746826,3.57284239 C6.85740616,3.78694716 7.29543396,4.22486485 7.50959257,4.7746645 L11.0833333,5.54027359 L7.50959257,6.30588267 L7.50959257,6.30588267 Z M63.7179259,6.30588267 C63.5037673,6.85568233 63.0657395,7.29360002 62.5158016,7.50770479 L61.75,11.0805472 L60.9841984,7.50770479 C60.4342605,7.29360002 59.9962327,6.85568233 59.7820741,6.30588267 L56.2083333,5.54027359 L59.7820741,4.7746645 C59.9962327,4.22486485 60.4342605,3.78694716 60.9841984,3.57284239 L61.75,0 L62.5158016,3.57284239 C63.0657395,3.78694716 63.5037673,4.22486485 63.7179259,4.7746645 L67.2916667,5.54027359 L63.7179259,6.30588267 L63.7179259,6.30588267 Z M105.676259,6.30588267 C105.462101,6.85568233 105.024073,7.29360002 104.474135,7.50770479 L103.708333,11.0805472 L102.942532,7.50770479 C102.392594,7.29360002 101.954566,6.85568233 101.740407,6.30588267 L98.1666667,5.54027359 L101.740407,4.7746645 C101.954566,4.22486485 102.392594,3.78694716 102.942532,3.57284239 L103.708333,0 L104.474135,3.57284239 C105.024073,3.78694716 105.462101,4.22486485 105.676259,4.7746645 L109.25,5.54027359 L105.676259,6.30588267 L105.676259,6.30588267 Z" transform="translate(491.625 63.317)"/>
    <g fill="#FFFFFF" transform="translate(82.333 5.54)">
      <path d="M37.0047963,32.4372446 C36.897717,32.7121444 36.6787031,32.9311033 36.4037341,33.0381556 L36.0208333,34.8245768 L35.6379325,33.0381556 C35.3629636,32.9311033 35.1439497,32.7121444 35.0368704,32.4372446 L33.25,32.05444 L35.0368704,31.6716355 C35.1439497,31.3967357 35.3629636,31.1777768 35.6379325,31.0707244 L36.0208333,29.2843033 L36.4037341,31.0707244 C36.6787031,31.1777768 36.897717,31.3967357 37.0047963,31.6716355 L38.7916667,32.05444 L37.0047963,32.4372446 L37.0047963,32.4372446 Z M19.5881296,45.8921947 C19.4810503,46.1670946 19.2620364,46.3860534 18.9870675,46.4931058 L18.6041667,48.279527 L18.2212659,46.4931058 C17.9462969,46.3860534 17.727283,46.1670946 17.6202037,45.8921947 L15.8333333,45.5093902 L17.6202037,45.1265856 C17.727283,44.8516858 17.9462969,44.632727 18.2212659,44.5256746 L18.6041667,42.7392534 L18.9870675,44.5256746 C19.2620364,44.632727 19.4810503,44.8516858 19.5881296,45.1265856 L21.375,45.5093902 L19.5881296,45.8921947 L19.5881296,45.8921947 Z M3.75479628,22.9396327 C3.64771698,23.2145326 3.42870308,23.4334914 3.15373413,23.5405438 L2.77083333,25.326965 L2.38793254,23.5405438 C2.11296359,23.4334914 1.89394969,23.2145326 1.78687038,22.9396327 L0,22.5568282 L1.78687038,22.1740236 C1.89394969,21.8991238 2.11296359,21.680165 2.38793254,21.5731126 L2.77083333,19.7866914 L3.15373413,21.5731126 C3.42870308,21.680165 3.64771698,21.8991238 3.75479628,22.1740236 L5.54166667,22.5568282 L3.75479628,22.9396327 L3.75479628,22.9396327 Z M40.171463,51.4324683 C40.0643836,51.7073681 39.8453697,51.926327 39.5704008,52.0333794 L39.1875,53.8198006 L38.8045992,52.0333794 C38.5296303,51.926327 38.3106164,51.7073681 38.203537,51.4324683 L36.4166667,51.0496638 L38.203537,50.6668592 C38.3106164,50.3919594 38.5296303,50.1730006 38.8045992,50.0659482 L39.1875,48.279527 L39.5704008,50.0659482 C39.8453697,50.1730006 40.0643836,50.3919594 40.171463,50.6668592 L41.9583333,51.0496638 L40.171463,51.4324683 L40.171463,51.4324683 Z M65.5047963,37.9775182 C65.397717,38.252418 65.1787031,38.4713768 64.9037341,38.5784292 L64.5208333,40.3648504 L64.1379325,38.5784292 C63.8629636,38.4713768 63.6439497,38.252418 63.5368704,37.9775182 L61.75,37.5947136 L63.5368704,37.2119091 C63.6439497,36.9370093 63.8629636,36.7180504 64.1379325,36.610998 L64.5208333,34.8245768 L64.9037341,36.610998 C65.1787031,36.7180504 65.397717,36.9370093 65.5047963,37.2119091 L67.2916667,37.5947136 L65.5047963,37.9775182 L65.5047963,37.9775182 Z M81.3381296,17.3993591 C81.2310503,17.674259 81.0120364,17.8932178 80.7370675,18.0002702 L80.3541667,19.7866914 L79.9712659,18.0002702 C79.6962969,17.8932178 79.477283,17.674259 79.3702037,17.3993591 L77.5833333,17.0165546 L79.3702037,16.6337501 C79.477283,16.3588502 79.6962969,16.1398914 79.9712659,16.032839 L80.3541667,14.2464178 L80.7370675,16.032839 C81.0120364,16.1398914 81.2310503,16.3588502 81.3381296,16.6337501 L83.125,17.0165546 L81.3381296,17.3993591 L81.3381296,17.3993591 Z M96.3797963,45.8921947 C96.272717,46.1670946 96.0537031,46.3860534 95.7787341,46.4931058 L95.3958333,48.279527 L95.0129325,46.4931058 C94.7379636,46.3860534 94.5189497,46.1670946 94.4118704,45.8921947 L92.625,45.5093902 L94.4118704,45.1265856 C94.5189497,44.8516858 94.7379636,44.632727 95.0129325,44.5256746 L95.3958333,42.7392534 L95.7787341,44.5256746 C96.0537031,44.632727 96.272717,44.8516858 96.3797963,45.1265856 L98.1666667,45.5093902 L96.3797963,45.8921947 L96.3797963,45.8921947 Z M101.921463,32.4372446 C101.814384,32.7121444 101.59537,32.9311033 101.320401,33.0381556 L100.9375,34.8245768 L100.554599,33.0381556 C100.27963,32.9311033 100.060616,32.7121444 99.953537,32.4372446 L98.1666667,32.05444 L99.953537,31.6716355 C100.060616,31.3967357 100.27963,31.1777768 100.554599,31.0707244 L100.9375,29.2843033 L101.320401,31.0707244 C101.59537,31.1777768 101.814384,31.3967357 101.921463,31.6716355 L103.708333,32.05444 L101.921463,32.4372446 L101.921463,32.4372446 Z M140.71313,19.7737621 C140.60605,20.0486619 140.387036,20.2676208 140.112067,20.3746732 L139.729167,22.1610944 L139.346266,20.3746732 C139.071297,20.2676208 138.852283,20.0486619 138.745204,19.7737621 L136.958333,19.3909576 L138.745204,19.008153 C138.852283,18.7332532 139.071297,18.5142943 139.346266,18.407242 L139.729167,16.6208208 L140.112067,18.407242 C140.387036,18.5142943 140.60605,18.7332532 140.71313,19.008153 L142.5,19.3909576 L140.71313,19.7737621 L140.71313,19.7737621 Z"/>
      <path d="M140.71313,19.7737621 C140.60605,20.0486619 140.387036,20.2676208 140.112067,20.3746732 L139.729167,22.1610944 L139.346266,20.3746732 C139.071297,20.2676208 138.852283,20.0486619 138.745204,19.7737621 L136.958333,19.3909576 L138.745204,19.008153 C138.852283,18.7332532 139.071297,18.5142943 139.346266,18.407242 L139.729167,16.6208208 L140.112067,18.407242 C140.387036,18.5142943 140.60605,18.7332532 140.71313,19.008153 L142.5,19.3909576 L140.71313,19.7737621 L140.71313,19.7737621 Z M160.504796,53.0154036 C160.397717,53.2903035 160.178703,53.5092623 159.903734,53.6163147 L159.520833,55.4027359 L159.137933,53.6163147 C158.862964,53.5092623 158.64395,53.2903035 158.53687,53.0154036 L156.75,52.6325991 L158.53687,52.2497945 C158.64395,51.9748947 158.862964,51.7559359 159.137933,51.6488835 L159.520833,49.8624623 L159.903734,51.6488835 C160.178703,51.7559359 160.397717,51.9748947 160.504796,52.2497945 L162.291667,52.6325991 L160.504796,53.0154036 L160.504796,53.0154036 Z M143.08813,66.4703538 C142.98105,66.7452536 142.762036,66.9642124 142.487067,67.0712648 L142.104167,68.857686 L141.721266,67.0712648 C141.446297,66.9642124 141.227283,66.7452536 141.120204,66.4703538 L139.333333,66.0875492 L141.120204,65.7047447 C141.227283,65.4298449 141.446297,65.210886 141.721266,65.1038336 L142.104167,63.3174124 L142.487067,65.1038336 C142.762036,65.210886 142.98105,65.4298449 143.08813,65.7047447 L144.875,66.0875492 L143.08813,66.4703538 L143.08813,66.4703538 Z M127.254796,43.5177918 C127.147717,43.7926916 126.928703,44.0116504 126.653734,44.1187028 L126.270833,45.905124 L125.887933,44.1187028 C125.612964,44.0116504 125.39395,43.7926916 125.28687,43.5177918 L123.5,43.1349872 L125.28687,42.7521827 C125.39395,42.4772829 125.612964,42.258324 125.887933,42.1512716 L126.270833,40.3648504 L126.653734,42.1512716 C126.928703,42.258324 127.147717,42.4772829 127.254796,42.7521827 L129.041667,43.1349872 L127.254796,43.5177918 L127.254796,43.5177918 Z M163.671463,72.0106274 C163.564384,72.2855272 163.34537,72.504486 163.070401,72.6115384 L162.6875,74.3979596 L162.304599,72.6115384 C162.02963,72.504486 161.810616,72.2855272 161.703537,72.0106274 L159.916667,71.6278228 L161.703537,71.2450183 C161.810616,70.9701184 162.02963,70.7511596 162.304599,70.6441072 L162.6875,68.857686 L163.070401,70.6441072 C163.34537,70.7511596 163.564384,70.9701184 163.671463,71.2450183 L165.458333,71.6278228 L163.671463,72.0106274 L163.671463,72.0106274 Z M189.004796,58.5556772 C188.897717,58.830577 188.678703,59.0495359 188.403734,59.1565883 L188.020833,60.9430095 L187.637933,59.1565883 C187.362964,59.0495359 187.14395,58.830577 187.03687,58.5556772 L185.25,58.1728727 L187.03687,57.7900681 C187.14395,57.5151683 187.362964,57.2962095 187.637933,57.1891571 L188.020833,55.4027359 L188.403734,57.1891571 C188.678703,57.2962095 188.897717,57.5151683 189.004796,57.7900681 L190.791667,58.1728727 L189.004796,58.5556772 L189.004796,58.5556772 Z M204.83813,37.9775182 C204.73105,38.252418 204.512036,38.4713768 204.237067,38.5784292 L203.854167,40.3648504 L203.471266,38.5784292 C203.196297,38.4713768 202.977283,38.252418 202.870204,37.9775182 L201.083333,37.5947136 L202.870204,37.2119091 C202.977283,36.9370093 203.196297,36.7180504 203.471266,36.610998 L203.854167,34.8245768 L204.237067,36.610998 C204.512036,36.7180504 204.73105,36.9370093 204.83813,37.2119091 L206.625,37.5947136 L204.83813,37.9775182 L204.83813,37.9775182 Z M219.879796,66.4703538 C219.772717,66.7452536 219.553703,66.9642124 219.278734,67.0712648 L218.895833,68.857686 L218.512933,67.0712648 C218.237964,66.9642124 218.01895,66.7452536 217.91187,66.4703538 L216.125,66.0875492 L217.91187,65.7047447 C218.01895,65.4298449 218.237964,65.210886 218.512933,65.1038336 L218.895833,63.3174124 L219.278734,65.1038336 C219.553703,65.210886 219.772717,65.4298449 219.879796,65.7047447 L221.666667,66.0875492 L219.879796,66.4703538 L219.879796,66.4703538 Z M225.421463,53.0154036 C225.314384,53.2903035 225.09537,53.5092623 224.820401,53.6163147 L224.4375,55.4027359 L224.054599,53.6163147 C223.77963,53.5092623 223.560616,53.2903035 223.453537,53.0154036 L221.666667,52.6325991 L223.453537,52.2497945 C223.560616,51.9748947 223.77963,51.7559359 224.054599,51.6488835 L224.4375,49.8624623 L224.820401,51.6488835 C225.09537,51.7559359 225.314384,51.9748947 225.421463,52.2497945 L227.208333,52.6325991 L225.421463,53.0154036 L225.421463,53.0154036 Z M264.21313,40.3519211 C264.10605,40.626821 263.887036,40.8457798 263.612067,40.9528322 L263.229167,42.7392534 L262.846266,40.9528322 C262.571297,40.8457798 262.352283,40.626821 262.245204,40.3519211 L260.458333,39.9691166 L262.245204,39.5863121 C262.352283,39.3114122 262.571297,39.0924534 262.846266,38.985401 L263.229167,37.1989798 L263.612067,38.985401 C263.887036,39.0924534 264.10605,39.3114122 264.21313,39.5863121 L266,39.9691166 L264.21313,40.3519211 L264.21313,40.3519211 Z"/>
      <path d="M264.21313,40.3519211 C264.10605,40.626821 263.887036,40.8457798 263.612067,40.9528322 L263.229167,42.7392534 L262.846266,40.9528322 C262.571297,40.8457798 262.352283,40.626821 262.245204,40.3519211 L260.458333,39.9691166 L262.245204,39.5863121 C262.352283,39.3114122 262.571297,39.0924534 262.846266,38.985401 L263.229167,37.1989798 L263.612067,38.985401 C263.887036,39.0924534 264.10605,39.3114122 264.21313,39.5863121 L266,39.9691166 L264.21313,40.3519211 L264.21313,40.3519211 Z M238.08813,23.7311004 C237.98105,24.0060002 237.762036,24.224959 237.487067,24.3320114 L237.104167,26.1184326 L236.721266,24.3320114 C236.446297,24.224959 236.227283,24.0060002 236.120204,23.7311004 L234.333333,23.3482958 L236.120204,22.9654913 C236.227283,22.6905915 236.446297,22.4716326 236.721266,22.3645802 L237.104167,20.578159 L237.487067,22.3645802 C237.762036,22.4716326 237.98105,22.6905915 238.08813,22.9654913 L239.875,23.3482958 L238.08813,23.7311004 L238.08813,23.7311004 Z M220.671463,37.1860505 C220.564384,37.4609503 220.34537,37.6799092 220.070401,37.7869616 L219.6875,39.5733828 L219.304599,37.7869616 C219.02963,37.6799092 218.810616,37.4609503 218.703537,37.1860505 L216.916667,36.803246 L218.703537,36.4204414 C218.810616,36.1455416 219.02963,35.9265828 219.304599,35.8195304 L219.6875,34.0331092 L220.070401,35.8195304 C220.34537,35.9265828 220.564384,36.1455416 220.671463,36.4204414 L222.458333,36.803246 L220.671463,37.1860505 L220.671463,37.1860505 Z M204.83813,14.2334885 C204.73105,14.5083883 204.512036,14.7273472 204.237067,14.8343996 L203.854167,16.6208208 L203.471266,14.8343996 C203.196297,14.7273472 202.977283,14.5083883 202.870204,14.2334885 L201.083333,13.850684 L202.870204,13.4678794 C202.977283,13.1929796 203.196297,12.9740208 203.471266,12.8669684 L203.854167,11.0805472 L204.237067,12.8669684 C204.512036,12.9740208 204.73105,13.1929796 204.83813,13.4678794 L206.625,13.850684 L204.83813,14.2334885 L204.83813,14.2334885 Z M241.254796,42.7263241 C241.147717,43.0012239 240.928703,43.2201828 240.653734,43.3272352 L240.270833,45.1136564 L239.887933,43.3272352 C239.612964,43.2201828 239.39395,43.0012239 239.28687,42.7263241 L237.5,42.3435196 L239.28687,41.960715 C239.39395,41.6858152 239.612964,41.4668564 239.887933,41.359804 L240.270833,39.5733828 L240.653734,41.359804 C240.928703,41.4668564 241.147717,41.6858152 241.254796,41.960715 L243.041667,42.3435196 L241.254796,42.7263241 L241.254796,42.7263241 Z M266.58813,29.271374 C266.48105,29.5462738 266.262036,29.7652326 265.987067,29.872285 L265.604167,31.6587062 L265.221266,29.872285 C264.946297,29.7652326 264.727283,29.5462738 264.620204,29.271374 L262.833333,28.8885694 L264.620204,28.5057649 C264.727283,28.2308651 264.946297,28.0119062 265.221266,27.9048538 L265.604167,26.1184326 L265.987067,27.9048538 C266.262036,28.0119062 266.48105,28.2308651 266.58813,28.5057649 L268.375,28.8885694 L266.58813,29.271374 L266.58813,29.271374 Z M282.421463,8.69321492 C282.314384,8.96811475 282.09537,9.1870736 281.820401,9.29412598 L281.4375,11.0805472 L281.054599,9.29412598 C280.77963,9.1870736 280.560616,8.96811475 280.453537,8.69321492 L278.666667,8.31041038 L280.453537,7.92760584 C280.560616,7.65270601 280.77963,7.43374717 281.054599,7.32669478 L281.4375,5.54027359 L281.820401,7.32669478 C282.09537,7.43374717 282.314384,7.65270601 282.421463,7.92760584 L284.208333,8.31041038 L282.421463,8.69321492 L282.421463,8.69321492 Z M297.46313,37.1860505 C297.35605,37.4609503 297.137036,37.6799092 296.862067,37.7869616 L296.479167,39.5733828 L296.096266,37.7869616 C295.821297,37.6799092 295.602283,37.4609503 295.495204,37.1860505 L293.708333,36.803246 L295.495204,36.4204414 C295.602283,36.1455416 295.821297,35.9265828 296.096266,35.8195304 L296.479167,34.0331092 L296.862067,35.8195304 C297.137036,35.9265828 297.35605,36.1455416 297.46313,36.4204414 L299.25,36.803246 L297.46313,37.1860505 L297.46313,37.1860505 Z M303.004796,23.7311004 C302.897717,24.0060002 302.678703,24.224959 302.403734,24.3320114 L302.020833,26.1184326 L301.637933,24.3320114 C301.362964,24.224959 301.14395,24.0060002 301.03687,23.7311004 L299.25,23.3482958 L301.03687,22.9654913 C301.14395,22.6905915 301.362964,22.4716326 301.637933,22.3645802 L302.020833,20.578159 L302.403734,22.3645802 C302.678703,22.4716326 302.897717,22.6905915 303.004796,22.9654913 L304.791667,23.3482958 L303.004796,23.7311004 L303.004796,23.7311004 Z M341.796463,11.0676179 C341.689384,11.3425177 341.47037,11.5614766 341.195401,11.6685289 L340.8125,13.4549501 L340.429599,11.6685289 C340.15463,11.5614766 339.935616,11.3425177 339.828537,11.0676179 L338.041667,10.6848133 L339.828537,10.3020088 C339.935616,10.027109 340.15463,9.80815013 340.429599,9.70109775 L340.8125,7.91467655 L341.195401,9.70109775 C341.47037,9.80815013 341.689384,10.027109 341.796463,10.3020088 L343.583333,10.6848133 L341.796463,11.0676179 L341.796463,11.0676179 Z"/>
      <path d="M341.796463,11.0676179 C341.689384,11.3425177 341.47037,11.5614766 341.195401,11.6685289 L340.8125,13.4549501 L340.429599,11.6685289 C340.15463,11.5614766 339.935616,11.3425177 339.828537,11.0676179 L338.041667,10.6848133 L339.828537,10.3020088 C339.935616,10.027109 340.15463,9.80815013 340.429599,9.70109775 L340.8125,7.91467655 L341.195401,9.70109775 C341.47037,9.80815013 341.689384,10.027109 341.796463,10.3020088 L343.583333,10.6848133 L341.796463,11.0676179 L341.796463,11.0676179 Z M314.879796,56.9727419 C314.772717,57.2476417 314.553703,57.4666006 314.278734,57.573653 L313.895833,59.3600742 L313.512933,57.573653 C313.237964,57.4666006 313.01895,57.2476417 312.91187,56.9727419 L311.125,56.5899374 L312.91187,56.2071328 C313.01895,55.932233 313.237964,55.7132741 313.512933,55.6062218 L313.895833,53.8198006 L314.278734,55.6062218 C314.553703,55.7132741 314.772717,55.932233 314.879796,56.2071328 L316.666667,56.5899374 L314.879796,56.9727419 L314.879796,56.9727419 Z M297.46313,70.427692 C297.35605,70.7025919 297.137036,70.9215507 296.862067,71.0286031 L296.479167,72.8150243 L296.096266,71.0286031 C295.821297,70.9215507 295.602283,70.7025919 295.495204,70.427692 L293.708333,70.0448875 L295.495204,69.662083 C295.602283,69.3871831 295.821297,69.1682243 296.096266,69.0611719 L296.479167,67.2747507 L296.862067,69.0611719 C297.137036,69.1682243 297.35605,69.3871831 297.46313,69.662083 L299.25,70.0448875 L297.46313,70.427692 L297.46313,70.427692 Z M281.629796,47.47513 C281.522717,47.7500299 281.303703,47.9689887 281.028734,48.0760411 L280.645833,49.8624623 L280.262933,48.0760411 C279.987964,47.9689887 279.76895,47.7500299 279.66187,47.47513 L277.875,47.0923255 L279.66187,46.709521 C279.76895,46.4346211 279.987964,46.2156623 280.262933,46.1086099 L280.645833,44.3221887 L281.028734,46.1086099 C281.303703,46.2156623 281.522717,46.4346211 281.629796,46.709521 L283.416667,47.0923255 L281.629796,47.47513 L281.629796,47.47513 Z M318.046463,75.9679656 C317.939384,76.2428655 317.72037,76.4618243 317.445401,76.5688767 L317.0625,78.3552979 L316.679599,76.5688767 C316.40463,76.4618243 316.185616,76.2428655 316.078537,75.9679656 L314.291667,75.5851611 L316.078537,75.2023566 C316.185616,74.9274567 316.40463,74.7084979 316.679599,74.6014455 L317.0625,72.8150243 L317.445401,74.6014455 C317.72037,74.7084979 317.939384,74.9274567 318.046463,75.2023566 L319.833333,75.5851611 L318.046463,75.9679656 L318.046463,75.9679656 Z M343.379796,62.5130155 C343.272717,62.7879153 343.053703,63.0068742 342.778734,63.1139266 L342.395833,64.9003477 L342.012933,63.1139266 C341.737964,63.0068742 341.51895,62.7879153 341.41187,62.5130155 L339.625,62.130211 L341.41187,61.7474064 C341.51895,61.4725066 341.737964,61.2535477 342.012933,61.1464954 L342.395833,59.3600742 L342.778734,61.1464954 C343.053703,61.2535477 343.272717,61.4725066 343.379796,61.7474064 L345.166667,62.130211 L343.379796,62.5130155 L343.379796,62.5130155 Z M359.21313,41.9348565 C359.10605,42.2097563 358.887036,42.4287151 358.612067,42.5357675 L358.229167,44.3221887 L357.846266,42.5357675 C357.571297,42.4287151 357.352283,42.2097563 357.245204,41.9348565 L355.458333,41.5520519 L357.245204,41.1692474 C357.352283,40.8943475 357.571297,40.6753887 357.846266,40.5683363 L358.229167,38.7819151 L358.612067,40.5683363 C358.887036,40.6753887 359.10605,40.8943475 359.21313,41.1692474 L361,41.5520519 L359.21313,41.9348565 L359.21313,41.9348565 Z M374.254796,70.427692 C374.147717,70.7025919 373.928703,70.9215507 373.653734,71.0286031 L373.270833,72.8150243 L372.887933,71.0286031 C372.612964,70.9215507 372.39395,70.7025919 372.28687,70.427692 L370.5,70.0448875 L372.28687,69.662083 C372.39395,69.3871831 372.612964,69.1682243 372.887933,69.0611719 L373.270833,67.2747507 L373.653734,69.0611719 C373.928703,69.1682243 374.147717,69.3871831 374.254796,69.662083 L376.041667,70.0448875 L374.254796,70.427692 L374.254796,70.427692 Z M379.796463,56.9727419 C379.689384,57.2476417 379.47037,57.4666006 379.195401,57.573653 L378.8125,59.3600742 L378.429599,57.573653 C378.15463,57.4666006 377.935616,57.2476417 377.828537,56.9727419 L376.041667,56.5899374 L377.828537,56.2071328 C377.935616,55.932233 378.15463,55.7132741 378.429599,55.6062218 L378.8125,53.8198006 L379.195401,55.6062218 C379.47037,55.7132741 379.689384,55.932233 379.796463,56.2071328 L381.583333,56.5899374 L379.796463,56.9727419 L379.796463,56.9727419 Z M418.58813,44.3092594 C418.48105,44.5841592 418.262036,44.8031181 417.987067,44.9101705 L417.604167,46.6965917 L417.221266,44.9101705 C416.946297,44.8031181 416.727283,44.5841592 416.620204,44.3092594 L414.833333,43.9264549 L416.620204,43.5436503 C416.727283,43.2687505 416.946297,43.0497917 417.221266,42.9427393 L417.604167,41.1563181 L417.987067,42.9427393 C418.262036,43.0497917 418.48105,43.2687505 418.58813,43.5436503 L420.375,43.9264549 L418.58813,44.3092594 L418.58813,44.3092594 Z"/>
      <path d="M418.58813,44.3092594 C418.48105,44.5841592 418.262036,44.8031181 417.987067,44.9101705 L417.604167,46.6965917 L417.221266,44.9101705 C416.946297,44.8031181 416.727283,44.5841592 416.620204,44.3092594 L414.833333,43.9264549 L416.620204,43.5436503 C416.727283,43.2687505 416.946297,43.0497917 417.221266,42.9427393 L417.604167,41.1563181 L417.987067,42.9427393 C418.262036,43.0497917 418.48105,43.2687505 418.58813,43.5436503 L420.375,43.9264549 L418.58813,44.3092594 L418.58813,44.3092594 Z M431.254796,20.5652298 C431.147717,20.8401296 430.928703,21.0590884 430.653734,21.1661408 L430.270833,22.952562 L429.887933,21.1661408 C429.612964,21.0590884 429.39395,20.8401296 429.28687,20.5652298 L427.5,20.1824252 L429.28687,19.7996207 C429.39395,19.5247208 429.612964,19.305762 429.887933,19.1987096 L430.270833,17.4122884 L430.653734,19.1987096 C430.928703,19.305762 431.147717,19.5247208 431.254796,19.7996207 L433.041667,20.1824252 L431.254796,20.5652298 L431.254796,20.5652298 Z M413.83813,34.0201799 C413.73105,34.2950797 413.512036,34.5140386 413.237067,34.621091 L412.854167,36.4075122 L412.471266,34.621091 C412.196297,34.5140386 411.977283,34.2950797 411.870204,34.0201799 L410.083333,33.6373754 L411.870204,33.2545708 C411.977283,32.979671 412.196297,32.7607121 412.471266,32.6536598 L412.854167,30.8672386 L413.237067,32.6536598 C413.512036,32.7607121 413.73105,32.979671 413.83813,33.2545708 L415.625,33.6373754 L413.83813,34.0201799 L413.83813,34.0201799 Z M398.004796,11.0676179 C397.897717,11.3425177 397.678703,11.5614766 397.403734,11.6685289 L397.020833,13.4549501 L396.637933,11.6685289 C396.362964,11.5614766 396.14395,11.3425177 396.03687,11.0676179 L394.25,10.6848133 L396.03687,10.3020088 C396.14395,10.027109 396.362964,9.80815013 396.637933,9.70109775 L397.020833,7.91467655 L397.403734,9.70109775 C397.678703,9.80815013 397.897717,10.027109 398.004796,10.3020088 L399.791667,10.6848133 L398.004796,11.0676179 L398.004796,11.0676179 Z M434.421463,39.5604535 C434.314384,39.8353533 434.09537,40.0543122 433.820401,40.1613645 L433.4375,41.9477857 L433.054599,40.1613645 C432.77963,40.0543122 432.560616,39.8353533 432.453537,39.5604535 L430.666667,39.1776489 L432.453537,38.7948444 C432.560616,38.5199446 432.77963,38.3009857 433.054599,38.1939333 L433.4375,36.4075122 L433.820401,38.1939333 C434.09537,38.3009857 434.314384,38.5199446 434.421463,38.7948444 L436.208333,39.1776489 L434.421463,39.5604535 L434.421463,39.5604535 Z M459.754796,26.1055033 C459.647717,26.3804032 459.428703,26.599362 459.153734,26.7064144 L458.770833,28.4928356 L458.387933,26.7064144 C458.112964,26.599362 457.89395,26.3804032 457.78687,26.1055033 L456,25.7226988 L457.78687,25.3398943 C457.89395,25.0649944 458.112964,24.8460356 458.387933,24.7389832 L458.770833,22.952562 L459.153734,24.7389832 C459.428703,24.8460356 459.647717,25.0649944 459.754796,25.3398943 L461.541667,25.7226988 L459.754796,26.1055033 L459.754796,26.1055033 Z M475.58813,5.5273443 C475.48105,5.80224413 475.262036,6.02120297 474.987067,6.12825536 L474.604167,7.91467655 L474.221266,6.12825536 C473.946297,6.02120297 473.727283,5.80224413 473.620204,5.5273443 L471.833333,5.14453976 L473.620204,4.76173522 C473.727283,4.48683539 473.946297,4.26787655 474.221266,4.16082416 L474.604167,2.37440297 L474.987067,4.16082416 C475.262036,4.26787655 475.48105,4.48683539 475.58813,4.76173522 L477.375,5.14453976 L475.58813,5.5273443 L475.58813,5.5273443 Z M490.629796,34.0201799 C490.522717,34.2950797 490.303703,34.5140386 490.028734,34.621091 L489.645833,36.4075122 L489.262933,34.621091 C488.987964,34.5140386 488.76895,34.2950797 488.66187,34.0201799 L486.875,33.6373754 L488.66187,33.2545708 C488.76895,32.979671 488.987964,32.7607121 489.262933,32.6536598 L489.645833,30.8672386 L490.028734,32.6536598 C490.303703,32.7607121 490.522717,32.979671 490.629796,33.2545708 L492.416667,33.6373754 L490.629796,34.0201799 L490.629796,34.0201799 Z M496.171463,20.5652298 C496.064384,20.8401296 495.84537,21.0590884 495.570401,21.1661408 L495.1875,22.952562 L494.804599,21.1661408 C494.52963,21.0590884 494.310616,20.8401296 494.203537,20.5652298 L492.416667,20.1824252 L494.203537,19.7996207 C494.310616,19.5247208 494.52963,19.305762 494.804599,19.1987096 L495.1875,17.4122884 L495.570401,19.1987096 C495.84537,19.305762 496.064384,19.5247208 496.171463,19.7996207 L497.958333,20.1824252 L496.171463,20.5652298 L496.171463,20.5652298 Z M534.96313,7.90174727 C534.85605,8.1766471 534.637036,8.39560594 534.362067,8.50265833 L533.979167,10.2890795 L533.596266,8.50265833 C533.321297,8.39560594 533.102283,8.1766471 532.995204,7.90174727 L531.208333,7.51894273 L532.995204,7.13613818 C533.102283,6.86123836 533.321297,6.64227951 533.596266,6.53522713 L533.979167,4.74880593 L534.362067,6.53522713 C534.637036,6.64227951 534.85605,6.86123836 534.96313,7.13613818 L536.75,7.51894273 L534.96313,7.90174727 L534.96313,7.90174727 Z"/>
      <path d="M534.96313,7.90174727 C534.85605,8.1766471 534.637036,8.39560594 534.362067,8.50265833 L533.979167,10.2890795 L533.596266,8.50265833 C533.321297,8.39560594 533.102283,8.1766471 532.995204,7.90174727 L531.208333,7.51894273 L532.995204,7.13613818 C533.102283,6.86123836 533.321297,6.64227951 533.596266,6.53522713 L533.979167,4.74880593 L534.362067,6.53522713 C534.637036,6.64227951 534.85605,6.86123836 534.96313,7.13613818 L536.75,7.51894273 L534.96313,7.90174727 L534.96313,7.90174727 Z M555.546463,41.9348565 C555.439384,42.2097563 555.22037,42.4287151 554.945401,42.5357675 L554.5625,44.3221887 L554.179599,42.5357675 C553.90463,42.4287151 553.685616,42.2097563 553.578537,41.9348565 L551.791667,41.5520519 L553.578537,41.1692474 C553.685616,40.8943475 553.90463,40.6753887 554.179599,40.5683363 L554.5625,38.7819151 L554.945401,40.5683363 C555.22037,40.6753887 555.439384,40.8943475 555.546463,41.1692474 L557.333333,41.5520519 L555.546463,41.9348565 L555.546463,41.9348565 Z M538.129796,55.3898066 C538.022717,55.6647064 537.803703,55.8836653 537.528734,55.9907177 L537.145833,57.7771388 L536.762933,55.9907177 C536.487964,55.8836653 536.26895,55.6647064 536.16187,55.3898066 L534.375,55.0070021 L536.16187,54.6241975 C536.26895,54.3492977 536.487964,54.1303388 536.762933,54.0232865 L537.145833,52.2368653 L537.528734,54.0232865 C537.803703,54.1303388 538.022717,54.3492977 538.129796,54.6241975 L539.916667,55.0070021 L538.129796,55.3898066 L538.129796,55.3898066 Z M522.296463,32.4372446 C522.189384,32.7121444 521.97037,32.9311033 521.695401,33.0381556 L521.3125,34.8245768 L520.929599,33.0381556 C520.65463,32.9311033 520.435616,32.7121444 520.328537,32.4372446 L518.541667,32.05444 L520.328537,31.6716355 C520.435616,31.3967357 520.65463,31.1777768 520.929599,31.0707244 L521.3125,29.2843033 L521.695401,31.0707244 C521.97037,31.1777768 522.189384,31.3967357 522.296463,31.6716355 L524.083333,32.05444 L522.296463,32.4372446 L522.296463,32.4372446 Z M558.71313,60.9300802 C558.60605,61.20498 558.387036,61.4239389 558.112067,61.5309912 L557.729167,63.3174124 L557.346266,61.5309912 C557.071297,61.4239389 556.852283,61.20498 556.745204,60.9300802 L554.958333,60.5472756 L556.745204,60.1644711 C556.852283,59.8895713 557.071297,59.6706124 557.346266,59.56356 L557.729167,57.7771388 L558.112067,59.56356 C558.387036,59.6706124 558.60605,59.8895713 558.71313,60.1644711 L560.5,60.5472756 L558.71313,60.9300802 L558.71313,60.9300802 Z M584.046463,47.47513 C583.939384,47.7500299 583.72037,47.9689887 583.445401,48.0760411 L583.0625,49.8624623 L582.679599,48.0760411 C582.40463,47.9689887 582.185616,47.7500299 582.078537,47.47513 L580.291667,47.0923255 L582.078537,46.709521 C582.185616,46.4346211 582.40463,46.2156623 582.679599,46.1086099 L583.0625,44.3221887 L583.445401,46.1086099 C583.72037,46.2156623 583.939384,46.4346211 584.046463,46.709521 L585.833333,47.0923255 L584.046463,47.47513 L584.046463,47.47513 Z M599.879796,26.896971 C599.772717,27.1718708 599.553703,27.3908297 599.278734,27.4978821 L598.895833,29.2843033 L598.512933,27.4978821 C598.237964,27.3908297 598.01895,27.1718708 597.91187,26.896971 L596.125,26.5141665 L597.91187,26.1313619 C598.01895,25.8564621 598.237964,25.6375032 598.512933,25.5304509 L598.895833,23.7440297 L599.278734,25.5304509 C599.553703,25.6375032 599.772717,25.8564621 599.879796,26.1313619 L601.666667,26.5141665 L599.879796,26.896971 L599.879796,26.896971 Z M614.921463,55.3898066 C614.814384,55.6647064 614.59537,55.8836653 614.320401,55.9907177 L613.9375,57.7771388 L613.554599,55.9907177 C613.27963,55.8836653 613.060616,55.6647064 612.953537,55.3898066 L611.166667,55.0070021 L612.953537,54.6241975 C613.060616,54.3492977 613.27963,54.1303388 613.554599,54.0232865 L613.9375,52.2368653 L614.320401,54.0232865 C614.59537,54.1303388 614.814384,54.3492977 614.921463,54.6241975 L616.708333,55.0070021 L614.921463,55.3898066 L614.921463,55.3898066 Z M620.46313,41.9348565 C620.35605,42.2097563 620.137036,42.4287151 619.862067,42.5357675 L619.479167,44.3221887 L619.096266,42.5357675 C618.821297,42.4287151 618.602283,42.2097563 618.495204,41.9348565 L616.708333,41.5520519 L618.495204,41.1692474 C618.602283,40.8943475 618.821297,40.6753887 619.096266,40.5683363 L619.479167,38.7819151 L619.862067,40.5683363 C620.137036,40.6753887 620.35605,40.8943475 620.46313,41.1692474 L622.25,41.5520519 L620.46313,41.9348565 L620.46313,41.9348565 Z M659.254796,29.271374 C659.147717,29.5462738 658.928703,29.7652326 658.653734,29.872285 L658.270833,31.6587062 L657.887933,29.872285 C657.612964,29.7652326 657.39395,29.5462738 657.28687,29.271374 L655.5,28.8885694 L657.28687,28.5057649 C657.39395,28.2308651 657.612964,28.0119062 657.887933,27.9048538 L658.270833,26.1184326 L658.653734,27.9048538 C658.928703,28.0119062 659.147717,28.2308651 659.254796,28.5057649 L661.041667,28.8885694 L659.254796,29.271374 L659.254796,29.271374 Z"/>
      <path d="M659.254796,29.271374 C659.147717,29.5462738 658.928703,29.7652326 658.653734,29.872285 L658.270833,31.6587062 L657.887933,29.872285 C657.612964,29.7652326 657.39395,29.5462738 657.28687,29.271374 L655.5,28.8885694 L657.28687,28.5057649 C657.39395,28.2308651 657.612964,28.0119062 657.887933,27.9048538 L658.270833,26.1184326 L658.653734,27.9048538 C658.928703,28.0119062 659.147717,28.2308651 659.254796,28.5057649 L661.041667,28.8885694 L659.254796,29.271374 L659.254796,29.271374 Z M659.254796,18.1908268 C659.147717,18.4657266 658.928703,18.6846855 658.653734,18.7917378 L658.270833,20.578159 L657.887933,18.7917378 C657.612964,18.6846855 657.39395,18.4657266 657.28687,18.1908268 L655.5,17.8080222 L657.28687,17.4252177 C657.39395,17.1503179 657.612964,16.931359 657.887933,16.8243066 L658.270833,15.0378855 L658.653734,16.8243066 C658.928703,16.931359 659.147717,17.1503179 659.254796,17.4252177 L661.041667,17.8080222 L659.254796,18.1908268 L659.254796,18.1908268 Z M641.83813,31.6457769 C641.73105,31.9206768 641.512036,32.1396356 641.237067,32.246688 L640.854167,34.0331092 L640.471266,32.246688 C640.196297,32.1396356 639.977283,31.9206768 639.870204,31.6457769 L638.083333,31.2629724 L639.870204,30.8801678 C639.977283,30.605268 640.196297,30.3863092 640.471266,30.2792568 L640.854167,28.4928356 L641.237067,30.2792568 C641.512036,30.3863092 641.73105,30.605268 641.83813,30.8801678 L643.625,31.2629724 L641.83813,31.6457769 L641.83813,31.6457769 Z M626.004796,8.69321492 C625.897717,8.96811475 625.678703,9.1870736 625.403734,9.29412598 L625.020833,11.0805472 L624.637933,9.29412598 C624.362964,9.1870736 624.14395,8.96811475 624.03687,8.69321492 L622.25,8.31041038 L624.03687,7.92760584 C624.14395,7.65270601 624.362964,7.43374717 624.637933,7.32669478 L625.020833,5.54027359 L625.403734,7.32669478 C625.678703,7.43374717 625.897717,7.65270601 626.004796,7.92760584 L627.791667,8.31041038 L626.004796,8.69321492 L626.004796,8.69321492 Z M662.421463,37.1860505 C662.314384,37.4609503 662.09537,37.6799092 661.820401,37.7869616 L661.4375,39.5733828 L661.054599,37.7869616 C660.77963,37.6799092 660.560616,37.4609503 660.453537,37.1860505 L658.666667,36.803246 L660.453537,36.4204414 C660.560616,36.1455416 660.77963,35.9265828 661.054599,35.8195304 L661.4375,34.0331092 L661.820401,35.8195304 C662.09537,35.9265828 662.314384,36.1455416 662.421463,36.4204414 L664.208333,36.803246 L662.421463,37.1860505 L662.421463,37.1860505 Z M687.754796,23.7311004 C687.647717,24.0060002 687.428703,24.224959 687.153734,24.3320114 L686.770833,26.1184326 L686.387933,24.3320114 C686.112964,24.224959 685.89395,24.0060002 685.78687,23.7311004 L684,23.3482958 L685.78687,22.9654913 C685.89395,22.6905915 686.112964,22.4716326 686.387933,22.3645802 L686.770833,20.578159 L687.153734,22.3645802 C687.428703,22.4716326 687.647717,22.6905915 687.754796,22.9654913 L689.541667,23.3482958 L687.754796,23.7311004 L687.754796,23.7311004 Z M703.58813,3.15294134 C703.48105,3.42784116 703.262036,3.64680001 702.987067,3.75385239 L702.604167,5.54027359 L702.221266,3.75385239 C701.946297,3.64680001 701.727283,3.42784116 701.620204,3.15294134 L699.833333,2.77013679 L701.620204,2.38733225 C701.727283,2.11243242 701.946297,1.89347358 702.221266,1.7864212 L702.604167,0 L702.987067,1.7864212 C703.262036,1.89347358 703.48105,2.11243242 703.58813,2.38733225 L705.375,2.77013679 L703.58813,3.15294134 L703.58813,3.15294134 Z M718.629796,31.6457769 C718.522717,31.9206768 718.303703,32.1396356 718.028734,32.246688 L717.645833,34.0331092 L717.262933,32.246688 C716.987964,32.1396356 716.76895,31.9206768 716.66187,31.6457769 L714.875,31.2629724 L716.66187,30.8801678 C716.76895,30.605268 716.987964,30.3863092 717.262933,30.2792568 L717.645833,28.4928356 L718.028734,30.2792568 C718.303703,30.3863092 718.522717,30.605268 718.629796,30.8801678 L720.416667,31.2629724 L718.629796,31.6457769 L718.629796,31.6457769 Z M724.171463,18.1908268 C724.064384,18.4657266 723.84537,18.6846855 723.570401,18.7917378 L723.1875,20.578159 L722.804599,18.7917378 C722.52963,18.6846855 722.310616,18.4657266 722.203537,18.1908268 L720.416667,17.8080222 L722.203537,17.4252177 C722.310616,17.1503179 722.52963,16.931359 722.804599,16.8243066 L723.1875,15.0378855 L723.570401,16.8243066 C723.84537,16.931359 724.064384,17.1503179 724.171463,17.4252177 L725.958333,17.8080222 L724.171463,18.1908268 L724.171463,18.1908268 Z M762.96313,5.5273443 C762.85605,5.80224413 762.637036,6.02120297 762.362067,6.12825536 L761.979167,7.91467655 L761.596266,6.12825536 C761.321297,6.02120297 761.102283,5.80224413 760.995204,5.5273443 L759.208333,5.14453976 L760.995204,4.76173522 C761.102283,4.48683539 761.321297,4.26787655 761.596266,4.16082416 L761.979167,2.37440297 L762.362067,4.16082416 C762.637036,4.26787655 762.85605,4.48683539 762.96313,4.76173522 L764.75,5.14453976 L762.96313,5.5273443 L762.96313,5.5273443 Z"/>
      <path d="M762.96313,5.5273443 C762.85605,5.80224413 762.637036,6.02120297 762.362067,6.12825536 L761.979167,7.91467655 L761.596266,6.12825536 C761.321297,6.02120297 761.102283,5.80224413 760.995204,5.5273443 L759.208333,5.14453976 L760.995204,4.76173522 C761.102283,4.48683539 761.321297,4.26787655 761.596266,4.16082416 L761.979167,2.37440297 L762.362067,4.16082416 C762.637036,4.26787655 762.85605,4.48683539 762.96313,4.76173522 L764.75,5.14453976 L762.96313,5.5273443 L762.96313,5.5273443 Z M796.21313,33.2287122 C796.10605,33.5036121 795.887036,33.7225709 795.612067,33.8296233 L795.229167,35.6160445 L794.846266,33.8296233 C794.571297,33.7225709 794.352283,33.5036121 794.245204,33.2287122 L792.458333,32.8459077 L794.245204,32.4631032 C794.352283,32.1882033 794.571297,31.9692445 794.846266,31.8621921 L795.229167,30.0757709 L795.612067,31.8621921 C795.887036,31.9692445 796.10605,32.1882033 796.21313,32.4631032 L798,32.8459077 L796.21313,33.2287122 L796.21313,33.2287122 Z M778.796463,46.6836624 C778.689384,46.9585622 778.47037,47.1775211 778.195401,47.2845734 L777.8125,49.0709946 L777.429599,47.2845734 C777.15463,47.1775211 776.935616,46.9585622 776.828537,46.6836624 L775.041667,46.3008578 L776.828537,45.9180533 C776.935616,45.6431535 777.15463,45.4241946 777.429599,45.3171422 L777.8125,43.530721 L778.195401,45.3171422 C778.47037,45.4241946 778.689384,45.6431535 778.796463,45.9180533 L780.583333,46.3008578 L778.796463,46.6836624 L778.796463,46.6836624 Z M762.96313,23.7311004 C762.85605,24.0060002 762.637036,24.224959 762.362067,24.3320114 L761.979167,26.1184326 L761.596266,24.3320114 C761.321297,24.224959 761.102283,24.0060002 760.995204,23.7311004 L759.208333,23.3482958 L760.995204,22.9654913 C761.102283,22.6905915 761.321297,22.4716326 761.596266,22.3645802 L761.979167,20.578159 L762.362067,22.3645802 C762.637036,22.4716326 762.85605,22.6905915 762.96313,22.9654913 L764.75,23.3482958 L762.96313,23.7311004 L762.96313,23.7311004 Z M799.379796,52.223936 C799.272717,52.4988358 799.053703,52.7177946 798.778734,52.824847 L798.395833,54.6112682 L798.012933,52.824847 C797.737964,52.7177946 797.51895,52.4988358 797.41187,52.223936 L795.625,51.8411314 L797.41187,51.4583269 C797.51895,51.1834271 797.737964,50.9644682 798.012933,50.8574158 L798.395833,49.0709946 L798.778734,50.8574158 C799.053703,50.9644682 799.272717,51.1834271 799.379796,51.4583269 L801.166667,51.8411314 L799.379796,52.223936 L799.379796,52.223936 Z M824.71313,38.7689858 C824.60605,39.0438857 824.387036,39.2628445 824.112067,39.3698969 L823.729167,41.1563181 L823.346266,39.3698969 C823.071297,39.2628445 822.852283,39.0438857 822.745204,38.7689858 L820.958333,38.3861813 L822.745204,38.0033767 C822.852283,37.7284769 823.071297,37.5095181 823.346266,37.4024657 L823.729167,35.6160445 L824.112067,37.4024657 C824.387036,37.5095181 824.60605,37.7284769 824.71313,38.0033767 L826.5,38.3861813 L824.71313,38.7689858 L824.71313,38.7689858 Z M840.546463,18.1908268 C840.439384,18.4657266 840.22037,18.6846855 839.945401,18.7917378 L839.5625,20.578159 L839.179599,18.7917378 C838.90463,18.6846855 838.685616,18.4657266 838.578537,18.1908268 L836.791667,17.8080222 L838.578537,17.4252177 C838.685616,17.1503179 838.90463,16.931359 839.179599,16.8243066 L839.5625,15.0378855 L839.945401,16.8243066 C840.22037,16.931359 840.439384,17.1503179 840.546463,17.4252177 L842.333333,17.8080222 L840.546463,18.1908268 L840.546463,18.1908268 Z M855.58813,46.6836624 C855.48105,46.9585622 855.262036,47.1775211 854.987067,47.2845734 L854.604167,49.0709946 L854.221266,47.2845734 C853.946297,47.1775211 853.727283,46.9585622 853.620204,46.6836624 L851.833333,46.3008578 L853.620204,45.9180533 C853.727283,45.6431535 853.946297,45.4241946 854.221266,45.3171422 L854.604167,43.530721 L854.987067,45.3171422 C855.262036,45.4241946 855.48105,45.6431535 855.58813,45.9180533 L857.375,46.3008578 L855.58813,46.6836624 L855.58813,46.6836624 Z M861.129796,33.2287122 C861.022717,33.5036121 860.803703,33.7225709 860.528734,33.8296233 L860.145833,35.6160445 L859.762933,33.8296233 C859.487964,33.7225709 859.26895,33.5036121 859.16187,33.2287122 L857.375,32.8459077 L859.16187,32.4631032 C859.26895,32.1882033 859.487964,31.9692445 859.762933,31.8621921 L860.145833,30.0757709 L860.528734,31.8621921 C860.803703,31.9692445 861.022717,32.1882033 861.129796,32.4631032 L862.916667,32.8459077 L861.129796,33.2287122 L861.129796,33.2287122 Z M899.921463,20.5652298 C899.814384,20.8401296 899.59537,21.0590884 899.320401,21.1661408 L898.9375,22.952562 L898.554599,21.1661408 C898.27963,21.0590884 898.060616,20.8401296 897.953537,20.5652298 L896.166667,20.1824252 L897.953537,19.7996207 C898.060616,19.5247208 898.27963,19.305762 898.554599,19.1987096 L898.9375,17.4122884 L899.320401,19.1987096 C899.59537,19.305762 899.814384,19.5247208 899.921463,19.7996207 L901.708333,20.1824252 L899.921463,20.5652298 L899.921463,20.5652298 Z"/>
      <path d="M899.921463,20.5652298 C899.814384,20.8401296 899.59537,21.0590884 899.320401,21.1661408 L898.9375,22.952562 L898.554599,21.1661408 C898.27963,21.0590884 898.060616,20.8401296 897.953537,20.5652298 L896.166667,20.1824252 L897.953537,19.7996207 C898.060616,19.5247208 898.27963,19.305762 898.554599,19.1987096 L898.9375,17.4122884 L899.320401,19.1987096 C899.59537,19.305762 899.814384,19.5247208 899.921463,19.7996207 L901.708333,20.1824252 L899.921463,20.5652298 L899.921463,20.5652298 Z M917.33813,19.7737621 C917.23105,20.0486619 917.012036,20.2676208 916.737067,20.3746732 L916.354167,22.1610944 L915.971266,20.3746732 C915.696297,20.2676208 915.477283,20.0486619 915.370204,19.7737621 L913.583333,19.3909576 L915.370204,19.008153 C915.477283,18.7332532 915.696297,18.5142943 915.971266,18.407242 L916.354167,16.6208208 L916.737067,18.407242 C917.012036,18.5142943 917.23105,18.7332532 917.33813,19.008153 L919.125,19.3909576 L917.33813,19.7737621 L917.33813,19.7737621 Z M899.921463,33.2287122 C899.814384,33.5036121 899.59537,33.7225709 899.320401,33.8296233 L898.9375,35.6160445 L898.554599,33.8296233 C898.27963,33.7225709 898.060616,33.5036121 897.953537,33.2287122 L896.166667,32.8459077 L897.953537,32.4631032 C898.060616,32.1882033 898.27963,31.9692445 898.554599,31.8621921 L898.9375,30.0757709 L899.320401,31.8621921 C899.59537,31.9692445 899.814384,32.1882033 899.921463,32.4631032 L901.708333,32.8459077 L899.921463,33.2287122 L899.921463,33.2287122 Z M884.08813,10.2761502 C883.98105,10.5510501 883.762036,10.7700089 883.487067,10.8770613 L883.104167,12.6634825 L882.721266,10.8770613 C882.446297,10.7700089 882.227283,10.5510501 882.120204,10.2761502 L880.333333,9.89334569 L882.120204,9.51054115 C882.227283,9.23564132 882.446297,9.01668248 882.721266,8.90963009 L883.104167,7.1232089 L883.487067,8.90963009 C883.762036,9.01668248 883.98105,9.23564132 884.08813,9.51054115 L885.875,9.89334569 L884.08813,10.2761502 L884.08813,10.2761502 Z M920.504796,38.7689858 C920.397717,39.0438857 920.178703,39.2628445 919.903734,39.3698969 L919.520833,41.1563181 L919.137933,39.3698969 C918.862964,39.2628445 918.64395,39.0438857 918.53687,38.7689858 L916.75,38.3861813 L918.53687,38.0033767 C918.64395,37.7284769 918.862964,37.5095181 919.137933,37.4024657 L919.520833,35.6160445 L919.903734,37.4024657 C920.178703,37.5095181 920.397717,37.7284769 920.504796,38.0033767 L922.291667,38.3861813 L920.504796,38.7689858 L920.504796,38.7689858 Z M945.83813,25.3140357 C945.73105,25.5889355 945.512036,25.8078944 945.237067,25.9149467 L944.854167,27.7013679 L944.471266,25.9149467 C944.196297,25.8078944 943.977283,25.5889355 943.870204,25.3140357 L942.083333,24.9312311 L943.870204,24.5484266 C943.977283,24.2735268 944.196297,24.0545679 944.471266,23.9475155 L944.854167,22.1610944 L945.237067,23.9475155 C945.512036,24.0545679 945.73105,24.2735268 945.83813,24.5484266 L947.625,24.9312311 L945.83813,25.3140357 L945.83813,25.3140357 Z M961.671463,4.73587665 C961.564384,5.01077648 961.34537,5.22973532 961.070401,5.3367877 L960.6875,7.1232089 L960.304599,5.3367877 C960.02963,5.22973532 959.810616,5.01077648 959.703537,4.73587665 L957.916667,4.3530721 L959.703537,3.97026756 C959.810616,3.69536773 960.02963,3.47640889 960.304599,3.36935651 L960.6875,1.58293531 L961.070401,3.36935651 C961.34537,3.47640889 961.564384,3.69536773 961.671463,3.97026756 L963.458333,4.3530721 L961.671463,4.73587665 L961.671463,4.73587665 Z M976.71313,33.2287122 C976.60605,33.5036121 976.387036,33.7225709 976.112067,33.8296233 L975.729167,35.6160445 L975.346266,33.8296233 C975.071297,33.7225709 974.852283,33.5036121 974.745204,33.2287122 L972.958333,32.8459077 L974.745204,32.4631032 C974.852283,32.1882033 975.071297,31.9692445 975.346266,31.8621921 L975.729167,30.0757709 L976.112067,31.8621921 C976.387036,31.9692445 976.60605,32.1882033 976.71313,32.4631032 L978.5,32.8459077 L976.71313,33.2287122 L976.71313,33.2287122 Z M982.254796,19.7737621 C982.147717,20.0486619 981.928703,20.2676208 981.653734,20.3746732 L981.270833,22.1610944 L980.887933,20.3746732 C980.612964,20.2676208 980.39395,20.0486619 980.28687,19.7737621 L978.5,19.3909576 L980.28687,19.008153 C980.39395,18.7332532 980.612964,18.5142943 980.887933,18.407242 L981.270833,16.6208208 L981.653734,18.407242 C981.928703,18.5142943 982.147717,18.7332532 982.254796,19.008153 L984.041667,19.3909576 L982.254796,19.7737621 L982.254796,19.7737621 Z M1021.04646,7.11027961 C1020.93938,7.38517944 1020.72037,7.60413829 1020.4454,7.71119067 L1020.0625,9.49761187 L1019.6796,7.71119067 C1019.40463,7.60413829 1019.18562,7.38517944 1019.07854,7.11027961 L1017.29167,6.72747507 L1019.07854,6.34467053 C1019.18562,6.0697707 1019.40463,5.85081186 1019.6796,5.74375947 L1020.0625,3.95733828 L1020.4454,5.74375947 C1020.72037,5.85081186 1020.93938,6.0697707 1021.04646,6.34467053 L1022.83333,6.72747507 L1021.04646,7.11027961 L1021.04646,7.11027961 Z"/>
      <path d="M1021.04646,11.0676179 C1020.93938,11.3425177 1020.72037,11.5614766 1020.4454,11.6685289 L1020.0625,13.4549501 L1019.6796,11.6685289 C1019.40463,11.5614766 1019.18562,11.3425177 1019.07854,11.0676179 L1017.29167,10.6848133 L1019.07854,10.3020088 C1019.18562,10.027109 1019.40463,9.80815013 1019.6796,9.70109775 L1020.0625,7.91467655 L1020.4454,9.70109775 C1020.72037,9.80815013 1020.93938,10.027109 1021.04646,10.3020088 L1022.83333,10.6848133 L1021.04646,11.0676179 L1021.04646,11.0676179 Z"/>
    </g>
    <g fill="#FFFFFF" transform="translate(730.292 73.18)">
      <path d="M47.0929259,45.0877978 C46.8787673,45.6375974 46.4407395,46.0755151 45.8908016,46.2896199 L45.125,49.8624623 L44.3591984,46.2896199 C43.8092605,46.0755151 43.3712327,45.6375974 43.1570741,45.0877978 L39.5833333,44.3221887 L43.1570741,43.5565796 C43.3712327,43.00678 43.8092605,42.5688623 44.3591984,42.3547575 L45.125,38.7819151 L45.8908016,42.3547575 C46.4407395,42.5688623 46.8787673,43.00678 47.0929259,43.5565796 L50.6666667,44.3221887 L47.0929259,45.0877978 L47.0929259,45.0877978 Z"/>
      <path d="M47.0929259,45.0877978 C46.8787673,45.6375974 46.4407395,46.0755151 45.8908016,46.2896199 L45.125,49.8624623 L44.3591984,46.2896199 C43.8092605,46.0755151 43.3712327,45.6375974 43.1570741,45.0877978 L39.5833333,44.3221887 L43.1570741,43.5565796 C43.3712327,43.00678 43.8092605,42.5688623 44.3591984,42.3547575 L45.125,38.7819151 L45.8908016,42.3547575 C46.4407395,42.5688623 46.8787673,43.00678 47.0929259,43.5565796 L50.6666667,44.3221887 L47.0929259,45.0877978 L47.0929259,45.0877978 Z M7.50959257,26.0925741 C7.29543396,26.6423737 6.85740616,27.0802914 6.30746826,27.2943962 L5.54166667,30.8672386 L4.77586507,27.2943962 C4.22592717,27.0802914 3.78789937,26.6423737 3.57374077,26.0925741 L0,25.326965 L3.57374077,24.5613559 C3.78789937,24.0115562 4.22592717,23.5736385 4.77586507,23.3595338 L5.54166667,19.7866914 L6.30746826,23.3595338 C6.85740616,23.5736385 7.29543396,24.0115562 7.50959257,24.5613559 L11.0833333,25.326965 L7.50959257,26.0925741 L7.50959257,26.0925741 Z M97.7595926,72.7891657 C97.545434,73.3389654 97.1074062,73.7768831 96.5574683,73.9909878 L95.7916667,77.5638302 L95.0258651,73.9909878 C94.4759272,73.7768831 94.0378994,73.3389654 93.8237408,72.7891657 L90.25,72.0235566 L93.8237408,71.2579476 C94.0378994,70.7081479 94.4759272,70.2702302 95.0258651,70.0561254 L95.7916667,66.4832831 L96.5574683,70.0561254 C97.1074062,70.2702302 97.545434,70.7081479 97.7595926,71.2579476 L101.333333,72.0235566 L97.7595926,72.7891657 L97.7595926,72.7891657 Z M130.217926,50.6280714 C130.003767,51.177871 129.565739,51.6157887 129.015802,51.8298935 L128.25,55.4027359 L127.484198,51.8298935 C126.934261,51.6157887 126.496233,51.177871 126.282074,50.6280714 L122.708333,49.8624623 L126.282074,49.0968532 C126.496233,48.5470536 126.934261,48.1091359 127.484198,47.8950311 L128.25,44.3221887 L129.015802,47.8950311 C129.565739,48.1091359 130.003767,48.5470536 130.217926,49.0968532 L133.791667,49.8624623 L130.217926,50.6280714 L130.217926,50.6280714 Z M156.342926,39.5475242 C156.128767,40.0973239 155.690739,40.5352415 155.140802,40.7493463 L154.375,44.3221887 L153.609198,40.7493463 C153.059261,40.5352415 152.621233,40.0973239 152.407074,39.5475242 L148.833333,38.7819151 L152.407074,38.016306 C152.621233,37.4665064 153.059261,37.0285887 153.609198,36.8144839 L154.375,33.2416415 L155.140802,36.8144839 C155.690739,37.0285887 156.128767,37.4665064 156.342926,38.016306 L159.916667,38.7819151 L156.342926,39.5475242 L156.342926,39.5475242 Z M108.842926,26.0925741 C108.628767,26.6423737 108.190739,27.0802914 107.640802,27.2943962 L106.875,30.8672386 L106.109198,27.2943962 C105.559261,27.0802914 105.121233,26.6423737 104.907074,26.0925741 L101.333333,25.326965 L104.907074,24.5613559 C105.121233,24.0115562 105.559261,23.5736385 106.109198,23.3595338 L106.875,19.7866914 L107.640802,23.3595338 C108.190739,23.5736385 108.628767,24.0115562 108.842926,24.5613559 L112.416667,25.326965 L108.842926,26.0925741 L108.842926,26.0925741 Z M142.092926,6.30588267 C141.878767,6.85568233 141.440739,7.29360002 140.890802,7.50770479 L140.125,11.0805472 L139.359198,7.50770479 C138.809261,7.29360002 138.371233,6.85568233 138.157074,6.30588267 L134.583333,5.54027359 L138.157074,4.7746645 C138.371233,4.22486485 138.809261,3.78694716 139.359198,3.57284239 L140.125,0 L140.890802,3.57284239 C141.440739,3.78694716 141.878767,4.22486485 142.092926,4.7746645 L145.666667,5.54027359 L142.092926,6.30588267 L142.092926,6.30588267 Z"/>
      <path d="M142.092926,6.30588267 C141.878767,6.85568233 141.440739,7.29360002 140.890802,7.50770479 L140.125,11.0805472 L139.359198,7.50770479 C138.809261,7.29360002 138.371233,6.85568233 138.157074,6.30588267 L134.583333,5.54027359 L138.157074,4.7746645 C138.371233,4.22486485 138.809261,3.78694716 139.359198,3.57284239 L140.125,0 L140.890802,3.57284239 C141.440739,3.78694716 141.878767,4.22486485 142.092926,4.7746645 L145.666667,5.54027359 L142.092926,6.30588267 L142.092926,6.30588267 Z"/>
    </g>
  </g>
</svg>
