<svg xmlns="http://www.w3.org/2000/svg" width="1140" height="516" viewBox="0 0 1140 516" xmlns:xlink="http://www.w3.org/1999/xlink">
  <defs>
    <linearGradient id="b" x1="50%" x2="50%" y1="0%" y2="100%">
      <stop stop-color="#FFFFFF" offset="0%"/>
      <stop stop-color="#000000" offset="100%"/>
    </linearGradient>
    <path id="a" d="M9.06026911e-05,816.976118 L49.0110757,821.810864 L91.2088746,850.599579 L147.912167,885.321845 L182.197878,886.860173 L213.186887,870.378085 L260.659411,867.740951 L301.978089,852.357668 L388.791268,860.269071 L450.549505,894.551815 L511.648402,888.618263 L543.076971,906.858441 L604.835207,879.168532 L639.340699,878.069726 L709.011023,849.281012 L759.34069,854.994802 L794.065962,879.168532 L859.560462,840.710325 L931.428588,833.018684 L1009.67034,848.841489 L1040.65935,817.855163 L1112.30769,799.834746 L1140,795 L1140,1311 L0,1311 L9.06026911e-05,816.976118 Z"/>
  </defs>
  <g fill="none" fill-rule="evenodd" transform="matrix(-1 0 0 1 1140 -795)">
    <use fill="#CECED2" xlink:href="#a"/>
    <use fill="url(#b)" fill-opacity=".7" xlink:href="#a"/>
  </g>
</svg>
