<svg xmlns="http://www.w3.org/2000/svg" width="1140" height="1402" viewBox="0 0 1140 1402" xmlns:xlink="http://www.w3.org/1999/xlink">
  <defs>
    <linearGradient id="b" x1="50%" x2="50%" y1="-5.251%" y2="41.402%">
      <stop stop-color="#FFFFFF" offset="0%"/>
      <stop stop-color="#000000" offset="100%"/>
    </linearGradient>
    <path id="a" d="M9.0602691e-05,21.976118 L49.0110757,26.810864 L91.2088746,55.5995786 L147.912167,90.3218451 L182.197878,91.8601733 L213.186887,75.3780848 L260.659411,72.7409507 L301.978089,57.357668 L388.791268,65.2690705 L450.549505,99.5518147 L511.648402,93.6182628 L543.076971,111.858441 L604.835207,84.168532 L639.340699,83.0697261 L709.011023,54.2810115 L759.34069,59.9948022 L794.065962,84.168532 L859.560462,45.7103255 L931.428588,38.0186842 L1009.67034,53.8414892 L1040.65935,22.8551627 L1112.30769,4.83474597 L1140,-7.95807864e-13 L1140,1401.5 L-2.27373675e-13,1401.5 L9.0602691e-05,21.976118 Z"/>
  </defs>
  <g fill="none" fill-rule="evenodd">
    <g transform="matrix(-1 0 0 1 1140 0)">
      <use fill="#CECED2" xlink:href="#a"/>
      <use fill="url(#b)" fill-opacity=".7" xlink:href="#a"/>
    </g>
    <polygon fill="#999999" fill-opacity=".2" points="242 46 278.5 48 289.5 55.5 281 55 260.5 54 239 49.5"/>
    <polygon fill="#999999" fill-opacity=".2" points="471.5 86 475 75.5 500 85 534.5 86 550 93 571.5 108.5 533 89.5 492.5 90.5 447.5 93 461 86.5"/>
    <polygon fill="#999999" fill-opacity=".2" points="574.5 106 596.5 114 631 97 685 103.5 701.5 101 711 106 675.951 109.204 644.5 103.5 623.5 114 579 122"/>
    <polygon fill="#999999" fill-opacity=".2" points="548.5 99 566.5 109.5 576.5 120 565.5 116.5"/>
    <path fill="#999999" fill-opacity=".2" d="M453,95 C453,95 528.5,90.5 535.5,95 C542.5,99.5 548.5,106.5 548.5,106.5 L518.5,105 L453,95 Z"/>
    <polygon fill="#999999" fill-opacity=".2" points="413 78 449 77 452.5 85.5 409 82.5"/>
    <polygon fill="#999999" fill-opacity=".2" points="722 88 751.5 70 790 65 742 81.5 722 105"/>
    <path fill="#999999" fill-opacity=".2" d="M796,64 L836.5,60.5 L867,71 C867,71 841.220258,65.75 827.5,65.75 C817.553591,65.75 796,71 796,71 L796,64 Z"/>
    <polygon fill="#999999" fill-opacity=".2" points="885 74 925.5 77.5 936 83 914 79.5 900.5 81"/>
    <polygon fill="#999999" fill-opacity=".2" points="1044.5 59.5 1095.5 28.5 1140 25.5 1137.5 31.5 1099 33.5 1094.5 39.5 1030.5 70"/>
    <polygon fill="#999999" fill-opacity=".2" points="1013.5 80 1029 70 1043.5 73 999 90"/>
    <path fill="#999999" fill-opacity=".2" d="M143,75.7021277 L160.376443,61.1382979 L213.295612,54.0531915 L236.595843,45 C236.595843,45 256.882006,47.0035044 267.004619,47.3617021 C279.129119,47.7907384 300.572748,48.5425532 300.572748,48.5425532 L314,82 L257.526559,64.287234 L143,75.7021277 Z" transform="matrix(-1 0 0 1 457 0)"/>
    <path fill="#999999" fill-opacity=".2" d="M6,6 L69.8139535,21.657754 L102.372093,38.2941176 L132.5,58 L117.5,69.5 C117.5,69.5 92.3131376,44.4395815 75.5,46 C51.9798043,48.182897 21.5,23.5 21.5,23.5 L0,18.5 L6,6 Z"/>
    <polygon fill="#999999" fill-opacity=".2" points="375 68 430 57 400 74 355 84.5"/>
    <polygon fill="#999999" fill-opacity=".2" points="433 59 456 68 472.5 75 456 88 453 72.5 434.5 71.5 406 77.5"/>
    <polygon fill="#999999" fill-opacity=".2" points="314 68 331 78 344.5 86 331 86 316.5 76"/>
  </g>
</svg>
