<svg xmlns="http://www.w3.org/2000/svg" width="1140" height="2161" viewBox="0 0 1140 2161" xmlns:xlink="http://www.w3.org/1999/xlink">
  <defs>
    <linearGradient id="b" x1="50%" x2="50%" y1="0%" y2="100%">
      <stop stop-color="#FFFFFF" offset="0%"/>
      <stop stop-color="#000000" offset="100%"/>
    </linearGradient>
    <path id="a" d="M1140,2932 L1140,2933 L-3.63797881e-12,2933 L-9.06026971e-05,772 L1139.99991,772 L1140,2932 L1139.99991,795 L1112.3076,799.834746 L1040.65926,817.855163 L1009.67025,848.841489 L931.428497,833.018684 L859.560371,840.710325 L794.065871,879.168532 L759.340599,854.994802 L709.010933,849.281012 L639.340609,878.069726 L604.835117,879.168532 L543.07688,906.858441 L511.648311,888.618263 L450.549415,894.551815 L388.791178,860.269071 L301.977998,852.357668 L260.65932,867.740951 L213.186796,870.378085 L182.197788,886.860173 L147.912076,885.321845 L91.208784,850.599579 L49.0109851,821.810864 L-3.41060513e-12,816.976118 L-3.63797881e-12,2932 L1140,2932 Z"/>
  </defs>
  <g fill="none" fill-rule="evenodd" transform="matrix(-1 0 0 1 1140 -772)">
    <use fill="#CECED2" xlink:href="#a"/>
    <use fill="url(#b)" fill-opacity=".7" xlink:href="#a"/>
  </g>
</svg>
