<svg xmlns="http://www.w3.org/2000/svg" width="73" height="73" viewBox="0 0 73 73">
  <g fill="none" fill-rule="evenodd">
    <path fill="#D15419" d="M62.6160714,14.9345238 C62.6160714,13.7564425 62.2037492,12.7550884 61.3790923,11.9304315 C60.5544354,11.1057746 59.5530813,10.6934524 58.375,10.6934524 C57.1969187,10.6934524 56.1955646,11.1057746 55.3709077,11.9304315 C54.5462508,12.7550884 54.1339286,13.7564425 54.1339286,14.9345238 C54.1339286,16.1126051 54.5462508,17.1139592 55.3709077,17.9386161 C56.1955646,18.763273 57.1969187,19.1755952 58.375,19.1755952 C59.5530813,19.1755952 60.5544354,18.763273 61.3790923,17.9386161 C62.2037492,17.1139592 62.6160714,16.1126051 62.6160714,14.9345238 L62.6160714,14.9345238 Z M72.5119048,2.21130952 C72.5119048,9.54486554 71.4001072,15.8843204 69.1764788,21.2298642 C66.9528504,26.5754081 63.2198613,31.8840572 57.9773996,37.155971 C55.5917849,39.5121336 52.7202549,42.1038735 49.3627232,44.9312686 L48.4791667,61.6746652 C48.4202626,62.1458977 48.1846499,62.5287684 47.7723214,62.8232887 L30.8080357,72.719122 C30.6018715,72.8369302 30.3662588,72.8958333 30.1011905,72.8958333 C29.7477661,72.8958333 29.4090728,72.7633012 29.0851004,72.4982329 L26.2577195,69.6708519 C25.8748431,69.2585235 25.7570367,68.787298 25.9042969,68.2571615 L29.6594122,56.0640811 L17.2454427,43.6501116 L5.05236235,47.4052269 C4.96400625,47.434679 4.8314741,47.4494048 4.6547619,47.4494048 C4.24243345,47.4494048 3.90374016,47.3168726 3.63867187,47.0518043 L0.811290923,44.2244234 C0.310606376,43.6648348 0.2369774,43.0905287 0.590401786,42.5014881 L10.4862351,25.5372024 C10.7807554,25.1248739 11.1636261,24.8892612 11.6348586,24.8303571 L28.3782552,23.9468006 C31.2056503,20.5892689 33.7973903,17.7177389 36.1535528,15.3321243 C41.6905349,9.82459424 46.9623696,6.02533908 51.969215,3.93424479 C56.9760605,1.84315051 63.3228782,0.797619048 71.0098586,0.797619048 C71.4221871,0.797619048 71.7756062,0.937514102 72.0701265,1.21730841 C72.3646468,1.49710271 72.5119048,1.82843311 72.5119048,2.21130952 L72.5119048,2.21130952 Z"/>
    <polygon fill="#334659" points="33.5 18 56.5 38.5 54 41 31 21"/>
    <polygon fill="#334659" points="37.5 14 60.5 34.5 58 37.5 34.5 17"/>
    <path fill="#FEE94E" d="M2,73 C6.97056275,73 23,66.4705627 23,61.5 C27.5,58 24.4705627,50 19.5,50 C14.5294373,50 3,54.0294373 3,59 C3,63.9705627 -2.97056275,73 2,73 Z"/>
    <path fill="#FF2D55" d="M6.17775303,69 C9.13933563,69 18.6900656,65.0255599 18.6900656,62 C21.3712754,59.8695652 19.5662628,55 16.6046802,55 C13.6430976,55 6.77357743,57.4527009 6.77357743,60.4782609 C6.77357743,63.5038208 3.21617042,69 6.17775303,69 Z"/>
    <path fill="#FEE94E" d="M10.4711012,65 C11.6557343,65 15.4760262,63.2966685 15.4760262,62 C16.5485102,61.0869565 15.8265051,59 14.6418721,59 C13.457239,59 10.709431,60.0511575 10.709431,61.3478261 C10.709431,62.6444946 9.28646817,65 10.4711012,65 Z"/>
  </g>
</svg>
