<svg xmlns="http://www.w3.org/2000/svg" width="2416" height="1843" viewBox="0 0 2416 1843">
  <defs>
    <linearGradient id="a" x1="46.261%" x2="46.261%" y1="44.739%" y2="100%">
      <stop stop-color="#3C3891" offset="0%"/>
      <stop stop-color="#53A0FE" offset="100%"/>
      <stop stop-color="#B4ED50" offset="100%"/>
    </linearGradient>
  </defs>
  <g fill="none" fill-rule="evenodd" transform="translate(-88)">
    <rect width="2592" height="1843" fill="url(#a)"/>
    <path fill="#FFFFFF" d="M549.823326,388.581405 C548.362539,392.332153 545.374728,395.319639 541.623573,396.780268 L536.4,421.154297 L531.176427,396.780268 C527.425272,395.319639 524.437461,392.332153 522.976674,388.581405 L498.6,383.358398 L522.976674,378.135392 C524.437461,374.384644 527.425272,371.397157 531.176427,369.936529 L536.4,345.5625 L541.623573,369.936529 C545.374728,371.397157 548.362539,374.384644 549.823326,378.135392 L574.2,383.358398 L549.823326,388.581405 Z"/>
    <g fill="#FFFFFF" transform="translate(1117.8 143.984)">
      <path d="M17.074442 14.3396349C16.587513 15.5898843 15.5915761 16.5857131 14.341191 17.0725894L12.6 25.1972656 10.858809 17.0725894C9.60842389 16.5857131 8.61248699 15.5898843 8.12555795 14.3396349L.27373675e-13 12.5986328 8.12555795 10.8576308C8.61248699 9.60738131 9.60842389 8.61155248 10.858809 8.12467627L12.6 0 14.341191 8.12467627C15.5915761 8.61155248 16.587513 9.60738131 17.074442 10.8576308L25.2 12.5986328 17.074442 14.3396349zM144.874442 14.3396349C144.387513 15.5898843 143.391576 16.5857131 142.141191 17.0725894L140.4 25.1972656 138.658809 17.0725894C137.408424 16.5857131 136.412487 15.5898843 135.925558 14.3396349L127.8 12.5986328 135.925558 10.8576308C136.412487 9.60738131 137.408424 8.61155248 138.658809 8.12467627L140.4 0 142.141191 8.12467627C143.391576 8.61155248 144.387513 9.60738131 144.874442 10.8576308L153 12.5986328 144.874442 14.3396349zM240.274442 14.3396349C239.787513 15.5898843 238.791576 16.5857131 237.541191 17.0725894L235.8 25.1972656 234.058809 17.0725894C232.808424 16.5857131 231.812487 15.5898843 231.325558 14.3396349L223.2 12.5986328 231.325558 10.8576308C231.812487 9.60738131 232.808424 8.61155248 234.058809 8.12467627L235.8 0 237.541191 8.12467627C238.791576 8.61155248 239.787513 9.60738131 240.274442 10.8576308L248.4 12.5986328 240.274442 14.3396349z"/>
    </g>
    <g fill="#FFFFFF" transform="translate(187.2 12.599)">
      <path d="M84.137221 73.7625909C83.8937565 74.3877156 83.3957881 74.88563 82.7705955 75.1290681L81.9 79.1914063 81.0294045 75.1290681C80.4042119 74.88563 79.9062435 74.3877156 79.662779 73.7625909L75.6 72.8920898 79.662779 72.0215888C79.9062435 71.3964641 80.4042119 70.8985497 81.0294045 70.6551116L81.9 66.5927734 82.7705955 70.6551116C83.3957881 70.8985497 83.8937565 71.3964641 84.137221 72.0215888L88.2 72.8920898 84.137221 73.7625909zM44.537221 104.359271C44.2937565 104.984395 43.7957881 105.48231 43.1705955 105.725748L42.3 109.788086 41.4294045 105.725748C40.8042119 105.48231 40.3062435 104.984395 40.062779 104.359271L36 103.48877 40.062779 102.618269C40.3062435 101.993144 40.8042119 101.495229 41.4294045 101.251791L42.3 97.1894531 43.1705955 101.251791C43.7957881 101.495229 44.2937565 101.993144 44.537221 102.618269L48.6 103.48877 44.537221 104.359271zM8.53722102 52.1649346C8.2937565 52.7900593 7.79578806 53.2879738 7.17059549 53.5314119L6.3 57.59375 5.42940451 53.5314119C4.80421194 53.2879738 4.3062435 52.7900593 4.06277898 52.1649346L0 51.2944336 4.06277898 50.4239326C4.3062435 49.7988078 4.80421194 49.3008934 5.42940451 49.0574553L6.3 44.9951172 7.17059549 49.0574553C7.79578806 49.3008934 8.2937565 49.7988078 8.53722102 50.4239326L12.6 51.2944336 8.53722102 52.1649346zM91.337221 116.957903C91.0937565 117.583028 90.5957881 118.080943 89.9705955 118.324381L89.1 122.386719 88.2294045 118.324381C87.6042119 118.080943 87.1062435 117.583028 86.862779 116.957903L82.8 116.087402 86.862779 115.216901C87.1062435 114.591777 87.6042119 114.093862 88.2294045 113.850424L89.1 109.788086 89.9705955 113.850424C90.5957881 114.093862 91.0937565 114.591777 91.337221 115.216901L95.4 116.087402 91.337221 116.957903zM148.937221 86.3612237C148.693757 86.9863484 148.195788 87.4842628 147.570595 87.7277009L146.7 91.7900391 145.829405 87.7277009C145.204212 87.4842628 144.706243 86.9863484 144.462779 86.3612237L140.4 85.4907227 144.462779 84.6202216C144.706243 83.9950969 145.204212 83.4971825 145.829405 83.2537444L146.7 79.1914062 147.570595 83.2537444C148.195788 83.4971825 148.693757 83.9950969 148.937221 84.6202216L153 85.4907227 148.937221 86.3612237zM184.937221 39.5663018C184.693757 40.1914265 184.195788 40.6893409 183.570595 40.9327791L182.7 44.9951172 181.829405 40.9327791C181.204212 40.6893409 180.706243 40.1914265 180.462779 39.5663018L176.4 38.6958008 180.462779 37.8252998C180.706243 37.200175 181.204212 36.7022606 181.829405 36.4588225L182.7 32.3964844 183.570595 36.4588225C184.195788 36.7022606 184.693757 37.200175 184.937221 37.8252998L189 38.6958008 184.937221 39.5663018zM219.137221 104.359271C218.893757 104.984395 218.395788 105.48231 217.770595 105.725748L216.9 109.788086 216.029405 105.725748C215.404212 105.48231 214.906243 104.984395 214.662779 104.359271L210.6 103.48877 214.662779 102.618269C214.906243 101.993144 215.404212 101.495229 216.029405 101.251791L216.9 97.1894531 217.770595 101.251791C218.395788 101.495229 218.893757 101.993144 219.137221 102.618269L223.2 103.48877 219.137221 104.359271zM231.737221 73.7625909C231.493757 74.3877156 230.995788 74.88563 230.370595 75.1290681L229.5 79.1914063 228.629405 75.1290681C228.004212 74.88563 227.506243 74.3877156 227.262779 73.7625909L223.2 72.8920898 227.262779 72.0215888C227.506243 71.3964641 228.004212 70.8985497 228.629405 70.6551116L229.5 66.5927734 230.370595 70.6551116C230.995788 70.8985497 231.493757 71.3964641 231.737221 72.0215888L235.8 72.8920898 231.737221 73.7625909zM319.937221 44.9657159C319.693757 45.5908406 319.195788 46.088755 318.570595 46.3321931L317.7 50.3945313 316.829405 46.3321931C316.204212 46.088755 315.706243 45.5908406 315.462779 44.9657159L311.4 44.0952148 315.462779 43.2247138C315.706243 42.5995891 316.204212 42.1016747 316.829405 41.8582366L317.7 37.7958984 318.570595 41.8582366C319.195788 42.1016747 319.693757 42.5995891 319.937221 43.2247138L324 44.0952148 319.937221 44.9657159z"/>
      <path d="M319.937221 44.9657159C319.693757 45.5908406 319.195788 46.088755 318.570595 46.3321931L317.7 50.3945313 316.829405 46.3321931C316.204212 46.088755 315.706243 45.5908406 315.462779 44.9657159L311.4 44.0952148 315.462779 43.2247138C315.706243 42.5995891 316.204212 42.1016747 316.829405 41.8582366L317.7 37.7958984 318.570595 41.8582366C319.195788 42.1016747 319.693757 42.5995891 319.937221 43.2247138L324 44.0952148 319.937221 44.9657159zM364.937221 120.557513C364.693757 121.182637 364.195788 121.680552 363.570595 121.92399L362.7 125.986328 361.829405 121.92399C361.204212 121.680552 360.706243 121.182637 360.462779 120.557513L356.4 119.687012 360.462779 118.816511C360.706243 118.191386 361.204212 117.693472 361.829405 117.450033L362.7 113.387695 363.570595 117.450033C364.195788 117.693472 364.693757 118.191386 364.937221 118.816511L369 119.687012 364.937221 120.557513zM325.337221 151.154192C325.093757 151.779317 324.595788 152.277232 323.970595 152.52067L323.1 156.583008 322.229405 152.52067C321.604212 152.277232 321.106243 151.779317 320.862779 151.154192L316.8 150.283691 320.862779 149.41319C321.106243 148.788066 321.604212 148.290151 322.229405 148.046713L323.1 143.984375 323.970595 148.046713C324.595788 148.290151 325.093757 148.788066 325.337221 149.41319L329.4 150.283691 325.337221 151.154192zM289.337221 98.9598565C289.093757 99.5849812 288.595788 100.082896 287.970595 100.326334L287.1 104.388672 286.229405 100.326334C285.604212 100.082896 285.106243 99.5849812 284.862779 98.9598565L280.8 98.0893555 284.862779 97.2188544C285.106243 96.5937297 285.604212 96.0958153 286.229405 95.8523772L287.1 91.7900391 287.970595 95.8523772C288.595788 96.0958153 289.093757 96.5937297 289.337221 97.2188544L293.4 98.0893555 289.337221 98.9598565zM372.137221 163.752825C371.893757 164.37795 371.395788 164.875864 370.770595 165.119302L369.9 169.181641 369.029405 165.119302C368.404212 164.875864 367.906243 164.37795 367.662779 163.752825L363.6 162.882324 367.662779 162.011823C367.906243 161.386698 368.404212 160.888784 369.029405 160.645346L369.9 156.583008 370.770595 160.645346C371.395788 160.888784 371.893757 161.386698 372.137221 162.011823L376.2 162.882324 372.137221 163.752825zM429.737221 133.156146C429.493757 133.78127 428.995788 134.279185 428.370595 134.522623L427.5 138.584961 426.629405 134.522623C426.004212 134.279185 425.506243 133.78127 425.262779 133.156146L421.2 132.285645 425.262779 131.415144C425.506243 130.790019 426.004212 130.292104 426.629405 130.048666L427.5 125.986328 428.370595 130.048666C428.995788 130.292104 429.493757 130.790019 429.737221 131.415144L433.8 132.285645 429.737221 133.156146zM465.737221 86.3612237C465.493757 86.9863484 464.995788 87.4842628 464.370595 87.7277009L463.5 91.7900391 462.629405 87.7277009C462.004212 87.4842628 461.506243 86.9863484 461.262779 86.3612237L457.2 85.4907227 461.262779 84.6202216C461.506243 83.9950969 462.004212 83.4971825 462.629405 83.2537444L463.5 79.1914062 464.370595 83.2537444C464.995788 83.4971825 465.493757 83.9950969 465.737221 84.6202216L469.8 85.4907227 465.737221 86.3612237zM499.937221 151.154192C499.693757 151.779317 499.195788 152.277232 498.570595 152.52067L497.7 156.583008 496.829405 152.52067C496.204212 152.277232 495.706243 151.779317 495.462779 151.154192L491.4 150.283691 495.462779 149.41319C495.706243 148.788066 496.204212 148.290151 496.829405 148.046713L497.7 143.984375 498.570595 148.046713C499.195788 148.290151 499.693757 148.788066 499.937221 149.41319L504 150.283691 499.937221 151.154192zM512.537221 120.557513C512.293757 121.182637 511.795788 121.680552 511.170595 121.92399L510.3 125.986328 509.429405 121.92399C508.804212 121.680552 508.306243 121.182637 508.062779 120.557513L504 119.687012 508.062779 118.816511C508.306243 118.191386 508.804212 117.693472 509.429405 117.450033L510.3 113.387695 511.170595 117.450033C511.795788 117.693472 512.293757 118.191386 512.537221 118.816511L516.6 119.687012 512.537221 120.557513zM600.737221 91.7606377C600.493757 92.3857625 599.995788 92.8836769 599.370595 93.127115L598.5 97.1894531 597.629405 93.127115C597.004212 92.8836769 596.506243 92.3857625 596.262779 91.7606377L592.2 90.8901367 596.262779 90.0196357C596.506243 89.394511 597.004212 88.8965966 597.629405 88.6531584L598.5 84.5908203 599.370595 88.6531584C599.995788 88.8965966 600.493757 89.394511 600.737221 90.0196357L604.8 90.8901367 600.737221 91.7606377z"/>
      <path d="M600.737221 91.7606377C600.493757 92.3857625 599.995788 92.8836769 599.370595 93.127115L598.5 97.1894531 597.629405 93.127115C597.004212 92.8836769 596.506243 92.3857625 596.262779 91.7606377L592.2 90.8901367 596.262779 90.0196357C596.506243 89.394511 597.004212 88.8965966 597.629405 88.6531584L598.5 84.5908203 599.370595 88.6531584C599.995788 88.8965966 600.493757 89.394511 600.737221 90.0196357L604.8 90.8901367 600.737221 91.7606377zM541.337221 53.9647393C541.093757 54.589864 540.595788 55.0877784 539.970595 55.3312166L539.1 59.3935547 538.229405 55.3312166C537.604212 55.0877784 537.106243 54.589864 536.862779 53.9647393L532.8 53.0942383 536.862779 52.2237373C537.106243 51.5986125 537.604212 51.1006981 538.229405 50.85726L539.1 46.7949219 539.970595 50.85726C540.595788 51.1006981 541.093757 51.5986125 541.337221 52.2237373L545.4 53.0942383 541.337221 53.9647393zM501.737221 84.561419C501.493757 85.1865437 500.995788 85.6844581 500.370595 85.9278962L499.5 89.9902344 498.629405 85.9278962C498.004212 85.6844581 497.506243 85.1865437 497.262779 84.561419L493.2 83.690918 497.262779 82.8204169C497.506243 82.1952922 498.004212 81.6973778 498.629405 81.4539397L499.5 77.3916016 500.370595 81.4539397C500.995788 81.6973778 501.493757 82.1952922 501.737221 82.8204169L505.8 83.690918 501.737221 84.561419zM465.737221 32.3670831C465.493757 32.9922078 464.995788 33.4901222 464.370595 33.7335603L463.5 37.7958984 462.629405 33.7335603C462.004212 33.4901222 461.506243 32.9922078 461.262779 32.3670831L457.2 31.496582 461.262779 30.626081C461.506243 30.0009563 462.004212 29.5030419 462.629405 29.2596038L463.5 25.1972656 464.370595 29.2596038C464.995788 29.5030419 465.493757 30.0009563 465.737221 30.626081L469.8 31.496582 465.737221 32.3670831zM548.537221 97.1600518C548.293757 97.7851765 547.795788 98.2830909 547.170595 98.5265291L546.3 102.588867 545.429405 98.5265291C544.804212 98.2830909 544.306243 97.7851765 544.062779 97.1600518L540 96.2895508 544.062779 95.4190498C544.306243 94.793925 544.804212 94.2960106 545.429405 94.0525725L546.3 89.9902344 547.170595 94.0525725C547.795788 94.2960106 548.293757 94.793925 548.537221 95.4190498L552.6 96.2895508 548.537221 97.1600518zM606.137221 66.5633721C605.893757 67.1884968 605.395788 67.6864113 604.770595 67.9298494L603.9 71.9921875 603.029405 67.9298494C602.404212 67.6864113 601.906243 67.1884968 601.662779 66.5633721L597.6 65.6928711 601.662779 64.8223701C601.906243 64.1972453 602.404212 63.6993309 603.029405 63.4558928L603.9 59.3935547 604.770595 63.4558928C605.395788 63.6993309 605.893757 64.1972453 606.137221 64.8223701L610.2 65.6928711 606.137221 66.5633721zM642.137221 19.7684502C641.893757 20.393575 641.395788 20.8914894 640.770595 21.1349275L639.9 25.1972656 639.029405 21.1349275C638.404212 20.8914894 637.906243 20.393575 637.662779 19.7684502L633.6 18.8979492 637.662779 18.0274482C637.906243 17.4023235 638.404212 16.9044091 639.029405 16.6609709L639.9 12.5986328 640.770595 16.6609709C641.395788 16.9044091 641.893757 17.4023235 642.137221 18.0274482L646.2 18.8979492 642.137221 19.7684502zM676.337221 84.561419C676.093757 85.1865437 675.595788 85.6844581 674.970595 85.9278962L674.1 89.9902344 673.229405 85.9278962C672.604212 85.6844581 672.106243 85.1865437 671.862779 84.561419L667.8 83.690918 671.862779 82.8204169C672.106243 82.1952922 672.604212 81.6973778 673.229405 81.4539397L674.1 77.3916016 674.970595 81.4539397C675.595788 81.6973778 676.093757 82.1952922 676.337221 82.8204169L680.4 83.690918 676.337221 84.561419zM688.937221 53.9647393C688.693757 54.589864 688.195788 55.0877784 687.570595 55.3312166L686.7 59.3935547 685.829405 55.3312166C685.204212 55.0877784 684.706243 54.589864 684.462779 53.9647393L680.4 53.0942383 684.462779 52.2237373C684.706243 51.5986125 685.204212 51.1006981 685.829405 50.85726L686.7 46.7949219 687.570595 50.85726C688.195788 51.1006981 688.693757 51.5986125 688.937221 52.2237373L693 53.0942383 688.937221 53.9647393zM777.137221 25.1678643C776.893757 25.792989 776.395788 26.2909034 775.770595 26.5343416L774.9 30.5966797 774.029405 26.5343416C773.404212 26.2909034 772.906243 25.792989 772.662779 25.1678643L768.6 24.2973633 772.662779 23.4268623C772.906243 22.8017375 773.404212 22.3038231 774.029405 22.060385L774.9 17.9980469 775.770595 22.060385C776.395788 22.3038231 776.893757 22.8017375 777.137221 23.4268623L781.2 24.2973633 777.137221 25.1678643z"/>
      <path d="M777.137221 25.1678643C776.893757 25.792989 776.395788 26.2909034 775.770595 26.5343416L774.9 30.5966797 774.029405 26.5343416C773.404212 26.2909034 772.906243 25.792989 772.662779 25.1678643L768.6 24.2973633 772.662779 23.4268623C772.906243 22.8017375 773.404212 22.3038231 774.029405 22.060385L774.9 17.9980469 775.770595 22.060385C776.395788 22.3038231 776.893757 22.8017375 777.137221 23.4268623L781.2 24.2973633 777.137221 25.1678643zM715.937221 129.556536C715.693757 130.181661 715.195788 130.679575 714.570595 130.923013L713.7 134.985352 712.829405 130.923013C712.204212 130.679575 711.706243 130.181661 711.462779 129.556536L707.4 128.686035 711.462779 127.815534C711.706243 127.190409 712.204212 126.692495 712.829405 126.449057L713.7 122.386719 714.570595 126.449057C715.195788 126.692495 715.693757 127.190409 715.937221 127.815534L720 128.686035 715.937221 129.556536zM676.337221 160.153216C676.093757 160.778341 675.595788 161.276255 674.970595 161.519693L674.1 165.582031 673.229405 161.519693C672.604212 161.276255 672.106243 160.778341 671.862779 160.153216L667.8 159.282715 671.862779 158.412214C672.106243 157.787089 672.604212 157.289175 673.229405 157.045737L674.1 152.983398 674.970595 157.045737C675.595788 157.289175 676.093757 157.787089 676.337221 158.412214L680.4 159.282715 676.337221 160.153216zM640.337221 107.95888C640.093757 108.584005 639.595788 109.081919 638.970595 109.325357L638.1 113.387695 637.229405 109.325357C636.604212 109.081919 636.106243 108.584005 635.862779 107.95888L631.8 107.088379 635.862779 106.217878C636.106243 105.592753 636.604212 105.094839 637.229405 104.851401L638.1 100.789062 638.970595 104.851401C639.595788 105.094839 640.093757 105.592753 640.337221 106.217878L644.4 107.088379 640.337221 107.95888zM723.137221 172.751849C722.893757 173.376973 722.395788 173.874888 721.770595 174.118326L720.9 178.180664 720.029405 174.118326C719.404212 173.874888 718.906243 173.376973 718.662779 172.751849L714.6 171.881348 718.662779 171.010847C718.906243 170.385722 719.404212 169.887807 720.029405 169.644369L720.9 165.582031 721.770595 169.644369C722.395788 169.887807 722.893757 170.385722 723.137221 171.010847L727.2 171.881348 723.137221 172.751849zM780.737221 142.155169C780.493757 142.780294 779.995788 143.278208 779.370595 143.521646L778.5 147.583984 777.629405 143.521646C777.004212 143.278208 776.506243 142.780294 776.262779 142.155169L772.2 141.284668 776.262779 140.414167C776.506243 139.789042 777.004212 139.291128 777.629405 139.04769L778.5 134.985352 779.370595 139.04769C779.995788 139.291128 780.493757 139.789042 780.737221 140.414167L784.8 141.284668 780.737221 142.155169zM816.737221 95.3602471C816.493757 95.9853718 815.995788 96.4832863 815.370595 96.7267244L814.5 100.789063 813.629405 96.7267244C813.004212 96.4832863 812.506243 95.9853718 812.262779 95.3602471L808.2 94.4897461 812.262779 93.6192451C812.506243 92.9941203 813.004212 92.4962059 813.629405 92.2527678L814.5 88.1904297 815.370595 92.2527678C815.995788 92.4962059 816.493757 92.9941203 816.737221 93.6192451L820.8 94.4897461 816.737221 95.3602471zM850.937221 160.153216C850.693757 160.778341 850.195788 161.276255 849.570595 161.519693L848.7 165.582031 847.829405 161.519693C847.204212 161.276255 846.706243 160.778341 846.462779 160.153216L842.4 159.282715 846.462779 158.412214C846.706243 157.787089 847.204212 157.289175 847.829405 157.045737L848.7 152.983398 849.570595 157.045737C850.195788 157.289175 850.693757 157.787089 850.937221 158.412214L855 159.282715 850.937221 160.153216zM863.537221 129.556536C863.293757 130.181661 862.795788 130.679575 862.170595 130.923013L861.3 134.985352 860.429405 130.923013C859.804212 130.679575 859.306243 130.181661 859.062779 129.556536L855 128.686035 859.062779 127.815534C859.306243 127.190409 859.804212 126.692495 860.429405 126.449057L861.3 122.386719 862.170595 126.449057C862.795788 126.692495 863.293757 127.190409 863.537221 127.815534L867.6 128.686035 863.537221 129.556536zM951.737221 100.759661C951.493757 101.384786 950.995788 101.8827 950.370595 102.126138L949.5 106.188477 948.629405 102.126138C948.004212 101.8827 947.506243 101.384786 947.262779 100.759661L943.2 99.8891602 947.262779 99.0186591C947.506243 98.3935344 948.004212 97.89562 948.629405 97.6521819L949.5 93.5898438 950.370595 97.6521819C950.995788 97.89562 951.493757 98.3935344 951.737221 99.0186591L955.8 99.8891602 951.737221 100.759661z"/>
      <path d="M951.737221 100.759661C951.493757 101.384786 950.995788 101.8827 950.370595 102.126138L949.5 106.188477 948.629405 102.126138C948.004212 101.8827 947.506243 101.384786 947.262779 100.759661L943.2 99.8891602 947.262779 99.0186591C947.506243 98.3935344 948.004212 97.89562 948.629405 97.6521819L949.5 93.5898438 950.370595 97.6521819C950.995788 97.89562 951.493757 98.3935344 951.737221 99.0186591L955.8 99.8891602 951.737221 100.759661zM980.537221 46.7655206C980.293757 47.3906453 979.795788 47.8885597 979.170595 48.1319978L978.3 52.1943359 977.429405 48.1319978C976.804212 47.8885597 976.306243 47.3906453 976.062779 46.7655206L972 45.8950195 976.062779 45.0245185C976.306243 44.3993938 976.804212 43.9014794 977.429405 43.6580413L978.3 39.5957031 979.170595 43.6580413C979.795788 43.9014794 980.293757 44.3993938 980.537221 45.0245185L984.6 45.8950195 980.537221 46.7655206zM940.937221 77.3622002C940.693757 77.987325 940.195788 78.4852394 939.570595 78.7286775L938.7 82.7910156 937.829405 78.7286775C937.204212 78.4852394 936.706243 77.987325 936.462779 77.3622002L932.4 76.4916992 936.462779 75.6211982C936.706243 74.9960735 937.204212 74.4981591 937.829405 74.2547209L938.7 70.1923828 939.570595 74.2547209C940.195788 74.4981591 940.693757 74.9960735 940.937221 75.6211982L945 76.4916992 940.937221 77.3622002zM904.937221 25.1678643C904.693757 25.792989 904.195788 26.2909034 903.570595 26.5343416L902.7 30.5966797 901.829405 26.5343416C901.204212 26.2909034 900.706243 25.792989 900.462779 25.1678643L896.4 24.2973633 900.462779 23.4268623C900.706243 22.8017375 901.204212 22.3038231 901.829405 22.060385L902.7 17.9980469 903.570595 22.060385C904.195788 22.3038231 904.693757 22.8017375 904.937221 23.4268623L909 24.2973633 904.937221 25.1678643zM987.737221 89.9608331C987.493757 90.5859578 986.995788 91.0838722 986.370595 91.3273103L985.5 95.3896484 984.629405 91.3273103C984.004212 91.0838722 983.506243 90.5859578 983.262779 89.9608331L979.2 89.090332 983.262779 88.219831C983.506243 87.5947063 984.004212 87.0967919 984.629405 86.8533538L985.5 82.7910156 986.370595 86.8533538C986.995788 87.0967919 987.493757 87.5947063 987.737221 88.219831L991.8 89.090332 987.737221 89.9608331zM1045.33722 59.3641534C1045.09376 59.9892781 1044.59579 60.4871925 1043.9706 60.7306306L1043.1 64.7929688 1042.2294 60.7306306C1041.60421 60.4871925 1041.10624 59.9892781 1040.86278 59.3641534L1036.8 58.4936523 1040.86278 57.6231513C1041.10624 56.9980266 1041.60421 56.5001122 1042.2294 56.2566741L1043.1 52.1943359 1043.9706 56.2566741C1044.59579 56.5001122 1045.09376 56.9980266 1045.33722 57.6231513L1049.4 58.4936523 1045.33722 59.3641534zM1081.33722 12.5692315C1081.09376 13.1943562 1080.59579 13.6922706 1079.9706 13.9357087L1079.1 17.9980469 1078.2294 13.9357087C1077.60421 13.6922706 1077.10624 13.1943562 1076.86278 12.5692315L1072.8 11.6987305 1076.86278 10.8282294C1077.10624 10.2031047 1077.60421 9.7051903 1078.2294 9.4617522L1079.1 5.39941406 1079.9706 9.4617522C1080.59579 9.7051903 1081.09376 10.2031047 1081.33722 10.8282294L1085.4 11.6987305 1081.33722 12.5692315zM1115.53722 77.3622002C1115.29376 77.987325 1114.79579 78.4852394 1114.1706 78.7286775L1113.3 82.7910156 1112.4294 78.7286775C1111.80421 78.4852394 1111.30624 77.987325 1111.06278 77.3622002L1107 76.4916992 1111.06278 75.6211982C1111.30624 74.9960735 1111.80421 74.4981591 1112.4294 74.2547209L1113.3 70.1923828 1114.1706 74.2547209C1114.79579 74.4981591 1115.29376 74.9960735 1115.53722 75.6211982L1119.6 76.4916992 1115.53722 77.3622002zM1128.13722 46.7655206C1127.89376 47.3906453 1127.39579 47.8885597 1126.7706 48.1319978L1125.9 52.1943359 1125.0294 48.1319978C1124.40421 47.8885597 1123.90624 47.3906453 1123.66278 46.7655206L1119.6 45.8950195 1123.66278 45.0245185C1123.90624 44.3993938 1124.40421 43.9014794 1125.0294 43.6580413L1125.9 39.5957031 1126.7706 43.6580413C1127.39579 43.9014794 1127.89376 44.3993938 1128.13722 45.0245185L1132.2 45.8950195 1128.13722 46.7655206zM1216.33722 17.9686456C1216.09376 18.5937703 1215.59579 19.0916847 1214.9706 19.3351228L1214.1 23.3974609 1213.2294 19.3351228C1212.60421 19.0916847 1212.10624 18.5937703 1211.86278 17.9686456L1207.8 17.0981445 1211.86278 16.2276435C1212.10624 15.6025188 1212.60421 15.1046044 1213.2294 14.8611663L1214.1 10.7988281 1214.9706 14.8611663C1215.59579 15.1046044 1216.09376 15.6025188 1216.33722 16.2276435L1220.4 17.0981445 1216.33722 17.9686456z"/>
      <path d="M1216.33722 17.9686456C1216.09376 18.5937703 1215.59579 19.0916847 1214.9706 19.3351228L1214.1 23.3974609 1213.2294 19.3351228C1212.60421 19.0916847 1212.10624 18.5937703 1211.86278 17.9686456L1207.8 17.0981445 1211.86278 16.2276435C1212.10624 15.6025188 1212.60421 15.1046044 1213.2294 14.8611663L1214.1 10.7988281 1214.9706 14.8611663C1215.59579 15.1046044 1216.09376 15.6025188 1216.33722 16.2276435L1220.4 17.0981445 1216.33722 17.9686456zM1263.13722 95.3602471C1262.89376 95.9853718 1262.39579 96.4832863 1261.7706 96.7267244L1260.9 100.789063 1260.0294 96.7267244C1259.40421 96.4832863 1258.90624 95.9853718 1258.66278 95.3602471L1254.6 94.4897461 1258.66278 93.6192451C1258.90624 92.9941203 1259.40421 92.4962059 1260.0294 92.2527678L1260.9 88.1904297 1261.7706 92.2527678C1262.39579 92.4962059 1262.89376 92.9941203 1263.13722 93.6192451L1267.2 94.4897461 1263.13722 95.3602471zM1223.53722 125.956927C1223.29376 126.582052 1222.79579 127.079966 1222.1706 127.323404L1221.3 131.385742 1220.4294 127.323404C1219.80421 127.079966 1219.30624 126.582052 1219.06278 125.956927L1215 125.086426 1219.06278 124.215925C1219.30624 123.5908 1219.80421 123.092886 1220.4294 122.849448L1221.3 118.787109 1222.1706 122.849448C1222.79579 123.092886 1223.29376 123.5908 1223.53722 124.215925L1227.6 125.086426 1223.53722 125.956927zM1187.53722 73.7625909C1187.29376 74.3877156 1186.79579 74.88563 1186.1706 75.1290681L1185.3 79.1914063 1184.4294 75.1290681C1183.80421 74.88563 1183.30624 74.3877156 1183.06278 73.7625909L1179 72.8920898 1183.06278 72.0215888C1183.30624 71.3964641 1183.80421 70.8985497 1184.4294 70.6551116L1185.3 66.5927734 1186.1706 70.6551116C1186.79579 70.8985497 1187.29376 71.3964641 1187.53722 72.0215888L1191.6 72.8920898 1187.53722 73.7625909zM1270.33722 138.55556C1270.09376 139.180684 1269.59579 139.678599 1268.9706 139.922037L1268.1 143.984375 1267.2294 139.922037C1266.60421 139.678599 1266.10624 139.180684 1265.86278 138.55556L1261.8 137.685059 1265.86278 136.814558C1266.10624 136.189433 1266.60421 135.691518 1267.2294 135.44808L1268.1 131.385742 1268.9706 135.44808C1269.59579 135.691518 1270.09376 136.189433 1270.33722 136.814558L1274.4 137.685059 1270.33722 138.55556zM1327.93722 107.95888C1327.69376 108.584005 1327.19579 109.081919 1326.5706 109.325357L1325.7 113.387695 1324.8294 109.325357C1324.20421 109.081919 1323.70624 108.584005 1323.46278 107.95888L1319.4 107.088379 1323.46278 106.217878C1323.70624 105.592753 1324.20421 105.094839 1324.8294 104.851401L1325.7 100.789062 1326.5706 104.851401C1327.19579 105.094839 1327.69376 105.592753 1327.93722 106.217878L1332 107.088379 1327.93722 107.95888zM1363.93722 61.1639581C1363.69376 61.7890828 1363.19579 62.2869972 1362.5706 62.5304353L1361.7 66.5927734 1360.8294 62.5304353C1360.20421 62.2869972 1359.70624 61.7890828 1359.46278 61.1639581L1355.4 60.293457 1359.46278 59.422956C1359.70624 58.7978313 1360.20421 58.2999169 1360.8294 58.0564788L1361.7 53.9941406 1362.5706 58.0564788C1363.19579 58.2999169 1363.69376 58.7978313 1363.93722 59.422956L1368 60.293457 1363.93722 61.1639581zM1398.13722 125.956927C1397.89376 126.582052 1397.39579 127.079966 1396.7706 127.323404L1395.9 131.385742 1395.0294 127.323404C1394.40421 127.079966 1393.90624 126.582052 1393.66278 125.956927L1389.6 125.086426 1393.66278 124.215925C1393.90624 123.5908 1394.40421 123.092886 1395.0294 122.849448L1395.9 118.787109 1396.7706 122.849448C1397.39579 123.092886 1397.89376 123.5908 1398.13722 124.215925L1402.2 125.086426 1398.13722 125.956927zM1410.73722 95.3602471C1410.49376 95.9853718 1409.99579 96.4832863 1409.3706 96.7267244L1408.5 100.789063 1407.6294 96.7267244C1407.00421 96.4832863 1406.50624 95.9853718 1406.26278 95.3602471L1402.2 94.4897461 1406.26278 93.6192451C1406.50624 92.9941203 1407.00421 92.4962059 1407.6294 92.2527678L1408.5 88.1904297 1409.3706 92.2527678C1409.99579 92.4962059 1410.49376 92.9941203 1410.73722 93.6192451L1414.8 94.4897461 1410.73722 95.3602471zM1498.93722 66.5633721C1498.69376 67.1884968 1498.19579 67.6864113 1497.5706 67.9298494L1496.7 71.9921875 1495.8294 67.9298494C1495.20421 67.6864113 1494.70624 67.1884968 1494.46278 66.5633721L1490.4 65.6928711 1494.46278 64.8223701C1494.70624 64.1972453 1495.20421 63.6993309 1495.8294 63.4558928L1496.7 59.3935547 1497.5706 63.4558928C1498.19579 63.6993309 1498.69376 64.1972453 1498.93722 64.8223701L1503 65.6928711 1498.93722 66.5633721z"/>
      <path d="M1498.93722 66.5633721C1498.69376 67.1884968 1498.19579 67.6864113 1497.5706 67.9298494L1496.7 71.9921875 1495.8294 67.9298494C1495.20421 67.6864113 1494.70624 67.1884968 1494.46278 66.5633721L1490.4 65.6928711 1494.46278 64.8223701C1494.70624 64.1972453 1495.20421 63.6993309 1495.8294 63.4558928L1496.7 59.3935547 1497.5706 63.4558928C1498.19579 63.6993309 1498.69376 64.1972453 1498.93722 64.8223701L1503 65.6928711 1498.93722 66.5633721zM1498.93722 41.3661065C1498.69376 41.9912312 1498.19579 42.4891456 1497.5706 42.7325837L1496.7 46.7949219 1495.8294 42.7325837C1495.20421 42.4891456 1494.70624 41.9912312 1494.46278 41.3661065L1490.4 40.4956055 1494.46278 39.6251044C1494.70624 38.9999797 1495.20421 38.5020653 1495.8294 38.2586272L1496.7 34.1962891 1497.5706 38.2586272C1498.19579 38.5020653 1498.69376 38.9999797 1498.93722 39.6251044L1503 40.4956055 1498.93722 41.3661065zM1459.33722 71.9627862C1459.09376 72.5879109 1458.59579 73.0858253 1457.9706 73.3292634L1457.1 77.3916016 1456.2294 73.3292634C1455.60421 73.0858253 1455.10624 72.5879109 1454.86278 71.9627862L1450.8 71.0922852 1454.86278 70.2217841C1455.10624 69.5966594 1455.60421 69.098745 1456.2294 68.8553069L1457.1 64.7929688 1457.9706 68.8553069C1458.59579 69.098745 1459.09376 69.5966594 1459.33722 70.2217841L1463.4 71.0922852 1459.33722 71.9627862zM1423.33722 19.7684502C1423.09376 20.393575 1422.59579 20.8914894 1421.9706 21.1349275L1421.1 25.1972656 1420.2294 21.1349275C1419.60421 20.8914894 1419.10624 20.393575 1418.86278 19.7684502L1414.8 18.8979492 1418.86278 18.0274482C1419.10624 17.4023235 1419.60421 16.9044091 1420.2294 16.6609709L1421.1 12.5986328 1421.9706 16.6609709C1422.59579 16.9044091 1423.09376 17.4023235 1423.33722 18.0274482L1427.4 18.8979492 1423.33722 19.7684502zM1506.13722 84.561419C1505.89376 85.1865437 1505.39579 85.6844581 1504.7706 85.9278962L1503.9 89.9902344 1503.0294 85.9278962C1502.40421 85.6844581 1501.90624 85.1865437 1501.66278 84.561419L1497.6 83.690918 1501.66278 82.8204169C1501.90624 82.1952922 1502.40421 81.6973778 1503.0294 81.4539397L1503.9 77.3916016 1504.7706 81.4539397C1505.39579 81.6973778 1505.89376 82.1952922 1506.13722 82.8204169L1510.2 83.690918 1506.13722 84.561419zM1563.73722 53.9647393C1563.49376 54.589864 1562.99579 55.0877784 1562.3706 55.3312166L1561.5 59.3935547 1560.6294 55.3312166C1560.00421 55.0877784 1559.50624 54.589864 1559.26278 53.9647393L1555.2 53.0942383 1559.26278 52.2237373C1559.50624 51.5986125 1560.00421 51.1006981 1560.6294 50.85726L1561.5 46.7949219 1562.3706 50.85726C1562.99579 51.1006981 1563.49376 51.5986125 1563.73722 52.2237373L1567.8 53.0942383 1563.73722 53.9647393zM1599.73722 7.16981744C1599.49376 7.79494216 1598.99579 8.29285657 1598.3706 8.53629468L1597.5 12.5986328 1596.6294 8.53629468C1596.00421 8.29285657 1595.50624 7.79494216 1595.26278 7.16981744L1591.2 6.29931641 1595.26278 5.42881538C1595.50624 4.80369065 1596.00421 4.30577624 1596.6294 4.06233814L1597.5 0 1598.3706 4.06233814C1598.99579 4.30577624 1599.49376 4.80369065 1599.73722 5.42881538L1603.8 6.29931641 1599.73722 7.16981744zM1633.93722 71.9627862C1633.69376 72.5879109 1633.19579 73.0858253 1632.5706 73.3292634L1631.7 77.3916016 1630.8294 73.3292634C1630.20421 73.0858253 1629.70624 72.5879109 1629.46278 71.9627862L1625.4 71.0922852 1629.46278 70.2217841C1629.70624 69.5966594 1630.20421 69.098745 1630.8294 68.8553069L1631.7 64.7929688 1632.5706 68.8553069C1633.19579 69.098745 1633.69376 69.5966594 1633.93722 70.2217841L1638 71.0922852 1633.93722 71.9627862zM1646.53722 41.3661065C1646.29376 41.9912312 1645.79579 42.4891456 1645.1706 42.7325837L1644.3 46.7949219 1643.4294 42.7325837C1642.80421 42.4891456 1642.30624 41.9912312 1642.06278 41.3661065L1638 40.4956055 1642.06278 39.6251044C1642.30624 38.9999797 1642.80421 38.5020653 1643.4294 38.2586272L1644.3 34.1962891 1645.1706 38.2586272C1645.79579 38.5020653 1646.29376 38.9999797 1646.53722 39.6251044L1650.6 40.4956055 1646.53722 41.3661065zM1734.73722 12.5692315C1734.49376 13.1943562 1733.99579 13.6922706 1733.3706 13.9357087L1732.5 17.9980469 1731.6294 13.9357087C1731.00421 13.6922706 1730.50624 13.1943562 1730.26278 12.5692315L1726.2 11.6987305 1730.26278 10.8282294C1730.50624 10.2031047 1731.00421 9.7051903 1731.6294 9.4617522L1732.5 5.39941406 1733.3706 9.4617522C1733.99579 9.7051903 1734.49376 10.2031047 1734.73722 10.8282294L1738.8 11.6987305 1734.73722 12.5692315z"/>
      <path d="M1734.73722 12.5692315C1734.49376 13.1943562 1733.99579 13.6922706 1733.3706 13.9357087L1732.5 17.9980469 1731.6294 13.9357087C1731.00421 13.6922706 1730.50624 13.1943562 1730.26278 12.5692315L1726.2 11.6987305 1730.26278 10.8282294C1730.50624 10.2031047 1731.00421 9.7051903 1731.6294 9.4617522L1732.5 5.39941406 1733.3706 9.4617522C1733.99579 9.7051903 1734.49376 10.2031047 1734.73722 10.8282294L1738.8 11.6987305 1734.73722 12.5692315zM1810.33722 75.5623956C1810.09376 76.1875203 1809.59579 76.6854347 1808.9706 76.9288728L1808.1 80.9912109 1807.2294 76.9288728C1806.60421 76.6854347 1806.10624 76.1875203 1805.86278 75.5623956L1801.8 74.6918945 1805.86278 73.8213935C1806.10624 73.1962688 1806.60421 72.6983544 1807.2294 72.4549163L1808.1 68.3925781 1808.9706 72.4549163C1809.59579 72.6983544 1810.09376 73.1962688 1810.33722 73.8213935L1814.4 74.6918945 1810.33722 75.5623956zM1770.73722 106.159075C1770.49376 106.7842 1769.99579 107.282114 1769.3706 107.525552L1768.5 111.587891 1767.6294 107.525552C1767.00421 107.282114 1766.50624 106.7842 1766.26278 106.159075L1762.2 105.288574 1766.26278 104.418073C1766.50624 103.792948 1767.00421 103.295034 1767.6294 103.051596L1768.5 98.9892578 1769.3706 103.051596C1769.99579 103.295034 1770.49376 103.792948 1770.73722 104.418073L1774.8 105.288574 1770.73722 106.159075zM1734.73722 53.9647393C1734.49376 54.589864 1733.99579 55.0877784 1733.3706 55.3312166L1732.5 59.3935547 1731.6294 55.3312166C1731.00421 55.0877784 1730.50624 54.589864 1730.26278 53.9647393L1726.2 53.0942383 1730.26278 52.2237373C1730.50624 51.5986125 1731.00421 51.1006981 1731.6294 50.85726L1732.5 46.7949219 1733.3706 50.85726C1733.99579 51.1006981 1734.49376 51.5986125 1734.73722 52.2237373L1738.8 53.0942383 1734.73722 53.9647393zM1817.53722 118.757708C1817.29376 119.382833 1816.79579 119.880747 1816.1706 120.124185L1815.3 124.186523 1814.4294 120.124185C1813.80421 119.880747 1813.30624 119.382833 1813.06278 118.757708L1809 117.887207 1813.06278 117.016706C1813.30624 116.391581 1813.80421 115.893667 1814.4294 115.650229L1815.3 111.587891 1816.1706 115.650229C1816.79579 115.893667 1817.29376 116.391581 1817.53722 117.016706L1821.6 117.887207 1817.53722 118.757708zM1875.13722 88.1610284C1874.89376 88.7861531 1874.39579 89.2840675 1873.7706 89.5275056L1872.9 93.5898438 1872.0294 89.5275056C1871.40421 89.2840675 1870.90624 88.7861531 1870.66278 88.1610284L1866.6 87.2905273 1870.66278 86.4200263C1870.90624 85.7949016 1871.40421 85.2969872 1872.0294 85.0535491L1872.9 80.9912109 1873.7706 85.0535491C1874.39579 85.2969872 1874.89376 85.7949016 1875.13722 86.4200263L1879.2 87.2905273 1875.13722 88.1610284zM1911.13722 41.3661065C1910.89376 41.9912312 1910.39579 42.4891456 1909.7706 42.7325837L1908.9 46.7949219 1908.0294 42.7325837C1907.40421 42.4891456 1906.90624 41.9912312 1906.66278 41.3661065L1902.6 40.4956055 1906.66278 39.6251044C1906.90624 38.9999797 1907.40421 38.5020653 1908.0294 38.2586272L1908.9 34.1962891 1909.7706 38.2586272C1910.39579 38.5020653 1910.89376 38.9999797 1911.13722 39.6251044L1915.2 40.4956055 1911.13722 41.3661065zM1945.33722 106.159075C1945.09376 106.7842 1944.59579 107.282114 1943.9706 107.525552L1943.1 111.587891 1942.2294 107.525552C1941.60421 107.282114 1941.10624 106.7842 1940.86278 106.159075L1936.8 105.288574 1940.86278 104.418073C1941.10624 103.792948 1941.60421 103.295034 1942.2294 103.051596L1943.1 98.9892578 1943.9706 103.051596C1944.59579 103.295034 1945.09376 103.792948 1945.33722 104.418073L1949.4 105.288574 1945.33722 106.159075zM1957.93722 75.5623956C1957.69376 76.1875203 1957.19579 76.6854347 1956.5706 76.9288728L1955.7 80.9912109 1954.8294 76.9288728C1954.20421 76.6854347 1953.70624 76.1875203 1953.46278 75.5623956L1949.4 74.6918945 1953.46278 73.8213935C1953.70624 73.1962688 1954.20421 72.6983544 1954.8294 72.4549163L1955.7 68.3925781 1956.5706 72.4549163C1957.19579 72.6983544 1957.69376 73.1962688 1957.93722 73.8213935L1962 74.6918945 1957.93722 75.5623956zM2046.13722 46.7655206C2045.89376 47.3906453 2045.39579 47.8885597 2044.7706 48.1319978L2043.9 52.1943359 2043.0294 48.1319978C2042.40421 47.8885597 2041.90624 47.3906453 2041.66278 46.7655206L2037.6 45.8950195 2041.66278 45.0245185C2041.90624 44.3993938 2042.40421 43.9014794 2043.0294 43.6580413L2043.9 39.5957031 2044.7706 43.6580413C2045.39579 43.9014794 2045.89376 44.3993938 2046.13722 45.0245185L2050.2 45.8950195 2046.13722 46.7655206z"/>
      <path d="M2046.13722 46.7655206C2045.89376 47.3906453 2045.39579 47.8885597 2044.7706 48.1319978L2043.9 52.1943359 2043.0294 48.1319978C2042.40421 47.8885597 2041.90624 47.3906453 2041.66278 46.7655206L2037.6 45.8950195 2041.66278 45.0245185C2041.90624 44.3993938 2042.40421 43.9014794 2043.0294 43.6580413L2043.9 39.5957031 2044.7706 43.6580413C2045.39579 43.9014794 2045.89376 44.3993938 2046.13722 45.0245185L2050.2 45.8950195 2046.13722 46.7655206zM2085.73722 44.9657159C2085.49376 45.5908406 2084.99579 46.088755 2084.3706 46.3321931L2083.5 50.3945313 2082.6294 46.3321931C2082.00421 46.088755 2081.50624 45.5908406 2081.26278 44.9657159L2077.2 44.0952148 2081.26278 43.2247138C2081.50624 42.5995891 2082.00421 42.1016747 2082.6294 41.8582366L2083.5 37.7958984 2084.3706 41.8582366C2084.99579 42.1016747 2085.49376 42.5995891 2085.73722 43.2247138L2089.8 44.0952148 2085.73722 44.9657159zM2046.13722 75.5623956C2045.89376 76.1875203 2045.39579 76.6854347 2044.7706 76.9288728L2043.9 80.9912109 2043.0294 76.9288728C2042.40421 76.6854347 2041.90624 76.1875203 2041.66278 75.5623956L2037.6 74.6918945 2041.66278 73.8213935C2041.90624 73.1962688 2042.40421 72.6983544 2043.0294 72.4549163L2043.9 68.3925781 2044.7706 72.4549163C2045.39579 72.6983544 2045.89376 73.1962688 2046.13722 73.8213935L2050.2 74.6918945 2046.13722 75.5623956zM2010.13722 23.3680596C2009.89376 23.9931843 2009.39579 24.4910988 2008.7706 24.7345369L2007.9 28.796875 2007.0294 24.7345369C2006.40421 24.4910988 2005.90624 23.9931843 2005.66278 23.3680596L2001.6 22.4975586 2005.66278 21.6270576C2005.90624 21.0019328 2006.40421 20.5040184 2007.0294 20.2605803L2007.9 16.1982422 2008.7706 20.2605803C2009.39579 20.5040184 2009.89376 21.0019328 2010.13722 21.6270576L2014.2 22.4975586 2010.13722 23.3680596zM2092.93722 88.1610284C2092.69376 88.7861531 2092.19579 89.2840675 2091.5706 89.5275056L2090.7 93.5898438 2089.8294 89.5275056C2089.20421 89.2840675 2088.70624 88.7861531 2088.46278 88.1610284L2084.4 87.2905273 2088.46278 86.4200263C2088.70624 85.7949016 2089.20421 85.2969872 2089.8294 85.0535491L2090.7 80.9912109 2091.5706 85.0535491C2092.19579 85.2969872 2092.69376 85.7949016 2092.93722 86.4200263L2097 87.2905273 2092.93722 88.1610284zM2150.53722 57.5643487C2150.29376 58.1894734 2149.79579 58.6873878 2149.1706 58.9308259L2148.3 62.9931641 2147.4294 58.9308259C2146.80421 58.6873878 2146.30624 58.1894734 2146.06278 57.5643487L2142 56.6938477 2146.06278 55.8233466C2146.30624 55.1982219 2146.80421 54.7003075 2147.4294 54.4568694L2148.3 50.3945312 2149.1706 54.4568694C2149.79579 54.7003075 2150.29376 55.1982219 2150.53722 55.8233466L2154.6 56.6938477 2150.53722 57.5643487zM2186.53722 10.7694268C2186.29376 11.3945515 2185.79579 11.8924659 2185.1706 12.1359041L2184.3 16.1982422 2183.4294 12.1359041C2182.80421 11.8924659 2182.30624 11.3945515 2182.06278 10.7694268L2178 9.89892578 2182.06278 9.02842475C2182.30624 8.40330003 2182.80421 7.90538561 2183.4294 7.66194751L2184.3 3.59960938 2185.1706 7.66194751C2185.79579 7.90538561 2186.29376 8.40330003 2186.53722 9.02842475L2190.6 9.89892578 2186.53722 10.7694268zM2220.73722 75.5623956C2220.49376 76.1875203 2219.99579 76.6854347 2219.3706 76.9288728L2218.5 80.9912109 2217.6294 76.9288728C2217.00421 76.6854347 2216.50624 76.1875203 2216.26278 75.5623956L2212.2 74.6918945 2216.26278 73.8213935C2216.50624 73.1962688 2217.00421 72.6983544 2217.6294 72.4549163L2218.5 68.3925781 2219.3706 72.4549163C2219.99579 72.6983544 2220.49376 73.1962688 2220.73722 73.8213935L2224.8 74.6918945 2220.73722 75.5623956zM2233.33722 44.9657159C2233.09376 45.5908406 2232.59579 46.088755 2231.9706 46.3321931L2231.1 50.3945313 2230.2294 46.3321931C2229.60421 46.088755 2229.10624 45.5908406 2228.86278 44.9657159L2224.8 44.0952148 2228.86278 43.2247138C2229.10624 42.5995891 2229.60421 42.1016747 2230.2294 41.8582366L2231.1 37.7958984 2231.9706 41.8582366C2232.59579 42.1016747 2233.09376 42.5995891 2233.33722 43.2247138L2237.4 44.0952148 2233.33722 44.9657159zM2321.53722 16.1688409C2321.29376 16.7939656 2320.79579 17.29188 2320.1706 17.5353181L2319.3 21.5976563 2318.4294 17.5353181C2317.80421 17.29188 2317.30624 16.7939656 2317.06278 16.1688409L2313 15.2983398 2317.06278 14.4278388C2317.30624 13.8027141 2317.80421 13.3047997 2318.4294 13.0613616L2319.3 8.99902344 2320.1706 13.0613616C2320.79579 13.3047997 2321.29376 13.8027141 2321.53722 14.4278388L2325.6 15.2983398 2321.53722 16.1688409z"/>
      <path d="M2321.53722,25.1678643 C2321.29376,25.792989 2320.79579,26.2909034 2320.1706,26.5343416 L2319.3,30.5966797 L2318.4294,26.5343416 C2317.80421,26.2909034 2317.30624,25.792989 2317.06278,25.1678643 L2313,24.2973633 L2317.06278,23.4268623 C2317.30624,22.8017375 2317.80421,22.3038231 2318.4294,22.060385 L2319.3,17.9980469 L2320.1706,22.060385 C2320.79579,22.3038231 2321.29376,22.8017375 2321.53722,23.4268623 L2325.6,24.2973633 L2321.53722,25.1678643 Z"/>
    </g>
    <g fill="#FFFFFF" transform="translate(36 169.182)">
      <path d="M84.137221 73.7625909C83.8937565 74.3877156 83.3957881 74.88563 82.7705955 75.1290681L81.9 79.1914063 81.0294045 75.1290681C80.4042119 74.88563 79.9062435 74.3877156 79.662779 73.7625909L75.6 72.8920898 79.662779 72.0215888C79.9062435 71.3964641 80.4042119 70.8985497 81.0294045 70.6551116L81.9 66.5927734 82.7705955 70.6551116C83.3957881 70.8985497 83.8937565 71.3964641 84.137221 72.0215888L88.2 72.8920898 84.137221 73.7625909zM91.337221 116.957903C91.0937565 117.583028 90.5957881 118.080943 89.9705955 118.324381L89.1 122.386719 88.2294045 118.324381C87.6042119 118.080943 87.1062435 117.583028 86.862779 116.957903L82.8 116.087402 86.862779 115.216901C87.1062435 114.591777 87.6042119 114.093862 88.2294045 113.850424L89.1 109.788086 89.9705955 113.850424C90.5957881 114.093862 91.0937565 114.591777 91.337221 115.216901L95.4 116.087402 91.337221 116.957903zM148.937221 86.3612237C148.693757 86.9863484 148.195788 87.4842628 147.570595 87.7277009L146.7 91.7900391 145.829405 87.7277009C145.204212 87.4842628 144.706243 86.9863484 144.462779 86.3612237L140.4 85.4907227 144.462779 84.6202216C144.706243 83.9950969 145.204212 83.4971825 145.829405 83.2537444L146.7 79.1914062 147.570595 83.2537444C148.195788 83.4971825 148.693757 83.9950969 148.937221 84.6202216L153 85.4907227 148.937221 86.3612237zM184.937221 39.5663018C184.693757 40.1914265 184.195788 40.6893409 183.570595 40.9327791L182.7 44.9951172 181.829405 40.9327791C181.204212 40.6893409 180.706243 40.1914265 180.462779 39.5663018L176.4 38.6958008 180.462779 37.8252998C180.706243 37.200175 181.204212 36.7022606 181.829405 36.4588225L182.7 32.3964844 183.570595 36.4588225C184.195788 36.7022606 184.693757 37.200175 184.937221 37.8252998L189 38.6958008 184.937221 39.5663018zM219.137221 104.359271C218.893757 104.984395 218.395788 105.48231 217.770595 105.725748L216.9 109.788086 216.029405 105.725748C215.404212 105.48231 214.906243 104.984395 214.662779 104.359271L210.6 103.48877 214.662779 102.618269C214.906243 101.993144 215.404212 101.495229 216.029405 101.251791L216.9 97.1894531 217.770595 101.251791C218.395788 101.495229 218.893757 101.993144 219.137221 102.618269L223.2 103.48877 219.137221 104.359271zM231.737221 73.7625909C231.493757 74.3877156 230.995788 74.88563 230.370595 75.1290681L229.5 79.1914063 228.629405 75.1290681C228.004212 74.88563 227.506243 74.3877156 227.262779 73.7625909L223.2 72.8920898 227.262779 72.0215888C227.506243 71.3964641 228.004212 70.8985497 228.629405 70.6551116L229.5 66.5927734 230.370595 70.6551116C230.995788 70.8985497 231.493757 71.3964641 231.737221 72.0215888L235.8 72.8920898 231.737221 73.7625909zM319.937221 44.9657159C319.693757 45.5908406 319.195788 46.088755 318.570595 46.3321931L317.7 50.3945313 316.829405 46.3321931C316.204212 46.088755 315.706243 45.5908406 315.462779 44.9657159L311.4 44.0952148 315.462779 43.2247138C315.706243 42.5995891 316.204212 42.1016747 316.829405 41.8582366L317.7 37.7958984 318.570595 41.8582366C319.195788 42.1016747 319.693757 42.5995891 319.937221 43.2247138L324 44.0952148 319.937221 44.9657159z"/>
      <path d="M319.937221 44.9657159C319.693757 45.5908406 319.195788 46.088755 318.570595 46.3321931L317.7 50.3945313 316.829405 46.3321931C316.204212 46.088755 315.706243 45.5908406 315.462779 44.9657159L311.4 44.0952148 315.462779 43.2247138C315.706243 42.5995891 316.204212 42.1016747 316.829405 41.8582366L317.7 37.7958984 318.570595 41.8582366C319.195788 42.1016747 319.693757 42.5995891 319.937221 43.2247138L324 44.0952148 319.937221 44.9657159zM364.937221 120.557513C364.693757 121.182637 364.195788 121.680552 363.570595 121.92399L362.7 125.986328 361.829405 121.92399C361.204212 121.680552 360.706243 121.182637 360.462779 120.557513L356.4 119.687012 360.462779 118.816511C360.706243 118.191386 361.204212 117.693472 361.829405 117.450033L362.7 113.387695 363.570595 117.450033C364.195788 117.693472 364.693757 118.191386 364.937221 118.816511L369 119.687012 364.937221 120.557513zM325.337221 151.154192C325.093757 151.779317 324.595788 152.277232 323.970595 152.52067L323.1 156.583008 322.229405 152.52067C321.604212 152.277232 321.106243 151.779317 320.862779 151.154192L316.8 150.283691 320.862779 149.41319C321.106243 148.788066 321.604212 148.290151 322.229405 148.046713L323.1 143.984375 323.970595 148.046713C324.595788 148.290151 325.093757 148.788066 325.337221 149.41319L329.4 150.283691 325.337221 151.154192zM289.337221 98.9598565C289.093757 99.5849812 288.595788 100.082896 287.970595 100.326334L287.1 104.388672 286.229405 100.326334C285.604212 100.082896 285.106243 99.5849812 284.862779 98.9598565L280.8 98.0893555 284.862779 97.2188544C285.106243 96.5937297 285.604212 96.0958153 286.229405 95.8523772L287.1 91.7900391 287.970595 95.8523772C288.595788 96.0958153 289.093757 96.5937297 289.337221 97.2188544L293.4 98.0893555 289.337221 98.9598565zM372.137221 163.752825C371.893757 164.37795 371.395788 164.875864 370.770595 165.119302L369.9 169.181641 369.029405 165.119302C368.404212 164.875864 367.906243 164.37795 367.662779 163.752825L363.6 162.882324 367.662779 162.011823C367.906243 161.386698 368.404212 160.888784 369.029405 160.645346L369.9 156.583008 370.770595 160.645346C371.395788 160.888784 371.893757 161.386698 372.137221 162.011823L376.2 162.882324 372.137221 163.752825zM429.737221 133.156146C429.493757 133.78127 428.995788 134.279185 428.370595 134.522623L427.5 138.584961 426.629405 134.522623C426.004212 134.279185 425.506243 133.78127 425.262779 133.156146L421.2 132.285645 425.262779 131.415144C425.506243 130.790019 426.004212 130.292104 426.629405 130.048666L427.5 125.986328 428.370595 130.048666C428.995788 130.292104 429.493757 130.790019 429.737221 131.415144L433.8 132.285645 429.737221 133.156146zM465.737221 86.3612237C465.493757 86.9863484 464.995788 87.4842628 464.370595 87.7277009L463.5 91.7900391 462.629405 87.7277009C462.004212 87.4842628 461.506243 86.9863484 461.262779 86.3612237L457.2 85.4907227 461.262779 84.6202216C461.506243 83.9950969 462.004212 83.4971825 462.629405 83.2537444L463.5 79.1914062 464.370595 83.2537444C464.995788 83.4971825 465.493757 83.9950969 465.737221 84.6202216L469.8 85.4907227 465.737221 86.3612237zM499.937221 151.154192C499.693757 151.779317 499.195788 152.277232 498.570595 152.52067L497.7 156.583008 496.829405 152.52067C496.204212 152.277232 495.706243 151.779317 495.462779 151.154192L491.4 150.283691 495.462779 149.41319C495.706243 148.788066 496.204212 148.290151 496.829405 148.046713L497.7 143.984375 498.570595 148.046713C499.195788 148.290151 499.693757 148.788066 499.937221 149.41319L504 150.283691 499.937221 151.154192zM512.537221 120.557513C512.293757 121.182637 511.795788 121.680552 511.170595 121.92399L510.3 125.986328 509.429405 121.92399C508.804212 121.680552 508.306243 121.182637 508.062779 120.557513L504 119.687012 508.062779 118.816511C508.306243 118.191386 508.804212 117.693472 509.429405 117.450033L510.3 113.387695 511.170595 117.450033C511.795788 117.693472 512.293757 118.191386 512.537221 118.816511L516.6 119.687012 512.537221 120.557513zM600.737221 91.7606377C600.493757 92.3857625 599.995788 92.8836769 599.370595 93.127115L598.5 97.1894531 597.629405 93.127115C597.004212 92.8836769 596.506243 92.3857625 596.262779 91.7606377L592.2 90.8901367 596.262779 90.0196357C596.506243 89.394511 597.004212 88.8965966 597.629405 88.6531584L598.5 84.5908203 599.370595 88.6531584C599.995788 88.8965966 600.493757 89.394511 600.737221 90.0196357L604.8 90.8901367 600.737221 91.7606377z"/>
      <path d="M600.737221 91.7606377C600.493757 92.3857625 599.995788 92.8836769 599.370595 93.127115L598.5 97.1894531 597.629405 93.127115C597.004212 92.8836769 596.506243 92.3857625 596.262779 91.7606377L592.2 90.8901367 596.262779 90.0196357C596.506243 89.394511 597.004212 88.8965966 597.629405 88.6531584L598.5 84.5908203 599.370595 88.6531584C599.995788 88.8965966 600.493757 89.394511 600.737221 90.0196357L604.8 90.8901367 600.737221 91.7606377zM541.337221 53.9647393C541.093757 54.589864 540.595788 55.0877784 539.970595 55.3312166L539.1 59.3935547 538.229405 55.3312166C537.604212 55.0877784 537.106243 54.589864 536.862779 53.9647393L532.8 53.0942383 536.862779 52.2237373C537.106243 51.5986125 537.604212 51.1006981 538.229405 50.85726L539.1 46.7949219 539.970595 50.85726C540.595788 51.1006981 541.093757 51.5986125 541.337221 52.2237373L545.4 53.0942383 541.337221 53.9647393zM501.737221 84.561419C501.493757 85.1865437 500.995788 85.6844581 500.370595 85.9278962L499.5 89.9902344 498.629405 85.9278962C498.004212 85.6844581 497.506243 85.1865437 497.262779 84.561419L493.2 83.690918 497.262779 82.8204169C497.506243 82.1952922 498.004212 81.6973778 498.629405 81.4539397L499.5 77.3916016 500.370595 81.4539397C500.995788 81.6973778 501.493757 82.1952922 501.737221 82.8204169L505.8 83.690918 501.737221 84.561419zM465.737221 32.3670831C465.493757 32.9922078 464.995788 33.4901222 464.370595 33.7335603L463.5 37.7958984 462.629405 33.7335603C462.004212 33.4901222 461.506243 32.9922078 461.262779 32.3670831L457.2 31.496582 461.262779 30.626081C461.506243 30.0009563 462.004212 29.5030419 462.629405 29.2596038L463.5 25.1972656 464.370595 29.2596038C464.995788 29.5030419 465.493757 30.0009563 465.737221 30.626081L469.8 31.496582 465.737221 32.3670831zM548.537221 97.1600518C548.293757 97.7851765 547.795788 98.2830909 547.170595 98.5265291L546.3 102.588867 545.429405 98.5265291C544.804212 98.2830909 544.306243 97.7851765 544.062779 97.1600518L540 96.2895508 544.062779 95.4190498C544.306243 94.793925 544.804212 94.2960106 545.429405 94.0525725L546.3 89.9902344 547.170595 94.0525725C547.795788 94.2960106 548.293757 94.793925 548.537221 95.4190498L552.6 96.2895508 548.537221 97.1600518zM606.137221 66.5633721C605.893757 67.1884968 605.395788 67.6864113 604.770595 67.9298494L603.9 71.9921875 603.029405 67.9298494C602.404212 67.6864113 601.906243 67.1884968 601.662779 66.5633721L597.6 65.6928711 601.662779 64.8223701C601.906243 64.1972453 602.404212 63.6993309 603.029405 63.4558928L603.9 59.3935547 604.770595 63.4558928C605.395788 63.6993309 605.893757 64.1972453 606.137221 64.8223701L610.2 65.6928711 606.137221 66.5633721zM642.137221 19.7684502C641.893757 20.393575 641.395788 20.8914894 640.770595 21.1349275L639.9 25.1972656 639.029405 21.1349275C638.404212 20.8914894 637.906243 20.393575 637.662779 19.7684502L633.6 18.8979492 637.662779 18.0274482C637.906243 17.4023235 638.404212 16.9044091 639.029405 16.6609709L639.9 12.5986328 640.770595 16.6609709C641.395788 16.9044091 641.893757 17.4023235 642.137221 18.0274482L646.2 18.8979492 642.137221 19.7684502zM676.337221 84.561419C676.093757 85.1865437 675.595788 85.6844581 674.970595 85.9278962L674.1 89.9902344 673.229405 85.9278962C672.604212 85.6844581 672.106243 85.1865437 671.862779 84.561419L667.8 83.690918 671.862779 82.8204169C672.106243 82.1952922 672.604212 81.6973778 673.229405 81.4539397L674.1 77.3916016 674.970595 81.4539397C675.595788 81.6973778 676.093757 82.1952922 676.337221 82.8204169L680.4 83.690918 676.337221 84.561419zM688.937221 53.9647393C688.693757 54.589864 688.195788 55.0877784 687.570595 55.3312166L686.7 59.3935547 685.829405 55.3312166C685.204212 55.0877784 684.706243 54.589864 684.462779 53.9647393L680.4 53.0942383 684.462779 52.2237373C684.706243 51.5986125 685.204212 51.1006981 685.829405 50.85726L686.7 46.7949219 687.570595 50.85726C688.195788 51.1006981 688.693757 51.5986125 688.937221 52.2237373L693 53.0942383 688.937221 53.9647393zM777.137221 25.1678643C776.893757 25.792989 776.395788 26.2909034 775.770595 26.5343416L774.9 30.5966797 774.029405 26.5343416C773.404212 26.2909034 772.906243 25.792989 772.662779 25.1678643L768.6 24.2973633 772.662779 23.4268623C772.906243 22.8017375 773.404212 22.3038231 774.029405 22.060385L774.9 17.9980469 775.770595 22.060385C776.395788 22.3038231 776.893757 22.8017375 777.137221 23.4268623L781.2 24.2973633 777.137221 25.1678643z"/>
      <path d="M777.137221 25.1678643C776.893757 25.792989 776.395788 26.2909034 775.770595 26.5343416L774.9 30.5966797 774.029405 26.5343416C773.404212 26.2909034 772.906243 25.792989 772.662779 25.1678643L768.6 24.2973633 772.662779 23.4268623C772.906243 22.8017375 773.404212 22.3038231 774.029405 22.060385L774.9 17.9980469 775.770595 22.060385C776.395788 22.3038231 776.893757 22.8017375 777.137221 23.4268623L781.2 24.2973633 777.137221 25.1678643zM715.937221 129.556536C715.693757 130.181661 715.195788 130.679575 714.570595 130.923013L713.7 134.985352 712.829405 130.923013C712.204212 130.679575 711.706243 130.181661 711.462779 129.556536L707.4 128.686035 711.462779 127.815534C711.706243 127.190409 712.204212 126.692495 712.829405 126.449057L713.7 122.386719 714.570595 126.449057C715.195788 126.692495 715.693757 127.190409 715.937221 127.815534L720 128.686035 715.937221 129.556536zM676.337221 160.153216C676.093757 160.778341 675.595788 161.276255 674.970595 161.519693L674.1 165.582031 673.229405 161.519693C672.604212 161.276255 672.106243 160.778341 671.862779 160.153216L667.8 159.282715 671.862779 158.412214C672.106243 157.787089 672.604212 157.289175 673.229405 157.045737L674.1 152.983398 674.970595 157.045737C675.595788 157.289175 676.093757 157.787089 676.337221 158.412214L680.4 159.282715 676.337221 160.153216zM640.337221 107.95888C640.093757 108.584005 639.595788 109.081919 638.970595 109.325357L638.1 113.387695 637.229405 109.325357C636.604212 109.081919 636.106243 108.584005 635.862779 107.95888L631.8 107.088379 635.862779 106.217878C636.106243 105.592753 636.604212 105.094839 637.229405 104.851401L638.1 100.789062 638.970595 104.851401C639.595788 105.094839 640.093757 105.592753 640.337221 106.217878L644.4 107.088379 640.337221 107.95888zM723.137221 172.751849C722.893757 173.376973 722.395788 173.874888 721.770595 174.118326L720.9 178.180664 720.029405 174.118326C719.404212 173.874888 718.906243 173.376973 718.662779 172.751849L714.6 171.881348 718.662779 171.010847C718.906243 170.385722 719.404212 169.887807 720.029405 169.644369L720.9 165.582031 721.770595 169.644369C722.395788 169.887807 722.893757 170.385722 723.137221 171.010847L727.2 171.881348 723.137221 172.751849zM780.737221 142.155169C780.493757 142.780294 779.995788 143.278208 779.370595 143.521646L778.5 147.583984 777.629405 143.521646C777.004212 143.278208 776.506243 142.780294 776.262779 142.155169L772.2 141.284668 776.262779 140.414167C776.506243 139.789042 777.004212 139.291128 777.629405 139.04769L778.5 134.985352 779.370595 139.04769C779.995788 139.291128 780.493757 139.789042 780.737221 140.414167L784.8 141.284668 780.737221 142.155169zM816.737221 95.3602471C816.493757 95.9853718 815.995788 96.4832863 815.370595 96.7267244L814.5 100.789063 813.629405 96.7267244C813.004212 96.4832863 812.506243 95.9853718 812.262779 95.3602471L808.2 94.4897461 812.262779 93.6192451C812.506243 92.9941203 813.004212 92.4962059 813.629405 92.2527678L814.5 88.1904297 815.370595 92.2527678C815.995788 92.4962059 816.493757 92.9941203 816.737221 93.6192451L820.8 94.4897461 816.737221 95.3602471zM850.937221 160.153216C850.693757 160.778341 850.195788 161.276255 849.570595 161.519693L848.7 165.582031 847.829405 161.519693C847.204212 161.276255 846.706243 160.778341 846.462779 160.153216L842.4 159.282715 846.462779 158.412214C846.706243 157.787089 847.204212 157.289175 847.829405 157.045737L848.7 152.983398 849.570595 157.045737C850.195788 157.289175 850.693757 157.787089 850.937221 158.412214L855 159.282715 850.937221 160.153216zM863.537221 129.556536C863.293757 130.181661 862.795788 130.679575 862.170595 130.923013L861.3 134.985352 860.429405 130.923013C859.804212 130.679575 859.306243 130.181661 859.062779 129.556536L855 128.686035 859.062779 127.815534C859.306243 127.190409 859.804212 126.692495 860.429405 126.449057L861.3 122.386719 862.170595 126.449057C862.795788 126.692495 863.293757 127.190409 863.537221 127.815534L867.6 128.686035 863.537221 129.556536zM951.737221 100.759661C951.493757 101.384786 950.995788 101.8827 950.370595 102.126138L949.5 106.188477 948.629405 102.126138C948.004212 101.8827 947.506243 101.384786 947.262779 100.759661L943.2 99.8891602 947.262779 99.0186591C947.506243 98.3935344 948.004212 97.89562 948.629405 97.6521819L949.5 93.5898438 950.370595 97.6521819C950.995788 97.89562 951.493757 98.3935344 951.737221 99.0186591L955.8 99.8891602 951.737221 100.759661z"/>
      <path d="M951.737221 100.759661C951.493757 101.384786 950.995788 101.8827 950.370595 102.126138L949.5 106.188477 948.629405 102.126138C948.004212 101.8827 947.506243 101.384786 947.262779 100.759661L943.2 99.8891602 947.262779 99.0186591C947.506243 98.3935344 948.004212 97.89562 948.629405 97.6521819L949.5 93.5898438 950.370595 97.6521819C950.995788 97.89562 951.493757 98.3935344 951.737221 99.0186591L955.8 99.8891602 951.737221 100.759661zM980.537221 46.7655206C980.293757 47.3906453 979.795788 47.8885597 979.170595 48.1319978L978.3 52.1943359 977.429405 48.1319978C976.804212 47.8885597 976.306243 47.3906453 976.062779 46.7655206L972 45.8950195 976.062779 45.0245185C976.306243 44.3993938 976.804212 43.9014794 977.429405 43.6580413L978.3 39.5957031 979.170595 43.6580413C979.795788 43.9014794 980.293757 44.3993938 980.537221 45.0245185L984.6 45.8950195 980.537221 46.7655206zM940.937221 77.3622002C940.693757 77.987325 940.195788 78.4852394 939.570595 78.7286775L938.7 82.7910156 937.829405 78.7286775C937.204212 78.4852394 936.706243 77.987325 936.462779 77.3622002L932.4 76.4916992 936.462779 75.6211982C936.706243 74.9960735 937.204212 74.4981591 937.829405 74.2547209L938.7 70.1923828 939.570595 74.2547209C940.195788 74.4981591 940.693757 74.9960735 940.937221 75.6211982L945 76.4916992 940.937221 77.3622002zM904.937221 25.1678643C904.693757 25.792989 904.195788 26.2909034 903.570595 26.5343416L902.7 30.5966797 901.829405 26.5343416C901.204212 26.2909034 900.706243 25.792989 900.462779 25.1678643L896.4 24.2973633 900.462779 23.4268623C900.706243 22.8017375 901.204212 22.3038231 901.829405 22.060385L902.7 17.9980469 903.570595 22.060385C904.195788 22.3038231 904.693757 22.8017375 904.937221 23.4268623L909 24.2973633 904.937221 25.1678643zM987.737221 89.9608331C987.493757 90.5859578 986.995788 91.0838722 986.370595 91.3273103L985.5 95.3896484 984.629405 91.3273103C984.004212 91.0838722 983.506243 90.5859578 983.262779 89.9608331L979.2 89.090332 983.262779 88.219831C983.506243 87.5947063 984.004212 87.0967919 984.629405 86.8533538L985.5 82.7910156 986.370595 86.8533538C986.995788 87.0967919 987.493757 87.5947063 987.737221 88.219831L991.8 89.090332 987.737221 89.9608331zM1045.33722 59.3641534C1045.09376 59.9892781 1044.59579 60.4871925 1043.9706 60.7306306L1043.1 64.7929688 1042.2294 60.7306306C1041.60421 60.4871925 1041.10624 59.9892781 1040.86278 59.3641534L1036.8 58.4936523 1040.86278 57.6231513C1041.10624 56.9980266 1041.60421 56.5001122 1042.2294 56.2566741L1043.1 52.1943359 1043.9706 56.2566741C1044.59579 56.5001122 1045.09376 56.9980266 1045.33722 57.6231513L1049.4 58.4936523 1045.33722 59.3641534zM1081.33722 12.5692315C1081.09376 13.1943562 1080.59579 13.6922706 1079.9706 13.9357087L1079.1 17.9980469 1078.2294 13.9357087C1077.60421 13.6922706 1077.10624 13.1943562 1076.86278 12.5692315L1072.8 11.6987305 1076.86278 10.8282294C1077.10624 10.2031047 1077.60421 9.7051903 1078.2294 9.4617522L1079.1 5.39941406 1079.9706 9.4617522C1080.59579 9.7051903 1081.09376 10.2031047 1081.33722 10.8282294L1085.4 11.6987305 1081.33722 12.5692315zM1115.53722 77.3622002C1115.29376 77.987325 1114.79579 78.4852394 1114.1706 78.7286775L1113.3 82.7910156 1112.4294 78.7286775C1111.80421 78.4852394 1111.30624 77.987325 1111.06278 77.3622002L1107 76.4916992 1111.06278 75.6211982C1111.30624 74.9960735 1111.80421 74.4981591 1112.4294 74.2547209L1113.3 70.1923828 1114.1706 74.2547209C1114.79579 74.4981591 1115.29376 74.9960735 1115.53722 75.6211982L1119.6 76.4916992 1115.53722 77.3622002zM1128.13722 46.7655206C1127.89376 47.3906453 1127.39579 47.8885597 1126.7706 48.1319978L1125.9 52.1943359 1125.0294 48.1319978C1124.40421 47.8885597 1123.90624 47.3906453 1123.66278 46.7655206L1119.6 45.8950195 1123.66278 45.0245185C1123.90624 44.3993938 1124.40421 43.9014794 1125.0294 43.6580413L1125.9 39.5957031 1126.7706 43.6580413C1127.39579 43.9014794 1127.89376 44.3993938 1128.13722 45.0245185L1132.2 45.8950195 1128.13722 46.7655206zM1216.33722 17.9686456C1216.09376 18.5937703 1215.59579 19.0916847 1214.9706 19.3351228L1214.1 23.3974609 1213.2294 19.3351228C1212.60421 19.0916847 1212.10624 18.5937703 1211.86278 17.9686456L1207.8 17.0981445 1211.86278 16.2276435C1212.10624 15.6025188 1212.60421 15.1046044 1213.2294 14.8611663L1214.1 10.7988281 1214.9706 14.8611663C1215.59579 15.1046044 1216.09376 15.6025188 1216.33722 16.2276435L1220.4 17.0981445 1216.33722 17.9686456z"/>
      <path d="M1216.33722 17.9686456C1216.09376 18.5937703 1215.59579 19.0916847 1214.9706 19.3351228L1214.1 23.3974609 1213.2294 19.3351228C1212.60421 19.0916847 1212.10624 18.5937703 1211.86278 17.9686456L1207.8 17.0981445 1211.86278 16.2276435C1212.10624 15.6025188 1212.60421 15.1046044 1213.2294 14.8611663L1214.1 10.7988281 1214.9706 14.8611663C1215.59579 15.1046044 1216.09376 15.6025188 1216.33722 16.2276435L1220.4 17.0981445 1216.33722 17.9686456zM1263.13722 95.3602471C1262.89376 95.9853718 1262.39579 96.4832863 1261.7706 96.7267244L1260.9 100.789063 1260.0294 96.7267244C1259.40421 96.4832863 1258.90624 95.9853718 1258.66278 95.3602471L1254.6 94.4897461 1258.66278 93.6192451C1258.90624 92.9941203 1259.40421 92.4962059 1260.0294 92.2527678L1260.9 88.1904297 1261.7706 92.2527678C1262.39579 92.4962059 1262.89376 92.9941203 1263.13722 93.6192451L1267.2 94.4897461 1263.13722 95.3602471zM1223.53722 125.956927C1223.29376 126.582052 1222.79579 127.079966 1222.1706 127.323404L1221.3 131.385742 1220.4294 127.323404C1219.80421 127.079966 1219.30624 126.582052 1219.06278 125.956927L1215 125.086426 1219.06278 124.215925C1219.30624 123.5908 1219.80421 123.092886 1220.4294 122.849448L1221.3 118.787109 1222.1706 122.849448C1222.79579 123.092886 1223.29376 123.5908 1223.53722 124.215925L1227.6 125.086426 1223.53722 125.956927zM1187.53722 73.7625909C1187.29376 74.3877156 1186.79579 74.88563 1186.1706 75.1290681L1185.3 79.1914063 1184.4294 75.1290681C1183.80421 74.88563 1183.30624 74.3877156 1183.06278 73.7625909L1179 72.8920898 1183.06278 72.0215888C1183.30624 71.3964641 1183.80421 70.8985497 1184.4294 70.6551116L1185.3 66.5927734 1186.1706 70.6551116C1186.79579 70.8985497 1187.29376 71.3964641 1187.53722 72.0215888L1191.6 72.8920898 1187.53722 73.7625909zM1270.33722 138.55556C1270.09376 139.180684 1269.59579 139.678599 1268.9706 139.922037L1268.1 143.984375 1267.2294 139.922037C1266.60421 139.678599 1266.10624 139.180684 1265.86278 138.55556L1261.8 137.685059 1265.86278 136.814558C1266.10624 136.189433 1266.60421 135.691518 1267.2294 135.44808L1268.1 131.385742 1268.9706 135.44808C1269.59579 135.691518 1270.09376 136.189433 1270.33722 136.814558L1274.4 137.685059 1270.33722 138.55556zM1327.93722 107.95888C1327.69376 108.584005 1327.19579 109.081919 1326.5706 109.325357L1325.7 113.387695 1324.8294 109.325357C1324.20421 109.081919 1323.70624 108.584005 1323.46278 107.95888L1319.4 107.088379 1323.46278 106.217878C1323.70624 105.592753 1324.20421 105.094839 1324.8294 104.851401L1325.7 100.789062 1326.5706 104.851401C1327.19579 105.094839 1327.69376 105.592753 1327.93722 106.217878L1332 107.088379 1327.93722 107.95888zM1363.93722 61.1639581C1363.69376 61.7890828 1363.19579 62.2869972 1362.5706 62.5304353L1361.7 66.5927734 1360.8294 62.5304353C1360.20421 62.2869972 1359.70624 61.7890828 1359.46278 61.1639581L1355.4 60.293457 1359.46278 59.422956C1359.70624 58.7978313 1360.20421 58.2999169 1360.8294 58.0564788L1361.7 53.9941406 1362.5706 58.0564788C1363.19579 58.2999169 1363.69376 58.7978313 1363.93722 59.422956L1368 60.293457 1363.93722 61.1639581zM1398.13722 125.956927C1397.89376 126.582052 1397.39579 127.079966 1396.7706 127.323404L1395.9 131.385742 1395.0294 127.323404C1394.40421 127.079966 1393.90624 126.582052 1393.66278 125.956927L1389.6 125.086426 1393.66278 124.215925C1393.90624 123.5908 1394.40421 123.092886 1395.0294 122.849448L1395.9 118.787109 1396.7706 122.849448C1397.39579 123.092886 1397.89376 123.5908 1398.13722 124.215925L1402.2 125.086426 1398.13722 125.956927zM1410.73722 95.3602471C1410.49376 95.9853718 1409.99579 96.4832863 1409.3706 96.7267244L1408.5 100.789063 1407.6294 96.7267244C1407.00421 96.4832863 1406.50624 95.9853718 1406.26278 95.3602471L1402.2 94.4897461 1406.26278 93.6192451C1406.50624 92.9941203 1407.00421 92.4962059 1407.6294 92.2527678L1408.5 88.1904297 1409.3706 92.2527678C1409.99579 92.4962059 1410.49376 92.9941203 1410.73722 93.6192451L1414.8 94.4897461 1410.73722 95.3602471zM1498.93722 66.5633721C1498.69376 67.1884968 1498.19579 67.6864113 1497.5706 67.9298494L1496.7 71.9921875 1495.8294 67.9298494C1495.20421 67.6864113 1494.70624 67.1884968 1494.46278 66.5633721L1490.4 65.6928711 1494.46278 64.8223701C1494.70624 64.1972453 1495.20421 63.6993309 1495.8294 63.4558928L1496.7 59.3935547 1497.5706 63.4558928C1498.19579 63.6993309 1498.69376 64.1972453 1498.93722 64.8223701L1503 65.6928711 1498.93722 66.5633721z"/>
      <path d="M1498.93722 66.5633721C1498.69376 67.1884968 1498.19579 67.6864113 1497.5706 67.9298494L1496.7 71.9921875 1495.8294 67.9298494C1495.20421 67.6864113 1494.70624 67.1884968 1494.46278 66.5633721L1490.4 65.6928711 1494.46278 64.8223701C1494.70624 64.1972453 1495.20421 63.6993309 1495.8294 63.4558928L1496.7 59.3935547 1497.5706 63.4558928C1498.19579 63.6993309 1498.69376 64.1972453 1498.93722 64.8223701L1503 65.6928711 1498.93722 66.5633721zM1498.93722 41.3661065C1498.69376 41.9912312 1498.19579 42.4891456 1497.5706 42.7325837L1496.7 46.7949219 1495.8294 42.7325837C1495.20421 42.4891456 1494.70624 41.9912312 1494.46278 41.3661065L1490.4 40.4956055 1494.46278 39.6251044C1494.70624 38.9999797 1495.20421 38.5020653 1495.8294 38.2586272L1496.7 34.1962891 1497.5706 38.2586272C1498.19579 38.5020653 1498.69376 38.9999797 1498.93722 39.6251044L1503 40.4956055 1498.93722 41.3661065zM1459.33722 71.9627862C1459.09376 72.5879109 1458.59579 73.0858253 1457.9706 73.3292634L1457.1 77.3916016 1456.2294 73.3292634C1455.60421 73.0858253 1455.10624 72.5879109 1454.86278 71.9627862L1450.8 71.0922852 1454.86278 70.2217841C1455.10624 69.5966594 1455.60421 69.098745 1456.2294 68.8553069L1457.1 64.7929688 1457.9706 68.8553069C1458.59579 69.098745 1459.09376 69.5966594 1459.33722 70.2217841L1463.4 71.0922852 1459.33722 71.9627862zM1423.33722 19.7684502C1423.09376 20.393575 1422.59579 20.8914894 1421.9706 21.1349275L1421.1 25.1972656 1420.2294 21.1349275C1419.60421 20.8914894 1419.10624 20.393575 1418.86278 19.7684502L1414.8 18.8979492 1418.86278 18.0274482C1419.10624 17.4023235 1419.60421 16.9044091 1420.2294 16.6609709L1421.1 12.5986328 1421.9706 16.6609709C1422.59579 16.9044091 1423.09376 17.4023235 1423.33722 18.0274482L1427.4 18.8979492 1423.33722 19.7684502zM1506.13722 84.561419C1505.89376 85.1865437 1505.39579 85.6844581 1504.7706 85.9278962L1503.9 89.9902344 1503.0294 85.9278962C1502.40421 85.6844581 1501.90624 85.1865437 1501.66278 84.561419L1497.6 83.690918 1501.66278 82.8204169C1501.90624 82.1952922 1502.40421 81.6973778 1503.0294 81.4539397L1503.9 77.3916016 1504.7706 81.4539397C1505.39579 81.6973778 1505.89376 82.1952922 1506.13722 82.8204169L1510.2 83.690918 1506.13722 84.561419zM1563.73722 53.9647393C1563.49376 54.589864 1562.99579 55.0877784 1562.3706 55.3312166L1561.5 59.3935547 1560.6294 55.3312166C1560.00421 55.0877784 1559.50624 54.589864 1559.26278 53.9647393L1555.2 53.0942383 1559.26278 52.2237373C1559.50624 51.5986125 1560.00421 51.1006981 1560.6294 50.85726L1561.5 46.7949219 1562.3706 50.85726C1562.99579 51.1006981 1563.49376 51.5986125 1563.73722 52.2237373L1567.8 53.0942383 1563.73722 53.9647393zM1599.73722 7.16981744C1599.49376 7.79494216 1598.99579 8.29285657 1598.3706 8.53629468L1597.5 12.5986328 1596.6294 8.53629468C1596.00421 8.29285657 1595.50624 7.79494216 1595.26278 7.16981744L1591.2 6.29931641 1595.26278 5.42881538C1595.50624 4.80369065 1596.00421 4.30577624 1596.6294 4.06233814L1597.5 0 1598.3706 4.06233814C1598.99579 4.30577624 1599.49376 4.80369065 1599.73722 5.42881538L1603.8 6.29931641 1599.73722 7.16981744zM1633.93722 71.9627862C1633.69376 72.5879109 1633.19579 73.0858253 1632.5706 73.3292634L1631.7 77.3916016 1630.8294 73.3292634C1630.20421 73.0858253 1629.70624 72.5879109 1629.46278 71.9627862L1625.4 71.0922852 1629.46278 70.2217841C1629.70624 69.5966594 1630.20421 69.098745 1630.8294 68.8553069L1631.7 64.7929688 1632.5706 68.8553069C1633.19579 69.098745 1633.69376 69.5966594 1633.93722 70.2217841L1638 71.0922852 1633.93722 71.9627862zM1646.53722 41.3661065C1646.29376 41.9912312 1645.79579 42.4891456 1645.1706 42.7325837L1644.3 46.7949219 1643.4294 42.7325837C1642.80421 42.4891456 1642.30624 41.9912312 1642.06278 41.3661065L1638 40.4956055 1642.06278 39.6251044C1642.30624 38.9999797 1642.80421 38.5020653 1643.4294 38.2586272L1644.3 34.1962891 1645.1706 38.2586272C1645.79579 38.5020653 1646.29376 38.9999797 1646.53722 39.6251044L1650.6 40.4956055 1646.53722 41.3661065zM1734.73722 12.5692315C1734.49376 13.1943562 1733.99579 13.6922706 1733.3706 13.9357087L1732.5 17.9980469 1731.6294 13.9357087C1731.00421 13.6922706 1730.50624 13.1943562 1730.26278 12.5692315L1726.2 11.6987305 1730.26278 10.8282294C1730.50624 10.2031047 1731.00421 9.7051903 1731.6294 9.4617522L1732.5 5.39941406 1733.3706 9.4617522C1733.99579 9.7051903 1734.49376 10.2031047 1734.73722 10.8282294L1738.8 11.6987305 1734.73722 12.5692315z"/>
      <path d="M1734.73722 12.5692315C1734.49376 13.1943562 1733.99579 13.6922706 1733.3706 13.9357087L1732.5 17.9980469 1731.6294 13.9357087C1731.00421 13.6922706 1730.50624 13.1943562 1730.26278 12.5692315L1726.2 11.6987305 1730.26278 10.8282294C1730.50624 10.2031047 1731.00421 9.7051903 1731.6294 9.4617522L1732.5 5.39941406 1733.3706 9.4617522C1733.99579 9.7051903 1734.49376 10.2031047 1734.73722 10.8282294L1738.8 11.6987305 1734.73722 12.5692315zM1810.33722 75.5623956C1810.09376 76.1875203 1809.59579 76.6854347 1808.9706 76.9288728L1808.1 80.9912109 1807.2294 76.9288728C1806.60421 76.6854347 1806.10624 76.1875203 1805.86278 75.5623956L1801.8 74.6918945 1805.86278 73.8213935C1806.10624 73.1962688 1806.60421 72.6983544 1807.2294 72.4549163L1808.1 68.3925781 1808.9706 72.4549163C1809.59579 72.6983544 1810.09376 73.1962688 1810.33722 73.8213935L1814.4 74.6918945 1810.33722 75.5623956zM1770.73722 106.159075C1770.49376 106.7842 1769.99579 107.282114 1769.3706 107.525552L1768.5 111.587891 1767.6294 107.525552C1767.00421 107.282114 1766.50624 106.7842 1766.26278 106.159075L1762.2 105.288574 1766.26278 104.418073C1766.50624 103.792948 1767.00421 103.295034 1767.6294 103.051596L1768.5 98.9892578 1769.3706 103.051596C1769.99579 103.295034 1770.49376 103.792948 1770.73722 104.418073L1774.8 105.288574 1770.73722 106.159075zM1734.73722 53.9647393C1734.49376 54.589864 1733.99579 55.0877784 1733.3706 55.3312166L1732.5 59.3935547 1731.6294 55.3312166C1731.00421 55.0877784 1730.50624 54.589864 1730.26278 53.9647393L1726.2 53.0942383 1730.26278 52.2237373C1730.50624 51.5986125 1731.00421 51.1006981 1731.6294 50.85726L1732.5 46.7949219 1733.3706 50.85726C1733.99579 51.1006981 1734.49376 51.5986125 1734.73722 52.2237373L1738.8 53.0942383 1734.73722 53.9647393zM1817.53722 118.757708C1817.29376 119.382833 1816.79579 119.880747 1816.1706 120.124185L1815.3 124.186523 1814.4294 120.124185C1813.80421 119.880747 1813.30624 119.382833 1813.06278 118.757708L1809 117.887207 1813.06278 117.016706C1813.30624 116.391581 1813.80421 115.893667 1814.4294 115.650229L1815.3 111.587891 1816.1706 115.650229C1816.79579 115.893667 1817.29376 116.391581 1817.53722 117.016706L1821.6 117.887207 1817.53722 118.757708zM1875.13722 88.1610284C1874.89376 88.7861531 1874.39579 89.2840675 1873.7706 89.5275056L1872.9 93.5898438 1872.0294 89.5275056C1871.40421 89.2840675 1870.90624 88.7861531 1870.66278 88.1610284L1866.6 87.2905273 1870.66278 86.4200263C1870.90624 85.7949016 1871.40421 85.2969872 1872.0294 85.0535491L1872.9 80.9912109 1873.7706 85.0535491C1874.39579 85.2969872 1874.89376 85.7949016 1875.13722 86.4200263L1879.2 87.2905273 1875.13722 88.1610284zM1911.13722 41.3661065C1910.89376 41.9912312 1910.39579 42.4891456 1909.7706 42.7325837L1908.9 46.7949219 1908.0294 42.7325837C1907.40421 42.4891456 1906.90624 41.9912312 1906.66278 41.3661065L1902.6 40.4956055 1906.66278 39.6251044C1906.90624 38.9999797 1907.40421 38.5020653 1908.0294 38.2586272L1908.9 34.1962891 1909.7706 38.2586272C1910.39579 38.5020653 1910.89376 38.9999797 1911.13722 39.6251044L1915.2 40.4956055 1911.13722 41.3661065zM1945.33722 106.159075C1945.09376 106.7842 1944.59579 107.282114 1943.9706 107.525552L1943.1 111.587891 1942.2294 107.525552C1941.60421 107.282114 1941.10624 106.7842 1940.86278 106.159075L1936.8 105.288574 1940.86278 104.418073C1941.10624 103.792948 1941.60421 103.295034 1942.2294 103.051596L1943.1 98.9892578 1943.9706 103.051596C1944.59579 103.295034 1945.09376 103.792948 1945.33722 104.418073L1949.4 105.288574 1945.33722 106.159075zM1957.93722 75.5623956C1957.69376 76.1875203 1957.19579 76.6854347 1956.5706 76.9288728L1955.7 80.9912109 1954.8294 76.9288728C1954.20421 76.6854347 1953.70624 76.1875203 1953.46278 75.5623956L1949.4 74.6918945 1953.46278 73.8213935C1953.70624 73.1962688 1954.20421 72.6983544 1954.8294 72.4549163L1955.7 68.3925781 1956.5706 72.4549163C1957.19579 72.6983544 1957.69376 73.1962688 1957.93722 73.8213935L1962 74.6918945 1957.93722 75.5623956zM2046.13722 46.7655206C2045.89376 47.3906453 2045.39579 47.8885597 2044.7706 48.1319978L2043.9 52.1943359 2043.0294 48.1319978C2042.40421 47.8885597 2041.90624 47.3906453 2041.66278 46.7655206L2037.6 45.8950195 2041.66278 45.0245185C2041.90624 44.3993938 2042.40421 43.9014794 2043.0294 43.6580413L2043.9 39.5957031 2044.7706 43.6580413C2045.39579 43.9014794 2045.89376 44.3993938 2046.13722 45.0245185L2050.2 45.8950195 2046.13722 46.7655206z"/>
      <path d="M2046.13722 46.7655206C2045.89376 47.3906453 2045.39579 47.8885597 2044.7706 48.1319978L2043.9 52.1943359 2043.0294 48.1319978C2042.40421 47.8885597 2041.90624 47.3906453 2041.66278 46.7655206L2037.6 45.8950195 2041.66278 45.0245185C2041.90624 44.3993938 2042.40421 43.9014794 2043.0294 43.6580413L2043.9 39.5957031 2044.7706 43.6580413C2045.39579 43.9014794 2045.89376 44.3993938 2046.13722 45.0245185L2050.2 45.8950195 2046.13722 46.7655206zM2085.73722 44.9657159C2085.49376 45.5908406 2084.99579 46.088755 2084.3706 46.3321931L2083.5 50.3945313 2082.6294 46.3321931C2082.00421 46.088755 2081.50624 45.5908406 2081.26278 44.9657159L2077.2 44.0952148 2081.26278 43.2247138C2081.50624 42.5995891 2082.00421 42.1016747 2082.6294 41.8582366L2083.5 37.7958984 2084.3706 41.8582366C2084.99579 42.1016747 2085.49376 42.5995891 2085.73722 43.2247138L2089.8 44.0952148 2085.73722 44.9657159zM2046.13722 75.5623956C2045.89376 76.1875203 2045.39579 76.6854347 2044.7706 76.9288728L2043.9 80.9912109 2043.0294 76.9288728C2042.40421 76.6854347 2041.90624 76.1875203 2041.66278 75.5623956L2037.6 74.6918945 2041.66278 73.8213935C2041.90624 73.1962688 2042.40421 72.6983544 2043.0294 72.4549163L2043.9 68.3925781 2044.7706 72.4549163C2045.39579 72.6983544 2045.89376 73.1962688 2046.13722 73.8213935L2050.2 74.6918945 2046.13722 75.5623956zM2010.13722 23.3680596C2009.89376 23.9931843 2009.39579 24.4910988 2008.7706 24.7345369L2007.9 28.796875 2007.0294 24.7345369C2006.40421 24.4910988 2005.90624 23.9931843 2005.66278 23.3680596L2001.6 22.4975586 2005.66278 21.6270576C2005.90624 21.0019328 2006.40421 20.5040184 2007.0294 20.2605803L2007.9 16.1982422 2008.7706 20.2605803C2009.39579 20.5040184 2009.89376 21.0019328 2010.13722 21.6270576L2014.2 22.4975586 2010.13722 23.3680596zM2092.93722 88.1610284C2092.69376 88.7861531 2092.19579 89.2840675 2091.5706 89.5275056L2090.7 93.5898438 2089.8294 89.5275056C2089.20421 89.2840675 2088.70624 88.7861531 2088.46278 88.1610284L2084.4 87.2905273 2088.46278 86.4200263C2088.70624 85.7949016 2089.20421 85.2969872 2089.8294 85.0535491L2090.7 80.9912109 2091.5706 85.0535491C2092.19579 85.2969872 2092.69376 85.7949016 2092.93722 86.4200263L2097 87.2905273 2092.93722 88.1610284zM2150.53722 57.5643487C2150.29376 58.1894734 2149.79579 58.6873878 2149.1706 58.9308259L2148.3 62.9931641 2147.4294 58.9308259C2146.80421 58.6873878 2146.30624 58.1894734 2146.06278 57.5643487L2142 56.6938477 2146.06278 55.8233466C2146.30624 55.1982219 2146.80421 54.7003075 2147.4294 54.4568694L2148.3 50.3945312 2149.1706 54.4568694C2149.79579 54.7003075 2150.29376 55.1982219 2150.53722 55.8233466L2154.6 56.6938477 2150.53722 57.5643487zM2186.53722 10.7694268C2186.29376 11.3945515 2185.79579 11.8924659 2185.1706 12.1359041L2184.3 16.1982422 2183.4294 12.1359041C2182.80421 11.8924659 2182.30624 11.3945515 2182.06278 10.7694268L2178 9.89892578 2182.06278 9.02842475C2182.30624 8.40330003 2182.80421 7.90538561 2183.4294 7.66194751L2184.3 3.59960938 2185.1706 7.66194751C2185.79579 7.90538561 2186.29376 8.40330003 2186.53722 9.02842475L2190.6 9.89892578 2186.53722 10.7694268zM2220.73722 75.5623956C2220.49376 76.1875203 2219.99579 76.6854347 2219.3706 76.9288728L2218.5 80.9912109 2217.6294 76.9288728C2217.00421 76.6854347 2216.50624 76.1875203 2216.26278 75.5623956L2212.2 74.6918945 2216.26278 73.8213935C2216.50624 73.1962688 2217.00421 72.6983544 2217.6294 72.4549163L2218.5 68.3925781 2219.3706 72.4549163C2219.99579 72.6983544 2220.49376 73.1962688 2220.73722 73.8213935L2224.8 74.6918945 2220.73722 75.5623956zM2233.33722 44.9657159C2233.09376 45.5908406 2232.59579 46.088755 2231.9706 46.3321931L2231.1 50.3945313 2230.2294 46.3321931C2229.60421 46.088755 2229.10624 45.5908406 2228.86278 44.9657159L2224.8 44.0952148 2228.86278 43.2247138C2229.10624 42.5995891 2229.60421 42.1016747 2230.2294 41.8582366L2231.1 37.7958984 2231.9706 41.8582366C2232.59579 42.1016747 2233.09376 42.5995891 2233.33722 43.2247138L2237.4 44.0952148 2233.33722 44.9657159zM2321.53722 16.1688409C2321.29376 16.7939656 2320.79579 17.29188 2320.1706 17.5353181L2319.3 21.5976563 2318.4294 17.5353181C2317.80421 17.29188 2317.30624 16.7939656 2317.06278 16.1688409L2313 15.2983398 2317.06278 14.4278388C2317.30624 13.8027141 2317.80421 13.3047997 2318.4294 13.0613616L2319.3 8.99902344 2320.1706 13.0613616C2320.79579 13.3047997 2321.29376 13.8027141 2321.53722 14.4278388L2325.6 15.2983398 2321.53722 16.1688409z"/>
      <path d="M2321.53722,25.1678643 C2321.29376,25.792989 2320.79579,26.2909034 2320.1706,26.5343416 L2319.3,30.5966797 L2318.4294,26.5343416 C2317.80421,26.2909034 2317.30624,25.792989 2317.06278,25.1678643 L2313,24.2973633 L2317.06278,23.4268623 C2317.30624,22.8017375 2317.80421,22.3038231 2318.4294,22.060385 L2319.3,17.9980469 L2320.1706,22.060385 C2320.79579,22.3038231 2321.29376,22.8017375 2321.53722,23.4268623 L2325.6,24.2973633 L2321.53722,25.1678643 Z"/>
    </g>
    <g fill="#FFFFFF" transform="translate(1405.8 257.372)">
      <path d="M107.074442,102.530065 C106.587513,103.780314 105.591576,104.776143 104.341191,105.263019 L102.6,113.387695 L100.858809,105.263019 C99.6084239,104.776143 98.612487,103.780314 98.125558,102.530065 L90,100.789062 L98.125558,99.0480604 C98.612487,97.797811 99.6084239,96.8019822 100.858809,96.315106 L102.6,88.1904297 L104.341191,96.315106 C105.591576,96.8019822 106.587513,97.797811 107.074442,99.0480604 L115.2,100.789062 L107.074442,102.530065 Z"/>
      <path d="M107.074442 102.530065C106.587513 103.780314 105.591576 104.776143 104.341191 105.263019L102.6 113.387695 100.858809 105.263019C99.6084239 104.776143 98.612487 103.780314 98.125558 102.530065L90 100.789062 98.125558 99.0480604C98.612487 97.797811 99.6084239 96.8019822 100.858809 96.315106L102.6 88.1904297 104.341191 96.315106C105.591576 96.8019822 106.587513 97.797811 107.074442 99.0480604L115.2 100.789062 107.074442 102.530065zM17.074442 59.3347521C16.587513 60.5850015 15.5915761 61.5808303 14.341191 62.0677065L12.6 70.1923828 10.858809 62.0677065C9.60842389 61.5808303 8.61248699 60.5850015 8.12555795 59.3347521L0 57.59375 8.12555795 55.8527479C8.61248699 54.6024985 9.60842389 53.6066697 10.858809 53.1197935L12.6 44.9951172 14.341191 53.1197935C15.5915761 53.6066697 16.587513 54.6024985 17.074442 55.8527479L25.2 57.59375 17.074442 59.3347521zM222.274442 165.523229C221.787513 166.773478 220.791576 167.769307 219.541191 168.256183L217.8 176.380859 216.058809 168.256183C214.808424 167.769307 213.812487 166.773478 213.325558 165.523229L205.2 163.782227 213.325558 162.041225C213.812487 160.790975 214.808424 159.795146 216.058809 159.30827L217.8 151.183594 219.541191 159.30827C220.791576 159.795146 221.787513 160.790975 222.274442 162.041225L230.4 163.782227 222.274442 165.523229zM296.074442 115.128697C295.587513 116.378947 294.591576 117.374776 293.341191 117.861652L291.6 125.986328 289.858809 117.861652C288.608424 117.374776 287.612487 116.378947 287.125558 115.128697L279 113.387695 287.125558 111.646693C287.612487 110.396444 288.608424 109.400615 289.858809 108.913739L291.6 100.789062 293.341191 108.913739C294.591576 109.400615 295.587513 110.396444 296.074442 111.646693L304.2 113.387695 296.074442 115.128697zM355.474442 89.9314317C354.987513 91.1816812 353.991576 92.17751 352.741191 92.6643862L351 100.789063 349.258809 92.6643862C348.008424 92.17751 347.012487 91.1816812 346.525558 89.9314317L338.4 88.1904297 346.525558 86.4494276C347.012487 85.1991782 348.008424 84.2033494 349.258809 83.7164731L351 75.5917969 352.741191 83.7164731C353.991576 84.2033494 354.987513 85.1991782 355.474442 86.4494276L363.6 88.1904297 355.474442 89.9314317zM247.474442 59.3347521C246.987513 60.5850015 245.991576 61.5808303 244.741191 62.0677065L243 70.1923828 241.258809 62.0677065C240.008424 61.5808303 239.012487 60.5850015 238.525558 59.3347521L230.4 57.59375 238.525558 55.8527479C239.012487 54.6024985 240.008424 53.6066697 241.258809 53.1197935L243 44.9951172 244.741191 53.1197935C245.991576 53.6066697 246.987513 54.6024985 247.474442 55.8527479L255.6 57.59375 247.474442 59.3347521zM323.074442 14.3396349C322.587513 15.5898843 321.591576 16.5857131 320.341191 17.0725894L318.6 25.1972656 316.858809 17.0725894C315.608424 16.5857131 314.612487 15.5898843 314.125558 14.3396349L306 12.5986328 314.125558 10.8576308C314.612487 9.60738131 315.608424 8.61155248 316.858809 8.12467627L318.6 0 320.341191 8.12467627C321.591576 8.61155248 322.587513 9.60738131 323.074442 10.8576308L331.2 12.5986328 323.074442 14.3396349z"/>
      <path d="M323.074442,14.3396349 C322.587513,15.5898843 321.591576,16.5857131 320.341191,17.0725894 L318.6,25.1972656 L316.858809,17.0725894 C315.608424,16.5857131 314.612487,15.5898843 314.125558,14.3396349 L306,12.5986328 L314.125558,10.8576308 C314.612487,9.60738131 315.608424,8.61155248 316.858809,8.12467627 L318.6,0 L320.341191,8.12467627 C321.591576,8.61155248 322.587513,9.60738131 323.074442,10.8576308 L331.2,12.5986328 L323.074442,14.3396349 Z"/>
    </g>
    <g transform="translate(2174 351)">
      <g fill="#E4E8CF" fill-opacity=".35">
        <ellipse cx="145.8" cy="145.784" rx="117" ry="116.987"/>
        <ellipse cx="144.9" cy="144.884" rx="128.7" ry="128.686"/>
        <ellipse cx="144" cy="143.984" rx="144" ry="143.984"/>
      </g>
      <ellipse cx="145.8" cy="143.984" fill="#EFF3D7" rx="108" ry="107.988"/>
      <g transform="translate(45 61.193)">
        <g transform="translate(90)">
          <ellipse cx="8.1" cy="8.099" fill="#E8EAD5" rx="8.1" ry="8.099"/>
          <ellipse cx="8.1" cy="8.099" fill="#DCDFC3" rx="6.3" ry="6.299"/>
        </g>
        <g transform="translate(55.8 43.195)">
          <ellipse cx="9" cy="8.999" fill="#E8EAD5" rx="9" ry="8.999"/>
          <ellipse cx="9" cy="8.999" fill="#DCDFC3" rx="7" ry="6.999"/>
        </g>
        <g transform="translate(57.6 5.4)">
          <ellipse cx="3.6" cy="3.6" fill="#E8EAD5" rx="3.6" ry="3.6"/>
          <ellipse cx="3.6" cy="3.6" fill="#DCDFC3" rx="2.8" ry="2.8"/>
        </g>
        <g transform="translate(30.6 37.796)">
          <ellipse cx="5.4" cy="5.399" fill="#E8EAD5" rx="5.4" ry="5.399"/>
          <ellipse cx="5.4" cy="5.399" fill="#DCDFC3" rx="4.2" ry="4.2"/>
        </g>
        <g transform="translate(19.8 62.993)">
          <ellipse cx="5.4" cy="5.399" fill="#E8EAD5" rx="5.4" ry="5.399"/>
          <ellipse cx="5.4" cy="5.399" fill="#DCDFC3" rx="4.2" ry="4.2"/>
        </g>
        <g transform="translate(43.2 79.191)">
          <ellipse cx="5.4" cy="5.399" fill="#E8EAD5" rx="5.4" ry="5.399"/>
          <ellipse cx="5.4" cy="5.399" fill="#DCDFC3" rx="4.2" ry="4.2"/>
        </g>
        <g transform="translate(55.8 93.59)">
          <ellipse cx="9" cy="8.999" fill="#E8EAD5" rx="9" ry="8.999"/>
          <ellipse cx="9" cy="8.999" fill="#DCDFC3" rx="7" ry="6.999"/>
        </g>
        <g transform="translate(91.8 124.187)">
          <ellipse cx="3.6" cy="3.6" fill="#E8EAD5" rx="3.6" ry="3.6"/>
          <ellipse cx="3.6" cy="3.6" fill="#DCDFC3" rx="2.8" ry="2.8"/>
        </g>
        <g transform="translate(64.8 149.384)">
          <ellipse cx="3.6" cy="3.6" fill="#E8EAD5" rx="3.6" ry="3.6"/>
          <ellipse cx="3.6" cy="3.6" fill="#DCDFC3" rx="2.8" ry="2.8"/>
        </g>
        <g transform="translate(160.2 77.392)">
          <ellipse cx="9" cy="8.999" fill="#E8EAD5" rx="9" ry="8.999"/>
          <ellipse cx="9" cy="8.999" fill="#DCDFC3" rx="7" ry="6.999"/>
        </g>
        <g transform="translate(154.8 32.396)">
          <ellipse cx="6.3" cy="6.299" fill="#E8EAD5" rx="6.3" ry="6.299"/>
          <ellipse cx="6.3" cy="6.299" fill="#DCDFC3" rx="4.9" ry="4.899"/>
        </g>
        <g transform="translate(124.2 53.994)">
          <ellipse cx="6.3" cy="6.299" fill="#E8EAD5" rx="6.3" ry="6.299"/>
          <ellipse cx="6.3" cy="6.299" fill="#DCDFC3" rx="4.9" ry="4.899"/>
        </g>
        <g transform="translate(149.4 140.385)">
          <ellipse cx="6.3" cy="6.299" fill="#E8EAD5" rx="6.3" ry="6.299"/>
          <ellipse cx="6.3" cy="6.299" fill="#DCDFC3" rx="4.9" ry="4.899"/>
        </g>
        <g transform="translate(102.6 163.782)">
          <ellipse cx="6.3" cy="6.299" fill="#E8EAD5" rx="6.3" ry="6.299"/>
          <ellipse cx="6.3" cy="6.299" fill="#DCDFC3" rx="4.9" ry="4.899"/>
        </g>
        <g transform="translate(124.2 118.787)">
          <ellipse cx="6.3" cy="6.299" fill="#E8EAD5" rx="6.3" ry="6.299"/>
          <ellipse cx="6.3" cy="6.299" fill="#DCDFC3" rx="4.9" ry="4.899"/>
        </g>
        <g transform="translate(109.8 88.19)">
          <ellipse cx="6.3" cy="6.299" fill="#E8EAD5" rx="6.3" ry="6.299"/>
          <ellipse cx="6.3" cy="6.299" fill="#DCDFC3" rx="4.9" ry="4.899"/>
        </g>
        <g transform="translate(12.6 124.187)">
          <ellipse cx="3.6" cy="3.6" fill="#E8EAD5" rx="3.6" ry="3.6"/>
          <ellipse cx="3.6" cy="3.6" fill="#DCDFC3" rx="2.8" ry="2.8"/>
        </g>
        <g transform="translate(3.6 100.79)">
          <ellipse cx="1.8" cy="1.8" fill="#E8EAD5" rx="1.8" ry="1.8"/>
          <ellipse cx="1.8" cy="1.8" fill="#DCDFC3" rx="1.4" ry="1.4"/>
        </g>
        <g transform="translate(0 86.39)">
          <ellipse cx="1.8" cy="1.8" fill="#E8EAD5" rx="1.8" ry="1.8"/>
          <ellipse cx="1.8" cy="1.8" fill="#DCDFC3" rx="1.4" ry="1.4"/>
        </g>
        <g transform="translate(28.8 154.783)">
          <ellipse cx="1.8" cy="1.8" fill="#E8EAD5" rx="1.8" ry="1.8"/>
          <ellipse cx="1.8" cy="1.8" fill="#DCDFC3" rx="1.4" ry="1.4"/>
        </g>
        <g transform="translate(43.2 163.782)">
          <ellipse cx="3.6" cy="3.6" fill="#E8EAD5" rx="3.6" ry="3.6"/>
          <ellipse cx="3.6" cy="3.6" fill="#DCDFC3" rx="2.8" ry="2.8"/>
        </g>
        <g transform="translate(39.6 118.787)">
          <ellipse cx="3.6" cy="3.6" fill="#E8EAD5" rx="3.6" ry="3.6"/>
          <ellipse cx="3.6" cy="3.6" fill="#DCDFC3" rx="2.8" ry="2.8"/>
        </g>
        <g transform="translate(99 55.794)">
          <ellipse cx="3.6" cy="3.6" fill="#E8EAD5" rx="3.6" ry="3.6"/>
          <ellipse cx="3.6" cy="3.6" fill="#DCDFC3" rx="2.8" ry="2.8"/>
        </g>
        <g transform="translate(138.6 21.598)">
          <ellipse cx="3.6" cy="3.6" fill="#E8EAD5" rx="3.6" ry="3.6"/>
          <ellipse cx="3.6" cy="3.6" fill="#DCDFC3" rx="2.8" ry="2.8"/>
        </g>
        <g transform="translate(138.6 21.598)">
          <ellipse cx="3.6" cy="3.6" fill="#E8EAD5" rx="3.6" ry="3.6"/>
          <ellipse cx="3.6" cy="3.6" fill="#DCDFC3" rx="2.8" ry="2.8"/>
        </g>
      </g>
    </g>
  </g>
</svg>
