<svg xmlns="http://www.w3.org/2000/svg" width="600" height="600" viewBox="0 0 600 600" xmlns:xlink="http://www.w3.org/1999/xlink">
  <defs>
    <path id="a" d="M58,15.9992976 C58,8.26769904 64.2667964,2 71.9966086,2 L414.003391,2 C421.733505,2 428,8.27347714 428,15.9992976 L428,252 L58,252 L58,15.9992976 Z"/>
    <mask id="c" width="370" height="250" x="0" y="0" fill="white">
      <use xlink:href="#a"/>
    </mask>
    <path id="b" d="M56,16.0028561 C56,7.16472273 63.1578255,0 71.9954893,0 L414.004511,0 C422.838576,0 430,7.16937347 430,16.0028561 L430,252 L56,252 L56,16.0028561 Z"/>
    <mask id="d" width="374" height="252" x="0" y="0" fill="white">
      <use xlink:href="#b"/>
    </mask>
  </defs>
  <g fill="none" fill-rule="evenodd">
    <rect width="600" height="600" fill="#FAB154"/>
    <g transform="translate(58 162)">
      <rect width="342" height="224" x="71" y="16" fill="#9FBCD9"/>
      <g transform="translate(157 229)">
        <polygon fill="#D8D8D8" points="5.064 2 165.559 2 170 10 0 10"/>
        <rect width="10" height="8" x="6" fill="#7091C8"/>
        <rect width="10" height="8" x="122" fill="#A7C7D8"/>
        <rect width="10" height="8" x="134" fill="#A7C7D8"/>
        <rect width="10" height="8" x="146" fill="#A7C7D8"/>
        <circle cx="22" cy="4" r="4" fill="#F2BF5C"/>
        <circle cx="32" cy="4" r="4" fill="#D0011B"/>
        <circle cx="42" cy="4" r="4" fill="#50E3C2"/>
        <circle cx="54" cy="4" r="4" fill="#1C99DF"/>
        <circle cx="66" cy="4" r="4" fill="#87D3E0"/>
        <circle cx="78" cy="4" r="4" fill="#7ED321"/>
        <circle cx="90" cy="4" r="4" fill="#BD0FE1"/>
        <circle cx="100" cy="4" r="4" fill="#FD8A77"/>
        <circle cx="110" cy="4" r="4" fill="#4BB5F8"/>
      </g>
      <circle cx="240" cy="10" r="2" fill="#5D5D5D"/>
      <use stroke="#000000" stroke-width="28" mask="url(#c)" xlink:href="#a"/>
      <rect width="484" height="16" y="252" fill="#E8E9EA" rx="2"/>
      <polygon fill="#838487" points=".318 266 484 266 470.451 274 12.474 274"/>
      <path fill="#B4B6B9" d="M202,252 L284,252 L284,256 C284,258.209139 282.211054,260 280.00337,260 L205.99663,260 C203.789352,260 202,258.204644 202,256 L202,252 Z"/>
      <use stroke="#707070" stroke-width="4" mask="url(#d)" opacity=".454" xlink:href="#b"/>
      <path fill="#3C3C3C" d="M168.257719 194.843818C155.567466 194.843818 145.243918 184.52027 145.243918 171.830017 145.243918 171.543284 145.249699 171.256551 145.260104 170.969818 145.391909 167.37756 146.32726 163.963355 148.041878 160.820853 150.484891 156.347585 154.39741 152.763421 159.057979 150.729697 161.964621 149.460209 165.058564 148.817372 168.257719 148.817372 180.947972 148.817372 191.270364 159.14092 191.270364 171.830017 191.270364 184.52027 180.947972 194.843818 168.257719 194.843818L168.257719 194.843818zM168.088916 102.156182L168.088916 147.669283C164.791486 147.692407 161.596955 148.359524 158.595507 149.669478 155.632212 150.963246 152.964901 152.859384 150.746188 155.191403L150.746188 102.156182 168.088916 102.156182zM122.997822 124.123638L140.34055 124.123638 140.34055 183.088916 122.997822 183.088916 122.997822 124.123638zM96.4056373 143.778731L113.748366 143.778731 113.748366 183.088916 96.4056373 183.088916 96.4056373 143.778731zM169.245098 147.710906L169.245098 101 149.590006 101 149.590006 156.496732 149.598099 156.496732C148.630375 157.670257 147.75977 158.92587 147.027907 160.267042 145.226575 163.567941 144.242664 167.154417 144.103922 170.927039 144.093517 171.22649 144.087736 171.528253 144.087736 171.830017 144.087736 175.895153 145.107488 179.723271 146.888009 183.088916L141.496732 183.088916 141.496732 122.967457 121.84164 122.967457 121.84164 183.088916 114.904548 183.088916 114.904548 142.622549 95.2494554 142.622549 95.2494554 183.088916 86 183.088916 86 184.245098 95.2494554 184.245098 114.904548 184.245098 121.84164 184.245098 141.496732 184.245098 147.277642 184.245098 147.277642 183.784938C151.446834 191.068884 159.279966 196 168.257719 196 181.583872 196 192.426546 185.157326 192.426546 171.830017 192.426546 158.836844 182.112247 148.234656 169.245098 147.710906L169.245098 147.710906zM179.651314 161.24679L179.651314 161.121922 179.651314 159.965741 159.996221 159.965741 159.996221 161.121922 178.495132 161.121922 178.495132 161.239853 156.764693 182.970292 157.582113 183.787713 178.495132 162.874694 178.495132 178.464651 179.651314 178.464651 179.651314 161.718512 179.887175 161.482651 179.651314 161.24679zM222.841584 64.6062921L222.841584 119.695401 215.426802 119.695401 215.426802 90.0320347 197.416901 90.0320347 197.416901 119.695401 190 119.695401 190 120.754807 197.416901 120.754807 215.426802 120.754807 222.841584 120.754807 240.851485 120.754807 247.207921 120.754807 265.218881 120.754807 272.634723 120.754807 290.644624 120.754807 297 120.754807 297 119.695401 290.644624 119.695401 290.644624 72.0221337 272.634723 72.0221337 272.634723 119.695401 265.218881 119.695401 265.218881 84.735005 247.207921 84.735005 247.207921 119.695401 240.851485 119.695401 240.851485 64.6062921 222.841584 64.6062921zM223.90205 65.665698L239.792079 65.665698 239.792079 119.695401 223.90205 119.695401 223.90205 65.665698zM273.694129 73.0815396L289.584158 73.0815396 289.584158 119.695401 273.694129 119.695401 273.694129 73.0815396zM248.267327 85.7944109L264.158416 85.7944109 264.158416 119.695401 248.267327 119.695401 248.267327 85.7944109zM198.476307 91.0914406L214.367396 91.0914406 214.367396 119.695401 198.476307 119.695401 198.476307 91.0914406zM206.056992 66.4851485C209.482051 66.4851485 212.268289 69.2713861 212.268289 72.6964455 212.268289 76.121505 209.482051 78.908802 206.056992 78.908802 202.631933 78.908802 199.845695 76.121505 199.845695 72.6964455 199.845695 69.2713861 202.631933 66.4851485 206.056992 66.4851485M231.482735 41.0594059C234.907794 41.0594059 237.694032 43.8456436 237.694032 47.270703 237.694032 50.6957624 234.907794 53.4830594 231.482735 53.4830594 228.057675 53.4830594 225.271438 50.6957624 225.271438 47.270703 225.271438 43.8456436 228.057675 41.0594059 231.482735 41.0594059M255.849071 61.1881188C259.274131 61.1881188 262.060368 63.9743564 262.060368 67.3994158 262.060368 70.8244752 259.274131 73.6117723 255.849071 73.6117723 252.424012 73.6117723 249.637774 70.8244752 249.637774 67.3994158 249.637774 63.9743564 252.424012 61.1881188 255.849071 61.1881188M281.274814 48.4752475C284.699873 48.4752475 287.486111 51.2614851 287.486111 54.6865446 287.486111 58.111604 284.699873 60.898901 281.274814 60.898901 277.849754 60.898901 275.063517 58.111604 275.063517 54.6865446 275.063517 51.2614851 277.849754 48.4752475 281.274814 48.4752475M206.056992 79.9682079C210.065784 79.9682079 213.327695 76.706297 213.327695 72.6964455 213.327695 70.5861089 212.417665 68.6876535 210.976873 67.358099L225.587141 51.5093861C226.90822 53.3421584 229.055636 54.5424653 231.482735 54.5424653 234.342071 54.5424653 236.815784 52.8781386 238.002319 50.4701089L249.969368 63.1395446C249.098537 64.3377327 248.578368 65.8071287 248.578368 67.3994158 248.578368 71.4092673 251.840279 74.6711782 255.849071 74.6711782 259.857863 74.6711782 263.119774 71.4092673 263.119774 67.3994158 263.119774 66.4851485 262.942853 65.6132574 262.633507 64.8059901L274.941685 58.2472079C276.190725 60.4592475 278.559556 61.9583069 281.274814 61.9583069 285.283606 61.9583069 288.545517 58.696396 288.545517 54.6865446 288.545517 50.6777525 285.283606 47.4158416 281.274814 47.4158416 277.266022 47.4158416 274.004111 50.6777525 274.004111 54.6865446 274.004111 55.6039901 274.182091 56.478 274.492497 57.2863267L262.184319 63.8440495C260.937398 61.6298911 258.565388 60.1287129 255.849071 60.1287129 253.815012 60.1287129 251.975883 60.9709406 250.654804 62.3216832L238.436675 49.3884554C238.6422 48.7178515 238.753438 48.0080495 238.753438 47.270703 238.753438 43.2619109 235.491527 40 231.482735 40 227.473943 40 224.212032 43.2619109 224.212032 47.270703 224.212032 48.4593564 224.504428 49.5791485 225.012943 50.5718119L210.149477 66.6917327C208.983071 65.894 207.574061 65.4257426 206.056992 65.4257426 202.0482 65.4257426 198.786289 68.6876535 198.786289 72.6964455 198.786289 76.706297 202.0482 79.9682079 206.056992 79.9682079M353.165406 99.7975635C376.148214 99.8111703 394.843857 118.477506 394.843857 141.419494 394.843857 141.609989 394.83967 141.90201 394.835484 142.151118L353.833182 142.151118 353.163313 141.698956 353.165406 99.7975635zM395.336839 143.197789C395.890528 143.197789 395.890528 143.050208 395.890528 141.544048 395.890528 118.015924 376.713417 99 353.142379 99L352.63893 99.2375944 352.116641 99.2375944 352.116641 142.254738 353.511854 143.197789 395.336839 143.197789zM347.567075 189.953329C324.673234 189.953329 306.046671 171.292226 306.046671 148.354425 306.046671 125.810171 324.317366 107.266296 346.883599 106.772267L346.883599 149.075581 347.559748 150.230059 347.93027 150.105506 347.93027 150.293906 347.719889 150.422647 380.20752 174.298266C372.358532 184.25525 360.493466 189.953329 347.567075 189.953329L347.567075 189.953329zM347.93027 148.834847L347.93027 105.713036 347.401701 105.718269C324.021158 105.935977 305 125.061801 305 148.354425 305 171.868942 324.095471 191 347.567075 191 361.002148 191 373.321469 184.99106 381.366185 174.51388L381.692746 174.088932 348.330099 149.655437 347.93027 148.834847zM389.005734 171.590109L357.702935 148.43146 397.23571 148.43146C396.865189 156.557816 393.816235 165.136333 389.005734 171.590109L389.005734 171.590109zM354.528381 147.384788L389.212975 173.044982 389.52593 172.637827C394.751959 165.831323 398.033274 156.592356 398.303315 147.923824L398.319015 147.384788 354.528381 147.384788z"/>
    </g>
  </g>
</svg>
