<svg xmlns="http://www.w3.org/2000/svg" width="175" height="171" viewBox="0 0 175 171">
  <g fill="none" fill-rule="evenodd">
    <path fill="#80BE1F" d="M24.8,141.3 C23.8,143.1 23.3,144.8 23.2,146.3 C23.2,148.6 24.2,150.5 26.1,151.6 C27.2,152.2 28.4,152.6 29.5,152.7 C29.7,152.7 30,152.8 30.2,152.8 L32.6,152.9 L76.3,152.9 L76.3,140.7 L76.3,119.3 L37.6,119.3 L24.8,141.3 L24.8,141.3 Z"/>
    <path fill="#16831C" d="M124.5,32.7 L109.5,6.6 C107.7,3.4 103.1,0.8 99.4,0.7 L67.9,0.6 C66.6,0.6 65.3,0.9 64,1.4 L64,2 C65.2,1.9 66.4,2.2 67.5,2.9 C68.8,3.7 70,5 71.1,6.8 L83.7,28.9 L95.5,49.4 L80.9,57.8 L126.8,70.2 L139.2,24.3 L124.5,32.7 L124.5,32.7 Z"/>
    <path fill="#80BE1F" d="M68.8 8.1C67.8 6.3 66.5 5 65.2 4.2 63.2 3 61.1 3 59.1 4.1 58.1 4.8 57.1 5.6 56.4 6.5 56.3 6.7 56.1 6.9 56 7.1L54.7 9.1 32.8 46.8 43.4 52.9 61.9 63.6 81.4 30.1 68.8 8.1 68.8 8.1zM164.9 117.7C167 117.7 168.8 117.2 170.2 116.5 172.3 115.3 173.4 113.4 173.4 111.1 173.3 109.8 173.1 108.6 172.6 107.4 172.5 107.2 172.4 107 172.3 106.8L171.1 104.6 148.3 65.9 137.4 72.3 118.4 83.4 138.6 117.8 164.9 117.7 164.9 117.7z"/>
    <polygon fill="#AFC228" points="79.2 20.3 96.3 50.2 83.1 57.6 123.3 68.4 86.2 57.1 98.3 50.2" opacity=".26"/>
    <g fill="#16831C" transform="translate(83 103)">
      <path d="M34,51.1 L64.1,51.2 C67.8,51.2 72.3,48.6 74.2,45.4 L90,18.1 C90.6,17 91,15.7 91.2,14.3 L90.7,14 C90.2,15.1 89.3,15.9 88.2,16.6 C86.9,17.3 85.1,17.8 83,17.7 L57.6,17.6 L33.9,17.6 L33.9,0.8 L0.3,34.3 L33.8,67.9 L34,51.1 L34,51.1 Z"/>
      <path d="M32.1,29 L60.7,29.9 C64.3,30 68.6,27.7 70.4,24.7 L85.1,0.1 C84.6,3.91353616e-14 84.6,1.4 84.1,1.2 L70.7,22.4 C68.5,26.3 65,28.8 61.5,28.7 L31.7,27.9 L31.8,42.1 L1,12.2 L0.6,12.7 L32.1,44.7 L32.1,29 L32.1,29 Z" opacity=".55" transform="translate(2 21)"/>
      <polygon points="67.3 18.1 32.8 18 33 2.8 3.6 32.3 31.9 5.7 31.9 19.7" opacity=".26"/>
    </g>
    <g fill="#16831C" transform="translate(0 61)">
      <path d="M17.5,20.9 L2.4,46.9 C0.5,50.1 0.5,55.3 2.4,58.5 L18,85.9 C18.6,87 19.6,88 20.7,88.9 L21.2,88.6 C20.6,87.6 20.2,86.4 20.3,85.1 C20.3,83.6 20.8,81.9 21.9,80.1 L34.7,58.2 L46.6,37.7 L61.1,46.1 L48.9,0.2 L3,12.4 L17.5,20.9 L17.5,20.9 Z"/>
      <path d="M21.8,80.1 L34.6,58.2 L37.8,52.8 C28.8,37.1 25.9,21.6 24.2,9.4 L7.5,14 L20.1,21.7 L4.3,48.3 C2.4,51.5 2.8,54.2 4.6,57.4 L17.9,81.9 C18.5,83 19.4,88 20.5,88.9 L21,88.6 C20.4,87.6 20,86.4 20.1,85.1 C20.3,83.6 20.8,81.9 21.8,80.1 L21.8,80.1 Z" opacity=".58"/>
      <path d="M17.4,19.5 L2.3,43.8 C0.4,46.8 0.3,51.8 1.9,54.8 L15.8,79.8 C16.2,79.4 15,78.7 15.4,78.4 L3.8,56.2 C1.6,52.3 1.1,48.1 3,45.1 L18.6,19.7 L6.2,12.7 L47.5,1 L47.3,0.4 L3.8,11.7 L17.4,19.5 L17.4,19.5 Z" opacity=".55" transform="translate(1 2)"/>
      <polygon points="29.4 66.3 46.7 36.5 59.8 44.2 49 4 57.9 41.8 45.8 34.8" opacity=".26"/>
    </g>
  </g>
</svg>
