<svg xmlns="http://www.w3.org/2000/svg" width="300" height="512" viewBox="0 0 300 512">
  <g fill="none" fill-rule="evenodd">
    <rect width="300" height="116" y="396" fill="#322D4C"/>
    <rect width="300" height="198" fill="#6E7989"/>
    <path fill="#FFFFFF" d="M166.057778 130L146.668129 130 146.668129 57.1728516C145.74039 57.4820979 144.534348 57.8068017 143.049965 58.1469727 141.565583 58.4871436 140.390465 58.7809232 139.524575 59.0283203L139.524575 48.4521484C141.070806 48.0192036 142.988105 47.4625685 145.276528 46.7822266 147.564951 46.1018846 149.946112 45.4060908 152.420083 44.6948242 154.894053 43.9835576 157.337063 43.2723017 159.749184 42.5610352 162.161306 41.8497686 164.264149 41.2467473 166.057778 40.7519531L166.057778 130zM154.184606 156.692383C152.555692 157.11426 151.149456 157.325195 149.965856 157.325195 147.721704 157.325195 145.9976 156.734869 144.793493 155.554199 143.589385 154.373529 142.98734 152.681652 142.98734 150.478516 142.98734 148.292958 143.589385 146.611334 144.793493 145.433594 145.9976 144.255853 147.712915 143.666992 149.939489 143.666992 151.363324 143.666992 152.775419 143.833983 154.175817 144.167969L154.175817 146.286133C152.552762 145.729489 151.219767 145.451172 150.176793 145.451172 148.799833 145.451172 147.736367 145.890621 146.986364 146.769531 146.23636 147.648442 145.861364 148.893547 145.861364 150.504883 145.861364 152.063484 146.262727 153.286617 147.065465 154.174316 147.868204 155.062016 148.975614 155.505859 150.387731 155.505859 150.698279 155.505859 151.061557 155.461915 151.477575 155.374023L151.477575 151.09375 154.184606 151.09375 154.184606 156.692383zM156.782715 157L156.782715 143.992188 161.203613 143.992188C162.51026 143.992188 163.504879 144.238279 164.1875 144.730469 164.870121 145.222659 165.211426 145.940425 165.211426 146.883789 165.211426 148.44825 164.171397 149.555661 162.091309 150.206055 164.522961 150.797855 165.73877 151.990225 165.73877 153.783203 165.73877 154.820318 165.382816 155.61572 164.670898 156.169434 163.958981 156.723147 162.937995 157 161.60791 157L156.782715 157zM159.331543 149.40625L159.973145 149.40625C160.734867 149.40625 161.339842 149.218752 161.788086 148.84375 162.23633 148.468748 162.460449 147.958988 162.460449 147.314453 162.460449 146.716794 162.280275 146.311036 161.919922 146.097168 161.559569 145.8833 160.878423 145.776367 159.876465 145.776367L159.331543 145.776367 159.331543 149.40625zM159.331543 155.154297L159.911621 155.154297C161.048346 155.154297 161.832029 155.032716 162.262695 154.789551 162.693362 154.546386 162.908691 154.102542 162.908691 153.458008 162.908691 152.795895 162.62012 152.245119 162.042969 151.805664 161.465817 151.366209 160.737797 151.146484 159.858887 151.146484L159.331543 151.146484 159.331543 155.154297zM115.868533 178L115.868533 164.992188 118.575564 164.992188 118.575564 176.154297 124.437869 176.154297 124.437869 178 115.868533 178zM124.478361 178L129.540861 164.992188 132.247892 164.992188 137.310392 178 134.533048 178 133.179532 174.52832 127.800626 174.52832 126.447111 178 124.478361 178zM128.468595 172.796875L132.511564 172.796875 130.490079 167.611328 128.468595 172.796875zM149.110649 177.692383C147.481735 178.11426 146.075499 178.325195 144.891899 178.325195 142.647747 178.325195 140.923643 177.734869 139.719536 176.554199 138.515428 175.373529 137.913383 173.681652 137.913383 171.478516 137.913383 169.292958 138.515428 167.611334 139.719536 166.433594 140.923643 165.255853 142.638958 164.666992 144.865532 164.666992 146.289367 164.666992 147.701462 164.833983 149.10186 165.167969L149.10186 167.286133C147.478805 166.729489 146.145811 166.451172 145.102837 166.451172 143.725877 166.451172 142.662411 166.890621 141.912407 167.769531 141.162403 168.648442 140.787407 169.893547 140.787407 171.504883 140.787407 173.063484 141.18877 174.286617 141.991508 175.174316 142.794247 176.062016 143.901658 176.505859 145.313774 176.505859 145.624323 176.505859 145.9876 176.461915 146.403618 176.374023L146.403618 172.09375 149.110649 172.09375 149.110649 177.692383zM151.708758 178L151.708758 164.992188 156.577899 164.992188C159.22049 164.992188 160.541766 166.067372 160.541766 168.217773 160.541766 169.020512 160.317647 169.751462 159.869403 170.410645 159.421158 171.069828 158.804465 171.575194 158.019305 171.926758L162.273211 178 158.977313 178 155.751727 172.682617 154.257586 172.682617 154.257586 178 151.708758 178zM154.257586 170.898438L154.88161 170.898438C156.84451 170.898438 157.825946 170.1045 157.825946 168.516602 157.825946 167.35644 156.949978 166.776367 155.198016 166.776367L154.257586 166.776367 154.257586 170.898438zM163.693586 178L163.693586 164.992188 166.400617 164.992188 166.400617 178 163.693586 178zM169.227242 178L169.227242 164.992188 171.609077 164.992188 177.638374 173.87793 177.638374 164.992188 179.809273 164.992188 179.809273 178 177.383492 178 171.39814 169.114258 171.39814 178 169.227242 178zM193.01578 177.692383C191.386866 178.11426 189.98063 178.325195 188.79703 178.325195 186.552878 178.325195 184.828774 177.734869 183.624667 176.554199 182.420559 175.373529 181.818514 173.681652 181.818514 171.478516 181.818514 169.292958 182.420559 167.611334 183.624667 166.433594 184.828774 165.255853 186.544089 164.666992 188.770663 164.666992 190.194498 164.666992 191.606593 164.833983 193.006991 165.167969L193.006991 167.286133C191.383936 166.729489 190.050942 166.451172 189.007968 166.451172 187.631008 166.451172 186.567542 166.890621 185.817538 167.769531 185.067534 168.648442 184.692538 169.893547 184.692538 171.504883 184.692538 173.063484 185.093901 174.286617 185.896639 175.174316 186.699378 176.062016 187.806789 176.505859 189.218905 176.505859 189.529454 176.505859 189.892731 176.461915 190.308749 176.374023L190.308749 172.09375 193.01578 172.09375 193.01578 177.692383z"/>
    <g transform="translate(0 198)">
      <rect width="300" height="198" fill="#6E7989"/>
      <rect width="300" height="33" fill="#B6CEF2" fill-opacity=".492"/>
      <rect width="300" height="33" y="33" fill="#B6CEF2" fill-opacity=".2"/>
      <rect width="300" height="33" y="66" fill="#B6CEF2" fill-opacity=".493"/>
      <rect width="300" height="33" y="99" fill="#B6CEF2" fill-opacity=".2"/>
      <rect width="300" height="33" y="132" fill="#B6CEF2" fill-opacity=".494"/>
      <rect width="300" height="33" y="165" fill="#B6CEF2" fill-opacity=".2"/>
      <path fill="#FFFFFF" d="M6.21240234 189L6.21240234 179.605469 11.4619141 179.605469 11.4619141 180.602051 7.54541016 180.602051 7.54541016 183.617188 10.8271484 183.617188 10.8271484 184.601074 7.54541016 184.601074 7.54541016 188.003418 11.7348633 188.003418 11.7348633 189 6.21240234 189zM12.9447714 189L12.9447714 179.605469 15.5028768 179.605469C16.6369971 179.605469 17.4516048 179.796954 17.9467245 180.179932 18.4418442 180.562909 18.6894003 181.192378 18.6894003 182.068359 18.6894003 183.067062 18.350862 183.849932 17.6737753 184.416992 16.9966886 184.984052 16.0572448 185.267578 14.8554159 185.267578L14.2650839 185.267578 14.2650839 189 12.9447714 189zM14.2650839 184.258301L14.8046347 184.258301C15.5959798 184.258301 16.2074645 184.076336 16.6391073 183.712402 17.0707501 183.348468 17.2865683 182.834313 17.2865683 182.169922 17.2865683 181.607094 17.1172991 181.205079 16.7787558 180.963867 16.4402124 180.722655 15.8752766 180.602051 15.0839315 180.602051L14.2650839 180.602051 14.2650839 184.258301zM23.599992 189.234863C22.2966 189.234863 21.2481893 188.783126 20.4547283 187.879639 19.6612673 186.976151 19.2645428 185.781746 19.2645428 184.296387 19.2645428 182.802564 19.6633832 181.608159 20.461076 180.713135 21.2587688 179.818111 22.3241064 179.370605 23.6571209 179.370605 24.9859036 179.370605 26.0501833 179.817053 26.849992 180.709961 27.6498007 181.602869 28.049699 182.794101 28.049699 184.283691 28.049699 185.802905 27.6498007 187.007889 26.849992 187.898682 26.0501833 188.789474 24.9668608 189.234863 23.599992 189.234863L23.599992 189.234863zM23.6190349 188.238281C24.5796517 188.238281 25.3223201 187.892337 25.8470623 187.200439 26.3718045 186.508541 26.6341717 185.53207 26.6341717 184.270996 26.6341717 183.048008 26.3707466 182.091638 25.8438885 181.401855 25.3170304 180.712073 24.5881151 180.367188 23.6571209 180.367188 22.7218949 180.367188 21.9919217 180.713131 21.4671795 181.405029 20.9424373 182.096927 20.6800701 183.058588 20.6800701 184.290039 20.6800701 185.517259 20.9403214 186.482093 21.4608318 187.18457 21.9813422 187.887048 22.7007361 188.238281 23.6190349 188.238281L23.6190349 188.238281zM31.4432009 189.234863C30.8126638 189.234863 30.0065196 189.097332 29.0247438 188.822266L29.0247438 187.501953C30.0826918 187.992841 30.952312 188.238281 31.6336305 188.238281 32.1583728 188.238281 32.5804877 188.10075 32.899988 187.825684 33.2194883 187.550617 33.379236 187.188804 33.379236 186.740234 33.379236 186.372068 33.2745007 186.058921 33.065027 185.800781 32.8555533 185.542642 32.4694081 185.254884 31.9065798 184.9375L31.2591188 184.562988C30.4593101 184.105955 29.8954323 183.675376 29.5674684 183.27124 29.2395046 182.867104 29.0755251 182.396324 29.0755251 181.858887 29.0755251 181.13525 29.3378922 180.539634 29.8626345 180.072021 30.3873767 179.604408 31.0559898 179.370605 31.8684938 179.370605 32.5921303 179.370605 33.3559573 179.49121 34.1599977 179.732422L34.1599977 180.951172C33.1697584 180.561847 32.4313218 180.367188 31.9446657 180.367188 31.4834004 180.367188 31.1025448 180.489908 30.8020876 180.735352 30.5016303 180.980795 30.351404 181.289712 30.351404 181.662109 30.351404 181.975262 30.4614289 182.25244 30.6814821 182.493652 30.9015353 182.734864 31.3035495 183.022622 31.8875368 183.356934L32.5603884 183.737793C33.3728924 184.199058 33.939944 184.634926 34.2615602 185.04541 34.5831764 185.455894 34.7439821 185.94889 34.7439821 186.524414 34.7439821 187.34115 34.4424714 187.997068 33.8394411 188.492188 33.2364107 188.987307 32.437672 189.234863 31.4432009 189.234863L31.4432009 189.234863zM38.524691 189L38.524691 180.602051 35.1921715 180.602051 35.1921715 179.605469 43.1902183 179.605469 43.1902183 180.602051 39.8576988 180.602051 39.8576988 189 38.524691 189zM53.5192142 189L53.0558353 188.441406C52.3618214 188.97038 51.5514454 189.234863 50.624683 189.234863 49.6429072 189.234863 48.835705 188.95028 48.2030521 188.381104 47.5703992 187.811927 47.2540775 187.087244 47.2540775 186.207031 47.2540775 184.759758 48.0179045 183.777997 49.5455814 183.261719 49.1224022 182.495764 48.9108158 181.858889 48.9108158 181.351074 48.9108158 180.796709 49.1319236 180.328046 49.5741459 179.945068 50.0163681 179.562091 50.5527397 179.370605 51.1832767 179.370605 51.7926548 179.370605 52.2951725 179.549396 52.6908451 179.906982 53.0865176 180.264569 53.2843509 180.718422 53.2843509 181.268555 53.2843509 182.208013 52.596695 183.024736 51.2213627 183.71875 51.8518997 184.835943 52.5861046 185.879064 53.4239994 186.848145 53.8090924 186.289548 54.0016361 185.498215 54.0016361 184.474121L53.9952884 184.004395 55.2394291 184.004395C55.2394291 185.392422 54.8247197 186.590001 53.9952884 187.597168 54.3761497 188.079592 54.8099019 188.547198 55.296558 189L53.5192142 189zM52.5099369 187.717773C51.6212606 186.625971 50.7749148 185.388191 49.9708744 184.004395 48.9933304 184.393719 48.5045658 185.026363 48.5045658 185.902344 48.5045658 186.566735 48.7299053 187.131671 49.1805912 187.597168 49.631277 188.062665 50.1803438 188.29541 50.827808 188.29541 51.416027 188.29541 51.9767311 188.102867 52.5099369 187.717773L52.5099369 187.717773zM50.7643314 182.925293C51.6614713 182.514809 52.1100345 181.968916 52.1100345 181.287598 52.1100345 180.635902 51.7841914 180.310059 51.1324955 180.310059 50.4892631 180.310059 50.1676517 180.638018 50.1676517 181.293945 50.1676517 181.725588 50.366543 182.269365 50.7643314 182.925293L50.7643314 182.925293zM60.5474288 189L60.5474288 179.605469 65.7969406 179.605469 65.7969406 180.602051 61.8804367 180.602051 61.8804367 183.750488 65.1685226 183.750488 65.1685226 184.734375 61.8804367 184.734375 61.8804367 189 60.5474288 189zM69.438001 189L69.438001 180.602051 66.1054815 180.602051 66.1054815 179.605469 74.1035284 179.605469 74.1035284 180.602051 70.7710088 180.602051 70.7710088 189 69.438001 189zM75.1103114 189L75.1103114 179.605469 77.6684169 179.605469C78.8025372 179.605469 79.6171449 179.796954 80.1122646 180.179932 80.6073842 180.562909 80.8549404 181.192378 80.8549404 182.068359 80.8549404 183.067062 80.5164021 183.849932 79.8393154 184.416992 79.1622286 184.984052 78.2227849 185.267578 77.020956 185.267578L76.4306239 185.267578 76.4306239 189 75.1103114 189zM76.4306239 184.258301L76.9701747 184.258301C77.7615198 184.258301 78.3730046 184.076336 78.8046474 183.712402 79.2362902 183.348468 79.4521083 182.834313 79.4521083 182.169922 79.4521083 181.607094 79.2828392 181.205079 78.9442958 180.963867 78.6057525 180.722655 78.0408167 180.602051 77.2494716 180.602051L76.4306239 180.602051 76.4306239 184.258301zM85.7820808 189L85.7820808 179.605469 87.0325691 179.605469 87.0325691 184.226562 90.8348151 179.605469 92.1741706 179.605469 88.49253 184.086914 92.8279792 189 91.1395026 189 87.0325691 184.239258 87.0325691 189 85.7820808 189zM97.7385709 189.234863C96.435179 189.234863 95.3867682 188.783126 94.5933072 187.879639 93.7998462 186.976151 93.4031217 185.781746 93.4031217 184.296387 93.4031217 182.802564 93.8019621 181.608159 94.5996549 180.713135 95.3973477 179.818111 96.4626853 179.370605 97.7956998 179.370605 99.1244825 179.370605 100.188762 179.817053 100.988571 180.709961 101.78838 181.602869 102.188278 182.794101 102.188278 184.283691 102.188278 185.802905 101.78838 187.007889 100.988571 187.898682 100.188762 188.789474 99.1054397 189.234863 97.7385709 189.234863L97.7385709 189.234863zM97.7576139 188.238281C98.7182306 188.238281 99.460899 187.892337 99.9856412 187.200439 100.510383 186.508541 100.772751 185.53207 100.772751 184.270996 100.772751 183.048008 100.509325 182.091638 99.9824674 181.401855 99.4556093 180.712073 98.726694 180.367188 97.7956998 180.367188 96.8604738 180.367188 96.1305006 180.713131 95.6057584 181.405029 95.0810162 182.096927 94.818649 183.058588 94.818649 184.290039 94.818649 185.517259 95.0789003 186.482093 95.5994107 187.18457 96.1199212 187.887048 96.839315 188.238281 97.7576139 188.238281L97.7576139 188.238281zM103.740959 189L103.740959 179.605469 105.048577 179.605469 109.777581 186.86084 109.777581 179.605469 110.920159 179.605469 110.920159 189 109.618889 189 104.883538 181.744629 104.883538 189 103.740959 189zM115.265809 189L115.265809 180.602051 111.933289 180.602051 111.933289 179.605469 119.931336 179.605469 119.931336 180.602051 116.598817 180.602051 116.598817 189 115.265809 189zM124.721323 189.234863C123.417931 189.234863 122.36952 188.783126 121.576059 187.879639 120.782598 186.976151 120.385873 185.781746 120.385873 184.296387 120.385873 182.802564 120.784714 181.608159 121.582407 180.713135 122.380099 179.818111 123.445437 179.370605 124.778451 179.370605 126.107234 179.370605 127.171514 179.817053 127.971323 180.709961 128.771131 181.602869 129.17103 182.794101 129.17103 184.283691 129.17103 185.802905 128.771131 187.007889 127.971323 187.898682 127.171514 188.789474 126.088191 189.234863 124.721323 189.234863L124.721323 189.234863zM124.740366 188.238281C125.700982 188.238281 126.443651 187.892337 126.968393 187.200439 127.493135 186.508541 127.755502 185.53207 127.755502 184.270996 127.755502 183.048008 127.492077 182.091638 126.965219 181.401855 126.438361 180.712073 125.709446 180.367188 124.778451 180.367188 123.843225 180.367188 123.113252 180.713131 122.58851 181.405029 122.063768 182.096927 121.801401 183.058588 121.801401 184.290039 121.801401 185.517259 122.061652 186.482093 122.582162 187.18457 123.102673 187.887048 123.822067 188.238281 124.740366 188.238281L124.740366 188.238281zM130.723711 189L130.723711 179.605469 135.973223 179.605469 135.973223 180.602051 132.056719 180.602051 132.056719 183.617188 135.338457 183.617188 135.338457 184.601074 132.056719 184.601074 132.056719 188.003418 136.246172 188.003418 136.246172 189 130.723711 189zM137.45608 189L137.45608 179.605469 140.29983 179.605469C141.201202 179.605469 141.892032 179.80436 142.37234 180.202148 142.852648 180.599937 143.092799 181.177568 143.092799 181.935059 143.092799 183.187669 142.460155 184.076332 141.19485 184.601074L144.330592 189 142.692897 189 140.020533 185.026367 138.776393 185.026367 138.776393 189 137.45608 189zM138.776393 184.029785L139.208033 184.029785C140.883823 184.029785 141.721705 183.371751 141.721705 182.055664 141.721705 181.086584 141.019238 180.602051 139.614283 180.602051L138.776393 180.602051 138.776393 184.029785zM212.271484 184.429688C212.593101 183.769528 212.945392 183.274416 213.328369 182.944336 213.711346 182.614256 214.124998 182.449219 214.569336 182.449219 215.195641 182.449219 215.725665 182.710528 216.159424 183.233154 216.593183 183.755781 216.810059 184.391598 216.810059 185.140625 216.810059 185.953129 216.575198 186.654538 216.105469 187.244873 215.63574 187.835208 215.077152 188.130371 214.429688 188.130371 214.040363 188.130371 213.638348 187.960044 213.223633 187.619385 212.808917 187.278726 212.383628 186.765628 211.947754 186.080078 211.621906 186.740238 211.267499 187.23535 210.884521 187.56543 210.501544 187.895509 210.090009 188.060547 209.649902 188.060547 209.027829 188.060547 208.498863 187.799238 208.062988 187.276611 207.627114 186.753985 207.40918 186.118168 207.40918 185.369141 207.40918 184.556637 207.644041 183.855228 208.11377 183.264893 208.583498 182.674558 209.142087 182.379395 209.789551 182.379395 210.174644 182.379395 210.574542 182.55078 210.989258 182.893555 211.403973 183.23633 211.831378 183.748369 212.271484 184.429688L212.271484 184.429688zM211.541504 185.527832L211.395508 185.324707C210.90462 184.660316 210.540691 184.219158 210.303711 184.001221 210.066731 183.783283 209.83187 183.674316 209.599121 183.674316 209.260578 183.674316 208.971762 183.849933 208.732666 184.201172 208.49357 184.552411 208.374023 184.979815 208.374023 185.483398 208.374023 185.961591 208.505207 186.360431 208.767578 186.679932 209.029949 186.999432 209.357908 187.15918 209.751465 187.15918 210.04769 187.15918 210.344969 187.023764 210.643311 186.75293 210.941652 186.482095 211.241047 186.073733 211.541504 185.527832L211.541504 185.527832zM212.677734 184.981934L212.830078 185.185059C213.232098 185.735192 213.582274 186.147785 213.880615 186.422852 214.178957 186.697918 214.425455 186.835449 214.620117 186.835449 214.962892 186.835449 215.252766 186.659832 215.489746 186.308594 215.726726 185.957355 215.845215 185.52995 215.845215 185.026367 215.845215 184.548175 215.714031 184.149334 215.45166 183.829834 215.189289 183.510334 214.86133 183.350586 214.467773 183.350586 214.167316 183.350586 213.867921 183.487059 213.56958 183.76001 213.271239 184.03296 212.97396 184.440264 212.677734 184.981934L212.677734 184.981934z"/>
      <g fill="#FFFFFF" transform="translate(4 10)">
        <path d="M1.21240234 13L1.21240234 3.60546875 3.64990234 3.60546875C4.58936017 3.60546875 5.30981195 3.78320135 5.8112793 4.13867188 6.31274665 4.4941424 6.56347656 5.00618155 6.56347656 5.67480469 6.56347656 6.81315673 5.92025383 7.62353274 4.63378906 8.10595703 6.16992956 8.57568594 6.93798828 9.42414751 6.93798828 10.6513672 6.93798828 11.4130897 6.68408457 11.9949524 6.17626953 12.3969727 5.66845449 12.7989929 4.93636546 13 3.97998047 13L1.21240234 13zM2.53271484 12.003418L2.80566406 12.003418C3.78320801 12.003418 4.41585143 11.9420579 4.70361328 11.8193359 5.25374624 11.5865874 5.52880859 11.1549511 5.52880859 10.5244141 5.52880859 9.96581752 5.27913661 9.50138531 4.77978516 9.13110352 4.2804337 8.76082172 3.65625375 8.57568359 2.90722656 8.57568359L2.53271484 8.57568359 2.53271484 12.003418zM2.53271484 7.73144531L2.95800781 7.73144531C3.66894887 7.73144531 4.22013151 7.57910309 4.61157227 7.27441406 5.00301302 6.96972504 5.19873047 6.54020459 5.19873047 5.98583984 5.19873047 5.06330919 4.48356835 4.60205078 3.05322266 4.60205078L2.53271484 4.60205078 2.53271484 7.73144531zM13.1371542 9.40722656L11.5375448 5.35742188 9.93158779 9.40722656 13.1371542 9.40722656zM14.5463339 13L13.5243612 10.3974609 9.54438075 10.3974609 8.50971279 13 7.27191982 13 10.997994 3.60546875 12.3183065 3.60546875 15.9872518 13 14.5463339 13zM11.6391073 3.59912109C11.2455507 3.59912109 10.9101862 3.45841612 10.6330038 3.17700195 10.3558214 2.89558779 10.2172323 2.55599157 10.2172323 2.15820312 10.2172323 1.76041468 10.3568794 1.42081846 10.6361776 1.1394043 10.9154759.857990129 11.25613.717285156 11.6581503.717285156 12.0559387.717285156 12.3955349.856932197 12.6769491 1.13623047 12.9583633 1.41552874 13.0990683 1.75618289 13.0990683 2.15820312 13.0990683 2.56445516 12.9583633 2.90616723 12.6769491 3.18334961 12.3955349 3.46053198 12.0495911 3.59912109 11.6391073 3.59912109L11.6391073 3.59912109zM11.645455 3.05322266C11.8993625 3.05322266 12.1141227 2.96647222 12.2897421 2.79296875 12.4653615 2.61946528 12.5531698 2.40576299 12.5531698 2.15185547 12.5531698 1.90641153 12.4653615 1.69694097 12.2897421 1.5234375 12.1141227 1.34993403 11.9035942 1.26318359 11.6581503 1.26318359 11.4084746 1.26318359 11.1968881 1.34993403 11.0233847 1.5234375 10.8498812 1.69694097 10.7631308 1.9085274 10.7631308 2.15820312 10.7631308 2.40364706 10.8498812 2.61417555 11.0233847 2.78979492 11.1968881 2.96541429 11.4042428 3.05322266 11.645455 3.05322266L11.645455 3.05322266zM17.0321209 13L17.0321209 3.60546875 18.3397381 3.60546875 23.068742 10.8608398 23.068742 3.60546875 24.2113201 3.60546875 24.2113201 13 22.9100506 13 18.174699 5.74462891 18.174699 13 17.0321209 13zM26.3225954 13L26.3225954 3.60546875 29.4456423 3.60546875C30.3766365 3.60546875 31.1288262 3.7091461 31.7022341 3.91650391 32.2756419 4.12386171 32.771812 4.47509518 33.1907595 4.97021484 33.8551508 5.75732815 34.1873415 6.79410164 34.1873415 8.08056641 34.1873415 9.64209765 33.774748 10.852372 32.9495485 11.7114258 32.1243491 12.5704796 30.9627396 13 29.4646852 13L26.3225954 13zM27.6556032 12.003418L29.3631227 12.003418C30.5818788 12.003418 31.4451514 11.675459 31.9529665 11.0195312 32.4988676 10.3212856 32.7718141 9.38395771 32.7718141 8.20751953 32.7718141 7.10302182 32.5030994 6.23551748 31.9656618 5.60498047 31.6398138 5.2198874 31.2504948 4.9564623 30.797693 4.81469727 30.3448913 4.67293223 29.663583 4.60205078 28.7537477 4.60205078L27.6556032 4.60205078 27.6556032 12.003418zM35.7463707 13L35.7463707 3.60546875 38.1838707 3.60546875C39.1233285 3.60546875 39.8437803 3.78320135 40.3452476 4.13867188 40.846715 4.4941424 41.0974449 5.00618155 41.0974449 5.67480469 41.0974449 6.81315673 40.4542222 7.62353274 39.1677574 8.10595703 40.7038979 8.57568594 41.4719566 9.42414751 41.4719566 10.6513672 41.4719566 11.4130897 41.2180529 11.9949524 40.7102379 12.3969727 40.2024228 12.7989929 39.4703338 13 38.5139488 13L35.7463707 13zM37.0666832 12.003418L37.3396324 12.003418C38.3171763 12.003418 38.9498198 11.9420579 39.2375816 11.8193359 39.7877146 11.5865874 40.0627769 11.1549511 40.0627769 10.5244141 40.0627769 9.96581752 39.8131049 9.50138531 39.3137535 9.13110352 38.814402 8.76082172 38.1902221 8.57568359 37.4411949 8.57568359L37.0666832 8.57568359 37.0666832 12.003418zM37.0666832 7.73144531L37.4919761 7.73144531C38.2029172 7.73144531 38.7540998 7.57910309 39.1455406 7.27441406 39.5369814 6.96972504 39.7326988 6.54020459 39.7326988 5.98583984 39.7326988 5.06330919 39.0175367 4.60205078 37.587191 4.60205078L37.0666832 4.60205078 37.0666832 7.73144531zM42.9103803 13L42.9103803 3.60546875 45.7541303 3.60546875C46.655502 3.60546875 47.3463317 3.80435999 47.8266401 4.20214844 48.3069485 4.59993688 48.5470991 5.17756783 48.5470991 5.93505859 48.5470991 7.18766902 47.9144557 8.07633201 46.6491499 8.60107422L49.7848921 13 48.1471967 13 45.4748335 9.02636719 44.2306928 9.02636719 44.2306928 13 42.9103803 13zM44.2306928 8.02978516L44.6623335 8.02978516C46.3381231 8.02978516 47.1760053 7.37175137 47.1760053 6.05566406 47.1760053 5.0865837 46.4735384 4.60205078 45.0685835 4.60205078L44.2306928 4.60205078 44.2306928 8.02978516zM50.8170658 13L50.8170658 3.60546875 56.0665775 3.60546875 56.0665775 4.60205078 52.1500736 4.60205078 52.1500736 7.6171875 55.4318119 7.6171875 55.4318119 8.60107422 52.1500736 8.60107422 52.1500736 12.003418 56.3395267 12.003418 56.3395267 13 50.8170658 13zM57.5494348 13L57.5494348 3.60546875 60.6724817 3.60546875C61.6034759 3.60546875 62.3556657 3.7091461 62.9290735 3.91650391 63.5024813 4.12386171 63.9986515 4.47509518 64.4175989 4.97021484 65.0819902 5.75732815 65.4141809 6.79410164 65.4141809 8.08056641 65.4141809 9.64209765 65.0015874 10.852372 64.1763879 11.7114258 63.3511885 12.5704796 62.189579 13 60.6915247 13L57.5494348 13zM58.8824426 12.003418L60.5899622 12.003418C61.8087182 12.003418 62.6719909 11.675459 63.1798059 11.0195312 63.7257071 10.3212856 63.9986536 9.38395771 63.9986536 8.20751953 63.9986536 7.10302182 63.7299388 6.23551748 63.1925012 5.60498047 62.8666532 5.2198874 62.4773342 4.9564623 62.0245325 4.81469727 61.5717307 4.67293223 60.8904224 4.60205078 59.9805872 4.60205078L58.8824426 4.60205078 58.8824426 12.003418zM66.9732101 13L66.9732101 3.60546875 70.096257 3.60546875C71.0272512 3.60546875 71.779441 3.7091461 72.3528488 3.91650391 72.9262566 4.12386171 73.4224268 4.47509518 73.8413742 4.97021484 74.5057655 5.75732815 74.8379562 6.79410164 74.8379562 8.08056641 74.8379562 9.64209765 74.4253627 10.852372 73.6001632 11.7114258 72.7749638 12.5704796 71.6133543 13 70.1152999 13L66.9732101 13zM68.3062179 12.003418L70.0137374 12.003418C71.2324935 12.003418 72.0957662 11.675459 72.6035812 11.0195312 73.1494824 10.3212856 73.4224288 9.38395771 73.4224288 8.20751953 73.4224288 7.10302182 73.1537141 6.23551748 72.6162765 5.60498047 72.2904285 5.2198874 71.9011095 4.9564623 71.4483078 4.81469727 70.995506 4.67293223 70.3141977 4.60205078 69.4043624 4.60205078L68.3062179 4.60205078 68.3062179 12.003418zM76.3969854 13L76.3969854 3.60546875 81.6464971 3.60546875 81.6464971 4.60205078 77.7299932 4.60205078 77.7299932 7.6171875 81.0117315 7.6171875 81.0117315 8.60107422 77.7299932 8.60107422 77.7299932 12.003418 81.9194463 12.003418 81.9194463 13 76.3969854 13zM204.079102 13L204.079102 11.9018555C204.443036 11.0512653 205.179356 10.1245167 206.288086 9.12158203L207.005371 8.48046875C207.927902 7.64680573 208.38916 6.8195028 208.38916 5.99853516 208.38916 5.47379295 208.231528 5.06119942 207.91626 4.76074219 207.600991 4.46028496 207.168297 4.31005859 206.618164 4.31005859 205.966468 4.31005859 205.198409 4.56184644 204.313965 5.06542969L204.313965 3.9609375C205.147628 3.56738084 205.974931 3.37060547 206.795898 3.37060547 207.676111 3.37060547 208.38281 3.60758227 208.916016 4.08154297 209.449221 4.55550367 209.71582 5.18391536 209.71582 5.96679688 209.71582 6.52962521 209.581463 7.02896917 209.312744 7.46484375 209.044025 7.90071833 208.543623 8.42968439 207.811523 9.05175781L207.329102 9.46435547C206.326167 10.3149457 205.74642 11.1274375 205.589844 11.9018555L209.671387 11.9018555 209.671387 13 204.079102 13zM222.977433 12.7460938C221.839081 13.0719417 220.846741 13.2348633 220.000383 13.2348633 218.50656 13.2348633 217.36082 12.8095746 216.563127 11.9589844 215.765434 11.1083942 215.366594 9.88965637 215.366594 8.30273438 215.366594 6.74543492 215.770724 5.53410263 216.578996 4.66870117 217.387268 3.80329971 218.521371 3.37060547 219.98134 3.37060547 220.937725 3.37060547 221.932181 3.51236837 222.964738 3.79589844L222.964738 5.02734375C221.66981 4.58723738 220.677469 4.3671875 219.987687 4.3671875 218.972057 4.3671875 218.183898 4.71207337 217.623185 5.40185547 217.062473 6.09163756 216.782121 7.06281926 216.782121 8.31542969 216.782121 9.55534474 217.082574 10.5191209 217.683488 11.2067871 218.284403 11.8944533 219.126517 12.2382812 220.209855 12.2382812 220.654193 12.2382812 221.134495 12.1599943 221.650773 12.003418L221.650773 8.94384766 222.977433 8.94384766 222.977433 12.7460938zM224.999841 13L224.999841 3.60546875 227.437341 3.60546875C228.376799 3.60546875 229.097251 3.78320135 229.598718 4.13867188 230.100186 4.4941424 230.350916 5.00618155 230.350916 5.67480469 230.350916 6.81315673 229.707693 7.62353274 228.421228 8.10595703 229.957369 8.57568594 230.725427 9.42414751 230.725427 10.6513672 230.725427 11.4130897 230.471524 11.9949524 229.963709 12.3969727 229.455894 12.7989929 228.723805 13 227.76742 13L224.999841 13zM226.320154 12.003418L226.593103 12.003418C227.570647 12.003418 228.203291 11.9420579 228.491052 11.8193359 229.041185 11.5865874 229.316248 11.1549511 229.316248 10.5244141 229.316248 9.96581752 229.066576 9.50138531 228.567224 9.13110352 228.067873 8.76082172 227.443693 8.57568359 226.694666 8.57568359L226.320154 8.57568359 226.320154 12.003418zM226.320154 7.73144531L226.745447 7.73144531C227.456388 7.73144531 228.007571 7.57910309 228.399011 7.27441406 228.790452 6.96972504 228.98617 6.54020459 228.98617 5.98583984 228.98617 5.06330919 228.271007 4.60205078 226.840662 4.60205078L226.320154 4.60205078 226.320154 7.73144531zM235.976298 14.8789062L239.359599 3.60546875 240.343486 3.60546875 236.960185 14.8789062 235.976298 14.8789062zM246.267208 13L246.267208 3.60546875 248.114376 3.60546875 250.716915 10.8735352 253.395626 3.60546875 255.046017 3.60546875 255.046017 13 253.801876 13 253.801876 5.35742188 251.212032 12.371582 249.923458 12.371582 247.409786 5.33837891 247.409786 13 246.267208 13zM257.150944 13L257.150944 3.60546875 258.458562 3.60546875 263.187566 10.8608398 263.187566 3.60546875 264.330144 3.60546875 264.330144 13 263.028874 13 258.293523 5.74462891 258.293523 13 257.150944 13zM266.441419 13L266.441419 3.60546875 269.564466 3.60546875C270.49546 3.60546875 271.24765 3.7091461 271.821058 3.91650391 272.394465 4.12386171 272.890636 4.47509518 273.309583 4.97021484 273.973974 5.75732815 274.306165 6.79410164 274.306165 8.08056641 274.306165 9.64209765 273.893572 10.852372 273.068372 11.7114258 272.243173 12.5704796 271.081563 13 269.583509 13L266.441419 13zM267.774427 12.003418L269.481946 12.003418C270.700702 12.003418 271.563975 11.675459 272.07179 11.0195312 272.617691 10.3212856 272.890638 9.38395771 272.890638 8.20751953 272.890638 7.10302182 272.621923 6.23551748 272.084485 5.60498047 271.758637 5.2198874 271.369318 4.9564623 270.916517 4.81469727 270.463715 4.67293223 269.782407 4.60205078 268.872571 4.60205078L267.774427 4.60205078 267.774427 12.003418zM3.05322266 78.2348633C2.42268565 78.2348633 1.61654137 78.0973321.634765625 77.8222656L.634765625 76.5019531C1.69271362 76.992841 2.56233383 77.2382812 3.24365234 77.2382812 3.76839455 77.2382812 4.19050947 77.1007501 4.51000977 76.8256836 4.82951006 76.5506171 4.98925781 76.1888043 4.98925781 75.7402344 4.98925781 75.3720685 4.88452253 75.0589206 4.67504883 74.8007812 4.46557512 74.5426419 4.0794299 74.2548844 3.51660156 73.9375L2.86914062 73.5629883C2.06933194 73.1059547 1.50545411 72.6753764 1.17749023 72.2712402.849526355 71.8671041.685546875 71.3963243.685546875 70.8588867.685546875 70.1352503.947914043 69.5396345 1.47265625 69.0720215 1.99739846 68.6044085 2.66601156 68.3706055 3.47851562 68.3706055 4.20215206 68.3706055 4.96597905 68.4912097 5.77001953 68.7324219L5.77001953 69.9511719C4.77978021 69.561847 4.04134358 69.3671875 3.5546875 69.3671875 3.09342217 69.3671875 2.71256661 69.4899076 2.41210937 69.7353516 2.11165214 69.9807955 1.96142578 70.2897117 1.96142578 70.6621094 1.96142578 70.975262 2.07145072 71.2524402 2.29150391 71.4936523 2.51155709 71.7348645 2.9135713 72.022622 3.49755859 72.3569336L4.17041016 72.737793C4.98291422 73.1990583 5.54996584 73.6349263 5.87158203 74.0454102 6.19319822 74.455894 6.35400391 74.9488904 6.35400391 75.5244141 6.35400391 76.3411499 6.05249325 76.9970678 5.44946289 77.4921875 4.84643253 77.9873072 4.04769377 78.2348633 3.05322266 78.2348633L3.05322266 78.2348633zM7.82416591 68.6054688L9.15717372 68.6054688 9.15717372 74.5341797C9.15717372 75.4778693 9.33173252 76.1644673 9.68085536 76.5939941 10.0299782 77.023521 10.5853926 77.2382812 11.3471151 77.2382812 12.0919105 77.2382812 12.6198187 77.0362162 12.9308554 76.6320801 13.2418921 76.2279439 13.3974081 75.5434619 13.3974081 74.5786133L13.3974081 68.6054688 14.5653768 68.6054688 14.5653768 74.5595703C14.5653768 75.8418033 14.3019517 76.7748994 13.7750936 77.3588867 13.2482355 77.942874 12.4092954 78.2348633 11.2582479 78.2348633 10.0860416 78.2348633 9.22065308 77.9322947 8.66205654 77.3271484 8.10345999 76.7220022 7.82416591 75.7867902 7.82416591 74.5214844L7.82416591 68.6054688zM16.5941326 78L16.5941326 68.6054688 19.0316326 68.6054688C19.9710904 68.6054688 20.6915422 68.7832013 21.1930096 69.1386719 21.6944769 69.4941424 21.9452068 70.0061816 21.9452068 70.6748047 21.9452068 71.8131567 21.3019841 72.6235327 20.0155193 73.105957 21.5516598 73.5756859 22.3197185 74.4241475 22.3197185 75.6513672 22.3197185 76.4130897 22.0658148 76.9949524 21.5579998 77.3969727 21.0501848 77.7989929 20.3180957 78 19.3617107 78L16.5941326 78zM17.9144451 77.003418L18.1873943 77.003418C19.1649383 77.003418 19.7975817 76.9420579 20.0853435 76.8193359 20.6354765 76.5865874 20.9105389 76.1549511 20.9105389 75.5244141 20.9105389 74.9658175 20.6608669 74.5013853 20.1615154 74.1311035 19.662164 73.7608217 19.037984 73.5756836 18.2889568 73.5756836L17.9144451 73.5756836 17.9144451 77.003418zM17.9144451 72.7314453L18.3397381 72.7314453C19.0506791 72.7314453 19.6018618 72.5791031 19.9933025 72.2744141 20.3847433 71.969725 20.5804607 71.5402046 20.5804607 70.9858398 20.5804607 70.0633092 19.8652986 69.6020508 18.4349529 69.6020508L17.9144451 69.6020508 17.9144451 72.7314453zM23.7581423 78L23.7581423 68.6054688 26.8811891 68.6054688C27.8121834 68.6054688 28.5643731 68.7091461 29.1377809 68.9165039 29.7111887 69.1238617 30.2073589 69.4750952 30.6263063 69.9702148 31.2906977 70.7573282 31.6228884 71.7941016 31.6228884 73.0805664 31.6228884 74.6420977 31.2102948 75.852372 30.3850954 76.7114258 29.5598959 77.5704796 28.3982865 78 26.9002321 78L23.7581423 78zM25.0911501 77.003418L26.7986696 77.003418C28.0174257 77.003418 28.8806983 76.675459 29.3885134 76.0195312 29.9344145 75.3212856 30.207361 74.3839577 30.207361 73.2075195 30.207361 72.1030218 29.9386463 71.2355175 29.4012087 70.6049805 29.0753607 70.2198874 28.6860417 69.9564623 28.2332399 69.8146973 27.7804382 69.6729322 27.0991299 69.6020508 26.1892946 69.6020508L25.0911501 69.6020508 25.0911501 77.003418zM36.9651207 78.2348633C35.6617287 78.2348633 34.613318 77.7831263 33.819857 76.8796387 33.026396 75.9761511 32.6296715 74.7817457 32.6296715 73.2963867 32.6296715 71.8025641 33.0285119 70.6081588 33.8262047 69.7131348 34.6238974 68.8181108 35.6892351 68.3706055 37.0222496 68.3706055 38.3510323 68.3706055 39.415312 68.8170528 40.2151207 69.7099609 41.0149294 70.602869 41.4148277 71.7941006 41.4148277 73.2836914 41.4148277 74.8029047 41.0149294 76.0078894 40.2151207 76.8986816 39.415312 77.7894739 38.3319895 78.2348633 36.9651207 78.2348633L36.9651207 78.2348633zM36.9841636 77.2382812C37.9447804 77.2382812 38.6874488 76.8923374 39.212191 76.2004395 39.7369332 75.5085415 39.9993004 74.5320701 39.9993004 73.2709961 39.9993004 72.0480082 39.7358753 71.0916376 39.2090172 70.4018555 38.6821591 69.7120734 37.9532438 69.3671875 37.0222496 69.3671875 36.0870235 69.3671875 35.3570504 69.7131313 34.8323082 70.4050293 34.307566 71.0969273 34.0451988 72.0585876 34.0451988 73.2900391 34.0451988 74.5172587 34.3054501 75.4820928 34.8259605 76.1845703 35.3464709 76.8870478 36.0658648 77.2382812 36.9841636 77.2382812L36.9841636 77.2382812zM42.9675092 78L42.9675092 68.6054688 44.8146772 68.6054688 47.4172163 75.8735352 50.0959272 68.6054688 51.7463178 68.6054688 51.7463178 78 50.5021772 78 50.5021772 70.3574219 47.9123335 77.371582 46.6237592 77.371582 44.1100874 70.3383789 44.1100874 78 42.9675092 78zM53.8512455 78L53.8512455 68.6054688 59.1007572 68.6054688 59.1007572 69.6020508 55.1842533 69.6020508 55.1842533 72.6171875 58.4659916 72.6171875 58.4659916 73.6010742 55.1842533 73.6010742 55.1842533 77.003418 59.3737064 77.003418 59.3737064 78 53.8512455 78zM60.5836145 78L60.5836145 68.6054688 61.8912317 68.6054688 66.6202356 75.8608398 66.6202356 68.6054688 67.7628137 68.6054688 67.7628137 78 66.4615442 78 61.7261926 70.7446289 61.7261926 78 60.5836145 78zM69.874089 78L69.874089 68.6054688 75.1236007 68.6054688 75.1236007 69.6020508 71.2070968 69.6020508 71.2070968 72.6171875 74.4888351 72.6171875 74.4888351 73.6010742 71.2070968 73.6010742 71.2070968 77.003418 75.3965499 77.003418 75.3965499 78 69.874089 78zM76.606458 78L76.606458 68.6054688 79.450208 68.6054688C80.3515797 68.6054688 81.0424094 68.80436 81.5227178 69.2021484 82.0030262 69.5999369 82.2431768 70.1775678 82.2431768 70.9350586 82.2431768 72.187669 81.6105334 73.076332 80.3452276 73.6010742L83.4809698 78 81.8432744 78 79.1709112 74.0263672 77.9267705 74.0263672 77.9267705 78 76.606458 78zM77.9267705 73.0297852L78.3584112 73.0297852C80.0342008 73.0297852 80.872083 72.3717514 80.872083 71.0556641 80.872083 70.0865837 80.1696161 69.6020508 78.7646612 69.6020508L77.9267705 69.6020508 77.9267705 73.0297852zM204.320312 77.9301758L204.320312 76.762207C205.217452 77.1176776 205.924151 77.2954102 206.44043 77.2954102 207.037112 77.2954102 207.522703 77.1208514 207.897217 76.7717285 208.27173 76.4226057 208.458984 75.9708687 208.458984 75.4165039 208.458984 74.0961848 207.534352 73.4360352 205.685059 73.4360352L205.189941 73.4360352 205.189941 72.5917969 205.62793 72.5854492C207.362964 72.5854492 208.230469 71.9739644 208.230469 70.7509766 208.230469 69.7903598 207.659185 69.3100586 206.516602 69.3100586 205.890296 69.3100586 205.200525 69.4856753 204.447266 69.8369141L204.447266 68.7451172C205.187829 68.4954415 205.907223 68.3706055 206.605469 68.3706055 208.526702 68.3706055 209.487305 69.0963469 209.487305 70.5478516 209.487305 71.6523493 208.833503 72.4394508 207.525879 72.9091797 209.04086 73.2604184 209.79834 74.0898372 209.79834 75.3974609 209.79834 76.2819055 209.506351 76.9759089 208.922363 77.4794922 208.338376 77.9830754 207.536463 78.2348633 206.516602 78.2348633 205.936846 78.2348633 205.204757 78.1333018 204.320312 77.9301758L204.320312 77.9301758zM1.21240234 45L1.21240234 35.6054688 4.33544922 35.6054688C5.26644346 35.6054688 6.0186332 35.7091461 6.59204102 35.9165039 7.16544883 36.1238617 7.661619 36.4750952 8.08056641 36.9702148 8.74495775 37.7573282 9.07714844 38.7941016 9.07714844 40.0805664 9.07714844 41.6420977 8.66455491 42.852372 7.83935547 43.7114258 7.01415603 44.5704796 5.85254655 45 4.35449219 45L1.21240234 45zM2.54541016 44.003418L4.25292969 44.003418C5.47168578 44.003418 6.3349584 43.675459 6.84277344 43.0195312 7.3886746 42.3212856 7.66162109 41.3839577 7.66162109 40.2075195 7.66162109 39.1030218 7.39290633 38.2355175 6.85546875 37.6049805 6.52962077 37.2198874 6.14030174 36.9564623 5.6875 36.8146973 5.23469826 36.6729322 4.55338997 36.6020508 3.64355469 36.6020508L2.54541016 36.6020508 2.54541016 44.003418zM14.4193808 45.2348633C13.1159888 45.2348633 12.0675781 44.7831263 11.2741171 43.8796387 10.4806561 42.9761511 10.0839315 41.7817457 10.0839315 40.2963867 10.0839315 38.8025641 10.4827719 37.6081588 11.2804647 36.7131348 12.0781575 35.8181108 13.1434952 35.3706055 14.4765097 35.3706055 15.8052923 35.3706055 16.8695721 35.8170528 17.6693808 36.7099609 18.4691894 37.602869 18.8690878 38.7941006 18.8690878 40.2836914 18.8690878 41.8029047 18.4691894 43.0078894 17.6693808 43.8986816 16.8695721 44.7894739 15.7862496 45.2348633 14.4193808 45.2348633L14.4193808 45.2348633zM14.4384237 44.2382812C15.3990405 44.2382812 16.1417089 43.8923374 16.6664511 43.2004395 17.1911933 42.5085415 17.4535604 41.5320701 17.4535604 40.2709961 17.4535604 39.0480082 17.1901353 38.0916376 16.6632772 37.4018555 16.1364191 36.7120734 15.4075039 36.3671875 14.4765097 36.3671875 13.5412836 36.3671875 12.8113105 36.7131313 12.2865683 37.4050293 11.761826 38.0969273 11.4994589 39.0585876 11.4994589 40.2900391 11.4994589 41.5172587 11.7597102 42.4820928 12.2802206 43.1845703 12.800731 43.8870478 13.5201249 44.2382812 14.4384237 44.2382812L14.4384237 44.2382812zM20.4217693 45L20.4217693 35.6054688 22.2689373 35.6054688 24.8714764 42.8735352 27.5501873 35.6054688 29.2005779 35.6054688 29.2005779 45 27.9564373 45 27.9564373 37.3574219 25.3665935 44.371582 24.0780193 44.371582 21.5643474 37.3383789 21.5643474 45 20.4217693 45zM31.3055055 45L31.3055055 35.6054688 36.5550173 35.6054688 36.5550173 36.6020508 32.6385134 36.6020508 32.6385134 39.6171875 35.9202516 39.6171875 35.9202516 40.6010742 32.6385134 40.6010742 32.6385134 44.003418 36.8279665 44.003418 36.8279665 45 31.3055055 45zM38.0378746 45L38.0378746 35.6054688 39.3454918 35.6054688 44.0744957 42.8608398 44.0744957 35.6054688 45.2170738 35.6054688 45.2170738 45 43.9158043 45 39.1804527 37.7446289 39.1804527 45 38.0378746 45zM47.3283491 45L47.3283491 35.6054688 52.5778608 35.6054688 52.5778608 36.6020508 48.6613569 36.6020508 48.6613569 39.6171875 51.9430952 39.6171875 51.9430952 40.6010742 48.6613569 40.6010742 48.6613569 44.003418 52.85081 44.003418 52.85081 45 47.3283491 45zM54.0607181 45L54.0607181 35.6054688 56.9044681 35.6054688C57.8058398 35.6054688 58.4966695 35.80436 58.9769779 36.2021484 59.4572863 36.5999369 59.6974369 37.1775678 59.6974369 37.9350586 59.6974369 39.187669 59.0647935 40.076332 57.7994877 40.6010742L60.9352298 45 59.2975345 45 56.6251712 41.0263672 55.3810306 41.0263672 55.3810306 45 54.0607181 45zM55.3810306 40.0297852L55.8126712 40.0297852C57.4884609 40.0297852 58.3263431 39.3717514 58.3263431 38.0556641 58.3263431 37.0865837 57.6238762 36.6020508 56.2189212 36.6020508L55.3810306 36.6020508 55.3810306 40.0297852z"/>
        <polygon points="204.955 45 204.955 44.061 206.834 44.061 206.834 36.646 204.955 37.116 204.955 36.151 208.091 35.371 208.091 44.061 209.97 44.061 209.97 45"/>
        <path d="M1.21240234,111 L1.21240234,101.605469 L3.05957031,101.605469 L5.66210938,108.873535 L8.34082031,101.605469 L9.99121094,101.605469 L9.99121094,111 L8.74707031,111 L8.74707031,103.357422 L6.15722656,110.371582 L4.86865234,110.371582 L2.35498047,103.338379 L2.35498047,111 L1.21240234,111 Z M12.5341268,113.507324 L13.6513143,111 L10.9852987,104.106445 L12.3373495,104.106445 L14.3114706,109.298828 L16.4188925,104.106445 L17.5995565,104.106445 L13.8353964,113.507324 L12.5341268,113.507324 Z M20.4154217,111.234863 C19.7848847,111.234863 18.9787404,111.097332 17.9969646,110.822266 L17.9969646,109.501953 C19.0549126,109.992841 19.9245328,110.238281 20.6058514,110.238281 C21.1305936,110.238281 21.5527085,110.10075 21.8722088,109.825684 C22.1917091,109.550617 22.3514568,109.188804 22.3514568,108.740234 C22.3514568,108.372068 22.2467215,108.058921 22.0372478,107.800781 C21.8277741,107.542642 21.4416289,107.254884 20.8788006,106.9375 L20.2313396,106.562988 C19.4315309,106.105955 18.8676531,105.675376 18.5396892,105.27124 C18.2117254,104.867104 18.0477459,104.396324 18.0477459,103.858887 C18.0477459,103.13525 18.3101131,102.539634 18.8348553,102.072021 C19.3595975,101.604408 20.0282106,101.370605 20.8407146,101.370605 C21.5643511,101.370605 22.3281781,101.49121 23.1322185,101.732422 L23.1322185,102.951172 C22.1419792,102.561847 21.4035426,102.367188 20.9168865,102.367188 C20.4556212,102.367188 20.0747656,102.489908 19.7743084,102.735352 C19.4738512,102.980795 19.3236248,103.289712 19.3236248,103.662109 C19.3236248,103.975262 19.4336497,104.25244 19.6537029,104.493652 C19.8737561,104.734864 20.2757703,105.022622 20.8597576,105.356934 L21.5326092,105.737793 C22.3451132,106.199058 22.9121648,106.634926 23.233781,107.04541 C23.5553972,107.455894 23.7162029,107.94889 23.7162029,108.524414 C23.7162029,109.34115 23.4146923,109.997068 22.8116619,110.492188 C22.2086315,110.987307 21.4098928,111.234863 20.4154217,111.234863 L20.4154217,111.234863 Z M33.6033571,112.878906 C32.1264617,112.400714 30.8886811,111.831546 29.8899782,111.171387 C29.4921898,111.213705 29.1853894,111.234863 28.969568,111.234863 C27.708494,111.234863 26.6833578,110.777837 25.8941286,109.86377 C25.1048994,108.949702 24.7102907,107.762703 24.7102907,106.302734 C24.7102907,104.80468 25.1091311,103.608159 25.9068239,102.713135 C26.7045167,101.818111 27.7698543,101.370605 29.1028688,101.370605 C30.4401151,101.370605 31.5065107,101.819169 32.3020876,102.716309 C33.0976645,103.613448 33.495447,104.815259 33.495447,106.321777 C33.495447,108.479991 32.6935344,109.973791 31.0896852,110.803223 C32.1687922,111.277183 33.2880844,111.615722 34.4475954,111.818848 L33.6033571,112.878906 Z M29.0647829,110.238281 C30.0253997,110.238281 30.768068,109.893395 31.2928102,109.203613 C31.8175524,108.513831 32.0799196,107.538418 32.0799196,106.277344 C32.0799196,105.054356 31.8175524,104.096927 31.2928102,103.405029 C30.768068,102.713131 30.0380949,102.367188 29.1028688,102.367188 C28.1676428,102.367188 27.4376696,102.713131 26.9129274,103.405029 C26.3881852,104.096927 26.125818,105.058588 26.125818,106.290039 C26.125818,107.517259 26.3860693,108.482093 26.9065798,109.18457 C27.4270902,109.887048 28.146484,110.238281 29.0647829,110.238281 L29.0647829,110.238281 Z M35.0481285,111 L35.0481285,101.605469 L36.3811363,101.605469 L36.3811363,110.003418 L40.6086754,110.003418 L40.6086754,111 L35.0481285,111 Z M45.8341556,111.038086 L45.8341556,109.920898 C46.456229,110.170574 47.048671,110.29541 47.6114994,110.29541 C48.229341,110.29541 48.7149318,110.113446 49.0682865,109.749512 C49.4216411,109.385578 49.5983158,108.884118 49.5983158,108.245117 C49.5983158,106.83593 48.6271341,106.131348 46.6847416,106.131348 C46.4646884,106.131348 46.2340592,106.146159 45.992847,106.175781 L45.992847,101.605469 L50.7472416,101.605469 L50.7472416,102.697266 L47.0909916,102.697266 L47.0909916,105.172852 C48.2970523,105.172852 49.2386119,105.45003 49.9156986,106.004395 C50.5927853,106.558759 50.9313236,107.326818 50.9313236,108.308594 C50.9313236,109.222661 50.6234653,109.938881 50.0077396,110.457275 C49.3920139,110.97567 48.5382626,111.234863 47.4464603,111.234863 C46.9724996,111.234863 46.4350701,111.169271 45.8341556,111.038086 L45.8341556,111.038086 Z M57.1724288,111 L57.1724288,101.605469 L60.2954757,101.605469 C61.22647,101.605469 61.9786597,101.709146 62.5520675,101.916504 C63.1254753,102.123862 63.6216455,102.475095 64.0405929,102.970215 C64.7049843,103.757328 65.0371749,104.794102 65.0371749,106.080566 C65.0371749,107.642098 64.6245814,108.852372 63.799382,109.711426 C62.9741825,110.57048 61.8125731,111 60.3145187,111 L57.1724288,111 Z M58.5054367,110.003418 L60.2129562,110.003418 C61.4317123,110.003418 62.2949849,109.675459 62.8027999,109.019531 C63.3487011,108.321286 63.6216476,107.383958 63.6216476,106.20752 C63.6216476,105.103022 63.3529328,104.235517 62.8154953,103.60498 C62.4896473,103.219887 62.1003282,102.956462 61.6475265,102.814697 C61.1947248,102.672932 60.5134165,102.602051 59.6035812,102.602051 L58.5054367,102.602051 L58.5054367,110.003418 Z M71.3569463,107.407227 L69.7573369,103.357422 L68.1513799,107.407227 L71.3569463,107.407227 Z M72.766126,111 L71.7441534,108.397461 L67.7641729,108.397461 L66.7295049,111 L65.4917119,111 L69.2177862,101.605469 L70.5380987,101.605469 L74.207044,111 L72.766126,111 Z M77.486288,111 L77.486288,102.602051 L74.1537685,102.602051 L74.1537685,101.605469 L82.1518154,101.605469 L82.1518154,102.602051 L78.8192958,102.602051 L78.8192958,111 L77.486288,111 Z M87.9193406,107.407227 L86.3197313,103.357422 L84.7137742,107.407227 L87.9193406,107.407227 Z M89.3285203,111 L88.3065477,108.397461 L84.3265672,108.397461 L83.2918992,111 L82.0541063,111 L85.7801805,101.605469 L87.100493,101.605469 L90.7694383,111 L89.3285203,111 Z M91.8143073,111 L91.8143073,101.605469 L94.2518073,101.605469 C95.1912652,101.605469 95.9117169,101.783201 96.4131843,102.138672 C96.9146516,102.494142 97.1653816,103.006182 97.1653816,103.674805 C97.1653816,104.813157 96.5221588,105.623533 95.2356941,106.105957 C96.7718345,106.575686 97.5398933,107.424148 97.5398933,108.651367 C97.5398933,109.41309 97.2859896,109.994952 96.7781745,110.396973 C96.2703595,110.798993 95.5382704,111 94.5818855,111 L91.8143073,111 Z M93.1346198,110.003418 L93.4075691,110.003418 C94.385113,110.003418 95.0177564,109.942058 95.3055183,109.819336 C95.8556512,109.586587 96.1307136,109.154951 96.1307136,108.524414 C96.1307136,107.965818 95.8810416,107.501385 95.3816901,107.131104 C94.8823387,106.760822 94.2581587,106.575684 93.5091316,106.575684 L93.1346198,106.575684 L93.1346198,110.003418 Z M93.1346198,105.731445 L93.5599128,105.731445 C94.2708539,105.731445 94.8220365,105.579103 95.2134773,105.274414 C95.604918,104.969725 95.8006355,104.540205 95.8006355,103.98584 C95.8006355,103.063309 95.0854733,102.602051 93.6551276,102.602051 L93.1346198,102.602051 L93.1346198,105.731445 Z M103.739059,107.407227 L102.13945,103.357422 L100.533493,107.407227 L103.739059,107.407227 Z M105.148239,111 L104.126266,108.397461 L100.146286,108.397461 L99.1116178,111 L97.8738248,111 L101.599899,101.605469 L102.920212,101.605469 L106.589157,111 L105.148239,111 Z M109.474846,111.234863 C108.844309,111.234863 108.038165,111.097332 107.056389,110.822266 L107.056389,109.501953 C108.114337,109.992841 108.983957,110.238281 109.665276,110.238281 C110.190018,110.238281 110.612133,110.10075 110.931633,109.825684 C111.251134,109.550617 111.410881,109.188804 111.410881,108.740234 C111.410881,108.372068 111.306146,108.058921 111.096672,107.800781 C110.887199,107.542642 110.501053,107.254884 109.938225,106.9375 L109.290764,106.562988 C108.490955,106.105955 107.927078,105.675376 107.599114,105.27124 C107.27115,104.867104 107.10717,104.396324 107.10717,103.858887 C107.10717,103.13525 107.369538,102.539634 107.89428,102.072021 C108.419022,101.604408 109.087635,101.370605 109.900139,101.370605 C110.623776,101.370605 111.387603,101.49121 112.191643,101.732422 L112.191643,102.951172 C111.201404,102.561847 110.462967,102.367188 109.976311,102.367188 C109.515046,102.367188 109.13419,102.489908 108.833733,102.735352 C108.533276,102.980795 108.383049,103.289712 108.383049,103.662109 C108.383049,103.975262 108.493074,104.25244 108.713127,104.493652 C108.933181,104.734864 109.335195,105.022622 109.919182,105.356934 L110.592034,105.737793 C111.404538,106.199058 111.971589,106.634926 112.293206,107.04541 C112.614822,107.455894 112.775627,107.94889 112.775627,108.524414 C112.775627,109.34115 112.474117,109.997068 111.871086,110.492188 C111.268056,110.987307 110.469317,111.234863 109.474846,111.234863 L109.474846,111.234863 Z M114.321961,111 L114.321961,101.605469 L119.571473,101.605469 L119.571473,102.602051 L115.654969,102.602051 L115.654969,105.617188 L118.936707,105.617188 L118.936707,106.601074 L115.654969,106.601074 L115.654969,110.003418 L119.844422,110.003418 L119.844422,111 L114.321961,111 Z M121.05433,111 L121.05433,101.605469 L123.89808,101.605469 C124.799452,101.605469 125.490282,101.80436 125.97059,102.202148 C126.450899,102.599937 126.691049,103.177568 126.691049,103.935059 C126.691049,105.187669 126.058406,106.076332 124.7931,106.601074 L127.928842,111 L126.291147,111 L123.618783,107.026367 L122.374643,107.026367 L122.374643,111 L121.05433,111 Z M122.374643,106.029785 L122.806283,106.029785 C124.482073,106.029785 125.319955,105.371751 125.319955,104.055664 C125.319955,103.086584 124.617488,102.602051 123.212533,102.602051 L122.374643,102.602051 L122.374643,106.029785 Z"/>
        <polygon points="204.955 111 204.955 110.061 206.834 110.061 206.834 102.646 204.955 103.116 204.955 102.151 208.091 101.371 208.091 110.061 209.97 110.061 209.97 111"/>
        <path d="M3.05322266,142.234863 C2.42268565,142.234863 1.61654137,142.097332 0.634765625,141.822266 L0.634765625,140.501953 C1.69271362,140.992841 2.56233383,141.238281 3.24365234,141.238281 C3.76839455,141.238281 4.19050947,141.10075 4.51000977,140.825684 C4.82951006,140.550617 4.98925781,140.188804 4.98925781,139.740234 C4.98925781,139.372068 4.88452253,139.058921 4.67504883,138.800781 C4.46557512,138.542642 4.0794299,138.254884 3.51660156,137.9375 L2.86914062,137.562988 C2.06933194,137.105955 1.50545411,136.675376 1.17749023,136.27124 C0.849526355,135.867104 0.685546875,135.396324 0.685546875,134.858887 C0.685546875,134.13525 0.947914043,133.539634 1.47265625,133.072021 C1.99739846,132.604408 2.66601156,132.370605 3.47851562,132.370605 C4.20215206,132.370605 4.96597905,132.49121 5.77001953,132.732422 L5.77001953,133.951172 C4.77978021,133.561847 4.04134358,133.367188 3.5546875,133.367188 C3.09342217,133.367188 2.71256661,133.489908 2.41210938,133.735352 C2.11165214,133.980795 1.96142578,134.289712 1.96142578,134.662109 C1.96142578,134.975262 2.07145072,135.25244 2.29150391,135.493652 C2.51155709,135.734864 2.9135713,136.022622 3.49755859,136.356934 L4.17041016,136.737793 C4.98291422,137.199058 5.54996584,137.634926 5.87158203,138.04541 C6.19319822,138.455894 6.35400391,138.94889 6.35400391,139.524414 C6.35400391,140.34115 6.05249325,140.997068 5.44946289,141.492188 C4.84643253,141.987307 4.04769377,142.234863 3.05322266,142.234863 L3.05322266,142.234863 Z M9.7411581,142.234863 C9.11062109,142.234863 8.30447681,142.097332 7.32270107,141.822266 L7.32270107,140.501953 C8.38064906,140.992841 9.25026927,141.238281 9.93158779,141.238281 C10.45633,141.238281 10.8784449,141.10075 11.1979452,140.825684 C11.5174455,140.550617 11.6771933,140.188804 11.6771933,139.740234 C11.6771933,139.372068 11.572458,139.058921 11.3629843,138.800781 C11.1535106,138.542642 10.7673653,138.254884 10.204537,137.9375 L9.55707607,137.562988 C8.75726738,137.105955 8.19338956,136.675376 7.86542568,136.27124 C7.5374618,135.867104 7.37348232,135.396324 7.37348232,134.858887 C7.37348232,134.13525 7.63584948,133.539634 8.16059169,133.072021 C8.6853339,132.604408 9.353947,132.370605 10.1664511,132.370605 C10.8900875,132.370605 11.6539145,132.49121 12.457955,132.732422 L12.457955,133.951172 C11.4677156,133.561847 10.729279,133.367188 10.2426229,133.367188 C9.78135761,133.367188 9.40050205,133.489908 9.10004482,133.735352 C8.79958759,133.980795 8.64936122,134.289712 8.64936122,134.662109 C8.64936122,134.975262 8.75938616,135.25244 8.97943935,135.493652 C9.19949253,135.734864 9.60150674,136.022622 10.185494,136.356934 L10.8583456,136.737793 C11.6708497,137.199058 12.2379013,137.634926 12.5595175,138.04541 C12.8811337,138.455894 13.0419393,138.94889 13.0419393,139.524414 C13.0419393,140.34115 12.7404287,140.997068 12.1373983,141.492188 C11.534368,141.987307 10.7356292,142.234863 9.7411581,142.234863 L9.7411581,142.234863 Z M14.5882732,142 L14.5882732,132.605469 L15.921281,132.605469 L15.921281,136.566406 L20.390031,136.566406 L20.390031,132.605469 L21.7230389,132.605469 L21.7230389,142 L20.390031,142 L20.390031,137.562988 L15.921281,137.562988 L15.921281,142 L14.5882732,142 Z M29.8620933,142 L29.8620933,133.602051 L26.5295738,133.602051 L26.5295738,132.605469 L34.5276207,132.605469 L34.5276207,133.602051 L31.1951011,133.602051 L31.1951011,142 L29.8620933,142 Z M35.5280561,142 L35.5280561,132.605469 L36.8610639,132.605469 L36.8610639,142 L35.5280561,142 Z M38.9659916,142 L38.9659916,132.605469 L40.2989994,132.605469 L40.2989994,141.003418 L44.5265384,141.003418 L44.5265384,142 L38.9659916,142 Z M52.6426965,141.746094 C51.5043445,142.071942 50.5120041,142.234863 49.6656457,142.234863 C48.1718232,142.234863 47.0260827,141.809575 46.2283899,140.958984 C45.4306971,140.108394 45.0318567,138.889656 45.0318567,137.302734 C45.0318567,135.745435 45.4359868,134.534103 46.244259,133.668701 C47.0525313,132.8033 48.1866345,132.370605 49.6466028,132.370605 C50.6029878,132.370605 51.597444,132.512368 52.6300012,132.795898 L52.6300012,134.027344 C51.3350729,133.587237 50.3427325,133.367188 49.6529504,133.367188 C48.6373204,133.367188 47.8491609,133.712073 47.2884485,134.401855 C46.727736,135.091638 46.447384,136.062819 46.447384,137.31543 C46.447384,138.555345 46.7478368,139.519121 47.3487512,140.206787 C47.9496657,140.894453 48.7917797,141.238281 49.8751184,141.238281 C50.3194566,141.238281 50.7997578,141.159994 51.3160364,141.003418 L51.3160364,137.943848 L52.6426965,137.943848 L52.6426965,141.746094 Z M59.4258468,138.407227 L57.8262374,134.357422 L56.2202804,138.407227 L59.4258468,138.407227 Z M60.8350265,142 L59.8130538,139.397461 L55.8330734,139.397461 L54.7984054,142 L53.5606124,142 L57.2866867,132.605469 L58.6069992,132.605469 L62.2759445,142 L60.8350265,142 Z M63.3208135,142 L63.3208135,132.605469 L64.6284307,132.605469 L69.3574346,139.86084 L69.3574346,132.605469 L70.5000127,132.605469 L70.5000127,142 L69.1987432,142 L64.4633916,134.744629 L64.4633916,142 L63.3208135,142 Z M79.6698818,141.746094 C78.5315297,142.071942 77.5391894,142.234863 76.692831,142.234863 C75.1990084,142.234863 74.0532679,141.809575 73.2555751,140.958984 C72.4578823,140.108394 72.0590419,138.889656 72.0590419,137.302734 C72.0590419,135.745435 72.463172,134.534103 73.2714443,133.668701 C74.0797165,132.8033 75.2138198,132.370605 76.673788,132.370605 C77.630173,132.370605 78.6246292,132.512368 79.6571864,132.795898 L79.6571864,134.027344 C78.3622581,133.587237 77.3699178,133.367188 76.6801357,133.367188 C75.6645056,133.367188 74.8763462,133.712073 74.3156337,134.401855 C73.7549213,135.091638 73.4745693,136.062819 73.4745693,137.31543 C73.4745693,138.555345 73.775022,139.519121 74.3759364,140.206787 C74.9768509,140.894453 75.8189649,141.238281 76.9023036,141.238281 C77.3466418,141.238281 77.826943,141.159994 78.3432216,141.003418 L78.3432216,137.943848 L79.6698818,137.943848 L79.6698818,141.746094 Z"/>
        <polygon points="204.955 142 204.955 141.061 206.834 141.061 206.834 133.646 204.955 134.116 204.955 133.151 208.091 132.371 208.091 141.061 209.97 141.061 209.97 142"/>
      </g>
      <rect width="5" height="198" x="153" fill="#D8D8D8" fill-opacity=".4"/>
    </g>
    <path fill="#FFFFFF" d="M108.519609,463.867188 C108.519609,467.054703 107.91024,470.054673 106.691484,472.867188 C105.472728,475.679702 103.820401,478.128896 101.734453,480.214844 C99.6485049,482.300792 97.1993106,483.953119 94.3867966,485.171875 C91.5742825,486.390631 88.5743125,487 85.3867966,487 C81.9649045,487 78.789155,486.355475 75.8594528,485.066406 C72.9297507,483.777337 70.4102446,481.937512 68.3008591,479.546875 L73.7852341,474.132812 C74.5352378,475.398444 75.7188197,476.464839 77.3360153,477.332031 C78.9532109,478.199223 80.7227245,478.773436 82.6446091,479.054688 C84.5664937,479.335939 86.5000681,479.32422 88.4453903,479.019531 C90.3907125,478.714842 92.0430398,478.023443 93.4024216,476.945312 L93.4024216,450.789062 C92.089915,449.804683 90.4024319,449.089846 88.3399216,448.644531 C86.2774113,448.199217 84.0860269,448.199217 81.7657028,448.644531 C79.4453787,449.089846 77.1016521,450.074211 74.7344528,451.597656 C72.3672535,453.121101 70.2227437,455.382798 68.3008591,458.382812 L73.5742966,419.359375 L104.371172,419.359375 L104.371172,427.09375 L87.4961716,427.09375 L85.5977341,440.804688 C88.78525,440.804688 91.7735014,441.414056 94.5625778,442.632812 C97.3516543,443.851569 99.7774113,445.503896 101.839922,447.589844 C103.902432,449.675792 105.531322,452.113267 106.72664,454.902344 C107.921959,457.69142 108.519609,460.679672 108.519609,463.867188 L108.519609,463.867188 Z M161.648231,465.765625 C161.648231,468.718765 161.097455,471.484362 159.995887,474.0625 C158.894319,476.640638 157.370897,478.890615 155.425574,480.8125 C153.480252,482.734385 151.218556,484.246088 148.640418,485.347656 C146.06228,486.449224 143.296683,487 140.343543,487 C137.390403,487 134.624806,486.449224 132.046668,485.347656 C129.46853,484.246088 127.218553,482.734385 125.296668,480.8125 C123.374784,478.890615 121.86308,476.640638 120.761512,474.0625 C119.659944,471.484362 119.109168,468.718765 119.109168,465.765625 L119.109168,440.59375 C119.109168,437.64061 119.659944,434.875013 120.761512,432.296875 C121.86308,429.718737 123.374784,427.46876 125.296668,425.546875 C127.218553,423.62499 129.46853,422.113287 132.046668,421.011719 C134.624806,419.910151 137.390403,419.359375 140.343543,419.359375 C143.296683,419.359375 146.06228,419.910151 148.640418,421.011719 C151.218556,422.113287 153.480252,423.62499 155.425574,425.546875 C157.370897,427.46876 158.894319,429.718737 159.995887,432.296875 C161.097455,434.875013 161.648231,437.64061 161.648231,440.59375 L161.648231,465.765625 Z M146.952918,428.710938 C146.015413,428.19531 144.960737,427.796876 143.788856,427.515625 C142.616975,427.234374 141.468549,427.09375 140.343543,427.09375 C139.265413,427.09375 138.140424,427.234374 136.968543,427.515625 C135.796662,427.796876 134.741985,428.19531 133.804481,428.710938 L133.804481,477.648438 C134.741985,478.11719 135.796662,478.503905 136.968543,478.808594 C138.140424,479.113283 139.265413,479.265625 140.343543,479.265625 C141.468549,479.265625 142.616975,479.125001 143.788856,478.84375 C144.960737,478.562499 146.015413,478.164065 146.952918,477.648438 L146.952918,428.710938 Z M175.139435,490.46875 L181.385529,469.65625 L183.494904,469.65625 L177.24881,490.46875 L175.139435,490.46875 Z M187.69733,487 L187.69733,474.132812 L191.025455,474.132812 L191.025455,476.558594 C192.041085,474.746085 193.486383,473.839844 195.361393,473.839844 C196.330148,473.839844 197.127015,474.078123 197.752018,474.554688 C198.377021,475.031252 198.75983,475.699214 198.900455,476.558594 C200.103586,474.746085 201.556697,473.839844 203.25983,473.839844 C205.611404,473.839844 206.787174,475.136706 206.787174,477.730469 L206.787174,487 L203.459049,487 L203.459049,478.867188 C203.459049,477.343742 202.951242,476.582031 201.935611,476.582031 C200.896544,476.582031 199.884835,477.332024 198.900455,478.832031 L198.900455,487 L195.57233,487 L195.57233,478.867188 C195.57233,477.33593 195.060617,476.570312 194.037174,476.570312 C193.013731,476.570312 192.009835,477.324211 191.025455,478.832031 L191.025455,487 L187.69733,487 Z M210.391944,487 L210.391944,474.132812 L213.860694,474.132812 L213.860694,476.558594 C214.993512,474.746085 216.454435,473.839844 218.243507,473.839844 C219.39195,473.839844 220.298191,474.203121 220.962257,474.929688 C221.626323,475.656254 221.95835,476.648431 221.95835,477.90625 L221.95835,487 L218.4896,487 L218.4896,478.761719 C218.4896,477.300774 218.00523,476.570312 217.036475,476.570312 C215.934907,476.570312 214.876324,477.347648 213.860694,478.902344 L213.860694,487 L210.391944,487 Z M233.672496,487 L233.672496,484.574219 C232.781866,486.386728 231.379537,487.292969 229.465464,487.292969 C227.918582,487.292969 226.70375,486.726568 225.820933,485.59375 C224.938116,484.460932 224.496714,482.902354 224.496714,480.917969 C224.496714,478.761708 224.994756,477.042975 225.990855,475.761719 C226.986954,474.480462 228.324831,473.839844 230.004527,473.839844 C231.348284,473.839844 232.570928,474.371088 233.672496,475.433594 L233.672496,468.496094 L237.152964,468.496094 L237.152964,487 L233.672496,487 Z M233.672496,477.496094 C232.836554,476.558589 231.942032,476.089844 230.988902,476.089844 C230.137335,476.089844 229.457654,476.499996 228.949839,477.320312 C228.442024,478.140629 228.188121,479.242181 228.188121,480.625 C228.188121,483.257826 229.031862,484.574219 230.719371,484.574219 C231.750626,484.574219 232.734991,483.914069 233.672496,482.59375 L233.672496,477.496094 Z"/>
  </g>
</svg>
