<svg xmlns="http://www.w3.org/2000/svg" width="300" height="512" viewBox="0 0 300 512">
  <g fill="none" fill-rule="evenodd">
    <rect width="300" height="116" y="396" fill="#6E7989"/>
    <rect width="300" height="198" fill="#4F67B2"/>
    <rect width="300" height="198" y="198" fill="#4F67B2"/>
    <g transform="translate(0 198)">
      <rect width="300" height="198" fill="#6E7989" fill-opacity=".725"/>
      <rect width="300" height="33" fill="#B6CEF2" fill-opacity=".492"/>
      <rect width="300" height="33" y="33" fill="#B6CEF2" fill-opacity=".2"/>
      <rect width="300" height="33" y="66" fill="#B6CEF2" fill-opacity=".493"/>
      <rect width="300" height="33" y="99" fill="#B6CEF2" fill-opacity=".2"/>
      <rect width="300" height="33" y="132" fill="#B6CEF2" fill-opacity=".494"/>
      <rect width="300" height="33" y="165" fill="#B6CEF2" fill-opacity=".2"/>
      <path fill="#FFFFFF" d="M5.21240234 189L5.21240234 179.605469 10.4619141 179.605469 10.4619141 180.602051 6.54541016 180.602051 6.54541016 183.617188 9.82714844 183.617188 9.82714844 184.601074 6.54541016 184.601074 6.54541016 188.003418 10.7348633 188.003418 10.7348633 189 5.21240234 189zM11.9447714 189L11.9447714 179.605469 14.5028768 179.605469C15.6369971 179.605469 16.4516048 179.796954 16.9467245 180.179932 17.4418442 180.562909 17.6894003 181.192378 17.6894003 182.068359 17.6894003 183.067062 17.350862 183.849932 16.6737753 184.416992 15.9966886 184.984052 15.0572448 185.267578 13.8554159 185.267578L13.2650839 185.267578 13.2650839 189 11.9447714 189zM13.2650839 184.258301L13.8046347 184.258301C14.5959798 184.258301 15.2074645 184.076336 15.6391073 183.712402 16.0707501 183.348468 16.2865683 182.834313 16.2865683 182.169922 16.2865683 181.607094 16.1172991 181.205079 15.7787558 180.963867 15.4402124 180.722655 14.8752766 180.602051 14.0839315 180.602051L13.2650839 180.602051 13.2650839 184.258301zM22.599992 189.234863C21.2966 189.234863 20.2481893 188.783126 19.4547283 187.879639 18.6612673 186.976151 18.2645428 185.781746 18.2645428 184.296387 18.2645428 182.802564 18.6633832 181.608159 19.461076 180.713135 20.2587688 179.818111 21.3241064 179.370605 22.6571209 179.370605 23.9859036 179.370605 25.0501833 179.817053 25.849992 180.709961 26.6498007 181.602869 27.049699 182.794101 27.049699 184.283691 27.049699 185.802905 26.6498007 187.007889 25.849992 187.898682 25.0501833 188.789474 23.9668608 189.234863 22.599992 189.234863L22.599992 189.234863zM22.6190349 188.238281C23.5796517 188.238281 24.3223201 187.892337 24.8470623 187.200439 25.3718045 186.508541 25.6341717 185.53207 25.6341717 184.270996 25.6341717 183.048008 25.3707466 182.091638 24.8438885 181.401855 24.3170304 180.712073 23.5881151 180.367188 22.6571209 180.367188 21.7218949 180.367188 20.9919217 180.713131 20.4671795 181.405029 19.9424373 182.096927 19.6800701 183.058588 19.6800701 184.290039 19.6800701 185.517259 19.9403214 186.482093 20.4608318 187.18457 20.9813422 187.887048 21.7007361 188.238281 22.6190349 188.238281L22.6190349 188.238281zM30.4432009 189.234863C29.8126638 189.234863 29.0065196 189.097332 28.0247438 188.822266L28.0247438 187.501953C29.0826918 187.992841 29.952312 188.238281 30.6336305 188.238281 31.1583728 188.238281 31.5804877 188.10075 31.899988 187.825684 32.2194883 187.550617 32.379236 187.188804 32.379236 186.740234 32.379236 186.372068 32.2745007 186.058921 32.065027 185.800781 31.8555533 185.542642 31.4694081 185.254884 30.9065798 184.9375L30.2591188 184.562988C29.4593101 184.105955 28.8954323 183.675376 28.5674684 183.27124 28.2395046 182.867104 28.0755251 182.396324 28.0755251 181.858887 28.0755251 181.13525 28.3378922 180.539634 28.8626345 180.072021 29.3873767 179.604408 30.0559898 179.370605 30.8684938 179.370605 31.5921303 179.370605 32.3559573 179.49121 33.1599977 179.732422L33.1599977 180.951172C32.1697584 180.561847 31.4313218 180.367188 30.9446657 180.367188 30.4834004 180.367188 30.1025448 180.489908 29.8020876 180.735352 29.5016303 180.980795 29.351404 181.289712 29.351404 181.662109 29.351404 181.975262 29.4614289 182.25244 29.6814821 182.493652 29.9015353 182.734864 30.3035495 183.022622 30.8875368 183.356934L31.5603884 183.737793C32.3728924 184.199058 32.939944 184.634926 33.2615602 185.04541 33.5831764 185.455894 33.7439821 185.94889 33.7439821 186.524414 33.7439821 187.34115 33.4424714 187.997068 32.8394411 188.492188 32.2364107 188.987307 31.437672 189.234863 30.4432009 189.234863L30.4432009 189.234863zM37.524691 189L37.524691 180.602051 34.1921715 180.602051 34.1921715 179.605469 42.1902183 179.605469 42.1902183 180.602051 38.8576988 180.602051 38.8576988 189 37.524691 189zM52.5192142 189L52.0558353 188.441406C51.3618214 188.97038 50.5514454 189.234863 49.624683 189.234863 48.6429072 189.234863 47.835705 188.95028 47.2030521 188.381104 46.5703992 187.811927 46.2540775 187.087244 46.2540775 186.207031 46.2540775 184.759758 47.0179045 183.777997 48.5455814 183.261719 48.1224022 182.495764 47.9108158 181.858889 47.9108158 181.351074 47.9108158 180.796709 48.1319236 180.328046 48.5741459 179.945068 49.0163681 179.562091 49.5527397 179.370605 50.1832767 179.370605 50.7926548 179.370605 51.2951725 179.549396 51.6908451 179.906982 52.0865176 180.264569 52.2843509 180.718422 52.2843509 181.268555 52.2843509 182.208013 51.596695 183.024736 50.2213627 183.71875 50.8518997 184.835943 51.5861046 185.879064 52.4239994 186.848145 52.8090924 186.289548 53.0016361 185.498215 53.0016361 184.474121L52.9952884 184.004395 54.2394291 184.004395C54.2394291 185.392422 53.8247197 186.590001 52.9952884 187.597168 53.3761497 188.079592 53.8099019 188.547198 54.296558 189L52.5192142 189zM51.5099369 187.717773C50.6212606 186.625971 49.7749148 185.388191 48.9708744 184.004395 47.9933304 184.393719 47.5045658 185.026363 47.5045658 185.902344 47.5045658 186.566735 47.7299053 187.131671 48.1805912 187.597168 48.631277 188.062665 49.1803438 188.29541 49.827808 188.29541 50.416027 188.29541 50.9767311 188.102867 51.5099369 187.717773L51.5099369 187.717773zM49.7643314 182.925293C50.6614713 182.514809 51.1100345 181.968916 51.1100345 181.287598 51.1100345 180.635902 50.7841914 180.310059 50.1324955 180.310059 49.4892631 180.310059 49.1676517 180.638018 49.1676517 181.293945 49.1676517 181.725588 49.366543 182.269365 49.7643314 182.925293L49.7643314 182.925293zM59.5474288 189L59.5474288 179.605469 64.7969406 179.605469 64.7969406 180.602051 60.8804367 180.602051 60.8804367 183.750488 64.1685226 183.750488 64.1685226 184.734375 60.8804367 184.734375 60.8804367 189 59.5474288 189zM68.438001 189L68.438001 180.602051 65.1054815 180.602051 65.1054815 179.605469 73.1035284 179.605469 73.1035284 180.602051 69.7710088 180.602051 69.7710088 189 68.438001 189zM74.1103114 189L74.1103114 179.605469 76.6684169 179.605469C77.8025372 179.605469 78.6171449 179.796954 79.1122646 180.179932 79.6073842 180.562909 79.8549404 181.192378 79.8549404 182.068359 79.8549404 183.067062 79.5164021 183.849932 78.8393154 184.416992 78.1622286 184.984052 77.2227849 185.267578 76.020956 185.267578L75.4306239 185.267578 75.4306239 189 74.1103114 189zM75.4306239 184.258301L75.9701747 184.258301C76.7615198 184.258301 77.3730046 184.076336 77.8046474 183.712402 78.2362902 183.348468 78.4521083 182.834313 78.4521083 182.169922 78.4521083 181.607094 78.2828392 181.205079 77.9442958 180.963867 77.6057525 180.722655 77.0408167 180.602051 76.2494716 180.602051L75.4306239 180.602051 75.4306239 184.258301zM84.7820808 189L84.7820808 179.605469 86.0325691 179.605469 86.0325691 184.226562 89.8348151 179.605469 91.1741706 179.605469 87.49253 184.086914 91.8279792 189 90.1395026 189 86.0325691 184.239258 86.0325691 189 84.7820808 189zM96.7385709 189.234863C95.435179 189.234863 94.3867682 188.783126 93.5933072 187.879639 92.7998462 186.976151 92.4031217 185.781746 92.4031217 184.296387 92.4031217 182.802564 92.8019621 181.608159 93.5996549 180.713135 94.3973477 179.818111 95.4626853 179.370605 96.7956998 179.370605 98.1244825 179.370605 99.1887622 179.817053 99.9885709 180.709961 100.78838 181.602869 101.188278 182.794101 101.188278 184.283691 101.188278 185.802905 100.78838 187.007889 99.9885709 187.898682 99.1887622 188.789474 98.1054397 189.234863 96.7385709 189.234863L96.7385709 189.234863zM96.7576139 188.238281C97.7182306 188.238281 98.460899 187.892337 98.9856412 187.200439 99.5103834 186.508541 99.7727506 185.53207 99.7727506 184.270996 99.7727506 183.048008 99.5093255 182.091638 98.9824674 181.401855 98.4556093 180.712073 97.726694 180.367188 96.7956998 180.367188 95.8604738 180.367188 95.1305006 180.713131 94.6057584 181.405029 94.0810162 182.096927 93.818649 183.058588 93.818649 184.290039 93.818649 185.517259 94.0789003 186.482093 94.5994107 187.18457 95.1199212 187.887048 95.839315 188.238281 96.7576139 188.238281L96.7576139 188.238281zM102.740959 189L102.740959 179.605469 104.048577 179.605469 108.777581 186.86084 108.777581 179.605469 109.920159 179.605469 109.920159 189 108.618889 189 103.883538 181.744629 103.883538 189 102.740959 189zM114.265809 189L114.265809 180.602051 110.933289 180.602051 110.933289 179.605469 118.931336 179.605469 118.931336 180.602051 115.598817 180.602051 115.598817 189 114.265809 189zM123.721323 189.234863C122.417931 189.234863 121.36952 188.783126 120.576059 187.879639 119.782598 186.976151 119.385873 185.781746 119.385873 184.296387 119.385873 182.802564 119.784714 181.608159 120.582407 180.713135 121.380099 179.818111 122.445437 179.370605 123.778451 179.370605 125.107234 179.370605 126.171514 179.817053 126.971323 180.709961 127.771131 181.602869 128.17103 182.794101 128.17103 184.283691 128.17103 185.802905 127.771131 187.007889 126.971323 187.898682 126.171514 188.789474 125.088191 189.234863 123.721323 189.234863L123.721323 189.234863zM123.740366 188.238281C124.700982 188.238281 125.443651 187.892337 125.968393 187.200439 126.493135 186.508541 126.755502 185.53207 126.755502 184.270996 126.755502 183.048008 126.492077 182.091638 125.965219 181.401855 125.438361 180.712073 124.709446 180.367188 123.778451 180.367188 122.843225 180.367188 122.113252 180.713131 121.58851 181.405029 121.063768 182.096927 120.801401 183.058588 120.801401 184.290039 120.801401 185.517259 121.061652 186.482093 121.582162 187.18457 122.102673 187.887048 122.822067 188.238281 123.740366 188.238281L123.740366 188.238281zM129.723711 189L129.723711 179.605469 134.973223 179.605469 134.973223 180.602051 131.056719 180.602051 131.056719 183.617188 134.338457 183.617188 134.338457 184.601074 131.056719 184.601074 131.056719 188.003418 135.246172 188.003418 135.246172 189 129.723711 189zM136.45608 189L136.45608 179.605469 139.29983 179.605469C140.201202 179.605469 140.892032 179.80436 141.37234 180.202148 141.852648 180.599937 142.092799 181.177568 142.092799 181.935059 142.092799 183.187669 141.460155 184.076332 140.19485 184.601074L143.330592 189 141.692897 189 139.020533 185.026367 137.776393 185.026367 137.776393 189 136.45608 189zM137.776393 184.029785L138.208033 184.029785C139.883823 184.029785 140.721705 183.371751 140.721705 182.055664 140.721705 181.086584 140.019238 180.602051 138.614283 180.602051L137.776393 180.602051 137.776393 184.029785zM215.271484 184.429688C215.593101 183.769528 215.945392 183.274416 216.328369 182.944336 216.711346 182.614256 217.124998 182.449219 217.569336 182.449219 218.195641 182.449219 218.725665 182.710528 219.159424 183.233154 219.593183 183.755781 219.810059 184.391598 219.810059 185.140625 219.810059 185.953129 219.575198 186.654538 219.105469 187.244873 218.63574 187.835208 218.077152 188.130371 217.429688 188.130371 217.040363 188.130371 216.638348 187.960044 216.223633 187.619385 215.808917 187.278726 215.383628 186.765628 214.947754 186.080078 214.621906 186.740238 214.267499 187.23535 213.884521 187.56543 213.501544 187.895509 213.090009 188.060547 212.649902 188.060547 212.027829 188.060547 211.498863 187.799238 211.062988 187.276611 210.627114 186.753985 210.40918 186.118168 210.40918 185.369141 210.40918 184.556637 210.644041 183.855228 211.11377 183.264893 211.583498 182.674558 212.142087 182.379395 212.789551 182.379395 213.174644 182.379395 213.574542 182.55078 213.989258 182.893555 214.403973 183.23633 214.831378 183.748369 215.271484 184.429688L215.271484 184.429688zM214.541504 185.527832L214.395508 185.324707C213.90462 184.660316 213.540691 184.219158 213.303711 184.001221 213.066731 183.783283 212.83187 183.674316 212.599121 183.674316 212.260578 183.674316 211.971762 183.849933 211.732666 184.201172 211.49357 184.552411 211.374023 184.979815 211.374023 185.483398 211.374023 185.961591 211.505207 186.360431 211.767578 186.679932 212.029949 186.999432 212.357908 187.15918 212.751465 187.15918 213.04769 187.15918 213.344969 187.023764 213.643311 186.75293 213.941652 186.482095 214.241047 186.073733 214.541504 185.527832L214.541504 185.527832zM215.677734 184.981934L215.830078 185.185059C216.232098 185.735192 216.582274 186.147785 216.880615 186.422852 217.178957 186.697918 217.425455 186.835449 217.620117 186.835449 217.962892 186.835449 218.252766 186.659832 218.489746 186.308594 218.726726 185.957355 218.845215 185.52995 218.845215 185.026367 218.845215 184.548175 218.714031 184.149334 218.45166 183.829834 218.189289 183.510334 217.86133 183.350586 217.467773 183.350586 217.167316 183.350586 216.867921 183.487059 216.56958 183.76001 216.271239 184.03296 215.97396 184.440264 215.677734 184.981934L215.677734 184.981934z"/>
      <g fill="#FFFFFF" transform="translate(4 10)">
        <path d="M1.21240234 13L1.21240234 3.60546875 3.64990234 3.60546875C4.58936017 3.60546875 5.30981195 3.78320135 5.8112793 4.13867188 6.31274665 4.4941424 6.56347656 5.00618155 6.56347656 5.67480469 6.56347656 6.81315673 5.92025383 7.62353274 4.63378906 8.10595703 6.16992956 8.57568594 6.93798828 9.42414751 6.93798828 10.6513672 6.93798828 11.4130897 6.68408457 11.9949524 6.17626953 12.3969727 5.66845449 12.7989929 4.93636546 13 3.97998047 13L1.21240234 13zM2.53271484 12.003418L2.80566406 12.003418C3.78320801 12.003418 4.41585143 11.9420579 4.70361328 11.8193359 5.25374624 11.5865874 5.52880859 11.1549511 5.52880859 10.5244141 5.52880859 9.96581752 5.27913661 9.50138531 4.77978516 9.13110352 4.2804337 8.76082172 3.65625375 8.57568359 2.90722656 8.57568359L2.53271484 8.57568359 2.53271484 12.003418zM2.53271484 7.73144531L2.95800781 7.73144531C3.66894887 7.73144531 4.22013151 7.57910309 4.61157227 7.27441406 5.00301302 6.96972504 5.19873047 6.54020459 5.19873047 5.98583984 5.19873047 5.06330919 4.48356835 4.60205078 3.05322266 4.60205078L2.53271484 4.60205078 2.53271484 7.73144531zM13.1371542 9.40722656L11.5375448 5.35742188 9.93158779 9.40722656 13.1371542 9.40722656zM14.5463339 13L13.5243612 10.3974609 9.54438075 10.3974609 8.50971279 13 7.27191982 13 10.997994 3.60546875 12.3183065 3.60546875 15.9872518 13 14.5463339 13zM11.6391073 3.59912109C11.2455507 3.59912109 10.9101862 3.45841612 10.6330038 3.17700195 10.3558214 2.89558779 10.2172323 2.55599157 10.2172323 2.15820312 10.2172323 1.76041468 10.3568794 1.42081846 10.6361776 1.1394043 10.9154759.857990129 11.25613.717285156 11.6581503.717285156 12.0559387.717285156 12.3955349.856932197 12.6769491 1.13623047 12.9583633 1.41552874 13.0990683 1.75618289 13.0990683 2.15820312 13.0990683 2.56445516 12.9583633 2.90616723 12.6769491 3.18334961 12.3955349 3.46053198 12.0495911 3.59912109 11.6391073 3.59912109L11.6391073 3.59912109zM11.645455 3.05322266C11.8993625 3.05322266 12.1141227 2.96647222 12.2897421 2.79296875 12.4653615 2.61946528 12.5531698 2.40576299 12.5531698 2.15185547 12.5531698 1.90641153 12.4653615 1.69694097 12.2897421 1.5234375 12.1141227 1.34993403 11.9035942 1.26318359 11.6581503 1.26318359 11.4084746 1.26318359 11.1968881 1.34993403 11.0233847 1.5234375 10.8498812 1.69694097 10.7631308 1.9085274 10.7631308 2.15820312 10.7631308 2.40364706 10.8498812 2.61417555 11.0233847 2.78979492 11.1968881 2.96541429 11.4042428 3.05322266 11.645455 3.05322266L11.645455 3.05322266zM17.0321209 13L17.0321209 3.60546875 18.3397381 3.60546875 23.068742 10.8608398 23.068742 3.60546875 24.2113201 3.60546875 24.2113201 13 22.9100506 13 18.174699 5.74462891 18.174699 13 17.0321209 13zM26.3225954 13L26.3225954 3.60546875 29.4456423 3.60546875C30.3766365 3.60546875 31.1288262 3.7091461 31.7022341 3.91650391 32.2756419 4.12386171 32.771812 4.47509518 33.1907595 4.97021484 33.8551508 5.75732815 34.1873415 6.79410164 34.1873415 8.08056641 34.1873415 9.64209765 33.774748 10.852372 32.9495485 11.7114258 32.1243491 12.5704796 30.9627396 13 29.4646852 13L26.3225954 13zM27.6556032 12.003418L29.3631227 12.003418C30.5818788 12.003418 31.4451514 11.675459 31.9529665 11.0195312 32.4988676 10.3212856 32.7718141 9.38395771 32.7718141 8.20751953 32.7718141 7.10302182 32.5030994 6.23551748 31.9656618 5.60498047 31.6398138 5.2198874 31.2504948 4.9564623 30.797693 4.81469727 30.3448913 4.67293223 29.663583 4.60205078 28.7537477 4.60205078L27.6556032 4.60205078 27.6556032 12.003418zM35.7463707 13L35.7463707 3.60546875 38.1838707 3.60546875C39.1233285 3.60546875 39.8437803 3.78320135 40.3452476 4.13867188 40.846715 4.4941424 41.0974449 5.00618155 41.0974449 5.67480469 41.0974449 6.81315673 40.4542222 7.62353274 39.1677574 8.10595703 40.7038979 8.57568594 41.4719566 9.42414751 41.4719566 10.6513672 41.4719566 11.4130897 41.2180529 11.9949524 40.7102379 12.3969727 40.2024228 12.7989929 39.4703338 13 38.5139488 13L35.7463707 13zM37.0666832 12.003418L37.3396324 12.003418C38.3171763 12.003418 38.9498198 11.9420579 39.2375816 11.8193359 39.7877146 11.5865874 40.0627769 11.1549511 40.0627769 10.5244141 40.0627769 9.96581752 39.8131049 9.50138531 39.3137535 9.13110352 38.814402 8.76082172 38.1902221 8.57568359 37.4411949 8.57568359L37.0666832 8.57568359 37.0666832 12.003418zM37.0666832 7.73144531L37.4919761 7.73144531C38.2029172 7.73144531 38.7540998 7.57910309 39.1455406 7.27441406 39.5369814 6.96972504 39.7326988 6.54020459 39.7326988 5.98583984 39.7326988 5.06330919 39.0175367 4.60205078 37.587191 4.60205078L37.0666832 4.60205078 37.0666832 7.73144531zM42.9103803 13L42.9103803 3.60546875 45.7541303 3.60546875C46.655502 3.60546875 47.3463317 3.80435999 47.8266401 4.20214844 48.3069485 4.59993688 48.5470991 5.17756783 48.5470991 5.93505859 48.5470991 7.18766902 47.9144557 8.07633201 46.6491499 8.60107422L49.7848921 13 48.1471967 13 45.4748335 9.02636719 44.2306928 9.02636719 44.2306928 13 42.9103803 13zM44.2306928 8.02978516L44.6623335 8.02978516C46.3381231 8.02978516 47.1760053 7.37175137 47.1760053 6.05566406 47.1760053 5.0865837 46.4735384 4.60205078 45.0685835 4.60205078L44.2306928 4.60205078 44.2306928 8.02978516zM50.8170658 13L50.8170658 3.60546875 56.0665775 3.60546875 56.0665775 4.60205078 52.1500736 4.60205078 52.1500736 7.6171875 55.4318119 7.6171875 55.4318119 8.60107422 52.1500736 8.60107422 52.1500736 12.003418 56.3395267 12.003418 56.3395267 13 50.8170658 13zM57.5494348 13L57.5494348 3.60546875 60.6724817 3.60546875C61.6034759 3.60546875 62.3556657 3.7091461 62.9290735 3.91650391 63.5024813 4.12386171 63.9986515 4.47509518 64.4175989 4.97021484 65.0819902 5.75732815 65.4141809 6.79410164 65.4141809 8.08056641 65.4141809 9.64209765 65.0015874 10.852372 64.1763879 11.7114258 63.3511885 12.5704796 62.189579 13 60.6915247 13L57.5494348 13zM58.8824426 12.003418L60.5899622 12.003418C61.8087182 12.003418 62.6719909 11.675459 63.1798059 11.0195312 63.7257071 10.3212856 63.9986536 9.38395771 63.9986536 8.20751953 63.9986536 7.10302182 63.7299388 6.23551748 63.1925012 5.60498047 62.8666532 5.2198874 62.4773342 4.9564623 62.0245325 4.81469727 61.5717307 4.67293223 60.8904224 4.60205078 59.9805872 4.60205078L58.8824426 4.60205078 58.8824426 12.003418zM66.9732101 13L66.9732101 3.60546875 70.096257 3.60546875C71.0272512 3.60546875 71.779441 3.7091461 72.3528488 3.91650391 72.9262566 4.12386171 73.4224268 4.47509518 73.8413742 4.97021484 74.5057655 5.75732815 74.8379562 6.79410164 74.8379562 8.08056641 74.8379562 9.64209765 74.4253627 10.852372 73.6001632 11.7114258 72.7749638 12.5704796 71.6133543 13 70.1152999 13L66.9732101 13zM68.3062179 12.003418L70.0137374 12.003418C71.2324935 12.003418 72.0957662 11.675459 72.6035812 11.0195312 73.1494824 10.3212856 73.4224288 9.38395771 73.4224288 8.20751953 73.4224288 7.10302182 73.1537141 6.23551748 72.6162765 5.60498047 72.2904285 5.2198874 71.9011095 4.9564623 71.4483078 4.81469727 70.995506 4.67293223 70.3141977 4.60205078 69.4043624 4.60205078L68.3062179 4.60205078 68.3062179 12.003418zM76.3969854 13L76.3969854 3.60546875 81.6464971 3.60546875 81.6464971 4.60205078 77.7299932 4.60205078 77.7299932 7.6171875 81.0117315 7.6171875 81.0117315 8.60107422 77.7299932 8.60107422 77.7299932 12.003418 81.9194463 12.003418 81.9194463 13 76.3969854 13zM204.955078 13L204.955078 12.0605469 206.833984 12.0605469 206.833984 4.64648438 204.955078 5.11621094 204.955078 4.15136719 208.09082 3.37060547 208.09082 12.0605469 209.969727 12.0605469 209.969727 13 204.955078 13zM214.981881 13.2348633C214.0128 13.2348633 213.228873 12.7788945 212.630074 11.8669434 212.031276 10.9549922 211.731881 9.76481854 211.731881 8.29638672 211.731881 6.81525952 212.033391 5.62402794 212.636422 4.72265625 213.239452 3.82128456 214.033959 3.37060547 215.019967 3.37060547 216.005974 3.37060547 216.800481 3.82128456 217.403512 4.72265625 218.006542 5.62402794 218.308053 6.80891193 218.308053 8.27734375 218.308053 9.7838617 218.006542 10.9867305 217.403512 11.8859863 216.800481 12.7852421 215.993279 13.2348633 214.981881 13.2348633L214.981881 13.2348633zM214.994576 12.2954102C216.319127 12.2954102 216.981392 10.9497205 216.981392 8.25830078 216.981392 5.62612616 216.32759 4.31005859 215.019967 4.31005859 213.716575 4.31005859 213.064889 5.63882135 213.064889 8.29638672 213.064889 10.9624157 213.708111 12.2954102 214.994576 12.2954102L214.994576 12.2954102zM230.884119 12.7460938C229.745767 13.0719417 228.753426 13.2348633 227.907068 13.2348633 226.413245 13.2348633 225.267505 12.8095746 224.469812 11.9589844 223.672119 11.1083942 223.273279 9.88965637 223.273279 8.30273438 223.273279 6.74543492 223.677409 5.53410263 224.485681 4.66870117 225.293954 3.80329971 226.428057 3.37060547 227.888025 3.37060547 228.84441 3.37060547 229.838866 3.51236837 230.871424 3.79589844L230.871424 5.02734375C229.576495 4.58723738 228.584155 4.3671875 227.894373 4.3671875 226.878743 4.3671875 226.090583 4.71207337 225.529871 5.40185547 224.969158 6.09163756 224.688806 7.06281926 224.688806 8.31542969 224.688806 9.55534474 224.989259 10.5191209 225.590174 11.2067871 226.191088 11.8944533 227.033202 12.2382812 228.116541 12.2382812 228.560879 12.2382812 229.04118 12.1599943 229.557459 12.003418L229.557459 8.94384766 230.884119 8.94384766 230.884119 12.7460938zM232.906527 13L232.906527 3.60546875 235.344027 3.60546875C236.283485 3.60546875 237.003937 3.78320135 237.505404 4.13867188 238.006871 4.4941424 238.257601 5.00618155 238.257601 5.67480469 238.257601 6.81315673 237.614378 7.62353274 236.327914 8.10595703 237.864054 8.57568594 238.632113 9.42414751 238.632113 10.6513672 238.632113 11.4130897 238.378209 11.9949524 237.870394 12.3969727 237.362579 12.7989929 236.63049 13 235.674105 13L232.906527 13zM234.226839 12.003418L234.499789 12.003418C235.477333 12.003418 236.109976 11.9420579 236.397738 11.8193359 236.947871 11.5865874 237.222933 11.1549511 237.222933 10.5244141 237.222933 9.96581752 236.973261 9.50138531 236.47391 9.13110352 235.974558 8.76082172 235.350378 8.57568359 234.601351 8.57568359L234.226839 8.57568359 234.226839 12.003418zM234.226839 7.73144531L234.652132 7.73144531C235.363073 7.73144531 235.914256 7.57910309 236.305697 7.27441406 236.697138 6.96972504 236.892855 6.54020459 236.892855 5.98583984 236.892855 5.06330919 236.177693 4.60205078 234.747347 4.60205078L234.226839 4.60205078 234.226839 7.73144531zM243.882984 14.8789062L247.266285 3.60546875 248.250171 3.60546875 244.86687 14.8789062 243.882984 14.8789062zM254.173894 13L254.173894 3.60546875 256.021062 3.60546875 258.623601 10.8735352 261.302312 3.60546875 262.952702 3.60546875 262.952702 13 261.708562 13 261.708562 5.35742188 259.118718 12.371582 257.830144 12.371582 255.316472 5.33837891 255.316472 13 254.173894 13zM265.05763 13L265.05763 3.60546875 266.365247 3.60546875 271.094251 10.8608398 271.094251 3.60546875 272.236829 3.60546875 272.236829 13 270.93556 13 266.200208 5.74462891 266.200208 13 265.05763 13zM274.348104 13L274.348104 3.60546875 277.471151 3.60546875C278.402146 3.60546875 279.154335 3.7091461 279.727743 3.91650391 280.301151 4.12386171 280.797321 4.47509518 281.216268 4.97021484 281.88066 5.75732815 282.212851 6.79410164 282.212851 8.08056641 282.212851 9.64209765 281.800257 10.852372 280.975058 11.7114258 280.149858 12.5704796 278.988249 13 277.490194 13L274.348104 13zM275.681112 12.003418L277.388632 12.003418C278.607388 12.003418 279.47066 11.675459 279.978476 11.0195312 280.524377 10.3212856 280.797323 9.38395771 280.797323 8.20751953 280.797323 7.10302182 280.528608 6.23551748 279.991171 5.60498047 279.665323 5.2198874 279.276004 4.9564623 278.823202 4.81469727 278.3704 4.67293223 277.689092 4.60205078 276.779257 4.60205078L275.681112 4.60205078 275.681112 12.003418zM3.05322266 78.2348633C2.42268565 78.2348633 1.61654137 78.0973321.634765625 77.8222656L.634765625 76.5019531C1.69271362 76.992841 2.56233383 77.2382812 3.24365234 77.2382812 3.76839455 77.2382812 4.19050947 77.1007501 4.51000977 76.8256836 4.82951006 76.5506171 4.98925781 76.1888043 4.98925781 75.7402344 4.98925781 75.3720685 4.88452253 75.0589206 4.67504883 74.8007812 4.46557512 74.5426419 4.0794299 74.2548844 3.51660156 73.9375L2.86914062 73.5629883C2.06933194 73.1059547 1.50545411 72.6753764 1.17749023 72.2712402.849526355 71.8671041.685546875 71.3963243.685546875 70.8588867.685546875 70.1352503.947914043 69.5396345 1.47265625 69.0720215 1.99739846 68.6044085 2.66601156 68.3706055 3.47851562 68.3706055 4.20215206 68.3706055 4.96597905 68.4912097 5.77001953 68.7324219L5.77001953 69.9511719C4.77978021 69.561847 4.04134358 69.3671875 3.5546875 69.3671875 3.09342217 69.3671875 2.71256661 69.4899076 2.41210937 69.7353516 2.11165214 69.9807955 1.96142578 70.2897117 1.96142578 70.6621094 1.96142578 70.975262 2.07145072 71.2524402 2.29150391 71.4936523 2.51155709 71.7348645 2.9135713 72.022622 3.49755859 72.3569336L4.17041016 72.737793C4.98291422 73.1990583 5.54996584 73.6349263 5.87158203 74.0454102 6.19319822 74.455894 6.35400391 74.9488904 6.35400391 75.5244141 6.35400391 76.3411499 6.05249325 76.9970678 5.44946289 77.4921875 4.84643253 77.9873072 4.04769377 78.2348633 3.05322266 78.2348633L3.05322266 78.2348633zM7.82416591 68.6054688L9.15717372 68.6054688 9.15717372 74.5341797C9.15717372 75.4778693 9.33173252 76.1644673 9.68085536 76.5939941 10.0299782 77.023521 10.5853926 77.2382812 11.3471151 77.2382812 12.0919105 77.2382812 12.6198187 77.0362162 12.9308554 76.6320801 13.2418921 76.2279439 13.3974081 75.5434619 13.3974081 74.5786133L13.3974081 68.6054688 14.5653768 68.6054688 14.5653768 74.5595703C14.5653768 75.8418033 14.3019517 76.7748994 13.7750936 77.3588867 13.2482355 77.942874 12.4092954 78.2348633 11.2582479 78.2348633 10.0860416 78.2348633 9.22065308 77.9322947 8.66205654 77.3271484 8.10345999 76.7220022 7.82416591 75.7867902 7.82416591 74.5214844L7.82416591 68.6054688zM16.5941326 78L16.5941326 68.6054688 19.0316326 68.6054688C19.9710904 68.6054688 20.6915422 68.7832013 21.1930096 69.1386719 21.6944769 69.4941424 21.9452068 70.0061816 21.9452068 70.6748047 21.9452068 71.8131567 21.3019841 72.6235327 20.0155193 73.105957 21.5516598 73.5756859 22.3197185 74.4241475 22.3197185 75.6513672 22.3197185 76.4130897 22.0658148 76.9949524 21.5579998 77.3969727 21.0501848 77.7989929 20.3180957 78 19.3617107 78L16.5941326 78zM17.9144451 77.003418L18.1873943 77.003418C19.1649383 77.003418 19.7975817 76.9420579 20.0853435 76.8193359 20.6354765 76.5865874 20.9105389 76.1549511 20.9105389 75.5244141 20.9105389 74.9658175 20.6608669 74.5013853 20.1615154 74.1311035 19.662164 73.7608217 19.037984 73.5756836 18.2889568 73.5756836L17.9144451 73.5756836 17.9144451 77.003418zM17.9144451 72.7314453L18.3397381 72.7314453C19.0506791 72.7314453 19.6018618 72.5791031 19.9933025 72.2744141 20.3847433 71.969725 20.5804607 71.5402046 20.5804607 70.9858398 20.5804607 70.0633092 19.8652986 69.6020508 18.4349529 69.6020508L17.9144451 69.6020508 17.9144451 72.7314453zM23.7581423 78L23.7581423 68.6054688 26.8811891 68.6054688C27.8121834 68.6054688 28.5643731 68.7091461 29.1377809 68.9165039 29.7111887 69.1238617 30.2073589 69.4750952 30.6263063 69.9702148 31.2906977 70.7573282 31.6228884 71.7941016 31.6228884 73.0805664 31.6228884 74.6420977 31.2102948 75.852372 30.3850954 76.7114258 29.5598959 77.5704796 28.3982865 78 26.9002321 78L23.7581423 78zM25.0911501 77.003418L26.7986696 77.003418C28.0174257 77.003418 28.8806983 76.675459 29.3885134 76.0195312 29.9344145 75.3212856 30.207361 74.3839577 30.207361 73.2075195 30.207361 72.1030218 29.9386463 71.2355175 29.4012087 70.6049805 29.0753607 70.2198874 28.6860417 69.9564623 28.2332399 69.8146973 27.7804382 69.6729322 27.0991299 69.6020508 26.1892946 69.6020508L25.0911501 69.6020508 25.0911501 77.003418zM36.9651207 78.2348633C35.6617287 78.2348633 34.613318 77.7831263 33.819857 76.8796387 33.026396 75.9761511 32.6296715 74.7817457 32.6296715 73.2963867 32.6296715 71.8025641 33.0285119 70.6081588 33.8262047 69.7131348 34.6238974 68.8181108 35.6892351 68.3706055 37.0222496 68.3706055 38.3510323 68.3706055 39.415312 68.8170528 40.2151207 69.7099609 41.0149294 70.602869 41.4148277 71.7941006 41.4148277 73.2836914 41.4148277 74.8029047 41.0149294 76.0078894 40.2151207 76.8986816 39.415312 77.7894739 38.3319895 78.2348633 36.9651207 78.2348633L36.9651207 78.2348633zM36.9841636 77.2382812C37.9447804 77.2382812 38.6874488 76.8923374 39.212191 76.2004395 39.7369332 75.5085415 39.9993004 74.5320701 39.9993004 73.2709961 39.9993004 72.0480082 39.7358753 71.0916376 39.2090172 70.4018555 38.6821591 69.7120734 37.9532438 69.3671875 37.0222496 69.3671875 36.0870235 69.3671875 35.3570504 69.7131313 34.8323082 70.4050293 34.307566 71.0969273 34.0451988 72.0585876 34.0451988 73.2900391 34.0451988 74.5172587 34.3054501 75.4820928 34.8259605 76.1845703 35.3464709 76.8870478 36.0658648 77.2382812 36.9841636 77.2382812L36.9841636 77.2382812zM42.9675092 78L42.9675092 68.6054688 44.8146772 68.6054688 47.4172163 75.8735352 50.0959272 68.6054688 51.7463178 68.6054688 51.7463178 78 50.5021772 78 50.5021772 70.3574219 47.9123335 77.371582 46.6237592 77.371582 44.1100874 70.3383789 44.1100874 78 42.9675092 78zM53.8512455 78L53.8512455 68.6054688 59.1007572 68.6054688 59.1007572 69.6020508 55.1842533 69.6020508 55.1842533 72.6171875 58.4659916 72.6171875 58.4659916 73.6010742 55.1842533 73.6010742 55.1842533 77.003418 59.3737064 77.003418 59.3737064 78 53.8512455 78zM60.5836145 78L60.5836145 68.6054688 61.8912317 68.6054688 66.6202356 75.8608398 66.6202356 68.6054688 67.7628137 68.6054688 67.7628137 78 66.4615442 78 61.7261926 70.7446289 61.7261926 78 60.5836145 78zM69.874089 78L69.874089 68.6054688 75.1236007 68.6054688 75.1236007 69.6020508 71.2070968 69.6020508 71.2070968 72.6171875 74.4888351 72.6171875 74.4888351 73.6010742 71.2070968 73.6010742 71.2070968 77.003418 75.3965499 77.003418 75.3965499 78 69.874089 78zM76.606458 78L76.606458 68.6054688 79.450208 68.6054688C80.3515797 68.6054688 81.0424094 68.80436 81.5227178 69.2021484 82.0030262 69.5999369 82.2431768 70.1775678 82.2431768 70.9350586 82.2431768 72.187669 81.6105334 73.076332 80.3452276 73.6010742L83.4809698 78 81.8432744 78 79.1709112 74.0263672 77.9267705 74.0263672 77.9267705 78 76.606458 78zM77.9267705 73.0297852L78.3584112 73.0297852C80.0342008 73.0297852 80.872083 72.3717514 80.872083 71.0556641 80.872083 70.0865837 80.1696161 69.6020508 78.7646612 69.6020508L77.9267705 69.6020508 77.9267705 73.0297852zM209.271484 73.4296875C209.593101 72.7695279 209.945392 72.2744157 210.328369 71.9443359 210.711346 71.6142562 211.124998 71.4492188 211.569336 71.4492188 212.195641 71.4492188 212.725665 71.710528 213.159424 72.2331543 213.593183 72.7557806 213.810059 73.3915978 213.810059 74.140625 213.810059 74.9531291 213.575198 75.6545381 213.105469 76.244873 212.63574 76.835208 212.077152 77.1303711 211.429688 77.1303711 211.040363 77.1303711 210.638348 76.960044 210.223633 76.6193848 209.808917 76.2787255 209.383628 75.7656284 208.947754 75.0800781 208.621906 75.7402377 208.267499 76.2353499 207.884521 76.5654297 207.501544 76.8955095 207.090009 77.0605469 206.649902 77.0605469 206.027829 77.0605469 205.498863 76.7992376 205.062988 76.2766113 204.627114 75.753985 204.40918 75.1181678 204.40918 74.3691406 204.40918 73.5566366 204.644041 72.8552276 205.11377 72.2648926 205.583498 71.6745576 206.142087 71.3793945 206.789551 71.3793945 207.174644 71.3793945 207.574542 71.5507795 207.989258 71.8935547 208.403973 72.2363298 208.831378 72.748369 209.271484 73.4296875L209.271484 73.4296875zM208.541504 74.527832L208.395508 74.324707C207.90462 73.6603157 207.540691 73.219158 207.303711 73.0012207 207.066731 72.7832834 206.83187 72.6743164 206.599121 72.6743164 206.260578 72.6743164 205.971762 72.8499331 205.732666 73.2011719 205.49357 73.5524106 205.374023 73.9798152 205.374023 74.4833984 205.374023 74.9615909 205.505207 75.3604313 205.767578 75.6799316 206.029949 75.9994319 206.357908 76.1591797 206.751465 76.1591797 207.04769 76.1591797 207.344969 76.0237644 207.643311 75.7529297 207.941652 75.482095 208.241047 75.0737332 208.541504 74.527832L208.541504 74.527832zM209.677734 73.9819336L209.830078 74.1850586C210.232098 74.7351916 210.582274 75.1477851 210.880615 75.4228516 211.178957 75.697918 211.425455 75.8354492 211.620117 75.8354492 211.962892 75.8354492 212.252766 75.6598325 212.489746 75.3085938 212.726726 74.957355 212.845215 74.5299504 212.845215 74.0263672 212.845215 73.5481747 212.714031 73.1493343 212.45166 72.829834 212.189289 72.5103337 211.86133 72.3505859 211.467773 72.3505859 211.167316 72.3505859 210.867921 72.4870592 210.56958 72.7600098 210.271239 73.0329603 209.97396 73.4402642 209.677734 73.9819336L209.677734 73.9819336zM1.21240234 45L1.21240234 35.6054688 4.33544922 35.6054688C5.26644346 35.6054688 6.0186332 35.7091461 6.59204102 35.9165039 7.16544883 36.1238617 7.661619 36.4750952 8.08056641 36.9702148 8.74495775 37.7573282 9.07714844 38.7941016 9.07714844 40.0805664 9.07714844 41.6420977 8.66455491 42.852372 7.83935547 43.7114258 7.01415603 44.5704796 5.85254655 45 4.35449219 45L1.21240234 45zM2.54541016 44.003418L4.25292969 44.003418C5.47168578 44.003418 6.3349584 43.675459 6.84277344 43.0195312 7.3886746 42.3212856 7.66162109 41.3839577 7.66162109 40.2075195 7.66162109 39.1030218 7.39290633 38.2355175 6.85546875 37.6049805 6.52962077 37.2198874 6.14030174 36.9564623 5.6875 36.8146973 5.23469826 36.6729322 4.55338997 36.6020508 3.64355469 36.6020508L2.54541016 36.6020508 2.54541016 44.003418zM14.4193808 45.2348633C13.1159888 45.2348633 12.0675781 44.7831263 11.2741171 43.8796387 10.4806561 42.9761511 10.0839315 41.7817457 10.0839315 40.2963867 10.0839315 38.8025641 10.4827719 37.6081588 11.2804647 36.7131348 12.0781575 35.8181108 13.1434952 35.3706055 14.4765097 35.3706055 15.8052923 35.3706055 16.8695721 35.8170528 17.6693808 36.7099609 18.4691894 37.602869 18.8690878 38.7941006 18.8690878 40.2836914 18.8690878 41.8029047 18.4691894 43.0078894 17.6693808 43.8986816 16.8695721 44.7894739 15.7862496 45.2348633 14.4193808 45.2348633L14.4193808 45.2348633zM14.4384237 44.2382812C15.3990405 44.2382812 16.1417089 43.8923374 16.6664511 43.2004395 17.1911933 42.5085415 17.4535604 41.5320701 17.4535604 40.2709961 17.4535604 39.0480082 17.1901353 38.0916376 16.6632772 37.4018555 16.1364191 36.7120734 15.4075039 36.3671875 14.4765097 36.3671875 13.5412836 36.3671875 12.8113105 36.7131313 12.2865683 37.4050293 11.761826 38.0969273 11.4994589 39.0585876 11.4994589 40.2900391 11.4994589 41.5172587 11.7597102 42.4820928 12.2802206 43.1845703 12.800731 43.8870478 13.5201249 44.2382812 14.4384237 44.2382812L14.4384237 44.2382812zM20.4217693 45L20.4217693 35.6054688 22.2689373 35.6054688 24.8714764 42.8735352 27.5501873 35.6054688 29.2005779 35.6054688 29.2005779 45 27.9564373 45 27.9564373 37.3574219 25.3665935 44.371582 24.0780193 44.371582 21.5643474 37.3383789 21.5643474 45 20.4217693 45zM31.3055055 45L31.3055055 35.6054688 36.5550173 35.6054688 36.5550173 36.6020508 32.6385134 36.6020508 32.6385134 39.6171875 35.9202516 39.6171875 35.9202516 40.6010742 32.6385134 40.6010742 32.6385134 44.003418 36.8279665 44.003418 36.8279665 45 31.3055055 45zM38.0378746 45L38.0378746 35.6054688 39.3454918 35.6054688 44.0744957 42.8608398 44.0744957 35.6054688 45.2170738 35.6054688 45.2170738 45 43.9158043 45 39.1804527 37.7446289 39.1804527 45 38.0378746 45zM47.3283491 45L47.3283491 35.6054688 52.5778608 35.6054688 52.5778608 36.6020508 48.6613569 36.6020508 48.6613569 39.6171875 51.9430952 39.6171875 51.9430952 40.6010742 48.6613569 40.6010742 48.6613569 44.003418 52.85081 44.003418 52.85081 45 47.3283491 45zM54.0607181 45L54.0607181 35.6054688 56.9044681 35.6054688C57.8058398 35.6054688 58.4966695 35.80436 58.9769779 36.2021484 59.4572863 36.5999369 59.6974369 37.1775678 59.6974369 37.9350586 59.6974369 39.187669 59.0647935 40.076332 57.7994877 40.6010742L60.9352298 45 59.2975345 45 56.6251712 41.0263672 55.3810306 41.0263672 55.3810306 45 54.0607181 45zM55.3810306 40.0297852L55.8126712 40.0297852C57.4884609 40.0297852 58.3263431 39.3717514 58.3263431 38.0556641 58.3263431 37.0865837 57.6238762 36.6020508 56.2189212 36.6020508L55.3810306 36.6020508 55.3810306 40.0297852zM204.320312 44.9301758L204.320312 43.762207C205.217452 44.1176776 205.924151 44.2954102 206.44043 44.2954102 207.037112 44.2954102 207.522703 44.1208514 207.897217 43.7717285 208.27173 43.4226057 208.458984 42.9708687 208.458984 42.4165039 208.458984 41.0961848 207.534352 40.4360352 205.685059 40.4360352L205.189941 40.4360352 205.189941 39.5917969 205.62793 39.5854492C207.362964 39.5854492 208.230469 38.9739644 208.230469 37.7509766 208.230469 36.7903598 207.659185 36.3100586 206.516602 36.3100586 205.890296 36.3100586 205.200525 36.4856753 204.447266 36.8369141L204.447266 35.7451172C205.187829 35.4954415 205.907223 35.3706055 206.605469 35.3706055 208.526702 35.3706055 209.487305 36.0963469 209.487305 37.5478516 209.487305 38.6523493 208.833503 39.4394508 207.525879 39.9091797 209.04086 40.2604184 209.79834 41.0898372 209.79834 42.3974609 209.79834 43.2819055 209.506351 43.9759089 208.922363 44.4794922 208.338376 44.9830754 207.536463 45.2348633 206.516602 45.2348633 205.936846 45.2348633 205.204757 45.1333018 204.320312 44.9301758L204.320312 44.9301758zM1.21240234 111L1.21240234 101.605469 3.05957031 101.605469 5.66210938 108.873535 8.34082031 101.605469 9.99121094 101.605469 9.99121094 111 8.74707031 111 8.74707031 103.357422 6.15722656 110.371582 4.86865234 110.371582 2.35498047 103.338379 2.35498047 111 1.21240234 111zM12.5341268 113.507324L13.6513143 111 10.9852987 104.106445 12.3373495 104.106445 14.3114706 109.298828 16.4188925 104.106445 17.5995565 104.106445 13.8353964 113.507324 12.5341268 113.507324zM20.4154217 111.234863C19.7848847 111.234863 18.9787404 111.097332 17.9969646 110.822266L17.9969646 109.501953C19.0549126 109.992841 19.9245328 110.238281 20.6058514 110.238281 21.1305936 110.238281 21.5527085 110.10075 21.8722088 109.825684 22.1917091 109.550617 22.3514568 109.188804 22.3514568 108.740234 22.3514568 108.372068 22.2467215 108.058921 22.0372478 107.800781 21.8277741 107.542642 21.4416289 107.254884 20.8788006 106.9375L20.2313396 106.562988C19.4315309 106.105955 18.8676531 105.675376 18.5396892 105.27124 18.2117254 104.867104 18.0477459 104.396324 18.0477459 103.858887 18.0477459 103.13525 18.3101131 102.539634 18.8348553 102.072021 19.3595975 101.604408 20.0282106 101.370605 20.8407146 101.370605 21.5643511 101.370605 22.3281781 101.49121 23.1322185 101.732422L23.1322185 102.951172C22.1419792 102.561847 21.4035426 102.367188 20.9168865 102.367188 20.4556212 102.367188 20.0747656 102.489908 19.7743084 102.735352 19.4738512 102.980795 19.3236248 103.289712 19.3236248 103.662109 19.3236248 103.975262 19.4336497 104.25244 19.6537029 104.493652 19.8737561 104.734864 20.2757703 105.022622 20.8597576 105.356934L21.5326092 105.737793C22.3451132 106.199058 22.9121648 106.634926 23.233781 107.04541 23.5553972 107.455894 23.7162029 107.94889 23.7162029 108.524414 23.7162029 109.34115 23.4146923 109.997068 22.8116619 110.492188 22.2086315 110.987307 21.4098928 111.234863 20.4154217 111.234863L20.4154217 111.234863zM33.6033571 112.878906C32.1264617 112.400714 30.8886811 111.831546 29.8899782 111.171387 29.4921898 111.213705 29.1853894 111.234863 28.969568 111.234863 27.708494 111.234863 26.6833578 110.777837 25.8941286 109.86377 25.1048994 108.949702 24.7102907 107.762703 24.7102907 106.302734 24.7102907 104.80468 25.1091311 103.608159 25.9068239 102.713135 26.7045167 101.818111 27.7698543 101.370605 29.1028688 101.370605 30.4401151 101.370605 31.5065107 101.819169 32.3020876 102.716309 33.0976645 103.613448 33.495447 104.815259 33.495447 106.321777 33.495447 108.479991 32.6935344 109.973791 31.0896852 110.803223 32.1687922 111.277183 33.2880844 111.615722 34.4475954 111.818848L33.6033571 112.878906zM29.0647829 110.238281C30.0253997 110.238281 30.768068 109.893395 31.2928102 109.203613 31.8175524 108.513831 32.0799196 107.538418 32.0799196 106.277344 32.0799196 105.054356 31.8175524 104.096927 31.2928102 103.405029 30.768068 102.713131 30.0380949 102.367188 29.1028688 102.367188 28.1676428 102.367188 27.4376696 102.713131 26.9129274 103.405029 26.3881852 104.096927 26.125818 105.058588 26.125818 106.290039 26.125818 107.517259 26.3860693 108.482093 26.9065798 109.18457 27.4270902 109.887048 28.146484 110.238281 29.0647829 110.238281L29.0647829 110.238281zM35.0481285 111L35.0481285 101.605469 36.3811363 101.605469 36.3811363 110.003418 40.6086754 110.003418 40.6086754 111 35.0481285 111zM45.8341556 111.038086L45.8341556 109.920898C46.456229 110.170574 47.048671 110.29541 47.6114994 110.29541 48.229341 110.29541 48.7149318 110.113446 49.0682865 109.749512 49.4216411 109.385578 49.5983158 108.884118 49.5983158 108.245117 49.5983158 106.83593 48.6271341 106.131348 46.6847416 106.131348 46.4646884 106.131348 46.2340592 106.146159 45.992847 106.175781L45.992847 101.605469 50.7472416 101.605469 50.7472416 102.697266 47.0909916 102.697266 47.0909916 105.172852C48.2970523 105.172852 49.2386119 105.45003 49.9156986 106.004395 50.5927853 106.558759 50.9313236 107.326818 50.9313236 108.308594 50.9313236 109.222661 50.6234653 109.938881 50.0077396 110.457275 49.3920139 110.97567 48.5382626 111.234863 47.4464603 111.234863 46.9724996 111.234863 46.4350701 111.169271 45.8341556 111.038086L45.8341556 111.038086zM57.1724288 111L57.1724288 101.605469 60.2954757 101.605469C61.22647 101.605469 61.9786597 101.709146 62.5520675 101.916504 63.1254753 102.123862 63.6216455 102.475095 64.0405929 102.970215 64.7049843 103.757328 65.0371749 104.794102 65.0371749 106.080566 65.0371749 107.642098 64.6245814 108.852372 63.799382 109.711426 62.9741825 110.57048 61.8125731 111 60.3145187 111L57.1724288 111zM58.5054367 110.003418L60.2129562 110.003418C61.4317123 110.003418 62.2949849 109.675459 62.8027999 109.019531 63.3487011 108.321286 63.6216476 107.383958 63.6216476 106.20752 63.6216476 105.103022 63.3529328 104.235517 62.8154953 103.60498 62.4896473 103.219887 62.1003282 102.956462 61.6475265 102.814697 61.1947248 102.672932 60.5134165 102.602051 59.6035812 102.602051L58.5054367 102.602051 58.5054367 110.003418zM71.3569463 107.407227L69.7573369 103.357422 68.1513799 107.407227 71.3569463 107.407227zM72.766126 111L71.7441534 108.397461 67.7641729 108.397461 66.7295049 111 65.4917119 111 69.2177862 101.605469 70.5380987 101.605469 74.207044 111 72.766126 111zM77.486288 111L77.486288 102.602051 74.1537685 102.602051 74.1537685 101.605469 82.1518154 101.605469 82.1518154 102.602051 78.8192958 102.602051 78.8192958 111 77.486288 111zM87.9193406 107.407227L86.3197313 103.357422 84.7137742 107.407227 87.9193406 107.407227zM89.3285203 111L88.3065477 108.397461 84.3265672 108.397461 83.2918992 111 82.0541063 111 85.7801805 101.605469 87.100493 101.605469 90.7694383 111 89.3285203 111zM91.8143073 111L91.8143073 101.605469 94.2518073 101.605469C95.1912652 101.605469 95.9117169 101.783201 96.4131843 102.138672 96.9146516 102.494142 97.1653816 103.006182 97.1653816 103.674805 97.1653816 104.813157 96.5221588 105.623533 95.2356941 106.105957 96.7718345 106.575686 97.5398933 107.424148 97.5398933 108.651367 97.5398933 109.41309 97.2859896 109.994952 96.7781745 110.396973 96.2703595 110.798993 95.5382704 111 94.5818855 111L91.8143073 111zM93.1346198 110.003418L93.4075691 110.003418C94.385113 110.003418 95.0177564 109.942058 95.3055183 109.819336 95.8556512 109.586587 96.1307136 109.154951 96.1307136 108.524414 96.1307136 107.965818 95.8810416 107.501385 95.3816901 107.131104 94.8823387 106.760822 94.2581587 106.575684 93.5091316 106.575684L93.1346198 106.575684 93.1346198 110.003418zM93.1346198 105.731445L93.5599128 105.731445C94.2708539 105.731445 94.8220365 105.579103 95.2134773 105.274414 95.604918 104.969725 95.8006355 104.540205 95.8006355 103.98584 95.8006355 103.063309 95.0854733 102.602051 93.6551276 102.602051L93.1346198 102.602051 93.1346198 105.731445zM103.739059 107.407227L102.13945 103.357422 100.533493 107.407227 103.739059 107.407227zM105.148239 111L104.126266 108.397461 100.146286 108.397461 99.1116178 111 97.8738248 111 101.599899 101.605469 102.920212 101.605469 106.589157 111 105.148239 111zM109.474846 111.234863C108.844309 111.234863 108.038165 111.097332 107.056389 110.822266L107.056389 109.501953C108.114337 109.992841 108.983957 110.238281 109.665276 110.238281 110.190018 110.238281 110.612133 110.10075 110.931633 109.825684 111.251134 109.550617 111.410881 109.188804 111.410881 108.740234 111.410881 108.372068 111.306146 108.058921 111.096672 107.800781 110.887199 107.542642 110.501053 107.254884 109.938225 106.9375L109.290764 106.562988C108.490955 106.105955 107.927078 105.675376 107.599114 105.27124 107.27115 104.867104 107.10717 104.396324 107.10717 103.858887 107.10717 103.13525 107.369538 102.539634 107.89428 102.072021 108.419022 101.604408 109.087635 101.370605 109.900139 101.370605 110.623776 101.370605 111.387603 101.49121 112.191643 101.732422L112.191643 102.951172C111.201404 102.561847 110.462967 102.367188 109.976311 102.367188 109.515046 102.367188 109.13419 102.489908 108.833733 102.735352 108.533276 102.980795 108.383049 103.289712 108.383049 103.662109 108.383049 103.975262 108.493074 104.25244 108.713127 104.493652 108.933181 104.734864 109.335195 105.022622 109.919182 105.356934L110.592034 105.737793C111.404538 106.199058 111.971589 106.634926 112.293206 107.04541 112.614822 107.455894 112.775627 107.94889 112.775627 108.524414 112.775627 109.34115 112.474117 109.997068 111.871086 110.492188 111.268056 110.987307 110.469317 111.234863 109.474846 111.234863L109.474846 111.234863zM114.321961 111L114.321961 101.605469 119.571473 101.605469 119.571473 102.602051 115.654969 102.602051 115.654969 105.617188 118.936707 105.617188 118.936707 106.601074 115.654969 106.601074 115.654969 110.003418 119.844422 110.003418 119.844422 111 114.321961 111zM121.05433 111L121.05433 101.605469 123.89808 101.605469C124.799452 101.605469 125.490282 101.80436 125.97059 102.202148 126.450899 102.599937 126.691049 103.177568 126.691049 103.935059 126.691049 105.187669 126.058406 106.076332 124.7931 106.601074L127.928842 111 126.291147 111 123.618783 107.026367 122.374643 107.026367 122.374643 111 121.05433 111zM122.374643 106.029785L122.806283 106.029785C124.482073 106.029785 125.319955 105.371751 125.319955 104.055664 125.319955 103.086584 124.617488 102.602051 123.212533 102.602051L122.374643 102.602051 122.374643 106.029785zM204.320312 110.930176L204.320312 109.762207C205.217452 110.117678 205.924151 110.29541 206.44043 110.29541 207.037112 110.29541 207.522703 110.120851 207.897217 109.771729 208.27173 109.422606 208.458984 108.970869 208.458984 108.416504 208.458984 107.096185 207.534352 106.436035 205.685059 106.436035L205.189941 106.436035 205.189941 105.591797 205.62793 105.585449C207.362964 105.585449 208.230469 104.973964 208.230469 103.750977 208.230469 102.79036 207.659185 102.310059 206.516602 102.310059 205.890296 102.310059 205.200525 102.485675 204.447266 102.836914L204.447266 101.745117C205.187829 101.495441 205.907223 101.370605 206.605469 101.370605 208.526702 101.370605 209.487305 102.096347 209.487305 103.547852 209.487305 104.652349 208.833503 105.439451 207.525879 105.90918 209.04086 106.260418 209.79834 107.089837 209.79834 108.397461 209.79834 109.281905 209.506351 109.975909 208.922363 110.479492 208.338376 110.983075 207.536463 111.234863 206.516602 111.234863 205.936846 111.234863 205.204757 111.133302 204.320312 110.930176L204.320312 110.930176zM3.05322266 142.234863C2.42268565 142.234863 1.61654137 142.097332.634765625 141.822266L.634765625 140.501953C1.69271362 140.992841 2.56233383 141.238281 3.24365234 141.238281 3.76839455 141.238281 4.19050947 141.10075 4.51000977 140.825684 4.82951006 140.550617 4.98925781 140.188804 4.98925781 139.740234 4.98925781 139.372068 4.88452253 139.058921 4.67504883 138.800781 4.46557512 138.542642 4.0794299 138.254884 3.51660156 137.9375L2.86914062 137.562988C2.06933194 137.105955 1.50545411 136.675376 1.17749023 136.27124.849526355 135.867104.685546875 135.396324.685546875 134.858887.685546875 134.13525.947914043 133.539634 1.47265625 133.072021 1.99739846 132.604408 2.66601156 132.370605 3.47851562 132.370605 4.20215206 132.370605 4.96597905 132.49121 5.77001953 132.732422L5.77001953 133.951172C4.77978021 133.561847 4.04134358 133.367188 3.5546875 133.367188 3.09342217 133.367188 2.71256661 133.489908 2.41210938 133.735352 2.11165214 133.980795 1.96142578 134.289712 1.96142578 134.662109 1.96142578 134.975262 2.07145072 135.25244 2.29150391 135.493652 2.51155709 135.734864 2.9135713 136.022622 3.49755859 136.356934L4.17041016 136.737793C4.98291422 137.199058 5.54996584 137.634926 5.87158203 138.04541 6.19319822 138.455894 6.35400391 138.94889 6.35400391 139.524414 6.35400391 140.34115 6.05249325 140.997068 5.44946289 141.492188 4.84643253 141.987307 4.04769377 142.234863 3.05322266 142.234863L3.05322266 142.234863zM9.7411581 142.234863C9.11062109 142.234863 8.30447681 142.097332 7.32270107 141.822266L7.32270107 140.501953C8.38064906 140.992841 9.25026927 141.238281 9.93158779 141.238281 10.45633 141.238281 10.8784449 141.10075 11.1979452 140.825684 11.5174455 140.550617 11.6771933 140.188804 11.6771933 139.740234 11.6771933 139.372068 11.572458 139.058921 11.3629843 138.800781 11.1535106 138.542642 10.7673653 138.254884 10.204537 137.9375L9.55707607 137.562988C8.75726738 137.105955 8.19338956 136.675376 7.86542568 136.27124 7.5374618 135.867104 7.37348232 135.396324 7.37348232 134.858887 7.37348232 134.13525 7.63584948 133.539634 8.16059169 133.072021 8.6853339 132.604408 9.353947 132.370605 10.1664511 132.370605 10.8900875 132.370605 11.6539145 132.49121 12.457955 132.732422L12.457955 133.951172C11.4677156 133.561847 10.729279 133.367188 10.2426229 133.367188 9.78135761 133.367188 9.40050205 133.489908 9.10004482 133.735352 8.79958759 133.980795 8.64936122 134.289712 8.64936122 134.662109 8.64936122 134.975262 8.75938616 135.25244 8.97943935 135.493652 9.19949253 135.734864 9.60150674 136.022622 10.185494 136.356934L10.8583456 136.737793C11.6708497 137.199058 12.2379013 137.634926 12.5595175 138.04541 12.8811337 138.455894 13.0419393 138.94889 13.0419393 139.524414 13.0419393 140.34115 12.7404287 140.997068 12.1373983 141.492188 11.534368 141.987307 10.7356292 142.234863 9.7411581 142.234863L9.7411581 142.234863zM14.5882732 142L14.5882732 132.605469 15.921281 132.605469 15.921281 136.566406 20.390031 136.566406 20.390031 132.605469 21.7230389 132.605469 21.7230389 142 20.390031 142 20.390031 137.562988 15.921281 137.562988 15.921281 142 14.5882732 142zM29.8620933 142L29.8620933 133.602051 26.5295738 133.602051 26.5295738 132.605469 34.5276207 132.605469 34.5276207 133.602051 31.1951011 133.602051 31.1951011 142 29.8620933 142zM35.5280561 142L35.5280561 132.605469 36.8610639 132.605469 36.8610639 142 35.5280561 142zM38.9659916 142L38.9659916 132.605469 40.2989994 132.605469 40.2989994 141.003418 44.5265384 141.003418 44.5265384 142 38.9659916 142zM52.6426965 141.746094C51.5043445 142.071942 50.5120041 142.234863 49.6656457 142.234863 48.1718232 142.234863 47.0260827 141.809575 46.2283899 140.958984 45.4306971 140.108394 45.0318567 138.889656 45.0318567 137.302734 45.0318567 135.745435 45.4359868 134.534103 46.244259 133.668701 47.0525313 132.8033 48.1866345 132.370605 49.6466028 132.370605 50.6029878 132.370605 51.597444 132.512368 52.6300012 132.795898L52.6300012 134.027344C51.3350729 133.587237 50.3427325 133.367188 49.6529504 133.367188 48.6373204 133.367188 47.8491609 133.712073 47.2884485 134.401855 46.727736 135.091638 46.447384 136.062819 46.447384 137.31543 46.447384 138.555345 46.7478368 139.519121 47.3487512 140.206787 47.9496657 140.894453 48.7917797 141.238281 49.8751184 141.238281 50.3194566 141.238281 50.7997578 141.159994 51.3160364 141.003418L51.3160364 137.943848 52.6426965 137.943848 52.6426965 141.746094zM59.4258468 138.407227L57.8262374 134.357422 56.2202804 138.407227 59.4258468 138.407227zM60.8350265 142L59.8130538 139.397461 55.8330734 139.397461 54.7984054 142 53.5606124 142 57.2866867 132.605469 58.6069992 132.605469 62.2759445 142 60.8350265 142zM63.3208135 142L63.3208135 132.605469 64.6284307 132.605469 69.3574346 139.86084 69.3574346 132.605469 70.5000127 132.605469 70.5000127 142 69.1987432 142 64.4633916 134.744629 64.4633916 142 63.3208135 142zM79.6698818 141.746094C78.5315297 142.071942 77.5391894 142.234863 76.692831 142.234863 75.1990084 142.234863 74.0532679 141.809575 73.2555751 140.958984 72.4578823 140.108394 72.0590419 138.889656 72.0590419 137.302734 72.0590419 135.745435 72.463172 134.534103 73.2714443 133.668701 74.0797165 132.8033 75.2138198 132.370605 76.673788 132.370605 77.630173 132.370605 78.6246292 132.512368 79.6571864 132.795898L79.6571864 134.027344C78.3622581 133.587237 77.3699178 133.367188 76.6801357 133.367188 75.6645056 133.367188 74.8763462 133.712073 74.3156337 134.401855 73.7549213 135.091638 73.4745693 136.062819 73.4745693 137.31543 73.4745693 138.555345 73.775022 139.519121 74.3759364 140.206787 74.9768509 140.894453 75.8189649 141.238281 76.9023036 141.238281 77.3466418 141.238281 77.826943 141.159994 78.3432216 141.003418L78.3432216 137.943848 79.6698818 137.943848 79.6698818 141.746094z"/>
        <polygon points="204.955 142 204.955 141.061 206.834 141.061 206.834 133.646 204.955 134.116 204.955 133.151 208.091 132.371 208.091 141.061 209.97 141.061 209.97 142"/>
      </g>
      <rect width="5" height="198" x="153" fill="#D8D8D8" fill-opacity=".4"/>
    </g>
    <path fill="#FFFFFF" d="M181.143715 68.2128906C181.143715 69.0787804 181.050943 70.099278 180.865395 71.2744141 180.679847 72.4495501 180.432454 73.6246686 180.123208 74.7998047 179.813961 75.9749408 179.473795 77.0882109 179.1027 78.1396484 178.731604 79.191086 178.360514 79.9951144 177.989419 80.5517578 176.381338 82.9638792 174.371267 85.8552891 171.959145 89.2260742 169.547024 92.5968593 167.026704 96.1067526 164.39811 99.7558594 161.769516 103.404966 159.187348 106.99217 156.651528 110.517578 154.115708 114.042986 151.920092 117.135403 150.064614 119.794922L180.308754 119.794922 180.308754 130 123.438637 130 123.438637 123.134766C124.490075 121.774082 125.974435 119.825859 127.891762 117.290039 129.80909 114.754219 131.973781 111.909195 134.385903 108.754883 136.798024 105.60057 139.349268 102.214374 142.039711 98.5961914 144.730155 94.9780093 147.420557 91.3753435 150.111001 87.7880859 152.801444 84.2008284 155.383612 80.7373214 157.857583 77.3974609 160.331553 74.0576005 162.527169 71.057956 164.444497 68.3984375 165.495934 66.9759043 166.408197 65.5379304 167.181313 64.0844727 167.954429 62.6310149 168.340981 61.1002685 168.340981 59.4921875 166.547352 56.8945183 164.274426 54.8225989 161.522133 53.2763672 158.769841 51.7301355 155.692886 50.9570312 152.291176 50.9570312 148.64207 50.9570312 145.286797 51.822908 142.225258 53.5546875 139.16372 55.286467 136.736172 57.6057797 134.942544 60.5126953L133.829262 59.4921875C133.087071 58.8118456 132.283043 58.0851276 131.417153 57.3120117 130.551263 56.5388959 129.747235 55.8121779 129.005044 55.1318359L127.891762 54.1113281C130.489431 50.0292765 133.906552 46.7822386 138.143227 44.3701172 142.379902 41.9579958 147.095838 40.7519531 152.291176 40.7519531 157.115419 40.7519531 161.336568 41.5405195 164.954751 43.1176758 168.572933 44.6948321 171.588039 46.7667515 174.000161 49.3334961 176.412282 51.9002407 178.205884 54.8380368 179.38102 58.1469727 180.556156 61.4559085 181.143715 64.8111809 181.143715 68.2128906L181.143715 68.2128906zM151.184606 156.692383C149.555692 157.11426 148.149456 157.325195 146.965856 157.325195 144.721704 157.325195 142.9976 156.734869 141.793493 155.554199 140.589385 154.373529 139.98734 152.681652 139.98734 150.478516 139.98734 148.292958 140.589385 146.611334 141.793493 145.433594 142.9976 144.255853 144.712915 143.666992 146.939489 143.666992 148.363324 143.666992 149.775419 143.833983 151.175817 144.167969L151.175817 146.286133C149.552762 145.729489 148.219767 145.451172 147.176793 145.451172 145.799833 145.451172 144.736367 145.890621 143.986364 146.769531 143.23636 147.648442 142.861364 148.893547 142.861364 150.504883 142.861364 152.063484 143.262727 153.286617 144.065465 154.174316 144.868204 155.062016 145.975614 155.505859 147.387731 155.505859 147.698279 155.505859 148.061557 155.461915 148.477575 155.374023L148.477575 151.09375 151.184606 151.09375 151.184606 156.692383zM153.782715 157L153.782715 143.992188 158.203613 143.992188C159.51026 143.992188 160.504879 144.238279 161.1875 144.730469 161.870121 145.222659 162.211426 145.940425 162.211426 146.883789 162.211426 148.44825 161.171397 149.555661 159.091309 150.206055 161.522961 150.797855 162.73877 151.990225 162.73877 153.783203 162.73877 154.820318 162.382816 155.61572 161.670898 156.169434 160.958981 156.723147 159.937995 157 158.60791 157L153.782715 157zM156.331543 149.40625L156.973145 149.40625C157.734867 149.40625 158.339842 149.218752 158.788086 148.84375 159.23633 148.468748 159.460449 147.958988 159.460449 147.314453 159.460449 146.716794 159.280275 146.311036 158.919922 146.097168 158.559569 145.8833 157.878423 145.776367 156.876465 145.776367L156.331543 145.776367 156.331543 149.40625zM156.331543 155.154297L156.911621 155.154297C158.048346 155.154297 158.832029 155.032716 159.262695 154.789551 159.693362 154.546386 159.908691 154.102542 159.908691 153.458008 159.908691 152.795895 159.62012 152.245119 159.042969 151.805664 158.465817 151.366209 157.737797 151.146484 156.858887 151.146484L156.331543 151.146484 156.331543 155.154297zM112.868533 178L112.868533 164.992188 115.575564 164.992188 115.575564 176.154297 121.437869 176.154297 121.437869 178 112.868533 178zM121.478361 178L126.540861 164.992188 129.247892 164.992188 134.310392 178 131.533048 178 130.179532 174.52832 124.800626 174.52832 123.447111 178 121.478361 178zM125.468595 172.796875L129.511564 172.796875 127.490079 167.611328 125.468595 172.796875zM146.110649 177.692383C144.481735 178.11426 143.075499 178.325195 141.891899 178.325195 139.647747 178.325195 137.923643 177.734869 136.719536 176.554199 135.515428 175.373529 134.913383 173.681652 134.913383 171.478516 134.913383 169.292958 135.515428 167.611334 136.719536 166.433594 137.923643 165.255853 139.638958 164.666992 141.865532 164.666992 143.289367 164.666992 144.701462 164.833983 146.10186 165.167969L146.10186 167.286133C144.478805 166.729489 143.145811 166.451172 142.102837 166.451172 140.725877 166.451172 139.662411 166.890621 138.912407 167.769531 138.162403 168.648442 137.787407 169.893547 137.787407 171.504883 137.787407 173.063484 138.18877 174.286617 138.991508 175.174316 139.794247 176.062016 140.901658 176.505859 142.313774 176.505859 142.624323 176.505859 142.9876 176.461915 143.403618 176.374023L143.403618 172.09375 146.110649 172.09375 146.110649 177.692383zM148.708758 178L148.708758 164.992188 153.577899 164.992188C156.22049 164.992188 157.541766 166.067372 157.541766 168.217773 157.541766 169.020512 157.317647 169.751462 156.869403 170.410645 156.421158 171.069828 155.804465 171.575194 155.019305 171.926758L159.273211 178 155.977313 178 152.751727 172.682617 151.257586 172.682617 151.257586 178 148.708758 178zM151.257586 170.898438L151.88161 170.898438C153.84451 170.898438 154.825946 170.1045 154.825946 168.516602 154.825946 167.35644 153.949978 166.776367 152.198016 166.776367L151.257586 166.776367 151.257586 170.898438zM160.693586 178L160.693586 164.992188 163.400617 164.992188 163.400617 178 160.693586 178zM166.227242 178L166.227242 164.992188 168.609077 164.992188 174.638374 173.87793 174.638374 164.992188 176.809273 164.992188 176.809273 178 174.383492 178 168.39814 169.114258 168.39814 178 166.227242 178zM190.01578 177.692383C188.386866 178.11426 186.98063 178.325195 185.79703 178.325195 183.552878 178.325195 181.828774 177.734869 180.624667 176.554199 179.420559 175.373529 178.818514 173.681652 178.818514 171.478516 178.818514 169.292958 179.420559 167.611334 180.624667 166.433594 181.828774 165.255853 183.544089 164.666992 185.770663 164.666992 187.194498 164.666992 188.606593 164.833983 190.006991 165.167969L190.006991 167.286133C188.383936 166.729489 187.050942 166.451172 186.007968 166.451172 184.631008 166.451172 183.567542 166.890621 182.817538 167.769531 182.067534 168.648442 181.692538 169.893547 181.692538 171.504883 181.692538 173.063484 182.093901 174.286617 182.896639 175.174316 183.699378 176.062016 184.806789 176.505859 186.218905 176.505859 186.529454 176.505859 186.892731 176.461915 187.308749 176.374023L187.308749 172.09375 190.01578 172.09375 190.01578 177.692383zM69.9006108 487L55.2052983 487 55.2052983 431.804688C54.5021698 432.039064 53.5881164 432.285155 52.4631108 432.542969 51.3381051 432.800783 50.4474891 433.023437 49.7912358 433.210938L49.7912358 425.195312C50.9631166 424.867186 52.4162271 424.445315 54.1506108 423.929688 55.8849944 423.41406 57.6896639 422.886721 59.5646733 422.347656 61.4396826 421.808591 63.2912266 421.269534 65.1193608 420.730469 66.9474949 420.191404 68.541229 419.734377 69.9006108 419.359375L69.9006108 487zM123.029232 465.765625C123.029232 468.718765 122.478457 471.484362 121.376889 474.0625 120.275321 476.640638 118.751898 478.890615 116.806576 480.8125 114.861254 482.734385 112.599558 484.246088 110.02142 485.347656 107.443282 486.449224 104.677685 487 101.724545 487 98.7714051 487 96.0058077 486.449224 93.4276699 485.347656 90.849532 484.246088 88.5995545 482.734385 86.6776699 480.8125 84.7557852 478.890615 83.2440816 476.640638 82.1425136 474.0625 81.0409456 471.484362 80.4901699 468.718765 80.4901699 465.765625L80.4901699 440.59375C80.4901699 437.64061 81.0409456 434.875013 82.1425136 432.296875 83.2440816 429.718737 84.7557852 427.46876 86.6776699 425.546875 88.5995545 423.62499 90.849532 422.113287 93.4276699 421.011719 96.0058077 419.910151 98.7714051 419.359375 101.724545 419.359375 104.677685 419.359375 107.443282 419.910151 110.02142 421.011719 112.599558 422.113287 114.861254 423.62499 116.806576 425.546875 118.751898 427.46876 120.275321 429.718737 121.376889 432.296875 122.478457 434.875013 123.029232 437.64061 123.029232 440.59375L123.029232 465.765625zM108.33392 428.710938C107.396415 428.19531 106.341738 427.796876 105.169857 427.515625 103.997976 427.234374 102.84955 427.09375 101.724545 427.09375 100.646414 427.09375 99.5214257 427.234374 98.3495449 427.515625 97.177664 427.796876 96.122987 428.19531 95.1854824 428.710938L95.1854824 477.648438C96.122987 478.11719 97.177664 478.503905 98.3495449 478.808594 99.5214257 479.113283 100.646414 479.265625 101.724545 479.265625 102.84955 479.265625 103.997976 479.125001 105.169857 478.84375 106.341738 478.562499 107.396415 478.164065 108.33392 477.648438L108.33392 428.710938zM176.157854 465.765625C176.157854 468.718765 175.607078 471.484362 174.50551 474.0625 173.403942 476.640638 171.88052 478.890615 169.935198 480.8125 167.989875 482.734385 165.728179 484.246088 163.150041 485.347656 160.571904 486.449224 157.806306 487 154.853166 487 151.900027 487 149.134429 486.449224 146.556291 485.347656 143.978154 484.246088 141.728176 482.734385 139.806291 480.8125 137.884407 478.890615 136.372703 476.640638 135.271135 474.0625 134.169567 471.484362 133.618791 468.718765 133.618791 465.765625L133.618791 440.59375C133.618791 437.64061 134.169567 434.875013 135.271135 432.296875 136.372703 429.718737 137.884407 427.46876 139.806291 425.546875 141.728176 423.62499 143.978154 422.113287 146.556291 421.011719 149.134429 419.910151 151.900027 419.359375 154.853166 419.359375 157.806306 419.359375 160.571904 419.910151 163.150041 421.011719 165.728179 422.113287 167.989875 423.62499 169.935198 425.546875 171.88052 427.46876 173.403942 429.718737 174.50551 432.296875 175.607078 434.875013 176.157854 437.64061 176.157854 440.59375L176.157854 465.765625zM161.462541 428.710938C160.525037 428.19531 159.47036 427.796876 158.298479 427.515625 157.126598 427.234374 155.978172 427.09375 154.853166 427.09375 153.775036 427.09375 152.650047 427.234374 151.478166 427.515625 150.306286 427.796876 149.251609 428.19531 148.314104 428.710938L148.314104 477.648438C149.251609 478.11719 150.306286 478.503905 151.478166 478.808594 152.650047 479.113283 153.775036 479.265625 154.853166 479.265625 155.978172 479.265625 157.126598 479.125001 158.298479 478.84375 159.47036 478.562499 160.525037 478.164065 161.462541 477.648438L161.462541 428.710938zM189.649058 490.46875L195.895152 469.65625 198.004527 469.65625 191.758433 490.46875 189.649058 490.46875zM202.206953 487L202.206953 474.132812 205.535078 474.132812 205.535078 476.558594C206.550709 474.746085 207.996007 473.839844 209.871016 473.839844 210.839771 473.839844 211.636638 474.078123 212.261641 474.554688 212.886644 475.031252 213.269453 475.699214 213.410078 476.558594 214.61321 474.746085 216.06632 473.839844 217.769453 473.839844 220.121028 473.839844 221.296797 475.136706 221.296797 477.730469L221.296797 487 217.968672 487 217.968672 478.867188C217.968672 477.343742 217.460865 476.582031 216.445235 476.582031 215.406167 476.582031 214.394458 477.332024 213.410078 478.832031L213.410078 487 210.081953 487 210.081953 478.867188C210.081953 477.33593 209.57024 476.570312 208.546797 476.570312 207.523355 476.570312 206.519458 477.324211 205.535078 478.832031L205.535078 487 202.206953 487zM224.901567 487L224.901567 474.132812 228.370317 474.132812 228.370317 476.558594C229.503136 474.746085 230.964059 473.839844 232.75313 473.839844 233.901573 473.839844 234.807814 474.203121 235.47188 474.929688 236.135946 475.656254 236.467974 476.648431 236.467974 477.90625L236.467974 487 232.999224 487 232.999224 478.761719C232.999224 477.300774 232.514854 476.570312 231.546099 476.570312 230.444531 476.570312 229.385948 477.347648 228.370317 478.902344L228.370317 487 224.901567 487zM248.182119 487L248.182119 484.574219C247.29149 486.386728 245.88916 487.292969 243.975088 487.292969 242.428205 487.292969 241.213373 486.726568 240.330556 485.59375 239.44774 484.460932 239.006338 482.902354 239.006338 480.917969 239.006338 478.761708 239.50438 477.042975 240.500478 475.761719 241.496577 474.480462 242.834454 473.839844 244.51415 473.839844 245.857907 473.839844 247.080551 474.371088 248.182119 475.433594L248.182119 468.496094 251.662588 468.496094 251.662588 487 248.182119 487zM248.182119 477.496094C247.346177 476.558589 246.451655 476.089844 245.498525 476.089844 244.646958 476.089844 243.967278 476.499996 243.459463 477.320312 242.951648 478.140629 242.697744 479.242181 242.697744 480.625 242.697744 483.257826 243.541486 484.574219 245.228994 484.574219 246.260249 484.574219 247.244614 483.914069 248.182119 482.59375L248.182119 477.496094z"/>
  </g>
</svg>
